<?xml version="1.0" encoding="UTF-8"?>
<svg width="94px" height="100px" viewBox="0 0 94 100" version="1.1" xmlns="http://www.w3.org/2000/svg" xmlns:xlink="http://www.w3.org/1999/xlink">
    <!-- Generator: Sketch 53.1 (72631) - https://sketchapp.com -->
    <title>Star</title>
    <desc>Created with Sketch.</desc>
    <defs>
        <polygon id="path-1" points="0 0.241105875 14.2437404 0.241105875 14.2437404 6.99163053 0 6.99163053"></polygon>
        <polygon id="path-3" points="0.000898811328 0.199426389 4.88949229 0.199426389 4.88949229 15.4639175 0.000898811328 15.4639175"></polygon>
    </defs>
    <g id="Page-1" stroke="none" stroke-width="1" fill="none" fill-rule="evenodd">
        <g id="About-Us" transform="translate(-755.000000, -1033.000000)">
            <g id="Star" transform="translate(755.000000, 1033.000000)">
                <path d="M20.5651037,33.9074579 C20.5651037,33.9142427 20.5651037,33.9212989 20.5651037,33.9280838 C17.0096955,33.9280838 13.4515676,33.8512793 9.90132674,33.9820912 C9.01743806,34.0149299 7.81126997,34.4904123 7.36687794,35.1650978 C6.63637795,36.2737425 7.76965922,36.9929367 8.60731371,37.6312555 C14.0632186,41.7890122 19.514228,45.9524682 24.9685011,50.1118532 C28.7393061,52.9875445 29.6528391,55.85238 28.2220273,60.4012155 C26.2445643,66.6888726 24.2170597,72.9613317 22.3200986,79.2731429 C22.063363,80.1274913 22.0927353,81.4611216 22.5985915,82.0636164 C23.5007019,83.1380654 24.595908,82.2318807 25.5059054,81.6079458 C31.2133785,77.6958007 36.9116048,73.7698145 42.6253332,69.8663541 C45.7812237,67.7101284 49.0668419,67.7215269 52.2205567,69.8774812 C57.9329253,73.7822987 63.6382227,77.6977005 69.344608,81.6112026 C70.2559652,82.2364944 71.3190793,83.1752464 72.2331562,82.0728438 C72.7398284,81.4624786 72.7966692,80.1416038 72.5418373,79.2951258 C70.606529,72.867158 68.5278948,66.4820704 66.5267709,60.0736429 C65.2025697,55.8341966 66.1280691,52.9880873 69.6908204,50.2565063 C74.1137993,46.8654377 78.5563598,43.4998802 82.9880416,40.1202102 C84.302996,39.1174093 85.676695,38.1764861 86.8850388,37.0583427 C87.3313346,36.6455523 88.1224829,35.5523771 87.9530483,35.0380854 C87.780622,34.5156519 87.1586363,34.19405 85.8948115,34.0214433 C85.255692,33.9343259 84.5608195,33.9248271 83.8868884,33.9245557 C77.4502751,33.9240129 71.0133898,33.9487097 64.5767765,33.926184 C59.8951581,33.9101718 57.4670479,32.1317266 55.9777635,27.7145172 C53.7930627,21.2349845 51.6181526,14.7516523 49.4299162,8.27320514 C49.0796243,7.23566572 48.7676796,5.84232872 47.3743991,6.18672776 C46.6099034,6.37561801 45.7847593,7.40854373 45.4921242,8.23819531 C43.1785115,14.802403 41.0011538,21.4141046 38.7517251,28.0011093 C37.3674194,32.0549221 34.9632422,33.8235971 30.6803257,33.8960593 C27.3095822,33.9527807 23.936935,33.9074579 20.5651037,33.9074579 L20.5651037,33.9074579 Z M19.4127848,27.9020505 C22.9064568,27.9020505 26.4017605,27.836916 29.8927129,27.9286471 C31.725762,27.9769553 32.6564288,27.2330642 33.2166782,25.5113404 C35.3483457,18.9563602 37.5705779,12.4306904 39.7906342,5.90474935 C41.1463835,1.91932786 43.6843678,-0.00865540233 47.4418466,2.92069661e-05 C51.1830074,0.00817102818 53.7560753,1.96030836 55.1028497,5.92618948 C57.3003329,12.3981232 59.5203893,18.8638148 61.5808018,25.3797143 C62.1946285,27.3212673 63.2536631,27.9468305 65.1835321,27.9270188 C72.0474036,27.8578133 78.9129069,27.8545566 85.7770504,27.9099209 C90.6805928,27.9495445 94.0660224,31.4904225 93.7997679,36.1958524 C93.6510026,38.8256607 92.2623455,40.7400742 90.2051966,42.2957049 C84.7351496,46.4309359 79.3377174,50.6630545 73.8214361,54.7353221 C72.2089512,55.9256564 71.901086,57.0950933 72.512465,58.9430153 C74.5821243,65.1983766 76.513897,71.4990606 78.499247,77.782104 C79.72962,81.6768799 78.8130954,84.9607478 75.8929992,87.1129025 C73.0327355,89.2210915 69.6244607,89.1841819 66.3334032,86.9421957 C60.7178545,83.1168967 55.0876196,79.3108667 49.5419661,75.3862374 C47.9751714,74.2773214 46.8185011,74.3348569 45.2756394,75.4234184 C39.6239192,79.4101969 33.916718,83.3217992 28.1632827,87.1614821 C22.9662892,90.6293551 16.3893416,87.603583 15.8247407,81.5002024 C15.7162264,80.3280515 15.9832967,79.0617269 16.3325007,77.9164441 C18.2898382,71.4968894 20.2711087,65.0833055 22.3706842,58.709345 C22.9461638,56.9618388 22.5915204,55.9191429 21.1242652,54.8286817 C15.4736329,50.6291303 9.87521802,46.3573881 4.32276534,42.0289245 C-0.303100038,38.4226405 -0.00611344257,31.662215 4.91429084,28.9585875 C6.08918287,28.3126697 7.57520371,28.0130507 8.93394458,27.9598575 C12.4221772,27.8233463 15.9191128,27.9142633 19.4127848,27.9142633 L19.4127848,27.9020505 Z" id="Fill-1" fill="#575757"></path>
                <path d="M20.5651037,33.9074579 C20.5651037,33.9142427 20.5651037,33.9212989 20.5651037,33.9280838 C17.0096955,33.9280838 13.4515676,33.8512793 9.90132674,33.9820912 C9.01743806,34.0149299 7.81126997,34.4904123 7.36687794,35.1650978 C6.63637795,36.2737425 7.76965922,36.9929367 8.60731371,37.6312555 C14.0632186,41.7890122 19.514228,45.9524682 24.9685011,50.1118532 C28.7393061,52.9875445 29.6528391,55.85238 28.2220273,60.4012155 C26.2445643,66.6888726 24.2170597,72.9613317 22.3200986,79.2731429 C22.063363,80.1274913 22.0927353,81.4611216 22.5985915,82.0636164 C23.5007019,83.1380654 24.595908,82.2318807 25.5059054,81.6079458 C31.2133785,77.6958007 36.9116048,73.7698145 42.6253332,69.8663541 C45.7812237,67.7101284 49.0668419,67.7215269 52.2205567,69.8774812 C57.9329253,73.7822987 63.6382227,77.6977005 69.344608,81.6112026 C70.2559652,82.2364944 71.3190793,83.1752464 72.2331562,82.0728438 C72.7398284,81.4624786 72.7966692,80.1416038 72.5418373,79.2951258 C70.606529,72.867158 68.5278948,66.4820704 66.5267709,60.0736429 C65.2025697,55.8341966 66.1280691,52.9880873 69.6908204,50.2565063 C74.1137993,46.8654377 78.5563598,43.4998802 82.9880416,40.1202102 C84.302996,39.1174093 85.676695,38.1764861 86.8850388,37.0583427 C87.3313346,36.6455523 88.1224829,35.5523771 87.9530483,35.0380854 C87.780622,34.5156519 87.1586363,34.19405 85.8948115,34.0214433 C85.255692,33.9343259 84.5608195,33.9248271 83.8868884,33.9245557 C77.4502751,33.9240129 71.0133898,33.9487097 64.5767765,33.926184 C59.8951581,33.9101718 57.4670479,32.1317266 55.9777635,27.7145172 C53.7930627,21.2349845 51.6181526,14.7516523 49.4299162,8.27320514 C49.0796243,7.23566572 48.7676796,5.84232872 47.3743991,6.18672776 C46.6099034,6.37561801 45.7847593,7.40854373 45.4921242,8.23819531 C43.1785115,14.802403 41.0011538,21.4141046 38.7517251,28.0011093 C37.3674194,32.0549221 34.9632422,33.8235971 30.6803257,33.8960593 C27.3095822,33.9527807 23.936935,33.9074579 20.5651037,33.9074579 Z M19.4127848,27.9020505 C22.9064568,27.9020505 26.4017605,27.836916 29.8927129,27.9286471 C31.725762,27.9769553 32.6564288,27.2330642 33.2166782,25.5113404 C35.3483457,18.9563602 37.5705779,12.4306904 39.7906342,5.90474935 C41.1463835,1.91932786 43.6843678,-0.00865540233 47.4418466,2.92069661e-05 C51.1830074,0.00817102818 53.7560753,1.96030836 55.1028497,5.92618948 C57.3003329,12.3981232 59.5203893,18.8638148 61.5808018,25.3797143 C62.1946285,27.3212673 63.2536631,27.9468305 65.1835321,27.9270188 C72.0474036,27.8578133 78.9129069,27.8545566 85.7770504,27.9099209 C90.6805928,27.9495445 94.0660224,31.4904225 93.7997679,36.1958524 C93.6510026,38.8256607 92.2623455,40.7400742 90.2051966,42.2957049 C84.7351496,46.4309359 79.3377174,50.6630545 73.8214361,54.7353221 C72.2089512,55.9256564 71.901086,57.0950933 72.512465,58.9430153 C74.5821243,65.1983766 76.513897,71.4990606 78.499247,77.782104 C79.72962,81.6768799 78.8130954,84.9607478 75.8929992,87.1129025 C73.0327355,89.2210915 69.6244607,89.1841819 66.3334032,86.9421957 C60.7178545,83.1168967 55.0876196,79.3108667 49.5419661,75.3862374 C47.9751714,74.2773214 46.8185011,74.3348569 45.2756394,75.4234184 C39.6239192,79.4101969 33.916718,83.3217992 28.1632827,87.1614821 C22.9662892,90.6293551 16.3893416,87.603583 15.8247407,81.5002024 C15.7162264,80.3280515 15.9832967,79.0617269 16.3325007,77.9164441 C18.2898382,71.4968894 20.2711087,65.0833055 22.3706842,58.709345 C22.9461638,56.9618388 22.5915204,55.9191429 21.1242652,54.8286817 C15.4736329,50.6291303 9.87521802,46.3573881 4.32276534,42.0289245 C-0.303100038,38.4226405 -0.00611344257,31.662215 4.91429084,28.9585875 C6.08918287,28.3126697 7.57520371,28.0130507 8.93394458,27.9598575 C12.4221772,27.8233463 15.9191128,27.9142633 19.4127848,27.9142633 L19.4127848,27.9020505 Z" id="Stroke-3"></path>
                <path d="M18.8356852,13.6510766 C18.832831,13.6531714 18.8302363,13.6555281 18.8271227,13.6573611 C19.8125849,14.9786799 20.778587,16.3151862 21.7892177,17.616604 C22.5608777,18.6098188 23.9609709,18.8418221 24.8841607,18.1890183 C25.8304431,17.5197177 26.0867982,16.1104158 25.3330415,15.070329 C23.3981833,12.4012442 21.4298535,9.75651182 19.4335011,7.13403712 C18.6234398,6.06959782 17.1159265,5.89127477 16.2189431,6.64882039 C15.3266301,7.40270003 15.2007878,8.72558991 15.9724478,9.79971784 C16.9057568,11.0990408 17.8792835,12.3687742 18.8356852,13.6510766" id="Fill-5" fill="#575757"></path>
                <g id="Group-9" transform="translate(0.000000, 56.701031)">
                    <mask id="mask-2" fill="white">
                        <use xlink:href="#path-1"></use>
                    </mask>
                    <g id="Clip-8"></g>
                    <path d="M7.62607685,5.81983582 C7.6252896,5.81582665 7.62423993,5.81208477 7.62345267,5.8080756 C9.14101593,5.44217258 10.6627779,5.09177167 12.1756176,4.70662467 C13.686358,4.32201222 14.4741368,3.21040473 14.1844274,1.93041237 C13.9062643,0.700400916 12.6030965,-0.0137647957 11.1739681,0.325410462 C8.1356926,1.04625811 5.10082849,1.78153876 2.0691134,2.52964872 C0.586451734,2.89555174 -0.227568885,4.0432417 0.0558425492,5.29944635 C0.333480787,6.53025964 1.62641425,7.23881252 3.07155014,6.91219931 C4.59409934,6.56794578 6.10825117,6.18547155 7.62607685,5.81983582" id="Fill-7" fill="#575757" mask="url(#mask-2)"></path>
                </g>
                <path d="M74.8072504,14.1330214 C74.8095104,14.135287 74.8117703,14.1372694 74.8137478,14.139535 C76.0708383,12.8795755 77.3454435,11.6366079 78.5790872,10.3539923 C79.5929519,9.29935324 79.6432355,7.69615454 78.7454751,6.81370141 C77.8457373,5.92869948 76.2550233,5.96948037 75.2146043,6.99579941 C72.7176552,9.45822878 70.240763,11.9418982 67.7901426,14.4507725 C66.7904024,15.4742595 66.7680855,16.9253795 67.6302519,17.8573927 C68.503153,18.800734 70.1012118,18.7987516 71.1416308,17.7962214 C72.3857267,16.5979996 73.5874488,15.3558817 74.8072504,14.1330214" id="Fill-10" fill="#575757"></path>
                <path d="M86.0870274,62.6648453 C86.0878251,62.6605594 86.0888887,62.6565592 86.0896864,62.6522733 C84.5519612,62.261113 83.0099815,61.8865249 81.4770426,61.4747922 C79.9462309,61.063631 79.1479859,59.8752923 79.4415443,58.5069456 C79.723403,57.1920298 81.0438843,56.4285672 82.4919997,56.7911548 C85.570641,57.5617606 88.6458255,58.3477957 91.7178192,59.1475456 C93.2201791,59.5387059 94.0450146,60.7656177 93.7578378,62.1085348 C93.4765109,63.4243077 92.1663999,64.1817701 90.7020643,63.8326116 C89.1592869,63.4645952 87.6250185,63.0557199 86.0870274,62.6648453" id="Fill-12" fill="#575757"></path>
                <g id="Group-16" transform="translate(45.360825, 84.536082)">
                    <mask id="mask-4" fill="white">
                        <use xlink:href="#path-3"></use>
                    </mask>
                    <g id="Clip-15"></g>
                    <path d="M4.73860553,7.76299705 L4.72639718,7.7632732 C4.67457949,6.12299337 4.63876831,4.48188513 4.56633207,2.84243373 C4.49443842,1.20519146 3.55059685,0.164690722 2.21771568,0.20031296 C0.936923494,0.234830633 -0.0413727618,1.43190353 0.00230602279,2.97553387 C0.0948182311,6.2566458 0.202251763,9.53748159 0.323521432,12.8177651 C0.382664135,14.4221465 1.35689094,15.4974411 2.66481281,15.4631996 C3.94614759,15.4295103 4.91684753,14.2418262 4.88890396,12.6843888 C4.85960391,11.0435567 4.79042322,9.40327688 4.73860553,7.76299705" id="Fill-14" fill="#575757" mask="url(#mask-4)"></path>
                </g>
            </g>
        </g>
    </g>
</svg>