<?xml version="1.0" encoding="UTF-8"?>
<svg width="100px" height="99px" viewBox="0 0 100 99" version="1.1" xmlns="http://www.w3.org/2000/svg" xmlns:xlink="http://www.w3.org/1999/xlink">
    <!-- Generator: Sketch 53.1 (72631) - https://sketchapp.com -->
    <title>Rocket</title>
    <desc>Created with Sketch.</desc>
    <g id="Page-1" stroke="none" stroke-width="1" fill="none" fill-rule="evenodd" opacity="0.9">
        <g id="About-Us" transform="translate(-488.000000, -1034.000000)" fill="#575757" stroke="#575757" stroke-width="0.5">
            <g id="Rocket" transform="translate(488.000000, 1034.000000)">
                <g id="Group">
                    <g id="Rocket" transform="translate(0.548012, 0.546180)">
                        <g id="Group">
                            <path d="M39.1162168,66.4983058 C38.3131126,67.334564 37.5279883,68.1947153 36.7009109,69.0011072 C34.4893777,71.1694053 31.2350077,71.1992716 29.1133742,69.084733 C27.0396873,67.0239538 27.0696538,63.7804666 29.2152606,61.600222 C30.0483313,60.7520172 30.9473286,59.9635452 31.6125865,59.3423248 C30.060318,56.6005925 28.6159291,54.0858445 27.2015068,51.5472035 C26.9497875,51.0932348 26.7340282,50.5675868 26.6740951,50.0598586 C26.5362488,48.8771505 25.817051,48.6501661 24.7802075,48.5904334 C20.73472,48.3694223 16.7611522,48.823391 12.817551,49.7014622 C9.47328133,50.4481213 6.31480439,47.5271908 7.18383505,44.4330354 C7.36962781,43.7759754 7.80713979,43.089049 8.32256487,42.629107 C11.4690552,39.8276419 14.6215388,37.0321502 17.8579289,34.3322308 C22.4847679,30.4734964 27.9207045,29.4879064 33.7581932,30.2046992 C35.0347693,30.3600043 36.3053521,30.6586679 37.5519616,30.9931712 C38.169273,31.1604228 38.5228786,31.0230376 38.9244307,30.5750421 C41.5255293,27.6541116 44.1326213,24.7391544 46.7696799,21.842117 C54.7048288,13.133085 64.0064535,6.46691233 75.3278253,2.79932272 C82.1002711,0.607131531 89.0405298,-0.27691287 96.1426079,0.111349874 C97.7068631,0.194975695 98.2402681,0.660890988 98.3541411,2.19602214 C98.9534726,10.6243103 97.5270636,18.7479616 94.4345131,26.5848957 C90.586805,36.3332772 84.401704,44.4330354 76.6883078,51.4396846 C73.7875434,54.0679247 70.868799,56.678245 67.9140948,59.2407791 C67.3027767,59.7724004 67.2668168,60.2203959 67.4586028,60.9371887 C68.7831254,65.781513 68.9569316,70.6497305 66.967151,75.3387498 C66.1400736,77.2860368 64.9414106,79.1437247 63.6108947,80.7983213 C61.2075754,83.7969044 58.5825035,86.6162892 56.0473313,89.5073533 C54.5669825,91.1977896 52.9727608,91.5621592 51.0848666,90.6243554 C49.1610125,89.6686317 48.2320487,87.7093982 48.5257211,85.7023784 C49.0171729,82.3035861 49.4247184,78.8928472 49.7843173,75.4761351 C49.8862036,74.532358 49.7363707,73.5587145 49.6165044,72.6089641 C49.5805445,72.322247 49.3108454,71.9041179 49.0591262,71.8324386 C45.5170771,70.8110089 42.4724731,68.8995615 39.5657154,66.7133436 C39.4937956,66.6655574 39.3979026,66.6356911 39.1162168,66.4983058 Z M76.4965217,6.03683667 C75.5735512,6.36536669 74.6985272,6.65805706 73.8294966,6.98658708 C64.150293,10.6541767 56.1612043,16.7051022 49.2628989,24.2911589 C45.9845556,27.8990158 42.7661455,31.5546589 39.463829,35.1386226 C38.7446312,35.9151481 38.5228786,36.7155667 38.7446312,37.6712904 C39.5717087,41.2313611 41.5914558,44.1522916 43.8569288,47.1449013 C44.791886,46.1652846 45.6189634,45.2633203 46.4879941,44.403169 C48.7115139,42.2109779 52.0018438,42.1452719 54.0755307,44.2179976 C56.2211374,46.3624026 56.1671976,49.5939433 53.9256978,51.8458672 C53.0686538,52.7060185 52.1516766,53.5124103 51.264666,54.3426953 C52.6790883,55.8061472 56.269084,58.0282047 58.6544233,58.9122491 C59.3975943,59.1870197 60.1767253,59.3662179 60.9438696,59.5513893 C61.7829337,59.7544806 62.4661715,59.4976299 63.1194429,58.9062758 C66.7154318,55.6627886 70.3473806,52.4670876 73.9493629,49.2295736 C81.7346789,42.2408442 87.9137866,34.1112197 91.6356351,24.2612925 C91.9233142,23.4967136 92.1750334,22.7142148 92.432746,21.9556092 C83.3648606,17.5891466 80.3442299,14.5726438 76.4965217,6.03683667 Z M64.3600591,62.520106 C63.9884735,62.8247429 63.730761,63.0158877 63.4910284,63.2309255 C60.6921503,65.7217803 57.9052589,68.2245817 55.1003876,70.7094633 C54.7048288,71.0559131 54.2852967,71.426256 53.8118249,71.6114275 C53.2065001,71.8443851 53.1945134,72.1968082 53.2005067,72.7523226 C53.2065001,74.9982733 53.2604399,77.2561704 53.0686538,79.4901745 C52.8768677,81.688339 52.4273691,83.8685836 52.0378036,86.0488283 C51.9239307,86.6879685 52.0078371,87.2554294 52.6071686,87.4406009 C52.8948477,87.5302 53.434246,87.2255631 53.6859652,86.9448192 C56.2630906,84.0477818 58.858196,81.162691 61.3394284,78.1820278 C65.1571699,73.5826076 65.5886886,68.2783412 64.3600591,62.520106 Z M26.14069,45.1856678 C29.0114879,41.1537085 32.6014835,37.8863282 35.6341008,34.1410861 C35.5382078,34.0634335 35.4902612,33.9977275 35.4363214,33.985781 C30.1921709,32.8568324 25.1158332,33.155496 20.73472,36.524422 C17.3245238,39.1526621 14.1900201,42.1333253 10.9116769,44.9347903 C10.4501917,45.3349996 10.4981382,45.7292356 10.9116769,45.9801131 C11.2592892,46.1951509 11.7567343,46.3146164 12.1642797,46.2608569 C14.5616057,45.9323269 16.9409517,45.4066789 19.3442709,45.2155342 C21.6457039,45.0423092 23.97111,45.1856678 26.14069,45.1856678 Z M94.9499382,3.52806202 C89.8016807,3.32497074 84.8512026,3.86256531 79.9606577,5.10500609 C81.7826254,11.5203013 89.5859214,17.8878103 93.4456162,18.3895652 C94.6322925,13.5332943 95.2076508,8.62326387 94.9499382,3.52806202 Z M48.9812131,57.1680534 C46.5838871,59.5155497 44.2584809,61.79734 41.8791349,64.1269164 C44.5341734,66.0622569 47.2851049,67.8721586 50.6293747,68.5531117 C51.5763184,68.7442564 52.3734293,68.5889513 53.0866338,67.8781319 C53.8597714,67.1075796 54.7048288,66.4087067 55.5199196,65.6799674 C56.592723,64.7182705 57.659533,63.7565735 58.8462094,62.6873576 C55.0044945,61.4568634 51.8460176,59.3542713 48.9812131,57.1680534 Z M35.5741677,39.5110585 C33.8420997,41.4344524 32.2838378,43.2742204 30.5997163,44.9885498 C29.6827391,45.9203804 29.5149263,46.917917 29.7846255,48.0707587 C30.5337898,51.2545132 32.2718512,53.9185929 34.1477587,56.4094477 C36.5151181,54.0440316 38.8285376,51.732375 41.1659304,49.3968253 C38.9184374,46.481868 36.8207772,43.3578463 35.5741677,39.5110585 Z M52.4033959,47.7840415 C51.9059507,47.2643668 51.5283719,46.6730128 50.9949669,46.3564293 C50.2458025,45.9144071 49.532598,46.2608569 48.9392599,46.852211 C43.2096508,52.5626599 37.4740485,58.2671356 31.7504328,63.9835579 C30.9113687,64.8198161 30.8754088,65.889032 31.5946066,66.6297178 C32.3018177,67.3584571 33.4345542,67.3465106 34.2616317,66.5221989 C40.0272006,60.7998034 45.7807829,55.0714346 51.5223786,49.3191727 C51.8699908,48.9727229 52.0378036,48.4411016 52.4033959,47.7840415 Z" id="Shape" fill-rule="nonzero"></path>
                            <path d="M3.68373915,94.4830897 C6.33877765,94.2501321 8.84398327,93.9873081 11.3551822,93.8200564 C21.3640181,93.1391033 28.7777486,87.8527567 35.1006958,80.6071766 C35.3404284,80.332406 35.5501944,80.0277691 35.8198936,79.7888382 C36.4551849,79.2333238 37.3961354,79.2094307 38.0134468,79.741052 C38.6906914,80.3264328 38.8824775,81.0491988 38.4749321,81.8794837 C38.4030123,82.0288156 38.3071192,82.1662008 38.1992396,82.2916396 C32.7093631,88.9817053 26.0987368,94.0888537 17.594223,96.3288311 C15.1489505,96.9739446 12.5598385,97.1232764 10.0246663,97.3980469 C7.35164786,97.6907373 4.67263611,97.8878553 1.98763104,98.0790001 C0.729034915,98.1685992 -0.0740692797,97.4637529 0.0338103882,96.2750716 C0.489302319,91.4008809 0.687081711,86.4789039 1.58008563,81.6823657 C2.86265501,74.7473958 6.71036317,69.0548666 11.5589549,64.0373173 C12.8894708,62.6574913 14.3698196,61.4150505 15.8261951,60.1606632 C16.7491656,59.3662179 17.8159757,59.4498437 18.4632537,60.2562355 C19.098545,61.0506808 18.9187456,62.0960036 17.9837885,62.8546093 C12.9074508,66.9821409 8.92788968,71.9399575 6.32679102,77.9669899 C4.92435533,81.2164504 4.48085003,84.6391358 4.21714418,88.1155807 C4.06131799,90.1942797 3.86953191,92.2610322 3.68373915,94.4830897 Z" id="Path"></path>
                            <path d="M13.5846953,84.6630289 C18.2834542,84.292686 22.6705607,83.2891762 26.0627769,79.8784373 C27.5251458,78.4090121 28.7178154,76.6707897 29.9584316,74.9982733 C30.7555425,73.9171108 31.6065932,73.5407946 32.535557,74.0903358 C33.4765074,74.6458502 33.6143537,75.6971462 32.9251225,76.8619344 C28.196397,84.8780668 20.962466,88.2469927 11.864614,88.1454471 C10.6539644,88.1335005 10.0066864,87.4943603 10.000693,86.2937325 C9.95274652,77.202411 13.3269828,69.9508576 21.4539178,65.2678116 C22.1671223,64.8556557 22.9402599,64.598805 23.5695579,65.1841857 C23.9771034,65.5605019 24.3187223,66.2474283 24.2887557,66.7730764 C24.2587892,67.2569115 23.779324,67.8124259 23.3537986,68.1588757 C22.4847679,68.8637219 21.5018643,69.4371561 20.5908804,70.1001894 C15.976028,73.4571688 14.1121071,78.2298139 13.596682,83.6893854 C13.5667154,83.9701293 13.5846953,84.2628197 13.5846953,84.6630289 Z" id="Path"></path>
                            <path d="M61.6091275,27.9408287 C61.6630674,23.0785845 65.6486218,19.2079036 70.5151934,19.2915294 C75.3517986,19.3751552 79.1935134,23.2936223 79.1575535,28.1140536 C79.1215936,32.892672 75.1360392,36.8051658 70.335394,36.7752994 C65.4688223,36.7454331 61.5551877,32.7911264 61.6091275,27.9408287 Z M70.3833405,33.2928813 C73.2841049,33.2928813 75.6394777,30.9633048 75.6694442,28.0722407 C75.6994108,25.1453369 73.3320514,22.7739476 70.3713539,22.7560278 C67.5125427,22.7381079 65.0792568,25.1333904 65.0732635,27.9886149 C65.0612769,30.9155186 67.4406229,33.2928813 70.3833405,33.2928813 Z" id="Shape" fill-rule="nonzero"></path>
                            <path d="M68.7962362,24.5478165 C69.3317988,24.5376059 69.7334707,24.8337129 69.8501959,25.3136104 C69.963488,25.7867009 69.7094391,26.2257561 69.2391052,26.4640032 C69.0640175,26.5524949 68.8957959,26.7192678 68.8031023,26.8928478 C68.5524865,27.3659383 68.1370822,27.6109923 67.6392836,27.4850618 C67.1311858,27.3591312 66.884003,26.9949536 66.8771368,26.4878279 C66.8634045,25.4769798 67.7731743,24.5648341 68.7962362,24.5478165 Z" id="Path"></path>
                        </g>
                    </g>
                </g>
            </g>
        </g>
    </g>
</svg>