<?xml version="1.0" encoding="UTF-8"?>
<svg width="79px" height="101px" viewBox="0 0 79 101" version="1.1" xmlns="http://www.w3.org/2000/svg" xmlns:xlink="http://www.w3.org/1999/xlink">
    <!-- Generator: Sketch 53.1 (72631) - https://sketchapp.com -->
    <title>Group 15</title>
    <desc>Created with Sketch.</desc>
    <g id="Page-1" stroke="none" stroke-width="1" fill="none" fill-rule="evenodd">
        <g id="About-Us" transform="translate(-499.000000, -1266.000000)">
            <g id="Group-15" transform="translate(500.000000, 1266.000000)">
                <path d="M16.5980337,92.1145506 C16.5651685,91.9350562 16.5210674,91.7600562 16.5030899,91.5822472 C16.3589888,90.1701685 16.1643258,88.7597753 16.1005618,87.3434831 C16.0620787,86.485618 16.7047753,85.9389888 17.5095506,85.9347753 C18.3089888,85.9305618 18.8502809,86.4755056 18.9014045,87.3617416 C18.9264045,87.7957303 18.9205056,88.2319663 18.9205056,88.6670787 C18.9202247,90.4485393 19.686236,91.7791573 21.119382,92.852191 C25.0564607,95.8002247 29.5042135,97.1755056 34.3643258,97.0594944 C39.1089888,96.9462921 43.8609551,96.7420787 48.5845506,96.305 C51.25,96.0583708 53.9210674,95.4476966 56.4876404,94.6659551 C59.6865169,93.6917978 60.8994382,91.5656742 60.6550562,88.2592135 C60.6011236,87.5294382 60.3272472,87.232809 59.5617978,87.2423596 C56.7019663,87.2788764 53.8412921,87.2608989 50.9811798,87.260618 C50.3286517,87.260618 49.672191,87.2901124 49.0238764,87.2333708 C48.2188202,87.1625843 47.5626404,86.460618 47.6275281,85.7505056 C47.702809,84.9246629 48.1955056,84.4642697 49.0272472,84.4038764 C49.4294944,84.3746629 49.8345506,84.3785955 50.2384831,84.3783146 C53.7202247,84.3746629 57.2022472,84.3901124 60.6837079,84.3580899 C61.4519663,84.3510674 62.25,84.2825281 62.9811798,84.0637079 C66.5432584,82.9971348 68.4117978,77.9035955 66.3814607,74.8123034 C66.2255618,74.5755056 65.7632022,74.4305618 65.4421348,74.4283146 C62.4269663,74.4066854 59.411236,74.4285955 56.3957865,74.4314045 C54.6238764,74.432809 52.8514045,74.4381461 51.0797753,74.4111798 C50.1294944,74.396573 49.5081461,73.8378652 49.4853933,73.0597753 C49.4629213,72.2943258 50.1845506,71.6148315 51.0870787,71.5625843 C51.3348315,71.5482584 51.5842697,71.5608989 51.8331461,71.5608989 C56.1853933,71.5620225 60.5379213,71.5785955 64.8904494,71.5580899 C67.5266854,71.5457303 69.9101124,69.5224157 70.1095506,66.905 C70.2132022,65.5491011 69.8539326,64.1527528 69.6561798,62.7814045 C69.5407303,61.9797191 69.0328652,61.6895506 68.2039326,61.6982584 C64.8154494,61.7347753 61.4266854,61.7139888 58.0379213,61.7125843 C56.2660112,61.7120225 54.4938202,61.7221348 52.7219101,61.699382 C51.6997191,61.6864607 51.1238764,61.1373034 51.1404494,60.266236 C51.1570225,59.3962921 51.7370787,58.8889888 52.7598315,58.8569663 C53.008427,58.8491011 53.2573034,58.8603371 53.5058989,58.8603371 C58.8530899,58.8617416 64.2005618,58.8769101 69.5477528,58.8575281 C72.0151685,58.8485393 73.7676966,57.1173596 74.0275281,54.518764 C74.2514045,52.2780337 72.7488764,50.0917978 70.5455056,49.6676404 C69.3660112,49.4406742 68.1382022,49.4373034 66.9300562,49.3929213 C62.9578652,49.2474157 58.9845506,49.1302809 55.0115169,48.9979775 C54.7955056,48.9906742 54.5803371,48.9190449 54.3648876,48.9198876 C51.3533708,48.9311236 48.3418539,48.9499438 45.3303371,48.9665169 C43.4654494,48.9769101 41.6002809,49.0218539 39.7367978,48.9797191 C38.9075843,48.9608989 38.3853933,48.2763483 38.4140449,47.4707303 C38.4429775,46.6541573 38.9047753,46.207809 39.7918539,46.1566854 C40.1016854,46.1389888 40.4134831,46.149382 40.7241573,46.1488202 C43.7853933,46.1426404 43.8761236,46.1586517 44.4058989,43.1648315 C44.9179775,40.2696067 45.2859551,37.3440449 45.594382,34.418764 C46.0867978,29.741236 45.2955056,25.3170787 42.6466292,21.3353371 C41.6269663,19.8019101 40.5379213,18.3210112 38.7997191,17.5069663 C38.0033708,17.1342135 37.2233146,16.9783146 36.4626404,17.6457303 C35.7685393,18.2547191 35.8227528,18.9600562 35.980618,19.7710112 C36.5289326,22.5833708 36.8050562,25.4019101 36.3393258,28.274382 C35.7488764,31.9139888 34.2469101,35.163427 32.2168539,38.1729775 C28.2061798,44.118764 23.661236,49.7100562 20.3730337,56.1350562 C20.2132022,56.4474157 19.7730337,56.7892697 19.4488764,56.8041573 C18.9724719,56.8260674 18.2547753,56.7086517 18.0553371,56.3901124 C17.7941011,55.9726966 17.7758427,55.2479775 17.9424157,54.7524719 C18.2207865,53.924382 18.7280899,53.1732584 19.2191011,52.2373034 C18.6856742,52.2108989 18.3564607,52.1816854 18.0272472,52.1805618 C16.2241573,52.1752247 14.4210674,52.1679213 12.6179775,52.1774719 C7.39241573,52.2052809 3.05252809,56.5218539 3.03904494,61.7482584 C3.02078652,68.7746629 3.02865169,75.8007865 3.0491573,82.8269101 C3.05421348,84.5392697 3.53033708,86.1552809 4.46095506,87.5892697 C7.51376404,92.2909551 11.652809,92.6476966 16.5980337,92.1145506 M46.7794944,45.9373034 C47.2016854,45.9631461 47.5651685,45.9976966 47.9292135,46.0058427 C53.6438202,46.1333708 59.3592697,46.2373034 65.0733146,46.3940449 C66.9632022,46.4460112 68.8525281,46.5951685 70.736236,46.7659551 C73.5115169,47.0176404 76.1297753,49.5184831 76.7227528,52.4123034 C77.4573034,55.996573 76.0842697,59.1347753 72.9061798,60.9426404 C72.238764,61.3224157 72.3758427,61.7403933 72.5365169,62.2513483 C73.1255618,64.127191 73.2044944,66.0361798 72.8494382,67.9572472 C72.4957865,69.8724157 71.4980337,71.4586517 69.9719101,72.6094944 C69.1151685,73.2558427 69.1716292,73.7968539 69.4148876,74.710618 C70.3252809,78.1274719 70.2724719,81.4833708 67.7376404,84.2580899 C66.8264045,85.2555618 65.5567416,85.9791573 64.3429775,86.6249438 C63.6766854,86.9794382 63.4261236,87.2887079 63.4766854,88.0100562 C63.5882022,89.5982584 63.5356742,91.1724157 62.8856742,92.6763483 C61.5904494,95.6726966 59.0702247,97.1603371 56.1067416,97.8510674 C53.1575843,98.5387079 50.1477528,99.0999438 47.1342697,99.3457303 C42.6224719,99.7139888 38.0859551,99.8510674 33.5573034,99.9142697 C28.8053371,99.9808427 24.4317416,98.5816854 20.5036517,95.8985393 C19.6615169,95.3232584 18.8233146,95.0946067 17.8162921,95.0915169 C15.3042135,95.0833708 12.7573034,95.2167978 10.2873596,94.8592135 C4.78033708,94.0620225 0.261235955,88.7288764 0.222752809,83.1766292 C0.172191011,75.9024719 0.166573034,68.627191 0.221910112,61.3527528 C0.270505618,54.9625843 5.82977528,49.4558427 12.241573,49.3569663 C14.6654494,49.3196067 17.0912921,49.3027528 19.513764,49.3645506 C20.5575843,49.3909551 21.1643258,49.0589326 21.7707865,48.1575281 C24.3710674,44.2909551 27.1089888,40.5170787 29.7553371,36.6811236 C31.6446629,33.9429213 33.0595506,30.9833708 33.5075843,27.6454494 C33.8702247,24.9423596 33.7241573,22.2370225 33.0075843,19.6179213 C32.3087079,17.0625843 35.313764,13.6471348 38.4516854,14.3814045 C41.255618,15.0373034 43.0623596,16.9370225 44.6542135,19.1488202 C47.8005618,23.5207303 48.6707865,28.4597753 48.4497191,33.7260674 C48.286236,37.6151124 47.9567416,41.4645506 46.8735955,45.2201685 C46.8162921,45.4190449 46.8174157,45.6350562 46.7794944,45.9373034" id="Fill-1" fill="#575757"></path>
                <path d="M16.5980337,92.1145506 C16.5651685,91.9350562 16.5210674,91.7600562 16.5030899,91.5822472 C16.3589888,90.1701685 16.1643258,88.7597753 16.1005618,87.3434831 C16.0620787,86.485618 16.7047753,85.9389888 17.5095506,85.9347753 C18.3089888,85.9305618 18.8502809,86.4755056 18.9014045,87.3617416 C18.9264045,87.7957303 18.9205056,88.2319663 18.9205056,88.6670787 C18.9202247,90.4485393 19.686236,91.7791573 21.119382,92.852191 C25.0564607,95.8002247 29.5042135,97.1755056 34.3643258,97.0594944 C39.1089888,96.9462921 43.8609551,96.7420787 48.5845506,96.305 C51.25,96.0583708 53.9210674,95.4476966 56.4876404,94.6659551 C59.6865169,93.6917978 60.8994382,91.5656742 60.6550562,88.2592135 C60.6011236,87.5294382 60.3272472,87.232809 59.5617978,87.2423596 C56.7019663,87.2788764 53.8412921,87.2608989 50.9811798,87.260618 C50.3286517,87.260618 49.672191,87.2901124 49.0238764,87.2333708 C48.2188202,87.1625843 47.5626404,86.460618 47.6275281,85.7505056 C47.702809,84.9246629 48.1955056,84.4642697 49.0272472,84.4038764 C49.4294944,84.3746629 49.8345506,84.3785955 50.2384831,84.3783146 C53.7202247,84.3746629 57.2022472,84.3901124 60.6837079,84.3580899 C61.4519663,84.3510674 62.25,84.2825281 62.9811798,84.0637079 C66.5432584,82.9971348 68.4117978,77.9035955 66.3814607,74.8123034 C66.2255618,74.5755056 65.7632022,74.4305618 65.4421348,74.4283146 C62.4269663,74.4066854 59.411236,74.4285955 56.3957865,74.4314045 C54.6238764,74.432809 52.8514045,74.4381461 51.0797753,74.4111798 C50.1294944,74.396573 49.5081461,73.8378652 49.4853933,73.0597753 C49.4629213,72.2943258 50.1845506,71.6148315 51.0870787,71.5625843 C51.3348315,71.5482584 51.5842697,71.5608989 51.8331461,71.5608989 C56.1853933,71.5620225 60.5379213,71.5785955 64.8904494,71.5580899 C67.5266854,71.5457303 69.9101124,69.5224157 70.1095506,66.905 C70.2132022,65.5491011 69.8539326,64.1527528 69.6561798,62.7814045 C69.5407303,61.9797191 69.0328652,61.6895506 68.2039326,61.6982584 C64.8154494,61.7347753 61.4266854,61.7139888 58.0379213,61.7125843 C56.2660112,61.7120225 54.4938202,61.7221348 52.7219101,61.699382 C51.6997191,61.6864607 51.1238764,61.1373034 51.1404494,60.266236 C51.1570225,59.3962921 51.7370787,58.8889888 52.7598315,58.8569663 C53.008427,58.8491011 53.2573034,58.8603371 53.5058989,58.8603371 C58.8530899,58.8617416 64.2005618,58.8769101 69.5477528,58.8575281 C72.0151685,58.8485393 73.7676966,57.1173596 74.0275281,54.518764 C74.2514045,52.2780337 72.7488764,50.0917978 70.5455056,49.6676404 C69.3660112,49.4406742 68.1382022,49.4373034 66.9300562,49.3929213 C62.9578652,49.2474157 58.9845506,49.1302809 55.0115169,48.9979775 C54.7955056,48.9906742 54.5803371,48.9190449 54.3648876,48.9198876 C51.3533708,48.9311236 48.3418539,48.9499438 45.3303371,48.9665169 C43.4654494,48.9769101 41.6002809,49.0218539 39.7367978,48.9797191 C38.9075843,48.9608989 38.3853933,48.2763483 38.4140449,47.4707303 C38.4429775,46.6541573 38.9047753,46.207809 39.7918539,46.1566854 C40.1016854,46.1389888 40.4134831,46.149382 40.7241573,46.1488202 C43.7853933,46.1426404 43.8761236,46.1586517 44.4058989,43.1648315 C44.9179775,40.2696067 45.2859551,37.3440449 45.594382,34.418764 C46.0867978,29.741236 45.2955056,25.3170787 42.6466292,21.3353371 C41.6269663,19.8019101 40.5379213,18.3210112 38.7997191,17.5069663 C38.0033708,17.1342135 37.2233146,16.9783146 36.4626404,17.6457303 C35.7685393,18.2547191 35.8227528,18.9600562 35.980618,19.7710112 C36.5289326,22.5833708 36.8050562,25.4019101 36.3393258,28.274382 C35.7488764,31.9139888 34.2469101,35.163427 32.2168539,38.1729775 C28.2061798,44.118764 23.661236,49.7100562 20.3730337,56.1350562 C20.2132022,56.4474157 19.7730337,56.7892697 19.4488764,56.8041573 C18.9724719,56.8260674 18.2547753,56.7086517 18.0553371,56.3901124 C17.7941011,55.9726966 17.7758427,55.2479775 17.9424157,54.7524719 C18.2207865,53.924382 18.7280899,53.1732584 19.2191011,52.2373034 C18.6856742,52.2108989 18.3564607,52.1816854 18.0272472,52.1805618 C16.2241573,52.1752247 14.4210674,52.1679213 12.6179775,52.1774719 C7.39241573,52.2052809 3.05252809,56.5218539 3.03904494,61.7482584 C3.02078652,68.7746629 3.02865169,75.8007865 3.0491573,82.8269101 C3.05421348,84.5392697 3.53033708,86.1552809 4.46095506,87.5892697 C7.51376404,92.2909551 11.652809,92.6476966 16.5980337,92.1145506 Z M46.7794944,45.9373034 C47.2016854,45.9631461 47.5651685,45.9976966 47.9292135,46.0058427 C53.6438202,46.1333708 59.3592697,46.2373034 65.0733146,46.3940449 C66.9632022,46.4460112 68.8525281,46.5951685 70.736236,46.7659551 C73.5115169,47.0176404 76.1297753,49.5184831 76.7227528,52.4123034 C77.4573034,55.996573 76.0842697,59.1347753 72.9061798,60.9426404 C72.238764,61.3224157 72.3758427,61.7403933 72.5365169,62.2513483 C73.1255618,64.127191 73.2044944,66.0361798 72.8494382,67.9572472 C72.4957865,69.8724157 71.4980337,71.4586517 69.9719101,72.6094944 C69.1151685,73.2558427 69.1716292,73.7968539 69.4148876,74.710618 C70.3252809,78.1274719 70.2724719,81.4833708 67.7376404,84.2580899 C66.8264045,85.2555618 65.5567416,85.9791573 64.3429775,86.6249438 C63.6766854,86.9794382 63.4261236,87.2887079 63.4766854,88.0100562 C63.5882022,89.5982584 63.5356742,91.1724157 62.8856742,92.6763483 C61.5904494,95.6726966 59.0702247,97.1603371 56.1067416,97.8510674 C53.1575843,98.5387079 50.1477528,99.0999438 47.1342697,99.3457303 C42.6224719,99.7139888 38.0859551,99.8510674 33.5573034,99.9142697 C28.8053371,99.9808427 24.4317416,98.5816854 20.5036517,95.8985393 C19.6615169,95.3232584 18.8233146,95.0946067 17.8162921,95.0915169 C15.3042135,95.0833708 12.7573034,95.2167978 10.2873596,94.8592135 C4.78033708,94.0620225 0.261235955,88.7288764 0.222752809,83.1766292 C0.172191011,75.9024719 0.166573034,68.627191 0.221910112,61.3527528 C0.270505618,54.9625843 5.82977528,49.4558427 12.241573,49.3569663 C14.6654494,49.3196067 17.0912921,49.3027528 19.513764,49.3645506 C20.5575843,49.3909551 21.1643258,49.0589326 21.7707865,48.1575281 C24.3710674,44.2909551 27.1089888,40.5170787 29.7553371,36.6811236 C31.6446629,33.9429213 33.0595506,30.9833708 33.5075843,27.6454494 C33.8702247,24.9423596 33.7241573,22.2370225 33.0075843,19.6179213 C32.3087079,17.0625843 35.313764,13.6471348 38.4516854,14.3814045 C41.255618,15.0373034 43.0623596,16.9370225 44.6542135,19.1488202 C47.8005618,23.5207303 48.6707865,28.4597753 48.4497191,33.7260674 C48.286236,37.6151124 47.9567416,41.4645506 46.8735955,45.2201685 C46.8162921,45.4190449 46.8174157,45.6350562 46.7794944,45.9373034 Z" id="Stroke-3" stroke="#575757" stroke-width="1.3"></path>
                <path d="M26.538118,14.1125843 C26.0075,13.7780337 25.5971067,13.6066854 25.3016011,13.3179213 C23.879691,11.93 22.4799719,10.5193258 21.0906461,9.09882022 C20.3707022,8.36286517 20.3457022,7.60303371 20.9662079,6.96146067 C21.5729494,6.33421348 22.3586236,6.34601124 23.0968258,7.06932584 C24.5375562,8.48224719 25.9869944,9.89067416 27.343736,11.3819663 C27.6715449,11.7420787 27.8656461,12.4822472 27.7319382,12.9322472 C27.5965449,13.3889888 26.9799719,13.7027528 26.538118,14.1125843" id="Fill-5" fill="#575757"></path>
                <path d="M53.603736,6.47303371 C53.9773315,6.77808989 54.5531742,7.0244382 54.6978371,7.42640449 C54.8568258,7.86797753 54.8116011,8.63117978 54.5211517,8.94494382 C53.0281742,10.5573034 51.4486798,12.0918539 49.853736,13.605618 C49.286882,14.1435393 48.6034551,14.088764 48.0121629,13.5457865 C47.4292978,13.0106742 47.3205899,12.2292135 47.8854775,11.6384831 C49.4051404,10.0491573 50.9748034,8.50702247 52.5506461,6.97303371 C52.7773315,6.75280899 53.1495225,6.68174157 53.603736,6.47303371" id="Fill-7" fill="#575757"></path>
                <path d="M18.5501966,25.1104213 C17.5243539,25.1081742 16.4982303,25.119691 15.4729494,25.0989045 C14.6251966,25.0817697 13.9996348,24.5073315 13.9622753,23.7576124 C13.9251966,23.0039607 14.6024438,22.2972191 15.460309,22.2904775 C17.5737921,22.2744663 19.688118,22.2812079 21.8013202,22.3146348 C22.6249157,22.3275562 23.243736,23.0028371 23.2167697,23.7477809 C23.1906461,24.4744663 22.5277247,25.1053652 21.7209831,25.1194101 C20.6642416,25.1379494 19.6072191,25.119691 18.5501966,25.1171629 L18.5501966,25.1104213 Z" id="Fill-9" fill="#575757"></path>
                <path d="M39.1435955,4.7119382 C39.1413483,5.73412921 39.1545506,6.75660112 39.1317978,7.77823034 C39.1129775,8.63300562 38.4427528,9.30182584 37.6829213,9.27148876 C36.9320787,9.24171348 36.336573,8.62457865 36.3295506,7.77823034 C36.3126966,5.70294944 36.317191,3.62738764 36.3388202,1.55238764 C36.347809,0.6875 36.9989326,0.00575842697 37.7455618,0.000140449438 C38.4905056,-0.00519662921 39.1376966,0.686938202 39.1517416,1.55266854 C39.1685955,2.60547753 39.1514607,3.65884831 39.1492135,4.7119382 L39.1435955,4.7119382 Z" id="Fill-11" fill="#575757"></path>
                <path d="M56.7766011,22.3774157 C57.7987921,22.3796629 58.821264,22.3709551 59.8431742,22.387809 C60.726882,22.4024157 61.4114326,23.0018539 61.4398034,23.7521348 C61.4690169,24.5226404 60.7544101,25.1984831 59.8383989,25.2035393 C57.7942978,25.2142135 55.7496348,25.2085955 53.7055337,25.185 C52.8032865,25.1746067 52.1642416,24.5608427 52.1678933,23.7802247 C52.171264,23.0161798 52.840927,22.3914607 53.7100281,22.379382 C54.7322191,22.3653371 55.7544101,22.3802247 56.7766011,22.3827528 L56.7766011,22.3774157 Z" id="Fill-13" fill="#575757"></path>
            </g>
        </g>
    </g>
</svg>