<?xml version="1.0" encoding="UTF-8"?>
<svg width="101px" height="79px" viewBox="0 0 101 79" version="1.1" xmlns="http://www.w3.org/2000/svg" xmlns:xlink="http://www.w3.org/1999/xlink">
    <!-- Generator: Sketch 53.1 (72631) - https://sketchapp.com -->
    <title>Group 12</title>
    <desc>Created with Sketch.</desc>
    <defs>
        <polygon id="path-1" points="0.543174262 0.222155705 28.6960526 0.222155705 28.6960526 75.4765939 0.543174262 75.4765939"></polygon>
    </defs>
    <g id="Page-1" stroke="none" stroke-width="1" fill="none" fill-rule="evenodd">
        <g id="About-Us" transform="translate(-751.000000, -1288.000000)">
            <g id="Group-12" transform="translate(752.000000, 1289.000000)">
                <path d="M19.7819079,38.4664474 L19.8404605,38.4664474 C19.8404605,34.9717105 19.8509868,31.4769737 19.8365132,27.9822368 C19.8259868,25.525 19.8108553,25.5111842 16.8253289,25.4960526 C13.3996711,25.4789474 9.97401316,25.4756579 6.54835526,25.4940789 C4.80361842,25.5032895 3.90230263,26.1375 3.90230263,27.3789474 C3.89967105,34.7427632 3.91611842,42.1065789 3.94243421,49.4710526 C3.94638158,50.5539474 4.67467105,51.2151316 5.99572368,51.3618421 C6.59506579,51.4276316 7.21085526,51.4026316 7.81875,51.3973684 C11.3463816,51.3690789 14.8753289,51.2677632 18.3996711,51.3375 C19.6365132,51.3631579 19.8003289,50.9967105 19.7944079,50.1671053 C19.7667763,46.2671053 19.7819079,42.3671053 19.7819079,38.4664474 M50.9457237,38.4519737 C50.9457237,27.4381579 50.9384868,16.425 50.9588816,5.41184211 C50.9608553,4.49407895 50.7740132,3.74078947 49.63125,3.35657895 C48.46875,2.96513158 47.6582237,3.44539474 46.9200658,4.09013158 C39.3115132,10.7282895 31.6957237,17.3625 24.1220395,24.0276316 C23.6838816,24.4138158 23.3700658,25.0625 23.3680921,25.5901316 C23.3286184,34.2315789 23.3404605,42.8736842 23.3799342,51.5157895 C23.3819079,51.9368421 23.6286184,52.4342105 23.9588816,52.7625 C24.8036184,53.6032895 25.7601974,54.3684211 26.6713816,55.1644737 C29.9003289,57.9835526 33.1246711,60.8078947 36.3595395,63.6223684 C39.9858553,66.7789474 43.6141447,69.9335526 47.2595395,73.0743421 C48.4424342,74.0940789 50.3773026,73.7855263 50.8476974,72.5118421 C50.9766447,72.1644737 50.94375,71.7710526 50.9444079,71.3986842 C50.9483553,60.4164474 50.9476974,49.4342105 50.9457237,38.4519737 M54.6108553,38.5703947 C54.6095395,49.4618421 54.6141447,60.3526316 54.60625,71.2434211 C54.6042763,74.1138158 53.0496711,75.9052632 50.0661184,76.4756579 C47.7924342,76.9105263 45.9746711,76.2078947 44.4378289,74.8671053 C40.6319079,71.5480263 36.8213816,68.2335526 33.0148026,64.9157895 C29.1819079,61.575 25.3694079,58.2184211 21.4944079,54.9111842 C21.0851974,54.5625 20.31875,54.3328947 19.7134868,54.3263158 C15.2220395,54.2776316 10.7299342,54.2967105 6.23848684,54.2993421 C2.88322368,54.3006579 0.407565789,52.3960526 0.390460526,49.6559211 C0.346381579,42.3539474 0.439144737,35.0519737 0.329934211,27.7519737 C0.277302632,24.2690789 3.51217105,22.4967105 6.80953947,22.5986842 C11.0667763,22.7309211 15.3351974,22.6157895 19.5983553,22.6486842 C20.4792763,22.6559211 21.0858553,22.4138158 21.6786184,21.8960526 C29.2601974,15.2756579 36.8661184,8.675 44.4569079,2.0625 C46.0009868,0.717763158 47.8069079,0.0203947368 50.0799342,0.461184211 C52.9805921,1.02368421 54.5976974,2.85789474 54.6049342,5.61710526 C54.6213816,12.2953947 54.6115132,18.9730263 54.6121711,25.6513158 C54.6128289,29.9578947 54.6121711,34.2644737 54.6108553,38.5703947" id="Fill-1" fill="#575757"></path>
                <path d="M19.7819079,38.4664474 L19.8404605,38.4664474 C19.8404605,34.9717105 19.8509868,31.4769737 19.8365132,27.9822368 C19.8259868,25.525 19.8108553,25.5111842 16.8253289,25.4960526 C13.3996711,25.4789474 9.97401316,25.4756579 6.54835526,25.4940789 C4.80361842,25.5032895 3.90230263,26.1375 3.90230263,27.3789474 C3.89967105,34.7427632 3.91611842,42.1065789 3.94243421,49.4710526 C3.94638158,50.5539474 4.67467105,51.2151316 5.99572368,51.3618421 C6.59506579,51.4276316 7.21085526,51.4026316 7.81875,51.3973684 C11.3463816,51.3690789 14.8753289,51.2677632 18.3996711,51.3375 C19.6365132,51.3631579 19.8003289,50.9967105 19.7944079,50.1671053 C19.7667763,46.2671053 19.7819079,42.3671053 19.7819079,38.4664474 Z M50.9457237,38.4519737 C50.9457237,27.4381579 50.9384868,16.425 50.9588816,5.41184211 C50.9608553,4.49407895 50.7740132,3.74078947 49.63125,3.35657895 C48.46875,2.96513158 47.6582237,3.44539474 46.9200658,4.09013158 C39.3115132,10.7282895 31.6957237,17.3625 24.1220395,24.0276316 C23.6838816,24.4138158 23.3700658,25.0625 23.3680921,25.5901316 C23.3286184,34.2315789 23.3404605,42.8736842 23.3799342,51.5157895 C23.3819079,51.9368421 23.6286184,52.4342105 23.9588816,52.7625 C24.8036184,53.6032895 25.7601974,54.3684211 26.6713816,55.1644737 C29.9003289,57.9835526 33.1246711,60.8078947 36.3595395,63.6223684 C39.9858553,66.7789474 43.6141447,69.9335526 47.2595395,73.0743421 C48.4424342,74.0940789 50.3773026,73.7855263 50.8476974,72.5118421 C50.9766447,72.1644737 50.94375,71.7710526 50.9444079,71.3986842 C50.9483553,60.4164474 50.9476974,49.4342105 50.9457237,38.4519737 Z M54.6108553,38.5703947 C54.6095395,49.4618421 54.6141447,60.3526316 54.60625,71.2434211 C54.6042763,74.1138158 53.0496711,75.9052632 50.0661184,76.4756579 C47.7924342,76.9105263 45.9746711,76.2078947 44.4378289,74.8671053 C40.6319079,71.5480263 36.8213816,68.2335526 33.0148026,64.9157895 C29.1819079,61.575 25.3694079,58.2184211 21.4944079,54.9111842 C21.0851974,54.5625 20.31875,54.3328947 19.7134868,54.3263158 C15.2220395,54.2776316 10.7299342,54.2967105 6.23848684,54.2993421 C2.88322368,54.3006579 0.407565789,52.3960526 0.390460526,49.6559211 C0.346381579,42.3539474 0.439144737,35.0519737 0.329934211,27.7519737 C0.277302632,24.2690789 3.51217105,22.4967105 6.80953947,22.5986842 C11.0667763,22.7309211 15.3351974,22.6157895 19.5983553,22.6486842 C20.4792763,22.6559211 21.0858553,22.4138158 21.6786184,21.8960526 C29.2601974,15.2756579 36.8661184,8.675 44.4569079,2.0625 C46.0009868,0.717763158 47.8069079,0.0203947368 50.0799342,0.461184211 C52.9805921,1.02368421 54.5976974,2.85789474 54.6049342,5.61710526 C54.6213816,12.2953947 54.6115132,18.9730263 54.6121711,25.6513158 C54.6128289,29.9578947 54.6121711,34.2644737 54.6108553,38.5703947 Z" id="Stroke-3" stroke="#575757"></path>
                <g id="Group-7" transform="translate(71.052632, 0.617105)">
                    <mask id="mask-2" fill="white">
                        <use xlink:href="#path-1"></use>
                    </mask>
                    <g id="Clip-6"></g>
                    <path d="M28.6965789,37.9193421 C28.0439474,53.5009211 21.1939474,65.3811842 7.55315789,73.2226316 C6.12881579,74.0417105 4.63276316,74.6818421 3.11236842,75.2752632 C1.97355263,75.72 1.05578947,75.4094737 0.704473684,74.5259211 C0.285394737,73.4726316 0.686710526,72.5897368 1.86434211,72.1068421 C6.66697368,70.1384211 10.9906579,67.4397368 14.6248684,63.7081579 C20.3478947,57.8318421 23.8202632,50.8265789 24.8867105,42.6897368 C26.0176316,34.0594737 24.3103947,25.9798684 19.7498684,18.5653947 C15.5472368,11.7325 9.66828947,6.82197368 2.23736842,3.78381579 C1.56302632,3.5075 0.846578947,3.25881579 0.651184211,2.46605263 C0.5025,1.86407895 0.463684211,1.22197368 0.979473684,0.720657895 C1.53473684,0.181842105 2.18605263,0.108157895 2.88736842,0.364078947 C4.85644737,1.08315789 6.73671053,1.99828947 8.54460526,3.04960526 C15.5696053,7.13513158 20.9031579,12.8377632 24.5209211,20.0989474 C26.7097368,24.4917105 28.0110526,29.1647368 28.4682895,34.07 C28.5873684,35.3423684 28.6505263,36.6088158 28.6965789,37.9193421" id="Fill-5" fill="#6A6A6A" mask="url(#mask-2)"></path>
                </g>
                <path d="M86.3651316,38.4169737 C86.2519737,49.7840789 79.5078947,59.5156579 68.9973684,63.5518421 C67.8105263,64.0071053 66.7552632,63.69 66.4098684,62.7735526 C66.0092105,61.7097368 66.4532895,60.8031579 67.7078947,60.3222368 C73.0046053,58.29 77.0414474,54.8090789 79.8960526,49.9084211 C84.5131579,41.9827632 83.5868421,30.9189474 77.7322368,23.8689474 C75.0651316,20.6577632 71.8605263,18.2301316 67.9552632,16.7386842 C67.1427632,16.4281579 66.3743421,16.0761842 66.3177632,15.0235526 C66.2427632,13.6163158 67.3335526,12.8275 68.7453947,13.3196053 C71.4552632,14.2636842 73.9263158,15.6610526 76.1565789,17.4511842 C81.6723684,21.8761842 84.9532895,27.6176316 86.0611842,34.5926316 C86.2657895,35.8788158 86.4289474,37.1794737 86.3651316,38.4169737" id="Fill-8" fill-opacity="0.8" fill="#575757"></path>
                <path d="M73.0183553,38.2871711 C73.0269079,44.2628289 69.0380921,49.6384868 63.6176974,51.2740132 C62.3328289,51.6615132 61.3598026,51.2851974 61.0255921,50.2713816 C60.6933553,49.2601974 61.2519079,48.3990132 62.5367763,47.9463816 C69.4959868,45.4944079 71.6933553,37.5213816 66.9453289,31.8694079 C65.9479605,30.6819079 64.6973026,29.7865132 63.2163816,29.2542763 C62.9091447,29.14375 62.5986184,29.0411184 62.2933553,28.9253289 C61.2170395,28.5134868 60.7242763,27.6628289 61.01375,26.7246711 C61.3111184,25.7641447 62.2880921,25.26875 63.3946711,25.5884868 C64.4321711,25.8878289 65.4229605,26.33125 66.3446711,26.89375 C70.7242763,29.5628289 72.8124342,33.5496711 73.0183553,38.2871711" id="Fill-10" fill-opacity="0.6" fill="#575757"></path>
            </g>
        </g>
    </g>
</svg>