<?xml version="1.0" encoding="utf-8"?>
<!-- Generator: Adobe Illustrator 23.0.1, SVG Export Plug-In . SVG Version: 6.00 Build 0)  -->
<svg version="1.1" id="Layer_1" xmlns="http://www.w3.org/2000/svg" xmlns:xlink="http://www.w3.org/1999/xlink" x="0px" y="0px"
	 viewBox="0 0 753.4 169.4" style="enable-background:new 0 0 753.4 169.4;" xml:space="preserve">
<style type="text/css">
	.st0{fill:#444445;}
	.st1{fill:#383838;}
</style>
<g>
	<g>
		<path class="st0" d="M86.4,169.3c-18.5,0-37,0.2-55.5-0.1c-8.1-0.1-16.3-0.9-24.3-2.2c-2.5-0.4-5.8-3.1-6.5-5.5
			c-0.5-1.5,2.7-5.8,4.8-6.2c8.2-1.9,16.6-3.1,25-3.8c11.3-1,22.6-1.5,33.9-1.9c5.5-0.2,11,0.8,16.4,0.7c20.5-0.3,41-1.1,61.4-1.1
			c8.1,0,16.2,1.5,24.3,2.5c1.3,0.1,2.9,0.4,3.8,1.2c2.1,2.1,5.4,4.6,5.3,6.9c-0.1,2.2-3.5,5.6-5.9,6.1c-8.1,1.7-16.4,3.1-24.7,3.3
			C125,169.6,105.7,169.3,86.4,169.3z M85,167.5C85,167.5,85,167.5,85,167.5c18.7,0,37.3,0.3,56-0.2c9.3-0.2,18.5-1.7,27.7-3.2
			c2.1-0.3,3.8-2.8,5.7-4.2c-1.8-1.7-3.3-4.5-5.4-5c-6.7-1.7-13.6-3.6-20.4-3.7c-17-0.2-33.9,0.6-50.9,0.7
			c-11,0.1-21.9-0.7-32.9-0.5c-10.6,0.2-21.3,0.9-31.9,1.8C23.9,154,15,155,6.2,156.6c-2,0.4-3.6,3.3-5.4,5.1
			c2.1,1.3,4.2,3.4,6.4,3.7c8.9,1,17.9,1.9,26.8,2C51,167.8,68,167.5,85,167.5z"/>
		<path class="st0" d="M152,53.9c-25.5-0.8-50.9-1.8-76.4-2.2c-12.5-0.2-24.9,1.1-37.4,1.4c-6.4,0.1-13-0.2-19.3-1
			c-4.6-0.6-8.7-3.1-9.5-8.3c-0.8-5.1,2.4-8.8,6.3-11.1c11-6.2,22.1-12.1,33.5-17.7c9.1-4.4,18.6-8,27.9-12.2
			C88.5-2.3,98.9,0,108.8,6.5c12.5,8.1,25,16.3,37.5,24.5c4.9,3.2,9.6,6.5,14.4,9.8c2.7,1.9,6.2,4.5,4.4,8c-1.3,2.5-4.8,4-7.6,5.3
			c-1.5,0.7-3.6,0.1-5.4,0.1C152,54.1,152,54,152,53.9z M153.1,51.6c0,0.3,0,0.6,0,0.8c1.5,0,3.2,0.4,4.5-0.1
			c2.4-0.9,4.5-2.4,6.7-3.6c-1.5-2-2.5-4.6-4.4-5.9c-7.8-5.2-16-10-24-15c-2-1.2-3.6-2.9-5.5-4.2c-9.5-6.3-18.9-12.9-28.7-18.8
			c-6.2-3.7-13-4.5-20.1-1.4c-8.9,4-18.1,7.3-27,11.5c-12.6,5.9-25.1,12-37.2,18.8c-3.1,1.7-6.1,6.2-6.5,9.7c-0.5,4.6,4.5,6.3,8.4,7
			c5.4,0.9,10.9,1.1,16.3,1.1c16.4-0.2,32.8-0.9,49.1-0.9C107.6,50.7,130.4,51.3,153.1,51.6z"/>
		<path class="st0" d="M12.9,120c-0.5-9.9-1.1-19.8-1.5-29.8c-0.3-9.7,4.3-18,8.3-26.4c2.3-4.7,7.8-6.4,11.9-5
			c4.9,1.7,7.6,6,7.5,11.2c-0.6,18.9-1.1,37.9-1.7,56.8c-0.1,4-0.5,8-1.6,11.8c-1.9,6.5-7.1,8.3-12.9,4.9c-7.1-4.2-9.2-11-9.5-18.7
			c-0.1-1.7,0-3.3,0-5C13.2,120,13.1,120,12.9,120z M15.9,118.5c-0.4,0.1-0.9,0.2-1.3,0.3c0.5,3.9,1.1,7.9,1.4,11.8
			c0.5,6,4.2,9.6,9.1,12.1c4.4,2.2,7.3,1,8.7-3.8c1-3.3,1.5-6.8,1.7-10.2c1-19.5-1.8-39.2,1.7-58.7c0.8-4.7-2.7-8.9-7.3-9.8
			c-4.4-0.8-7.3,1.8-9.1,5.3c-2.3,4.5-4.8,9.2-5.7,14.1c-1.4,8.4-2.1,17.1-2.2,25.7C13,109.6,14.9,114,15.9,118.5z"/>
		<path class="st0" d="M83,94.7c-0.9,4.7-2.3,11.7-3.7,18.7c-1.5,7.5-3,15-4.6,22.4c-0.7,3.4-2.2,6.6-6.2,6.9
			c-4.1,0.3-7.6-1.4-9.4-5.3c-1.5-3.1-3.1-6.5-3.3-9.8c-0.6-8.8-0.5-17.6-0.4-26.4c0.1-9.1,0.6-18.2,1-27.3c0-1,0.3-2,0.5-3
			c1.6-11.8,7.9-12.9,18.5-9.2c2,0.7,4.4,3.2,4.8,5.2C81.3,75.5,81.9,83.9,83,94.7z M66.9,61.2c-2.2,1-5.9,1.5-6.3,2.9
			c-1.6,5.8-2.7,11.9-3.2,18c-0.4,4.6,0.8,9.4,0.7,14c-0.1,9.4-1,18.8-0.8,28.3c0.1,4.2,1.3,8.7,3.4,12.2c1.4,2.4,5.2,3.8,8.1,4.6
			c0.8,0.2,3.3-3.5,3.8-5.7c2.6-10.9,5-21.9,6.9-33c0.9-5.3,1-10.9,0.9-16.3c-0.2-5.8-1-11.6-1.7-17.4c-0.2-1.5-1.1-3.4-2.2-4
			C73.6,63.3,70.4,62.5,66.9,61.2z"/>
		<path class="st0" d="M136.5,98.8c0-10.1,0.1-20.3,0-30.4c-0.1-5.2,2-8.6,6.8-10.4c4.8-1.8,8.8-0.8,11.5,4.1
			c2.3,4.1,4.7,8.8,5,13.3c0.7,11.6,0.8,23.2,0.1,34.8c-0.5,8.4-2.7,16.7-4,25.1c-0.6,4.1-1.9,7.8-6.7,8c-4.7,0.1-7.9-3-8.8-7.4
			c-1.4-7.3-2.4-14.7-3.1-22.1c-0.5-4.9-0.1-10-0.1-15C137,98.8,136.8,98.8,136.5,98.8z M138.3,97.6c0.3,0,0.6,0,0.9,0
			c0,7.6-0.6,15.3,0.2,22.9c0.6,6,2.4,11.9,4.4,17.6c0.6,1.7,3.7,3.1,5.8,3.4c1.1,0.2,3.5-2.2,3.8-3.8c2-10.4,4.1-20.8,5-31.2
			c0.8-9.4,0.4-18.9,0-28.3c-0.3-6.1-1.6-12.2-6.3-16.9c-2.7-2.7-5.7-3-9.1-1.4c-3,1.3-4.8,3.2-4.8,6.8
			C138.3,77,138.3,87.3,138.3,97.6z"/>
		<path class="st0" d="M98.3,118c0-12.8,0-25.5,0-38.3c0-6.8,2.2-10.6,6.8-11.9c5.7-1.7,10.8,0.5,14.4,6.2c4.3,6.7,3,14.1,2.5,21.4
			c-0.8,9.8-1.9,19.5-2.6,29.3c-0.6,8.3-3.2,12.5-8.4,12.7c-6,0.2-12.7-5.7-13.6-12.4c-0.3-2.3,0-4.6,0-7
			C97.6,118,97.9,118,98.3,118z M120.6,87.1c0.3-0.1,0.6-0.2,0.9-0.2c-1.1-3.8-1.7-7.7-3.3-11.3c-2.4-5.3-7.5-7.6-12.3-6.2
			c-5.4,1.6-5.8,6-5.8,10.8c-0.3,13.9-0.7,27.8-1.3,41.7c-0.2,5.6,4.4,12.4,9.7,13.7c4.8,1.2,7.9-0.9,8.4-5.7
			C118.1,115.6,119.3,101.3,120.6,87.1z"/>
		<path class="st0" d="M85,167.5c-17,0-34,0.2-51-0.1c-9-0.2-17.9-1-26.8-2c-2.2-0.3-4.3-2.4-6.4-3.7c1.8-1.8,3.4-4.7,5.4-5.1
			c8.8-1.5,17.7-2.6,26.6-3.3c10.6-0.9,21.2-1.6,31.9-1.8c11-0.2,21.9,0.6,32.9,0.5c17-0.1,34-1,50.9-0.7c6.8,0.1,13.7,1.9,20.4,3.7
			c2.1,0.5,3.6,3.3,5.4,5c-1.9,1.5-3.6,3.9-5.7,4.2c-9.2,1.4-18.4,2.9-27.7,3.2C122.3,167.8,103.7,167.5,85,167.5
			C85,167.5,85,167.5,85,167.5z"/>
		<path class="st0" d="M153.1,51.6c-22.8-0.4-45.5-1-68.3-1c-16.4-0.1-32.8,0.7-49.1,0.9c-5.5,0.1-11-0.2-16.3-1.1
			c-3.9-0.6-8.9-2.4-8.4-7c0.4-3.5,3.4-7.9,6.5-9.7C29.6,27,42.1,20.9,54.6,14.9c8.8-4.2,18-7.5,27-11.5c7-3.1,13.9-2.2,20.1,1.4
			c9.8,5.8,19.2,12.4,28.7,18.8c1.9,1.3,3.6,3,5.5,4.2c8,5,16.1,9.8,24,15c1.9,1.3,3,3.9,4.4,5.9c-2.2,1.2-4.4,2.7-6.7,3.6
			c-1.3,0.5-3,0.1-4.5,0.1C153.1,52.2,153.1,51.9,153.1,51.6z"/>
		<path class="st0" d="M15.9,118.5c-1-4.4-2.9-8.9-2.8-13.3c0.1-8.6,0.7-17.2,2.2-25.7c0.8-4.9,3.4-9.6,5.7-14.1
			c1.8-3.5,4.6-6.1,9.1-5.3c4.7,0.9,8.2,5.1,7.3,9.8c-3.5,19.5-0.7,39.1-1.7,58.7c-0.2,3.4-0.7,6.9-1.7,10.2
			c-1.4,4.9-4.3,6.1-8.7,3.8c-5-2.5-8.6-6.1-9.1-12.1c-0.4-4-0.9-7.9-1.4-11.8C15.1,118.7,15.5,118.6,15.9,118.5z"/>
		<path class="st0" d="M66.9,61.2c3.5,1.2,6.7,2,9.5,3.5c1.2,0.6,2,2.6,2.2,4c0.8,5.8,1.6,11.6,1.7,17.4c0.2,5.4,0.1,11-0.9,16.3
			c-1.9,11.1-4.3,22-6.9,33c-0.5,2.2-3,5.9-3.8,5.7c-3-0.8-6.7-2.2-8.1-4.6c-2.1-3.5-3.3-8.1-3.4-12.2c-0.2-9.4,0.7-18.8,0.8-28.3
			c0.1-4.7-1.1-9.4-0.7-14c0.5-6.1,1.6-12.2,3.2-18C61,62.7,64.7,62.2,66.9,61.2z"/>
		<path class="st0" d="M138.3,97.6c0-10.3,0.1-20.6,0-30.8c0-3.6,1.8-5.5,4.8-6.8c3.4-1.5,6.4-1.3,9.1,1.4c4.6,4.7,6,10.8,6.3,16.9
			c0.5,9.4,0.8,18.9,0,28.3c-0.9,10.5-3.1,20.9-5,31.2c-0.3,1.5-2.7,3.9-3.8,3.8c-2.1-0.3-5.2-1.7-5.8-3.4c-2-5.7-3.9-11.7-4.4-17.6
			c-0.7-7.6-0.2-15.3-0.2-22.9C138.9,97.6,138.6,97.6,138.3,97.6z"/>
		<path class="st0" d="M120.6,87.1c-1.3,14.2-2.5,28.5-3.8,42.7c-0.4,4.9-3.6,6.9-8.4,5.7c-5.3-1.3-9.9-8.1-9.7-13.7
			c0.6-13.9,1-27.8,1.3-41.7c0.1-4.8,0.4-9.2,5.8-10.8c4.8-1.4,9.9,1,12.3,6.2c1.6,3.5,2.3,7.5,3.3,11.3
			C121.2,86.9,120.9,87,120.6,87.1z"/>
	</g>
	<g>
		<path class="st1" d="M219.8,22h2.6v13.2h10.9V22h2.6v30.6h-2.6v-15h-10.9v15h-2.6V22z"/>
		<path class="st1" d="M247.3,42.1l-2.5,10.4h-2.6l7.5-30.6h3.4l7.8,30.6h-2.8l-2.5-10.4H247.3z M255,39.8c-2-8.1-3.2-13.1-3.6-15.4
			h-0.1c-0.4,2.6-1.8,8.4-3.4,15.4H255z"/>
		<path class="st1" d="M269.2,22v21.6c0,3.7,1.1,7.1,5.4,7.1c4.3,0,5.4-2.9,5.4-7.2V22h2.6v21.6c0,5.6-2,9.4-8.1,9.4
			c-5.8,0-7.9-3.6-7.9-9.2V22H269.2z"/>
		<path class="st1" d="M295.5,24.3h-6.9V22H305v2.3H298v28.3h-2.6V24.3z"/>
		<path class="st1" d="M324,37.5h-10.4v12.8h11.5l-0.4,2.3h-13.6V22h13.4v2.3h-10.9v10.8H324V37.5z"/>
		<path class="st1" d="M356.1,37.5h-10.4v12.8h11.5l-0.4,2.3h-13.6V22h13.4v2.3h-10.9v10.8h10.4V37.5z"/>
		<path class="st1" d="M379.2,44.3c-0.1,1.9-1,8.7-8,8.7c-7.9,0-8.4-9-8.4-16c0-8.5,2.1-15.4,8.8-15.4c7.1,0,7.4,6.9,7.5,8.6h-2.6
			c-0.1-1-0.3-6.2-4.9-6.2c-5.3,0-6,7.5-6,13c0,6.7,0.8,13.7,5.8,13.7c4.4,0,5.1-4.7,5.3-6.4H379.2z"/>
		<path class="st1" d="M402.9,37c0,10.2-2.3,16-8.7,16c-6.2,0-8.6-5.6-8.6-15.9c0-10.2,2.8-15.5,8.7-15.5
			C400.5,21.5,402.9,26.7,402.9,37z M388.2,37c0,9.3,2,13.7,6,13.7c4.1,0,6-4.4,6-13.6c0-9.6-2-13.2-6-13.2
			C390.3,23.9,388.2,28.1,388.2,37z"/>
		<path class="st1" d="M410.7,22h2.6v28.3h11.1l-0.5,2.3h-13.2V22z"/>
		<path class="st1" d="M443.2,37.5h-10.4v12.8h11.5l-0.4,2.3h-13.6V22h13.4v2.3h-10.9v10.8h10.4V37.5z"/>
		<path class="st1" d="M462.4,22h6.4c6.8,0,10,4.9,10,14.4c0,10.4-2.8,16.2-10.5,16.2h-5.9V22z M465,50.3h3.1c6.1,0,8-4.9,8-13.7
			c0-8.5-2.4-12.3-7.9-12.3H465V50.3z"/>
		<path class="st1" d="M499.4,37.5h-10.4v12.8h11.5l-0.4,2.3h-13.6V22H500v2.3h-10.9v10.8h10.4V37.5z"/>
		<path class="st1" d="M534,52.6H532c-0.1-0.8-0.2-1.8-0.2-3.6c-0.9,2-2.2,4-6.1,4c-6.7,0-8.2-7.3-8.2-15.8c0-10.3,3-15.7,9.1-15.7
			c7,0,7.5,6.3,7.6,8.1h-2.6c-0.1-1-0.3-5.8-5-5.8c-4.6,0-6.3,5.2-6.3,13.3c0,7.8,1.3,13.5,5.9,13.5c4.6,0,5.5-3.9,5.5-11v-1.4h-5.8
			V36h8.3C534,36,534,52.6,534,52.6z"/>
		<path class="st1" d="M555.4,37.5h-10.4v12.8h11.5l-0.4,2.3h-13.6V22h13.4v2.3h-10.9v10.8h10.4V37.5z"/>
		<path class="st1" d="M564.4,44.7c0.2,3.4,1.9,6,5.5,6c3.4,0,5.2-1.8,5.2-5.8c0-3.5-1.3-5.3-5.6-7.3c-4.6-2.2-6.8-4.3-6.8-8.7
			c0-3.9,2.5-7.3,7.3-7.3c5.6,0,7.1,4.1,7.2,7.5h-2.6c-0.1-1.4-0.6-5.3-4.8-5.3c-3.2,0-4.6,2.2-4.6,4.8c0,3.2,1.4,4.7,5.4,6.6
			c5.3,2.6,7.1,5.1,7.1,9.5c0,4.8-2.6,8.2-8,8.2c-5.8,0-7.8-3.8-8-8.2H564.4z"/>
		<path class="st1" d="M589.1,24.3h-6.9V22h16.4v2.3h-6.9v28.3h-2.6V24.3z"/>
		<path class="st1" d="M607.3,22v30.6h-2.6V22H607.3z"/>
		<path class="st1" d="M632.5,37c0,10.2-2.3,16-8.7,16c-6.2,0-8.6-5.6-8.6-15.9c0-10.2,2.8-15.5,8.7-15.5
			C630.1,21.5,632.5,26.7,632.5,37z M617.8,37c0,9.3,2,13.7,6,13.7c4.1,0,6-4.4,6-13.6c0-9.6-2-13.2-6-13.2
			C619.9,23.9,617.8,28.1,617.8,37z"/>
		<path class="st1" d="M640.3,52.6V22h3.4c9.2,22.8,10.4,25.5,10.8,26.8h0c-0.2-4.3-0.3-8.9-0.3-13.9V22h2.5v30.6h-3.2
			c-9.6-23.8-10.7-26.5-11-27.6h0c0.2,3.8,0.3,9,0.3,14.6v13H640.3z"/>
		<path class="st1" d="M219.8,76h2.6v13.2h10.9V76h2.6v30.6h-2.6v-15h-10.9v15h-2.6V76z"/>
		<path class="st1" d="M261,91c0,10.2-2.3,16-8.7,16c-6.2,0-8.6-5.6-8.6-15.9c0-10.2,2.8-15.5,8.7-15.5C258.6,75.5,261,80.7,261,91z
			 M246.3,91c0,9.3,2,13.7,6,13.7c4.1,0,6-4.4,6-13.6c0-9.6-2-13.2-6-13.2C248.4,77.9,246.3,82.1,246.3,91z"/>
		<path class="st1" d="M284.4,98.3c-0.1,1.9-1,8.7-8,8.7c-7.9,0-8.4-9-8.4-16c0-8.5,2.1-15.4,8.8-15.4c7.1,0,7.4,6.9,7.5,8.6h-2.6
			c-0.1-1-0.3-6.2-4.9-6.2c-5.3,0-6,7.5-6,13c0,6.7,0.8,13.7,5.8,13.7c4.4,0,5.1-4.7,5.3-6.4H284.4z"/>
		<path class="st1" d="M291.6,76h2.6v13.2H305V76h2.6v30.6H305v-15h-10.9v15h-2.6V76z"/>
		<path class="st1" d="M317.2,98.7c0.2,3.4,1.9,6,5.5,6c3.4,0,5.2-1.8,5.2-5.8c0-3.5-1.3-5.3-5.6-7.3c-4.6-2.2-6.8-4.3-6.8-8.7
			c0-3.9,2.5-7.3,7.3-7.3c5.6,0,7.1,4.1,7.2,7.5h-2.6c-0.1-1.4-0.6-5.3-4.8-5.3c-3.2,0-4.6,2.2-4.6,4.8c0,3.2,1.4,4.7,5.4,6.6
			c5.3,2.6,7.1,5.1,7.1,9.5c0,4.8-2.6,8.2-8,8.2c-5.8,0-7.8-3.8-8-8.2H317.2z"/>
		<path class="st1" d="M353.2,98.3c-0.1,1.9-1,8.7-8,8.7c-7.9,0-8.4-9-8.4-16c0-8.5,2.1-15.4,8.8-15.4c7.1,0,7.4,6.9,7.5,8.6h-2.6
			c-0.1-1-0.3-6.2-4.9-6.2c-5.3,0-6,7.5-6,13c0,6.7,0.8,13.7,5.8,13.7c4.4,0,5.1-4.7,5.3-6.4H353.2z"/>
		<path class="st1" d="M360.4,76h2.6v13.2h10.9V76h2.6v30.6h-2.6v-15H363v15h-2.6V76z"/>
		<path class="st1" d="M387.9,76v21.6c0,3.7,1.1,7.1,5.4,7.1c4.3,0,5.4-2.9,5.4-7.2V76h2.6v21.6c0,5.6-2,9.4-8.1,9.4
			c-5.8,0-7.9-3.6-7.9-9.2V76H387.9z"/>
		<path class="st1" d="M410,76h2.6v28.3h11.1l-0.5,2.3H410V76z"/>
		<path class="st1" d="M442.5,91.5h-10.4v12.8h11.5l-0.4,2.3h-13.6V76H443v2.3h-10.9v10.8h10.4V91.5z"/>
		<path class="st1" d="M461.7,76h13.5v2.3h-10.9v11.1h10.2v2.3h-10.2v14.9h-2.6V76z"/>
		<path class="st1" d="M484.1,76v21.6c0,3.7,1.1,7.1,5.4,7.1c4.3,0,5.4-2.9,5.4-7.2V76h2.6v21.6c0,5.6-2,9.4-8.1,9.4
			c-5.8,0-7.9-3.6-7.9-9.2V76H484.1z"/>
		<path class="st1" d="M508.7,92.1v14.5h-2.6V76h7.5c5,0,7.5,2.9,7.5,7.7c0,4.6-2.2,6.6-4.1,7.2c3,1,3.8,3.7,3.8,7.9v1.2
			c0,2.6,0.1,4.9,0.4,6.6h-2.6c-0.4-1.4-0.4-4.2-0.4-6.7v-1c0-4.5-0.9-6.8-5.2-6.8H508.7z M508.7,89.8h4.4c3.9,0,5.3-2.4,5.3-6.1
			c0-3.2-1.5-5.5-5.1-5.5h-4.6V89.8z"/>
		<path class="st1" d="M544.1,106.6L538,76h2.7c2.4,12.2,4.5,23.4,4.9,27.1h0c0.4-3.6,4-19.6,5.5-27.1h2.6c1.5,7.3,5,23.6,5.4,27
			h0.1c0.6-5,3.9-19.6,5.3-27h2.6l-6.6,30.6h-2.9c-1.4-7.2-4.7-22.6-5.2-26.7h-0.1c-0.6,4.5-3.9,19.5-5.4,26.7H544.1z"/>
		<path class="st1" d="M576.1,76v30.6h-2.6V76H576.1z"/>
		<path class="st1" d="M587.7,92.1v14.5h-2.6V76h7.5c5,0,7.5,2.9,7.5,7.7c0,4.6-2.2,6.6-4.1,7.2c3,1,3.8,3.7,3.8,7.9v1.2
			c0,2.6,0.1,4.9,0.4,6.6h-2.6c-0.4-1.4-0.4-4.2-0.4-6.7v-1c0-4.5-0.9-6.8-5.2-6.8H587.7z M587.7,89.8h4.4c3.9,0,5.3-2.4,5.3-6.1
			c0-3.2-1.5-5.5-5.1-5.5h-4.6V89.8z"/>
		<path class="st1" d="M612.1,78.3h-6.9V76h16.4v2.3h-6.9v28.3h-2.6V78.3z"/>
		<path class="st1" d="M628,98.7c0.2,3.4,1.9,6,5.5,6c3.4,0,5.2-1.8,5.2-5.8c0-3.5-1.3-5.3-5.6-7.3c-4.6-2.2-6.8-4.3-6.8-8.7
			c0-3.9,2.5-7.3,7.3-7.3c5.6,0,7.1,4.1,7.2,7.5h-2.6c-0.1-1.4-0.6-5.3-4.8-5.3c-3.2,0-4.6,2.2-4.6,4.8c0,3.2,1.4,4.7,5.4,6.6
			c5.3,2.6,7.1,5.1,7.1,9.5c0,4.8-2.6,8.2-8,8.2c-5.8,0-7.8-3.8-8-8.2H628z"/>
		<path class="st1" d="M663.9,98.3c-0.1,1.9-1,8.7-8,8.7c-7.9,0-8.4-9-8.4-16c0-8.5,2.1-15.4,8.8-15.4c7.1,0,7.4,6.9,7.5,8.6h-2.6
			c-0.1-1-0.3-6.2-4.9-6.2c-5.3,0-6,7.5-6,13c0,6.7,0.8,13.7,5.8,13.7c4.4,0,5.1-4.7,5.3-6.4H663.9z"/>
		<path class="st1" d="M671.1,76h2.6v13.2h10.9V76h2.6v30.6h-2.6v-15h-10.9v15h-2.6V76z"/>
		<path class="st1" d="M698.6,96.1l-2.5,10.4h-2.6L701,76h3.4l7.8,30.6h-2.8l-2.5-10.4H698.6z M706.3,93.8c-2-8.1-3.2-13.1-3.6-15.4
			h-0.1c-0.4,2.6-1.8,8.4-3.4,15.4H706.3z"/>
		<path class="st1" d="M718.5,76H732v2.3h-10.9v11.1h10.2v2.3h-10.2v14.9h-2.6V76z"/>
		<path class="st1" d="M743.9,78.3H737V76h16.4v2.3h-6.9v28.3h-2.6V78.3z"/>
		<path class="st1" d="M220.5,152.7c0.2,3.4,1.9,6,5.5,6c3.4,0,5.2-1.8,5.2-5.8c0-3.5-1.3-5.3-5.6-7.3c-4.6-2.2-6.8-4.3-6.8-8.7
			c0-3.9,2.5-7.3,7.3-7.3c5.6,0,7.1,4.1,7.2,7.5h-2.6c-0.1-1.4-0.6-5.3-4.8-5.3c-3.2,0-4.6,2.2-4.6,4.8c0,3.2,1.4,4.7,5.4,6.6
			c5.3,2.6,7.1,5.1,7.1,9.5c0,4.8-2.6,8.2-8,8.2c-5.8,0-7.8-3.8-8-8.2H220.5z"/>
		<path class="st1" d="M256.4,152.3c-0.1,1.9-1,8.7-8,8.7c-7.9,0-8.4-9-8.4-16c0-8.5,2.1-15.4,8.8-15.4c7.1,0,7.4,6.9,7.5,8.6h-2.6
			c-0.1-1-0.3-6.2-4.9-6.2c-5.3,0-6,7.5-6,13c0,6.7,0.8,13.7,5.8,13.7c4.4,0,5.1-4.7,5.3-6.4H256.4z"/>
		<path class="st1" d="M263.6,130h2.6v13.2H277V130h2.6v30.6H277v-15h-10.9v15h-2.6V130z"/>
		<path class="st1" d="M304.8,145c0,10.2-2.3,16-8.7,16c-6.2,0-8.6-5.6-8.6-15.9c0-10.2,2.8-15.5,8.7-15.5
			C302.4,129.5,304.8,134.7,304.8,145z M290.1,145c0,9.3,2,13.7,6,13.7c4.1,0,6-4.4,6-13.6c0-9.6-2-13.2-6-13.2
			C292.2,131.9,290.1,136.1,290.1,145z"/>
		<path class="st1" d="M329.1,145c0,10.2-2.3,16-8.7,16c-6.2,0-8.6-5.6-8.6-15.9c0-10.2,2.8-15.5,8.7-15.5
			C326.7,129.5,329.1,134.7,329.1,145z M314.5,145c0,9.3,2,13.7,6,13.7c4.1,0,6-4.4,6-13.6c0-9.6-2-13.2-6-13.2
			C316.5,131.9,314.5,136.1,314.5,145z"/>
		<path class="st1" d="M336.9,130h2.6v28.3h11.1l-0.5,2.3h-13.2V130z"/>
		<path class="st1" d="M383.8,145c0,10.2-2.3,16-8.7,16c-6.2,0-8.6-5.6-8.6-15.9c0-10.2,2.8-15.5,8.7-15.5
			C381.4,129.5,383.8,134.7,383.8,145z M369.1,145c0,9.3,2,13.7,6,13.7c4.1,0,6-4.4,6-13.6c0-9.6-2-13.2-6-13.2
			C371.2,131.9,369.1,136.1,369.1,145z"/>
		<path class="st1" d="M391.6,130h13.5v2.3h-10.9v11.1h10.2v2.3h-10.2v14.9h-2.6V130z"/>
		<path class="st1" d="M441,146.9c0-5.9,0.1-11.5,0.2-14.7h-0.1c-1.1,5.1-4.3,18.7-6.9,28.3h-2.6c-2-8.1-5.3-22.8-6.5-28.4h-0.1
			c0.2,3.6,0.3,10.4,0.3,15.6v12.7h-2.5V130h3.8c2.8,10,5.5,22.8,6.3,26.7h0c0.6-3,3.9-17,6.7-26.7h3.8v30.6H441V146.9z"/>
		<path class="st1" d="M455,150.1l-2.5,10.4H450l7.5-30.6h3.4l7.8,30.6h-2.8l-2.5-10.4H455z M462.7,147.8c-2-8.1-3.2-13.1-3.6-15.4
			H459c-0.4,2.6-1.8,8.4-3.4,15.4H462.7z"/>
		<path class="st1" d="M474.9,160.6V130h3.4c9.2,22.8,10.4,25.5,10.8,26.8h0c-0.2-4.3-0.3-8.9-0.3-13.9V130h2.5v30.6h-3.2
			c-9.6-23.8-10.7-26.5-11-27.6h0c0.2,3.8,0.3,9,0.3,14.6v13H474.9z"/>
		<path class="st1" d="M502.9,150.1l-2.5,10.4h-2.6l7.5-30.6h3.4l7.8,30.6h-2.8l-2.5-10.4H502.9z M510.6,147.8
			c-2-8.1-3.2-13.1-3.6-15.4h-0.1c-0.4,2.6-1.8,8.4-3.4,15.4H510.6z"/>
		<path class="st1" d="M538.2,160.6h-2.1c-0.1-0.8-0.2-1.8-0.2-3.6c-0.9,2-2.2,4-6.1,4c-6.7,0-8.2-7.3-8.2-15.8
			c0-10.3,3-15.7,9.1-15.7c7,0,7.5,6.3,7.6,8.1h-2.6c-0.1-1-0.3-5.8-5-5.8c-4.6,0-6.3,5.2-6.3,13.3c0,7.8,1.3,13.5,5.9,13.5
			c4.6,0,5.5-3.9,5.5-11v-1.4h-5.8V144h8.3C538.2,144,538.2,160.6,538.2,160.6z"/>
		<path class="st1" d="M559.6,145.5h-10.4v12.8h11.5l-0.4,2.3h-13.6V130h13.4v2.3h-10.9v10.8h10.4V145.5z"/>
		<path class="st1" d="M585.5,146.9c0-5.9,0.1-11.5,0.2-14.7h-0.1c-1.1,5.1-4.3,18.7-6.9,28.3h-2.6c-2-8.1-5.3-22.8-6.5-28.4h-0.1
			c0.2,3.6,0.3,10.4,0.3,15.6v12.7h-2.5V130h3.8c2.8,10,5.5,22.8,6.3,26.7h0c0.6-3,3.9-17,6.7-26.7h3.8v30.6h-2.6V146.9z"/>
		<path class="st1" d="M610,145.5h-10.4v12.8h11.5l-0.4,2.3h-13.6V130h13.4v2.3h-10.9v10.8H610V145.5z"/>
		<path class="st1" d="M617.6,160.6V130h3.4c9.2,22.8,10.4,25.5,10.8,26.8h0c-0.2-4.3-0.3-8.9-0.3-13.9V130h2.5v30.6h-3.2
			c-9.6-23.8-10.7-26.5-11-27.6h0c0.2,3.8,0.3,9,0.3,14.6v13H617.6z"/>
		<path class="st1" d="M646.9,132.3h-6.9V130h16.4v2.3h-6.9v28.3h-2.6V132.3z"/>
	</g>
</g>
</svg>
