<?xml version="1.0" encoding="utf-8"?>
<!-- Generator: Adobe Illustrator 23.0.1, SVG Export Plug-In . SVG Version: 6.00 Build 0)  -->
<svg version="1.1" id="Layer_1" xmlns="http://www.w3.org/2000/svg" xmlns:xlink="http://www.w3.org/1999/xlink" x="0px" y="0px"
	 viewBox="0 0 438.4 333.9" style="enable-background:new 0 0 438.4 333.9;" xml:space="preserve">
<style type="text/css">
	.st0{opacity:0.9;}
	.st1{fill:#232323;}
</style>
<g class="st0">
	<g>
		<g>
			<path class="st1" d="M13.4,319.6H3.1v12.8h11.5l-0.4,2.3H0.5v-30.6H14v2.3H3.1v10.8h10.4V319.6z"/>
			<path class="st1" d="M26.1,306.4h-6.9v-2.3h16.4v2.3h-6.9v28.3h-2.6V306.4z"/>
			<path class="st1" d="M41.7,304.1h2.6v13.2h10.9v-13.2h2.6v30.6h-2.6v-15H44.3v15h-2.6V304.1z"/>
			<path class="st1" d="M91,319.6H80.7v12.8h11.5l-0.4,2.3H78.1v-30.6h13.4v2.3H80.7v10.8H91V319.6z"/>
			<path class="st1" d="M98.7,334.7v-30.6h3.4c9.2,22.8,10.4,25.5,10.8,26.8h0c-0.2-4.3-0.3-8.9-0.3-13.9v-12.9h2.5v30.6H112
				c-9.6-23.8-10.7-26.5-11-27.6h0c0.2,3.8,0.3,9,0.3,14.6v13H98.7z"/>
			<path class="st1" d="M127.9,306.4H121v-2.3h16.4v2.3h-6.9v28.3h-2.6V306.4z"/>
			<path class="st1" d="M146.1,320.2v14.5h-2.6v-30.6h7.5c5,0,7.5,2.9,7.5,7.7c0,4.6-2.2,6.6-4.1,7.2c3,1,3.8,3.7,3.8,7.9v1.2
				c0,2.6,0.1,4.9,0.4,6.6H156c-0.4-1.4-0.4-4.2-0.4-6.7v-1c0-4.5-0.9-6.8-5.3-6.8H146.1z M146.1,317.9h4.4c3.9,0,5.3-2.4,5.3-6.1
				c0-3.2-1.5-5.5-5.1-5.5h-4.6V317.9z"/>
			<path class="st1" d="M179.3,319.6h-10.4v12.8h11.5l-0.4,2.3h-13.6v-30.6h13.4v2.3h-10.9v10.8h10.4V319.6z"/>
			<path class="st1" d="M186.9,304.1h7.4c4.7,0,7.9,3,7.9,8.3c0,5.3-2.8,8.8-8.4,8.8h-4.3v13.5h-2.6V304.1z M189.5,318.9h4.1
				c3.9,0,6-2.1,6-6.5c0-3.5-1.8-6-5.6-6h-4.5V318.9z"/>
			<path class="st1" d="M211.8,320.2v14.5h-2.6v-30.6h7.5c5,0,7.5,2.9,7.5,7.7c0,4.6-2.2,6.6-4.1,7.2c3,1,3.8,3.7,3.8,7.9v1.2
				c0,2.6,0.1,4.9,0.4,6.6h-2.6c-0.4-1.4-0.4-4.2-0.4-6.7v-1c0-4.5-0.9-6.8-5.3-6.8H211.8z M211.8,317.9h4.4c3.9,0,5.3-2.4,5.3-6.1
				c0-3.2-1.5-5.5-5.1-5.5h-4.6V317.9z"/>
			<path class="st1" d="M245,319.6h-10.4v12.8h11.5l-0.4,2.3h-13.6v-30.6h13.4v2.3h-10.9v10.8H245V319.6z"/>
			<path class="st1" d="M252.6,334.7v-30.6h3.4c9.2,22.8,10.4,25.5,10.8,26.8h0c-0.2-4.3-0.3-8.9-0.3-13.9v-12.9h2.5v30.6h-3.2
				c-9.6-23.8-10.7-26.5-11-27.6h0c0.2,3.8,0.3,9,0.3,14.6v13H252.6z"/>
			<path class="st1" d="M291.1,319.6h-10.4v12.8h11.5l-0.4,2.3h-13.6v-30.6h13.4v2.3h-10.9v10.8h10.4V319.6z"/>
			<path class="st1" d="M301.1,304.1v21.6c0,3.7,1.1,7.1,5.4,7.1c4.3,0,5.4-2.9,5.4-7.2v-21.6h2.6v21.6c0,5.6-2,9.4-8.1,9.4
				c-5.8,0-7.9-3.6-7.9-9.2v-21.9H301.1z"/>
			<path class="st1" d="M325.8,320.2v14.5h-2.6v-30.6h7.5c5,0,7.5,2.9,7.5,7.7c0,4.6-2.2,6.6-4.1,7.2c3,1,3.8,3.7,3.8,7.9v1.2
				c0,2.6,0.1,4.9,0.4,6.6h-2.6c-0.4-1.4-0.4-4.2-0.4-6.7v-1c0-4.5-0.9-6.8-5.3-6.8H325.8z M325.8,317.9h4.4c3.9,0,5.3-2.4,5.3-6.1
				c0-3.2-1.5-5.5-5.1-5.5h-4.6V317.9z"/>
			<path class="st1" d="M372.6,326.4c-0.1,1.9-1,8.7-8,8.7c-7.9,0-8.4-9-8.4-16c0-8.5,2.1-15.4,8.8-15.4c7.1,0,7.4,6.9,7.5,8.6h-2.6
				c-0.1-1-0.3-6.2-4.9-6.2c-5.3,0-6,7.5-6,13c0,6.7,0.8,13.7,5.8,13.7c4.4,0,5.1-4.7,5.3-6.4H372.6z"/>
			<path class="st1" d="M379.8,304.1h2.6v28.3h11.1l-0.5,2.3h-13.2V304.1z"/>
			<path class="st1" d="M401.2,304.1v21.6c0,3.7,1.1,7.1,5.4,7.1c4.3,0,5.4-2.9,5.4-7.2v-21.6h2.6v21.6c0,5.6-2,9.4-8.1,9.4
				c-5.8,0-7.9-3.6-7.9-9.2v-21.9H401.2z"/>
			<path class="st1" d="M423.3,304.1h7.5c4.3,0,7.1,2.7,7.1,7.3c0,4.2-2,5.9-3.8,6.6c2.4,0.8,4.9,3,4.9,7.8c0,5.4-3.2,9-8.4,9h-7.2
				V304.1z M429.7,317c4,0,5.6-1.9,5.6-5.4c0-3.2-1.7-5.3-5.1-5.3h-4.3V317H429.7z M425.8,332.5h4.4c3.9,0,6-2.5,6-6.7
				c0-4.4-2.4-6.5-6.7-6.5h-3.8V332.5z"/>
		</g>
		<g>
			<path class="st1" d="M58.7,276.2v14.1h-6.6v-35.2h16.6c7.1,0,11.3,3.8,11.3,9.9c0,4.4-2.2,7.2-5.6,8.3c1.6,0.6,4.8,2.1,4.8,8.4
				v1.7c0,2.5,0,5.3,0.4,6.9h-6.8c-0.5-1.5-0.5-3.8-0.5-7.3v-1.2c0-4.1-1.4-5.6-6.3-5.6H58.7z M58.7,270.6h8.5c4.1,0,6-1.6,6-5
				c0-3.1-1.9-4.8-5.9-4.8h-8.6V270.6z"/>
			<path class="st1" d="M121.7,272.6c0,9.8-5.9,18.5-17.2,18.5c-10.6,0-16.8-8.1-16.8-18.4c0-9.7,6.5-18.2,17.1-18.2
				C115.5,254.4,121.7,263,121.7,272.6z M94.7,272.5c0,6.9,3.4,12.7,10.1,12.7c6.8,0,9.8-6.2,9.8-12.5c0-6.6-3.2-12.5-10.1-12.5
				C97.9,260.3,94.7,266.1,94.7,272.5z"/>
			<path class="st1" d="M161.4,279.4c-1.6,6.1-5.9,11.6-15.5,11.6c-11.1,0-16.7-8.5-16.7-18.3c0-9.8,6.1-18.4,17-18.4
				c9.6,0,14.2,5.8,15.3,11.7h-6.8c-0.9-2.6-2.9-5.8-8.6-5.8c-6.4,0-9.9,5.3-9.9,12.3c0,7,3.3,12.8,9.9,12.8c5,0,7.1-2.2,8.5-5.8
				H161.4z"/>
			<path class="st1" d="M169.9,255.1h6.7v16c4.7-4.7,10.2-10,16.2-16h8.3l-15.3,15.1l16.2,20.1h-8.4l-12.6-16l-4.3,3.9v12.1h-6.7
				V255.1z"/>
			<path class="st1" d="M232.8,275h-18.2v9.4h20.1l-0.8,6h-26v-35.2h25.8v6h-19.1v7.9h18.2V275z"/>
			<path class="st1" d="M251.9,261.1h-11.5v-6h29.6v6h-11.5v29.2h-6.7V261.1z"/>
			<path class="st1" d="M277.8,255.1h6.7v13.5h16.1v-13.5h6.7v35.2h-6.7v-15.7h-16.1v15.7h-6.7V255.1z"/>
			<path class="st1" d="M324.9,255.1v19.9c0,8,4,10.1,8.2,10.1c4.7,0,7.7-2.3,7.7-10.1v-19.9h6.7v20.1c0,10.9-5.4,15.8-14.6,15.8
				c-8.9,0-14.7-4.6-14.7-15.6v-20.3H324.9z"/>
			<path class="st1" d="M358.5,255.1h16.9c7.3,0,10.7,3.9,10.7,9c0,4.2-2.4,6.6-4.9,7.5c3,1,6.1,3.5,6.1,8.3
				c0,6.7-4.8,10.4-12.1,10.4h-16.7V255.1z M373.9,269.1c3.8,0,5.3-1.6,5.3-4.2c0-3.1-2.2-4.2-5.2-4.2H365v8.4H373.9z M365,284.7
				h9.2c3.2,0,6-1.1,6-5c0-3.3-2.1-4.9-6.1-4.9H365V284.7z"/>
		</g>
	</g>
	<g>
		<path class="st1" d="M228,173.6c-4,3-7.2,5.1-10.1,7.6c-3.6,3-7.1,3.5-11.1,0.9c-10.7-6.9-21.4-13.7-32.3-20.4
			c-5.4-3.3-7.3-7.4-4.7-13.5c1.1-2.5,1.4-5.3,2.5-9.4c-10.6,4.7-20.2,8.9-29.8,13.2c-0.5-0.4-0.9-0.8-1.4-1.2
			c1.2-3.1,2-6.5,3.8-9.3c10.4-15.9,21-31.7,31.6-47.5c5.2-7.6,13.6-6,21.1-7.3c2.6-0.4,5.9-1.3,7.4-3.1
			c11.3-13.2,22.3-26.7,33.4-40.1c1-1.2,2.4-2.5,3.8-2.8c6-1.6,8.5-5.3,7.1-11.1c-0.9-3.9,3-8.1,7.2-8.1c1.8,0,4.9-0.7,5.1-1.7
			c2-7.7,8.8-9.8,14.5-9.7c7.8,0.1,13-3.6,18.5-7.6c1.1-0.8,2.6-0.9,3.9-1.3c0.3,1.3,1,2.7,0.8,3.9c-0.5,3.2-1.7,6.3-2.2,9.5
			c-0.3,1.5-0.1,3.3,0.5,4.6c3.9,8.2,6.8,16.1-0.4,24.2c-0.7,0.7,0,3.1,0.6,4.5c2.1,4.7,0.5,8.7-4.5,10.3c-5.9,1.9-7.6,5.4-6.2,11.7
			c0.3,1.5-0.2,3.3-0.8,4.7c-7,15.5-14.1,31-21.4,46.4c-1.5,3.2-2.1,5.6-0.2,9.2c4.6,9,6.3,18.1-0.2,27.6
			c-10.6,15.3-20.6,31.1-30.8,46.6c-0.7,1-1.8,1.8-4.3,4.1C227.8,196.7,230,185.7,228,173.6z M258.6,83.9
			c0.2-6.9-5.2-12.7-11.8-12.9c-6.6-0.2-12.8,5.4-13.1,11.9c-0.3,6.7,5.3,12.8,11.7,13C252.9,96.1,258.4,91.1,258.6,83.9z
			 M266.3,56.1c2.2,2.3,3.9,3.5,5.4,3.7c0,0,4.2-2.4,6.3-8.6c-2.6-2.4-4.8-3.4-5.5-3.3C271,48,269.5,50.8,266.3,56.1z M262.7,40.9
			c-1,0.2-3.9,5.2-5.7,8.8c-0.3,0.6,2.9,2.6,4.5,3.9c2.1-2.8,3.9-5.2,6-8.5C267.9,44.5,263.8,40.7,262.7,40.9z M252.7,47.8
			c2.8-4.2,7.2-7.6,6.7-8.3c-1.2-1.5-2-3.1-4.4-4.2c-2,2.5-4.4,4.8-5.8,7.6C248.7,43.9,249.1,45.1,252.7,47.8z M287,56
			c-1.8-1.1-2.9-3.3-4.8-2.9c-2.9,0.6-4.4,6.7-5.4,9c-0.5,1.1,3.4,3.8,4.3,2.8C282.7,63.3,285.3,58.9,287,56z"/>
		<path class="st1" d="M144.9,220.6c9-4.8,11.4-12.8,12.6-22.1c1.5-12.5,8.8-20.8,18.6-22.9c8.1-1.8,14.2,2.4,15.6,10.7
			c1.7,10.2-2.4,18.2-10.1,24.3c-9.1,7.3-19.8,11.3-31.6,11.9c-1.5,0.1-3.1-0.2-4.6-0.4C145.3,221.7,145.1,221.1,144.9,220.6z"/>
	</g>
</g>
</svg>
