<?xml version="1.0" encoding="utf-8"?>
<!-- Generator: Adobe Illustrator 23.0.1, SVG Export Plug-In . SVG Version: 6.00 Build 0)  -->
<svg version="1.1" id="Layer_1" xmlns="http://www.w3.org/2000/svg" xmlns:xlink="http://www.w3.org/1999/xlink" x="0px" y="0px"
	 viewBox="0 0 430.5 255.3" style="enable-background:new 0 0 430.5 255.3;" xml:space="preserve">
<style type="text/css">
	.st0{fill:#161616;}
</style>
<g>
	<path class="st0" d="M0,63.7c11.1,0,22.2,0,33.4,0.1c4.6,0,9.2,0,14,0c0,6.8,0,13.5,0,20.2c0.2,0.1,0.3,0.1,0.5,0.2
		c0.7-1,1.4-2,2-3c4.9-7.2,11-13.1,19-16.6c6-2.6,12.3-3.8,18.8-3.9c7.5-0.1,14.9,0.9,22,3.5c13.7,5.2,21.5,15.4,24.4,29.5
		c0.9,4.6,1.4,9.3,1.5,14c0.1,27.3,0.1,54.6,0.1,82c0,0.5,0,0.9,0,1.6c-16.7,0-33.3,0-50.2,0c0-0.7,0-1.4,0-2.1
		c0-22.8,0-45.6,0-68.3c0-2.2-0.3-4.6-0.9-6.7c-2.6-9.3-9.7-12.8-18.3-11.9c-9.4,1-14.6,6.4-15.7,15.9c-0.2,1.8-0.3,3.7-0.3,5.5
		c0,21.8,0,43.5,0,65.3c0,0.7,0,1.4,0,2.5c-16.8,0-33.5,0-50.2,0C0,148.9,0,106.3,0,63.7z"/>
	<path class="st0" d="M178.7,255.3c0-0.8,0-1.6,0-2.3c0-83.5,0-166.9,0-250.4c0-0.8,0-1.6,0-2.6c3,0,5.7,0,8.9,0c0,0.8,0,1.6,0,2.4
		c0,83.6,0,167.3,0,250.9c0,0.7,0.1,1.3,0.1,2C184.6,255.3,181.7,255.3,178.7,255.3z"/>
	<path class="st0" d="M223.4,102.9c-1.8-1.2-3.5-2.2-5.2-3.3c6.5-12.2,13.4-23.8,25.2-31.5c8.4-5.4,17.6-8,27.6-6.9
		c9.6,1,16.7,8.9,17.2,18.6c0.3,7.4-1.8,14.3-3.8,21.2c-5.1,17.5-10.3,35-15.3,52.5c-1.2,4.1-1.9,8.2-2.6,12.4
		c-0.6,3.3-0.1,6.6,1.9,9.4c1.8,2.6,4.2,3.6,7.3,3c4.4-0.8,7.9-3.2,11.2-6.1c7-6.3,12.1-14.1,16.9-22.2c11-18.7,19.4-38.7,26.9-59
		c3.1-8.5,5.8-17.1,8.7-25.7c0.3-0.8,0.4-1.6,1.7-1.6c10.6,0.1,21.2,0,31.7,0c0.3,0,0.6,0.1,1.1,0.2c-0.9,3.2-1.7,6.3-2.5,9.4
		c-5.3,19.6-10.6,39.1-15.7,58.7c-2.2,8.2-3.7,16.5-4,25.1c-0.2,4.8,0,9.6,1.5,14.2c2.4,7.2,8,10.6,15.5,9.7c8-1,14.4-4.9,20.1-10.2
		c8.1-7.6,14.1-16.8,19.1-26.7c6.6-12.9,11.7-26.4,14.4-40.7c0.7-3.8,0.7-7.7,0.9-11.6c0.1-0.8-0.2-1.6-0.4-2.7
		c-0.6,0.6-1,1-1.4,1.3c-4.9,4.6-10.7,5.7-16.9,3.4c-6.2-2.2-10.1-6.8-11-13.4c-1.2-8.5,3.5-16,11.4-18.7c8.1-2.7,16.7,0.5,21.1,8
		c3.4,5.8,4.5,12.2,4.7,18.7c0.5,15.7-3.2,30.7-8.9,45.2c-6.2,15.7-14.7,30-26.7,42c-8.3,8.2-17.7,14.6-29.1,17.6
		c-7.3,1.9-14.7,2.4-22.1,0.4c-11.5-3.1-18.1-11-21.4-22.1c-2.8-9.5-2.8-19.2-0.9-28.9c0.9-4.7,2-9.3,3-14c0.1-0.5,0.1-1-0.2-1.6
		c-0.3,0.6-0.6,1.2-0.8,1.8c-4.8,11.9-10,23.6-17.3,34.3c-6.6,9.7-14.3,18.3-24.4,24.3c-8,4.8-16.6,7.2-25.9,7.3
		c-14.5,0.1-25.8-11.2-26-25.7c-0.1-8.1,1.9-15.9,4.2-23.5c5-17.3,10.3-34.5,15.3-51.8c1.4-4.7,2.8-9.5,2.5-14.6
		c-0.3-4.5-2-5.6-6-3.5c-4.1,2.1-7.2,5.4-9.9,9c-3.9,5.2-7.5,10.7-11.2,16C224.2,101.5,223.8,102.2,223.4,102.9z"/>
</g>
</svg>
