<?xml version="1.0" encoding="utf-8"?>
<!-- Generator: Adobe Illustrator 23.0.1, SVG Export Plug-In . SVG Version: 6.00 Build 0)  -->
<svg version="1.1" id="Layer_1" xmlns="http://www.w3.org/2000/svg" xmlns:xlink="http://www.w3.org/1999/xlink" x="0px" y="0px"
	 viewBox="0 0 607 221" style="enable-background:new 0 0 607 221;" xml:space="preserve">
<style type="text/css">
	.st0{fill:#3F3F3F;}
</style>
<g>
	<path class="st0" d="M400.2,219.6c-0.2-0.4-0.2-0.9,0-1.6c0.9-3.9,1.8-7.8,2.7-11.8c0.6-2.6,1.2-5.1,1.8-7.7
		c0.7-3.5,1.3-7,2.1-10.5c0.8-3.6,1.8-7.2,2.6-10.9c0.8-3.5,1.5-6.9,2.3-10.4c0.8-3.5,1.7-7,2.5-10.6c0.6-2.6,1.4-5.3,1.9-7.9
		c1.3-6.2,2.5-12.3,3.9-18.5c0.7-3.2,1.9-6.3,2.7-9.5c0.7-2.5,1.2-5,1.7-7.4c0.7-3.2,1.2-6.3,1.9-9.5c0.8-3.8,1.8-7.6,2.7-11.3
		c0.6-2.7,1.3-5.3,1.9-8c0.7-3.5,1.3-7,2.1-10.4c0.8-3.4,1.8-6.8,2.6-10.2c0.6-2.5,1.2-5,1.7-7.5c0.7-3.5,1.4-7,2.2-10.5
		c0.8-3.6,1.7-7.2,2.6-10.9c0.6-2.6,1.3-5.1,1.9-7.7c0.7-3.5,1.3-7,2-10.4c0.7-3.4,1.6-6.7,2.4-10.1c0.3-1.1,0.4-2.3,0.7-3.4
		c0.3-1,0.6-1.9,1-2.9h-45.1c0.1,0.8,0.5,1.6,0.3,2.3c-0.8,4.5-1.7,9.1-2.6,13.6c-0.8,4.2-1.8,8.4-2.6,12.6
		c-0.6,3.1-1.2,6.2-1.8,9.3c-0.7,4-1.3,8-2.1,12c-0.9,4.6-1.9,9.2-2.8,13.9c-0.7,3.8-1.4,7.6-2.1,11.4c-0.9,4.6-1.8,9.2-2.7,13.8
		c-0.6,3.2-1.3,6.3-1.9,9.5c-0.7,4.2-1.3,8.4-2.1,12.5c-0.8,4.4-1.9,8.7-2.8,13.1c-0.7,3.5-1.3,7-2,10.4c-0.9,4.7-1.8,9.4-2.7,14.1
		c-0.2,1.2-0.3,2.5-0.7,3.7c-0.2,0.5-0.8,0.9-1.2,1.4c-0.4-0.5-1.1-0.9-1.2-1.4c-1.3-5.5-2.3-11-3.7-16.4
		c-1.3-5.2-2.8-10.3-4.2-15.4c-0.7-2.6-1.3-5.1-1.9-7.7c-1.3-5.8-2.4-11.7-3.8-17.4c-0.7-3.2-1.8-6.3-2.6-9.5
		c-0.6-2.4-1.2-4.8-1.7-7.2c-1.3-5.6-2.4-11.3-3.7-17c-1.4-5.7-2.9-11.4-4.3-17c-0.7-2.9-1.4-5.8-2-8.7c-0.7-3.2-1.3-6.5-2-9.7
		c-0.4-1.9-1-3.8-1.4-5.8c-1.5-5.8-3-11.5-4.4-17.3c-0.2-1,0-2,0-3.1h-44.2c0.1,0.9,0.4,1.8,0.2,2.5c-0.9,3.9-1.8,7.7-2.8,11.5
		c-0.9,3.5-1.7,7.1-2.6,10.6c-0.6,2.7-1.3,5.3-1.9,8c-0.8,3.6-1.4,7.2-2.2,10.7c-0.8,3.3-1.8,6.5-2.6,9.7c-0.7,2.6-1.3,5.3-1.8,7.9
		c-1.3,6-2.4,12-3.8,18c-0.7,3.3-1.8,6.5-2.6,9.8c-0.8,3.4-1.4,6.9-2.2,10.4c-0.8,3.4-1.7,6.9-2.5,10.3c-0.6,2.6-1.3,5.1-1.9,7.7
		c-1.3,5.9-2.5,11.8-3.9,17.7c-0.8,3.3-1.8,6.5-2.6,9.8c-0.2,0.8-0.3,1.6-0.4,2.5c-0.1,0.8,0.1,1.8-0.2,2.5
		c-0.8,1.4-1.8,2.7-2.7,4.1c-0.5-1.3-1.1-2.6-1.3-3.9c-1-4.9-1.9-9.7-2.9-14.6c-0.7-3.4-1.3-6.8-2-10.2c-1-4.8-2.1-9.7-3-14.5
		c-0.7-3.8-1.3-7.7-1.9-11.5c-0.7-3.8-1.4-7.7-2.2-11.5c-0.9-5-1.8-9.9-2.9-14.9c-0.8-4-1.8-8-2.7-12.1c-0.1-0.3-0.2-0.6-0.2-1
		c-1.2-7-2.3-14-3.7-21c-1.4-7-3-13.9-4.4-20.9c-0.8-4-1.3-8-1.9-12c-0.2-1.1-0.6-2.1-0.8-3.1c-0.1-0.8,0-1.5,0-2.5h-46.6
		c0.4,1.7,0.8,3.6,1.2,5.4c0.9,3.6,1.8,7.2,2.7,10.8c0.6,2.6,1.3,5.1,1.8,7.7c0.7,3.4,1.3,6.8,2,10.2c0.6,3.1,1.4,6.1,2.1,9.2
		c1,4.3,1.9,8.7,2.9,13c0.8,3.5,1.8,7,2.7,10.5c0.6,2.5,1.2,5,1.7,7.5c0.7,3.4,1.3,6.8,2,10.2c0.8,3.6,1.8,7.2,2.7,10.9
		c0.6,2.6,1.3,5.3,1.9,7.9c0.7,3.5,1.2,7,2,10.4c0.8,3.5,1.8,7,2.7,10.5c0.6,2.4,1.2,4.8,1.8,7.2c0.7,3.5,1.3,7,2.1,10.5
		c0.9,3.8,1.9,7.5,2.8,11.3c0.6,2.4,1.1,4.8,1.7,7.2c0.7,3.2,1.2,6.5,1.9,9.7c0.8,3.5,1.6,7.1,2.5,10.6c0.7,2.8,1.4,5.6,2.1,8.4
		c0.8,3.5,1.3,7,2.1,10.5c0.8,3.7,1.8,7.3,2.7,11c0.6,2.6,1.3,5.3,1.8,8c0,0.2,0.8,1.8,0.7,2.3h45.9c0.2-0.4,0.3-2.4,1-4.2
		c0.9-2.5,1.4-5.1,2-7.7c0.8-3.4,1.3-6.8,2.1-10.2c0.8-3.4,1.7-6.9,2.6-10.3c0.7-2.9,1.4-5.8,2-8.7c0.8-3.6,1.3-7.2,2.2-10.7
		c0.8-3.2,1.8-6.3,2.7-9.5c0.6-2.4,1.2-4.8,1.6-7.2c0.7-3.4,1.3-6.8,2-10.2c0.8-3.4,1.7-6.7,2.5-10.1c0.7-3,1.5-5.9,2.2-8.9
		c1-4.2,2.1-8.3,3.1-12.5c0.6-2.4,1.1-4.8,1.6-7.2c1.2-5.9,2.3-11.8,3.7-17.7c1.4-6.1,3.1-12.1,4.8-18.2c0.2-0.6,0.9-1,1.4-1.5
		c0.4,0.7,1,1.3,1.1,2c1.1,4.2,2.1,8.5,3,12.7c0.7,3.1,1.3,6.2,2,9.2c0.9,3.7,1.9,7.4,2.8,11.1c0.8,3.2,1.4,6.4,2.1,9.7
		c0.7,3.1,1.3,6.1,2.1,9.1c0.9,3.8,1.9,7.5,2.9,11.3c0.9,3.4,1.9,6.9,2.7,10.3c0.6,2.4,1.2,4.8,1.7,7.2c0.7,3.3,1.3,6.6,2,9.9
		c0.5,2.2,1.1,4.5,1.7,6.7c0.8,3.2,1.7,6.4,2.6,9.6c0.8,3,1.5,5.9,2.2,8.9c1,4.2,2.1,8.3,3,12.5c0.8,3.4,1.3,6.8,2.1,10.2
		c0.7,3,1.6,6.1,2.4,9.1c0.2,0.7,0.5,1.4,0.6,2.1c0.2,0.9,0.7,2.8,0.8,3.3h46.9C399.8,220.5,399.9,220.1,400.2,219.6z"/>
	<path class="st0" d="M604,220.1c0-0.9-0.1-1.6,0-2.9c0.1-11.6,0-23.3,0-35.2c-1-0.1-2.1-0.2-3.1-0.2c-27.2,0-54.5,0-81.7,0
		c-1.3,0-2.7-0.5-4-0.8c0.5-1.1,0.9-2.4,1.6-3.4c4.8-7.9,9.5-15.7,14.4-23.6c3.6-5.9,7.3-11.7,11-17.5c4-6.5,8-13,12-19.5
		c3-4.8,6.1-9.6,9-14.4c3-4.8,5.8-9.7,8.7-14.6c3-4.9,6-9.8,9-14.7c3-5,6-10,9.1-15c2.9-4.7,5.8-9.4,8.6-14.1
		c2.8-4.7,5.7-9.4,8.5-14.2V0c-28.1,0-56.2,0-84.2,0c-18.2,0-36.3,0-54.5,0h-3.1c0.2,1.3,0.4,2.4,0.4,3.6c0,10.5,0,21,0,31.5
		c0,3.5,0,3.5,3.4,3.5c26.7,0,53.3,0,80,0c0.9,0,2.5,0.4,2.6,0.8c0.2,0.9-0.3,2-0.8,2.9c-3.5,5.9-7,11.7-10.6,17.5
		c-4.7,7.7-9.4,15.5-14,23.2c-5.2,8.7-10.3,17.4-15.6,26c-3.5,5.8-7.2,11.4-10.8,17.1c-3,4.8-5.8,9.7-8.7,14.6
		c-3.7,6-7.4,12-11,18.1c-3,4.9-5.8,9.9-8.7,14.9c-2.9,4.9-5.8,9.8-8.8,14.5c-2.5,4-4.8,7.8-4.3,13c0.5,5.1,0.1,10.3,0.1,15.5
		c0,1.9,0,3.9,0.1,4.2H604C604.1,221,604,220.1,604,220.1z"/>
	<path class="st0" d="M159.6,217.2c0-71.2,0-142.5,0-213.7c0-1.1,0.2-2.1,0.2-3.3h-44.7c0.2,1.1,0.5,2.1,0.5,3.1
		c0,26.9,0,53.8,0,80.7c0,3.3-0.3,3.6-3.5,3.6c-21.2,0-42.5,0-63.7,0c-3.2,0-3.4-0.2-3.4-3.4c0-26.9,0-53.8,0-80.7
		c0-1,0.2-2.1,0.3-3.3H0.1v3.3c0,71.3,0,142.7,0,214c0,1.2,0,2.3-0.1,3.5h45.2c-0.1-0.4-0.2-0.8-0.2-1.2c0-0.3,0-0.6,0.1-0.9
		c-0.1-0.4-0.2-0.9-0.2-1.6c0.1-15,0.1-30,0.1-45c0-14.7,0-29.5,0-44.2c0-4,0-4,3.8-4c21,0,42,0,63,0c3.6,0,3.8,0.2,3.8,3.8
		c0,29.7,0,59.5,0,89.2c0,1,0,3.3,0,3.9h44C159.7,220.5,159.6,218.4,159.6,217.2z"/>
</g>
</svg>
