<?xml version="1.0" encoding="utf-8"?>
<!-- Generator: Adobe Illustrator 23.0.1, SVG Export Plug-In . SVG Version: 6.00 Build 0)  -->
<svg version="1.1" id="Layer_1" xmlns="http://www.w3.org/2000/svg" xmlns:xlink="http://www.w3.org/1999/xlink" x="0px" y="0px"
	 viewBox="0 0 724.8 255" style="enable-background:new 0 0 724.8 255;" xml:space="preserve">
<style type="text/css">
	.st0{fill:#161616;}
</style>
<g>
	<path class="st0" d="M0,92.3c0.9-0.8,1.8-1.6,2.6-2.5c3.3-3.5,6.5-7,9.7-10.6c2.6-2.8,5.2-5.6,7.8-8.4c3.2-3.5,6.5-7,9.7-10.6
		c2.6-2.8,5.3-5.7,7.9-8.5c0.2-0.3,0.5-0.5,0.9-1.1c-12.2,0-24.1,0-36.1,0c0-7.2,0-14.2,0-21.3c23.3,0,46.5,0,69.8,0
		c0,0.4,0.1,0.8,0.1,1.1c0,5.5,0,11,0,16.6c0,0.8-0.3,1.3-0.8,1.9c-3.4,3.7-6.7,7.5-10.1,11.2c-3.3,3.7-6.6,7.3-9.9,11
		c-3.4,3.7-6.7,7.5-10.1,11.2c-2.4,2.7-4.8,5.4-7.3,8.1c-0.1,0.1-0.2,0.3-0.5,0.7c6.9,0,13.6,0,20.3,0c6.7,0,13.4,0,20.2,0
		c0,7.2,0,14.2,0,21.2c-0.5,0-0.9,0.1-1.3,0.1c-24,0-48,0-72,0c-0.3,0-0.6,0-0.9,0C0,105.7,0,99,0,92.3z"/>
	<path class="st0" d="M724.8,196.6c-4.3,0-8.6,0-12.9,0c-0.6,2.4,1.3,4.9,3.5,5.5c2.3,0.6,5.4,0.2,6.4-3.1c0.4,0,0.8-0.1,1.2-0.1
		c0.4,0,0.9,0,1.5,0c-0.1,1.5-0.7,2.7-1.6,3.6c-0.7,0.7-1.6,1.3-2.5,1.7c-2.2,0.9-4.4,0.8-6.6,0c-1.8-0.7-3.2-1.9-3.9-3.6
		c-1.5-3.7-1.7-7.3,0.6-10.8c1.7-2.5,5.1-4,8.7-3.1c2.8,0.7,5.1,3.5,5.4,6.7c0,0.4,0.2,0.7,0.3,1.1
		C724.8,195.3,724.8,196,724.8,196.6z M711.8,194c3.3,0,6.6,0,9.9,0c0-2.7-2.2-4.9-5-4.9C714,189.1,711.8,191.4,711.8,194z"/>
	<path class="st0" d="M476.7,255c-0.4-0.9-0.3-1.8-0.2-2.7c0.5,0.1,0.9,0.1,1.3,0.2c1.4,0.1,2.1-0.3,2.8-1.6c0,0,0-0.1,0.1-0.1
		c1.1-2.5,1.1-2.5,0.1-5.2c-1.8-4.5-3.6-9-5.4-13.5c-0.2-0.4-0.3-0.8-0.5-1.4c1.1,0,2.1,0,3.2,0c1.6,4.5,3.3,9.1,4.9,13.7
		c0.1,0,0.2,0,0.3,0c1.6-4.6,3.2-9.2,4.8-13.8c1,0,1.9,0,2.9,0c-0.1,0.3-0.1,0.7-0.2,0.9c-2.4,6.2-4.7,12.4-7.1,18.5
		c-0.1,0.4-0.3,0.7-0.4,1.1c-0.6,1.6-1.6,3-3.1,3.8C479,255,477.9,255,476.7,255z"/>
	<path class="st0" d="M409.6,77.3c0-6.6,0-13.3,0-20c2.2,0,4.3,0,6.5,0c0,18.4,0,36.7,0,55.1c-0.3,0-0.5,0.1-0.8,0.1
		c-1.8,0-3.7,0-5.7,0c0-1.7,0-3.3,0-4.9c-0.1,0-0.2,0-0.3-0.1c-0.4,0.5-0.8,1-1.2,1.5c-0.9,1.2-2,2-3.3,2.6
		c-7.2,2.9-14,2.6-20.1-2.4c-2.6-2.2-4.2-5.1-5.2-8.4c-2-6.5-1.9-13,0.9-19.2c2.5-5.7,6.9-9,13.2-9.9c3.9-0.5,7.6-0.1,11.1,1.7
		c1.8,1,3.4,2.2,4.6,4C409.4,77.3,409.5,77.3,409.6,77.3z M410,91.6c-0.2-1.3-0.5-3.6-1-5.7c-0.6-2.2-1.8-4.2-3.5-5.7
		c-2.4-2.1-5.2-2.9-8.4-2.9c-4.7,0-8.5,2.6-10.2,6.8c-1.9,4.7-2.2,9.6-0.8,14.5c0.6,2.1,1.6,4.1,3.2,5.6c2.4,2.4,5.3,3.4,8.7,3.3
		c4.6-0.1,7.9-2.2,10-6.2C409.4,98.6,409.8,95.6,410,91.6z"/>
	<path class="st0" d="M336,57.2c2.2,0,4.2,0,6.5,0c0,6.9,0,13.8,0,20.6c0.1,0,0.2,0.1,0.3,0.1c0.2-0.3,0.3-0.5,0.5-0.8
		c1.2-1.9,2.8-3.2,4.8-4.1c4.5-2,9.2-2.2,13.8-0.5c3.7,1.3,5.9,4.1,6.6,8c0.3,1.7,0.6,3.4,0.6,5.2c0.1,8.3,0,16.7,0,25
		c0,0.5,0,1,0,1.7c-2.2,0-4.2,0-6.5,0c0-0.6,0-1.1,0-1.7c0-8.2,0-16.5,0-24.7c0-1.1-0.1-2.1-0.4-3.2c-0.9-3.2-3-5-6.2-5.5
		c-2.3-0.3-4.6-0.1-6.8,0.9c-3.6,1.5-5.5,4.5-6.3,8.2c-0.2,1.2-0.3,2.4-0.3,3.6c0,6.9,0,13.7,0,20.6c0,0.5,0,1.1,0,1.6
		c-1.1,0.4-2.2,0.2-3.2,0.2c-1.1,0-2.1,0-3.3,0C336,94,336,75.7,336,57.2z"/>
	<path class="st0" d="M461.7,72.7c-5.1,4.7-10.3,9.5-15.5,14.3c5.6,8.4,11.2,16.8,16.9,25.4c-0.5,0-0.9,0.1-1.3,0.1
		c-1.9,0-3.9-0.1-5.8,0c-1,0-1.5-0.3-2-1.1c-4.1-6.3-8.2-12.5-12.3-18.8c-0.2-0.3-0.4-0.5-0.7-0.9c-1.3,1.2-2.5,2.3-3.8,3.4
		c-0.2,0.2-0.4,0.5-0.7,0.7c-1.4,0.9-1.8,2.1-1.7,3.8c0.1,3.8,0,7.5,0,11.3c0,0.5,0,0.9,0,1.5c-2.2,0-4.2,0-6.4,0
		c0-18.4,0-36.7,0-55.2c1,0,2.1,0,3.1,0c1,0,2,0,3.2,0c0.1,1.8,0.1,3.6,0.1,5.4c0,1.8,0,3.6,0,5.4c0,1.8,0,3.7,0,5.5
		c0,1.8,0,3.6,0,5.4c0,1.8,0,3.6,0,5.4c0,1.8,0,3.5,0,5.6c1.4-1.3,2.6-2.4,3.7-3.5c4.2-4,8.3-8.1,12.5-12.1c2-1.9,2-1.9,4.8-1.9
		c1.9,0,3.7,0,5.6,0C461.6,72.5,461.7,72.6,461.7,72.7z"/>
	<path class="st0" d="M379.8,180.4c0,8,0,15.9,0,24c-1,0-2,0-3.1,0c0-3.6,0-7.2,0-10.9c-4.3,0-8.4,0-12.8,0c-0.1,3.6,0,7.2-0.1,10.9
		c-1.1,0-2,0-3.1,0c0-8,0-16,0-24c0.5,0,1-0.1,1.5-0.1c0.5,0,1,0,1.6,0c0,3.5,0,6.8,0,10.4c4.3,0.2,8.5,0,12.8,0.1
		c0-3.5,0-6.9,0-10.4C377.8,180.4,378.7,180.4,379.8,180.4z"/>
	<path class="st0" d="M626.1,192.3c-1.3,1.2-2.6,2.3-3.8,3.5c-0.3,0.3-0.3,0.8-0.3,1.2c0,1.9,0,3.9,0,5.8c0,0.5,0,1,0,1.5
		c-1.1,0-2,0-3.1,0c0-8,0-16,0-24c1,0,2,0,3.1,0c0,3.9,0,7.7,0,11.8c0.5-0.3,0.8-0.5,1-0.7c1.7-1.7,3.4-3.4,5.1-5.1
		c1.9-1.8,3.8-3.6,5.6-5.5c0.4-0.4,0.8-0.6,1.4-0.6c1,0,2,0,3,0c0,0.1,0.1,0.2,0.1,0.3c-3.3,3.1-6.5,6.2-9.9,9.5
		c3.5,4.7,6.9,9.5,10.6,14.4c-1.4,0-2.6,0.1-3.7,0c-0.4,0-0.8-0.5-1-0.9c-2.4-3.3-4.8-6.7-7.2-10
		C626.7,193.2,626.5,192.9,626.1,192.3z"/>
	<path class="st0" d="M338.7,224c1.1,0,2.1,0,3.2,0c0,0.6,0,1.1,0,1.6c0,4.6,0.1,9.2,0,13.8c-0.1,5,3.6,6.9,7.6,6.5
		c3.5-0.3,5.3-2.5,5.3-6.1c0-4.7,0-9.5,0-14.2c0-0.5,0-1,0-1.6c1.2,0,2.2,0,3.4,0c0,0.6,0,1,0,1.5c0,4.2,0,8.4,0,12.6
		c0,1.2-0.1,2.5-0.3,3.7c-0.6,3.1-2.3,5.3-5.4,6.2c-2.7,0.9-5.4,0.8-8.1,0c-3.3-1-5.5-3.5-5.6-7C338.6,235.4,338.7,229.8,338.7,224z
		"/>
	<path class="st0" d="M612.2,224c1.2,0,2.4,0,3.7,0c3.1,7.9,6.2,15.9,9.4,24c-1.2,0-2.3,0-3.5,0c-0.9-2.3-1.8-4.7-2.7-7.2
		c-3.4,0-6.7,0-10.1,0c-0.9,2.4-1.8,4.8-2.8,7.2c-1,0-2,0-3.3,0C605.9,240,609.1,232,612.2,224z M618,238.1c-1.3-3.7-2.6-7.3-4-11.1
		c-1.1,2.1-3.9,10-3.9,11.1C612.7,238.1,615.2,238.1,618,238.1z"/>
	<path class="st0" d="M246.5,245.4c0,1,0,1.8,0,2.6c-6.4,0-12.7,0-19.1,0c-0.2-1.3-0.3-2.5,0.7-3.7c4.4-5.4,8.8-10.9,13.2-16.4
		c0.3-0.3,0.5-0.7,0.9-1.3c-1.7-0.1-3.1-0.1-4.6-0.1c-1.5,0-3,0-4.5,0c-1.5,0-3,0-4.6,0c0-0.9,0-1.7,0-2.6c5.9,0,11.7,0,17.5,0
		c0.2,1.5,0.1,2.8-1,4c-4.4,5.3-8.6,10.8-12.9,16.2c-0.2,0.3-0.4,0.6-0.8,1.1c1.8,0.2,3.5,0.1,5.1,0.1c1.6,0,3.3,0,4.9,0
		C243.1,245.4,244.7,245.4,246.5,245.4z"/>
	<path class="st0" d="M242.2,183c-2.6,0-4.8,0-7,0c-2.2,0-4.4,0-6.7,0c0-1,0-1.7,0-2.6c5.9,0,11.6,0,17.5,0c0.2,1.4,0.3,2.6-0.8,3.9
		c-4.4,5.3-8.6,10.7-12.9,16c-0.3,0.4-0.6,0.8-1.1,1.5c5.3,0,10.3,0,15.3,0c0,0.9,0,1.7,0,2.5c-1,0.3-16.1,0.5-19.1,0.2
		c-0.3-1.3-0.3-2.5,0.7-3.7c4.4-5.4,8.7-10.8,13.1-16.3C241.4,184.1,241.7,183.7,242.2,183z"/>
	<path class="st0" d="M569.4,189.1c0-3.1,0-5.9,0-8.7c1,0,1.8,0,2.8,0c0,8,0,15.9,0,24c-0.9,0-1.8,0-2.8,0c0-0.6-0.1-1.2-0.1-1.9
		c-1.4,1.6-3,2.2-4.9,2.4c-3.9,0.3-6.5-1.5-7.8-4.3c-1.4-3.2-1.4-6.5,0-9.7c2.2-5,9-5.5,12.1-2.3C568.9,188.7,569,188.8,569.4,189.1
		z M564.1,189.1c-2.1,0-3.7,0.9-4.6,2.9c-1,2.4-1.1,4.8-0.1,7.2c0.8,2,2.6,3.2,4.7,3.2c2.2,0,3.9-1.1,4.7-3.2c0.9-2.3,0.9-4.6,0-6.9
		C568,190.3,566.3,189.1,564.1,189.1z"/>
	<path class="st0" d="M539.9,199.1c0.9,0,1.7,0,2.7,0c-0.3,2.2-1.4,3.8-3.2,4.8c-2.6,1.4-5.3,1.4-7.9,0.3c-1.4-0.6-2.6-1.6-3.3-2.9
		c-1.9-3.7-2.1-7.5,0.2-11.2c1.7-2.7,4.3-3.8,7.5-3.5c3.4,0.3,5.5,2.4,6.5,5.5c0.5,1.5,0.6,3,0.4,4.4c-4.2,0-8.5,0-12.8,0
		c-0.3,2.7,1,4.8,3.3,5.6C536.2,203,538.3,202.1,539.9,199.1z M539.7,194c0.1-2.5-2.2-5.1-5.4-4.9c-2.5,0.2-4.5,2.4-4.3,4.9
		C533.2,194,536.4,194,539.7,194z"/>
	<path class="st0" d="M331.5,199.1c0.9,0,1.8,0,2.7,0c-0.5,2.6-1.9,4.4-4.3,5.3c-2.1,0.8-4.3,0.7-6.4,0c-1.5-0.5-2.9-1.5-3.7-2.9
		c-2-3.8-2.2-7.5,0-11.3c1.6-2.6,4.1-3.7,7-3.6c3.1,0.1,5.4,1.7,6.6,4.5c0.7,1.7,1,3.5,1,5.4c-4.3,0-8.6,0-12.8,0
		c-0.6,2.3,0.7,4.6,3,5.5C327.6,203.1,330.1,202.1,331.5,199.1z M331.4,194c0.1-2.6-2.3-4.9-5-4.9c-2.7,0.1-4.7,2.1-4.7,4.9
		C324.9,194,328.1,194,331.4,194z"/>
	<path class="st0" d="M592.7,196.6c-4.5,0-8.8,0-13,0c-0.3,3.2,1.9,5.1,3.9,5.6c2.7,0.6,4.6-0.3,6.1-3.2c0.3,0,0.6-0.1,1-0.1
		c0.5,0,1.1,0,1.7,0c-0.4,2.6-1.7,4.4-4.1,5.3c-2.5,1-5,0.9-7.4-0.3c-1.6-0.7-2.7-2-3.4-3.6c-1.1-2.6-1.3-5.3-0.5-8
		c1.9-6,8.9-7.4,12.7-4c1.8,1.6,2.6,3.8,2.9,6.1C592.6,195.1,592.6,195.7,592.7,196.6z M579.7,194c3.2,0,6.4,0,9.7,0
		c0.1-2.6-2-4.8-4.7-4.9C582.2,189,579.6,190.9,579.7,194z"/>
	<path class="st0" d="M423.8,240.1c-4.3,0-8.5,0-12.7,0c-0.5,2.4,1,4.8,3.4,5.5c2.5,0.8,5.5,0.1,6.4-3.1c0.4,0,0.9-0.1,1.4-0.1
		c0.4,0,0.9,0,1.4,0.1c-0.3,2.1-1.3,3.6-2.9,4.7c-2.5,1.7-8.2,1.8-10.7-1.3c-0.4-0.6-0.9-1.2-1.2-1.8c-1.4-3.3-1.6-6.6,0.1-9.8
		c1.6-3.1,4.6-4.4,7.6-4.2c3.4,0.2,5.6,2.2,6.7,5.3C423.8,236.9,424,238.4,423.8,240.1z M420.8,237.6c0-2.9-2.7-5-5.2-4.9
		c-2.6,0.1-4.5,2-4.7,4.9C414.2,237.6,417.4,237.6,420.8,237.6z"/>
	<path class="st0" d="M578.4,240.2c-0.3,3.3,2,5.3,4.2,5.7c2.1,0.4,4.8-0.2,5.7-3.3c0.9,0,1.8,0,2.8,0c-0.5,2.5-1.8,4.3-4.1,5.3
		c-1.9,0.8-3.9,0.7-5.8,0.3c-2.5-0.6-4.3-2.2-5.2-4.6c-1.1-3.2-1.2-6.3,0.5-9.4c1.6-2.8,4.1-4.1,7.2-4c3.2,0,5.5,1.7,6.8,4.6
		c0.7,1.7,1,3.4,0.9,5.4C587.1,240.2,582.7,240.2,578.4,240.2z M588.2,237.6c0.2-3-2.8-5.1-5.2-4.9c-2.6,0.2-4.7,2.4-4.4,4.9
		C581.7,237.6,584.9,237.6,588.2,237.6z"/>
	<path class="st0" d="M311.5,248c-1,0-1.9,0-2.8,0c0-8,0-16,0-24c0.3,0,0.5-0.1,0.7-0.1c0.6,0,1.2,0,2,0c0,3,0,5.8,0,8.9
		c0.6-0.5,0.9-0.9,1.3-1.2c2.1-1.7,5.7-2,8.1-0.6c1.3,0.8,1.9,2,2.2,3.4c0.1,0.5,0.1,1,0.1,1.4c0,3.7,0,7.4,0,11.2c0,0.3,0,0.6,0,1
		c-0.9,0-1.8,0-2.9,0c0-0.6,0-1.1,0-1.6c0-3.3,0-6.7,0-10c0-2.5-1.2-3.7-3.8-3.7c-2.5,0-4.3,1.5-4.7,4c-0.1,0.8-0.2,1.5-0.2,2.3
		C311.4,242,311.5,244.9,311.5,248z"/>
	<path class="st0" d="M314.4,204.5c-0.6,0-1.1,0-1.6,0c-0.4,0-0.8,0-1.2-0.1c0-0.5-0.1-1-0.1-1.5c0-3.3,0-6.6,0-9.9
		c0-0.4,0-0.9-0.1-1.3c-0.3-1.5-1.5-2.5-3-2.7c-3.1-0.3-5.6,1.9-5.6,5c0,2.9,0,5.7,0,8.6c0,0.5,0,1.1,0,1.7c-1,0-1.9,0-2.8,0
		c0-8,0-16,0-24c0.9,0,1.8,0,2.7,0c0,2.8,0,5.7,0,8.8c0.4-0.4,0.7-0.6,0.9-0.8c2-2.1,6.2-2.4,8.6-0.8c1.4,0.9,1.9,2.4,2.1,4
		c0.1,1,0.1,1.9,0.1,2.9C314.4,197.7,314.4,201,314.4,204.5z"/>
	<path class="st0" d="M424.5,180.4c0.9,0,1.7,0,2.7,0c0,2.9,0,5.8,0,8.7c1.4-1.6,3.2-2.4,5.1-2.5c3.6-0.1,6.3,1.2,6.5,5.3
		c0.1,4,0,7.9,0,11.9c0,0.2,0,0.4-0.1,0.7c-0.9,0-1.7,0-2.7,0c0-0.5,0-1,0-1.5c0-3.2,0-6.4,0-9.6c0-3.7-2.7-5.4-6.1-3.7
		c-1.6,0.8-2.4,2.2-2.6,3.9c-0.1,1.1-0.1,2.2-0.1,3.3c0,2.4,0,4.7,0,7.1c0,0.1-0.1,0.2-0.1,0.4c-0.8,0-1.6,0-2.6,0
		C424.5,196.4,424.5,188.5,424.5,180.4z"/>
	<path class="st0" d="M480.5,180.4c0.9,0,1.8,0,2.8,0c0,2.9,0,5.7,0,8.8c0.6-0.6,1-1,1.5-1.4c2.3-1.5,4.7-1.7,7.2-0.7
		c2.1,0.9,2.9,2.7,2.9,4.8c0.1,4.1,0,8.1,0,12.2c0,0.1-0.1,0.2-0.2,0.3c-0.8,0-1.7,0-2.6,0c0-0.5-0.1-1-0.1-1.4
		c0-3.4-0.1-6.8,0-10.2c0.1-2.1-1.4-3.8-3.8-3.7c-2.6,0.1-4.4,1.6-4.8,4.1c-0.1,0.6-0.1,1.2-0.1,1.7c0,2.7,0,5.3,0,8
		c0,0.5,0,0.9-0.1,1.5c-0.9,0-1.8,0-2.7,0C480.5,196.5,480.5,188.5,480.5,180.4z"/>
	<path class="st0" d="M512,248.4c-4.3,0.4-8.2-2.7-8.5-8.4c-0.1-2.9,0.4-5.6,2.7-7.7c1.9-1.8,4.3-2.4,6.8-2.1c4.9,0.5,7.2,4,7.5,8.3
		c0.1,1.3-0.1,2.7-0.4,4C519.1,246.2,515.7,248.7,512,248.4z M517.6,239.6c-0.2-1.2-0.3-2.1-0.6-3.1c-0.7-2.2-2.6-3.7-4.8-3.8
		c-2.4-0.1-4.2,1.2-5.1,3.5c-0.8,2.1-0.8,4.1,0,6.2c0.8,2.2,2.4,3.3,4.7,3.5c2,0.2,4.1-1.1,4.9-3.1
		C517.2,241.8,517.3,240.6,517.6,239.6z"/>
	<path class="st0" d="M384.6,195.5c-0.1-1.6,0.2-3.3,1.1-5c1.3-2.3,3.2-3.5,5.8-3.9c1.3-0.2,2.6-0.1,3.9,0.2
		c2.6,0.6,4.5,2.3,5.4,4.8c1,2.7,1,5.5,0,8.2c-0.9,2.5-2.7,4.1-5.3,4.7c-2.3,0.6-4.5,0.5-6.6-0.6c-2.8-1.4-4-3.9-4.3-6.9
		C384.5,196.6,384.6,196.2,384.6,195.5z M387.4,195.7c0.3,1.2,0.4,2.4,0.9,3.5c0.8,2,2.5,3.1,4.6,3.1c2.2,0,3.9-1,4.8-3.1
		c1.1-2.5,1.1-5.1-0.2-7.5c-1.6-3-5.7-3.6-8.1-1.1C387.9,192.1,387.6,193.8,387.4,195.7z"/>
	<path class="st0" d="M559.5,248c-0.5,0-0.8,0.1-1.2,0.1c-0.4,0-0.8,0-1.3-0.1c0-8,0-16,0-24c0.8,0,1.6,0,2.6,0c0,2.9,0,5.7,0,8.9
		c0.6-0.6,1-1,1.4-1.4c2.1-1.6,5.7-1.9,7.9-0.5c1.6,0.9,2.3,2.4,2.3,4.1c0.1,4.2,0,8.5,0,12.9c-0.9,0-1.8,0-2.9,0c0-0.6,0-1.1,0-1.6
		c0-3.4,0-6.8,0-10.2c0-2.4-1.2-3.5-3.6-3.5c-2.6,0-4.4,1.4-4.9,4c-0.2,0.8-0.2,1.7-0.2,2.6c0,2.4,0,4.8,0,7.3
		C559.5,247,559.5,247.5,559.5,248z"/>
	<path class="st0" d="M456.9,192c-0.9,0-1.8,0-2.7,0c-1.2-2.5-3.5-3.5-6.2-2.6c-1,0.3-1.8,1.1-1.7,1.9c0,1,0.6,1.6,1.5,1.9
		c1.1,0.4,2.3,0.7,3.5,1c1,0.3,2.1,0.5,3.1,0.9c2,0.6,3.3,1.9,3.4,4c0.1,2-0.6,3.8-2.5,4.7c-3.2,1.6-6.4,1.6-9.6,0
		c-1.8-0.9-2.6-2.6-2.7-4.7c0.9,0,1.7,0,2.6,0c0,0,0.2,0.1,0.2,0.3c0.4,1.9,1.8,2.6,3.5,2.9c1.3,0.2,2.5,0.1,3.7-0.3
		c1-0.3,1.7-1,1.7-2.1c0.1-1.1-0.6-1.9-1.5-2.2c-1.2-0.4-2.5-0.7-3.8-1.1c-1.1-0.3-2.3-0.6-3.3-1c-1.8-0.7-2.8-2-2.8-4.1
		c0-2.1,1.1-3.4,2.8-4.2c2.6-1.1,5.3-1.1,7.9,0C455.8,188,456.6,189.4,456.9,192z"/>
	<path class="st0" d="M682.3,199.1c0.7,3.1,3.5,3.5,6,3.2c0.9-0.1,1.8-0.3,2.5-1c0.9-1,0.9-2.5-0.2-3.2c-0.9-0.6-1.9-0.9-2.9-1.2
		c-1.2-0.4-2.4-0.6-3.7-0.9c-0.7-0.2-1.3-0.5-2-0.9c-2.5-1.2-2.5-5-1-6.4c0.7-0.7,1.6-1.3,2.5-1.7c2.1-0.8,4.4-0.7,6.5-0.1
		c2.4,0.7,3.4,2.2,3.6,4.9c-0.9,0-1.7,0-2.7,0c-0.4-1-1-2-2.1-2.5c-1.3-0.5-2.6-0.5-4-0.1c-0.4,0.1-0.7,0.3-1,0.5
		c-1,0.8-1,2.1,0,2.8c0.6,0.4,1.3,0.8,2.1,1c1.2,0.4,2.4,0.6,3.7,0.9c0.9,0.2,1.7,0.6,2.6,0.9c3.3,1.4,2.8,6.3,0.6,7.8
		c-0.6,0.4-1.3,0.9-2,1.1c-2.3,0.7-4.6,0.8-7,0c-2.4-0.8-4-2.6-4-5.3C680.5,199.1,681.3,199.1,682.3,199.1z"/>
	<path class="st0" d="M664,235.5c-1,0-1.8,0-2.6,0c-1.1-2.7-4.4-3.7-6.9-2.3c-1.2,0.7-1.4,2.3-0.2,3.1c0.9,0.6,1.9,0.9,2.9,1.2
		c1.1,0.3,2.2,0.5,3.2,0.8c0.5,0.1,1,0.3,1.5,0.5c1.6,0.7,2.8,1.7,2.9,3.6c0.2,2.2-0.7,3.9-2.6,5c-0.6,0.4-1.3,0.6-2,0.7
		c-2.7,0.4-5.5,0.6-8-1c-1.5-1-2.2-2.5-2.3-4.4c0.9,0,1.8,0,2.7,0c0.1,0.2,0.2,0.5,0.3,0.8c0.3,1,1,1.6,2,2c1.7,0.6,3.4,0.6,5.1,0
		c0.9-0.3,1.6-0.9,1.6-2c0.1-1-0.3-1.9-1.3-2.2c-1.3-0.5-2.6-0.8-3.9-1.2c-1.3-0.4-2.6-0.7-3.8-1.2c-3.2-1.4-3-6-0.4-7.6
		c1.7-1,3.5-1.3,5.4-1.2c0.8,0,1.5,0.2,2.3,0.4C662.7,231.2,663.9,232.7,664,235.5z"/>
	<path class="st0" d="M438.4,242.7c0.9,0,1.8,0,2.7,0c0,0,0.1,0.1,0.1,0.2c0.5,1.9,1.7,2.7,3.6,3c1.2,0.2,2.4,0.1,3.6-0.3
		c1-0.3,1.7-0.9,1.8-2c0.1-1.1-0.5-1.9-1.4-2.3c-1.2-0.4-2.4-0.7-3.6-1.1c-1.3-0.4-2.6-0.7-3.9-1.2c-3.3-1.3-3.3-6-0.5-7.7
		c1.5-0.9,3-1.2,4.7-1.2c1,0,1.9,0.2,2.9,0.4c2.2,0.5,3.9,2,4.1,5c-0.9,0-1.8,0-2.7,0c-1.3-2.6-3.7-3.5-6.5-2.4
		c-0.8,0.3-1.4,0.9-1.4,1.8c-0.1,0.9,0.4,1.5,1.2,1.8c1.2,0.5,2.5,0.8,3.7,1.2c1.1,0.3,2.3,0.5,3.3,0.9c1.9,0.7,3.1,2,3.1,4.1
		c0,2.1-0.8,3.8-2.8,4.7c-2.9,1.3-5.8,1.3-8.7,0.2C439.6,246.9,438.6,245.1,438.4,242.7z"/>
	<path class="st0" d="M641.6,187.1c1,0,1.9,0,2.8,0c0,0.5,0.1,1,0.1,1.5c0,3.3,0.1,6.7,0,10c-0.1,2.8,2.2,4.3,4.7,3.7
		c2.6-0.6,4-2.4,4-5.4c0-2.8,0-5.5,0-8.3c0-0.5,0-1,0-1.5c1,0,1.9,0,2.8,0c0,5.8,0,11.5,0,17.3c-0.3,0-0.5,0.1-0.8,0.1
		c-0.6,0-1.2,0-1.9,0c-0.1-0.8-0.1-1.5-0.2-2.2c-0.1,0.1-0.3,0.1-0.4,0.2c-1.3,1.8-3.1,2.4-5.1,2.5c-3.7,0.2-6.1-2-6.1-5.7
		c-0.1-3,0-6.1,0-9.1C641.6,189.2,641.6,188.2,641.6,187.1z"/>
	<path class="st0" d="M250.1,187.1c1,0,1.8,0,2.8,0c0,0.6,0.1,1,0.1,1.5c0,3.2,0,6.4,0,9.6c0,2.4,0.6,3.5,2.3,4
		c1.9,0.6,4.3-0.1,5.4-1.8c0.7-1,1-2.2,1-3.4c0-2.8,0-5.6,0-8.4c0-0.5,0-0.9,0-1.5c1,0,1.8,0,2.7,0c0.3,1,0.4,14.4,0.1,17.3
		c-0.8,0-1.7,0-2.6,0c-0.1-0.6-0.1-1.3-0.2-2.2c-0.5,0.5-0.9,1-1.3,1.3c-2.1,1.7-5.9,1.8-8,0.5c-1-0.7-1.7-1.6-1.9-2.8
		c-0.2-0.8-0.3-1.6-0.3-2.4c0-3.7,0-7.4,0-11C250.1,187.6,250.1,187.4,250.1,187.1z"/>
	<path class="st0" d="M250.1,230.6c1,0,1.9,0,2.8,0c0,0.5,0.1,1,0.1,1.5c0,3.2,0,6.5,0,9.7c0,1.6,0.3,3,1.9,3.8
		c1.5,0.7,3.9,0.4,5.2-0.8c1.2-1.1,1.7-2.6,1.7-4.2c0-2.8,0-5.6,0-8.4c0-0.5,0-1,0-1.5c1,0,1.8,0,2.7,0c0.3,1,0.4,15.8,0.1,17.4
		c-0.8,0-1.6,0-2.5,0c-0.1-0.7-0.1-1.4-0.2-2.2c-0.3,0.3-0.5,0.5-0.7,0.7c-1.1,1.1-2.5,1.9-4.1,1.9c-0.7,0-1.5,0-2.2,0
		c-2.2-0.2-3.8-1.6-4.3-3.7c-0.1-0.6-0.3-1.2-0.3-1.9c0-3.4,0-6.9,0-10.3C250.1,232,250.1,231.4,250.1,230.6z"/>
	<path class="st0" d="M675.4,204.4c-0.8,0-1.7,0-2.6,0c0-0.5-0.1-1-0.1-1.4c0-3.2,0-6.5,0-9.7c0-2.5-0.6-3.5-2.5-4
		c-1.9-0.6-4.3,0.3-5.3,2c-0.7,1.1-0.9,2.3-0.9,3.6c0,2.7,0,5.3,0,8c0,0.5,0,1,0,1.6c-1,0-1.8,0-2.8,0c0-5.7,0-11.5,0-17.3
		c0.8,0,1.6,0,2.5,0c0,0.7,0.1,1.4,0.1,2.4c0.4-0.4,0.6-0.6,0.8-0.8c1.9-2.4,6.1-2.7,8.5-1.3c1.7,1,2.4,2.7,2.4,4.5
		c0.1,4.1,0,8.1,0,12.2C675.6,204.2,675.5,204.3,675.4,204.4z"/>
	<path class="st0" d="M363.5,230.6c0.8,0,1.6,0,2.5,0c0,0.7,0.1,1.4,0.1,2.3c0.3-0.2,0.5-0.4,0.7-0.6c1.9-2.5,6.4-2.9,9-1.2
		c1.4,1,2,2.4,2,4c0.1,4.2,0,8.5,0,12.9c-0.9,0-1.8,0-2.8,0c0-0.5-0.1-1-0.1-1.5c0-3.3-0.1-6.7,0-10c0-2.3-1.3-3.9-3.9-3.8
		c-2.5,0.1-4.3,1.6-4.7,4.1c-0.1,0.6-0.1,1.3-0.1,1.9c0,2.6,0,5.2,0,7.8c0,0.5,0,0.9,0,1.5c-1,0-1.8,0-2.8,0
		C363.5,242.3,363.5,236.5,363.5,230.6z"/>
	<path class="st0" d="M500.3,187c0.5,0,1.1,0,1.7,0c0.2,0,0.5,0.1,0.8,0.1c0,0.5,0,1,0,1.5c0,3,0,6.1,0,9.1c0,0.4,0,0.8,0,1.2
		c0.1,3,2.3,3.7,4.3,3.5c2.4-0.3,3.9-1.7,4.3-4.1c0.1-0.7,0.2-1.4,0.2-2.2c0-2.5,0-5,0-7.5c0-0.5,0-0.9,0-1.5c1,0,1.8,0,2.7,0
		c0,5.8,0,11.5,0,17.4c-0.8,0-1.6,0-2.4,0c0-0.8-0.1-1.5-0.1-2.3c-0.2,0.1-0.3,0.1-0.4,0.2c-1.7,2.6-5.3,3-7.9,2.2
		c-2.3-0.7-3.3-2.5-3.4-4.8c-0.1-4.2,0-8.3,0-12.5C500,187.3,500.1,187.2,500.3,187z"/>
	<path class="st0" d="M420.3,192.5c-0.9,0-1.8,0-2.7,0c-0.1-0.1-0.2-0.3-0.2-0.4c-0.7-2-2.1-3-4.3-3c-2.2,0-3.9,0.9-4.7,3
		c-1,2.5-1.1,5,0,7.4c1,2,2.7,3,4.9,2.8c2.1-0.2,3.4-1.3,4.1-3.5c0.1-0.2,0.1-0.4,0.2-0.7c0.9,0,1.8,0,2.9,0
		c-0.3,2.5-1.3,4.5-3.6,5.7c-4.2,2.2-11,1-12.1-5.6c-0.5-3-0.3-5.9,1.4-8.5c1-1.5,2.4-2.5,4.1-3c2-0.6,4-0.4,6,0.3
		C418.8,188,420.3,190.1,420.3,192.5z"/>
	<path class="st0" d="M293,198.2c1,0,1.9,0,2.7,0c0.1,2.6-1.9,5.8-5.4,6.5c-1.5,0.3-3.1,0.3-4.6-0.1c-2.3-0.5-3.9-1.9-4.8-4
		c-1.5-3.4-1.3-6.8,0.3-10.1c1.6-3.1,4.7-4.2,7.7-4c1.7,0.1,3.3,0.5,4.7,1.7c1.3,1.1,2,2.4,2.1,4.2c-0.9,0-1.8,0-2.9,0
		c-0.1-0.2-0.2-0.5-0.4-0.8c-1.3-2.8-5-3.6-7.3-1.5c-0.7,0.6-1.3,1.5-1.6,2.3c-0.8,2.1-0.8,4.3,0,6.5c0.9,2.7,3.5,3.9,6.2,3.1
		c1.5-0.4,2.4-1.5,3-2.9C292.8,198.9,292.9,198.6,293,198.2z"/>
	<path class="st0" d="M476.3,192.6c-1,0-1.9,0-2.8,0c-0.1-0.2-0.2-0.4-0.3-0.6c-0.6-1.7-1.9-2.7-3.7-2.8c-2-0.1-3.7,0.4-4.7,2.2
		c-1.6,2.8-1.7,5.7-0.2,8.6c0.9,1.9,2.6,2.7,4.7,2.5c2-0.2,3.4-1.3,4.1-3.2c0.1-0.3,0.2-0.6,0.3-1c0.9,0,1.8,0,2.6,0
		c0.4,1.9-1.6,5.1-3.7,6c-2.7,1.1-5.4,1.1-8.1-0.3c-2.2-1.2-3.3-3.2-3.7-5.6c-0.4-2.2-0.3-4.4,0.5-6.6c1.2-3.3,4.3-5.6,8.6-5.1
		c1.4,0.2,2.7,0.4,3.9,1.3C475.3,189,476.2,190.5,476.3,192.6z"/>
	<path class="st0" d="M304.6,236.1c-1,0-2,0-2.8,0c-0.1-0.1-0.2-0.1-0.2-0.2c-1.1-2.6-2.2-3.4-4.8-3.3c-2.2,0.1-3.9,1.4-4.5,3.6
		c-0.6,2-0.6,4.1,0,6.1c0.7,2.1,2.5,3.5,4.7,3.5c2.2,0,4.2-1.4,4.6-3.5c0-0.2,0.2-0.4,0.3-0.7c0.9,0,1.8,0,2.7,0
		c-0.1,3.6-3,6.6-6.8,6.6c-1.6,0-3.2,0-4.7-0.7c-1.9-1-3.1-2.4-3.7-4.4c-0.8-2.6-0.8-5.2,0.1-7.8c1.4-4.1,5.1-5.7,8.6-5.2
		c0.6,0.1,1.2,0.2,1.8,0.3C302.7,231.3,304.3,233.1,304.6,236.1z"/>
	<path class="st0" d="M389.4,230.6c1.1,0,2.1,0,3.2,0c1.6,4.7,3.2,9.4,4.8,14.1c0.1,0,0.2,0,0.3,0c1.5-4.7,3.1-9.4,4.7-14.2
		c1,0,1.9,0,3,0c-2.1,5.8-4.2,11.6-6.3,17.4c-1,0-2,0-3.2,0C393.8,242.3,391.6,236.5,389.4,230.6z"/>
	<path class="st0" d="M525.8,233.1c-1.1,0-1.9-0.1-2.9-0.1c0-0.8,0-1.5,0-2.3c0.9,0,1.7-0.1,2.8-0.1c0-0.6,0-1.2,0.1-1.8
		c0.1-0.8,0.1-1.5,0.2-2.3c0.2-1.2,1-2,2.1-2.4c1.3-0.5,2.7-0.5,4.2-0.2c0,0.8,0,1.5,0,2.4c-0.5,0-1.1,0-1.6,0c-1.5,0-2,0.5-2.1,2
		c0,0.7,0,1.4,0,2.3c1.1,0,2.1,0,3.2,0c0,0.8,0,1.5,0,2.4c-0.9,0-1.9,0-3,0c-0.3,1.8-0.1,3.4-0.1,5c0,1.7,0,3.4,0,5.1
		c0,1.6,0,3.3,0,5c-1,0-1.8,0-2.8,0C525.8,243.1,525.8,238.2,525.8,233.1z"/>
	<path class="st0" d="M696.4,189.6c0-1,0-1.7,0-2.6c1,0,1.9,0,3,0c0-1.8,0-3.4,0-5.2c1,0,1.9,0,2.9,0c0,1.7,0,3.3,0,5.1
		c1.2,0,2.3,0,3.4,0c0,0.9,0,1.6,0,2.6c-1.1,0-2.2,0.1-3.3,0.1c0,0.4-0.1,0.6-0.1,0.9c0,3.2,0,6.5,0,9.7c0,1.4,0.2,1.6,1.6,1.6
		c0.5,0,1.1,0,1.8,0c0,0.9,0.1,1.7,0.1,2.7c-1.6-0.1-2.9,0-4.3-0.3c-1.5-0.2-2.1-1.2-2.1-2.9c0-3.2,0-6.4,0-9.6c0-0.7,0-1.4,0-2.3
		C698.4,189.6,697.5,189.6,696.4,189.6z"/>
	<path class="st0" d="M472.8,245.7c0,0.8,0,1.5,0,2.3c-1.5,0.2-2.9,0.2-4.3-0.1c-1.1-0.2-1.7-0.9-1.9-2c-0.1-0.6-0.1-1.2-0.1-1.9
		c0-3.1,0-6.3,0-9.4c0-0.5,0-0.9-0.1-1.5c-0.9,0-1.8,0-2.7,0c0-0.8,0-1.5,0-2.4c0.8-0.1,1.7-0.1,2.8-0.2c0-1.7,0-3.3,0-5
		c1,0,1.9,0,2.9,0c0,1.7,0,3.3,0,5.1c1.2,0,2.3,0,3.4,0c0,0.9,0,1.5,0,2.3c-1.1,0.1-2.1,0.1-3.3,0.2c0,0.4-0.1,0.7-0.1,1
		c0,3.2,0,6.4,0,9.6c0,1.6,0.2,1.8,1.7,1.8c0.4,0,0.9,0,1.3,0C472.5,245.5,472.6,245.6,472.8,245.7z"/>
	<path class="st0" d="M546.4,225.4c1.1,0,1.9,0,3,0c0,0.9,0,1.7,0,2.5c0,0.8,0,1.6,0,2.6c1.2,0,2.3,0,3.4,0c0,0.9,0,1.6,0,2.4
		c-1.1,0-2.1,0-3.2,0c-0.1,0.4-0.2,0.8-0.2,1.1c0,3.2,0,6.5,0,9.7c0,1.4,0.3,1.7,1.7,1.7c0.5,0,1,0,1.7,0c0,0.9,0,1.6,0,2.5
		c-1.5,0.2-3.1,0.2-4.6-0.3c-0.7-0.2-1.2-0.8-1.4-1.5c-0.2-0.7-0.3-1.3-0.3-2c0-3.2,0-6.4,0-9.6c0-0.5,0-1,0-1.5
		c-1-0.1-1.9-0.1-2.8-0.2c0-0.7,0-1.4,0-2.3c0.9,0,1.8-0.1,2.8-0.1C546.4,228.8,546.4,227.2,546.4,225.4z"/>
	<path class="st0" d="M647.2,245.5c0,0.9,0,1.7,0,2.5c-1.4,0.2-2.8,0.2-4.2-0.1c-1.1-0.2-1.8-0.9-1.9-2.1c-0.1-0.7-0.2-1.4-0.2-2.2
		c0-3,0-6,0-9c0-0.5,0-1,0-1.6c-1-0.1-1.9-0.1-2.8-0.2c0-0.8,0-1.5,0-2.3c0.9,0,1.8,0,2.8,0c0-1.8,0-3.4,0-5.1c1,0,1.9,0,2.9,0
		c0,1.6,0,3.3,0,5.1c1.2,0,2.3,0,3.4,0c0,0.9,0,1.6,0,2.5c-1.1,0-2.1,0-3.3,0c-0.1,0.5-0.1,0.9-0.1,1.3c0,3.1,0,6.2,0,9.3
		c0,1.7,0.2,1.9,1.9,2C646.1,245.5,646.6,245.5,647.2,245.5z"/>
	<path class="st0" d="M261.1,0c0,0.9,0,1.6,0,2.4c-1,0.3-30.7,0.4-32.8,0.1c0-0.8,0-1.6,0-2.5C239.3,0,250.1,0,261.1,0z"/>
	<path class="st0" d="M261.1,150.2c0,0.9,0,1.6,0,2.4c-1,0.3-30.8,0.4-32.8,0.1c0-0.8,0-1.6,0-2.5
		C239.3,150.2,250.1,150.2,261.1,150.2z"/>
	<path class="st0" d="M599,204.5c-0.9,0-1.8,0-2.7,0c0-5.8,0-11.5,0-17.3c0.9,0,1.7,0,2.7,0c0,1,0,1.9,0,3c1-1,1.8-1.9,2.8-2.6
		c1-0.7,2.3-0.9,3.6-0.8c0,1,0,1.9,0,2.9c-0.7,0.1-1.4,0.3-2,0.4c-2,0.4-3.3,1.6-3.8,3.6c-0.3,1-0.4,2.1-0.5,3.1
		c-0.1,2.1,0,4.3,0,6.4C599,203.4,599,203.9,599,204.5z"/>
	<path class="st0" d="M347.3,186.6c0,1.1,0,2,0,2.9c-0.5,0.1-1,0.1-1.5,0.2c-2.5,0.4-4,1.8-4.5,4.3c-0.2,0.9-0.3,1.9-0.3,2.9
		c0,2.1,0,4.3,0,6.4c0,0.4-0.1,0.7-0.1,1.2c-0.9,0-1.8,0-2.7,0c0-5.8,0-11.5,0-17.4c0.4,0,0.8-0.1,1.2-0.1c0.4,0,0.8,0,1.3,0
		c0,1.1,0,2.1,0,3.1c0.1,0.1,0.2,0.1,0.3,0.2C342.4,187.9,344.4,186.5,347.3,186.6z"/>
	<path class="st0" d="M636.9,230.1c0,1.1,0,2,0,2.9c-0.4,0.1-0.7,0.1-1,0.2c-3.4,0.4-4.9,2.4-5.2,5.6c-0.2,2.5-0.1,5-0.1,7.5
		c0,0.5,0,1,0,1.6c-1,0-1.8,0-2.8,0c0-5.8,0-11.5,0-17.3c0.4,0,0.8-0.1,1.2-0.1c0.4,0,0.8,0,1.3,0c0,1.1,0,2.1,0,3.2
		c1-1,1.9-2,2.9-2.8C634.3,230.3,635.5,230.1,636.9,230.1z"/>
	<path class="st0" d="M519.7,180.4c1,0,1.8,0,2.7,0c0,8,0,16,0,24c-0.9,0-1.8,0-2.7,0C519.7,196.4,519.7,188.5,519.7,180.4z"/>
	<path class="st0" d="M269.6,230.6c0.9,0,1.6,0,2.6,0c0,1,0,1.9,0,3.1c3.3-3.3,3.6-3.5,6.3-3.6c0,0.9,0,1.9,0,2.9
		c-0.3,0.1-0.7,0.1-1,0.2c-3,0.5-4.5,2-4.9,5c-0.1,1-0.1,2-0.1,3c0,1.8,0,3.6,0,5.4c0,0.4-0.1,0.8-0.1,1.3c-0.9,0-1.8,0-2.7,0
		C269.6,242.3,269.6,236.5,269.6,230.6z"/>
	<path class="st0" d="M430.5,248c-1,0-1.9,0-2.8,0c0-5.8,0-11.6,0-17.4c0.8,0,1.6,0,2.4,0c0,1,0,2,0,3.2c1-1,1.8-2,2.8-2.8
		c1-0.8,2.3-0.9,3.7-1c0,1.1,0,2,0,3c-0.3,0.1-0.6,0.1-0.9,0.2c-3.3,0.4-5.1,2.3-5.2,6c-0.1,2,0,4,0,6
		C430.5,246.1,430.5,247,430.5,248z"/>
	<path class="st0" d="M269.6,187.1c0.9,0,1.6,0,2.6,0c0,1,0,1.9,0,2.9c0.1,0.1,0.2,0.1,0.3,0.2c1.3-2.3,3.2-3.6,6-3.5
		c0,0.9,0,1.9,0,2.9c-0.3,0.1-0.6,0.2-0.9,0.2c-3,0.3-4.6,1.9-5.1,5c-0.1,0.7-0.1,1.4-0.1,2.2c0,2,0,4.1,0,6.1c0,0.5,0,0.9-0.1,1.5
		c-0.9,0-1.8,0-2.7,0C269.6,198.7,269.6,193,269.6,187.1z"/>
	<path class="st0" d="M281.8,230.7c0.9,0,1.8,0,2.7,0c0,5.8,0,11.5,0,17.4c-0.9,0-1.8,0-2.7,0C281.8,242.3,281.8,236.5,281.8,230.7z
		"/>
	<path class="st0" d="M385.9,248c-0.9,0-1.8,0-2.6,0c-0.3-1-0.4-15.6-0.1-17.4c0.8,0,1.7,0,2.6,0C385.9,236.4,385.9,242.1,385.9,248
		z"/>
	<path class="st0" d="M457.4,230.6c1,0,1.8,0,2.6,0c0.3,1.1,0.3,15.8,0.1,17.4c-0.8,0-1.7,0-2.6,0
		C457.4,242.2,457.4,236.5,457.4,230.6z"/>
	<path class="st0" d="M259,180.7c0.9,0,1.8,0,2.9,0c0,1.1,0,2.2,0,3.3c-1,0-1.9,0-2.9,0C259,182.9,259,181.8,259,180.7z"/>
	<path class="st0" d="M647.1,184c-1,0-1.9,0-2.9,0c0-1.1,0-2.2,0-3.3c1,0,1.9,0,2.9,0C647.1,181.7,647.1,182.8,647.1,184z"/>
	<path class="st0" d="M653.4,184c-0.9,0-1.8,0-2.9,0c0-1.1,0-2.2,0-3.3c0.9,0,1.8,0,2.9,0C653.4,181.8,653.4,182.8,653.4,184z"/>
	<path class="st0" d="M460.1,224c0,1.1,0,2.1,0,3.3c-0.9,0-1.7,0-2.7,0c0-1,0-2.1,0-3.3C458.3,224,459.1,224,460.1,224z"/>
	<path class="st0" d="M252.8,184c0-1.1,0-2.2,0-3.3c0.9,0,1.8,0,2.8,0c0,1.1,0,2.2,0,3.3C254.7,184,253.8,184,252.8,184z"/>
	<path class="st0" d="M284.6,227.3c-1,0-1.8,0-2.7,0c0-1.1,0-2.2,0-3.3c0.9,0,1.8,0,2.7,0C284.6,225.1,284.6,226.1,284.6,227.3z"/>
	<path class="st0" d="M385.9,224c0,1.2,0,2.2,0,3.3c-0.9,0-1.8,0-2.7,0c0-1.1,0-2.2,0-3.3C384.1,224,384.9,224,385.9,224z"/>
</g>
</svg>
