<?xml version="1.0" encoding="utf-8"?>
<!-- Generator: Adobe Illustrator 23.0.1, SVG Export Plug-In . SVG Version: 6.00 Build 0)  -->
<svg version="1.1" id="Layer_1" xmlns="http://www.w3.org/2000/svg" xmlns:xlink="http://www.w3.org/1999/xlink" x="0px" y="0px"
	 viewBox="0 0 634.6 50.6" style="enable-background:new 0 0 634.6 50.6;" xml:space="preserve">
<style type="text/css">
	.st0{fill:#333333;}
	.st1{fill:#2D2D2D;}
	.st2{fill:#FFFFFF;}
</style>
<path class="st0" d="M149.1,0C311,0,472.7,0,634.6,0c-3.4,16.9-6.8,33.7-10.2,50.6c-161.9,0-323.6,0-485.5,0
	C142.3,33.7,145.7,16.9,149.1,0z M593.4,9.9c-0.2,1.3-0.1,30.1,0.1,30.8c0.3,0,0.7,0,1,0c3.7,0,7.4,0,11,0c0.8,0,1.6-0.1,2.3-0.2
	c2.3-0.4,4.2-1.5,5.5-3.5c0.7-1.2,1-2.5,1.2-3.8c0.4-3.3-1.1-6.4-4.1-7.9c-0.2-0.1-0.5-0.2-0.7-0.3c0.1-0.1,0.1-0.1,0.1-0.1
	c0.1-0.1,0.2-0.1,0.3-0.2c2.2-1.1,3.5-2.9,3.8-5.2c0.5-3.2-0.4-5.9-3.1-7.9c-1.4-1-3-1.5-4.6-1.6c-4.2-0.1-8.4,0-12.6-0.1
	C593.5,9.9,593.5,9.9,593.4,9.9z M382.4,9.8c-0.2,1.2-0.2,30.2,0,30.8c1,0,2.1,0,3.2,0c0-8.2,0-16.3,0-24.4c0.3,0.2,0.5,0.4,0.7,0.7
	c3.5,5.4,7.1,10.7,10.6,16.1c1.6,2.4,3.1,4.7,4.7,7.1c0.2,0.2,0.4,0.6,0.6,0.6c0.9,0,1.9,0.1,2.8,0c0.2-1.6,0.1-30.1-0.1-30.8
	c-1,0-2,0-3,0c-0.1,0.1-0.1,0.1-0.1,0.1c0,0,0,0.1,0,0.1c0,0.1,0,0.1,0,0.2c0,7.8,0,15.6,0,23.4c0,0.1,0,0.2,0,0.3
	c0,0.1,0,0.1,0,0.2c0,0,0,0.1,0,0.1c0,0-0.1,0-0.1,0c-0.2-0.2-0.4-0.5-0.5-0.7c-1-1.5-2-3-2.9-4.4c-2.9-4.4-5.9-8.9-8.8-13.3
	c-1.2-1.8-2.4-3.6-3.6-5.4c-0.2-0.3-0.3-0.6-0.8-0.6C384.2,9.8,383.3,9.8,382.4,9.8z M190.3,16.3c0.1,0,0.1-0.1,0.2-0.1
	c0.1,0.2,0.3,0.4,0.4,0.6c1.3,2,2.6,3.9,3.9,5.9c2.8,4.3,5.6,8.5,8.5,12.8c1,1.6,2.1,3.2,3.2,4.7c0.1,0.2,0.4,0.5,0.6,0.5
	c0.9,0.1,1.8,0,2.8,0c0-10.4,0-20.6,0-30.8c-1.1,0-2.1,0-3.2,0c0,0.4,0,0.8,0,1.2c0,7.4,0,14.8,0,22.3c0,0.3,0.1,0.7-0.2,1
	c-0.2-0.3-0.4-0.6-0.6-0.8c-2.9-4.3-5.7-8.6-8.6-12.9c-2.2-3.3-4.4-6.7-6.7-10c-0.2-0.2-0.4-0.6-0.6-0.6c-0.9-0.1-1.9,0-2.8,0
	c-0.2,2.7-0.1,30.1,0.1,30.8c1,0,2,0,3.1,0C190.3,32.5,190.3,24.4,190.3,16.3z M348.4,40.7c-2.4-4.7-4.8-9.3-7.2-13.9
	c0.1-0.1,0.2-0.2,0.2-0.2c0.2-0.1,0.4-0.1,0.6-0.2c2.7-0.9,4.6-2.6,5.5-5.4c0.4-1.2,0.4-2.5,0.3-3.7c-0.2-2.3-1.2-4.2-3-5.7
	c-1.7-1.3-3.7-1.8-5.9-1.9c-3.8,0-7.5,0-11.3,0c-0.2,0-0.5,0-0.7,0.1c-0.2,1.8-0.1,30.1,0.1,30.8c1,0,2.1,0.1,3.2,0
	c0-1.2,0-2.3,0-3.4c0-1.1,0-2.2,0-3.4c0-1.2,0-2.3,0-3.5c0-1.1,0-2.2,0-3.3c2.6,0,5,0,7.4,0c2.3,4.6,4.7,9.1,7,13.6
	C345.9,40.7,347.1,40.7,348.4,40.7z M474.5,27c2.4,0,4.7,0,7,0c0.5,0,0.6,0.4,0.8,0.7c1.4,2.7,2.8,5.4,4.2,8.1
	c0.7,1.4,1.5,2.9,2.2,4.3c0.1,0.2,0.4,0.5,0.6,0.5c1.1,0.1,2.3,0,3.5,0c-2.5-4.7-4.9-9.3-7.3-14c0.5-0.2,0.9-0.3,1.3-0.4
	c1.1-0.4,2.1-1,3-1.8c1.6-1.6,2.3-3.5,2.4-5.7c0.1-3.2-1-5.9-3.9-7.6c-1.6-1-3.4-1.3-5.3-1.3c-3.6,0-7.2,0-10.8,0
	c-0.3,0-0.6,0-0.9,0c-0.2,1.3-0.1,30.2,0,30.8c1,0,2,0,3.1,0C474.5,36.1,474.5,31.6,474.5,27z M265.1,40.7c-2.5-4.7-4.9-9.3-7.3-14
	c0.4-0.1,0.7-0.2,0.9-0.3c2.5-0.8,4.3-2.4,5.3-4.9c0.5-1.2,0.6-2.5,0.5-3.8c-0.1-3.5-2.2-6.3-5.5-7.4c-1.2-0.4-2.4-0.6-3.7-0.6
	c-3.7,0-7.4,0-11,0c-0.2,0-0.5,0-0.7,0c0,10.3,0,20.5,0,30.8c1.1,0,2.1,0,3.2,0c0-4.6,0-9.1,0-13.6c2.6,0,5.1,0,7.5,0
	c1.1,2.2,2.2,4.3,3.3,6.4c1.1,2.2,2.3,4.4,3.4,6.7c0.2,0.3,0.3,0.7,0.8,0.6C262.8,40.7,263.9,40.7,265.1,40.7z M163.9,23.7
	c-0.2-1.7-0.1-10.2,0.1-10.9c5.2,0,10.4,0,15.7,0c0-1,0-1.9,0-2.8c-1.4-0.2-18.4-0.1-19.1,0.1c-0.2,1.8-0.1,30,0.1,30.7
	c6.3,0,12.6,0,19,0c0-0.9,0-1.8,0-2.8c-5.3,0-10.5,0-15.8,0c0-3.8,0-7.5,0-11.3c4.6,0,9,0,13.5,0c0-1,0.1-1.9-0.1-2.9
	C172.8,23.7,168.3,23.7,163.9,23.7z M414.6,9.9c0,10.3,0,20.6,0,30.8c6.4,0,12.7,0,19.1,0c0-1,0-1.8,0-2.8c-2.7,0-5.3,0-7.9,0
	c-2.6,0-5.3,0-8,0c0-3.8,0-7.5,0-11.2c2.3,0,4.5,0,6.8,0c2.2,0,4.5,0,6.7,0c0-1,0-1.9,0-2.9c-1.2,0-2.3,0-3.4,0c-1.1,0-2.2,0-3.4,0
	c-1.1,0-2.2,0-3.4,0c-1.1,0-2.2,0-3.4,0c0-3.7,0-7.2,0-10.9c1.2,0,2.3,0,3.3,0c1.1,0,2.1,0,3.2,0c1,0,2.1,0,3.1,0c1.1,0,2.1,0,3.2,0
	c1,0,2.1,0,3.2,0c0-1,0-1.9,0-2.9C427.4,9.9,421,9.9,414.6,9.9z M355.9,9.9c0,10.3,0,20.6,0,30.8c6.4,0,12.7,0,19,0
	c0-0.9,0-1.8,0-2.8c-1.4,0-2.7,0-4,0c-1.3,0-2.6,0-3.9,0c-1.3,0-2.7,0-4,0c-1.3,0-2.6,0-3.9,0c0-3.8,0-7.5,0-11.2c2.3,0,4.5,0,6.8,0
	c2.2,0,4.5,0,6.7,0c0-1,0-1.9,0-2.9c-1.6,0-3.1,0-4.5,0c-1.5,0-3,0-4.5,0c-1.5,0-3,0-4.4,0c0-3.7,0-7.2,0-10.9c5.3,0,10.5,0,15.8,0
	c0-1,0-2,0-2.9C368.5,9.9,362.3,9.9,355.9,9.9z M275.8,37.9c0-3.8,0-7.4,0-11.2c4.5,0,9,0,13.5,0c0-1,0.1-2-0.1-3c-4.6,0-9,0-13.5,0
	c0-3.7,0-7.2,0-10.9c5.3,0,10.5,0,15.7,0c0.2-1,0.2-2.2,0-2.9c-2.5-0.2-18.2-0.1-18.9,0.1c-0.2,2.5-0.1,30,0.1,30.7
	c2.5,0.2,18.2,0.1,18.9-0.1c0-0.9,0-1.8,0-2.7C286.3,37.9,281.1,37.9,275.8,37.9z M299.1,9.8c0,10.4,0,20.6,0,30.9
	c1.1,0,2.1,0,3.2,0c0-1.1,0-2.2,0-3.2c0-1,0-2.1,0-3.1c0-1.1,0-2.1,0-3.2c0-1,0-2.1,0-3.2c0.4,0,0.7,0,1.1,0c2.3,0,4.7,0,7,0
	c0.8,0,1.7-0.1,2.5-0.2c3.4-0.7,5.7-2.6,6.8-6c0.6-2,0.6-4.1-0.1-6.1c-0.6-1.9-1.8-3.4-3.5-4.5c-1.7-1-3.6-1.5-5.5-1.5
	c-3.5,0-7,0-10.6,0C299.7,9.8,299.4,9.8,299.1,9.8z M440.7,9.9c0,0.4,0,0.8,0,1.1c0,6.1,0,12.3,0,18.4c0,0.9,0,1.7,0.1,2.6
	c0.4,2.9,1.7,5.3,4.1,7c2.4,1.6,5,2.2,7.9,1.9c5.4-0.5,9.3-4.5,9.4-10.1c0.1-6.7,0-13.4,0-20.1c0-0.3,0-0.5-0.1-0.8
	c-1.1,0-2.1,0-3.2,0c0,0.4,0,0.8,0,1.2c0,6.2,0,12.4,0,18.6c0,0.6,0,1.2-0.1,1.8c-0.3,2.5-1.4,4.5-3.6,5.8c-1.3,0.7-2.7,0.9-4.2,0.9
	c-3.2,0-5.9-2-6.7-5.2c-0.3-1-0.4-2-0.4-3c0-6.3,0-12.6,0-18.9c0-0.4,0-0.7,0-1.1C442.8,9.9,441.8,9.9,440.7,9.9z M581.1,9.9
	c0,0.5,0,0.8,0,1.2c0,6.2,0,12.3,0,18.5c0,0.8,0,1.6-0.2,2.4c-0.4,2.3-1.5,4.1-3.6,5.2c-1.4,0.8-3,1-4.6,0.9c-3-0.3-5.4-2-6.2-4.7
	c-0.3-1.1-0.5-2.2-0.5-3.3c0-6.4,0-12.7,0-19.1c0-0.4,0-0.7,0-1c-1.1,0-2.1,0-3.1,0c0,0.2,0,0.3,0,0.4c0,7-0.1,14,0,21
	c0.1,3.9,1.9,6.8,5.5,8.6c2.1,1.1,4.3,1.3,6.6,1.1c5.4-0.5,9.4-4.7,9.4-10.1c0-6.7,0-13.5,0-20.2c0-0.2,0-0.5-0.1-0.7
	C583.2,9.9,582.2,9.9,581.1,9.9z M531.8,18.7c-0.6-2.9-1.8-5.4-4.1-7.1c-3-2.2-6.3-2.6-9.8-1.6c-3.8,1-6.3,3.5-7.1,7.4
	c-0.3,1.7-0.4,3.5-0.5,5.2c-0.1,2.6,0,5.2,0.1,7.8c0.1,1.9,0.3,3.7,1.3,5.4c2.8,5,9.1,6.4,14,4.3c3.1-1.4,4.9-3.9,5.8-7.1
	c0.1-0.3,0.1-0.7,0.2-1.1c-1.1,0-2.1,0-3.2,0c-0.1,0.3-0.2,0.5-0.2,0.8c-0.5,1.5-1.2,2.8-2.4,3.8c-1.6,1.3-3.5,1.8-5.5,1.7
	c-3-0.2-5.7-2.2-6.3-5c-0.3-1.2-0.5-2.4-0.5-3.6c-0.1-1.9-0.1-3.8-0.1-5.7c0-1.6,0.1-3.1,0.2-4.7c0.1-1.4,0.5-2.8,1.5-4
	c2.1-2.5,4.8-3.2,7.9-2.4c2.6,0.7,4.1,2.5,5,4.9c0.1,0.3,0.2,0.7,0.3,1C529.6,18.7,530.6,18.7,531.8,18.7z M228.4,40.7
	c0-9.3,0-18.6,0-27.9c3,0,5.9,0,8.9,0c0-1,0-1.9,0-2.9c-7.1,0-14.1,0-21.1,0c0,1,0,1.9,0,2.9c3,0,5.9,0,8.9,0c0,9.4,0,18.6,0,27.9
	C226.2,40.7,227.2,40.7,228.4,40.7z M542.9,37.9c0-2.4,0-4.8,0-7.1c0-2.3,0-4.6,0-6.9c0-2.3,0-4.7,0-7c0-2.3,0-4.6,0-7
	c-0.7,0-1.2,0-1.7,0c-0.5,0-1,0-1.5,0c0,10.4,0,20.6,0,30.9c6.4,0,12.7,0,19,0c0-0.9,0-1.8,0-2.8C553.4,37.9,548.2,37.9,542.9,37.9z
	"/>
<path class="st1" d="M0,50.3C3.4,33.6,6.7,16.8,10.1,0c32.2,0,64.3,0,96.6,0c-0.6,3.3-1.3,6.5-1.9,9.7c-0.7,3.2-1.3,6.5-2,9.7
	c0.8,0.2,12.2,0.2,13.3,0c1.3-6.5,2.6-12.9,4-19.4c5.3,0,10.4,0,15.7,0c-3.4,16.8-6.7,33.6-10.1,50.5c-5.3,0-10.4,0-15.7,0
	c1.3-6.6,2.6-13,3.9-19.5c-4.5,0-8.8,0-13.3,0c-1.3,6.4-2.6,12.9-3.9,19.3c-0.7,0.2-14.4,0.3-15.7,0.1c0.5-3.1,1.2-6.3,1.8-9.4
	c0.6-3.1,1.3-6.3,1.9-9.4c0.6-3.1,1.3-6.3,1.9-9.4c0.6-3.1,1.2-6.3,1.9-9.5c-4.5,0-8.8,0-13.3,0c-2.5,12.6-5,25.1-7.6,37.8
	c-1.7,0.2-3.5,0-5.2,0.1c-1.7,0-3.5,0-5.2,0c-1.7,0-3.5,0-5.3,0c2.5-12.7,5.1-25.2,7.6-37.7c-0.7-0.2-33.8-0.3-36.1-0.1
	c-0.5,2.2-0.9,4.5-1.4,6.9c7.6,0,15.1,0,22.7,0c-0.8,3.8-1.5,7.5-2.3,11.3c-7.6,0-15.1,0-22.7,0c-0.5,2.3-0.9,4.6-1.4,7
	c7.6,0,15.1,0,22.8,0c-0.8,4.2-1.7,8.4-2.5,12.4C37.7,50.6,0.8,50.6,0,50.3z"/>
<path class="st2" d="M593.4,9.9c0.1,0,0.1,0,0.1,0c4.2,0,8.4,0,12.6,0.1c1.7,0,3.3,0.6,4.6,1.6c2.7,1.9,3.6,4.7,3.1,7.9
	c-0.3,2.4-1.7,4.1-3.8,5.2c-0.1,0.1-0.2,0.1-0.3,0.2c0,0,0,0-0.1,0.1c0.2,0.1,0.5,0.2,0.7,0.3c3,1.5,4.5,4.6,4.1,7.9
	c-0.1,1.4-0.5,2.6-1.2,3.8c-1.3,2-3.2,3.1-5.5,3.5c-0.8,0.1-1.5,0.2-2.3,0.2c-3.7,0-7.4,0-11,0c-0.3,0-0.7,0-1,0
	C593.3,40,593.2,11.2,593.4,9.9z M596.7,37.8c0.2,0.1,0.2,0.1,0.3,0.1c3,0,6.1,0,9.1-0.1c3.2-0.1,5.3-2.6,5.2-5.8
	c-0.1-1.8-0.6-3.3-2.1-4.3c-1.2-0.9-2.7-1.2-4.2-1.2c-2.5,0-5,0-7.6,0c-0.2,0-0.5,0-0.8,0.1C596.7,30.3,596.7,34,596.7,37.8z
	 M596.7,12.8c0,3.6,0,7.1,0,10.6c3.1,0,6.2,0.2,9.3-0.1c3.2-0.3,4.7-2.4,4.8-5.1c0.1-2.8-1.3-4.7-4.1-5.3c-0.5-0.1-1.1-0.2-1.7-0.2
	c-2.5,0-5,0-7.5,0C597.3,12.8,597,12.8,596.7,12.8z"/>
<path class="st2" d="M382.4,9.8c0.9,0,1.8,0,2.6,0c0.4,0,0.6,0.3,0.8,0.6c1.2,1.8,2.4,3.6,3.6,5.4c2.9,4.4,5.9,8.9,8.8,13.3
	c1,1.5,2,3,2.9,4.4c0.2,0.3,0.4,0.5,0.5,0.7c0.1,0,0.1,0,0.1,0c0,0,0,0,0-0.1c0-0.1,0-0.1,0-0.2c0-0.1,0-0.2,0-0.3
	c0-7.8,0-15.6,0-23.4c0-0.1,0-0.1,0-0.2c0,0,0-0.1,0-0.1c0,0,0-0.1,0.1-0.1c1,0,2,0,3,0c0.2,0.6,0.3,29.1,0.1,30.8
	c-0.9,0.2-1.9,0.1-2.8,0c-0.2,0-0.5-0.4-0.6-0.6c-1.6-2.4-3.1-4.7-4.7-7.1c-3.5-5.4-7.1-10.7-10.6-16.1c-0.2-0.2-0.3-0.5-0.7-0.7
	c0,8.1,0,16.2,0,24.4c-1.1,0-2.2,0-3.2,0C382.2,40,382.2,11,382.4,9.8z"/>
<path class="st2" d="M190.3,16.3c0,8.1,0,16.2,0,24.4c-1,0-2.1,0-3.1,0c-0.2-0.7-0.3-28.1-0.1-30.8c0.9,0,1.9,0,2.8,0
	c0.2,0,0.5,0.4,0.6,0.6c2.2,3.3,4.5,6.7,6.7,10c2.9,4.3,5.7,8.6,8.6,12.9c0.2,0.3,0.4,0.5,0.6,0.8c0.3-0.3,0.2-0.7,0.2-1
	c0-7.4,0-14.8,0-22.3c0-0.4,0-0.7,0-1.2c1.1,0,2.1,0,3.2,0c0,10.2,0,20.5,0,30.8c-0.9,0-1.9,0-2.8,0c-0.2,0-0.5-0.3-0.6-0.5
	c-1.1-1.6-2.1-3.2-3.2-4.7c-2.8-4.3-5.6-8.5-8.5-12.8c-1.3-2-2.6-4-3.9-5.9c-0.1-0.2-0.3-0.4-0.4-0.6
	C190.4,16.2,190.3,16.2,190.3,16.3z"/>
<path class="st2" d="M348.4,40.7c-1.3,0-2.6,0-3.8,0c-2.3-4.5-4.7-9.1-7-13.6c-2.5,0-4.9,0-7.4,0c0,1.1,0,2.2,0,3.3
	c0,1.2,0,2.3,0,3.5c0,1.1,0,2.2,0,3.4c0,1.1,0,2.2,0,3.4c-1.1,0.1-2.1,0-3.2,0c-0.2-0.7-0.3-29-0.1-30.8c0.2,0,0.5-0.1,0.7-0.1
	c3.8,0,7.5,0,11.3,0c2.1,0,4.1,0.5,5.9,1.9c1.9,1.4,2.8,3.4,3,5.7c0.1,1.2,0.1,2.5-0.3,3.7c-0.8,2.8-2.7,4.5-5.5,5.4
	c-0.2,0.1-0.4,0.1-0.6,0.2c-0.1,0-0.1,0.1-0.2,0.2C343.6,31.4,346,36,348.4,40.7z M330.2,24.1c0.6,0,1,0,1.5,0
	c2.6,0,5.2,0.1,7.8-0.1c2.3-0.1,4.7-1.4,5.1-4.8c0.3-2.7-0.8-5.5-4.2-6.3c-0.5-0.1-1.1-0.2-1.7-0.2c-2.5,0-5.1,0-7.6,0
	c-0.3,0-0.5,0-0.9,0.1C330.2,16.6,330.2,20.3,330.2,24.1z"/>
<path class="st2" d="M474.5,27c0,4.6,0,9.1,0,13.6c-1.1,0-2.1,0-3.1,0c-0.2-0.6-0.2-29.5,0-30.8c0.3,0,0.6,0,0.9,0
	c3.6,0,7.2,0,10.8,0c1.9,0,3.7,0.3,5.3,1.3c2.9,1.7,4,4.4,3.9,7.6c-0.1,2.2-0.8,4.1-2.4,5.7c-0.9,0.8-1.9,1.4-3,1.8
	c-0.4,0.1-0.8,0.3-1.3,0.4c2.4,4.6,4.8,9.2,7.3,14c-1.3,0-2.4,0-3.5,0c-0.2,0-0.4-0.3-0.6-0.5c-0.8-1.4-1.5-2.9-2.2-4.3
	c-1.4-2.7-2.8-5.4-4.2-8.1c-0.2-0.3-0.3-0.7-0.8-0.7C479.3,27,477,27,474.5,27z M474.5,24c0.2,0,0.3,0.1,0.4,0.1c2.8,0,5.7,0,8.5,0
	c0.2,0,0.4,0,0.7-0.1c1.9-0.3,3.4-1.1,4.3-2.9c0.7-1.5,0.6-3,0.3-4.6c-0.2-0.8-0.6-1.4-1.1-2c-1.2-1.3-2.7-1.7-4.4-1.8
	c-2.7,0-5.3,0-8,0c-0.2,0-0.5,0.1-0.7,0.1C474.5,16.6,474.5,20.3,474.5,24z"/>
<path class="st2" d="M265.1,40.7c-1.2,0-2.3,0-3.4,0c-0.5,0-0.6-0.3-0.8-0.6c-1.1-2.2-2.3-4.4-3.4-6.7c-1.1-2.1-2.2-4.2-3.3-6.4
	c-2.5,0-4.9,0-7.5,0c0,4.5,0,9,0,13.6c-1.1,0-2.1,0-3.2,0c0-10.3,0-20.5,0-30.8c0.3,0,0.5,0,0.7,0c3.7,0,7.4,0,11,0
	c1.3,0,2.5,0.2,3.7,0.6c3.3,1.1,5.3,3.9,5.5,7.4c0,1.3-0.1,2.6-0.5,3.8c-0.9,2.5-2.7,4.1-5.3,4.9c-0.3,0.1-0.5,0.2-0.9,0.3
	C260.3,31.4,262.7,36,265.1,40.7z M246.8,24c0.2,0,0.3,0.1,0.4,0.1c2.9,0,5.7,0,8.6,0c1.1,0,2.2-0.4,3.2-0.9
	c2.5-1.5,2.9-5.3,1.6-7.7c-1.1-1.9-2.9-2.6-5-2.7c-2.7-0.1-5.4,0-8,0c-0.2,0-0.5,0.1-0.7,0.1C246.8,16.6,246.8,20.3,246.8,24z"/>
<path class="st2" d="M163.9,23.7c4.5,0,8.9,0,13.4,0c0.1,1,0,1.9,0.1,2.9c-4.5,0-8.9,0-13.5,0c0,3.8,0,7.5,0,11.3
	c5.3,0,10.6,0,15.8,0c0,1,0,1.9,0,2.8c-6.3,0-12.7,0-19,0c-0.2-0.7-0.3-28.9-0.1-30.7c0.6-0.2,17.7-0.3,19.1-0.1c0,0.9,0,1.8,0,2.8
	c-5.3,0-10.5,0-15.7,0C163.8,13.5,163.7,22,163.9,23.7z"/>
<path class="st2" d="M414.6,9.9c6.4,0,12.7,0,19.1,0c0,0.9,0,1.9,0,2.9c-1.1,0.1-2.1,0-3.2,0c-1.1,0-2.1,0-3.2,0c-1,0-2.1,0-3.1,0
	c-1.1,0-2.1,0-3.2,0c-1.1,0-2.1,0-3.3,0c0,3.6,0,7.2,0,10.9c1.2,0.1,2.3,0,3.4,0c1.1,0,2.2,0,3.4,0c1.1,0,2.2,0,3.4,0
	c1.1,0,2.2,0,3.4,0c0,1,0,1.9,0,2.9c-2.2,0-4.5,0-6.7,0c-2.2,0-4.5,0-6.8,0c0,3.8,0,7.4,0,11.2c2.7,0,5.3,0,8,0c2.6,0,5.2,0,7.9,0
	c0,1,0,1.8,0,2.8c-6.4,0-12.7,0-19.1,0C414.6,30.4,414.6,20.2,414.6,9.9z"/>
<path class="st2" d="M355.9,9.9c6.4,0,12.7,0,19,0c0,1,0,1.9,0,2.9c-5.3,0-10.5,0-15.8,0c0,3.7,0,7.2,0,10.9c1.5,0.1,3,0,4.4,0
	c1.5,0,3,0,4.5,0c1.5,0,3,0,4.5,0c0,1,0,1.9,0,2.9c-2.2,0.1-4.4,0-6.7,0c-2.2,0-4.5,0-6.8,0c0,3.7,0,7.4,0,11.2c1.3,0.1,2.6,0,3.9,0
	c1.3,0,2.7,0,4,0c1.3,0,2.6,0,3.9,0c1.3,0,2.6,0,4,0c0,1,0,1.9,0,2.8c-6.3,0-12.7,0-19,0C355.9,30.4,355.9,20.2,355.9,9.9z"/>
<path class="st2" d="M275.8,37.9c5.3,0,10.5,0,15.8,0c0,0.9,0,1.8,0,2.7c-0.7,0.2-16.4,0.3-18.9,0.1c-0.2-0.7-0.3-28.2-0.1-30.7
	c0.7-0.2,16.4-0.3,18.9-0.1c0.2,0.7,0.2,1.9,0,2.9c-5.2,0-10.4,0-15.7,0c0,3.7,0,7.2,0,10.9c4.5,0,8.9,0,13.5,0c0.1,1,0,1.9,0.1,3
	c-4.6,0-9,0-13.5,0C275.8,30.4,275.8,34.1,275.8,37.9z"/>
<path class="st2" d="M299.1,9.8c0.3,0,0.6,0,0.9,0c3.5,0,7,0,10.6,0c2,0,3.8,0.4,5.5,1.5c1.7,1.1,2.9,2.5,3.5,4.5
	c0.7,2,0.7,4.1,0.1,6.1c-1,3.3-3.4,5.3-6.8,6c-0.8,0.2-1.7,0.2-2.5,0.2c-2.3,0-4.7,0-7,0c-0.3,0-0.6,0-1.1,0c-0.1,1.1,0,2.1,0,3.2
	c0,1.1,0,2.1,0,3.2c0,1,0,2.1,0,3.1c0,1.1,0,2.1,0,3.2c-1.1,0-2.1,0-3.2,0C299.1,30.4,299.1,20.2,299.1,9.8z M302.3,25
	c3.1,0,6.2,0.1,9.2,0c2.4-0.1,4.2-1.4,4.9-3.8c0.5-1.5,0.5-3.1-0.1-4.7c-0.3-0.8-0.7-1.4-1.2-2c-1.2-1.2-2.8-1.7-4.5-1.7
	c-2.5,0-5,0-7.6,0c-0.2,0-0.5,0-0.8,0C302.3,16.9,302.3,20.9,302.3,25z"/>
<path class="st2" d="M440.7,9.9c1.1,0,2.1,0,3.3,0c0,0.4,0,0.7,0,1.1c0,6.3,0,12.6,0,18.9c0,1,0.1,2.1,0.4,3
	c0.8,3.1,3.5,5.1,6.7,5.2c1.5,0,2.9-0.2,4.2-0.9c2.3-1.3,3.3-3.3,3.6-5.8c0.1-0.6,0.1-1.2,0.1-1.8c0-6.2,0-12.4,0-18.6
	c0-0.4,0-0.7,0-1.2c1.1,0,2.1,0,3.2,0c0,0.3,0.1,0.5,0.1,0.8c0,6.7,0.1,13.4,0,20.1c-0.1,5.7-4.1,9.6-9.4,10.1
	c-2.9,0.3-5.5-0.2-7.9-1.9c-2.4-1.7-3.8-4.1-4.1-7c-0.1-0.9-0.1-1.7-0.1-2.6c0-6.1,0-12.3,0-18.4C440.7,10.6,440.7,10.3,440.7,9.9z"
	/>
<path class="st2" d="M581.1,9.9c1.1,0,2.1,0,3.2,0c0,0.3,0.1,0.5,0.1,0.7c0,6.7,0,13.5,0,20.2c0,5.4-4,9.6-9.4,10.1
	c-2.3,0.2-4.5-0.1-6.6-1.1c-3.5-1.8-5.4-4.7-5.5-8.6c-0.1-7,0-14,0-21c0-0.1,0-0.2,0-0.4c1,0,2,0,3.1,0c0,0.3,0,0.7,0,1
	c0,6.4,0,12.7,0,19.1c0,1.1,0.2,2.2,0.5,3.3c0.8,2.8,3.2,4.5,6.2,4.7c1.6,0.1,3.2-0.1,4.6-0.9c2.1-1.1,3.2-2.9,3.6-5.2
	c0.1-0.8,0.2-1.6,0.2-2.4c0-6.2,0-12.3,0-18.5C581.1,10.7,581.1,10.3,581.1,9.9z"/>
<path class="st2" d="M531.8,18.7c-1.2,0-2.2,0-3.3,0c-0.1-0.3-0.2-0.7-0.3-1c-0.9-2.4-2.4-4.2-5-4.9c-3.1-0.8-5.8-0.1-7.9,2.4
	c-1,1.1-1.4,2.5-1.5,4c-0.1,1.5-0.2,3.1-0.2,4.7c0,1.9,0,3.8,0.1,5.7c0.1,1.2,0.2,2.4,0.5,3.6c0.7,2.8,3.3,4.8,6.3,5
	c2,0.1,3.9-0.3,5.5-1.7c1.2-1,1.9-2.3,2.4-3.8c0.1-0.2,0.2-0.5,0.2-0.8c1,0,2,0,3.2,0c-0.1,0.4-0.1,0.8-0.2,1.1
	c-0.9,3.2-2.7,5.8-5.8,7.1c-4.9,2.1-11.2,0.7-14-4.3c-0.9-1.7-1.2-3.5-1.3-5.4c-0.1-2.6-0.2-5.2-0.1-7.8c0-1.7,0.1-3.5,0.5-5.2
	c0.8-3.9,3.3-6.4,7.1-7.4c3.4-1,6.8-0.6,9.8,1.6C530,13.4,531.2,15.8,531.8,18.7z"/>
<path class="st2" d="M228.4,40.7c-1.2,0-2.2,0-3.3,0c0-9.3,0-18.5,0-27.9c-3,0-5.9,0-8.9,0c0-1,0-1.9,0-2.9c7,0,14,0,21.1,0
	c0,0.9,0,1.9,0,2.9c-3,0-5.9,0-8.9,0C228.4,22.1,228.4,31.4,228.4,40.7z"/>
<path class="st2" d="M542.9,37.9c5.3,0,10.5,0,15.7,0c0,1,0,1.9,0,2.8c-6.3,0-12.6,0-19,0c0-10.2,0-20.5,0-30.9c0.5,0,1,0,1.5,0
	c0.5,0,1.1,0,1.7,0c0.1,2.4,0,4.7,0,7c0,2.3,0,4.7,0,7c0,2.3,0,4.6,0,6.9C542.9,33.1,542.9,35.4,542.9,37.9z"/>
<path class="st0" d="M596.7,37.8c0-3.7,0-7.5,0-11.2c0.3,0,0.5-0.1,0.8-0.1c2.5,0,5,0,7.6,0c1.5,0,2.9,0.3,4.2,1.2
	c1.5,1.1,2.1,2.6,2.1,4.3c0.1,3.2-2,5.6-5.2,5.8c-3,0.1-6.1,0.1-9.1,0.1C596.9,37.8,596.8,37.8,596.7,37.8z"/>
<path class="st0" d="M596.7,12.8c0.3,0,0.6,0,0.9,0c2.5,0,5,0,7.5,0c0.6,0,1.1,0.1,1.7,0.2c2.7,0.6,4.1,2.5,4.1,5.3
	c-0.1,2.7-1.6,4.8-4.8,5.1c-3.1,0.3-6.2,0.1-9.3,0.1C596.7,19.9,596.7,16.4,596.7,12.8z"/>
<path class="st0" d="M330.2,24.1c0-3.8,0-7.5,0-11.3c0.3,0,0.6-0.1,0.9-0.1c2.5,0,5.1,0,7.6,0c0.6,0,1.1,0.1,1.7,0.2
	c3.5,0.7,4.5,3.6,4.2,6.3c-0.4,3.4-2.8,4.7-5.1,4.8c-2.6,0.1-5.2,0.1-7.8,0.1C331.2,24.1,330.8,24.1,330.2,24.1z"/>
<path class="st0" d="M474.5,24c0-3.8,0-7.4,0-11.2c0.3,0,0.5-0.1,0.7-0.1c2.7,0,5.3,0,8,0c1.7,0,3.2,0.5,4.4,1.8
	c0.6,0.6,0.9,1.3,1.1,2c0.4,1.5,0.4,3.1-0.3,4.6c-0.9,1.8-2.4,2.6-4.3,2.9c-0.2,0-0.4,0.1-0.7,0.1c-2.8,0-5.7,0-8.5,0
	C474.8,24.1,474.7,24.1,474.5,24z"/>
<path class="st0" d="M246.8,24c0-3.7,0-7.4,0-11.1c0.2,0,0.5-0.1,0.7-0.1c2.7,0,5.4,0,8,0c2.1,0,3.9,0.7,5,2.7
	c1.3,2.4,0.9,6.2-1.6,7.7c-1,0.6-2,0.9-3.2,0.9c-2.9,0-5.7,0-8.6,0C247.1,24.1,247,24.1,246.8,24z"/>
<path class="st0" d="M302.3,25c0-4.1,0-8.1,0-12.2c0.3,0,0.5,0,0.8,0c2.5,0,5,0,7.6,0c1.7,0,3.3,0.4,4.5,1.7c0.6,0.6,1,1.2,1.2,2
	c0.5,1.6,0.6,3.1,0.1,4.7c-0.7,2.4-2.5,3.7-4.9,3.8C308.5,25.1,305.5,25,302.3,25z"/>
</svg>
