<?xml version="1.0" encoding="UTF-8"?>
<svg width="132px" height="150px" viewBox="0 0 132 150" version="1.1" xmlns="http://www.w3.org/2000/svg" xmlns:xlink="http://www.w3.org/1999/xlink">
    <!-- Generator: Sketch 52.6 (67491) - http://www.bohemiancoding.com/sketch -->
    <title>Group 6</title>
    <desc>Created with Sketch.</desc>
    <defs>
        <polygon id="path-1" points="1.92262298e-05 0.491169048 131.66581 0.491169048 131.66581 149.201865 1.92262298e-05 149.201865"></polygon>
    </defs>
    <g id="Welcome" stroke="none" stroke-width="1" fill="none" fill-rule="evenodd">
        <g id="Company-Building" transform="translate(-729.000000, -3886.000000)">
            <g id="Group-7" transform="translate(161.000000, 2698.000000)">
                <g id="Group-6" transform="translate(568.000000, 1188.000000)">
                    <g id="Group-3">
                        <mask id="mask-2" fill="white">
                            <use xlink:href="#path-1"></use>
                        </mask>
                        <g id="Clip-2"></g>
                        <path d="M84.5962257,126.0477 C84.6104664,123.105586 82.8654373,121.335853 79.9225494,121.306993 C76.9807568,121.278133 75.1579519,123.053856 75.1563087,125.949684 C75.1546656,128.904322 76.9018855,130.677322 79.8288896,130.69148 C82.7843751,130.706182 84.5819851,128.955508 84.5962257,126.0477 Z M14.3996116,65.6077695 C17.3616697,65.6072249 19.1209394,63.8712527 19.1318938,60.9400299 C19.1423004,58.0093516 17.3731718,56.2336285 14.4374041,56.2276386 C11.5038274,56.2221933 9.70128797,58.0000945 9.69635851,60.9040907 C9.69197676,63.8320463 11.467678,65.608314 14.3996116,65.6077695 Z M103.28874,42.3703549 C106.1544,42.3736221 107.952558,40.6158685 107.973919,37.7913742 C107.996923,34.7654026 106.225603,32.9755216 103.21918,32.9858678 C100.289985,32.9951248 98.523595,34.7768378 98.5334539,37.7102388 C98.5438606,40.6262147 100.320657,42.3676322 103.28874,42.3703549 Z M31.8088232,74.8310747 C35.4971552,77.4524581 38.898483,79.8690969 42.4811054,82.4153347 L42.4811054,67.4096302 C41.2476448,68.2237075 40.1910971,68.8842264 39.1728896,69.5991986 C36.7974373,71.2654706 34.4406075,72.9589692 31.8088232,74.8310747 Z M60.8586822,98.7034151 C56.2885245,96.0907443 52.0962921,93.6947977 47.5803585,91.1137098 C48.0152465,95.5598243 48.4211054,99.705901 48.8543502,104.130779 C52.9244415,102.290256 56.7442257,100.563541 60.8586822,98.7034151 Z M47.5776199,58.645911 C52.1088896,56.0375965 56.3175535,53.6149678 60.8225328,51.0224447 C56.7529892,49.1786549 52.9337527,47.4486725 48.8559934,45.6016155 C48.4222008,50.0248596 48.0157942,54.173659 47.5776199,58.645911 Z M89.2200598,67.2925555 L89.2200598,82.4447395 C92.8585494,79.8723641 96.2823336,77.4524581 99.9487568,74.859935 C96.2763087,72.2690455 92.8842921,69.8769106 89.2200598,67.2925555 Z M70.8474124,98.7017815 C74.9268149,100.547205 78.770151,102.285355 82.8418855,104.126967 C83.2811552,99.6590711 83.6875618,95.5238851 84.1229975,91.092473 C79.550649,93.7127673 75.355678,96.1174264 70.8474124,98.7017815 Z M82.8457195,45.5978038 C78.7246905,47.4590187 74.9038108,49.1841002 70.8348149,51.0213556 C75.380873,53.6291256 79.6015867,56.0501207 84.1224498,58.6437329 C83.6859187,54.1850942 83.2827983,50.0618879 82.8457195,45.5978038 Z M84.3979519,74.8724592 C84.3908315,74.8724592 84.3837112,74.8719147 84.3771386,74.8719147 C84.3771386,71.6798604 84.4198606,68.4867171 84.3360598,65.2973855 C84.3212714,64.7484959 83.9050058,63.9796148 83.4399934,63.7073482 C77.8702506,60.4434155 72.2643585,57.2404706 66.6371054,54.0745539 C66.2290556,53.8447608 65.469371,53.8240686 65.0684415,54.0495054 C59.4006573,57.2421042 53.758068,60.4798992 48.142317,63.7618015 C47.7391967,63.9975844 47.3601759,64.6613706 47.3563419,65.1285801 C47.3064996,71.6090711 47.3048564,78.0906511 47.3656531,84.5705975 C47.3700349,85.0688455 47.8087568,85.7663927 48.2513129,86.0261351 C53.7372548,89.2405152 59.2675618,92.3808388 64.7688398,95.570715 C65.5301676,96.0123315 66.1485411,96.011787 66.9126075,95.5696259 C72.3749975,92.4096991 77.8510805,89.2731872 83.3419519,86.1628129 C84.1186158,85.7222855 84.4182174,85.1728514 84.4100017,84.3048653 C84.3787817,81.1607299 84.3979519,78.0165946 84.3979519,74.8724592 Z M82.023595,40.6768563 C81.9743004,40.230339 81.9649892,40.0849486 81.9408896,39.9417363 C80.5699519,31.8222001 78.7564581,23.8159268 75.6076282,16.1685009 C74.2410722,12.8479368 72.7326573,9.58454865 70.0669145,7.04157808 C67.3321593,4.43326351 64.3016365,4.31945605 61.7196946,7.04702341 C60.1110473,8.74651188 58.6919104,10.7422265 57.6512465,12.8326899 C53.3790473,21.4118122 51.3563253,30.668334 49.730151,40.027228 C49.5871967,40.8527405 49.8742008,41.1990637 50.6273129,41.5355853 C55.4149145,43.6756012 60.1674622,45.8945745 64.9534207,48.0394912 C65.4124083,48.2447802 66.1074622,48.3172032 66.5445411,48.1222603 C71.4685245,45.9283355 76.3673129,43.6783239 81.2578855,41.4119762 C81.6155452,41.2469826 81.8603751,40.8396717 82.023595,40.6768563 Z M28.0438108,77.7933359 C20.5964913,83.8371112 13.3069145,90.1019669 7.89929627,98.1637826 C6.49385228,100.258602 5.40608465,102.659994 4.6524249,105.069554 C3.5443917,108.611199 5.13879834,111.385596 8.74113859,112.309669 C10.8246573,112.843312 13.0713959,113.059491 15.2233793,112.963109 C25.2049892,112.513869 34.5720598,109.443246 43.829039,105.994716 C44.1330224,105.881453 44.4693212,105.282467 44.4391967,104.9405 C43.9752797,99.6449132 43.4730224,94.3520494 42.9143502,89.0651755 C42.8573876,88.5277211 42.5063004,87.8530443 42.074151,87.5475612 C37.4782506,84.2988754 32.8374373,81.1122665 28.0438108,77.7933359 Z M103.612989,77.6974981 C99.0274954,80.916779 94.6463004,84.055469 90.186234,87.0776289 C89.1373544,87.7882449 88.7397112,88.5571259 88.6427651,89.7698016 C88.2401925,94.7833198 87.7642257,99.7913927 87.2466324,104.794565 C87.1628315,105.60483 87.4120432,105.899967 88.1125743,106.158076 C96.4762257,109.234145 104.953255,111.949188 113.869006,112.809551 C116.8223,113.094342 119.92567,112.906478 122.834051,112.317292 C126.55689,111.563114 128.100359,108.698869 127.050383,105.040694 C126.470898,103.022653 125.604408,101.017137 124.501852,99.2288898 C120.959761,93.4818852 116.222002,88.7335547 111.234483,84.2340759 C108.719363,81.9644611 106.093056,79.8173662 103.612989,77.6974981 Z M67.0177693,0.490842328 C72.4248398,1.96217134 75.3523917,6.08483305 77.842317,10.6137166 C81.5432465,17.345782 83.4898357,24.6795566 85.0831469,32.1206043 C85.5777361,34.4305146 85.9923585,36.7573055 86.4842091,39.2844846 C88.4247734,38.6261438 90.2700349,37.9454772 92.1508979,37.3807961 C93.3378025,37.0246713 94.0514788,36.5329578 94.4370722,35.1776143 C95.6135701,31.0397057 99.9498523,28.0894242 103.927927,28.4482717 C108.187529,28.8321677 111.987047,32.5611318 112.524359,36.8863599 C112.983894,40.5870083 110.202035,44.8142204 106.317072,46.3193105 C102.534533,47.7841051 98.1429311,46.402624 95.7264,42.7379149 C94.9048232,41.4920226 94.2196282,41.2829218 92.9396116,41.8247325 C91.3326075,42.5053991 89.6379685,42.9829548 88.0326075,43.6685223 C87.6623502,43.8264369 87.2515618,44.4945793 87.2844249,44.8931777 C87.7078108,49.9529812 88.2396448,55.0040723 88.6652216,60.0638758 C88.7621676,61.2220982 89.1521427,61.9544955 90.1550141,62.6351621 C94.6145328,65.6605892 98.9968232,68.796012 103.61518,72.0376188 C106.147827,69.8692872 108.842599,67.6612046 111.423993,65.3295129 C115.863794,61.3190251 120.110251,57.1048818 123.43928,52.1098777 C124.744491,50.1511914 125.929753,48.0405803 126.735993,45.8422993 C128.535794,40.9355096 126.356973,37.6683097 121.14489,37.0546207 C120.230201,36.9473476 119.314964,36.8400745 118.220076,36.7110202 C118.284707,35.2647397 118.348242,33.8484085 118.416159,32.3313387 C122.042599,32.4462352 125.333836,33.0942299 128.200591,35.1411306 C131.407479,37.4308932 132.118964,40.6692328 131.421172,44.2974583 C130.568375,48.7294149 128.217022,52.4725369 125.570998,56.0272503 C120.61689,62.6836256 114.634168,68.3587517 108.299811,73.6875547 C107.8945,74.0284326 107.500143,74.3829238 106.955711,74.8577568 C107.955296,75.7235648 108.894085,76.5316522 109.827944,77.3457295 C116.620193,83.2653512 123.098599,89.4762981 127.909753,97.1705539 C129.896873,100.348995 131.546599,103.684806 131.630948,107.562972 C131.709819,111.188475 130.125271,113.955793 126.84718,115.350343 C124.524856,116.338671 121.93689,117.010081 119.421222,117.195222 C110.72401,117.836682 102.437039,115.642757 94.2481095,113.048056 C91.7132714,112.24487 89.2074622,111.352379 86.490234,110.433207 C85.9934539,113.044789 85.4846241,115.531673 85.0897195,118.03707 C85.0393295,118.358345 85.533371,118.822832 85.8592631,119.135394 C88.4548979,121.619555 89.8866324,124.538798 88.8404913,128.139797 C87.788873,131.75931 85.3329062,134.135653 81.6095203,134.999283 C77.9902008,135.838409 75.0987983,134.384505 72.8175535,131.705401 C70.535761,129.025753 69.8297527,125.953496 71.3409062,122.650901 C72.9364083,119.164254 75.679927,117.117898 79.5588647,116.778109 C80.4094705,116.702964 80.7271469,116.455746 80.8575037,115.630778 C81.1592963,113.722188 81.5585826,111.828846 81.934317,109.931692 C82.1035618,109.077864 81.9414373,108.56927 81.002649,108.156513 C76.2468149,106.064416 71.5468481,103.846532 66.7975867,101.738099 C66.2723253,101.505584 65.4671801,101.482713 64.9484913,101.712506 C60.1532216,103.836186 55.398483,106.049714 50.6147154,108.200621 C49.9596448,108.495213 49.5745992,108.7555 49.7170058,109.569033 C51.4647734,119.547061 53.5669145,129.427074 58.4788481,138.439645 C59.3902506,140.110817 60.6483585,141.677984 62.0346324,142.993577 C64.5146988,145.348139 67.3737859,145.219084 69.807844,142.822049 C70.8364581,141.808128 71.6914456,140.6205 72.7496365,139.364807 C73.9025826,140.092848 75.1086573,140.854105 76.4472797,141.699221 C74.3473295,144.86786 71.9696863,147.543152 68.3311967,148.761273 C64.9096033,149.906427 62.0127237,148.703008 59.4543336,146.492748 C56.4566739,143.902947 54.46079,140.575849 52.7809394,137.059797 C49.1386158,129.438509 47.2424166,121.302092 45.7219519,113.059491 C45.574068,112.257394 45.4179685,111.455841 45.2251718,110.44192 C44.549288,110.655921 43.9665162,110.82037 43.3985328,111.024026 C36.3921261,113.537047 29.3068481,115.777257 21.9011552,116.800435 C17.0626158,117.468578 12.2038108,117.798565 7.41785228,116.417628 C1.27629212,114.647351 -1.18405643,110.269847 0.577951867,104.147659 C2.15428382,98.6701986 5.35295602,94.0645358 9.16781079,89.9729125 C13.4285079,85.4020999 18.0523419,81.1656307 22.5310307,76.7962954 C23.1532382,76.1891408 23.846649,75.6544091 24.6457693,74.9666635 C22.5107651,73.1217846 20.4491552,71.3117559 18.3382506,69.5605368 C18.1399768,69.3955432 17.6081427,69.5235085 17.2740349,69.638405 C13.4986158,70.9387506 10.3410224,69.7897853 7.73881494,67.0589507 C5.23957842,64.4359338 4.31886473,61.293432 5.76483983,57.8307447 C7.26284813,54.2417256 10.0123917,51.9933476 13.9554124,51.7292489 C17.6316946,51.4825753 20.3900017,53.3443347 22.3201593,56.3697618 C24.1473461,59.2334625 24.1834954,62.1979018 22.5244581,65.1694201 C22.313039,65.5484153 22.0731386,65.9121636 21.7368398,66.4626868 C23.8910141,68.2993976 26.0577859,70.1464546 28.2837112,72.0436087 C29.1633461,71.3830898 29.9575369,70.7563319 30.7829477,70.1731367 C34.5123585,67.5392291 38.267512,64.9401716 41.9657029,62.2637904 C42.4334539,61.9256352 42.8458855,61.2302662 42.9077776,60.6601398 C43.4790473,55.3710877 43.9813046,50.0749567 44.4485079,44.776103 C44.4786324,44.4363143 44.135761,43.8405948 43.8301344,43.7273319 C34.6071137,40.3125635 25.2827651,37.2392175 15.3449726,36.7725524 C13.1897029,36.6712692 10.9413212,36.8673012 8.85177759,37.3878751 C5.05006805,38.3359076 3.66215104,41.1081267 4.8090722,44.8436252 C5.11798506,45.8510118 5.549039,46.8213702 5.9664,47.9213275 C4.63161162,48.576401 3.34611784,49.2080597 2.00256598,49.8674895 C0.399395851,46.770184 -0.394247303,43.6053564 0.193453942,40.2510312 C0.797586722,36.8041353 3.16318008,34.8056981 6.32351203,33.6583664 C10.5973544,32.1053574 15.031678,32.2071851 19.4566905,32.6411782 C27.7474954,33.4530773 35.6253212,35.9274367 43.4160598,38.7165363 C43.9511801,38.9082121 44.4950639,39.078651 45.1977859,39.3138894 C45.6863502,36.8182932 46.1135701,34.4610085 46.6136365,32.1184262 C48.1817527,24.7715827 50.1266988,17.5412694 53.7153461,10.8658355 C54.5155618,9.37708146 55.4439436,7.94713698 56.4188813,6.56347783 C58.4843253,3.63497768 61.1232299,1.43451856 64.6801095,0.490842328 L67.0177693,0.490842328 Z" id="Fill-1" fill="#676767" mask="url(#mask-2)"></path>
                    </g>
                    <path d="M73.4726873,75.4659687 C73.4634893,71.3105391 70.6565006,68.5159045 66.5033692,68.527267 C62.2598818,68.5380884 59.5091627,71.3289355 59.5270174,75.6034009 C59.5443312,79.7263661 62.3767495,82.4901597 66.5655904,82.4728454 C70.7030312,82.4560722 73.4813441,79.6370893 73.4726873,75.4659687 M66.4454764,64.0001213 C72.4311581,63.9703623 77.9520743,69.4221994 77.999687,75.4096972 C78.0478409,81.456713 72.5317942,87.0081072 66.4828091,86.9999911 C60.4971275,86.9924161 55.0113798,81.5070326 55.0000177,75.5195348 C54.9886555,69.5347422 60.4592537,64.0287981 66.4454764,64.0001213" id="Fill-4" fill="#676767"></path>
                </g>
            </g>
        </g>
    </g>
</svg>