<?xml version="1.0" encoding="UTF-8"?>
<svg width="152px" height="152px" viewBox="0 0 152 152" version="1.1" xmlns="http://www.w3.org/2000/svg" xmlns:xlink="http://www.w3.org/1999/xlink">
    <!-- Generator: Sketch 52.6 (67491) - http://www.bohemiancoding.com/sketch -->
    <title>Group 213</title>
    <desc>Created with Sketch.</desc>
    <g id="Welcome" stroke="none" stroke-width="1" fill="none" fill-rule="evenodd">
        <g id="Company-Building" transform="translate(-240.000000, -3416.000000)">
            <g id="Group-7" transform="translate(161.000000, 2698.000000)">
                <g id="Group-213" transform="translate(80.000000, 719.000000)">
                    <path d="M138.776908,142.924915 C138.406609,142.431617 138.102054,142.001514 137.773328,141.591218 C134.719081,137.773108 131.644531,133.970089 128.607687,130.136888 C127.105217,128.241038 127.634079,126.545149 129.948693,125.729273 C133.259153,124.562523 136.580248,123.425013 139.893608,122.269582 C140.280344,122.134703 140.650644,121.96021 141.256853,121.712146 C129.183923,115.23796 117.340135,108.885447 105.135715,102.341463 C108.695619,115.483194 112.151105,128.241038 115.698441,141.336551 C118.043994,137.883463 120.172009,134.742578 122.309692,131.607351 C123.821829,129.38798 125.625952,129.357798 127.315988,131.484734 C130.355733,135.314162 133.40998,139.132272 136.46326,142.950382 C136.753312,143.312574 137.077204,143.648357 137.404963,144.018094 C137.889349,143.632322 138.233544,143.358791 138.776908,142.924915 M124.947231,136.649746 C122.900431,139.663299 120.929044,142.564609 118.957658,145.464977 C118.326311,146.393095 117.678529,147.309894 117.062652,148.24933 C116.428405,149.217062 115.596922,149.875422 114.369036,149.703758 C113.083139,149.522662 112.433422,148.651137 112.118233,147.473069 C110.917417,142.980565 109.705,138.489947 108.490649,134.000272 C105.365823,122.448792 102.237129,110.897312 99.1123026,99.3458318 C99.0359223,99.0656987 98.9943481,98.7723607 98.8918631,98.5026029 C98.4451831,97.3283078 98.6308163,96.2813458 99.6421309,95.4899935 C100.726925,94.6439351 101.860062,94.8957719 102.977728,95.5003688 C108.445208,98.4563857 113.91172,101.412403 119.386935,104.354271 C128.861965,109.445713 138.339897,114.530553 147.824596,119.603131 C149.000273,120.232251 150.096669,120.873633 149.993218,122.412007 C149.882998,124.036213 148.627073,124.493669 147.319905,124.942636 C143.117052,126.381973 138.923868,127.85055 134.507343,129.384207 C134.898914,129.923723 135.180264,130.344394 135.494487,130.738656 C138.303157,134.254939 141.121495,137.761789 143.926297,141.279959 C145.392994,143.11733 145.249901,144.268988 143.382933,145.713041 C141.903668,146.85621 140.418602,147.992777 138.920001,149.112366 C137.159385,150.426256 135.959537,150.299866 134.595326,148.610579 C131.705441,145.034874 128.843595,141.437475 125.967247,137.850451 C125.66946,137.480713 125.352337,137.125123 124.947231,136.649746" id="Fill-1" fill="#676767"></path>
                    <path d="M138.776908,142.924915 C138.406609,142.431617 138.102054,142.001514 137.773328,141.591218 C134.719081,137.773108 131.644531,133.970089 128.607687,130.136888 C127.105217,128.241038 127.634079,126.545149 129.948693,125.729273 C133.259153,124.562523 136.580248,123.425013 139.893608,122.269582 C140.280344,122.134703 140.650644,121.96021 141.256853,121.712146 C129.183923,115.23796 117.340135,108.885447 105.135715,102.341463 C108.695619,115.483194 112.151105,128.241038 115.698441,141.336551 C118.043994,137.883463 120.172009,134.742578 122.309692,131.607351 C123.821829,129.38798 125.625952,129.357798 127.315988,131.484734 C130.355733,135.314162 133.40998,139.132272 136.46326,142.950382 C136.753312,143.312574 137.077204,143.648357 137.404963,144.018094 C137.889349,143.632322 138.233544,143.358791 138.776908,142.924915 Z M124.947231,136.649746 C122.900431,139.663299 120.929044,142.564609 118.957658,145.464977 C118.326311,146.393095 117.678529,147.309894 117.062652,148.24933 C116.428405,149.217062 115.596922,149.875422 114.369036,149.703758 C113.083139,149.522662 112.433422,148.651137 112.118233,147.473069 C110.917417,142.980565 109.705,138.489947 108.490649,134.000272 C105.365823,122.448792 102.237129,110.897312 99.1123026,99.3458318 C99.0359223,99.0656987 98.9943481,98.7723607 98.8918631,98.5026029 C98.4451831,97.3283078 98.6308163,96.2813458 99.6421309,95.4899935 C100.726925,94.6439351 101.860062,94.8957719 102.977728,95.5003688 C108.445208,98.4563857 113.91172,101.412403 119.386935,104.354271 C128.861965,109.445713 138.339897,114.530553 147.824596,119.603131 C149.000273,120.232251 150.096669,120.873633 149.993218,122.412007 C149.882998,124.036213 148.627073,124.493669 147.319905,124.942636 C143.117052,126.381973 138.923868,127.85055 134.507343,129.384207 C134.898914,129.923723 135.180264,130.344394 135.494487,130.738656 C138.303157,134.254939 141.121495,137.761789 143.926297,141.279959 C145.392994,143.11733 145.249901,144.268988 143.382933,145.713041 C141.903668,146.85621 140.418602,147.992777 138.920001,149.112366 C137.159385,150.426256 135.959537,150.299866 134.595326,148.610579 C131.705441,145.034874 128.843595,141.437475 125.967247,137.850451 C125.66946,137.480713 125.352337,137.125123 124.947231,136.649746 Z" id="Stroke-3" stroke="#676767" stroke-width="0.5"></path>
                    <path d="M70.6138619,95.9252044 C78.1218565,88.2720468 85.6241769,80.6256423 93.1520315,72.9531902 C92.7302447,73.1200875 92.327372,73.2686551 91.9377394,73.4413407 C89.0173857,74.7196004 86.0970321,76.0036484 83.1700585,77.2809433 C79.1044496,79.0589301 75.0322207,80.8369169 70.9599919,82.6023623 C70.6895187,82.7190939 70.5826534,82.8531906 70.5826534,83.1619024 C70.5949477,87.2899575 70.5892734,91.4180126 70.5949477,95.5402794 C70.5949477,95.6811292 70.6081876,95.8161905 70.6138619,95.9252044 M66.5359588,95.9184513 C66.541633,95.8866154 66.548253,95.8161905 66.548253,95.751554 C66.548253,91.5270265 66.548253,87.2967106 66.5605472,83.072183 C66.5605472,82.7962719 66.4347678,82.7123409 66.2210372,82.6226215 C64.1064288,81.704204 61.9984404,80.7799982 59.8895063,79.8548276 C55.3954906,77.890649 50.9024206,75.9264704 46.4084049,73.9613271 C45.6149539,73.6149911 44.8158286,73.2869848 43.9921149,72.9338957 C51.531318,80.6256423 59.0336384,88.2720468 66.5359588,95.9184513 M95.4368677,67.4639092 C87.1354221,58.9888065 78.8651849,50.5465045 70.6138619,42.1292853 L70.6138619,78.314163 C78.9342217,74.6810114 87.2110789,71.0652248 95.4368677,67.4639092 M41.6694502,67.4455794 C49.9453617,71.0652248 58.2212732,74.6810114 66.5104246,78.3074099 L66.5104246,42.1042025 C58.2468073,50.5329984 49.9765701,58.969512 41.6694502,67.4455794 M101.069519,69.0238683 C100.993862,70.1989025 100.597609,71.2388752 99.7597099,72.0926562 C97.2053461,74.6925881 94.6566567,77.299273 92.1079672,79.9001697 C87.5505889,84.5482112 83.0007763,89.2030057 78.450018,93.8520119 C76.1405933,96.2146217 73.8368428,98.5830197 71.5009382,100.913794 C69.8780992,102.531636 67.2717214,102.537424 65.6545567,100.900287 C61.4631683,96.6574301 57.2963684,92.3808074 53.1172743,88.124444 C48.7868665,83.7204777 44.4696986,79.3222998 40.1525308,74.9241219 C39.227626,73.9806216 38.3017756,73.0303682 37.3834908,72.0801148 C35.6651351,70.3011632 35.6651351,67.6877252 37.3957851,65.9174562 C41.4869281,61.7305529 45.5903654,57.5571557 49.6815085,53.3770055 C54.6218995,48.3314976 59.5622905,43.2792366 64.5093014,38.2453054 C65.2015614,37.5391273 65.8304588,36.7625242 66.7563093,36.3129627 C68.3422656,35.5489011 70.3055603,35.8759426 71.5397123,37.1281547 C74.1574387,39.7869348 76.7628707,42.4563268 79.3749228,45.12186 L92.931681,58.9309231 C95.204223,61.2491555 97.4691993,63.5731762 99.7417414,65.8904439 C100.590989,66.757731 101.000482,67.8044568 101.069519,69.0238683" id="Fill-5" fill="#676767"></path>
                    <path d="M70.6138619,95.9252044 C78.1218565,88.2720468 85.6241769,80.6256423 93.1520315,72.9531902 C92.7302447,73.1200875 92.327372,73.2686551 91.9377394,73.4413407 C89.0173857,74.7196004 86.0970321,76.0036484 83.1700585,77.2809433 C79.1044496,79.0589301 75.0322207,80.8369169 70.9599919,82.6023623 C70.6895187,82.7190939 70.5826534,82.8531906 70.5826534,83.1619024 C70.5949477,87.2899575 70.5892734,91.4180126 70.5949477,95.5402794 C70.5949477,95.6811292 70.6081876,95.8161905 70.6138619,95.9252044 Z M66.5359588,95.9184513 C66.541633,95.8866154 66.548253,95.8161905 66.548253,95.751554 C66.548253,91.5270265 66.548253,87.2967106 66.5605472,83.072183 C66.5605472,82.7962719 66.4347678,82.7123409 66.2210372,82.6226215 C64.1064288,81.704204 61.9984404,80.7799982 59.8895063,79.8548276 C55.3954906,77.890649 50.9024206,75.9264704 46.4084049,73.9613271 C45.6149539,73.6149911 44.8158286,73.2869848 43.9921149,72.9338957 C51.531318,80.6256423 59.0336384,88.2720468 66.5359588,95.9184513 Z M95.4368677,67.4639092 C87.1354221,58.9888065 78.8651849,50.5465045 70.6138619,42.1292853 L70.6138619,78.314163 C78.9342217,74.6810114 87.2110789,71.0652248 95.4368677,67.4639092 Z M41.6694502,67.4455794 C49.9453617,71.0652248 58.2212732,74.6810114 66.5104246,78.3074099 L66.5104246,42.1042025 C58.2468073,50.5329984 49.9765701,58.969512 41.6694502,67.4455794 Z M101.069519,69.0238683 C100.993862,70.1989025 100.597609,71.2388752 99.7597099,72.0926562 C97.2053461,74.6925881 94.6566567,77.299273 92.1079672,79.9001697 C87.5505889,84.5482112 83.0007763,89.2030057 78.450018,93.8520119 C76.1405933,96.2146217 73.8368428,98.5830197 71.5009382,100.913794 C69.8780992,102.531636 67.2717214,102.537424 65.6545567,100.900287 C61.4631683,96.6574301 57.2963684,92.3808074 53.1172743,88.124444 C48.7868665,83.7204777 44.4696986,79.3222998 40.1525308,74.9241219 C39.227626,73.9806216 38.3017756,73.0303682 37.3834908,72.0801148 C35.6651351,70.3011632 35.6651351,67.6877252 37.3957851,65.9174562 C41.4869281,61.7305529 45.5903654,57.5571557 49.6815085,53.3770055 C54.6218995,48.3314976 59.5622905,43.2792366 64.5093014,38.2453054 C65.2015614,37.5391273 65.8304588,36.7625242 66.7563093,36.3129627 C68.3422656,35.5489011 70.3055603,35.8759426 71.5397123,37.1281547 C74.1574387,39.7869348 76.7628707,42.4563268 79.3749228,45.12186 L92.931681,58.9309231 C95.204223,61.2491555 97.4691993,63.5731762 99.7417414,65.8904439 C100.590989,66.757731 101.000482,67.8044568 101.069519,69.0238683 Z" id="Stroke-7" stroke="#676767" stroke-width="0.5"></path>
                    <path d="M29.4508422,35.1959085 C31.6718337,37.3787005 33.8928252,39.562463 36.1082386,41.745255 C37.8467292,43.4573248 40.4758476,40.7174308 38.7308493,39.0063315 C36.5098578,36.8235395 34.2888663,34.6407476 32.0743826,32.456985 C30.335892,30.7449152 27.7058439,33.4838387 29.4508422,35.1959085" id="Fill-9" fill="#676767"></path>
                    <path d="M29.4508422,35.1959085 C31.6718337,37.3787005 33.8928252,39.562463 36.1082386,41.745255 C37.8467292,43.4573248 40.4758476,40.7174308 38.7308493,39.0063315 C36.5098578,36.8235395 34.2888663,34.6407476 32.0743826,32.456985 C30.335892,30.7449152 27.7058439,33.4838387 29.4508422,35.1959085 Z" id="Stroke-11" stroke="#676767" stroke-width="0.5"></path>
                    <path d="M106.696593,32.4568726 C104.474674,34.6406352 102.254615,36.8234271 100.039204,39.0062191 C98.2942072,40.7182889 100.923323,43.4572124 102.661811,41.7451426 C104.88373,39.5623506 107.103789,37.3785881 109.3192,35.1957961 C111.064197,33.4846969 108.434152,30.7448028 106.696593,32.4568726" id="Fill-13" fill="#676767"></path>
                    <path d="M106.696593,32.4568726 C104.474674,34.6406352 102.254615,36.8234271 100.039204,39.0062191 C98.2942072,40.7182889 100.923323,43.4572124 102.661811,41.7451426 C104.88373,39.5623506 107.103789,37.3785881 109.3192,35.1957961 C111.064197,33.4846969 108.434152,30.7448028 106.696593,32.4568726 Z" id="Stroke-15" stroke="#676767" stroke-width="0.5"></path>
                    <path d="M36.1076818,95.4887875 C33.8868613,97.6725501 31.6660409,99.855342 29.450798,102.038134 C27.7059341,103.750204 30.3357797,106.489127 32.0741364,104.777058 C34.2949568,102.594266 36.5157773,100.410503 38.7310201,98.227711 C40.4758841,96.5166118 37.8460385,93.7767177 36.1076818,95.4887875" id="Fill-17" fill="#676767"></path>
                    <path d="M36.1076818,95.4887875 C33.8868613,97.6725501 31.6660409,99.855342 29.450798,102.038134 C27.7059341,103.750204 30.3357797,106.489127 32.0741364,104.777058 C34.2949568,102.594266 36.5157773,100.410503 38.7310201,98.227711 C40.4758841,96.5166118 37.8460385,93.7767177 36.1076818,95.4887875 Z" id="Stroke-19" stroke="#676767" stroke-width="0.5"></path>
                    <path d="M110.719596,69.3847605 C112.379159,69.1379996 114.044522,68.8840113 115.704086,68.6362179 C116.740226,68.4782496 117.299857,67.0771844 117.05532,66.1004654 C116.752791,64.9120895 115.717617,64.5063278 114.681478,64.6581013 C113.021914,64.9048622 111.355585,65.1588504 109.696021,65.4066439 C108.660848,65.5646122 108.101216,66.9667098 108.345753,67.9423964 C108.647316,69.1307723 109.683456,69.5355015 110.719596,69.3847605" id="Fill-21" fill="#676767"></path>
                    <path d="M110.719596,69.3847605 C112.379159,69.1379996 114.044522,68.8840113 115.704086,68.6362179 C116.740226,68.4782496 117.299857,67.0771844 117.05532,66.1004654 C116.752791,64.9120895 115.717617,64.5063278 114.681478,64.6581013 C113.021914,64.9048622 111.355585,65.1588504 109.696021,65.4066439 C108.660848,65.5646122 108.101216,66.9667098 108.345753,67.9423964 C108.647316,69.1307723 109.683456,69.5355015 110.719596,69.3847605 Z" id="Stroke-23" stroke="#676767" stroke-width="0.5"></path>
                    <path d="M67.4066478,23.3106756 C67.3996641,24.7931062 67.3936781,26.270036 67.3797107,27.7524666 C67.366741,30.1076701 71.3504359,30.1140876 71.3634057,27.7524666 C71.3703893,26.270036 71.3763754,24.7931062 71.3903427,23.3106756 C71.4033124,20.9563889 67.4196175,20.9499714 67.4066478,23.3106756" id="Fill-25" fill="#676767"></path>
                    <path d="M67.4066478,23.3106756 C67.3996641,24.7931062 67.3936781,26.270036 67.3797107,27.7524666 C67.366741,30.1076701 71.3504359,30.1140876 71.3634057,27.7524666 C71.3703893,26.270036 71.3763754,24.7931062 71.3903427,23.3106756 C71.4033124,20.9563889 67.4196175,20.9499714 67.4066478,23.3106756 Z" id="Stroke-27" stroke="#676767" stroke-width="0.5"></path>
                    <path d="M26.6657662,63.0894312 C25.0040218,62.8143821 23.3422774,62.5454003 21.6863399,62.2683288 C20.656581,62.100468 19.6064979,62.5454003 19.3103454,63.6820001 C19.0596804,64.6446718 19.6258543,65.9966593 20.6623879,66.1655314 C22.3251001,66.4405804 23.9858767,66.7105735 25.6418142,66.9866337 C26.6725409,67.1555058 27.7216562,66.7105735 28.0178087,65.5729624 C28.2626668,64.6113019 27.7022999,63.2583032 26.6657662,63.0894312" id="Fill-29" fill="#676767"></path>
                    <path d="M26.6657662,63.0894312 C25.0040218,62.8143821 23.3422774,62.5454003 21.6863399,62.2683288 C20.656581,62.100468 19.6064979,62.5454003 19.3103454,63.6820001 C19.0596804,64.6446718 19.6258543,65.9966593 20.6623879,66.1655314 C22.3251001,66.4405804 23.9858767,66.7105735 25.6418142,66.9866337 C26.6725409,67.1555058 27.7216562,66.7105735 28.0178087,65.5729624 C28.2626668,64.6113019 27.7022999,63.2583032 26.6657662,63.0894312 Z" id="Stroke-31" stroke="#676767" stroke-width="0.5"></path>
                    <path d="M67.4056616,112.672378 C67.3986762,114.154808 67.3926887,115.631738 67.3797158,117.114169 C67.365745,119.469372 71.3504261,119.47579 71.363399,117.114169 C71.3703844,115.631738 71.3773698,114.154808 71.3903427,112.672378 C71.4033156,110.318091 67.4186345,110.311674 67.4056616,112.672378" id="Fill-33" fill="#676767"></path>
                    <path d="M67.4056616,112.672378 C67.3986762,114.154808 67.3926887,115.631738 67.3797158,117.114169 C67.365745,119.469372 71.3504261,119.47579 71.363399,117.114169 C71.3703844,115.631738 71.3773698,114.154808 71.3903427,112.672378 C71.4033156,110.318091 67.4186345,110.311674 67.4056616,112.672378 Z" id="Stroke-35" stroke="#676767" stroke-width="0.5"></path>
                    <path d="M46.4886829,5.58495269 C44.0792834,5.56756088 42.7466257,4.07918775 43.549443,2.30064594 C44.162693,0.944999813 45.3740276,0.785727412 46.7038417,0.798542433 C47.9644638,0.811357454 49.0061357,1.13905584 49.52555,2.36197497 C50.2809754,4.14143214 48.9018738,5.6023445 46.4886829,5.58495269" id="Fill-37" fill="#676767"></path>
                    <path d="M46.4886829,5.58495269 C44.0792834,5.56756088 42.7466257,4.07918775 43.549443,2.30064594 C44.162693,0.944999813 45.3740276,0.785727412 46.7038417,0.798542433 C47.9644638,0.811357454 49.0061357,1.13905584 49.52555,2.36197497 C50.2809754,4.14143214 48.9018738,5.6023445 46.4886829,5.58495269 Z" id="Stroke-39" stroke="#676767" stroke-width="0.5"></path>
                    <path d="M135.561486,8.01355569 C135.557797,10.0540495 134.745282,11.1470014 133.216169,11.1698109 C131.669532,11.1945211 130.77217,10.0787597 130.749113,8.10859499 C130.726056,6.02913509 131.590218,4.82308636 133.127631,4.78792182 C134.678879,4.75465807 135.565175,5.92934382 135.561486,8.01355569" id="Fill-41" fill="#676767"></path>
                    <path d="M135.561486,8.01355569 C135.557797,10.0540495 134.745282,11.1470014 133.216169,11.1698109 C131.669532,11.1945211 130.77217,10.0787597 130.749113,8.10859499 C130.726056,6.02913509 131.590218,4.82308636 133.127631,4.78792182 C134.678879,4.75465807 135.565175,5.92934382 135.561486,8.01355569 Z" id="Stroke-43" stroke="#676767" stroke-width="0.5"></path>
                    <path d="M5.59615881,10.4004428 C5.69932498,11.7232092 5.40626002,12.892474 4.01397322,13.4022508 C2.90562163,13.8087456 1.98169098,13.4297295 1.30700249,12.4736612 C0.572057658,11.4313667 0.654225403,8.98102726 1.45764336,8.06759831 C2.22545529,7.19396606 3.16216759,6.92960229 4.24404291,7.43748395 C5.48112397,8.01832621 5.65641516,9.12884357 5.59615881,10.4004428" id="Fill-45" fill="#676767"></path>
                    <path d="M5.59615881,10.4004428 C5.69932498,11.7232092 5.40626002,12.892474 4.01397322,13.4022508 C2.90562163,13.8087456 1.98169098,13.4297295 1.30700249,12.4736612 C0.572057658,11.4313667 0.654225403,8.98102726 1.45764336,8.06759831 C2.22545529,7.19396606 3.16216759,6.92960229 4.24404291,7.43748395 C5.48112397,8.01832621 5.65641516,9.12884357 5.59615881,10.4004428 Z" id="Stroke-47" stroke="#676767" stroke-width="0.5"></path>
                    <path d="M135.561491,27.9924445 C135.56425,29.9716669 134.698695,31.1103587 133.185582,31.1169845 C131.678908,31.1245569 130.765521,29.9622015 130.748964,28.0198943 C130.732407,26.1343797 131.398361,25.0534271 132.736707,24.7874484 C134.437464,24.4514255 135.557811,25.7226333 135.561491,27.9924445" id="Fill-49" fill="#676767"></path>
                    <path d="M135.561491,27.9924445 C135.56425,29.9716669 134.698695,31.1103587 133.185582,31.1169845 C131.678908,31.1245569 130.765521,29.9622015 130.748964,28.0198943 C130.732407,26.1343797 131.398361,25.0534271 132.736707,24.7874484 C134.437464,24.4514255 135.557811,25.7226333 135.561491,27.9924445 Z" id="Stroke-51" stroke="#676767" stroke-width="0.5"></path>
                    <path d="M26.391936,4.78716637 C24.4877541,4.77900828 23.4673176,4.10369922 23.281266,2.72951328 C23.1170469,1.51667634 24.0207264,0.38360746 25.3677025,0.116203203 C27.3886413,-0.28716932 29.0963298,0.38360746 29.5481696,1.75598049 C30.1215125,3.4963743 28.7659932,4.79804383 26.391936,4.78716637" id="Fill-53" fill="#676767"></path>
                    <path d="M26.391936,4.78716637 C24.4877541,4.77900828 23.4673176,4.10369922 23.281266,2.72951328 C23.1170469,1.51667634 24.0207264,0.38360746 25.3677025,0.116203203 C27.3886413,-0.28716932 29.0963298,0.38360746 29.5481696,1.75598049 C30.1215125,3.4963743 28.7659932,4.79804383 26.391936,4.78716637 Z" id="Stroke-55" stroke="#676767" stroke-width="0.5"></path>
                    <path d="M81.8469498,135.638297 C79.7830006,135.639211 78.5659954,134.722452 78.6108224,133.202442 C78.6527881,131.822277 79.7973071,130.900034 81.524577,130.854333 C83.6858103,130.794922 84.8875553,131.546243 85.0153599,133.035177 C85.1565173,134.669439 83.9776627,135.637383 81.8469498,135.638297" id="Fill-57" fill="#676767"></path>
                    <path d="M81.8469498,135.638297 C79.7830006,135.639211 78.5659954,134.722452 78.6108224,133.202442 C78.6527881,131.822277 79.7973071,130.900034 81.524577,130.854333 C83.6858103,130.794922 84.8875553,131.546243 85.0153599,133.035177 C85.1565173,134.669439 83.9776627,135.637383 81.8469498,135.638297 Z" id="Stroke-59" stroke="#676767" stroke-width="0.5"></path>
                    <path d="M10.3531045,135.637911 C7.9091482,135.60959 6.56894462,133.971544 7.53461001,132.185498 C8.2051847,130.945771 9.3893307,130.830661 10.649141,130.8535 C11.8408534,130.873599 12.8481341,131.172339 13.3872421,132.320707 C14.2365737,134.134161 12.8377303,135.666232 10.3531045,135.637911" id="Fill-61" fill="#676767"></path>
                    <path d="M10.3531045,135.637911 C7.9091482,135.60959 6.56894462,133.971544 7.53461001,132.185498 C8.2051847,130.945771 9.3893307,130.830661 10.649141,130.8535 C11.8408534,130.873599 12.8481341,131.172339 13.3872421,132.320707 C14.2365737,134.134161 12.8377303,135.666232 10.3531045,135.637911 Z" id="Stroke-63" stroke="#676767" stroke-width="0.5"></path>
                    <path d="M5.61497326,120.492918 C5.61497326,122.483284 4.8857095,123.54304 3.43733628,123.660791 C1.90218991,123.787088 0.852603961,122.634271 0.80460179,120.769252 C0.747368431,118.544334 1.69079573,117.232933 3.31086902,117.28896 C4.82109119,117.341188 5.61497326,118.445575 5.61497326,120.492918" id="Fill-65" fill="#676767"></path>
                    <path d="M5.61497326,120.492918 C5.61497326,122.483284 4.8857095,123.54304 3.43733628,123.660791 C1.90218991,123.787088 0.852603961,122.634271 0.80460179,120.769252 C0.747368431,118.544334 1.69079573,117.232933 3.31086902,117.28896 C4.82109119,117.341188 5.61497326,118.445575 5.61497326,120.492918 Z" id="Stroke-67" stroke="#676767" stroke-width="0.5"></path>
                    <path d="M135.561426,48.575545 C135.569545,50.6352793 134.882152,51.9055957 133.490226,51.8605421 C132.731568,51.8370359 131.817751,51.3101043 131.285517,50.6930655 C130.532272,49.8203963 130.580984,47.1896562 131.37302,46.450189 C131.99456,45.8713479 132.980545,45.4472561 133.78521,45.4805566 C134.994913,45.5305074 135.55421,46.7361816 135.561426,48.575545" id="Fill-69" fill="#676767"></path>
                    <path d="M135.561426,48.575545 C135.569545,50.6352793 134.882152,51.9055957 133.490226,51.8605421 C132.731568,51.8370359 131.817751,51.3101043 131.285517,50.6930655 C130.532272,49.8203963 130.580984,47.1896562 131.37302,46.450189 C131.99456,45.8713479 132.980545,45.4472561 133.78521,45.4805566 C134.994913,45.5305074 135.55421,46.7361816 135.561426,48.575545 Z" id="Stroke-71" stroke="#676767" stroke-width="0.5"></path>
                    <path d="M68.1264021,5.58510638 C67.1275045,4.99815981 66.1022459,4.65439077 65.4422769,3.94341388 C64.6250826,3.0615291 64.9480062,1.54679675 65.8546398,0.719602495 C66.9439183,-0.273616585 69.5536675,-0.230645455 70.5808091,0.798708439 C71.4770866,1.69621909 71.7181024,3.14063504 70.848186,4.03619246 C70.2013975,4.70419821 69.1987341,4.99913642 68.1264021,5.58510638" id="Fill-73" fill="#676767"></path>
                    <path d="M68.1264021,5.58510638 C67.1275045,4.99815981 66.1022459,4.65439077 65.4422769,3.94341388 C64.6250826,3.0615291 64.9480062,1.54679675 65.8546398,0.719602495 C66.9439183,-0.273616585 69.5536675,-0.230645455 70.5808091,0.798708439 C71.4770866,1.69621909 71.7181024,3.14063504 70.848186,4.03619246 C70.2013975,4.70419821 69.1987341,4.99913642 68.1264021,5.58510638 Z" id="Stroke-75" stroke="#676767" stroke-width="0.5"></path>
                    <path d="M97.0305878,5.56663956 C94.9139454,5.56026811 93.6644189,4.53082455 93.8728326,2.96435915 C94.032489,1.76288656 94.9904275,0.950982348 96.3900501,0.829014676 C98.4407267,0.651524407 99.8154927,1.23587699 100.16731,2.50106403 C100.556413,3.90096165 99.8718982,5.79237077 97.0305878,5.56663956" id="Fill-77" fill="#676767"></path>
                    <path d="M97.0305878,5.56663956 C94.9139454,5.56026811 93.6644189,4.53082455 93.8728326,2.96435915 C94.032489,1.76288656 94.9904275,0.950982348 96.3900501,0.829014676 C98.4407267,0.651524407 99.8154927,1.23587699 100.16731,2.50106403 C100.556413,3.90096165 99.8718982,5.79237077 97.0305878,5.56663956 Z" id="Stroke-79" stroke="#676767" stroke-width="0.5"></path>
                    <path d="M108.310235,4.7652512 C107.075755,4.86046189 105.931697,4.6845488 105.35586,3.47219935 C104.839987,2.38317042 105.03796,1.37665741 106.036394,0.596836525 C107.028166,-0.175730214 109.447631,-0.209280648 110.46986,0.560565786 C111.458776,1.30774301 111.772869,2.28614619 111.240815,3.40963233 C110.670689,4.61291409 109.568509,4.86136865 108.310235,4.7652512" id="Fill-81" fill="#676767"></path>
                    <path d="M108.310235,4.7652512 C107.075755,4.86046189 105.931697,4.6845488 105.35586,3.47219935 C104.839987,2.38317042 105.03796,1.37665741 106.036394,0.596836525 C107.028166,-0.175730214 109.447631,-0.209280648 110.46986,0.560565786 C111.458776,1.30774301 111.772869,2.28614619 111.240815,3.40963233 C110.670689,4.61291409 109.568509,4.86136865 108.310235,4.7652512 Z" id="Stroke-83" stroke="#676767" stroke-width="0.5"></path>
                    <path d="M117.863546,5.58505811 C115.519311,5.57499748 114.202868,4.17931325 114.886169,2.42693385 C115.344227,1.25715657 116.292521,0.8428414 117.510538,0.805342676 C118.86957,0.76418554 120.174657,0.848329018 120.857012,2.23303801 C121.742843,4.03114756 120.332706,5.59511874 117.863546,5.58505811" id="Fill-85" fill="#676767"></path>
                    <path d="M117.863546,5.58505811 C115.519311,5.57499748 114.202868,4.17931325 114.886169,2.42693385 C115.344227,1.25715657 116.292521,0.8428414 117.510538,0.805342676 C118.86957,0.76418554 120.174657,0.848329018 120.857012,2.23303801 C121.742843,4.03114756 120.332706,5.59511874 117.863546,5.58505811 Z" id="Stroke-87" stroke="#676767" stroke-width="0.5"></path>
                    <path d="M32.2293669,136.43617 C29.9480773,136.105271 28.8662184,135.216484 28.8770864,133.491371 C28.8889424,131.803584 30.0389732,130.876461 32.111795,130.852249 C33.3853257,130.836108 34.7112203,130.967257 35.1429758,132.351383 C35.3968916,133.164507 35.3465036,134.431608 34.8722641,135.032876 C34.3031767,135.756213 33.1373379,135.990264 32.2293669,136.43617" id="Fill-89" fill="#676767"></path>
                    <path d="M32.2293669,136.43617 C29.9480773,136.105271 28.8662184,135.216484 28.8770864,133.491371 C28.8889424,131.803584 30.0389732,130.876461 32.111795,130.852249 C33.3853257,130.836108 34.7112203,130.967257 35.1429758,132.351383 C35.3968916,133.164507 35.3465036,134.431608 34.8722641,135.032876 C34.3031767,135.756213 33.1373379,135.990264 32.2293669,136.43617 Z" id="Stroke-91" stroke="#676767" stroke-width="0.5"></path>
                    <path d="M5.61497265,30.3383166 C5.61497265,32.4255692 4.57432566,33.6741343 2.98616377,33.4933338 C1.59894169,33.334305 0.82099123,32.243822 0.802556385,30.4282436 C0.782278056,28.4706752 1.50123701,27.3508477 2.90136348,27.1558481 C4.57248217,26.9229846 5.61589439,28.1459915 5.61497265,30.3383166" id="Fill-93" fill="#676767"></path>
                    <path d="M5.61497265,30.3383166 C5.61497265,32.4255692 4.57432566,33.6741343 2.98616377,33.4933338 C1.59894169,33.334305 0.82099123,32.243822 0.802556385,30.4282436 C0.782278056,28.4706752 1.50123701,27.3508477 2.90136348,27.1558481 C4.57248217,26.9229846 5.61589439,28.1459915 5.61497265,30.3383166 Z" id="Stroke-95" stroke="#676767" stroke-width="0.5"></path>
                    <path d="M5.61496185,71.0466671 C5.61865179,73.0110954 4.72752991,74.198314 3.24509424,74.2021192 C1.67594484,74.2059243 0.765450749,72.9321377 0.803272692,70.7860118 C0.83740469,68.8596354 1.78572073,67.7580336 3.35763758,67.8217705 C4.88250763,67.8836048 5.6112719,68.9243236 5.61496185,71.0466671" id="Fill-97" fill="#676767"></path>
                    <path d="M5.61496185,71.0466671 C5.61865179,73.0110954 4.72752991,74.198314 3.24509424,74.2021192 C1.67594484,74.2059243 0.765450749,72.9321377 0.803272692,70.7860118 C0.83740469,68.8596354 1.78572073,67.7580336 3.35763758,67.8217705 C4.88250763,67.8836048 5.6112719,68.9243236 5.61496185,71.0466671 Z" id="Stroke-99" stroke="#676767" stroke-width="0.5"></path>
                    <path d="M5.61483721,99.7966082 C5.59828335,102.22001 3.94381704,103.573021 2.15600021,102.616242 C1.04781127,102.021894 0.807780308,100.995633 0.802262355,99.8163259 C0.796744401,98.5994609 0.972399245,97.4962075 2.14036601,96.8614847 C3.96404954,95.8699651 5.63231073,97.2849462 5.61483721,99.7966082" id="Fill-101" fill="#676767"></path>
                    <path d="M5.61483721,99.7966082 C5.59828335,102.22001 3.94381704,103.573021 2.15600021,102.616242 C1.04781127,102.021894 0.807780308,100.995633 0.802262355,99.8163259 C0.796744401,98.5994609 0.972399245,97.4962075 2.14036601,96.8614847 C3.96404954,95.8699651 5.63231073,97.2849462 5.61483721,99.7966082 Z" id="Stroke-103" stroke="#676767" stroke-width="0.5"></path>
                    <path d="M5.59883378,79.7475658 C5.67087415,80.9786252 5.53317673,82.1283079 4.30119518,82.7045686 C3.19961582,83.2212161 2.19287442,83.0139894 1.40863746,82.0289526 C0.585188653,80.9937651 0.600691011,78.4985279 1.45240883,77.5087599 C2.25761957,76.5710352 3.26162525,76.3278513 4.36138081,76.9088432 C5.48302204,77.5040287 5.67999318,78.5780121 5.59883378,79.7475658" id="Fill-105" fill="#676767"></path>
                    <path d="M5.59883378,79.7475658 C5.67087415,80.9786252 5.53317673,82.1283079 4.30119518,82.7045686 C3.19961582,83.2212161 2.19287442,83.0139894 1.40863746,82.0289526 C0.585188653,80.9937651 0.600691011,78.4985279 1.45240883,77.5087599 C2.25761957,76.5710352 3.26162525,76.3278513 4.36138081,76.9088432 C5.48302204,77.5040287 5.67999318,78.5780121 5.59883378,79.7475658 Z" id="Stroke-107" stroke="#676767" stroke-width="0.5"></path>
                    <path d="M4.79835478,59.6582791 C4.78489801,62.0490237 3.88867705,63.3191683 2.28283569,62.97679 C1.56155276,62.8223263 0.658154851,62.1001837 0.379151129,61.3839442 C-0.144765829,60.0380435 -0.245243054,58.3989569 0.858212183,57.3098399 C1.39468879,56.7815148 2.47033337,56.5355535 3.20238172,56.6988718 C4.6153427,57.0137024 4.88447812,58.3605869 4.79835478,59.6582791" id="Fill-109" fill="#676767"></path>
                    <path d="M4.79835478,59.6582791 C4.78489801,62.0490237 3.88867705,63.3191683 2.28283569,62.97679 C1.56155276,62.8223263 0.658154851,62.1001837 0.379151129,61.3839442 C-0.144765829,60.0380435 -0.245243054,58.3989569 0.858212183,57.3098399 C1.39468879,56.7815148 2.47033337,56.5355535 3.20238172,56.6988718 C4.6153427,57.0137024 4.88447812,58.3605869 4.79835478,59.6582791 Z" id="Stroke-111" stroke="#676767" stroke-width="0.5"></path>
                    <path d="M61.0103171,135.638261 C59.0469712,135.643753 58.0533789,135.036009 57.7911545,133.657602 C57.7568269,133.476377 57.7453844,133.284169 57.7606411,133.100198 C57.8674379,131.798674 58.9048932,130.951128 60.4830076,130.864176 C62.5779425,130.749767 63.8061064,131.384969 64.1017049,132.733172 C64.4850294,134.476775 63.2568654,135.630939 61.0103171,135.638261" id="Fill-113" fill="#676767"></path>
                    <path d="M61.0103171,135.638261 C59.0469712,135.643753 58.0533789,135.036009 57.7911545,133.657602 C57.7568269,133.476377 57.7453844,133.284169 57.7606411,133.100198 C57.8674379,131.798674 58.9048932,130.951128 60.4830076,130.864176 C62.5779425,130.749767 63.8061064,131.384969 64.1017049,132.733172 C64.4850294,134.476775 63.2568654,135.630939 61.0103171,135.638261 Z" id="Stroke-115" stroke="#676767" stroke-width="0.5"></path>
                    <path d="M52.318784,135.626826 C49.9257624,135.61434 48.6306111,134.696646 48.9896629,133.110078 C49.15242,132.39037 49.8784149,131.491404 50.6004643,131.220287 C51.9518408,130.711944 53.6001257,130.60314 54.6861589,131.712578 C55.2148727,132.252136 55.463447,133.321442 55.295758,134.047392 C54.9692575,135.452027 53.6040713,135.699956 52.318784,135.626826" id="Fill-117" fill="#676767"></path>
                    <path d="M52.318784,135.626826 C49.9257624,135.61434 48.6306111,134.696646 48.9896629,133.110078 C49.15242,132.39037 49.8784149,131.491404 50.6004643,131.220287 C51.9518408,130.711944 53.6001257,130.60314 54.6861589,131.712578 C55.2148727,132.252136 55.463447,133.321442 55.295758,134.047392 C54.9692575,135.452027 53.6040713,135.699956 52.318784,135.626826 Z" id="Stroke-119" stroke="#676767" stroke-width="0.5"></path>
                    <path d="M88.167625,4.77119873 C87.0053422,4.85754916 85.7991813,4.62458289 85.2424166,3.34461762 C84.7880343,2.30211604 85.0532531,1.34506541 86.0224722,0.619182081 C86.9770652,-0.0968069248 89.5288219,-0.283899529 90.3946836,0.553519772 C91.0226283,1.1579728 91.4916367,2.21126819 91.439958,3.03339627 C91.3609774,4.27198529 90.1957694,4.77659563 88.167625,4.77119873" id="Fill-121" fill="#676767"></path>
                    <path d="M88.167625,4.77119873 C87.0053422,4.85754916 85.7991813,4.62458289 85.2424166,3.34461762 C84.7880343,2.30211604 85.0532531,1.34506541 86.0224722,0.619182081 C86.9770652,-0.0968069248 89.5288219,-0.283899529 90.3946836,0.553519772 C91.0226283,1.1579728 91.4916367,2.21126819 91.439958,3.03339627 C91.3609774,4.27198529 90.1957694,4.77659563 88.167625,4.77119873 Z" id="Stroke-123" stroke="#676767" stroke-width="0.5"></path>
                    <path d="M40.9156325,135.638232 C38.8778544,135.647358 37.6443117,134.70471 37.7025067,133.185341 C37.7530696,131.891368 38.8034411,130.970621 40.3441769,130.86933 C42.502161,130.7288 43.812979,131.40225 44.0657932,132.782001 C44.3882506,134.543192 43.1909606,135.628194 40.9156325,135.638232" id="Fill-125" fill="#676767"></path>
                    <path d="M40.9156325,135.638232 C38.8778544,135.647358 37.6443117,134.70471 37.7025067,133.185341 C37.7530696,131.891368 38.8034411,130.970621 40.3441769,130.86933 C42.502161,130.7288 43.812979,131.40225 44.0657932,132.782001 C44.3882506,134.543192 43.1909606,135.628194 40.9156325,135.638232 Z" id="Stroke-127" stroke="#676767" stroke-width="0.5"></path>
                    <path d="M4.79610344,49.9895803 C4.80509717,52.2247617 4.1233725,53.5209898 2.7482313,53.4550465 C1.96128,53.4166616 1.00794471,52.8300618 0.480912178,52.1588184 C-0.263768599,51.2090386 -0.10997583,48.5949294 0.710252272,47.9187649 C1.36229764,47.3803923 2.39207963,46.9571743 3.15384849,47.1038242 C4.55147401,47.3735027 4.89863195,48.7110683 4.79610344,49.9895803" id="Fill-129" fill="#676767"></path>
                    <path d="M4.79610344,49.9895803 C4.80509717,52.2247617 4.1233725,53.5209898 2.7482313,53.4550465 C1.96128,53.4166616 1.00794471,52.8300618 0.480912178,52.1588184 C-0.263768599,51.2090386 -0.10997583,48.5949294 0.710252272,47.9187649 C1.36229764,47.3803923 2.39207963,46.9571743 3.15384849,47.1038242 C4.55147401,47.3735027 4.89863195,48.7110683 4.79610344,49.9895803 Z" id="Stroke-131" stroke="#676767" stroke-width="0.5"></path>
                    <path d="M6.4258737,5.58510638 C5.48654308,5.128994 4.50171512,4.89445043 3.84200361,4.27465658 C2.86381067,3.35444734 3.07897521,1.65675114 4.07328178,0.735543847 C5.16047877,-0.273492523 7.79174194,-0.237562445 8.82775441,0.801415658 C9.7898337,1.76653749 9.94338725,3.45525118 8.94908067,4.35549925 C8.30832638,4.93437274 7.3680479,5.14596098 6.4258737,5.58510638" id="Fill-133" fill="#676767"></path>
                    <path d="M6.4258737,5.58510638 C5.48654308,5.128994 4.50171512,4.89445043 3.84200361,4.27465658 C2.86381067,3.35444734 3.07897521,1.65675114 4.07328178,0.735543847 C5.16047877,-0.273492523 7.79174194,-0.237562445 8.82775441,0.801415658 C9.7898337,1.76653749 9.94338725,3.45525118 8.94908067,4.35549925 C8.30832638,4.93437274 7.3680479,5.14596098 6.4258737,5.58510638 Z" id="Stroke-135" stroke="#676767" stroke-width="0.5"></path>
                    <path d="M5.59691708,110.915703 C5.59874591,112.983527 4.67518813,114.178078 3.14171644,114.091323 C1.87708237,114.019822 0.969069618,113.035961 0.83647964,111.591631 C0.641709533,109.4647 1.27997026,108.104265 2.6360457,107.785845 C4.05064361,107.453124 5.8127187,108.215807 5.59691708,110.915703" id="Fill-137" fill="#676767"></path>
                    <path d="M5.59691708,110.915703 C5.59874591,112.983527 4.67518813,114.178078 3.14171644,114.091323 C1.87708237,114.019822 0.969069618,113.035961 0.83647964,111.591631 C0.641709533,109.4647 1.27997026,108.104265 2.6360457,107.785845 C4.05064361,107.453124 5.8127187,108.215807 5.59691708,110.915703 Z" id="Stroke-139" stroke="#676767" stroke-width="0.5"></path>
                    <path d="M135.545222,89.1344116 C135.539828,91.3402111 134.821505,92.6428332 133.438801,92.5483832 C132.65395,92.4942713 131.709971,91.8872337 131.197526,91.2044394 C130.476505,90.2461661 130.665301,87.5858262 131.469931,86.9640308 C132.140605,86.44554 133.173588,86.043144 133.935064,86.2074475 C135.322264,86.5085067 135.643216,87.8603213 135.545222,89.1344116" id="Fill-141" fill="#676767"></path>
                    <path d="M135.545222,89.1344116 C135.539828,91.3402111 134.821505,92.6428332 133.438801,92.5483832 C132.65395,92.4942713 131.709971,91.8872337 131.197526,91.2044394 C130.476505,90.2461661 130.665301,87.5858262 131.469931,86.9640308 C132.140605,86.44554 133.173588,86.043144 133.935064,86.2074475 C135.322264,86.5085067 135.643216,87.8603213 135.545222,89.1344116 Z" id="Stroke-143" stroke="#676767" stroke-width="0.5"></path>
                    <path d="M16.7733582,4.78713862 C14.5930945,4.77616457 13.4866491,3.84794317 13.6526639,2.16891409 C13.8081228,0.606027012 15.162151,-0.154840193 17.4652465,0.0262315698 C19.0524631,0.151518598 20.1176448,1.19039497 20.0504712,2.54751869 C19.9765802,4.01163935 18.8269517,4.79719816 16.7733582,4.78713862" id="Fill-145" fill="#676767"></path>
                    <path d="M16.7733582,4.78713862 C14.5930945,4.77616457 13.4866491,3.84794317 13.6526639,2.16891409 C13.8081228,0.606027012 15.162151,-0.154840193 17.4652465,0.0262315698 C19.0524631,0.151518598 20.1176448,1.19039497 20.0504712,2.54751869 C19.9765802,4.01163935 18.8269517,4.79719816 16.7733582,4.78713862 Z" id="Stroke-147" stroke="#676767" stroke-width="0.5"></path>
                    <path d="M135.561392,78.2841491 C135.550326,80.3836659 134.669674,81.4605855 133.031016,81.3786253 C131.475351,81.3004771 130.705357,80.1577987 130.750542,77.9953821 C130.78835,76.1598536 131.722487,75.0057388 133.17026,75.0000207 C134.711171,74.9943025 135.572458,76.176055 135.561392,78.2841491" id="Fill-149" fill="#676767"></path>
                    <path d="M135.561392,78.2841491 C135.550326,80.3836659 134.669674,81.4605855 133.031016,81.3786253 C131.475351,81.3004771 130.705357,80.1577987 130.750542,77.9953821 C130.78835,76.1598536 131.722487,75.0057388 133.17026,75.0000207 C134.711171,74.9943025 135.572458,76.176055 135.561392,78.2841491 Z" id="Stroke-151" stroke="#676767" stroke-width="0.5"></path>
                    <path d="M135.561026,69.5690755 C135.541689,71.4499422 134.670607,72.5822619 133.224942,72.6060103 C131.730474,72.6307085 130.764549,71.4261939 130.748896,69.519679 C130.7314,67.2901871 131.70193,66.092322 133.410945,66.2348119 C134.889759,66.359253 135.582205,67.431727 135.561026,69.5690755" id="Fill-153" fill="#676767"></path>
                    <path d="M135.561026,69.5690755 C135.541689,71.4499422 134.670607,72.5822619 133.224942,72.6060103 C131.730474,72.6307085 130.764549,71.4261939 130.748896,69.519679 C130.7314,67.2901871 131.70193,66.092322 133.410945,66.2348119 C134.889759,66.359253 135.582205,67.431727 135.561026,69.5690755 Z" id="Stroke-155" stroke="#676767" stroke-width="0.5"></path>
                    <path d="M5.61496674,39.9495625 C5.61219789,42.127746 4.68740334,43.2278194 2.99010076,43.0702568 C1.47000432,42.9289279 0.739028982,41.7620098 0.806404234,39.5847812 C0.859935256,37.8449082 1.78288391,36.7314659 3.19591831,36.7028182 C4.73908846,36.6693958 5.61773558,37.8506378 5.61496674,39.9495625" id="Fill-157" fill="#676767"></path>
                    <path d="M5.61496674,39.9495625 C5.61219789,42.127746 4.68740334,43.2278194 2.99010076,43.0702568 C1.47000432,42.9289279 0.739028982,41.7620098 0.806404234,39.5847812 C0.859935256,37.8449082 1.78288391,36.7314659 3.19591831,36.7028182 C4.73908846,36.6693958 5.61773558,37.8506378 5.61496674,39.9495625 Z" id="Stroke-159" stroke="#676767" stroke-width="0.5"></path>
                    <path d="M76.9673974,5.58505726 C74.6739526,5.59420634 73.3813355,4.32431515 73.9173914,2.57318277 C74.3051765,1.30329159 75.2955493,0.856816876 76.5777114,0.808326794 C78.0014911,0.75434727 79.3729958,0.859561597 80.0031466,2.34445598 C80.7654105,4.1404188 79.3929553,5.5768231 76.9673974,5.58505726" id="Fill-161" fill="#676767"></path>
                    <path d="M76.9673974,5.58505726 C74.6739526,5.59420634 73.3813355,4.32431515 73.9173914,2.57318277 C74.3051765,1.30329159 75.2955493,0.856816876 76.5777114,0.808326794 C78.0014911,0.75434727 79.3729958,0.859561597 80.0031466,2.34445598 C80.7654105,4.1404188 79.3929553,5.5768231 76.9673974,5.58505726 Z" id="Stroke-163" stroke="#676767" stroke-width="0.5"></path>
                    <path d="M5.59321272,90.8118908 C5.59321272,92.9449007 4.96649385,94.1585264 3.61900307,94.1488791 C2.82769137,94.1440555 1.84375179,93.6182796 1.29932934,92.9834897 C0.497165367,92.0467405 0.74586333,89.5616055 1.47567881,88.657657 C2.20006815,87.7585321 3.14783348,87.5675162 4.12363385,87.9582304 C5.40872405,88.4733942 5.70535289,89.6436073 5.59321272,90.8118908" id="Fill-165" fill="#676767"></path>
                    <path d="M5.59321272,90.8118908 C5.59321272,92.9449007 4.96649385,94.1585264 3.61900307,94.1488791 C2.82769137,94.1440555 1.84375179,93.6182796 1.29932934,92.9834897 C0.497165367,92.0467405 0.74586333,89.5616055 1.47567881,88.657657 C2.20006815,87.7585321 3.14783348,87.5675162 4.12363385,87.9582304 C5.40872405,88.4733942 5.70535289,89.6436073 5.59321272,90.8118908 Z" id="Stroke-167" stroke="#676767" stroke-width="0.5"></path>
                    <path d="M4.81271485,130.929527 C4.80363272,132.88893 4.23599964,134.030775 2.92908123,134.042496 C2.12440458,134.048357 1.1353607,133.600019 0.551379788,132.995398 C-0.247847588,132.16905 -0.110707436,129.732983 0.531399104,128.73863 C1.16623994,127.754045 2.06718716,127.495201 3.10527454,127.753068 C4.31319773,128.052937 4.82179697,129.029708 4.81271485,130.929527" id="Fill-169" fill="#676767"></path>
                    <path d="M4.81271485,130.929527 C4.80363272,132.88893 4.23599964,134.030775 2.92908123,134.042496 C2.12440458,134.048357 1.1353607,133.600019 0.551379788,132.995398 C-0.247847588,132.16905 -0.110707436,129.732983 0.531399104,128.73863 C1.16623994,127.754045 2.06718716,127.495201 3.10527454,127.753068 C4.31319773,128.052937 4.82179697,129.029708 4.81271485,130.929527 Z" id="Stroke-171" stroke="#676767" stroke-width="0.5"></path>
                    <path d="M5.59897507,19.296219 C5.69210823,20.5120732 5.40631725,21.7202744 4.00384142,22.1918842 C3.0022034,22.5295683 2.05717573,22.3057211 1.36963387,21.3739808 C0.654699897,20.4058892 0.603567966,18.0813215 1.2828922,17.0405275 C1.91017143,16.0791322 2.80132795,15.7883221 3.85501097,16.047564 C5.09313417,16.35081 5.60262735,17.2758541 5.59897507,19.296219" id="Fill-173" fill="#676767"></path>
                    <path d="M5.59897507,19.296219 C5.69210823,20.5120732 5.40631725,21.7202744 4.00384142,22.1918842 C3.0022034,22.5295683 2.05717573,22.3057211 1.36963387,21.3739808 C0.654699897,20.4058892 0.603567966,18.0813215 1.2828922,17.0405275 C1.91017143,16.0791322 2.80132795,15.7883221 3.85501097,16.047564 C5.09313417,16.35081 5.60262735,17.2758541 5.59897507,19.296219 Z" id="Stroke-175" stroke="#676767" stroke-width="0.5"></path>
                    <path d="M21.0238132,135.624455 C18.841489,135.632555 17.6598023,135.046588 17.6471483,133.69103 C17.6393613,132.904339 18.1406534,131.917825 18.7675119,131.366961 C19.6863853,130.557767 22.2084201,130.778292 23.1331338,131.491175 C24.0539539,132.200457 24.260311,133.147367 23.8904256,134.11858 C23.3988673,135.406629 22.213287,135.711765 21.0238132,135.624455" id="Fill-177" fill="#676767"></path>
                    <path d="M21.0238132,135.624455 C18.841489,135.632555 17.6598023,135.046588 17.6471483,133.69103 C17.6393613,132.904339 18.1406534,131.917825 18.7675119,131.366961 C19.6863853,130.557767 22.2084201,130.778292 23.1331338,131.491175 C24.0539539,132.200457 24.260311,133.147367 23.8904256,134.11858 C23.3988673,135.406629 22.213287,135.711765 21.0238132,135.624455 Z" id="Stroke-179" stroke="#676767" stroke-width="0.5"></path>
                    <path d="M128.313079,5.58509947 C126.104305,5.58234807 125.011412,4.69089608 125.144551,3.00245666 C125.267154,1.45708979 126.508512,0.705958946 128.767094,0.80684343 C130.460551,0.883882491 131.592715,1.89639586 131.549613,3.29777306 C131.504594,4.7697694 130.347526,5.58785086 128.313079,5.58509947" id="Fill-181" fill="#676767"></path>
                    <path d="M128.313079,5.58509947 C126.104305,5.58234807 125.011412,4.69089608 125.144551,3.00245666 C125.267154,1.45708979 126.508512,0.705958946 128.767094,0.80684343 C130.460551,0.883882491 131.592715,1.89639586 131.549613,3.29777306 C131.504594,4.7697694 130.347526,5.58785086 128.313079,5.58509947 Z" id="Stroke-183" stroke="#676767" stroke-width="0.5"></path>
                    <path d="M57.138709,4.77221011 C55.0248533,4.77584733 54.0757359,4.23663012 53.8071722,2.94178137 C53.5867383,1.8760772 53.9323094,1.00860129 54.9170428,0.420281669 C55.942205,-0.192589156 58.2274025,-0.119844844 59.1563054,0.538491176 C60.1034976,1.20955745 60.3470338,2.14250325 60.0274527,3.14910266 C59.5798466,4.5603423 58.3756419,4.8640498 57.138709,4.77221011" id="Fill-185" fill="#676767"></path>
                    <path d="M57.138709,4.77221011 C55.0248533,4.77584733 54.0757359,4.23663012 53.8071722,2.94178137 C53.5867383,1.8760772 53.9323094,1.00860129 54.9170428,0.420281669 C55.942205,-0.192589156 58.2274025,-0.119844844 59.1563054,0.538491176 C60.1034976,1.20955745 60.3470338,2.14250325 60.0274527,3.14910266 C59.5798466,4.5603423 58.3756419,4.8640498 57.138709,4.77221011 Z" id="Stroke-187" stroke="#676767" stroke-width="0.5"></path>
                    <path d="M72.3870128,135.629136 C69.9566238,135.63361 68.6383129,134.624363 69.0626195,132.970917 C69.237276,132.289138 69.9566238,131.451678 70.6513026,131.206525 C72.0179647,130.723375 73.6579592,130.599903 74.7483286,131.697727 C75.2782185,132.231876 75.5140541,133.310016 75.3492652,134.042794 C75.0305419,135.461823 73.6569724,135.691767 72.3870128,135.629136" id="Fill-189" fill="#676767"></path>
                    <path d="M72.3870128,135.629136 C69.9566238,135.63361 68.6383129,134.624363 69.0626195,132.970917 C69.237276,132.289138 69.9566238,131.451678 70.6513026,131.206525 C72.0179647,130.723375 73.6579592,130.599903 74.7483286,131.697727 C75.2782185,132.231876 75.5140541,133.310016 75.3492652,134.042794 C75.0305419,135.461823 73.6569724,135.691767 72.3870128,135.629136 Z" id="Stroke-191" stroke="#676767" stroke-width="0.5"></path>
                    <path d="M36.8040144,5.58510638 C35.9197977,5.08085497 34.8369664,4.76807874 34.1971983,4.03024765 C33.1582914,2.83127212 33.8114277,0.809254026 35.2809845,0.245855826 C35.8128514,0.041348294 36.424928,0.00525872962 37.0016741,0.000246290123 C38.9763612,-0.0177984921 40.102162,0.956619747 40.1069364,2.62475961 C40.1117108,4.27986714 39.0116917,5.19614108 36.8040144,5.58510638" id="Fill-193" fill="#676767"></path>
                    <path d="M36.8040144,5.58510638 C35.9197977,5.08085497 34.8369664,4.76807874 34.1971983,4.03024765 C33.1582914,2.83127212 33.8114277,0.809254026 35.2809845,0.245855826 C35.8128514,0.041348294 36.424928,0.00525872962 37.0016741,0.000246290123 C38.9763612,-0.0177984921 40.102162,0.956619747 40.1069364,2.62475961 C40.1117108,4.27986714 39.0116917,5.19614108 36.8040144,5.58510638 Z" id="Stroke-195" stroke="#676767" stroke-width="0.5"></path>
                    <path d="M135.968345,58.4288638 C135.935404,60.4235081 135.011063,61.4667005 133.30113,61.4354898 C131.640109,61.405225 130.756694,60.3194726 130.748708,58.2974007 C130.737728,55.8166269 132.740136,54.2598774 134.567858,55.4742555 C135.420328,56.0417219 135.780682,57.2731239 136.363636,58.2047146 C136.231873,58.279431 136.100109,58.3541474 135.968345,58.4288638" id="Fill-197" fill="#676767"></path>
                    <path d="M135.968345,58.4288638 C135.935404,60.4235081 135.011063,61.4667005 133.30113,61.4354898 C131.640109,61.405225 130.756694,60.3194726 130.748708,58.2974007 C130.737728,55.8166269 132.740136,54.2598774 134.567858,55.4742555 C135.420328,56.0417219 135.780682,57.2731239 136.363636,58.2047146 C136.231873,58.279431 136.100109,58.3541474 135.968345,58.4288638 Z" id="Stroke-199" stroke="#676767" stroke-width="0.5"></path>
                    <path d="M92.2510735,135.638297 C90.0356299,135.639213 88.9279081,134.754826 89.0459755,133.080351 C89.1563638,131.517569 90.3706342,130.767763 92.6436716,130.858399 C94.3561289,130.927063 95.4753695,131.905747 95.4542517,133.315638 C95.4312142,134.795109 94.270698,135.637382 92.2510735,135.638297" id="Fill-201" fill="#676767"></path>
                    <path d="M92.2510735,135.638297 C90.0356299,135.639213 88.9279081,134.754826 89.0459755,133.080351 C89.1563638,131.517569 90.3706342,130.767763 92.6436716,130.858399 C94.3561289,130.927063 95.4753695,131.905747 95.4542517,133.315638 C95.4312142,134.795109 94.270698,135.637382 92.2510735,135.638297 Z" id="Stroke-203" stroke="#676767" stroke-width="0.5"></path>
                    <path d="M135.561497,38.3350731 C135.561497,40.3090639 134.999242,41.4561392 133.717801,41.488548 C132.950192,41.5081897 131.922528,41.1713345 131.446359,40.5771731 C130.494918,39.3917965 130.610598,37.7595713 131.231142,36.4642012 C131.554865,35.7845984 132.559213,35.214007 133.311578,35.1226731 C134.761606,34.9449157 135.560601,36.2353754 135.561497,38.3350731" id="Fill-205" fill="#676767"></path>
                    <path d="M135.561497,38.3350731 C135.561497,40.3090639 134.999242,41.4561392 133.717801,41.488548 C132.950192,41.5081897 131.922528,41.1713345 131.446359,40.5771731 C130.494918,39.3917965 130.610598,37.7595713 131.231142,36.4642012 C131.554865,35.7845984 132.559213,35.214007 133.311578,35.1226731 C134.761606,34.9449157 135.560601,36.2353754 135.561497,38.3350731 Z" id="Stroke-207" stroke="#676767" stroke-width="0.5"></path>
                    <path d="M135.560441,18.4774837 C135.530944,20.48017 134.657087,21.5761961 133.116775,21.5417659 C131.595822,21.5073358 130.755149,20.3816616 130.748696,18.3713241 C130.741322,16.0645049 131.963616,14.8039793 133.776777,15.2477455 C135.038708,15.5566604 135.589017,16.554178 135.560441,18.4774837" id="Fill-209" fill="#676767"></path>
                    <path d="M135.560441,18.4774837 C135.530944,20.48017 134.657087,21.5761961 133.116775,21.5417659 C131.595822,21.5073358 130.755149,20.3816616 130.748696,18.3713241 C130.741322,16.0645049 131.963616,14.8039793 133.776777,15.2477455 C135.038708,15.5566604 135.589017,16.554178 135.560441,18.4774837 Z" id="Stroke-211" stroke="#676767" stroke-width="0.5"></path>
                </g>
            </g>
        </g>
    </g>
</svg>