<?xml version="1.0" encoding="UTF-8"?>
<svg width="136px" height="134px" viewBox="0 0 136 134" version="1.1" xmlns="http://www.w3.org/2000/svg" xmlns:xlink="http://www.w3.org/1999/xlink">
    <!-- Generator: Sketch 52.6 (67491) - http://www.bohemiancoding.com/sketch -->
    <title>Group 9</title>
    <desc>Created with Sketch.</desc>
    <defs>
        <polygon id="path-1" points="0.219053975 0.199474626 68.6778988 0.199474626 68.6778988 98.2278286 0.219053975 98.2278286"></polygon>
    </defs>
    <g id="Welcome" stroke="none" stroke-width="1" fill="none" fill-rule="evenodd">
        <g id="Company-Building" transform="translate(-727.000000, -2789.000000)">
            <g id="Group-7" transform="translate(161.000000, 2698.000000)">
                <g id="Group-5" transform="translate(560.000000, 82.000000)">
                    <g id="Group-9" transform="translate(6.140351, 9.650307)">
                        <g id="Group-3" fill="#7A7A7A">
                            <path d="M114.769021,26.9154156 C112.612403,24.7653168 110.567413,22.7271621 108.429292,20.5960423 C103.344723,24.3696523 98.1284083,28.1532343 93.0276148,32.0841451 C91.6446018,33.1501875 90.7220523,33.0819916 89.169002,32.3344109 C85.4463541,30.5420185 81.6117542,28.8937381 77.6713677,27.6642831 C75.7100982,27.0521289 75.0896569,26.1864922 74.8449849,24.3474565 C74.024977,18.1892441 73.0556997,12.0509757 72.1045943,5.64314085 C69.281132,5.64314085 66.504073,5.60582615 63.7312325,5.69364437 C63.4086809,5.70393808 62.8956486,6.37463767 62.8300999,6.79410638 C61.8974909,12.7548082 60.9888948,18.7193702 60.1682379,24.6958342 C59.9547178,26.2508279 59.4485,27.0061289 57.7614318,27.5658494 C53.1405717,29.098969 48.6595706,31.0460887 43.6791661,33.0038238 C39.206602,29.6847454 34.1797942,25.9658208 29.1659664,22.2298472 C26.3246567,20.1125596 27.0236266,20.3827695 24.8257976,22.6805187 C23.7987596,23.7546031 22.8567401,24.9129672 21.7820008,25.9362264 C20.8299219,26.8427163 20.8406304,27.5420452 21.6564198,28.5942555 C25.4069746,33.4335862 29.0397364,38.3623435 32.7818542,43.2081078 C33.5739553,44.2336187 33.6751989,44.9763743 32.948971,46.1189762 C30.3834851,50.1560408 28.4364935,54.4594553 27.5924727,59.2145062 C27.5051826,59.7050659 26.7052935,60.3493878 26.1559174,60.4384928 C19.9067234,61.45371 13.6471455,62.4103817 7.37685906,63.2901723 C5.92115836,63.4941164 5.48243625,64.0419348 5.75177009,65.8697118 C5.96593916,67.3217684 5.95036323,68.7973075 5.75761106,70.2525808 C5.54798497,71.8326654 5.74755161,72.5860364 7.12212766,72.7777567 C13.0860874,73.6096172 19.0354447,74.5447365 25.0029739,75.3482893 C26.5836065,75.5612404 27.3234633,76.0855763 27.8991239,77.7441504 C29.3671555,81.9719704 31.2142015,86.0778742 33.068062,90.161904 C33.5489689,91.2211911 33.5554589,91.871625 32.8584359,92.7758631 C29.1205366,97.6254875 25.4689539,102.540734 21.7219686,107.38296 C20.919808,108.420052 20.8974176,109.068877 21.8881118,110.006248 C23.5917295,111.617214 25.1337468,113.395452 26.8243845,115.189131 C29.0183195,113.611299 30.9127423,112.248025 33.0502146,110.710402 C34.1622713,112.197522 35.2447986,113.645075 36.4366819,115.239313 C33.0846114,117.707874 29.8584464,120.083469 26.7130815,122.399554 C22.2599872,117.954601 17.8938586,113.595858 13.3810566,109.090429 C13.5932787,108.78773 13.9560681,108.234765 14.3539034,107.707855 C18.1910993,102.623727 22.0107723,97.5257672 25.8963185,92.4773455 C26.6806316,91.4589115 26.7864182,90.6576105 26.1987512,89.4567848 C25.1029194,87.2182244 24.050246,84.9513563 23.3373226,82.5657888 C22.9326728,81.2112009 22.2758877,80.6656342 21.036303,80.4906411 C14.8276714,79.6150323 8.62974815,78.660934 2.41430201,77.8351854 C0.382616296,77.5649755 -0.382226898,77.0033249 0.178506678,73.712876 C0.84664929,69.7903289 0.91836348,65.7831803 0.21290353,61.8673885 C-0.272546372,59.1730097 0.172990202,58.5483101 1.83280053,58.3218485 C8.10698091,57.4655404 14.3668833,56.507582 20.6400902,55.643232 C22.1194793,55.4392878 22.8638791,54.8818191 23.2925418,53.1669512 C23.8325074,51.0049503 24.7813413,48.9725858 25.8969675,47.0392983 C26.8217885,45.4366962 26.5586201,44.4295209 25.54586,43.1222197 C21.4175889,37.7942594 17.3882898,32.3907046 13.2045294,26.8588002 C17.4785004,22.2214835 21.740465,17.5967124 26.1104876,12.8548502 C30.2527122,15.9300963 34.3258186,18.9529087 38.397627,21.9773296 C40.0399144,23.197456 41.7149761,24.3776942 43.3059928,25.6602263 C44.412533,26.5519189 45.2033361,26.4682825 46.8822918,25.3826178 C48.5197117,24.3239739 50.3330099,23.5538757 52.2478761,23.1643231 C54.1864307,22.770267 54.7663097,22.1388122 54.9665254,20.7626717 C55.8426716,14.7312006 56.7522411,8.70423306 57.6543472,2.67630044 C57.7818752,1.82546091 57.931469,0.977838177 58.0904733,0.00701259039 L76.9986821,0.00701259039 C77.3510876,2.27195061 77.7200425,4.61312643 78.0795869,6.95591064 C78.8080863,11.702598 79.4908313,16.4563622 80.3075943,21.187609 C80.4104604,21.7840008 81.1016424,22.4926585 81.6974218,22.7561131 C84.2444113,23.8832745 86.9043263,24.7646734 89.4243824,25.9429816 C90.5059362,26.4483385 91.1708339,26.3466881 92.06645,25.6708417 C97.2616725,21.7492596 102.522444,17.913244 107.702415,13.9723612 C108.811227,13.1289203 109.466389,13.1253818 110.471361,14.1470326 C114.420185,18.1615797 118.46798,22.079945 122.582947,26.1359887 C120.014541,29.5303398 117.52661,32.8188587 115.037706,36.1067342 C113.208507,38.5228611 111.317654,40.8968481 109.595864,43.3856743 C109.21328,43.9383179 109.166228,44.9869897 109.40798,45.6480389 C110.315602,48.13204 111.528902,50.5092438 112.379089,53.0096504 C112.827546,54.3288538 113.493417,54.8268121 114.82451,55.0124205 C121.465049,55.9391762 128.092933,56.952785 134.724711,57.9387295 C134.960622,57.9737924 135.192314,58.0394148 135.620976,58.1336666 L135.620976,60.1399751 C135.620976,65.0735577 135.578791,70.0077835 135.647585,74.940401 C135.667055,76.3458142 135.368841,76.9476746 133.776851,77.1561222 C127.376116,77.9921645 121.005235,79.0524167 114.613586,79.9611584 C113.393471,80.1345431 112.922299,80.5961516 112.516027,82.0221522 C111.864758,84.307356 110.904567,86.4928395 109.742862,88.5699173 C108.981913,89.9309388 108.905007,90.7238762 109.752922,91.8262683 C113.712778,96.9724803 117.601245,102.173056 121.511777,107.356904 C121.842441,107.795352 122.15396,108.247954 122.409016,108.602765 C117.946836,113.033242 113.558966,117.389412 109.057846,121.857847 C105.890739,119.534042 102.658733,117.162629 99.2664249,114.673159 C100.40217,113.130711 101.451274,111.705032 102.62823,110.106612 C104.219571,111.264976 105.790145,112.328123 107.265315,113.509005 C108.215772,114.270096 108.880345,114.318348 109.777259,113.382263 C111.401699,111.686053 113.163726,110.119801 114.991627,108.382093 C114.509422,107.672792 114.165453,107.115324 113.772486,106.594848 C110.158545,101.806664 106.573484,96.9962845 102.888803,92.262786 C102.057437,91.1948135 102.05549,90.4430509 102.762897,89.3342253 C105.338443,85.2958739 107.224428,80.9670469 108.120369,76.2335484 C108.227778,75.6651426 108.79922,75.1269745 109.375205,75.0359395 C115.320993,74.0963167 121.279112,73.23068 127.239502,72.3837006 C129.967886,71.9960781 129.97827,72.0330711 129.986058,69.3573497 C129.990601,67.692342 129.934138,66.0260476 129.986383,64.3626483 C130.019806,63.283417 129.565832,62.8259903 128.506993,62.6767315 C122.482677,61.827822 116.469718,60.8991363 110.440534,60.0888283 C109.046164,59.9012897 108.399438,59.4432196 107.88024,58.0111071 C106.332057,53.7421123 104.535309,49.5548238 102.660356,45.4135353 C102.147323,44.2799404 102.156409,43.594122 102.902107,42.6287649 C106.493333,37.9785811 110.011547,33.272747 113.552151,28.5842834 C113.99282,28.0007587 114.414019,27.4030801 114.769021,26.9154156" id="Fill-1"></path>
                        </g>
                        <path d="M83.5949405,54.0703643 C85.2727194,55.8046406 86.6559141,57.2344157 87.9239766,58.54515 C79.5736741,67.659325 71.3137408,76.6740319 63.1252024,85.6114102 C58.8254317,80.8876332 54.3983082,76.023959 49.8538012,71.031297 C51.0929198,69.8110468 52.5076312,68.4175294 54.0982569,66.8507448 C56.8916606,69.9849557 59.8690186,73.3248413 62.9756591,76.8103996 C70.0408544,69.0188307 76.8098575,61.5532609 83.5949405,54.0703643" id="Fill-4" fill="#7A7A7A"></path>
                        <g id="Group-8" transform="translate(33.538012, 34.244564)">
                            <mask id="mask-2" fill="white">
                                <use xlink:href="#path-1"></use>
                            </mask>
                            <g id="Clip-7"></g>
                            <path d="M52.3198763,56.6527542 C49.5932411,59.0520419 47.5844151,61.7654641 46.9026751,65.3181993 L21.6880419,65.3181993 C21.0342474,61.844565 19.1108826,59.0063319 16.1567841,56.5201629 C9.95385954,51.2991755 6.64979245,44.4621296 6.05708805,36.2093711 C4.9792369,21.2038546 15.6258197,8.17910386 29.6291111,5.67769816 C44.7352746,2.97918845 59.5782306,13.6270202 62.136218,29.1855951 C63.9461761,40.1935955 60.5611971,49.4004283 52.3198763,56.6527542 M47.5616688,83.9001165 C47.5405472,86.7873014 45.5599916,89.0001832 42.6845304,89.0510801 C37.5929266,89.1408791 32.4983983,89.0779874 27.4054948,89.0728004 C27.242696,89.0728004 27.0802222,89.0047217 26.9174235,88.9684131 C26.9050755,88.8543002 26.8927275,88.7401874 26.8807044,88.6260745 C31.7984612,86.9351295 36.7158931,85.2445086 41.7896247,83.5000731 C41.410086,82.352785 41.1251069,81.2434265 40.6461342,80.2245154 C40.529478,79.9765145 39.7119099,79.8403571 39.3219727,79.9697066 C34.8513438,81.4496077 30.4011866,82.991428 25.9455052,84.5163908 C24.8540063,84.8901752 23.7547086,85.2438602 22.6719832,85.6426068 C21.9902432,85.8932013 21.5678113,85.7314333 21.5060713,84.9900239 C21.4186604,83.9367493 21.3257254,82.8776394 21.3624444,81.8250131 C21.3728428,81.5277361 21.7754528,81.0832795 22.0883774,80.9814857 C30.3823396,78.2751955 38.6883249,75.6048898 46.9943103,72.9358809 C47.1132411,72.8976271 47.2633669,72.9576012 47.5629686,72.9890471 L47.5629686,79.7427776 C47.5629686,81.1283411 47.5720671,82.5142288 47.5616688,83.9001165 M21.3315744,70.2911857 C21.3374235,70.2052769 21.3367736,70.1226099 21.3413229,70.0373495 L42.3010922,70.0373495 C35.6295933,72.1811799 28.9632935,74.3421922 22.295044,76.4970449 C22.0848029,76.5651236 21.8553899,76.5745249 21.3088281,76.6656207 C21.3088281,74.4248592 21.1908721,72.3494316 21.3315744,70.2911857 M68.113304,28.4561805 C64.8401069,9.16721746 46.5761027,-2.94592714 27.2784403,0.916079861 C9.13954088,4.54597094 -3.07816352,23.4660123 1.0093522,41.4601834 C2.82028512,49.4328467 6.88375472,55.9389005 13.2403795,61.0396155 C15.9107987,63.1824735 17.2759036,65.8900603 17.2183878,69.325765 C17.1780943,71.7282945 17.2105891,74.1321208 17.2105891,76.5349745 C17.2105891,79.0769032 17.1943417,81.6188319 17.2141635,84.1604364 C17.2469832,88.3372264 19.9232516,91.8452242 24.0162914,92.8544097 C25.3378532,93.1802149 26.7747715,93.0106665 28.1382516,93.2093915 C28.5993522,93.2764976 29.2511971,93.6959921 29.3821509,94.0957112 C30.2699078,96.8042707 31.9134927,98.208961 34.4272872,98.2277637 C36.9485556,98.2462422 38.7607883,96.8610029 39.5049182,94.1715703 C39.7271824,93.3688901 40.0888491,93.1633573 40.8401279,93.1601155 C42.0859769,93.1546043 43.36887,93.2320844 44.5698763,92.9711161 C48.9482201,92.0202836 51.7872872,88.356029 51.8181572,83.7120896 C51.8490273,79.0444848 51.9156415,74.3739622 51.7833878,69.7095992 C51.6761551,65.9221546 53.2056834,63.1156915 56.054174,60.7144587 C66.1129266,52.2363922 70.2982516,41.3334274 68.113304,28.4561805" id="Fill-6" fill="#7A7A7A" mask="url(#mask-2)"></path>
                        </g>
                    </g>
                </g>
            </g>
        </g>
    </g>
</svg>