<?xml version="1.0" encoding="UTF-8"?>
<svg width="153px" height="153px" viewBox="0 0 153 153" version="1.1" xmlns="http://www.w3.org/2000/svg" xmlns:xlink="http://www.w3.org/1999/xlink">
    <!-- Generator: Sketch 52.6 (67491) - http://www.bohemiancoding.com/sketch -->
    <title>Innovationconsulting-01 2</title>
    <desc>Created with Sketch.</desc>
    <g id="Welcome" stroke="none" stroke-width="1" fill="none" fill-rule="evenodd">
        <g id="Corporate" transform="translate(-259.000000, -1979.000000)" fill="#676767">
            <g id="Group-8" transform="translate(193.000000, 1910.000000)">
                <g id="Innovationconsulting-01-2" transform="translate(67.500000, 71.000000)">
                    <g id="Innovationconsulting-01" transform="translate(0.462963, 0.000000)">
                        <path d="M46.7625487,121.429342 C46.1000398,121.429342 45.5904175,121.429342 45.0807952,121.429342 C36.5497183,121.429342 28.0186413,121.429342 19.4875643,121.429342 C14.8500016,121.429342 10.6710989,120.086715 7.08335807,117.07349 C3.38350032,113.957775 1.21250941,109.96064 0.600962679,105.133332 C0.468460887,104.108425 0.417498659,103.07327 0.417498659,102.038114 C0.407306213,74.4476362 0.407306213,46.867407 0.407306213,19.2871778 C0.407306213,13.7424346 2.37444821,8.99711833 6.42084911,5.21521399 C9.46839034,2.36597441 13.1070934,0.572388343 17.3165734,0.459648647 C24.1353195,0.285414572 30.9540656,0.254667383 37.7728117,0.244418319 C56.1192138,0.21367113 74.4758083,0.234169256 92.8222103,0.234169256 C105.185647,0.234169256 117.549083,0.162425813 129.902327,0.264916446 C139.483226,0.346908952 146.75044,6.76282254 148.401616,15.9972285 C148.605465,17.1348745 148.62585,18.3135168 148.62585,19.471661 C148.63507,44.3920383 148.58591,69.3124156 148.644339,94.2327929 C148.650504,96.8618976 148.657866,99.4910022 148.66662,102.120107 C148.707389,113.045608 140.329199,121.511335 129.474245,121.439591 C116.24445,121.357599 103.014656,121.429342 89.7848616,121.408844 C88.7961943,121.408844 88.011376,121.67532 87.2163653,122.269765 C77.0952668,129.936065 66.9537834,137.571617 56.8123001,145.217418 C55.3751653,146.303819 53.927838,147.390219 52.5008956,148.497118 C51.3389568,149.399036 50.0547087,149.686009 48.7194983,149.040318 C47.3129408,148.36388 46.7319714,147.154491 46.7319714,145.565886 C46.7625487,137.961081 46.7421638,130.356276 46.7421638,122.741222 C46.7625487,122.362007 46.7625487,121.982791 46.7625487,121.429342 Z M55.9255573,134.527645 C57.678658,133.195267 59.1769475,132.037123 60.6854294,130.899477 C68.7374614,124.832031 76.779301,118.774835 84.8415254,112.727887 C85.1676837,112.48191 85.6365362,112.317925 86.0544265,112.307676 C87.6342555,112.25643 89.2038922,112.287178 90.7837212,112.287178 C103.789282,112.287178 116.794842,112.297427 129.800403,112.287178 C135.518365,112.276929 139.493419,108.249047 139.483226,102.530069 C139.483226,74.7243609 139.483226,46.9289014 139.483226,19.1231928 C139.483226,18.5799925 139.493419,18.016294 139.391494,17.4833427 C138.433404,12.4510526 134.825279,9.46857524 129.708671,9.46857524 C112.911521,9.46857524 96.1041778,9.46857524 79.3070275,9.46857524 C59.258487,9.46857524 39.1997541,9.46857524 19.1512136,9.46857524 C13.5759459,9.46857524 9.58050724,13.5272043 9.58050724,19.1334419 C9.58050724,47.0006448 9.58050724,74.8678478 9.59069969,102.735051 C9.59069969,103.595972 9.69262414,104.487641 9.9066655,105.317815 C11.0278345,109.622421 14.6257678,112.297427 19.273523,112.297427 C31.0559901,112.307676 42.8384572,112.297427 54.6107318,112.307676 C55.0184297,112.307676 55.4261275,112.307676 55.9255573,112.307676 C55.9255573,119.676752 55.9255573,126.943338 55.9255573,134.527645 Z" id="Shape" stroke="#F8F8F8" stroke-width="3" fill-rule="nonzero"></path>
                        <path d="M37.9623177,35.6708468 C39.9701884,37.494372 41.9676555,39.327972 43.9755262,41.1514972 C45.2031362,42.2697916 47.1693929,42.33024 48.3865995,41.1514972 C49.5517887,40.023128 49.6142095,37.9981083 48.3865995,36.8798138 C46.3787289,35.0562886 44.3812617,33.2226887 42.373391,31.3991635 C41.145781,30.280869 39.1795243,30.2204207 37.9623177,31.3991635 C36.7971285,32.5275327 36.7347077,34.5525524 37.9623177,35.6708468 Z" id="Path"></path>
                        <path d="M99.0654734,91.4085518 C101.072063,93.232077 103.068256,95.0656769 105.074845,96.8892021 C106.301672,98.0074966 108.266674,98.0679449 109.483104,96.8892021 C110.64755,95.7608329 110.709931,93.7358132 109.483104,92.6175187 C107.476515,90.7939935 105.480322,88.9603936 103.473732,87.1368684 C102.246906,86.0185739 100.281903,85.9581256 99.0654734,87.1368684 C97.8906308,88.2652376 97.8282498,90.2801826 99.0654734,91.4085518 Z" id="Path"></path>
                        <path d="M105.071458,31.402417 C103.063588,33.2247255 101.06612,35.057102 99.0582497,36.8794105 C97.8306397,37.9969588 97.8930605,40.0206273 99.0582497,41.1482436 C100.28586,42.336268 102.241713,42.2657919 103.469323,41.1482436 C105.477194,39.3259352 107.474661,37.4935587 109.482531,35.6712502 C110.710142,34.5537019 110.647721,32.5300333 109.482531,31.402417 C108.265325,30.2143927 106.309472,30.2848687 105.071458,31.402417 Z" id="Path"></path>
                        <path d="M43.9755262,86.3238896 C41.9676555,88.1456073 39.9701884,89.9773898 37.9623177,91.7991075 C36.7347077,92.9162935 36.7971285,94.939306 37.9623177,96.0665568 C39.1899278,97.254196 41.145781,97.1837428 42.373391,96.0665568 C44.3812617,94.244839 46.3787289,92.4130566 48.3865995,90.5913388 C49.6142095,89.4741528 49.5517887,87.4511403 48.3865995,86.3238896 C47.1589895,85.1362504 45.2031362,85.1966388 43.9755262,86.3238896 Z" id="Path"></path>
                        <path d="M111.892814,64.0974053 C113.340484,63.9046068 114.777739,63.7016611 116.225409,63.5088626 C117.850132,63.2856223 118.881206,61.1851338 118.412536,59.7645136 C117.839717,58.0293274 116.308728,57.4001956 114.569441,57.6335832 C113.121771,57.8263817 111.684516,58.0293274 110.236846,58.2221259 C108.612122,58.4453662 107.581048,60.5458547 108.049718,61.9664749 C108.622537,63.7016611 110.153527,64.3307929 111.892814,64.0974053 Z" id="Path"></path>
                        <path d="M70.4639749,20.5440163 C70.4639749,22.2918575 70.4639749,24.0292949 70.4639749,25.7771361 C70.4639749,27.4625544 71.9628618,28.8982811 73.7224246,28.8982811 C75.492849,28.8982811 76.9808743,27.4729583 76.9808743,25.7771361 C76.9808743,24.0292949 76.9808743,22.2918575 76.9808743,20.5440163 C76.9808743,18.858598 75.4819875,17.4228713 73.7224246,17.4228713 C71.9520003,17.4228713 70.4639749,18.8481942 70.4639749,20.5440163 Z" id="Path"></path>
                        <path d="M37.2286368,58.28797 C35.7797811,58.0673259 34.3204264,57.8466818 32.8715707,57.636067 C31.2547317,57.3953643 29.4069157,58.0272088 28.9974565,59.7422152 C28.650991,61.1864311 29.4594105,63.1822573 31.2022369,63.4430185 C32.6510926,63.6636626 34.1104473,63.8843067 35.5593031,64.0949216 C37.1761421,64.3356242 39.0239581,63.7037797 39.4334173,61.9887733 C39.7693839,60.5445574 38.9714633,58.5487312 37.2286368,58.28797 Z" id="Path"></path>
                        <path d="M70.4639749,102.511229 C70.4639749,104.259071 70.4639749,105.996508 70.4639749,107.744349 C70.4639749,109.429768 71.9628618,110.865494 73.7224246,110.865494 C75.492849,110.865494 76.9808743,109.440171 76.9808743,107.744349 C76.9808743,105.996508 76.9808743,104.259071 76.9808743,102.511229 C76.9808743,100.825811 75.4819875,99.3900844 73.7224246,99.3900844 C71.9520003,99.3900844 70.4639749,100.825811 70.4639749,102.511229 Z" id="Path"></path>
                        <path d="M101.412596,63.7629732 C101.412596,68.3089446 101.42278,72.8652243 101.402413,77.4111956 C101.392229,78.9780611 100.730283,80.1944434 99.3758386,80.9984928 C96.3207017,82.812758 93.2655649,84.6167149 90.210428,86.4206718 C86.147096,88.8225115 82.083764,91.2243513 78.0102482,93.626191 C77.3381181,94.0282157 76.665988,94.4302404 75.9836741,94.8013401 C74.537576,95.5847728 73.1627644,95.3786063 71.7879528,94.5436319 C68.7837349,92.7293667 65.7489657,90.9666431 62.734564,89.1833029 C59.6590596,87.3690377 56.5733713,85.5547725 53.4978669,83.7405073 C51.9499309,82.8333746 50.4019949,81.926242 48.8642427,80.9984928 C47.5199825,80.1944434 46.8478524,78.9677527 46.8478524,77.4111956 C46.8376686,68.3089446 46.8376686,59.2066935 46.8478524,50.1044425 C46.8478524,48.5272688 47.5199825,47.3005781 48.8846103,46.4862204 C51.9804823,44.6616468 55.0661705,42.8370733 58.1518587,41.0124998 C60.7589088,39.4765593 63.3557751,37.9406189 65.9628253,36.4046785 C68.0505021,35.1676794 70.1381789,33.9203721 72.2462234,32.7142981 C73.4886457,32.0030236 74.781987,31.9927153 76.0142255,32.7142981 C79.1610164,34.5491799 82.2874398,36.4149868 85.4342308,38.260177 C88.1634863,39.8682757 90.9029257,41.4660661 93.6321813,43.0741648 C95.5874689,44.2286972 97.5427565,45.3729213 99.4776765,46.5480703 C100.760834,47.3211947 101.402413,48.5272688 101.402413,50.0219759 C101.432964,54.6091806 101.412596,59.1860769 101.412596,63.7629732 Z M61.9707798,57.825378 C66.0341118,64.4948643 70.0465248,71.1025007 74.1302244,77.8132203 C78.2241078,71.081884 82.2365209,64.4742477 86.2794853,57.825378 C78.1528213,57.825378 70.1178114,57.825378 61.9707798,57.825378 Z M62.5614396,53.8669811 C70.3113034,53.8669811 77.9695131,53.8669811 85.7091931,53.8669811 C81.8393531,48.9705267 78.0102482,44.1256139 74.1404082,39.2291595 C70.2502006,44.1256139 66.4312796,48.9705267 62.5614396,53.8669811 Z M70.2502006,79.0811443 C70.280752,79.0502193 70.3011196,79.008986 70.3316709,78.9780611 C66.5942202,72.8342993 62.8567695,66.6802292 59.1193187,60.5364675 C59.0785836,60.5364675 59.0480322,60.5364675 59.007297,60.5467758 C57.2149501,65.9998798 55.4124193,71.4529837 53.5997048,76.9679377 C59.200789,77.6792121 64.7204029,78.3801782 70.2502006,79.0811443 Z M94.660744,76.9679377 C92.8378457,71.4323671 91.0454988,65.9895715 89.2531518,60.5467758 C89.2124167,60.5364675 89.1716815,60.5364675 89.1411301,60.5261592 C85.4036794,66.6802292 81.6662287,72.8342993 77.9287779,78.9883694 C77.9593293,79.0192944 77.9898806,79.0502193 78.020432,79.0811443 C83.5400459,78.3801782 89.0596598,77.6792121 94.660744,76.9679377 Z M58.1925939,53.1763234 C61.9198608,48.4551105 65.636944,43.7545142 69.3540272,39.053918 C69.3234758,39.022993 69.2929244,38.992068 69.2725568,38.9611431 C63.702024,42.2494988 58.1314911,45.5275462 52.4998555,48.8468268 C54.4347755,50.3209173 56.298409,51.7331579 58.1925939,53.1763234 Z M78.987892,38.9714514 C78.9573406,39.0023764 78.9369731,39.0333013 78.9064217,39.0642263 C82.6235049,43.7648226 86.3304042,48.4654188 90.0576712,53.1763234 C91.9416722,51.7434662 93.8053057,50.3312256 95.7096744,48.8777518 C90.0984064,45.5481628 84.5482411,42.2598071 78.987892,38.9714514 Z M97.4409186,73.0301575 C97.4714699,73.0198492 97.4918375,73.0198492 97.5223889,73.0095408 C97.5223889,66.164813 97.5223889,59.3200851 97.5223889,52.4238156 C97.3899996,52.5062822 97.2983455,52.5475155 97.2066914,52.6093655 C95.5569175,53.8566728 93.9173274,55.1142885 92.2573697,56.3512875 C92.0129588,56.5368373 92.0333264,56.7017705 92.1147967,56.969787 C93.7849381,62.0208663 95.4448958,67.0822539 97.1150373,72.1436415 C97.2066914,72.442583 97.3288969,72.7415244 97.4409186,73.0301575 Z M50.73806,52.3825823 C50.73806,59.3613184 50.73806,66.2060463 50.73806,73.0507741 C51.0130223,72.4941246 51.2065143,71.9065501 51.4000063,71.3292838 C52.9683099,66.5565293 54.5366134,61.7837748 56.1252846,57.0110203 C56.2474901,56.6502289 56.1762035,56.4749874 55.9012412,56.2791292 C54.8421271,55.4853882 53.7931968,54.6813388 52.7340827,53.8772895 C52.1128715,53.4031065 51.4712928,52.9289236 50.73806,52.3825823 Z M91.0454988,81.4417508 C91.0251312,81.4005175 91.0149474,81.3695925 90.9945798,81.3283592 C86.0248906,81.957167 81.0552013,82.5859748 76.0956958,83.2147827 C76.0956958,85.5856974 76.0956958,87.9050706 76.0956958,90.2862937 C81.116304,87.3174961 86.0859933,84.3796234 91.0454988,81.4417508 Z M57.3677069,81.3489758 C57.3473393,81.3799008 57.3269718,81.4211341 57.3066042,81.4520591 C62.2457421,84.3796234 67.18488,87.3071877 72.1749368,90.265677 C72.1749368,87.8638373 72.1749368,85.5650808 72.1749368,83.225091 C67.2357989,82.5962832 62.3068448,81.9777837 57.3677069,81.3489758 Z" id="Shape" fill-rule="nonzero"></path>
                    </g>
                </g>
            </g>
        </g>
    </g>
</svg>