<?xml version="1.0" encoding="UTF-8"?>
<svg width="46px" height="42px" viewBox="0 0 46 42" version="1.1" xmlns="http://www.w3.org/2000/svg" xmlns:xlink="http://www.w3.org/1999/xlink">
    <!-- Generator: Sketch 52.6 (67491) - http://www.bohemiancoding.com/sketch -->
    <title>Group 20</title>
    <desc>Created with Sketch.</desc>
    <defs>
        <polygon id="path-1" points="0.0676947555 0.00511111111 1.98411192 0.00511111111 1.98411192 6.97199654 0.0676947555 6.97199654"></polygon>
    </defs>
    <g id="Welcome" stroke="none" stroke-width="1" fill="none" fill-rule="evenodd">
        <g id="Corporate-Acceleration" transform="translate(-248.000000, -5037.000000)">
            <g id="Group-7" transform="translate(0.000000, 4808.000000)">
                <g id="Group-20" transform="translate(248.000000, 229.000000)">
                    <path d="M22.4970432,36.83262 L22.4970432,36.8303979 C22.7697099,36.8303979 23.0424856,36.8300805 23.3152614,36.8305037 C23.5880371,36.8310328 23.8608129,36.8329375 24.1335887,36.8331491 C24.8949376,36.8336782 24.8946101,36.8333607 24.893846,36.067477 C24.8927545,35.0625589 24.8856595,34.0577466 24.8933003,33.0530401 C24.900177,32.1624014 25.0379293,31.9819881 25.9078864,31.6465568 C29.9558612,30.0857964 32.4140086,26.0166028 31.7825529,21.9216964 C31.000683,16.8504417 26.2473552,13.4696758 20.9789299,14.2375699 C16.5304691,14.8859998 13.0631934,18.8326604 13.1162422,23.1874467 C13.1625235,26.994115 15.4851016,30.2617655 19.1397947,31.6620057 C19.936182,31.9671741 20.0931454,32.1770038 20.0987123,32.9990748 C20.1061348,34.0567943 20.1329866,35.1155719 20.0909624,36.1717041 C20.0690224,36.721515 20.2612425,36.8848923 20.8066849,36.8423549 C21.3667539,36.7986536 21.933263,36.83262 22.4970432,36.83262 M22.4540366,38.9982149 C21.3991727,38.9977916 20.3443087,38.9987439 19.2894448,38.99758 C18.3134992,38.996416 17.908538,38.6010939 17.9066823,37.6458027 C17.9046084,36.4468212 17.8945662,35.2477339 17.9112668,34.0490698 C17.9166153,33.6712071 17.7970918,33.4521715 17.4301161,33.2692187 C13.8081692,31.4639214 11.6488854,28.5773081 11.1061719,24.6903267 C10.2963586,18.8909641 14.2015601,13.5999331 20.0045124,12.2771489 C25.9936814,10.9119332 32.5347329,14.704105 33.7931689,21.1482999 C34.7630019,26.1142694 32.2603198,30.9570711 27.5841639,33.2611768 C27.1969947,33.4519599 27.0713585,33.6774501 27.0792176,34.0789095 C27.1022491,35.2774677 27.0974463,36.4766608 27.0886049,37.6754307 C27.0819465,38.60448 26.6766578,38.9927125 25.7278915,38.9973683 C24.6366793,39.0025532 23.5453579,38.9985323 22.4540366,38.9982149" id="Fill-1" fill="#676767"></path>
                    <path d="M5.05738651,36 C4.59480189,35.9467574 4.29317275,35.7467756 4.10983738,35.3727888 C3.89213287,34.9284068 4.01282449,34.5333015 4.34172915,34.1995688 C5.00323513,33.5282367 5.67673035,32.8685049 6.34572961,32.2044106 C6.65085562,31.901513 6.94708961,31.5887998 7.26540377,31.3000804 C7.71090373,30.8956551 8.28938427,30.9043801 8.69611903,31.2998821 C9.0902651,31.6830897 9.11114635,32.3009809 8.69911634,32.719287 C7.72439162,33.7087855 6.73887658,34.6881709 5.7373759,35.6507011 C5.56173362,35.8194512 5.2865807,35.8861779 5.05738651,36" id="Fill-3" fill="#676767"></path>
                    <path d="M38.1460218,6 C38.4085492,6.2373881 38.8095403,6.42511196 38.9191029,6.74577781 C39.0398434,7.09947561 39.0350097,7.72475657 38.8391464,7.97237992 C37.8107884,9.27214084 36.7204993,10.5092108 35.6169176,11.7258103 C35.2321393,12.1498755 34.6557271,12.0534547 34.295822,11.6325299 C33.9443757,11.2216077 33.8823439,10.4709449 34.2389259,10.0450188 C35.276347,8.80562262 36.3364259,7.59123303 37.4064741,6.38917226 C37.5598416,6.21691759 37.8167297,6.16748597 38.1460218,6" id="Fill-5" fill="#676767"></path>
                    <path d="M40.9235985,36 C40.684752,35.8711273 40.4027152,35.7866319 40.2145574,35.6060516 C39.2364766,34.6672914 38.2769916,33.7093142 37.3223055,32.7471767 C36.8909022,32.3125159 36.8984005,31.6857843 37.3098084,31.2926283 C37.7184168,30.902246 38.3054852,30.895312 38.7379883,31.3149161 C39.7227676,32.2705159 40.6971492,33.2369129 41.6646324,34.2098476 C41.9941586,34.5411922 42.1056336,34.9428671 41.8867826,35.3846599 C41.7003244,35.7610753 41.3863948,35.9421509 40.9235985,36" id="Fill-7" fill="#676767"></path>
                    <path d="M11.9984424,9.79152919 C12.0189945,10.360173 11.8359298,10.6752123 11.4632837,10.8701702 C11.0864269,11.0674182 10.690622,11.0471059 10.3918635,10.7596476 C9.32706005,9.73527219 8.27248261,8.69944628 7.24567568,7.63793134 C6.86982143,7.24930993 6.94701742,6.6634405 7.32918771,6.29503179 C7.70303686,5.93458867 8.30155643,5.88470414 8.68743613,6.25530339 C9.72918099,7.25588154 10.7495716,8.27876336 11.7603378,9.31040733 C11.9095166,9.46274931 11.9601451,9.71057885 11.9984424,9.79152919" id="Fill-9" fill="#676767"></path>
                    <path d="M42.4574464,22.9958135 C41.6972669,22.9954171 40.9367527,23.0048297 40.1767963,22.992742 C39.4408257,22.9810506 39.0054015,22.6036574 39.0000465,22.0021467 C38.9948031,21.4038065 39.4330164,21.0146229 40.1701027,21.0091735 C41.6904616,20.9977794 43.2110437,20.9964913 44.7314027,21.0081827 C45.5326368,21.0142265 45.9879189,21.3778477 45.9997445,21.9721257 C46.0123509,22.6009823 45.5580728,22.9792672 44.7379848,22.9934356 C43.9780285,23.0064149 43.2175143,22.9962098 42.4574464,22.9958135" id="Fill-11" fill="#676767"></path>
                    <g id="Group-15" transform="translate(22.000000, 0.000000)">
                        <mask id="mask-2" fill="white">
                            <use xlink:href="#path-1"></use>
                        </mask>
                        <g id="Clip-14"></g>
                        <path d="M1.9798381,3.48622222 C1.97974286,4.26166667 1.99155238,5.03744444 1.97631429,5.81255556 C1.96193333,6.54155556 1.58317143,6.97988889 1.01193333,6.97188889 C0.460790476,6.96411111 0.0846,6.53455556 0.0783142857,5.83522222 C0.0643142857,4.266 0.0640285714,2.69644444 0.0782190476,1.12722222 C0.0846952381,0.424111111 0.455838095,0.00922222222 1.01764762,0.00511111111 C1.60345714,0.000777777778 1.96279048,0.417666667 1.97669524,1.15988889 C1.99117143,1.935 1.97993333,2.71077778 1.9798381,3.48622222" id="Fill-13" fill="#676767" mask="url(#mask-2)"></path>
                    </g>
                    <path d="M3.48949187,21.0037535 C4.24931685,21.0035558 5.00947641,20.9939704 5.76907834,21.006224 C6.55276984,21.0188728 7.00266474,21.3919155 6.99998812,21.9979739 C6.99719998,22.6105544 6.55633866,22.985277 5.77153191,22.9915026 C4.25188194,23.0034597 2.73200893,23.0023727 1.21235896,22.9909097 C0.473389292,22.9853758 0.0133455439,22.6012654 0.000297030355,22.0248527 C-0.0134206378,21.4210672 0.448853625,21.0202563 1.21001692,21.0069157 C1.96950732,20.9935751 2.72966688,21.0039511 3.48949187,21.0037535" id="Fill-16" fill="#676767"></path>
                    <path d="M25.902439,42 L19.097561,42 C18.4939024,42 18,41.55 18,41 C18,40.45 18.4939024,40 19.097561,40 L25.902439,40 C26.5060976,40 27,40.45 27,41 C27,41.55 26.5060976,42 25.902439,42" id="Fill-18" fill="#676767"></path>
                </g>
            </g>
        </g>
    </g>
</svg>