<?xml version="1.0" encoding="UTF-8"?>
<svg width="37px" height="37px" viewBox="0 0 37 37" version="1.1" xmlns="http://www.w3.org/2000/svg" xmlns:xlink="http://www.w3.org/1999/xlink">
    <!-- Generator: Sketch 52.6 (67491) - http://www.bohemiancoding.com/sketch -->
    <title>Group 13</title>
    <desc>Created with Sketch.</desc>
    <defs>
        <polygon id="path-1" points="0 0 14.9404859 0 14.9404859 14.9028169 0 14.9028169"></polygon>
        <polygon id="path-3" points="0.0099665493 0 14.9504577 0 14.9504577 14.9027905 0.0099665493 14.9027905"></polygon>
        <polygon id="path-5" points="0 0.097209507 14.9404437 0.097209507 14.9404437 15 0 15"></polygon>
        <polygon id="path-7" points="0.0099665493 0.0971725352 14.9504577 0.0971725352 14.9504577 15 0.0099665493 15"></polygon>
    </defs>
    <g id="Welcome" stroke="none" stroke-width="1" fill="none" fill-rule="evenodd">
        <g id="Corporate-Acceleration" transform="translate(-733.000000, -5384.000000)">
            <g id="Group-7" transform="translate(0.000000, 4808.000000)">
                <g id="Group-13" transform="translate(733.000000, 576.000000)">
                    <g id="Group-3">
                        <mask id="mask-2" fill="white">
                            <use xlink:href="#path-1"></use>
                        </mask>
                        <g id="Clip-2"></g>
                        <path d="M4.0235493,2.33487676 L8.81214085,2.33487676 C9.22643662,2.33487676 9.56541549,1.99589789 9.56541549,1.58170775 L9.56541549,0.753116197 C9.56541549,0.338926056 9.22643662,-5.28169014e-05 8.81214085,-5.28169014e-05 L0.753232394,-5.28169014e-05 C0.33893662,-5.28169014e-05 -4.22535211e-05,0.338926056 -4.22535211e-05,0.753116197 L-4.22535211e-05,0.828433099 L-4.22535211e-05,1.58170775 L-4.22535211e-05,8.88744718 C-4.22535211e-05,9.30174296 0.33893662,9.6406162 0.753232394,9.6406162 L1.65703521,9.6406162 C2.07133099,9.6406162 2.41020423,9.30174296 2.41020423,8.88744718 L2.41020423,4.0234331 L13.0698169,14.6830458 C13.3627394,14.9760739 13.842,14.9760739 14.1350282,14.6830458 L14.7208732,14.0973063 C15.0136901,13.8043838 15.0136901,13.3250176 14.7208732,13.0322007 L4.0235493,2.33487676 Z" id="Fill-1" fill="#676767" mask="url(#mask-2)"></path>
                    </g>
                    <g id="Group-6" transform="translate(22.000000, 0.000000)">
                        <mask id="mask-4" fill="white">
                            <use xlink:href="#path-3"></use>
                        </mask>
                        <g id="Clip-5"></g>
                        <path d="M14.1971937,0 L6.13828521,0 C5.72398944,0 5.38501056,0.338978873 5.38501056,0.753169014 L5.38501056,1.58176056 C5.38501056,1.9959507 5.72398944,2.33492958 6.13828521,2.33492958 L10.9268768,2.33492958 L0.229658451,13.0321479 C-0.0632640845,13.3250704 -0.0632640845,13.8044366 0.229658451,14.0972535 L0.815397887,14.6830986 C1.10842606,14.9760211 1.58768662,14.9760211 1.88060915,14.6830986 L12.5402218,4.02348592 L12.5402218,8.8875 C12.5402218,9.30179577 12.8790951,9.64066901 13.2933908,9.64066901 L14.1971937,9.64066901 C14.6114894,9.64066901 14.9504683,9.30179577 14.9504683,8.8875 L14.9504683,1.58176056 L14.9504683,0.828485915 L14.9504683,0.753169014 C14.9504683,0.338978873 14.6114894,0 14.1971937,0" id="Fill-4" fill="#676767" mask="url(#mask-4)"></path>
                    </g>
                    <g id="Group-9" transform="translate(0.000000, 22.000000)">
                        <mask id="mask-6" fill="white">
                            <use xlink:href="#path-5"></use>
                        </mask>
                        <g id="Clip-8"></g>
                        <path d="M14.1349859,0.316901408 C13.8420634,0.0239788732 13.3626972,0.0239788732 13.0697746,0.316901408 L2.41016197,10.9765141 L2.41016197,6.1125 C2.41016197,5.69820423 2.07128873,5.35933099 1.65699296,5.35933099 L0.753190141,5.35933099 C0.338894366,5.35933099 -8.45070423e-05,5.69820423 -8.45070423e-05,6.1125 L-8.45070423e-05,13.4182394 L-8.45070423e-05,14.1715141 L-8.45070423e-05,14.246831 C-8.45070423e-05,14.6610211 0.338894366,15 0.753190141,15 L8.81209859,15 C9.22639437,15 9.56537324,14.6610211 9.56537324,14.246831 L9.56537324,13.4182394 C9.56537324,13.0040493 9.22639437,12.6650704 8.81209859,12.6650704 L4.02350704,12.6650704 L14.720831,1.96785211 C15.0136479,1.67492958 15.0136479,1.19556338 14.720831,0.902746479 L14.1349859,0.316901408 Z" id="Fill-7" fill="#676767" mask="url(#mask-6)"></path>
                    </g>
                    <g id="Group-12" transform="translate(22.000000, 22.000000)">
                        <mask id="mask-8" fill="white">
                            <use xlink:href="#path-7"></use>
                        </mask>
                        <g id="Clip-11"></g>
                        <path d="M14.1971937,5.35937324 L13.2933908,5.35937324 C12.8790951,5.35937324 12.5402218,5.69824648 12.5402218,6.11254225 L12.5402218,10.9765563 L1.88060915,0.316943662 C1.58768662,0.023915493 1.10842606,0.023915493 0.815397887,0.316943662 L0.229658451,0.902788732 C-0.0632640845,1.19560563 -0.0632640845,1.67497183 0.229658451,1.96789437 L10.9268768,12.6651127 L6.13828521,12.6651127 C5.72398944,12.6651127 5.38501056,13.0040915 5.38501056,13.4182817 L5.38501056,14.2468732 C5.38501056,14.6610634 5.72398944,15.0000423 6.13828521,15.0000423 L14.1971937,15.0000423 C14.6114894,15.0000423 14.9504683,14.6610634 14.9504683,14.2468732 L14.9504683,14.1715563 L14.9504683,13.4182817 L14.9504683,6.11254225 C14.9504683,5.69824648 14.6114894,5.35937324 14.1971937,5.35937324" id="Fill-10" fill="#676767" mask="url(#mask-8)"></path>
                    </g>
                </g>
            </g>
        </g>
    </g>
</svg>