<?xml version="1.0" encoding="UTF-8"?>
<svg width="151px" height="151px" viewBox="0 0 151 151" version="1.1" xmlns="http://www.w3.org/2000/svg" xmlns:xlink="http://www.w3.org/1999/xlink">
    <!-- Generator: Sketch 52.6 (67491) - http://www.bohemiancoding.com/sketch -->
    <title>indexgrowth-cb6fccfacc5a365cafda15a20c6fd1f2-2</title>
    <desc>Created with Sketch.</desc>
    <g id="Welcome" stroke="none" stroke-width="1" fill="none" fill-rule="evenodd" opacity="0.9">
        <g id="Corporate" transform="translate(-259.000000, -1031.000000)" stroke-width="0.5">
            <g id="indexgrowth-cb6fccfacc5a365cafda15a20c6fd1f2-2" transform="translate(258.000000, 1031.000000)">
                <g id="Group" transform="translate(0.500000, 0.000000)">
                    <g id="Rocket" transform="translate(0.832979, 0.832979)">
                        <g id="Group">
                            <path d="M59.4566495,101.416566 C58.2359311,102.691944 57.0425422,104.00376 55.7853845,105.233589 C52.423854,108.54046 47.4772117,108.586009 44.2523288,105.361126 C41.1003246,102.218232 41.1458738,97.2715896 44.4071961,93.9464985 C45.6734636,92.6529014 47.0399394,91.4504027 48.0511315,90.5029795 C45.6916833,86.3215636 43.4962122,82.4863215 41.3462903,78.6146401 C40.9636771,77.9222924 40.6357229,77.1206266 40.5446245,76.3462903 C40.3350982,74.5425422 39.2419176,74.1963684 37.6659155,74.10527 C31.5167744,73.7682059 25.4769514,74.4605537 19.4826776,75.7997 C14.3993876,76.9384298 9.59850267,72.4837187 10.9194293,67.7648223 C11.2018343,66.76274 11.8668525,65.7151086 12.6502986,65.013651 C17.4329639,60.7411367 22.224739,56.4777322 27.1440519,52.3600852 C34.1768473,46.4751294 42.4394709,44.9720061 51.3124537,46.0651867 C53.2528494,46.3020425 55.1841352,46.7575344 57.0789816,47.2676854 C58.017295,47.5227609 58.5547754,47.3132346 59.1651346,46.6299967 C63.1188046,42.1752856 67.0815844,37.7296843 71.0899134,33.3114126 C83.1513397,20.0292679 97.2898093,9.86268799 114.498294,4.26924707 C124.792412,0.925936298 135.341605,-0.422319818 146.136764,0.169819692 C148.514432,0.297357433 149.325208,1.00792485 149.498294,3.34915337 C150.409278,16.2031357 148.241137,28.5925162 143.54046,40.5446245 C137.691944,55.4118811 128.29059,67.7648223 116.566228,78.450663 C112.157066,82.458992 107.720575,86.4399915 103.229424,90.3481122 C102.300221,91.1588879 102.245561,91.8421258 102.537076,92.9353064 C104.550351,100.323386 104.814536,107.747904 101.79007,114.899127 C100.532912,117.868935 98.7109441,120.702095 96.6885599,123.22552 C93.0355146,127.798659 89.0454053,132.098503 85.1919436,136.507665 C82.9418134,139.085749 80.5185964,139.641449 77.6489972,138.211204 C74.724739,136.75363 73.312714,133.765603 73.7590961,130.704697 C74.5061029,125.521199 75.1255719,120.319481 75.6721622,115.108654 C75.8270295,113.669299 75.5992835,112.184395 75.4170867,110.735931 C75.3624277,110.298659 74.952485,109.66097 74.5698717,109.551652 C69.1859571,107.99387 64.5581591,105.078721 60.1398874,101.74452 C60.0305693,101.671642 59.8848119,101.626092 59.4566495,101.416566 Z M116.274713,9.20677961 C114.871798,9.70782073 113.541761,10.1542028 112.220835,10.655244 C97.5084454,16.2486849 85.3650305,25.4769514 74.8796063,37.0464464 C69.8965245,42.548789 65.0045412,48.1240102 59.9850201,53.5899134 C58.8918395,54.7741924 58.5547754,55.9949108 58.8918395,57.452485 C60.1489972,62.8819488 63.2190128,67.3366599 66.6625318,71.900689 C68.0836666,70.4066755 69.3408244,69.0310899 70.661751,67.7192731 C74.0415011,64.3759623 79.0428025,64.2757541 82.1948067,67.4368681 C85.4561289,70.7073002 85.3741404,75.6357229 81.9670607,79.070132 C80.6643538,80.3819488 79.2705485,81.611777 77.9222924,82.8780446 C80.0722143,85.109955 85.5290076,88.498815 89.1547234,89.8470711 C90.2843434,90.2661237 91.4686224,90.5394189 92.6346817,90.8218239 C93.9100592,91.1315584 94.9485808,90.7398353 95.9415532,89.8379613 C101.407456,84.8913189 106.928019,80.0175552 112.403032,75.0800227 C124.236712,64.4215115 133.628956,52.0230211 139.286165,37.0008973 C139.723438,35.8348379 140.106051,34.6414491 140.497774,33.4844995 C126.714588,26.8252075 122.123229,22.224739 116.274713,9.20677961 Z M97.8272898,95.3494137 C97.2624798,95.8140154 96.8707567,96.1055303 96.5063632,96.4334845 C92.2520685,100.232287 88.0159936,104.04931 83.7525891,107.839002 C83.1513397,108.367373 82.513651,108.932183 81.7939738,109.214588 C80.8738801,109.569872 80.8556604,110.107352 80.8647702,110.954567 C80.8738801,114.379867 80.9558686,117.823386 80.6643538,121.230465 C80.372839,124.582886 79.6896011,127.907977 79.0974615,131.233068 C78.9243746,132.207821 79.0519124,133.073255 79.9628962,133.35566 C80.4001685,133.492308 81.2200539,133.027706 81.6026672,132.599544 C85.5198978,128.181272 89.4644579,123.78122 93.2359311,119.235411 C99.0388983,112.220835 99.6948067,104.131298 97.8272898,95.3494137 Z M39.7338488,68.912662 C44.0974615,62.7635209 49.5542549,57.7804392 54.1638332,52.0685703 C54.0180758,51.9501424 53.9451971,51.8499342 53.8632086,51.8317145 C45.8920998,50.109955 38.1760664,50.565447 31.5167744,55.703396 C26.3332762,59.7117249 21.5688306,64.2575344 16.5857489,68.5300487 C15.8842913,69.1404079 15.95717,69.7416573 16.5857489,70.1242705 C17.1141195,70.4522247 17.8702361,70.6344215 18.4897052,70.5524329 C22.1336406,70.0513918 25.7502466,69.249726 29.4032918,68.9582112 C32.9014699,68.6940258 36.4360873,68.912662 39.7338488,68.912662 Z M144.323906,5.38064739 C136.498555,5.07091287 128.973828,5.89079835 121.5402,7.78564478 C124.309591,17.5696115 136.170601,27.2806994 142.037337,28.0459259 C143.841085,20.6396271 144.715629,13.1513397 144.323906,5.38064739 Z M74.4514438,87.1869982 C70.8075084,90.7671648 67.272891,94.2471232 63.6562851,97.7999602 C67.6919436,100.751548 71.8733595,103.511829 76.9566495,104.550351 C78.396004,104.841866 79.6076125,104.60501 80.6916833,103.520939 C81.8668525,102.34577 83.1513397,101.279919 84.3902778,100.168518 C86.0209389,98.7018343 87.6424902,97.2351502 89.4462382,95.6044891 C83.6068317,93.7278624 78.8059467,90.5211992 74.4514438,87.1869982 Z M54.0727348,60.2583153 C51.4399915,63.1916833 49.0714334,65.9975136 46.5115688,68.6120373 C45.1177635,70.0331721 44.862688,71.5545152 45.2726307,73.312714 C46.4113606,78.168258 49.0532138,82.231246 51.9045932,86.0300487 C55.5029795,82.4225526 59.0193772,78.8970451 62.5722143,75.3350982 C59.1560248,70.8894969 55.9675813,66.1250513 54.0727348,60.2583153 Z M79.6531617,72.8754418 C78.8970451,72.0828858 78.3231253,71.1810118 77.5123496,70.6981903 C76.3736198,70.0240623 75.289549,70.5524329 74.387675,71.4543069 C65.6786692,80.1633127 56.9605537,88.8632086 48.2606578,97.5813241 C46.9852804,98.8567015 46.9306214,100.487363 48.023802,101.616983 C49.098763,102.728383 50.8205225,102.710163 52.0776802,101.453006 C60.8413449,92.7257801 69.58679,83.9894449 78.3140154,75.2166703 C78.8423861,74.6882997 79.0974615,73.877524 79.6531617,72.8754418 Z" id="Shape" stroke="#686868" fill="#575757" fill-rule="nonzero"></path>
                            <path d="M5.59928351,144.09616 C9.63494202,143.740876 13.4428546,143.340044 17.259877,143.084968 C32.4733075,142.046446 43.7421778,133.984239 53.3530576,122.934005 C53.7174511,122.514952 54.0362955,122.050351 54.4462382,121.685957 C55.4118811,120.838742 56.8421258,120.802303 57.7804392,121.613078 C58.8098509,122.505843 59.1013658,123.608133 58.4818967,124.874401 C58.3725787,125.102147 58.2268213,125.311673 58.0628442,125.50298 C49.718232,135.705999 39.67008,143.494911 26.743219,146.9111 C23.0264048,147.894963 19.0909545,148.122709 15.2374928,148.541761 C11.1745048,148.988143 7.10240689,149.288768 3.02119918,149.580283 C1.10813307,149.716931 -0.112585305,148.64197 0.0513917901,146.829112 C0.743739526,139.395483 1.0443642,131.888976 2.40173016,124.573776 C4.35123562,113.997253 10.199752,105.315577 17.5696115,97.6633127 C19.5919956,95.5589399 21.8421258,93.6640935 24.0558166,91.7510274 C25.4587317,90.5394189 27.080283,90.6669566 28.0641456,91.8967848 C29.0297885,93.1083934 28.7564933,94.7026151 27.3353585,95.8595646 C19.6193252,102.154463 13.5703923,109.715629 9.61672235,118.907456 C7.48502011,123.863209 6.81089205,129.083146 6.41005915,134.385072 C6.17320335,137.555296 5.88168851,140.7073 5.59928351,144.09616 Z" id="Path" stroke="#676767" fill="#676767"></path>
                            <path d="M20.6487369,129.119585 C27.7908504,128.554775 34.4592523,127.024323 39.6154209,121.822605 C41.8382216,119.581584 43.6510795,116.930621 45.536816,114.379867 C46.7484246,112.730986 48.0420217,112.157066 49.4540467,112.995171 C50.8842913,113.842386 51.0938176,115.445718 50.0461862,117.222136 C42.8585235,129.44754 31.8629483,134.585489 18.0342132,134.430621 C16.1940258,134.412402 15.2101633,133.437649 15.2010534,131.606571 C15.1281747,117.741397 20.2570139,106.682053 32.609955,99.5399394 C33.6940258,98.9113606 34.869195,98.5196375 35.8257281,99.4124017 C36.4451971,99.9863215 36.9644579,101.033953 36.9189087,101.835619 C36.8733595,102.573516 36.1445724,103.420731 35.4977739,103.949101 C34.1768473,105.024062 32.6828337,105.898607 31.2981383,106.909799 C24.2835625,112.029528 21.4504027,119.308289 20.6669566,127.634682 C20.6214074,128.062844 20.6487369,128.509226 20.6487369,129.119585 Z" id="Path" stroke="#676767" fill="#676767"></path>
                            <path d="M93.6458738,42.6125578 C93.7278624,35.1971492 99.7859051,29.2939738 107.183094,29.4215115 C114.534734,29.5490493 120.37414,35.5251034 120.319481,42.8767432 C120.264822,50.1646141 114.20678,56.1315584 106.909799,56.0860092 C99.5126099,56.04046 93.5638853,50.0097468 93.6458738,42.6125578 Z M106.982678,50.7749733 C111.391839,50.7749733 114.972006,47.2221362 115.017555,42.8129743 C115.063104,38.3491534 111.464718,34.7325474 106.964458,34.7052179 C102.619065,34.6778884 98.9204704,38.3309337 98.9113606,42.6854366 C98.8931409,47.1492575 102.509747,50.7749733 106.982678,50.7749733 Z" id="Shape" stroke="#686868" fill="#575757" fill-rule="nonzero"></path>
                            <path d="M106.745822,37.4381695 C108.166957,37.41084 109.232808,38.203396 109.542542,39.4878832 C109.843167,40.7541508 109.169039,41.92932 107.920991,42.5670087 C107.456389,42.8038645 107.010007,43.2502466 106.764041,43.7148483 C106.099023,44.9811159 104.996733,45.6370243 103.675806,45.2999602 C102.32755,44.9628962 101.671642,43.9881435 101.653422,42.6307775 C101.616983,39.9251555 104.03109,37.4837187 106.745822,37.4381695 Z" id="Path" stroke="#686868" fill="#575757"></path>
                        </g>
                    </g>
                </g>
            </g>
        </g>
    </g>
</svg>