<?xml version="1.0" encoding="UTF-8"?>
<svg width="153px" height="155px" viewBox="0 0 153 155" version="1.1" xmlns="http://www.w3.org/2000/svg" xmlns:xlink="http://www.w3.org/1999/xlink">
    <!-- Generator: Sketch 52.6 (67491) - http://www.bohemiancoding.com/sketch -->
    <title>Group 11</title>
    <desc>Created with Sketch.</desc>
    <defs>
        <filter x="-9.0%" y="-13.0%" width="118.1%" height="126.0%" filterUnits="objectBoundingBox" id="filter-1">
            <feOffset dx="0" dy="2" in="SourceAlpha" result="shadowOffsetOuter1"></feOffset>
            <feGaussianBlur stdDeviation="2" in="shadowOffsetOuter1" result="shadowBlurOuter1"></feGaussianBlur>
            <feColorMatrix values="0 0 0 0 0   0 0 0 0 0   0 0 0 0 0  0 0 0 0.5 0" type="matrix" in="shadowBlurOuter1" result="shadowMatrixOuter1"></feColorMatrix>
            <feMerge>
                <feMergeNode in="shadowMatrixOuter1"></feMergeNode>
                <feMergeNode in="SourceGraphic"></feMergeNode>
            </feMerge>
        </filter>
        <polygon id="path-2" points="0.261903704 0.100094972 42 0.100094972 42 91.9997433 0.261903704 91.9997433"></polygon>
    </defs>
    <g id="Welcome" stroke="none" stroke-width="1" fill="none" fill-rule="evenodd">
        <g id="Corporate" transform="translate(-605.000000, -2426.000000)">
            <g id="Group-11" transform="translate(609.000000, 2429.000000)">
                <g id="Group-3" filter="url(#filter-1)" opacity="0.285644531" fill="#676767" stroke="#676767">
                    <path d="M77.1227741,54.3494819 C91.1881554,40.9598446 105.085191,27.730829 119.153681,14.3380829 C114.425508,9.85518135 109.492731,5.17849741 104.314947,0.269689119 L143.999896,0.269689119 L143.999896,37.5686528 C139.144299,32.9209845 134.221364,28.2090674 129.279263,23.4790155 C111.851119,40.0722798 94.8534216,56.2562176 77.7055079,72.5826425 C70.9825727,66.0712435 64.4507741,59.7448187 57.8728748,53.3743523 C41.4273496,69.0313472 25.3169612,84.3686528 9.31068777,99.6069948 C6.05411223,96.5054404 2.98038561,93.5784974 -0.000103597122,90.7406736 C19.1021698,72.5562176 38.3111482,54.2702073 57.6843281,35.8272021 C64.1912633,42.0277202 70.7417094,48.269171 77.1227741,54.3494819 Z" id="Fill-1"></path>
                </g>
                <g id="Group-6" transform="translate(105.000000, 60.000000)">
                    <mask id="mask-3" fill="white">
                        <use xlink:href="#path-2"></use>
                    </mask>
                    <g id="Clip-5"></g>
                    <path d="M38.9630889,78.3929944 C38.9630889,78.6859553 38.853163,78.8329497 38.617237,78.9686369 C36.1916074,80.3604581 33.7685704,81.756905 31.3481259,83.1569497 C28.5273852,84.7887933 25.709237,86.4262905 22.8895333,88.0601899 C22.8034593,88.1095307 22.7122,88.1496201 22.5862,88.212838 L22.5862,85.7874302 C22.5862,82.3176425 22.5836074,78.8478547 22.5820519,75.3775531 L22.5862,75.3775531 L22.5862,43.4977542 L22.5862,42.4703352 L22.5862,41.0723464 C22.5862,36.2127933 22.5867185,31.3537542 22.5804963,26.4936872 C22.5799778,25.9555642 22.5810148,25.4164134 22.5799778,24.8777765 C22.5794593,24.6028045 22.6748667,24.4671173 22.9066444,24.333486 C23.2053111,24.1618212 23.5029407,23.9886145 23.8016074,23.8164358 C26.7810148,22.1003017 29.7567926,20.3769721 32.7341259,18.6567263 C34.7096815,17.5152067 36.6878296,16.3772849 38.6654593,15.2383352 C38.7510148,15.1889944 38.8427926,15.149419 38.9646444,15.0887709 L38.9646444,15.4552291 C38.9630889,18.3575978 38.9646444,21.2604804 38.9641259,24.1628492 L38.9610148,24.1628492 L38.9475333,44.6320782 C38.9242,50.0261564 38.8858296,56.6779106 38.8889407,60.4015978 C38.9133111,60.4154749 38.9558296,72.4140223 38.9630889,78.3929944 Z M19.6150889,88.1927933 C19.3620519,88.0535084 19.1422,87.9378659 18.9275333,87.8129721 C16.2436815,86.2520559 13.5613852,84.6880559 10.8764963,83.1291955 C8.42182963,81.7039665 5.96457037,80.2833631 3.50627407,78.8648156 C3.32168148,78.7589385 3.23197778,78.644838 3.2324963,78.415095 C3.24338519,72.4330391 3.24545926,66.4509832 3.24857037,60.4689274 L3.24908889,60.4689274 L3.24857037,60.4365475 C3.24908889,60.3537989 3.24908889,60.2710503 3.24908889,60.1883017 L3.24908889,60.0479888 C3.24857037,60.0474749 3.24857037,60.0474749 3.24805185,60.0474749 L3.23560741,53.7195196 L3.23508889,53.7195196 C3.24182963,48.7412402 3.24545926,43.761933 3.24857037,38.7836536 L3.24857037,38.7281453 C3.24857037,38.5683017 3.24857037,38.4079441 3.24908889,38.2481006 C3.24857037,38.2470726 3.24753333,38.2450168 3.24753333,38.2439888 L3.23457037,32.0085475 C3.24286667,26.4967709 3.24597778,20.9849944 3.24908889,15.4732179 L3.24908889,15.0892849 C3.46479259,15.2028715 3.62812593,15.2809944 3.7842,15.3714525 C6.88960741,17.1693073 9.99345926,18.9702458 13.0999037,20.7670726 C14.8649407,21.7872961 16.6325704,22.8039218 18.4007185,23.8184916 C18.7190889,24.0014637 19.0369407,24.1854637 19.3553111,24.3684358 C19.5295333,24.4681453 19.6233852,24.5688827 19.6233852,24.7914302 C19.6223481,25.3578212 19.6228667,25.9236983 19.6223481,26.4906034 C19.617163,31.387162 19.6161259,36.2837207 19.6156074,41.1813073 C19.6156074,41.8546034 19.6156074,42.5289274 19.6150889,43.2022235 L19.6150889,43.4777095 L19.6156074,43.4777095 L19.6176815,75.3775531 L19.6207926,75.3775531 C19.6182,79.5576425 19.6156074,83.7372179 19.6150889,87.9173073 L19.6150889,88.1927933 Z M8.80138519,10.1253966 C10.7510148,8.99826816 12.7022,7.87473743 14.6528667,6.74915084 C16.7004963,5.5675419 18.7496815,4.38696089 20.793163,3.19867039 C20.9995333,3.0789162 21.1654593,3.05527374 21.381163,3.18119553 C24.2496074,4.85672626 27.121163,6.52608939 29.9937556,8.19391061 C31.8339778,9.26244693 33.6778296,10.3253296 35.5196074,11.392324 C36.1496074,11.7577542 36.7770148,12.1267821 37.467163,12.5302458 C37.0010148,12.8021341 36.5825704,13.0472961 36.1630889,13.2909162 C33.7156815,14.7079218 31.2693111,16.1249274 28.8213852,17.540905 C26.3382,18.9764134 23.8519037,20.408838 21.3728667,21.8520559 C21.1613111,21.9748939 21.0083481,21.9527933 20.8118296,21.8381788 C18.4836815,20.4818212 16.1534593,19.1295754 13.8216815,17.7809274 C11.3919037,16.375743 8.9584963,14.9756983 6.52768148,13.5730838 C5.93242222,13.2297542 5.33975556,12.8828268 4.69523704,12.5086592 C6.10094074,11.6924804 7.44960741,10.9066257 8.80138519,10.1253966 Z M42.0000519,44.6331061 L41.9414593,24.1628492 C41.9393852,20.6149385 41.9409407,17.0670279 41.9388667,13.5186034 C41.9383481,12.3056425 41.4141259,11.3748492 40.3506444,10.7591173 C37.6107926,9.17096089 34.8709407,7.58331844 32.1279778,6.00081564 C28.9847185,4.18651397 25.8357556,2.38094972 22.6940519,0.563564246 C21.6253852,-0.0542234637 20.5774593,-0.0547374302 19.5093111,0.564078212 C16.2535333,2.4503352 12.9915333,4.32734078 9.73212593,6.2084581 C7.11464444,7.71900559 4.49768148,9.23160894 1.87916296,10.7421564 C0.804792593,11.362 0.26657037,12.2917654 0.264496296,13.5180894 C0.25982963,16.9092402 0.262940741,20.3003911 0.262940741,23.6910279 C0.262940741,26.4638771 0.261903704,29.2362123 0.262940741,32.0085475 L0.261903704,38.7836536 C0.262940741,41.2907821 0.262940741,43.7979106 0.262940741,46.3055531 C0.262940741,48.7772179 0.262422222,51.2488827 0.262940741,53.7195196 L0.261903704,59.6995196 C0.261903704,62.6018883 0.262940741,65.504257 0.262940741,68.4061117 C0.262940741,71.7972626 0.260866667,75.1889274 0.263977778,78.5795642 C0.265014815,79.8084581 0.806348148,80.7377095 1.87760741,81.3570391 C4.43234815,82.8336648 6.98916296,84.3066927 9.54494074,85.7817765 C12.8660519,87.6988715 16.189237,89.6128827 19.5077556,91.5351173 C20.5759037,92.153933 21.6248667,92.1549609 22.6935333,91.5361453 C25.9415333,89.6560559 29.1947185,87.7852179 32.4453111,85.9097542 C35.0809407,84.3884134 37.7170889,82.8670726 40.3501259,81.3400782 C41.4110148,80.7253743 41.9388667,79.795095 41.9393852,78.5800782 C41.9414593,72.7635196 42.0000519,60.9669609 42.0000519,60.9155642 C42.0016074,56.5391397 41.977237,50.3201453 41.9585704,44.6331061 L42.0000519,44.6331061 Z" id="Fill-4" fill="#676767" mask="url(#mask-3)"></path>
                </g>
                <path d="M95.0183115,95.3872715 C95.0172928,97.8424776 95.0178021,100.297684 95.0178021,102.753405 L95.0178021,104.113116 L95.0142367,104.113116 L95.01169,107.899191 L95.01169,108.652183 C95.0020125,108.658363 94.992335,108.663514 94.9826575,108.669179 C94.9627932,113.029011 94.9414008,117.522239 94.9439475,120.341065 C94.9561717,120.348791 94.9734894,123.618279 94.9882603,127.594404 C94.9704333,131.488123 94.9500596,135.614126 94.9444569,138.664206 C94.8904666,138.776485 94.8104999,138.869193 94.6770523,138.946964 C92.2938407,140.341698 89.9141945,141.741068 87.5365857,143.144043 C84.7652554,144.779302 81.9974906,146.420226 79.2276883,148.057545 C79.1431375,148.106989 79.052984,148.147163 78.9292139,148.211028 L78.9292139,147.695986 L78.9292139,146.981107 L78.9292139,145.780029 L78.9292139,145.696592 L78.9292139,145.18155 L78.9292139,135.348364 L78.9292139,134.833322 L78.9292139,133.850622 L78.9292139,123.489003 L78.9292139,122.459434 L78.9292139,121.058004 L78.9292139,120.974567 L78.9292139,118.118143 C78.9292139,118.118143 78.9287045,118.118658 78.9281952,118.118658 C78.9281952,117.964661 78.9281952,117.810663 78.9281952,117.65718 C78.9281952,116.428805 78.9271765,115.200429 78.9266672,113.971539 C78.9261578,111.464313 78.9271765,108.956573 78.9236111,106.449347 C78.9231018,105.909583 78.9241205,105.369304 78.9231018,104.82954 C78.9225924,104.553992 79.0163114,104.418021 79.2439873,104.28411 C79.5373683,104.112086 79.83024,103.939032 80.1231117,103.766493 C81.925164,102.707566 83.7251789,101.644519 85.5251938,100.583017 C86.4954905,100.010805 87.4657871,99.4396234 88.4355744,98.8679265 C88.5893957,98.7767641 88.7437264,98.6861167 88.8975477,98.5954692 C90.8386504,97.4515605 92.7812811,96.3112572 94.7239117,95.1699237 C94.8084625,95.1204796 94.8986161,95.0808214 95.0183115,95.0200464 L95.0183115,95.3872715 Z M77.1862453,101.78358 C75.5487105,100.809636 73.908629,99.8408412 72.2680382,98.8715318 C71.618627,98.4878254 70.9702345,98.1015438 70.3198047,97.7178374 C70.0126714,97.5365425 69.7045195,97.3557627 69.3973862,97.1749829 C67.3172332,95.9491825 65.2355521,94.7259573 63.1548897,93.501187 C62.5706743,93.1571388 61.987987,92.8094854 61.3553841,92.4345346 C62.7357012,91.6166477 64.0610092,90.8291482 65.388864,90.046284 C67.3034809,88.9167965 69.2206445,87.7909143 71.1362801,86.663487 C73.1481813,85.47889 75.1605918,84.2958381 77.1684183,83.1050606 C77.3711365,82.9850557 77.5336166,82.9613638 77.7460122,83.0875491 C80.5631833,84.7665866 83.3839197,86.4394436 86.2056748,88.1107555 C88.0138392,89.1815282 89.8250596,90.2471505 91.6337334,91.315863 C92.252584,91.682058 92.8688879,92.0518583 93.5468222,92.4566815 C93.089433,92.7286237 92.678394,92.9742989 92.2658269,93.2184288 C90.0313432,94.538482 87.7963501,95.8585351 85.5613571,97.1780731 C85.3922555,97.2774763 85.2236633,97.3773945 85.0545617,97.4773127 C84.25846,97.9465161 83.4638864,98.4172646 82.6677847,98.8864681 C81.0236285,99.8552624 79.3784536,100.823027 77.7378628,101.797486 C77.5300512,101.921097 77.3797953,101.898435 77.1862453,101.78358 Z M76.0183239,106.445742 C76.0152678,108.952452 76.0157772,111.459163 76.0147585,113.965873 C76.0142492,115.166436 76.0132305,116.367515 76.0132305,117.568593 C76.0132305,117.751948 76.0127211,117.934788 76.0127211,118.118143 L76.0127211,118.822206 C76.0122118,119.60404 76.0117024,120.385359 76.0111931,121.167193 C76.0111931,121.841898 76.0111931,122.517633 76.0111931,123.192339 L76.0111931,123.468401 L76.0127211,143.425256 C76.0127211,144.08245 76.0122118,144.739643 76.0122118,145.397352 L76.0122118,145.838228 C76.0117024,146.530445 76.0111931,147.222662 76.0111931,147.914363 L76.0111931,148.190426 C75.7626342,148.05085 75.5466731,147.934965 75.3352962,147.80981 C72.6989416,146.245627 70.0646243,144.678353 67.4267417,143.116231 C65.0155163,141.688019 62.6017442,140.264442 60.1869534,138.842926 C60.0341508,138.753308 59.9536747,138.65236 59.930245,138.487546 L59.9220955,134.176643 C59.9276983,129.586587 59.931773,124.997562 59.9343197,120.408536 L59.9343197,120.376603 C59.9343197,120.293166 59.9343197,120.210244 59.9343197,120.127323 L59.9343197,119.986716 C59.9343197,119.986201 59.9338104,119.986201 59.933301,119.986201 L59.9327917,119.726105 C59.933301,119.405749 59.9338104,119.084877 59.9338104,118.764521 L59.9338104,118.708897 C59.9338104,118.548718 59.9343197,118.388025 59.9343197,118.227847 C59.9343197,118.226817 59.9327917,118.224757 59.9327917,118.223727 L59.9276983,115.798393 L59.9200581,111.975235 C59.9251516,108.900433 59.9261702,105.826661 59.9282076,102.75186 C59.9297356,100.302834 59.933301,97.8543235 59.9343197,95.405298 L59.9343197,95.0205614 C60.146206,95.1343858 60.3066488,95.2126722 60.4599607,95.3033196 C62.4759367,96.4935821 64.4919126,97.6853897 66.5078886,98.8761672 C67.4649424,99.4421986 68.4219961,100.00823 69.3795592,100.573231 C69.4564699,100.618555 69.5338899,100.664394 69.6113099,100.710232 C71.344601,101.732591 73.0814575,102.751345 74.8178046,103.768038 C75.13105,103.951393 75.4427673,104.135778 75.7560127,104.319133 C75.9271517,104.419051 76.0193426,104.519999 76.0188332,104.743013 C76.0183239,105.310589 76.0188332,105.877651 76.0183239,106.445742 Z M97.9933786,122.271443 C97.9974533,121.395872 98,120.866923 98,120.856107 C98,120.457465 97.9949066,120.017104 97.9857384,119.54893 L97.9424443,104.113116 L97.9398976,104.113116 C97.9398976,100.55778 97.9414257,97.0024438 97.9398976,93.4465925 C97.9393883,92.231093 97.4239341,91.2988666 96.3797828,90.6813311 C93.6884193,89.0898507 90.9965464,87.4994005 88.3026362,85.9130705 C85.2144951,84.0949716 82.12177,82.2861435 79.0356664,80.4644393 C77.9859123,79.8453586 76.956532,79.8448435 75.9072873,80.4649543 C72.7086191,82.3551591 69.5048574,84.2360932 66.3031331,86.1211476 C63.7314649,87.6348566 61.1608154,89.1506257 58.5891473,90.6643347 C57.5337905,91.2854755 57.0045841,92.2171868 57.0030561,93.4460775 C56.9979626,96.8443258 57.0010187,100.242574 57.0010187,103.640307 C57.0010187,106.41896 57,109.197098 57.0010187,111.975235 L57,111.975235 L57,113.645002 L57,118.764521 L57,119.637518 L57.0025467,119.638033 C57.001528,121.85941 57.0010187,124.081302 57.0010187,126.302163 C57.0010187,126.737374 57.001528,127.172585 57.001528,127.607795 C57.001528,127.687627 57.0010187,127.767458 57.0010187,127.84729 C57.0010187,127.953904 57.001528,128.060517 57.001528,128.167131 C57.001528,128.232026 57.0010187,128.297437 57.0010187,128.362332 C57.0010187,128.670842 57.001528,128.979353 57.001528,129.287348 C57.0010187,132.377086 56.9994907,135.467339 57.0020374,138.557077 C57.0035654,139.788543 57.5348092,140.719739 58.5871099,141.340365 C59.0353309,141.604067 59.4840613,141.868283 59.9327917,142.1325 C61.9946084,143.346454 64.0569345,144.560409 66.1187512,145.774363 C69.3815966,147.695986 72.64597,149.613488 75.90525,151.539745 C75.9414132,151.561377 75.9775765,151.576313 76.0132305,151.5964 C76.9896392,152.134104 77.9517864,152.135134 78.9292139,151.595885 C78.9643585,151.576313 78.9995031,151.561892 79.035157,151.540775 C82.2251665,149.656751 85.421288,147.781998 88.6138442,145.902609 C90.7311792,144.655692 92.8469862,143.408259 94.9627932,142.159282 C95.4344439,141.880644 95.9071134,141.602522 96.3787642,141.323369 C97.4208781,140.707378 97.9393883,139.775152 97.9398976,138.557592 C97.9409163,135.713014 97.9556872,131.443314 97.9694395,127.808662 C97.9740236,126.662693 97.9786076,125.581104 97.9826824,124.626731 L98,124.626731 L97.9933786,122.271443 Z" id="Fill-7" fill="#676767"></path>
                <path d="M47.677011,138.758501 C45.2942791,140.173393 42.914094,141.592989 40.5364557,143.015719 C37.7656003,144.675135 34.9972918,146.339776 32.2274551,148.000237 C32.1429033,148.050918 32.053258,148.091672 31.9294863,148.155938 L31.9294863,147.633452 L31.9294863,147.125073 L31.9294863,146.908764 L31.9294863,145.690326 L31.9294863,145.60516 L31.9294863,145.082674 L31.9294863,136.409925 L31.9294863,135.107889 L31.9294863,134.585403 L31.9294863,133.587977 L31.9294863,129.645818 L31.9294863,129.165131 L31.9294863,128.600846 L31.9294863,128.120159 C31.9437481,127.884517 32.0354308,127.753373 32.2442636,127.629021 C32.5376483,127.454511 32.8300143,127.278433 33.123399,127.1034 C35.2158022,125.856226 37.3061681,124.604349 39.3965339,123.353517 C40.2303373,122.855065 41.0641406,122.356613 41.897944,121.858161 C42.0349587,121.776131 42.1724828,121.694623 42.3094975,121.612592 C44.1136095,120.534181 45.9187403,119.458904 47.7243804,118.383105 C47.7880489,118.344964 47.8634325,118.308912 47.9444189,118.268681 C47.9439096,118.632853 47.9439096,118.983964 47.9434002,119.314176 C47.9434002,119.510108 47.9434002,119.700815 47.9439096,119.883686 C47.9505311,119.887865 47.9586807,120.893129 47.9673396,122.456408 C47.9637741,123.319033 47.9602087,124.17173 47.9566433,124.994646 C47.9581713,124.995168 47.9596994,124.996213 47.9612274,124.997258 C47.9500217,127.661938 47.9423815,130.114488 47.9439096,131.900869 C47.9551152,131.908184 47.9714144,134.759391 47.9851668,138.389103 C47.9408535,138.550551 47.8430586,138.660273 47.677011,138.758501 Z M29.0119386,145.749367 C29.0114293,146.451588 29.0114293,147.153287 29.0109199,147.855509 L29.0109199,148.135561 C28.7623579,147.993967 28.5463942,147.876408 28.3355239,147.749444 C25.6991366,146.162653 23.0642773,144.572728 20.4268712,142.988027 C18.0156159,141.539172 15.6018138,140.095021 13.186993,138.652959 C13.0326604,138.561001 12.9506553,138.458594 12.928244,138.287741 C12.929772,136.181076 12.9328281,134.075457 12.9338468,131.969315 L12.9343562,131.969315 L12.9338468,131.936398 C12.9343562,131.852278 12.9343562,131.768157 12.9343562,131.684037 L12.9343562,131.541398 C12.9338468,131.540876 12.9338468,131.540876 12.9333375,131.540876 L12.9267159,128.23615 C12.9272253,128.115456 12.9272253,127.994239 12.9272253,127.873545 C12.9292627,125.2329 12.9323188,122.592777 12.9338468,119.952131 L12.9343562,119.952131 L12.9338468,119.920782 C12.9343562,119.836139 12.9343562,119.751496 12.9343562,119.666854 L12.9343562,119.524215 C12.9338468,119.523693 12.9338468,119.523693 12.9333375,119.523693 C12.9338468,119.22274 12.9343562,118.922311 12.9343562,118.621881 L12.9343562,118.231584 C13.1462451,118.347054 13.3066899,118.426471 13.4600037,118.518429 C15.1846574,119.551384 16.9098205,120.585907 18.6344742,121.619907 C19.5915398,122.193597 20.5486055,122.76781 21.5061805,123.340977 C21.8744394,123.561466 22.2426983,123.782478 22.6109572,124.003489 C24.3447792,125.040625 26.0811479,126.074102 27.818026,127.10549 C28.1307659,127.291495 28.4429965,127.478545 28.7557364,127.664551 C28.9105783,127.755986 28.9966582,127.853691 29.012448,128.037606 C29.012448,128.040218 29.0129573,128.042308 29.0129573,128.044398 L29.0129573,128.600846 L29.012448,128.600846 L29.012448,129.645818 L29.0129573,142.022995 C29.0129573,143.116036 29.0119386,144.209077 29.0119386,145.301596 L29.0119386,145.749367 Z M18.3884589,113.185412 C20.3036089,112.0396 22.220287,110.897445 24.1364557,109.7532 C25.7628051,108.781898 27.3881359,107.809551 29.0129573,106.834592 C29.3980247,106.604175 29.7841108,106.375326 30.1681595,106.143865 C30.3708802,106.022126 30.5338717,105.998091 30.7457606,106.1261 C31.1394869,106.364354 31.5342319,106.600518 31.9279583,106.838249 C34.3524567,108.301733 36.7784831,109.763127 39.2060376,111.221909 C41.0137151,112.308158 42.8249581,113.388659 44.6341636,114.473341 C45.2530219,114.844306 45.8693335,115.219973 46.5472762,115.630125 C46.089372,115.90652 45.6783278,116.155746 45.266265,116.403405 C43.3225915,117.567504 41.3794273,118.732126 39.4352444,119.895703 C38.9753028,120.172098 38.5148519,120.447971 38.0544009,120.723321 C37.5486179,121.026363 37.0433443,121.329405 36.5375613,121.631924 C35.0013665,122.5515 33.4646624,123.470554 31.9294863,124.392742 C31.5321945,124.630995 31.1343934,124.867682 30.737611,125.106458 C30.5297969,125.231332 30.3795391,125.208343 30.1864961,125.092351 C29.7953165,124.856709 29.4031182,124.622113 29.0119386,124.386994 C27.4747251,123.461149 25.9359836,122.537393 24.3967327,121.614682 C24.0376421,121.399418 23.6790608,121.182586 23.3199702,120.967844 C22.7209765,120.609941 22.1214734,120.252561 21.5224797,119.894658 C19.7331387,118.826173 17.9437978,117.758734 16.1549661,116.69025 C15.5702342,116.341229 14.9880489,115.988551 14.3549289,115.607658 C15.7357724,114.778473 17.0605876,113.979591 18.3884589,113.185412 Z M50.9454997,128.609206 L50.9424436,127.455556 L50.9404062,127.455556 C50.9404062,123.848834 50.9419343,120.242111 50.9398969,116.634866 C50.9393875,115.401799 50.4244363,114.455576 49.3797627,113.829638 C48.9208398,113.554287 48.4614075,113.279982 48.0024846,113.004632 C45.7700106,111.666022 43.5375365,110.327412 41.3025157,108.99246 C38.2148456,107.148084 35.1215728,105.312589 32.0354308,103.465078 C31.999267,103.443656 31.9625939,103.428504 31.9269396,103.40865 C30.9505187,102.863696 29.9903969,102.863696 29.0144854,103.409172 C28.978831,103.429549 28.9431766,103.444179 28.9070129,103.465601 C25.7088142,105.383125 22.5045034,107.290722 19.3027393,109.203544 C17.1782471,110.472141 15.0542642,111.742305 12.929772,113.011424 C12.4825641,113.277892 12.0358656,113.545405 11.5886577,113.812395 C10.675396,114.357871 10.157898,115.140555 10.033617,116.149476 C10.0127337,116.211652 10.0010187,116.327122 10.0010187,116.526189 C10.0010187,116.874165 10.0010187,117.221618 10.0010187,117.569594 C10.0010187,117.570116 10.0010187,117.570639 10.0010187,117.571161 C10.0010187,118.10462 10.0010187,118.637033 10.0010187,119.170492 C10.0010187,120.801171 10.0010187,122.432373 10.0010187,124.063053 L10,124.063053 L10,125.108025 L10,130.14218 L10,131.187153 L10.001528,131.187675 C10.0010187,132.535167 10.001528,133.882659 10.001528,135.230674 C10.0020374,136.274601 10.0010187,137.318529 10.0020374,138.362979 C10.0030561,139.612243 10.5348158,140.556376 11.5871296,141.185972 C12.0328095,141.45244 12.4789987,141.718908 12.9251879,141.985376 C14.989577,143.218966 17.0539661,144.451511 19.1188645,145.684578 C22.3812411,147.633452 25.645655,149.579191 28.9054848,151.533289 C28.9416485,151.555234 28.9778123,151.570386 29.013976,151.591285 C29.9898876,152.136238 30.951028,152.136238 31.9274489,151.591285 C31.9631033,151.570908 31.9987577,151.556279 32.0349214,151.534334 C35.2254798,149.623079 38.4211317,147.72123 41.6142369,145.814677 C43.7428039,144.542946 45.8708615,143.270169 47.9973911,141.995825 C48.4578421,141.719953 48.9188024,141.445647 49.3792534,141.169252 C50.4208709,140.544359 50.9393875,139.598659 50.9404062,138.364546 C50.9404062,138.733944 51,131.410777 51,131.378383 C51,130.584204 50.9816635,129.632234 50.9454997,128.609206 Z" id="Fill-9" fill="#676767"></path>
            </g>
        </g>
    </g>
</svg>