<?xml version="1.0" encoding="UTF-8"?>
<svg width="150px" height="153px" viewBox="0 0 150 153" version="1.1" xmlns="http://www.w3.org/2000/svg" xmlns:xlink="http://www.w3.org/1999/xlink">
    <!-- Generator: Sketch 52.6 (67491) - http://www.bohemiancoding.com/sketch -->
    <title>Group 4</title>
    <desc>Created with Sketch.</desc>
    <g id="Welcome" stroke="none" stroke-width="1" fill="none" fill-rule="evenodd">
        <g id="Corporate" transform="translate(-611.000000, -1498.000000)" fill="#676767" fill-rule="nonzero">
            <g id="Group-7" transform="translate(191.000000, 1435.000000)">
                <g id="Group-5">
                    <g id="Group-4" transform="translate(420.000000, 63.000000)">
                        <g id="cube-01" transform="translate(0.500000, 64.000000)">
                            <path d="M0.00147180919,44.4970592 C0.00147180919,38.0979051 -0.00441542758,31.7046326 0.00735904597,25.3054785 C0.0132462827,22.9940193 1.01996377,21.2354282 3.02751151,20.0708763 C7.92569251,17.2241938 12.8238735,14.3716297 17.7220545,11.5190656 C23.8212318,7.97247555 29.9262963,4.43176712 36.0195864,0.873413957 C38.0212469,-0.291137986 39.9816967,-0.291137986 41.97747,0.873413957 C47.8588195,4.30237246 53.7519435,7.70780465 59.6332931,11.1308816 C64.7669635,14.1187219 69.8947468,17.1124438 75.02253,20.1061657 C77.012416,21.2707177 77.9955846,23.0234272 77.9955846,25.31136 C78.0014718,38.1037867 78.0014718,50.8962133 77.9955846,63.68864 C77.9955846,65.9824544 77.0065288,67.7351639 75.02253,68.8938343 C70.0949128,71.7758062 65.1614084,74.6401335 60.227904,77.5103423 C54.1463884,81.0510508 48.0530983,84.579996 41.97747,88.126586 C39.9758095,89.291138 38.0153596,89.291138 36.0136991,88.126586 C29.8026644,84.5035356 23.5857423,80.8922482 17.3688203,77.2750793 C12.588384,74.4930941 7.80206053,71.7111089 3.02162427,68.9291237 C1.01407653,67.7586902 0.00147180919,66.0059807 0.00147180919,63.68864 C0.00147180919,57.2894859 0.00147180919,50.8903317 0.00147180919,44.4970592 Z M8.29658842,23.399848 C9.50347196,24.1056371 10.6102725,24.7584919 11.7229602,25.4054652 C16.2737942,28.0521742 20.8246283,30.6930016 25.3754623,33.3455921 C29.7379047,35.8923143 34.1003472,38.4390365 38.4569024,40.9975218 C38.8277983,41.2151401 39.1103857,41.2563111 39.5048306,41.0210481 C44.1439731,38.2978787 48.7948902,35.5982355 53.4458072,32.8868292 C58.0260774,30.216594 62.6063476,27.5404771 67.1866179,24.8702419 C67.9696203,24.411479 68.7526228,23.9468345 69.6298211,23.4351375 C68.3405163,22.6764142 67.1630689,21.9765067 65.9856216,21.2883624 C62.541588,19.2768636 59.0857801,17.2712464 55.6417465,15.253866 C50.2666994,12.1072231 44.8916522,8.96058023 39.5224923,5.79629262 C39.1162729,5.56102961 38.8101366,5.60220063 38.421579,5.8257005 C34.5948751,8.06658076 30.7622839,10.2956979 26.9296928,12.524815 C23.279606,14.6480637 19.6295192,16.7654309 15.9794324,18.8945612 C13.4538078,20.3825998 10.9281833,21.8647568 8.29658842,23.399848 Z M41.7831912,81.8568266 C42.0186807,81.7391951 42.1894105,81.6627346 42.3483659,81.5686294 C47.6233301,78.4866838 52.8982942,75.3988567 58.1791456,72.3227928 C62.7064307,69.6819654 67.2454902,67.0470196 71.7845498,64.4238369 C72.2260925,64.1709292 72.4321458,63.8886135 72.4321458,63.3357454 C72.4203713,51.8784364 72.4321458,40.4211274 72.4380331,28.9638184 C72.4380331,28.7579633 72.4380331,28.5521081 72.4380331,28.2756741 C72.2084308,28.387424 72.037701,28.4638845 71.8787456,28.5579897 C68.1756736,30.7047647 64.4784889,32.8515398 60.775417,35.0041964 C54.6468035,38.5743127 48.5181901,42.1561922 42.3836893,45.7145453 C41.9480338,45.9674531 41.7714167,46.2203608 41.7714167,46.7379395 C41.7890784,56.9189466 41.7831912,67.0999537 41.7831912,77.2868425 C41.7831912,78.7807626 41.7831912,80.2805644 41.7831912,81.8568266 Z M5.59434674,28.2697925 C5.59434674,28.6109239 5.59434674,28.7991343 5.59434674,28.9932263 C5.58845951,40.4564169 5.58257227,51.9137259 5.56491056,63.3710349 C5.56491056,63.8062715 5.72975319,64.0180082 6.07710016,64.2179818 C10.6809193,66.8940986 15.2788512,69.5702154 19.8708959,72.2580954 C24.8985961,75.1988832 29.9145219,78.151434 34.9363348,81.0922218 C35.3366669,81.3274848 35.7487735,81.5451031 36.2256397,81.809774 C36.2256397,81.5568662 36.2256397,81.42159 36.2256397,81.2921953 C36.2256397,69.7172548 36.2256397,58.1423143 36.2433014,46.5614922 C36.2433014,46.1439003 36.0666843,45.9498084 35.7428863,45.7615979 C31.8396483,43.503073 27.9364103,41.2386664 24.0331723,38.9683783 C18.2165824,35.5805908 12.4117669,32.1810402 6.60106423,28.7932527 C6.30081516,28.6344502 5.99467884,28.4815292 5.59434674,28.2697925 Z" id="Shape"></path>
                        </g>
                        <g id="cube-01" transform="translate(71.500000, 64.000000)">
                            <path d="M0.00147180919,44.4970592 C0.00147180919,38.0979051 -0.00441542758,31.7046326 0.00735904597,25.3054785 C0.0132462827,22.9940193 1.01996377,21.2354282 3.02751151,20.0708763 C7.92569251,17.2241938 12.8238735,14.3716297 17.7220545,11.5190656 C23.8212318,7.97247555 29.9262963,4.43176712 36.0195864,0.873413957 C38.0212469,-0.291137986 39.9816967,-0.291137986 41.97747,0.873413957 C47.8588195,4.30237246 53.7519435,7.70780465 59.6332931,11.1308816 C64.7669635,14.1187219 69.8947468,17.1124438 75.02253,20.1061657 C77.012416,21.2707177 77.9955846,23.0234272 77.9955846,25.31136 C78.0014718,38.1037867 78.0014718,50.8962133 77.9955846,63.68864 C77.9955846,65.9824544 77.0065288,67.7351639 75.02253,68.8938343 C70.0949128,71.7758062 65.1614084,74.6401335 60.227904,77.5103423 C54.1463884,81.0510508 48.0530983,84.579996 41.97747,88.126586 C39.9758095,89.291138 38.0153596,89.291138 36.0136991,88.126586 C29.8026644,84.5035356 23.5857423,80.8922482 17.3688203,77.2750793 C12.588384,74.4930941 7.80206053,71.7111089 3.02162427,68.9291237 C1.01407653,67.7586902 0.00147180919,66.0059807 0.00147180919,63.68864 C0.00147180919,57.2894859 0.00147180919,50.8903317 0.00147180919,44.4970592 Z M8.29658842,23.399848 C9.50347196,24.1056371 10.6102725,24.7584919 11.7229602,25.4054652 C16.2737942,28.0521742 20.8246283,30.6930016 25.3754623,33.3455921 C29.7379047,35.8923143 34.1003472,38.4390365 38.4569024,40.9975218 C38.8277983,41.2151401 39.1103857,41.2563111 39.5048306,41.0210481 C44.1439731,38.2978787 48.7948902,35.5982355 53.4458072,32.8868292 C58.0260774,30.216594 62.6063476,27.5404771 67.1866179,24.8702419 C67.9696203,24.411479 68.7526228,23.9468345 69.6298211,23.4351375 C68.3405163,22.6764142 67.1630689,21.9765067 65.9856216,21.2883624 C62.541588,19.2768636 59.0857801,17.2712464 55.6417465,15.253866 C50.2666994,12.1072231 44.8916522,8.96058023 39.5224923,5.79629262 C39.1162729,5.56102961 38.8101366,5.60220063 38.421579,5.8257005 C34.5948751,8.06658076 30.7622839,10.2956979 26.9296928,12.524815 C23.279606,14.6480637 19.6295192,16.7654309 15.9794324,18.8945612 C13.4538078,20.3825998 10.9281833,21.8647568 8.29658842,23.399848 Z M41.7831912,81.8568266 C42.0186807,81.7391951 42.1894105,81.6627346 42.3483659,81.5686294 C47.6233301,78.4866838 52.8982942,75.3988567 58.1791456,72.3227928 C62.7064307,69.6819654 67.2454902,67.0470196 71.7845498,64.4238369 C72.2260925,64.1709292 72.4321458,63.8886135 72.4321458,63.3357454 C72.4203713,51.8784364 72.4321458,40.4211274 72.4380331,28.9638184 C72.4380331,28.7579633 72.4380331,28.5521081 72.4380331,28.2756741 C72.2084308,28.387424 72.037701,28.4638845 71.8787456,28.5579897 C68.1756736,30.7047647 64.4784889,32.8515398 60.775417,35.0041964 C54.6468035,38.5743127 48.5181901,42.1561922 42.3836893,45.7145453 C41.9480338,45.9674531 41.7714167,46.2203608 41.7714167,46.7379395 C41.7890784,56.9189466 41.7831912,67.0999537 41.7831912,77.2868425 C41.7831912,78.7807626 41.7831912,80.2805644 41.7831912,81.8568266 Z M5.59434674,28.2697925 C5.59434674,28.6109239 5.59434674,28.7991343 5.59434674,28.9932263 C5.58845951,40.4564169 5.58257227,51.9137259 5.56491056,63.3710349 C5.56491056,63.8062715 5.72975319,64.0180082 6.07710016,64.2179818 C10.6809193,66.8940986 15.2788512,69.5702154 19.8708959,72.2580954 C24.8985961,75.1988832 29.9145219,78.151434 34.9363348,81.0922218 C35.3366669,81.3274848 35.7487735,81.5451031 36.2256397,81.809774 C36.2256397,81.5568662 36.2256397,81.42159 36.2256397,81.2921953 C36.2256397,69.7172548 36.2256397,58.1423143 36.2433014,46.5614922 C36.2433014,46.1439003 36.0666843,45.9498084 35.7428863,45.7615979 C31.8396483,43.503073 27.9364103,41.2386664 24.0331723,38.9683783 C18.2165824,35.5805908 12.4117669,32.1810402 6.60106423,28.7932527 C6.30081516,28.6344502 5.99467884,28.4815292 5.59434674,28.2697925 Z" id="Shape"></path>
                        </g>
                        <g id="cube-01" transform="translate(35.500000, 0.000000)">
                            <path d="M0.00147180919,44.4970592 C0.00147180919,38.0979051 -0.00441542758,31.7046326 0.00735904597,25.3054785 C0.0132462827,22.9940193 1.01996377,21.2354282 3.02751151,20.0708763 C7.92569251,17.2241938 12.8238735,14.3716297 17.7220545,11.5190656 C23.8212318,7.97247555 29.9262963,4.43176712 36.0195864,0.873413957 C38.0212469,-0.291137986 39.9816967,-0.291137986 41.97747,0.873413957 C47.8588195,4.30237246 53.7519435,7.70780465 59.6332931,11.1308816 C64.7669635,14.1187219 69.8947468,17.1124438 75.02253,20.1061657 C77.012416,21.2707177 77.9955846,23.0234272 77.9955846,25.31136 C78.0014718,38.1037867 78.0014718,50.8962133 77.9955846,63.68864 C77.9955846,65.9824544 77.0065288,67.7351639 75.02253,68.8938343 C70.0949128,71.7758062 65.1614084,74.6401335 60.227904,77.5103423 C54.1463884,81.0510508 48.0530983,84.579996 41.97747,88.126586 C39.9758095,89.291138 38.0153596,89.291138 36.0136991,88.126586 C29.8026644,84.5035356 23.5857423,80.8922482 17.3688203,77.2750793 C12.588384,74.4930941 7.80206053,71.7111089 3.02162427,68.9291237 C1.01407653,67.7586902 0.00147180919,66.0059807 0.00147180919,63.68864 C0.00147180919,57.2894859 0.00147180919,50.8903317 0.00147180919,44.4970592 Z M8.29658842,23.399848 C9.50347196,24.1056371 10.6102725,24.7584919 11.7229602,25.4054652 C16.2737942,28.0521742 20.8246283,30.6930016 25.3754623,33.3455921 C29.7379047,35.8923143 34.1003472,38.4390365 38.4569024,40.9975218 C38.8277983,41.2151401 39.1103857,41.2563111 39.5048306,41.0210481 C44.1439731,38.2978787 48.7948902,35.5982355 53.4458072,32.8868292 C58.0260774,30.216594 62.6063476,27.5404771 67.1866179,24.8702419 C67.9696203,24.411479 68.7526228,23.9468345 69.6298211,23.4351375 C68.3405163,22.6764142 67.1630689,21.9765067 65.9856216,21.2883624 C62.541588,19.2768636 59.0857801,17.2712464 55.6417465,15.253866 C50.2666994,12.1072231 44.8916522,8.96058023 39.5224923,5.79629262 C39.1162729,5.56102961 38.8101366,5.60220063 38.421579,5.8257005 C34.5948751,8.06658076 30.7622839,10.2956979 26.9296928,12.524815 C23.279606,14.6480637 19.6295192,16.7654309 15.9794324,18.8945612 C13.4538078,20.3825998 10.9281833,21.8647568 8.29658842,23.399848 Z M41.7831912,81.8568266 C42.0186807,81.7391951 42.1894105,81.6627346 42.3483659,81.5686294 C47.6233301,78.4866838 52.8982942,75.3988567 58.1791456,72.3227928 C62.7064307,69.6819654 67.2454902,67.0470196 71.7845498,64.4238369 C72.2260925,64.1709292 72.4321458,63.8886135 72.4321458,63.3357454 C72.4203713,51.8784364 72.4321458,40.4211274 72.4380331,28.9638184 C72.4380331,28.7579633 72.4380331,28.5521081 72.4380331,28.2756741 C72.2084308,28.387424 72.037701,28.4638845 71.8787456,28.5579897 C68.1756736,30.7047647 64.4784889,32.8515398 60.775417,35.0041964 C54.6468035,38.5743127 48.5181901,42.1561922 42.3836893,45.7145453 C41.9480338,45.9674531 41.7714167,46.2203608 41.7714167,46.7379395 C41.7890784,56.9189466 41.7831912,67.0999537 41.7831912,77.2868425 C41.7831912,78.7807626 41.7831912,80.2805644 41.7831912,81.8568266 Z M5.59434674,28.2697925 C5.59434674,28.6109239 5.59434674,28.7991343 5.59434674,28.9932263 C5.58845951,40.4564169 5.58257227,51.9137259 5.56491056,63.3710349 C5.56491056,63.8062715 5.72975319,64.0180082 6.07710016,64.2179818 C10.6809193,66.8940986 15.2788512,69.5702154 19.8708959,72.2580954 C24.8985961,75.1988832 29.9145219,78.151434 34.9363348,81.0922218 C35.3366669,81.3274848 35.7487735,81.5451031 36.2256397,81.809774 C36.2256397,81.5568662 36.2256397,81.42159 36.2256397,81.2921953 C36.2256397,69.7172548 36.2256397,58.1423143 36.2433014,46.5614922 C36.2433014,46.1439003 36.0666843,45.9498084 35.7428863,45.7615979 C31.8396483,43.503073 27.9364103,41.2386664 24.0331723,38.9683783 C18.2165824,35.5805908 12.4117669,32.1810402 6.60106423,28.7932527 C6.30081516,28.6344502 5.99467884,28.4815292 5.59434674,28.2697925 Z" id="Shape"></path>
                        </g>
                    </g>
                </g>
            </g>
        </g>
    </g>
</svg>