<?xml version="1.0" encoding="UTF-8"?>
<svg width="62px" height="42px" viewBox="0 0 62 42" version="1.1" xmlns="http://www.w3.org/2000/svg" xmlns:xlink="http://www.w3.org/1999/xlink">
    <!-- Generator: Sketch 52.6 (67491) - http://www.bohemiancoding.com/sketch -->
    <title>Group 15</title>
    <desc>Created with Sketch.</desc>
    <defs>
        <polygon id="path-1" points="0 0.0155365854 34.9633985 0.0155365854 34.9633985 42 0 42"></polygon>
        <polygon id="path-3" points="0.111859254 0.0378882186 29.9265574 0.0378882186 29.9265574 36.9043508 0.111859254 36.9043508"></polygon>
    </defs>
    <g id="Welcome" stroke="none" stroke-width="1" fill="none" fill-rule="evenodd">
        <g id="Corporate-Acceleration" transform="translate(-240.000000, -5381.000000)">
            <g id="Group-7" transform="translate(0.000000, 4808.000000)">
                <g id="Group-15" transform="translate(240.000000, 573.000000)">
                    <g id="Group-3">
                        <mask id="mask-2" fill="white">
                            <use xlink:href="#path-1"></use>
                        </mask>
                        <g id="Clip-2"></g>
                        <path d="M28.2244903,25.7494317 C28.1803599,25.7671878 28.1363986,25.7851146 28.0924372,25.8028707 C28.0924372,26.8723341 28.0929444,27.9416268 28.0922681,29.0110902 C28.0915918,30.1461146 27.8805773,30.3506512 26.7844179,30.2267 C23.8290314,29.8922366 20.9253841,29.3079927 18.1157464,28.3071634 C14.5805773,27.0480171 11.3176304,25.3282366 8.68891063,22.5504317 C4.73678502,18.3736512 4.48147101,13.2725293 8.02898309,8.76248049 C8.57731643,8.06555366 9.22591546,7.44904146 9.87992512,6.73879756 C8.3382343,7.46338293 6.0395628,9.28696829 4.5903599,10.911139 C0.591905797,15.3916512 0.455118357,20.7562122 4.23748551,25.3898707 C6.08859662,27.6573585 8.42007005,29.3136268 10.9777754,30.6630902 C16.0336691,33.3307732 21.4743937,34.5873585 27.1105773,35.1167976 C27.9015435,35.1910659 28.089901,35.3983341 28.0922681,36.2118707 C28.0946353,37.0967732 28.0929444,37.9816756 28.0929444,38.8667488 C28.1363986,38.8769927 28.1798527,38.8870659 28.2234758,38.8973098 C29.9168333,36.7170659 31.6100217,34.536822 33.3240072,32.3301146 C31.6100217,30.1184561 29.9173406,27.9339439 28.2244903,25.7494317 M26.5779686,36.5671634 C23.0461812,36.2157976 19.6373164,35.5786268 16.3214469,34.4898707 C11.9868575,33.066822 7.95171256,31.0885537 4.59391063,27.8974073 C2.48444203,25.8921634 0.87528744,23.5555293 0.253910628,20.6498463 C-0.492925121,17.1568463 0.452074879,14.0357 2.50337923,11.2217 C4.96132609,7.84974878 8.32200242,5.64287073 12.0301425,3.94050488 C16.8643696,1.72099268 21.9723406,0.578968293 27.2517609,0.170407317 C28.0756981,0.106553659 28.9023406,0.0794073171 29.7271232,0.0266512195 C30.2451908,-0.00647073171 30.7402633,-0.0115926829 30.7921715,0.69472439 C30.8312295,1.22672439 30.5574855,1.45909024 29.8241763,1.49682195 C25.5445386,1.71740732 21.363814,2.43584634 17.3624855,4.03765122 C14.6209879,5.1349439 12.0746111,6.56072439 9.98188164,8.70357805 C5.8579686,12.9267976 6.05072222,18.1851634 10.4297802,22.153822 C13.6727754,25.0929683 17.5398527,26.7442854 21.6982585,27.7871146 C23.276471,28.1827 24.8888382,28.4394805 26.5957222,28.7817976 L26.5957222,26.5137976 C26.5957222,25.5717 26.6031618,24.6294317 26.5925097,23.6875049 C26.5876063,23.2504317 26.6513502,22.7793829 27.1185242,22.7250902 C27.424901,22.6894073 27.8736449,22.8907 28.0773889,23.1380902 C29.2016159,24.5036024 30.2747802,25.912139 31.3565676,27.3129927 C32.4643937,28.747822 33.5483792,30.2014317 34.6712536,31.6239683 C35.0745145,32.1347976 35.0511812,32.5442122 34.657558,33.0466756 C32.4613502,35.850261 30.2835725,38.6687 28.1047802,41.4861146 C27.838814,41.830139 27.503186,42.1632366 27.1019541,41.9124317 C26.8397077,41.7487 26.6127995,41.3133341 26.6009638,40.9909927 C26.5482101,39.5402854 26.5779686,38.0865049 26.5779686,36.5671634" id="Fill-1" fill="#676767" mask="url(#mask-2)"></path>
                    </g>
                    <g id="Group-6" transform="translate(32.000000, 0.000000)">
                        <mask id="mask-4" fill="white">
                            <use xlink:href="#path-3"></use>
                        </mask>
                        <g id="Clip-5"></g>
                        <path d="M4.19040984,35.2358228 C4.25893443,35.2635298 4.295,35.2907205 4.3307377,35.2905484 C4.495,35.2893437 4.6602459,35.2915809 4.82303279,35.2724786 C9.42418033,34.7303856 13.8817213,33.6191809 18.0882787,31.5396088 C21.1317213,30.0349995 23.9171311,28.1419763 26.0254918,25.3325577 C28.722377,21.7389112 29.3704098,17.8504693 27.279918,13.6918414 C25.7418852,10.6323716 23.2758197,8.54402279 20.4841803,6.83238558 C20.462541,6.81913442 20.4145082,6.85320884 20.4415574,6.84408791 C21.1327049,7.66256233 21.8822131,8.46554837 22.540082,9.34425535 C25.1012295,12.7646042 25.2971311,17.2235344 22.9353279,20.7867205 C22.1005738,22.0459251 21.079918,23.2280321 19.9558197,24.2067251 C16.2369672,27.4451716 11.8043443,29.0308367 7.12942623,29.9708088 C6.1507377,30.1676833 5.16221311,30.3103484 4.15795082,30.4812367 C4.15795082,32.0087344 4.15729508,33.474967 4.15942623,34.9410274 C4.15959016,35.0444553 4.18057377,35.1477112 4.19040984,35.2358228 M2.70368852,32.9376926 C2.70352459,32.0095949 2.70155738,31.0813251 2.70418033,30.1533995 C2.70631148,29.2666042 2.87270492,29.0569949 3.72959016,28.968367 C6.23188525,28.7098833 8.68581967,28.1967019 11.0790984,27.3944042 C14.5189344,26.2412088 17.7392623,24.6586414 20.3154918,21.9072181 C24.0992623,17.8657856 24.0951639,12.8669995 20.3072951,8.82332977 C18.0084426,6.36962744 15.1753279,4.83335302 12.1282787,3.68721349 C8.51942623,2.32957163 4.77844262,1.70883209 0.963360656,1.50008326 C0.715819672,1.48666 0.378934426,1.41059488 0.255819672,1.2324786 C0.116639344,1.03095767 0.0577868852,0.603822791 0.173032787,0.416585581 C0.304836066,0.202673953 0.67352459,0.0231809302 0.927622951,0.0388413953 C2.6907377,0.146743721 4.46040984,0.231069302 6.2097541,0.469934419 C11.1336885,1.14281814 15.867623,2.51526 20.2594262,5.00751116 C23.3135246,6.74066 26.0277869,8.90799953 27.9713934,12.0003391 C30.6445082,16.253446 30.5728689,21.1458786 27.779918,25.3353112 C25.6089344,28.5913112 22.6286066,30.8064926 19.3015574,32.55926 C14.9569672,34.8480972 10.3202459,36.0897484 5.5154918,36.7017112 C4.90385246,36.7794972 4.28942623,36.83646 3.67565574,36.8954879 C3.01565574,36.9588181 2.71581967,36.6857065 2.70696721,35.9809856 C2.6945082,34.9668414 2.70385246,33.9521809 2.70368852,32.9376926" id="Fill-4" fill="#676767" mask="url(#mask-4)"></path>
                    </g>
                    <path d="M43.0121508,8.39815421 C43.409378,8.38965298 43.7409421,7.9679922 43.7323922,7.48193465 C43.7238423,6.99141394 43.3874903,6.5963195 42.9842782,6.60290795 C42.5790142,6.6094964 42.2599329,7.01564244 42.2672858,7.51508942 C42.2744677,8.00731037 42.6113327,8.40665543 43.0121508,8.39815421 M41.0000235,7.51636461 C40.9947225,6.12811451 41.8885264,5.00170215 42.996248,5.00000191 C44.0983268,4.99830166 45.0020485,6.13215259 44.9999965,7.51381424 C44.9981155,8.85381988 44.1017467,9.98235755 43.0254886,9.99978506 C41.9211869,10.0178502 41.0054954,8.8948383 41.0000235,7.51636461" id="Fill-7" fill="#676767"></path>
                    <path d="M21.9315499,13.2580094 L22.8509101,13.2580094 C23.314396,13.2537353 23.6820739,13.1242676 23.9534473,12.8703186 C24.2243243,12.6161915 24.3601765,12.2486243 24.3601765,11.767439 C24.3601765,11.303884 24.2473249,10.9441526 24.0217871,10.6877104 C23.7959184,10.4316243 23.451241,10.3034032 22.9875896,10.3034032 C22.5816878,10.3034032 22.248428,10.4294873 21.9874793,10.6811212 C21.7266961,10.9329332 21.5963045,11.2616779 21.5963045,11.6669991 L20.0870381,11.6669991 C20.0870381,11.1681834 20.2101489,10.7135327 20.4565361,10.3034032 C20.7027579,9.89345182 21.0464424,9.57396755 21.4874242,9.34423806 C21.928406,9.11468666 22.4223387,9 22.9690568,9 C23.8717044,9 24.5807501,9.24397628 25.0961942,9.73192884 C25.6116382,10.2198814 25.8694429,10.8983848 25.8694429,11.767439 C25.8694429,12.2042812 25.7398787,12.6154791 25.4812466,13.0006767 C25.2226145,13.3862305 24.8880309,13.6770431 24.4783232,13.8729364 C24.9752344,14.0558296 25.3530061,14.3432586 25.6116382,14.7354015 C25.8702703,15.1273663 26,15.5953734 26,16.1390665 C26,17.0125728 25.7211804,17.7076381 25.1645339,18.2246185 C24.6075565,18.7415988 23.8756757,19 22.9690568,19 C22.0993381,19 21.3871484,18.7505031 20.8321566,18.2513312 C20.2773304,17.7523374 20,17.0882589 20,16.2594519 L21.5092664,16.2594519 C21.5092664,16.6872117 21.642802,17.0348334 21.9098731,17.3021388 C22.1769443,17.5696223 22.5360177,17.7031859 22.9875896,17.7031859 C23.4553778,17.7031859 23.8238831,17.5696223 24.0931054,17.3021388 C24.3621622,17.0348334 24.496856,16.6469645 24.496856,16.1390665 C24.496856,15.6267163 24.3560397,15.2322583 24.0744071,14.9558706 C23.7927744,14.6794828 23.3747932,14.5414671 22.8198014,14.5414671 L21.9315499,14.5414671 L21.9315499,13.2580094 Z" id="Fill-9" fill="#676767"></path>
                    <path d="M30.0374699,13.6864277 C29.7046443,13.6864277 29.4002326,13.7875685 29.1237365,13.98985 C28.8470741,14.1921315 28.6443546,14.4617803 28.5155778,14.798976 L28.5155778,15.2980329 C28.5155778,16.0263182 28.6568169,16.6051379 28.9397934,17.0344921 C29.2226038,17.4636666 29.5884959,17.6783437 30.0374699,17.6783437 C30.4864438,17.6783437 30.8420338,17.4963622 31.1040738,17.1322195 C31.3659475,16.7680769 31.4968844,16.28932 31.4968844,15.695949 C31.4968844,15.1025779 31.3636213,14.6193299 31.0977596,14.2460253 C30.8315655,13.87308 30.4779695,13.6864277 30.0374699,13.6864277 Z M31.6653743,9 L31.6653743,10.3554298 L31.4782741,10.3554298 C30.629843,10.3687236 29.952228,10.6207671 29.4450968,11.1104823 C28.9376333,11.6007365 28.6362126,12.2950687 28.5405024,13.1941974 C29.0270293,12.6414264 29.648481,12.364951 30.4055222,12.364951 C31.207926,12.364951 31.8410092,12.6707087 32.3047717,13.2818647 C32.768368,13.8932004 33,14.6822061 33,15.6487021 C33,16.6468158 32.7286549,17.4548639 32.1861309,18.0728465 C31.6434407,18.6908291 30.9314298,19 30.0499321,19 C29.1433438,19 28.4085685,18.6381928 27.845274,17.9143986 C27.2816472,17.1906045 27,16.2420731 27,15.0688045 L27,14.5090272 C27,12.787299 27.3876596,11.4386958 28.1633111,10.4633971 C28.9387964,9.4879188 30.0540862,9 31.5093467,9 L31.6653743,9 Z" id="Fill-11" fill="#676767"></path>
                    <path d="M39.4701015,12.9505645 C39.4701015,12.0371835 39.3525202,11.3674182 39.1173576,10.941981 C38.8823628,10.5165438 38.5089877,10.3035581 37.9968969,10.3035581 C37.4972184,10.3035581 37.1300495,10.5053246 36.8948869,10.9085016 C36.6598921,11.3118567 36.5362724,11.9411974 36.5236924,12.79688 L36.5236924,15.0026 C36.5236924,15.9117071 36.6431187,16.589308 36.8824746,17.0348684 C37.1216628,17.4804288 37.4972184,17.703031 38.009477,17.703031 C38.500601,17.703031 38.8634089,17.4969904 39.0985715,17.0849094 C39.333734,16.6726502 39.4575215,16.0276383 39.4701015,15.1498736 L39.4701015,12.9505645 Z M41,14.7687787 C41,16.1679667 40.7532638,17.2229227 40.2602947,17.9336468 C39.76699,18.644727 39.0167175,19 38.009477,19 C37.0188421,19 36.2727629,18.653453 35.7712393,17.9605371 C35.269548,17.2676212 35.01258,16.2415144 35,14.8823948 L35,13.19792 C35,11.798554 35.2464007,10.7492966 35.7397053,10.0496136 C36.2328422,9.34993055 36.9852954,9 37.9968969,9 C38.9999441,9 39.7480361,9.34102646 40.2413408,10.0229013 C40.7344776,10.7047762 40.98742,11.7250062 41,13.0843039 L41,14.7687787 Z" id="Fill-13" fill="#676767"></path>
                </g>
            </g>
        </g>
    </g>
</svg>