<?xml version="1.0" encoding="UTF-8"?>
<svg width="150px" height="142px" viewBox="0 0 150 142" version="1.1" xmlns="http://www.w3.org/2000/svg" xmlns:xlink="http://www.w3.org/1999/xlink">
    <!-- Generator: Sketch 52.6 (67491) - http://www.bohemiancoding.com/sketch -->
    <title>Group 21</title>
    <desc>Created with Sketch.</desc>
    <defs>
        <polygon id="path-1" points="5.67323167e-05 0.137793352 125.3186 0.137793352 125.3186 141.436835 5.67323167e-05 141.436835"></polygon>
        <polygon id="path-3" points="0.0999356735 0.263224806 54.8264519 0.263224806 54.8264519 55.5266855 0.0999356735 55.5266855"></polygon>
    </defs>
    <g id="Welcome" stroke="none" stroke-width="1" fill="none" fill-rule="evenodd">
        <g id="Corporate-Acceleration" transform="translate(-681.000000, -2410.000000)">
            <g id="Group-4" transform="translate(122.000000, 2336.000000)">
                <g id="Group-21" transform="translate(559.000000, 74.000000)">
                    <path d="M119.027128,113.232136 C120.862465,111.370549 122.567353,109.629949 124.281291,107.889349 C127.234495,104.883057 130.178025,101.876454 133.140591,98.8792045 C134.528719,97.4735035 136.037933,97.2873447 137.108988,98.376233 C138.152268,99.4376807 137.994044,100.889844 136.662091,102.248459 C131.416978,107.600601 126.17249,112.943699 120.918327,118.286486 C119.260251,119.971269 117.788175,119.868991 116.409409,117.969985 C114.164313,114.870457 111.946991,111.761576 109.739344,108.643339 C108.677339,107.13536 108.789063,105.785787 110.000242,104.8921 C111.239196,103.980016 112.627323,104.333624 113.745191,105.888065 C115.468803,108.271021 117.182741,110.663333 119.027128,113.232136" id="Fill-1" fill="#676767"></path>
                    <g id="Group-5">
                        <mask id="mask-2" fill="white">
                            <use xlink:href="#path-1"></use>
                        </mask>
                        <g id="Clip-4"></g>
                        <path d="M15.9223358,18.2964675 L15.9223358,18.3088743 C19.2493194,18.3088743 22.576303,18.2797184 25.9029788,18.3259335 C26.9630335,18.3408216 27.6020212,18.1153291 27.4422743,16.8830297 C27.2699077,15.5595407 27.2889911,14.1876654 26.9457969,12.9131831 C25.4302018,7.27462993 19.6663851,3.75762933 13.8274658,4.81034121 C7.86912107,5.88414455 3.90438098,11.1101736 4.37254104,17.1755186 C4.45318399,18.2226474 5.00044802,18.3032912 5.78779412,18.3011201 C9.16617989,18.2902642 12.5439501,18.2964675 15.9223358,18.2964675 Z M59.4655301,118.501674 C59.531091,125.040646 60.1873153,131.50828 54.7629993,136.893735 L56.9933003,136.893735 L108.394566,136.893735 C108.80486,136.893735 109.218847,136.862408 109.624832,136.906762 C110.863102,137.041996 111.624285,137.764068 111.701542,138.998849 C111.779723,140.250069 111.076713,141.039447 109.866453,141.304642 C109.422302,141.401724 108.95014,141.396762 108.490906,141.397072 C86.9967886,141.415062 65.502671,141.441426 44.0085534,141.436153 C35.4797914,141.433982 29.2613577,136.474698 27.6691211,128.401012 C27.4022606,127.048057 27.4142647,125.625314 27.4142647,124.235139 C27.4124179,91.1510156 27.4265766,58.0672029 27.4376573,24.9833902 C27.4382729,22.7523482 27.4367339,22.7418024 25.182117,22.7393211 C17.7949761,22.7312567 10.408143,22.7359092 3.02100205,22.7266042 C0.61125513,22.7238127 0.0255164159,22.1416264 0.014127907,19.7161087 C-0.000338577291,16.5179614 -0.155776334,13.3154716 1.05048222,10.2342577 C3.49778044,3.98188115 9.21419631,0.14385615 16.4012688,0.140134128 C37.6386833,0.129588399 58.8760978,0.157503564 80.1135123,0.167739124 C89.1935397,0.171771314 98.273567,0.156883227 107.353287,0.174562831 C116.713102,0.192862772 123.452329,5.85250737 125.137521,15.1225133 C125.320352,16.1283897 125.307117,17.1789304 125.307733,18.2093102 C125.316966,36.922396 125.314504,55.6357921 125.313273,74.3488779 C125.313273,74.7623325 125.337897,75.18106 125.281262,75.5876909 C125.115051,76.7815294 124.312931,77.61092 123.232562,77.459868 C122.441214,77.349448 121.605852,76.5889148 121.077055,75.8959984 C120.737863,75.4515269 120.874832,74.6032161 120.874525,73.9360436 C120.865598,55.4813281 120.829894,37.0263025 120.894531,18.5718972 C120.909614,14.3492632 119.747986,10.755651 116.582288,7.90551266 C114.26765,5.82149052 111.5538,4.70364325 108.464128,4.7011619 C81.7374521,4.6794501 55.0107763,4.68658398 28.2841005,4.68751448 C28.0809542,4.68751448 27.8778078,4.72008218 27.5038338,4.75202953 C27.6971306,5.11058432 27.8073222,5.42416467 28.005236,5.66423509 C30.6347503,8.85959096 31.8594767,12.5326063 31.8443947,16.6761473 C31.8129993,25.2014386 31.8259268,33.7264198 31.8222332,42.251401 C31.8099213,69.8576381 31.7902223,97.4638751 31.7933003,125.069802 C31.7936081,130.51512 34.799251,134.841971 39.5196341,136.353112 C44.6927873,138.009411 49.9053386,136.376684 53.0020896,132.167698 C54.5727804,130.032498 55.082801,127.603879 55.0868023,125.017694 C55.0914193,122.277975 55.0618707,119.537947 55.0941895,116.798539 C55.1181977,114.747084 55.8710705,113.980037 57.8902223,113.977246 C68.0472332,113.963288 78.204552,113.9667 88.3615629,113.978797 C90.050448,113.980968 91.1034234,114.892553 91.1003454,116.254813 C91.0972674,117.61087 90.0445999,118.49485 88.3452497,118.496711 C79.4705233,118.506016 70.5957969,118.501364 61.7210705,118.501674 L59.4655301,118.501674 Z" id="Fill-3" fill="#676767" mask="url(#mask-2)"></path>
                    </g>
                    <g id="Group-8" transform="translate(95.058140, 81.104651)">
                        <mask id="mask-4" fill="white">
                            <use xlink:href="#path-3"></use>
                        </mask>
                        <g id="Clip-7"></g>
                        <path d="M27.4276213,50.9894264 C40.0025547,51.0567132 50.3239511,40.7581085 50.3988439,28.0684961 C50.4743506,15.2257054 40.2210944,4.77051163 27.4896227,4.7088062 C14.9426207,4.64834109 4.66665113,14.959969 4.58531262,27.6923721 C4.50274636,40.6616744 14.561097,50.9205891 27.4276213,50.9894264 M54.8245795,27.8666357 C55.0130393,42.5047752 42.6489722,55.3109767 28.1222215,55.5236899 C12.9134551,55.7463256 0.27590636,43.5305116 0.101872645,28.4384186 C-0.0761512602,12.9863256 12.0392963,0.262294574 27.3300151,0.263224806 C42.4948894,0.264465116 54.5286915,12.1444651 54.8245795,27.8666357" id="Fill-6" fill="#676767" mask="url(#mask-4)"></path>
                    </g>
                    <path d="M52.79054,56.8356261 C50.5543364,56.0519573 48.5312512,55.3664019 46.5263365,54.631016 C45.3233877,54.1896607 45.1453784,53.3391386 45.5318865,52.1534217 C46.7240562,48.4981577 46.6482945,48.6284597 50.2288072,49.836461 C52.0236832,50.4418544 54.0224384,50.6185823 55.9334208,50.6421047 C57.7058147,50.6640796 59.1400524,49.3752973 59.4772846,47.9246434 C59.8871988,46.1616981 59.2635502,44.7286861 57.7818844,43.7942879 C56.5321234,43.0059765 55.1517813,42.4284386 53.8367297,41.7431927 C52.3849374,40.9867604 50.8644668,40.3296795 49.5106105,39.4237559 C46.5518984,37.444466 45.2617928,34.5741089 45.7490086,31.0395521 C46.2433079,27.4526889 48.3332235,24.9995456 51.6975381,23.8317801 C52.996575,23.3811396 53.3553654,22.7581043 53.250962,21.5120338 C53.1561058,20.385123 53.190291,19.245832 53.2075376,18.1124216 C53.2210885,17.1972128 53.6793547,16.7490483 54.6362318,16.6685768 C58.2503138,16.3640231 58.4917658,16.5645829 58.4948456,20.202824 L58.4948456,20.357577 C58.4945376,22.7738891 58.502545,22.7435575 60.7301253,23.3297616 C61.7144121,23.5885085 62.661434,23.9930326 63.620159,24.3458693 C63.8585313,24.4340784 64.0929,24.5550952 64.3010908,24.701182 C65.2511925,25.3687861 64.9872582,27.2905079 63.6965367,29.4421925 C63.1123088,30.4165169 62.3845648,30.2178141 61.5912223,29.7968862 C59.6787,28.7820165 57.640832,28.4099905 55.4936331,28.6083837 C53.7779066,28.7671602 52.632857,29.6210869 52.293469,31.0246959 C51.9057289,32.6270076 52.6405564,33.7700127 53.9482165,34.499518 C55.4662233,35.3466354 57.1154273,35.9566715 58.6285066,36.8115266 C60.2712431,37.7391156 62.0282382,38.6106841 63.377475,39.8886337 C68.4741467,44.7138298 66.5837986,53.0447986 59.8400787,55.586151 C58.5709153,56.0646471 58.1262,56.6833493 58.3020535,57.9244677 C58.3162203,58.0253666 58.3032854,58.1302891 58.3029774,58.233664 C58.2983578,61.7787439 57.6482234,62.3668051 54.1502479,61.6518466 C53.6162199,61.5422815 52.9642377,60.7087822 52.8502871,60.1163881 C52.6408643,59.0263085 52.79054,57.8668996 52.79054,56.8356261" id="Fill-9" fill="#676767"></path>
                    <path d="M77.1273158,77.6148143 C67.522862,77.6148143 57.9184082,77.6151183 48.3139544,77.6135984 C47.9548864,77.6132945 47.5902657,77.630925 47.2370587,77.5795532 C46.0512704,77.4071995 45.4000739,76.6712762 45.3516429,75.533802 C45.302595,74.3890325 45.89734,73.5357749 47.0794266,73.3813556 C48.2426961,73.2293681 49.4349625,73.2606776 50.6142728,73.2600696 C68.8986726,73.2542941 87.1833809,73.2570299 105.468089,73.255814 C107.879768,73.255814 109.002935,73.9476609 109.011573,75.4526407 C109.020519,76.9536689 107.94023,77.6151183 105.478578,77.6151183 C96.0280541,77.6151183 86.5778392,77.6151183 77.1273158,77.6148143" id="Fill-11" fill="#676767"></path>
                    <path d="M65.4267782,91.5564344 C59.2667798,91.5564344 53.107095,91.569175 46.9474103,91.5476373 C45.420195,91.5421771 44.4667835,90.6561012 44.4768227,89.3932685 C44.4859207,88.1616806 45.3408225,87.364182 46.8081162,87.2325295 C47.1196456,87.2046216 47.4339984,87.2109918 47.7470964,87.2109918 C54.0112517,87.2094751 60.2757207,87.2085651 66.5401897,87.2100818 C71.8123452,87.2112952 77.0848145,87.215542 82.3575975,87.2191822 C82.8272444,87.2194855 83.2978325,87.2073517 83.7665383,87.2291926 C85.3712438,87.3041193 86.3983808,88.2126429 86.3343808,89.4836659 C86.271322,90.7286011 85.3003418,91.5388403 83.7495971,91.5506708 C80.4611274,91.5755452 77.1720302,91.5664448 73.8835604,91.5688716 C71.0647376,91.5706917 68.245601,91.569175 65.4267782,91.569175 L65.4267782,91.5564344 Z" id="Fill-13" fill="#676767"></path>
                    <path d="M92.4749369,34.0088225 C87.873309,34.0091266 83.2719955,34.0170335 78.6703677,34.004869 C76.8484513,34.0003073 75.8768254,33.2309028 75.8721103,31.8517528 C75.8673952,30.4789891 76.8299052,29.6733952 78.6612519,29.6691376 C87.8641932,29.648458 97.0671345,29.6448086 106.270076,29.6624471 C108.004606,29.6657924 109.060789,30.5966806 109.009866,31.9223069 C108.959886,33.2141766 107.960912,34.0000032 106.279192,34.0042608 C101.677564,34.0164253 97.0765647,34.0085183 92.4749369,34.0088225" id="Fill-15" fill="#676767"></path>
                    <path d="M92.3618876,47.955428 C87.8133564,47.955428 83.2651395,47.9639271 78.7166082,47.9511785 C76.8856916,47.9463219 75.8987254,47.1920288 75.8726368,45.8424969 C75.8459196,44.4550227 76.8042826,43.6178636 78.6201119,43.6145247 C87.821843,43.5978301 97.0235742,43.6029903 106.224677,43.624845 C107.996815,43.6290946 109.045074,44.5090525 109.010813,45.8236775 C108.975924,47.1634962 107.963812,47.9502679 106.164327,47.9563386 C101.563304,47.9721226 96.9629104,47.9618023 92.3618876,47.9618023 L92.3618876,47.955428 Z" id="Fill-17" fill="#676767"></path>
                    <path d="M92.3070469,61.9138646 C87.6520857,61.9138646 82.9977534,61.9290523 78.3431067,61.9050557 C76.8241525,61.8971581 75.8708366,61.0101958 75.8720943,59.7368582 C75.8736664,58.4941997 76.7213378,57.7010975 78.201933,57.5856709 C78.6697872,57.5492204 79.1426722,57.5625856 79.6130418,57.5625856 C85.889143,57.5613705 92.1652443,57.5592443 98.4410311,57.5628893 C101.212627,57.5644081 103.985796,57.5355514 106.75582,57.6041999 C108.138631,57.6388279 109.136909,58.661872 108.998879,59.8267694 C108.850788,61.0730729 108.131714,61.8588851 106.741357,61.8971581 C106.323495,61.9087007 105.90469,61.9077895 105.486514,61.9077895 C101.093148,61.908397 96.7000977,61.9080932 92.3070469,61.9080932 L92.3070469,61.9138646 Z" id="Fill-19" fill="#676767"></path>
                </g>
            </g>
        </g>
    </g>
</svg>