<?xml version="1.0" encoding="UTF-8"?>
<svg width="55px" height="45px" viewBox="0 0 55 45" version="1.1" xmlns="http://www.w3.org/2000/svg" xmlns:xlink="http://www.w3.org/1999/xlink">
    <!-- Generator: Sketch 52.6 (67491) - http://www.bohemiancoding.com/sketch -->
    <title>Group 5</title>
    <desc>Created with Sketch.</desc>
    <g id="Welcome" stroke="none" stroke-width="1" fill="none" fill-rule="evenodd">
        <g id="Corporate-Acceleration" transform="translate(-486.000000, -5379.000000)">
            <g id="Group-7" transform="translate(0.000000, 4808.000000)">
                <g id="Group-5" transform="translate(486.000000, 571.000000)">
                    <path d="M51.8500451,14.6773863 C48.7751431,15.8513551 45.7000349,17.0249109 42.6246173,18.1977437 C42.4509709,18.2639395 42.2737155,18.3211509 42.0299506,18.4063483 C42.0299506,17.8006721 42.0129366,17.2522073 42.0425307,16.7062209 C42.0494395,16.5783731 42.188439,16.392178 42.3098059,16.3456034 C45.9320446,14.9544587 49.5597484,13.5772553 53.1875553,12.2002585 C53.2175619,12.1887956 53.2597361,12.209656 53.33202,12.2213255 C53.3462499,12.2865919 53.3598612,12.3234591 53.361511,12.3607394 C53.4375071,14.0707807 53.4375071,14.0712971 51.8500451,14.6773863 M44.0771012,31.4291611 C43.4271647,31.8550449 42.7966138,32.3104638 42.0287133,32.8435415 L42.0287133,32.179518 C42.0287133,28.3595755 42.0344877,24.539633 42.0202578,20.7196906 C42.0187111,20.3197274 42.1147115,20.1051332 42.5211925,19.9806933 C43.1533932,19.7871661 43.7634241,19.5210403 44.4566691,19.2578061 C44.4731675,19.5022453 44.4956467,19.6812115 44.4957498,19.860281 C44.4978121,23.4319633 44.4917283,27.0036457 44.5053395,30.575328 C44.5067832,30.9598007 44.400368,31.2173551 44.0771012,31.4291611 M41.6119207,14.8300188 C41.3668153,14.9215157 41.008283,14.8811373 40.7615278,14.770329 C36.5515312,12.8817346 32.3510212,10.9720731 28.147624,9.06902097 C27.975215,8.99105242 27.7985783,8.90100133 27.615239,8.87218912 C27.2061802,8.80785216 26.8378519,8.98382355 26.7683521,9.37284013 C26.7173099,9.65879365 26.8685802,10.0085678 27.0094359,10.2899774 C27.0788326,10.4286685 27.3240411,10.4866028 27.4970688,10.5649844 C31.1610692,12.2257661 34.8264101,13.883966 38.4906168,15.5444379 C38.6527142,15.617656 38.8075936,15.7066744 39.0074313,15.809944 C38.882971,15.8770693 38.8196581,15.9208556 38.7498489,15.9474991 C35.1174018,17.3348229 31.4869139,18.7274135 27.8459083,20.0918114 C27.6000811,20.1839279 27.2492824,20.1294016 26.9897409,20.0308824 C20.1472075,17.4317931 13.3101392,14.8179363 6.47224593,12.2064547 C5.41355985,11.8021542 4.35538935,11.3967177 3.16863392,10.9426413 C3.48416712,10.8043633 3.66410354,10.7165842 3.85043311,10.6454314 C11.5783156,7.69305684 19.3053731,4.73861688 27.0404737,1.80555373 C27.3228037,1.69846316 27.7160859,1.71798111 28.0051185,1.82321283 C29.7961303,2.47546362 31.5701281,3.17418573 33.354025,3.84626428 C33.4314646,3.8753863 33.5073576,3.89707292 33.5811882,3.91194374 L36.4222244,5.00081839 C36.466461,5.0269456 36.512966,5.05152376 36.5630801,5.07362346 C36.6850657,5.12722038 36.8129288,5.16728899 36.9374922,5.21489627 C41.6910102,7.03326737 46.4446314,8.8515352 51.1979431,10.6705259 C51.3787045,10.7397165 51.5568879,10.8155164 51.8234413,10.9235364 C51.6183447,11.0179248 51.5352337,11.0621242 51.4481012,11.0952738 C48.1714023,12.3457653 44.8970751,13.6024531 41.6119207,14.8300188 M42.6569955,41.8796314 C42.6612233,42.6900912 42.0293319,43.3440976 41.2258566,43.3609305 C40.4120696,43.37797 39.7377978,42.6987659 39.7462533,41.8704404 C39.7543994,41.0682422 40.4081512,40.419296 41.2061615,40.4212581 C42.0042749,40.4233235 42.6528709,41.0752645 42.6569955,41.8796314 M29.8620211,21.0903252 C33.1553215,19.8333276 36.4489313,18.5766399 39.742438,17.3201587 C39.9194872,17.2526203 40.0975676,17.1880768 40.3814443,17.0825353 C40.3814443,17.7153714 40.3960867,18.2961596 40.3679362,18.8748825 C40.3629867,18.978875 40.1997549,19.1209739 40.0796255,19.1671354 C36.2364104,20.6400697 32.3894833,22.1035032 28.5426592,23.5667302 C28.4920295,23.5861448 28.4329444,23.5836664 28.3433371,23.5962653 C28.3261168,23.5148888 28.3125056,23.4780216 28.3111651,23.440638 C28.2488833,21.7062251 28.2488833,21.7060185 29.8620211,21.0903252 M39.8417382,34.0338269 C34.9854141,36.3969451 29.8847065,37.3565262 24.5056903,36.7646882 C19.4996426,36.2138481 14.9851461,34.4130329 10.9279666,31.4339115 C10.5982035,31.1918475 10.4814768,30.932331 10.486117,30.5279273 C10.5072557,28.7307264 10.4975628,26.9332158 10.4926133,25.1357052 C10.4920977,24.9661365 10.5140613,24.7649673 10.4772491,24.6084106 L10.4772491,19.3139848 C10.4831266,19.2949832 10.4885918,19.2761881 10.4946756,19.25698 C10.777315,19.3525044 10.956942,19.4067209 11.1318258,19.4734331 C16.3494663,21.4654004 21.5684474,23.4539598 26.7809321,25.4594554 C27.2768142,25.6502976 27.7141267,25.6582493 28.2118649,25.4661679 C32.0885924,23.9702045 35.9729505,22.4939656 39.8557619,21.0134926 C40.0071353,20.9558682 40.1657269,20.9169355 40.3880437,20.848571 L40.3880437,21.4785156 C40.3880437,25.3794214 40.3785571,29.280224 40.4005207,33.1809233 C40.4030986,33.6448103 40.2323394,33.8436043 39.8417382,34.0338269 M2.34907251,14.387302 C1.76750151,14.1675443 1.53116096,13.8928472 1.61509691,13.2840729 C1.66335493,12.9347119 1.62386172,12.5732683 1.62386172,12.1382967 C1.8997986,12.2293805 2.09571791,12.2853526 2.28534718,12.3576413 C10.2601911,15.4022357 18.2335914,18.450651 26.2119412,21.4858477 C26.5743919,21.6237126 26.726281,21.7934879 26.6941089,22.188081 C26.6570905,22.6425705 26.6854473,23.10243 26.6854473,23.6568845 C24.8853613,22.9732398 23.1773574,22.327495 21.4715189,21.6760703 C15.0989856,19.242419 8.73047375,16.797821 2.34907251,14.387302 M54.9919721,11.4251169 C54.9917659,10.4222658 54.9408269,10.3491509 54.0242338,9.99844736 C53.9642207,9.97552151 53.9041044,9.95249239 53.8440912,9.92946327 C53.8161469,9.91211398 53.7864497,9.89703661 53.7548964,9.88495407 L47.951354,7.67395196 C46.1303355,6.9767789 44.3093171,6.27991564 42.4878862,5.58377528 C40.8230877,4.94763455 39.1575673,4.31283632 37.4885411,3.68774544 L34.0843915,2.39078255 C34.0220067,2.35949186 33.9560128,2.3304731 33.8858943,2.30403609 C31.9250514,1.56121786 29.9749324,0.7889678 28.0039842,0.0745487151 C27.6847388,-0.0412165052 27.2429924,-0.0158121839 26.9194162,0.106975369 C18.2760749,3.38661129 9.63984869,6.68514555 1.00723148,9.99276753 C0.648389797,10.1303226 0.334609556,10.3855018 0,10.5860514 L0,14.9460938 C0.288104499,15.1471598 0.550430143,15.414628 0.868541231,15.5389646 C3.37177131,16.5175473 5.88325061,17.4752696 8.39906077,18.420806 C8.70696343,18.536468 8.76171772,18.6943672 8.8317331,18.9855875 L8.8317331,29.7641453 C8.8317331,29.8074153 8.83750756,29.8492395 8.84740664,29.8896179 C8.8457568,30.3097186 8.84348826,30.7298193 8.83946675,31.1500233 C8.8344141,31.6824814 9.02476517,32.0475394 9.44960073,32.357658 C18.9149781,39.2662909 29.0300858,40.4719635 39.8154438,35.847241 C39.980944,35.7763981 40.1511876,35.7163985 40.3879406,35.6246951 C40.3879406,36.5922279 40.3721639,37.4873688 40.3957774,38.3815803 C40.4050578,38.7353819 40.3012205,38.9084618 39.9609396,39.0580994 C38.5223763,39.690729 37.8024244,41.2313049 38.2122051,42.7041359 C38.5975475,44.0890845 39.858546,45.0333817 41.2767956,44.9990962 C42.6923641,44.9649139 43.9403701,43.9330441 44.2265154,42.5598682 C44.5266844,41.1191541 43.8494223,39.6918649 42.5195427,39.0946569 C42.1220327,38.916207 42.0029344,38.7153476 42.0173706,38.2927684 C42.0523267,37.2613117 42.0430463,36.2276862 42.0207734,35.1957131 C42.0132459,34.8490371 42.1239919,34.6556131 42.4200363,34.4649775 C43.4461379,33.8043618 44.4375927,33.0901493 45.4592604,32.4224081 C45.9792714,32.0824445 46.1592079,31.6430324 46.1559082,31.0262031 C46.1355944,27.0871908 46.1536396,23.1479719 46.1346664,19.2090629 C46.1326041,18.7570519 46.254899,18.5436969 46.6912835,18.3819767 C49.2108058,17.4473868 51.7145514,16.4697335 54.2303616,15.5246101 C54.7702739,15.3217886 55.0149669,14.9933913 54.9992933,14.407956 C54.9725864,13.4143992 54.9921783,12.4194998 54.9919721,11.4251169" id="Fill-1" fill="#676767"></path>
                    <path d="M51.8500451,14.6773863 C48.7751431,15.8513551 45.7000349,17.0249109 42.6246173,18.1977437 C42.4509709,18.2639395 42.2737155,18.3211509 42.0299506,18.4063483 C42.0299506,17.8006721 42.0129366,17.2522073 42.0425307,16.7062209 C42.0494395,16.5783731 42.188439,16.392178 42.3098059,16.3456034 C45.9320446,14.9544587 49.5597484,13.5772553 53.1875553,12.2002585 C53.2175619,12.1887956 53.2597361,12.209656 53.33202,12.2213255 C53.3462499,12.2865919 53.3598612,12.3234591 53.361511,12.3607394 C53.4375071,14.0707807 53.4375071,14.0712971 51.8500451,14.6773863 Z M44.0771012,31.4291611 C43.4271647,31.8550449 42.7966138,32.3104638 42.0287133,32.8435415 L42.0287133,32.179518 C42.0287133,28.3595755 42.0344877,24.539633 42.0202578,20.7196906 C42.0187111,20.3197274 42.1147115,20.1051332 42.5211925,19.9806933 C43.1533932,19.7871661 43.7634241,19.5210403 44.4566691,19.2578061 C44.4731675,19.5022453 44.4956467,19.6812115 44.4957498,19.860281 C44.4978121,23.4319633 44.4917283,27.0036457 44.5053395,30.575328 C44.5067832,30.9598007 44.400368,31.2173551 44.0771012,31.4291611 Z M41.6119207,14.8300188 C41.3668153,14.9215157 41.008283,14.8811373 40.7615278,14.770329 C36.5515312,12.8817346 32.3510212,10.9720731 28.147624,9.06902097 C27.975215,8.99105242 27.7985783,8.90100133 27.615239,8.87218912 C27.2061802,8.80785216 26.8378519,8.98382355 26.7683521,9.37284013 C26.7173099,9.65879365 26.8685802,10.0085678 27.0094359,10.2899774 C27.0788326,10.4286685 27.3240411,10.4866028 27.4970688,10.5649844 C31.1610692,12.2257661 34.8264101,13.883966 38.4906168,15.5444379 C38.6527142,15.617656 38.8075936,15.7066744 39.0074313,15.809944 C38.882971,15.8770693 38.8196581,15.9208556 38.7498489,15.9474991 C35.1174018,17.3348229 31.4869139,18.7274135 27.8459083,20.0918114 C27.6000811,20.1839279 27.2492824,20.1294016 26.9897409,20.0308824 C20.1472075,17.4317931 13.3101392,14.8179363 6.47224593,12.2064547 C5.41355985,11.8021542 4.35538935,11.3967177 3.16863392,10.9426413 C3.48416712,10.8043633 3.66410354,10.7165842 3.85043311,10.6454314 C11.5783156,7.69305684 19.3053731,4.73861688 27.0404737,1.80555373 C27.3228037,1.69846316 27.7160859,1.71798111 28.0051185,1.82321283 C29.7961303,2.47546362 31.5701281,3.17418573 33.354025,3.84626428 C33.4314646,3.8753863 33.5073576,3.89707292 33.5811882,3.91194374 L36.4222244,5.00081839 C36.466461,5.0269456 36.512966,5.05152376 36.5630801,5.07362346 C36.6850657,5.12722038 36.8129288,5.16728899 36.9374922,5.21489627 C41.6910102,7.03326737 46.4446314,8.8515352 51.1979431,10.6705259 C51.3787045,10.7397165 51.5568879,10.8155164 51.8234413,10.9235364 C51.6183447,11.0179248 51.5352337,11.0621242 51.4481012,11.0952738 C48.1714023,12.3457653 44.8970751,13.6024531 41.6119207,14.8300188 Z M42.6569955,41.8796314 C42.6612233,42.6900912 42.0293319,43.3440976 41.2258566,43.3609305 C40.4120696,43.37797 39.7377978,42.6987659 39.7462533,41.8704404 C39.7543994,41.0682422 40.4081512,40.419296 41.2061615,40.4212581 C42.0042749,40.4233235 42.6528709,41.0752645 42.6569955,41.8796314 Z M29.8620211,21.0903252 C33.1553215,19.8333276 36.4489313,18.5766399 39.742438,17.3201587 C39.9194872,17.2526203 40.0975676,17.1880768 40.3814443,17.0825353 C40.3814443,17.7153714 40.3960867,18.2961596 40.3679362,18.8748825 C40.3629867,18.978875 40.1997549,19.1209739 40.0796255,19.1671354 C36.2364104,20.6400697 32.3894833,22.1035032 28.5426592,23.5667302 C28.4920295,23.5861448 28.4329444,23.5836664 28.3433371,23.5962653 C28.3261168,23.5148888 28.3125056,23.4780216 28.3111651,23.440638 C28.2488833,21.7062251 28.2488833,21.7060185 29.8620211,21.0903252 Z M39.8417382,34.0338269 C34.9854141,36.3969451 29.8847065,37.3565262 24.5056903,36.7646882 C19.4996426,36.2138481 14.9851461,34.4130329 10.9279666,31.4339115 C10.5982035,31.1918475 10.4814768,30.932331 10.486117,30.5279273 C10.5072557,28.7307264 10.4975628,26.9332158 10.4926133,25.1357052 C10.4920977,24.9661365 10.5140613,24.7649673 10.4772491,24.6084106 L10.4772491,19.3139848 C10.4831266,19.2949832 10.4885918,19.2761881 10.4946756,19.25698 C10.777315,19.3525044 10.956942,19.4067209 11.1318258,19.4734331 C16.3494663,21.4654004 21.5684474,23.4539598 26.7809321,25.4594554 C27.2768142,25.6502976 27.7141267,25.6582493 28.2118649,25.4661679 C32.0885924,23.9702045 35.9729505,22.4939656 39.8557619,21.0134926 C40.0071353,20.9558682 40.1657269,20.9169355 40.3880437,20.848571 L40.3880437,21.4785156 C40.3880437,25.3794214 40.3785571,29.280224 40.4005207,33.1809233 C40.4030986,33.6448103 40.2323394,33.8436043 39.8417382,34.0338269 Z M2.34907251,14.387302 C1.76750151,14.1675443 1.53116096,13.8928472 1.61509691,13.2840729 C1.66335493,12.9347119 1.62386172,12.5732683 1.62386172,12.1382967 C1.8997986,12.2293805 2.09571791,12.2853526 2.28534718,12.3576413 C10.2601911,15.4022357 18.2335914,18.450651 26.2119412,21.4858477 C26.5743919,21.6237126 26.726281,21.7934879 26.6941089,22.188081 C26.6570905,22.6425705 26.6854473,23.10243 26.6854473,23.6568845 C24.8853613,22.9732398 23.1773574,22.327495 21.4715189,21.6760703 C15.0989856,19.242419 8.73047375,16.797821 2.34907251,14.387302 Z M54.9919721,11.4251169 C54.9917659,10.4222658 54.9408269,10.3491509 54.0242338,9.99844736 C53.9642207,9.97552151 53.9041044,9.95249239 53.8440912,9.92946327 C53.8161469,9.91211398 53.7864497,9.89703661 53.7548964,9.88495407 L47.951354,7.67395196 C46.1303355,6.9767789 44.3093171,6.27991564 42.4878862,5.58377528 C40.8230877,4.94763455 39.1575673,4.31283632 37.4885411,3.68774544 L34.0843915,2.39078255 C34.0220067,2.35949186 33.9560128,2.3304731 33.8858943,2.30403609 C31.9250514,1.56121786 29.9749324,0.7889678 28.0039842,0.0745487151 C27.6847388,-0.0412165052 27.2429924,-0.0158121839 26.9194162,0.106975369 C18.2760749,3.38661129 9.63984869,6.68514555 1.00723148,9.99276753 C0.648389797,10.1303226 0.334609556,10.3855018 0,10.5860514 L0,14.9460938 C0.288104499,15.1471598 0.550430143,15.414628 0.868541231,15.5389646 C3.37177131,16.5175473 5.88325061,17.4752696 8.39906077,18.420806 C8.70696343,18.536468 8.76171772,18.6943672 8.8317331,18.9855875 L8.8317331,29.7641453 C8.8317331,29.8074153 8.83750756,29.8492395 8.84740664,29.8896179 C8.8457568,30.3097186 8.84348826,30.7298193 8.83946675,31.1500233 C8.8344141,31.6824814 9.02476517,32.0475394 9.44960073,32.357658 C18.9149781,39.2662909 29.0300858,40.4719635 39.8154438,35.847241 C39.980944,35.7763981 40.1511876,35.7163985 40.3879406,35.6246951 C40.3879406,36.5922279 40.3721639,37.4873688 40.3957774,38.3815803 C40.4050578,38.7353819 40.3012205,38.9084618 39.9609396,39.0580994 C38.5223763,39.690729 37.8024244,41.2313049 38.2122051,42.7041359 C38.5975475,44.0890845 39.858546,45.0333817 41.2767956,44.9990962 C42.6923641,44.9649139 43.9403701,43.9330441 44.2265154,42.5598682 C44.5266844,41.1191541 43.8494223,39.6918649 42.5195427,39.0946569 C42.1220327,38.916207 42.0029344,38.7153476 42.0173706,38.2927684 C42.0523267,37.2613117 42.0430463,36.2276862 42.0207734,35.1957131 C42.0132459,34.8490371 42.1239919,34.6556131 42.4200363,34.4649775 C43.4461379,33.8043618 44.4375927,33.0901493 45.4592604,32.4224081 C45.9792714,32.0824445 46.1592079,31.6430324 46.1559082,31.0262031 C46.1355944,27.0871908 46.1536396,23.1479719 46.1346664,19.2090629 C46.1326041,18.7570519 46.254899,18.5436969 46.6912835,18.3819767 C49.2108058,17.4473868 51.7145514,16.4697335 54.2303616,15.5246101 C54.7702739,15.3217886 55.0149669,14.9933913 54.9992933,14.407956 C54.9725864,13.4143992 54.9921783,12.4194998 54.9919721,11.4251169 Z" id="Stroke-3"></path>
                </g>
            </g>
        </g>
    </g>
</svg>