<?xml version="1.0" encoding="UTF-8"?>
<svg width="46px" height="46px" viewBox="0 0 46 46" version="1.1" xmlns="http://www.w3.org/2000/svg" xmlns:xlink="http://www.w3.org/1999/xlink">
    <!-- Generator: Sketch 52.6 (67491) - http://www.bohemiancoding.com/sketch -->
    <title>Group 39</title>
    <desc>Created with Sketch.</desc>
    <defs>
        <polygon id="path-1" points="0.0101660807 0.0482368421 1.54631975 0.0482368421 1.54631975 8.63180904 0.0101660807 8.63180904"></polygon>
        <polygon id="path-3" points="0.0540202632 0.112085352 8.6626236 0.112085352 8.6626236 1.64597632 0.0540202632 1.64597632"></polygon>
        <polygon id="path-5" points="0.00822161365 0.0565756016 1.54422581 0.0565756016 1.54422581 8.65789474 0.00822161365 8.65789474"></polygon>
    </defs>
    <g id="Welcome" stroke="none" stroke-width="1" fill="none" fill-rule="evenodd">
        <g id="Corporate-Acceleration" transform="translate(-490.000000, -5036.000000)">
            <g id="Group-7" transform="translate(0.000000, 4808.000000)">
                <g id="Group-39" transform="translate(490.000000, 228.000000)">
                    <g id="Group-38">
                        <path d="M22.7781147,34.1097191 C16.4974028,34.078798 11.6270007,29.1685349 11.6617007,22.9014559 C11.6976401,16.5997454 16.618853,11.7364822 22.9144364,11.7859559 C29.1951483,11.8341927 34.0568754,16.7172454 34.0296111,22.9496927 C34.003586,29.2885085 29.1108767,34.1406401 22.7781147,34.1097191 M22.8809756,10.2671138 C15.9719446,10.2275349 10.1671193,15.9949296 10.139855,22.9249559 C10.1125906,29.8092191 15.8368622,35.5605349 22.7892683,35.629798 C29.67971,35.6978243 35.5068425,29.9291927 35.5539354,22.9942191 C35.5985498,16.0975875 29.8309031,10.3054559 22.8809756,10.2671138" id="Fill-1" fill="#676767"></path>
                        <path d="M11.5955227,12.7838401 C11.7454766,12.9322612 11.9598734,13.0151296 12.2411918,13.1870506 C12.4729387,12.9891559 12.7455821,12.8444454 12.8794252,12.6181033 C13.076472,12.2841559 12.921561,11.9650506 12.6526355,11.6966559 C11.0378431,10.0924717 9.43172577,8.48086643 7.81693342,6.87668222 C7.43275412,6.49326117 6.99032828,6.46728748 6.66439552,6.78268222 C6.33598418,7.10178748 6.35085564,7.55447169 6.72759921,7.93418222 C8.34610943,9.55568222 9.96709822,11.1734717 11.5955227,12.7838401" id="Fill-3" fill="#676767"></path>
                        <path d="M34.156886,33.1639059 C33.735528,32.7433796 33.2683164,32.7075112 32.9423837,33.0525901 C32.6263652,33.3865375 32.6746974,33.8256164 33.0811839,34.2350112 C33.8297139,34.9907217 34.5844403,35.7390112 35.3354489,36.4897743 C36.1942755,37.3469059 37.0531022,38.2028006 37.9106895,39.0599322 C38.1697007,39.3196691 38.4943942,39.429748 38.8066948,39.2454585 C39.0248095,39.1155901 39.164849,38.8558533 39.3680923,38.6208533 C39.1896348,38.3363796 39.0904918,38.0951954 38.9231879,37.925748 C37.340617,36.3314585 35.7493711,34.7470638 34.156886,33.1639059" id="Fill-5" fill="#676767"></path>
                        <path d="M33.6291971,13.0785796 C33.7370152,13.0068427 33.9823942,12.8967638 34.1633303,12.7186585 C35.7508583,11.1503427 37.3259934,9.57213222 38.9060857,7.99639538 C38.9581358,7.94321117 39.0139038,7.8912638 39.0609967,7.83313222 C39.3348794,7.49300064 39.3200079,7.06257959 39.0250574,6.77934275 C38.7449782,6.50971117 38.3260989,6.49857959 38.0014054,6.75460591 C37.9320053,6.80902696 37.8700409,6.87457959 37.8068372,6.93889538 C36.2378985,8.50473748 34.6689598,10.0693427 33.1024997,11.6364217 C33.0083138,11.7316585 32.9091707,11.8293691 32.8410099,11.9419217 C32.54482,12.4378954 32.8967779,13.0637375 33.6291971,13.0785796" id="Fill-7" fill="#676767"></path>
                        <path d="M12.5104891,32.9018191 C12.1994278,32.7101085 11.8759736,32.8201875 11.6157231,33.0799243 C9.98482004,34.7076085 8.35019908,36.3328191 6.72053527,37.9666875 C6.34503098,38.3426875 6.33759525,38.8015559 6.66848517,39.1169506 C6.98946078,39.4224506 7.42445089,39.4088454 7.78880158,39.0464506 C9.42590112,37.4212401 11.0580435,35.7923191 12.6827502,34.155977 C12.8289862,34.0075559 12.9021042,33.7861612 13.0557759,33.5177664 C12.8649255,33.2926612 12.7273645,33.0341612 12.5104891,32.9018191" id="Fill-9" fill="#676767"></path>
                        <g id="Group-13" transform="translate(22.067897, 0.042016)">
                            <mask id="mask-2" fill="white">
                                <use xlink:href="#path-1"></use>
                            </mask>
                            <g id="Clip-12"></g>
                            <path d="M0.0168358603,7.79804211 C0.0366644693,8.31627895 0.319222149,8.62425263 0.765365854,8.63167368 C1.217706,8.63909474 1.50274225,8.34101579 1.53744232,7.82401579 C1.54116018,7.75104211 1.5399209,7.67559474 1.5399209,7.60138421 C1.54116018,6.06027895 1.54363876,4.52041053 1.54363876,2.97930526 C1.54363876,2.24709474 1.55603164,1.51241053 1.52752802,0.7802 C1.51017798,0.339884211 1.16813448,0.0418052632 0.769083718,0.0479894737 C0.386143705,0.0541736842 0.0825181279,0.337410526 0.0267501648,0.754226316 C0.0069215557,0.901410526 0.011878708,1.05230526 0.011878708,1.20196316 C0.0106394199,2.24956842 0.011878708,3.29593684 0.011878708,4.34230526 C0.011878708,5.13635789 0.011878708,5.92793684 0.013117996,6.72075263 C0.013117996,7.08067368 0.00444297957,7.43935789 0.0168358603,7.79804211" id="Fill-11" fill="#676767" mask="url(#mask-2)"></path>
                        </g>
                        <path d="M4.24691628,23.7076296 C5.32633619,23.7076296 6.40451681,23.7088664 7.48393672,23.7076296 C7.58803691,23.7076296 7.69461569,23.7101033 7.79871589,23.7002085 C8.25849176,23.6556822 8.53733158,23.3761559 8.54352802,22.960577 C8.55096374,22.5264454 8.25849176,22.2073401 7.78012657,22.1937349 C6.9869822,22.1727085 6.19135926,22.1863138 5.3982149,22.185077 C3.91354779,22.1838401 2.43011997,22.1727085 0.946692156,22.1912612 C0.69387739,22.1949717 0.364226763,22.2518664 0.210555043,22.4163664 C0.0482083059,22.5870506 -0.0261489782,22.9271822 0.00855108767,23.172077 C0.0643190508,23.5666296 0.408841134,23.7039191 0.785584707,23.7063927 C1.9393619,23.7113401 3.09313909,23.7076296 4.24691628,23.7076296" id="Fill-14" fill="#676767"></path>
                        <g id="Group-18" transform="translate(37.085695, 22.068332)">
                            <mask id="mask-4" fill="white">
                                <use xlink:href="#path-3"></use>
                            </mask>
                            <g id="Clip-17"></g>
                            <path d="M7.88707713,0.125897368 C7.34798682,0.102397368 6.80889651,0.116002632 6.26856691,0.116002632 C4.53108504,0.116002632 2.79236388,0.109818421 1.05364272,0.123423684 C0.824374423,0.124660526 0.567841793,0.170423684 0.373273566,0.282976316 C0.0659301252,0.459844737 -0.00347000659,0.782660526 0.096912327,1.11042368 C0.213405405,1.49013421 0.514552406,1.63731842 0.895013843,1.63855526 C2.03391958,1.63979211 3.17282531,1.63855526 4.31173105,1.63855526 L4.31173105,1.64597632 C5.31555438,1.64597632 6.31937772,1.64597632 7.32320105,1.64473947 C7.51776928,1.64473947 7.7135768,1.64968684 7.90814502,1.63237105 C8.35552802,1.59279211 8.65543573,1.28976579 8.66287146,0.891502632 C8.67030719,0.475923684 8.35800659,0.146923684 7.88707713,0.125897368" id="Fill-16" fill="#676767" mask="url(#mask-4)"></path>
                        </g>
                        <g id="Group-21" transform="translate(22.067897, 37.147280)">
                            <mask id="mask-6" fill="white">
                                <use xlink:href="#path-5"></use>
                            </mask>
                            <g id="Clip-20"></g>
                            <path d="M1.50534476,0.662081579 C1.39256955,0.131476316 0.753096902,-0.139392105 0.357764008,0.220528947 C0.166913645,0.393686842 0.0367883982,0.730107895 0.0293526697,0.997265789 C-0.00658668425,2.11784474 0.0144812129,3.23966053 0.0132419249,4.36147632 L0.0132419249,6.47029211 C0.0144812129,6.93410789 0.000849044166,7.39792368 0.0206776533,7.86050263 C0.0405062624,8.33668684 0.351567568,8.65084474 0.766729071,8.65826579 C1.18189057,8.66568684 1.49419117,8.35276579 1.53384838,7.88152895 C1.54748055,7.73310789 1.54376269,7.58345 1.54376269,7.43379211 C1.5425234,5.32497632 1.5425234,3.21492368 1.53880554,1.10734474 C1.53756625,0.957686842 1.53632696,0.805555263 1.50534476,0.662081579" id="Fill-19" fill="#676767" mask="url(#mask-6)"></path>
                        </g>
                        <path d="M9.63496902,28.5571638 C9.62381543,28.015427 9.12562162,27.6752954 8.58900989,27.8880322 C6.40786289,28.7525849 4.23291233,29.6307427 2.05920105,30.5150849 C1.61677521,30.6956638 1.45566777,31.1038217 1.62049308,31.5033217 C1.78531839,31.9052954 2.179412,32.0895849 2.61811997,31.916427 C4.79802769,31.0481638 6.97421753,30.1700059 9.14792881,29.2893743 C9.46890442,29.1595059 9.64488332,28.9146112 9.63496902,28.5571638" id="Fill-22" fill="#676767"></path>
                        <path d="M29.1960158,36.644998 C29.0931549,36.3988664 28.7920079,36.2356033 28.6841898,36.1317085 C27.9269848,36.1267612 27.5775056,36.6388138 27.8005775,37.1966296 C28.6643612,39.3586296 29.5392986,41.5169191 30.4191931,43.6727349 C30.6038471,44.1229454 30.9954621,44.2923927 31.3957521,44.1402612 C31.8195887,43.9794717 32.0091997,43.5688401 31.8270244,43.1149191 C30.9620013,40.9529191 30.0944997,38.7921559 29.1960158,36.644998" id="Fill-24" fill="#676767"></path>
                        <path d="M15.8119525,7.59491643 C16.0424601,8.16262696 16.2580962,8.73528485 16.502236,9.29681117 C16.6720185,9.68765327 17.0388477,9.85462696 17.4242663,9.73712696 C17.7824206,9.62828485 17.9447673,9.35865327 17.9782281,8.96039012 C17.9484852,8.86515327 17.9150244,8.73528485 17.8654529,8.6103638 C17.0214977,6.52133748 16.1763032,4.43231117 15.3249123,2.34452169 C15.0993619,1.79041643 14.7350112,1.58881117 14.2938247,1.75331117 C13.8328095,1.92770591 13.6902914,2.34575854 13.9158418,2.90481117 C14.5454001,4.46941643 15.1799156,6.03154801 15.8119525,7.59491643" id="Fill-26" fill="#676767"></path>
                        <path d="M36.10294,17.6176664 C36.2566117,17.9949033 36.6854054,18.1779559 37.1179169,18.004798 C39.2978247,17.1365349 41.4777324,16.2670349 43.6440079,15.3666138 C43.8794726,15.2689033 44.0306658,14.9671138 44.134766,14.8545612 C44.143441,14.1545085 43.6254186,13.7822191 43.1049176,13.9726927 C42.4877521,14.1965612 41.8817403,14.4538243 41.2720105,14.7011927 C39.7043111,15.3307454 38.1366117,15.9578243 36.5738695,16.5972717 C36.1165722,16.782798 35.9356361,17.2082717 36.10294,17.6176664" id="Fill-28" fill="#676767"></path>
                        <path d="M43.4950455,30.8714191 C41.3362057,29.9549191 39.173648,29.0421296 37.0123296,28.130577 C36.9169044,28.090998 36.8115649,28.0773927 36.747122,28.0625506 C36.3369176,28.0798664 36.080385,28.2530243 35.9800026,28.6154191 C35.8659881,29.0322349 36.0481635,29.3661822 36.5178537,29.5665506 C38.6209255,30.4632612 40.7277152,31.3550243 42.8357442,32.2381296 C42.9931338,32.3049191 43.1889413,32.344498 43.3537666,32.3185243 C43.6933316,32.2653401 43.918882,32.0451822 43.9696928,31.6963927 C44.0279394,31.3055506 43.8507212,31.0235506 43.4950455,30.8714191" id="Fill-30" fill="#676767"></path>
                        <path d="M28.7325221,9.86328485 C29.1154621,9.86328485 29.3348161,9.64560064 29.4748556,9.31660064 C30.367143,7.21520591 31.261909,5.11504801 32.148,3.01117959 C32.2161608,2.8528638 32.2632538,2.65991643 32.238468,2.49417959 C32.1913751,2.15652169 31.9794568,1.92275854 31.6262597,1.86957433 C31.2172947,1.80649538 30.9322584,1.99325854 30.7723902,2.36678485 C30.3522716,3.35502169 29.9309136,4.34449538 29.510795,5.33396906 C29.0262334,6.47310064 28.5367146,7.61099538 28.0633065,8.75507433 C27.8204061,9.34257433 28.1488174,9.86823222 28.7325221,9.86328485" id="Fill-32" fill="#676767"></path>
                        <path d="M2.29119578,15.0593822 C3.01741859,15.3772506 3.74735926,15.6839875 4.47729993,15.9919612 C5.85290969,16.5757506 7.22604087,17.160777 8.60660778,17.7359085 C9.19279103,17.9808033 9.72692419,17.6666454 9.73807779,17.0927506 C9.74303494,16.690777 9.51128807,16.4706191 9.16428741,16.3234349 C7.07112986,15.4415664 4.98169018,14.5510401 2.88853263,13.6691717 C2.37174951,13.4514875 1.93799868,13.6011454 1.76201978,14.0365138 C1.59471589,14.4520927 1.78804483,14.8404612 2.29119578,15.0593822" id="Fill-34" fill="#676767"></path>
                        <path d="M17.1433197,36.0519322 C16.7293975,35.9628796 16.413379,36.1298533 16.223768,36.5763533 C15.3252841,38.6740375 14.4317574,40.7754322 13.5456664,42.8805375 C13.4787449,43.0376164 13.4304127,43.2305638 13.4514806,43.3963006 C13.4960949,43.7389059 13.7129703,43.9664849 14.0612103,44.0258533 C14.4478682,44.0926427 14.7452973,43.9293796 14.8977297,43.5731691 C15.8259565,41.4062217 16.7455082,39.234327 17.6638207,37.0636691 C17.7034779,36.9696691 17.7084351,36.8620638 17.7171101,36.821248 C17.7071958,36.4056691 17.4791668,36.1236691 17.1433197,36.0519322" id="Fill-36" fill="#676767"></path>
                    </g>
                </g>
            </g>
        </g>
    </g>
</svg>