<?xml version="1.0" encoding="UTF-8"?>
<svg width="54px" height="33px" viewBox="0 0 54 33" version="1.1" xmlns="http://www.w3.org/2000/svg" xmlns:xlink="http://www.w3.org/1999/xlink">
    <!-- Generator: Sketch 52.6 (67491) - http://www.bohemiancoding.com/sketch -->
    <title>Group 10</title>
    <desc>Created with Sketch.</desc>
    <defs>
        <polygon id="path-1" points="7.34693878e-06 1.48314607e-05 17.9598196 1.48314607e-05 17.9598196 33 7.34693878e-06 33"></polygon>
        <polygon id="path-3" points="7.34693878e-06 1.48314607e-05 17.9598196 1.48314607e-05 17.9598196 33 7.34693878e-06 33"></polygon>
        <polygon id="path-5" points="7.34693877e-06 1.48314607e-05 17.9598122 1.48314607e-05 17.9598122 33 7.34693877e-06 33"></polygon>
    </defs>
    <g id="Welcome" stroke="none" stroke-width="1" fill="none" fill-rule="evenodd">
        <g id="Corporate-Acceleration" transform="translate(-729.000000, -5045.000000)">
            <g id="Group-7" transform="translate(0.000000, 4808.000000)">
                <g id="Group-10" transform="translate(729.000000, 237.000000)">
                    <g id="Group-3">
                        <mask id="mask-2" fill="white">
                            <use xlink:href="#path-1"></use>
                        </mask>
                        <g id="Clip-2"></g>
                        <path d="M16.1141216,17.1296845 C15.7965135,17.3344328 15.3916971,17.2673204 15.1366849,16.9574171 C15.0445543,16.8452912 14.9725543,16.7162575 14.8929869,16.5937497 C14.1450686,15.4418643 13.3964155,14.2905721 12.6505543,13.1372778 C12.4543176,12.8336778 12.1811584,12.6975249 11.8326931,12.7735362 C11.4999502,12.8459879 11.3139992,13.0830688 11.2602931,13.4167025 C11.2395012,13.5455879 11.2505216,13.6799609 11.2505216,13.8118126 C11.2500808,16.5827744 11.2502278,19.353662 11.2503747,22.1246238 C11.2503747,24.9102688 11.2503747,27.6958396 11.2504482,30.4814845 C11.2504482,31.1432643 10.9842686,31.5043362 10.4991502,31.4998126 C10.0345298,31.4955115 9.76702776,31.1350328 9.76636653,30.5060306 C9.76504408,29.3918912 9.76599918,28.2776036 9.76585224,27.1633901 C9.76563184,25.8731272 9.7717298,24.5829384 9.76181143,23.2928238 C9.75799102,22.8070193 9.44802367,22.5035676 9.00794204,22.5086103 C8.99839102,22.5086845 8.98928082,22.5097969 8.9799502,22.5101676 C8.97054612,22.5097969 8.96143592,22.5086845 8.9518849,22.5086103 C8.51180327,22.5035676 8.20183592,22.8070193 8.19808898,23.2928238 C8.18809714,24.5829384 8.1941951,25.8731272 8.19404816,27.1633901 C8.19382776,28.2776036 8.19478286,29.3918912 8.19346041,30.5060306 C8.19279918,31.1350328 7.92529714,31.4955115 7.4607502,31.4998126 C6.97555837,31.5043362 6.70937878,31.1432643 6.70945224,30.4814845 C6.70952571,27.6958396 6.70945224,24.9102688 6.70945224,22.1246238 C6.70967265,19.353662 6.70974612,16.5827744 6.70930531,13.8118126 C6.70930531,13.6799609 6.72039918,13.5455879 6.69953388,13.4167025 C6.64582776,13.0830688 6.45987673,12.8459879 6.12713388,12.7735362 C5.77866857,12.6975249 5.50550939,12.8336778 5.30927265,13.1372778 C4.56341143,14.2905721 3.81475837,15.4418643 3.06684,16.5937497 C2.98734612,16.7162575 2.91527265,16.8452912 2.82314204,16.9574171 C2.56820327,17.2673204 2.16338694,17.3344328 1.84570531,17.1296845 C1.54433388,16.9354665 1.42053796,16.5521474 1.57732163,16.2032373 C1.68458694,15.9645249 1.83196653,15.7438328 1.96509306,15.5172822 C3.04582776,13.6778845 4.13089714,11.8412306 5.20678286,9.99901483 C5.55642367,9.40034292 6.02346857,8.93196539 6.64450531,8.63808 C6.77998286,8.57400809 6.98782776,8.56666652 7.12609714,8.6233227 C7.74617878,8.87731146 8.36310122,9.0005609 8.9799502,8.99492494 C9.59672571,9.0005609 10.2136482,8.87731146 10.8337298,8.6233227 C10.9719992,8.56666652 11.1798441,8.57400809 11.3153216,8.63808 C11.9364318,8.93196539 12.4034033,9.40034292 12.7530441,9.99901483 C13.8289298,11.8412306 14.9139992,13.6778845 15.9947339,15.5172822 C16.1278604,15.7438328 16.27524,15.9645249 16.3825788,16.2032373 C16.5393624,16.5521474 16.4154931,16.9354665 16.1141216,17.1296845 M8.9374849,1.50073618 C8.95181143,1.50073618 8.96577061,1.50162607 8.9799502,1.50184854 C8.99405633,1.50162607 9.00808898,1.50073618 9.02234204,1.50073618 C10.6586522,1.50288674 11.9891094,2.8382373 11.9980727,4.48742157 C12.0069624,6.14899011 10.6602686,7.4978373 8.99986041,7.49042157 C8.99317469,7.49034742 8.98656245,7.48982831 8.9799502,7.48975416 C8.97326449,7.48982831 8.96665224,7.49034742 8.95996653,7.49042157 C7.29955837,7.4978373 5.95286449,6.14899011 5.96182776,4.48742157 C5.97071755,2.8382373 7.30117469,1.50288674 8.9374849,1.50073618 M17.606138,15.3146845 C16.619591,13.6227115 15.6178359,11.9397856 14.6301869,10.24848 C14.0257543,9.21354067 13.4656237,8.14597213 12.3624808,7.50013618 C12.4501298,7.38415416 12.5104482,7.3053991 12.569591,7.22582831 C14.5293135,4.58805303 13.1815176,0.85475191 9.99926449,0.102945169 C9.88994204,0.077138427 9.78458694,0.0347204494 9.6773951,1.48314607e-05 L8.9799502,1.48314607e-05 L8.28243184,1.48314607e-05 C8.17524,0.0347204494 8.0698849,0.077138427 7.96056245,0.102945169 C4.77830939,0.85475191 3.43058694,4.58805303 5.39023592,7.22582831 C5.44937878,7.3053991 5.50969714,7.38415416 5.59741959,7.50013618 C4.49420327,8.14597213 3.93414612,9.21354067 3.32964,10.24848 C2.34199102,11.9397856 1.34023592,13.6227115 0.353762449,15.3146845 C0.209542041,15.5621474 0.116676735,15.840089 7.34693878e-06,16.1040148 L7.34693878e-06,16.8960148 C0.0431338776,17.0005766 0.0900808163,17.1035811 0.128799184,17.2098485 C0.442293061,18.06948 1.04701959,18.5991856 1.94070122,18.7249564 C2.81711755,18.8481317 3.54439102,18.5188733 4.06220327,17.7914643 C4.43888082,17.2622036 4.77676653,16.7048373 5.22382776,16.1816575 L5.22382776,16.6414328 C5.22331347,21.1411497 5.25380327,25.6411631 5.20391755,30.1402867 C5.18841551,31.5426755 5.63356653,32.5194755 6.9747502,33.0000148 L7.93367265,33.0000148 C8.26200735,32.8324935 8.59026857,32.6649721 8.92315837,32.4951519 C8.94181959,32.50368 8.96114204,32.5125789 8.9799502,32.5211811 C8.9986849,32.5125789 9.01800735,32.50368 9.03674204,32.4951519 C9.36955837,32.6649721 9.69781959,32.8324935 10.0261543,33.0000148 L10.9850767,33.0000148 C12.3262604,32.5194755 12.7714114,31.5426755 12.7559094,30.1402867 C12.7060971,25.6411631 12.7365135,21.1411497 12.7359992,16.6414328 L12.7359992,16.1816575 C13.1830604,16.7048373 13.5209461,17.2622036 13.8976237,17.7914643 C14.4154359,18.5188733 15.1427094,18.8481317 16.0191257,18.7249564 C16.9128073,18.5991856 17.5175339,18.06948 17.8310278,17.2098485 C17.8697461,17.1035811 17.9166931,17.0005766 17.9598196,16.8960148 L17.9598196,16.1040148 C17.8431502,15.840089 17.7503584,15.5621474 17.606138,15.3146845" id="Fill-1" fill="#676767" mask="url(#mask-2)"></path>
                    </g>
                    <g id="Group-6" transform="translate(18.000000, 0.000000)">
                        <mask id="mask-4" fill="white">
                            <use xlink:href="#path-3"></use>
                        </mask>
                        <g id="Clip-5"></g>
                        <path d="M16.1141216,17.1296845 C15.7965135,17.3344328 15.3916971,17.2673204 15.1366849,16.9574171 C15.0445543,16.8452912 14.9725543,16.7162575 14.8929869,16.5937497 C14.1450686,15.4418643 13.3964155,14.2905721 12.6505543,13.1372778 C12.4543176,12.8336778 12.1811584,12.6975249 11.8326931,12.7735362 C11.4999502,12.8459879 11.3139992,13.0830688 11.2602931,13.4167025 C11.2395012,13.5455879 11.2505216,13.6799609 11.2505216,13.8118126 C11.2500808,16.5827744 11.2502278,19.353662 11.2503747,22.1246238 C11.2503747,24.9102688 11.2503747,27.6958396 11.2504482,30.4814845 C11.2504482,31.1432643 10.9842686,31.5043362 10.4991502,31.4998126 C10.0345298,31.4955115 9.76702776,31.1350328 9.76636653,30.5060306 C9.76504408,29.3918912 9.76599918,28.2776036 9.76585224,27.1633901 C9.76563184,25.8731272 9.7717298,24.5829384 9.76181143,23.2928238 C9.75799102,22.8070193 9.44802367,22.5035676 9.00794204,22.5086103 C8.99839102,22.5086845 8.98928082,22.5097969 8.9799502,22.5101676 C8.97054612,22.5097969 8.96143592,22.5086845 8.9518849,22.5086103 C8.51180327,22.5035676 8.20183592,22.8070193 8.19808898,23.2928238 C8.18809714,24.5829384 8.1941951,25.8731272 8.19404816,27.1633901 C8.19382776,28.2776036 8.19478286,29.3918912 8.19346041,30.5060306 C8.19279918,31.1350328 7.92529714,31.4955115 7.4607502,31.4998126 C6.97555837,31.5043362 6.70937878,31.1432643 6.70945224,30.4814845 C6.70952571,27.6958396 6.70945224,24.9102688 6.70945224,22.1246238 C6.70967265,19.353662 6.70974612,16.5827744 6.70930531,13.8118126 C6.70930531,13.6799609 6.72039918,13.5455879 6.69953388,13.4167025 C6.64582776,13.0830688 6.45987673,12.8459879 6.12713388,12.7735362 C5.77866857,12.6975249 5.50550939,12.8336778 5.30927265,13.1372778 C4.56341143,14.2905721 3.81475837,15.4418643 3.06684,16.5937497 C2.98734612,16.7162575 2.91527265,16.8452912 2.82314204,16.9574171 C2.56820327,17.2673204 2.16338694,17.3344328 1.84570531,17.1296845 C1.54433388,16.9354665 1.42053796,16.5521474 1.57732163,16.2032373 C1.68458694,15.9645249 1.83196653,15.7438328 1.96509306,15.5172822 C3.04582776,13.6778845 4.13089714,11.8412306 5.20678286,9.99901483 C5.55642367,9.40034292 6.02346857,8.93196539 6.64450531,8.63808 C6.77998286,8.57400809 6.98782776,8.56666652 7.12609714,8.6233227 C7.74617878,8.87731146 8.36310122,9.0005609 8.9799502,8.99492494 C9.59672571,9.0005609 10.2136482,8.87731146 10.8337298,8.6233227 C10.9719992,8.56666652 11.1798441,8.57400809 11.3153216,8.63808 C11.9364318,8.93196539 12.4034033,9.40034292 12.7530441,9.99901483 C13.8289298,11.8412306 14.9139992,13.6778845 15.9947339,15.5172822 C16.1278604,15.7438328 16.27524,15.9645249 16.3825788,16.2032373 C16.5393624,16.5521474 16.4154931,16.9354665 16.1141216,17.1296845 M8.9374849,1.50073618 C8.95181143,1.50073618 8.96577061,1.50162607 8.9799502,1.50184854 C8.99405633,1.50162607 9.00808898,1.50073618 9.02234204,1.50073618 C10.6586522,1.50288674 11.9891094,2.8382373 11.9980727,4.48742157 C12.0069624,6.14899011 10.6602686,7.4978373 8.99986041,7.49042157 C8.99317469,7.49034742 8.98656245,7.48982831 8.9799502,7.48975416 C8.97326449,7.48982831 8.96665224,7.49034742 8.95996653,7.49042157 C7.29955837,7.4978373 5.95286449,6.14899011 5.96182776,4.48742157 C5.97071755,2.8382373 7.30117469,1.50288674 8.9374849,1.50073618 M17.606138,15.3146845 C16.619591,13.6227115 15.6178359,11.9397856 14.6301869,10.24848 C14.0257543,9.21354067 13.4656237,8.14597213 12.3624808,7.50013618 C12.4501298,7.38415416 12.5104482,7.3053991 12.569591,7.22582831 C14.5293135,4.58805303 13.1815176,0.85475191 9.99926449,0.102945169 C9.88994204,0.077138427 9.78458694,0.0347204494 9.6773951,1.48314607e-05 L8.9799502,1.48314607e-05 L8.28243184,1.48314607e-05 C8.17524,0.0347204494 8.0698849,0.077138427 7.96056245,0.102945169 C4.77830939,0.85475191 3.43058694,4.58805303 5.39023592,7.22582831 C5.44937878,7.3053991 5.50969714,7.38415416 5.59741959,7.50013618 C4.49420327,8.14597213 3.93414612,9.21354067 3.32964,10.24848 C2.34199102,11.9397856 1.34023592,13.6227115 0.353762449,15.3146845 C0.209542041,15.5621474 0.116676735,15.840089 7.34693878e-06,16.1040148 L7.34693878e-06,16.8960148 C0.0431338776,17.0005766 0.0900808163,17.1035811 0.128799184,17.2098485 C0.442293061,18.06948 1.04701959,18.5991856 1.94070122,18.7249564 C2.81711755,18.8481317 3.54439102,18.5188733 4.06220327,17.7914643 C4.43888082,17.2622036 4.77676653,16.7048373 5.22382776,16.1816575 L5.22382776,16.6414328 C5.22331347,21.1411497 5.25380327,25.6411631 5.20391755,30.1402867 C5.18841551,31.5426755 5.63356653,32.5194755 6.9747502,33.0000148 L7.93367265,33.0000148 C8.26200735,32.8324935 8.59026857,32.6649721 8.92315837,32.4951519 C8.94181959,32.50368 8.96114204,32.5125789 8.9799502,32.5211811 C8.9986849,32.5125789 9.01800735,32.50368 9.03674204,32.4951519 C9.36955837,32.6649721 9.69781959,32.8324935 10.0261543,33.0000148 L10.9850767,33.0000148 C12.3262604,32.5194755 12.7714114,31.5426755 12.7559094,30.1402867 C12.7060971,25.6411631 12.7365135,21.1411497 12.7359992,16.6414328 L12.7359992,16.1816575 C13.1830604,16.7048373 13.5209461,17.2622036 13.8976237,17.7914643 C14.4154359,18.5188733 15.1427094,18.8481317 16.0191257,18.7249564 C16.9128073,18.5991856 17.5175339,18.06948 17.8310278,17.2098485 C17.8697461,17.1035811 17.9166931,17.0005766 17.9598196,16.8960148 L17.9598196,16.1040148 C17.8431502,15.840089 17.7503584,15.5621474 17.606138,15.3146845" id="Fill-4" fill="#676767" mask="url(#mask-4)"></path>
                    </g>
                    <g id="Group-9" transform="translate(36.000000, 0.000000)">
                        <mask id="mask-6" fill="white">
                            <use xlink:href="#path-5"></use>
                        </mask>
                        <g id="Clip-8"></g>
                        <path d="M16.1141216,17.1296845 C15.7965135,17.3344328 15.3916971,17.2673204 15.1366849,16.9574171 C15.0445543,16.8452912 14.9725543,16.7162575 14.8929869,16.5937497 C14.1450686,15.4418643 13.3964155,14.2905721 12.6505543,13.1372778 C12.4543176,12.8336778 12.1811584,12.6975249 11.8326931,12.7735362 C11.4999502,12.8459879 11.3139992,13.0830688 11.2602931,13.4167025 C11.2395012,13.5455879 11.2505216,13.6799609 11.2505216,13.8118126 C11.2500808,16.5827744 11.2502278,19.353662 11.2503747,22.1246238 C11.2503747,24.9102688 11.2503747,27.6958396 11.2504482,30.4814845 C11.2504482,31.1432643 10.9842686,31.5043362 10.4991502,31.4998126 C10.0345298,31.4955115 9.76702776,31.1350328 9.76636653,30.5060306 C9.76504408,29.3918912 9.76599918,28.2776036 9.76585224,27.1633901 C9.76563184,25.8731272 9.7717298,24.5829384 9.76181143,23.2928238 C9.75799102,22.8070193 9.44802367,22.5035676 9.00794204,22.5086103 C8.99839102,22.5086845 8.98928082,22.5097969 8.9799502,22.5101676 C8.97054612,22.5097969 8.96143592,22.5086845 8.9518849,22.5086103 C8.51180327,22.5035676 8.20183592,22.8070193 8.19808898,23.2928238 C8.18809714,24.5829384 8.1941951,25.8731272 8.19404816,27.1633901 C8.19382776,28.2776036 8.19478286,29.3918912 8.19346041,30.5060306 C8.19279918,31.1350328 7.92529714,31.4955115 7.4607502,31.4998126 C6.97555837,31.5043362 6.70937878,31.1432643 6.70945224,30.4814845 C6.70952571,27.6958396 6.70945224,24.9102688 6.70945224,22.1246238 C6.70967265,19.353662 6.70974612,16.5827744 6.70930531,13.8118126 C6.70930531,13.6799609 6.72039918,13.5455879 6.69953388,13.4167025 C6.64582776,13.0830688 6.45987673,12.8459879 6.12713388,12.7735362 C5.77866857,12.6975249 5.50550939,12.8336778 5.30927265,13.1372778 C4.56341143,14.2905721 3.81475837,15.4418643 3.06684,16.5937497 C2.98734612,16.7162575 2.91527265,16.8452912 2.82314204,16.9574171 C2.56820327,17.2673204 2.16338694,17.3344328 1.84570531,17.1296845 C1.54433388,16.9354665 1.42053796,16.5521474 1.57732163,16.2032373 C1.68458694,15.9645249 1.83196653,15.7438328 1.96509306,15.5172822 C3.04582776,13.6778845 4.13089714,11.8412306 5.20678286,9.99901483 C5.55642367,9.40034292 6.02346857,8.93196539 6.64450531,8.63808 C6.77998286,8.57400809 6.98782776,8.56666652 7.12609714,8.6233227 C7.74617878,8.87731146 8.36310122,9.0005609 8.9799502,8.99492494 C9.59672571,9.0005609 10.2136482,8.87731146 10.8337298,8.6233227 C10.9719992,8.56666652 11.1798441,8.57400809 11.3153216,8.63808 C11.9364318,8.93196539 12.4034033,9.40034292 12.7530441,9.99901483 C13.8289298,11.8412306 14.9139992,13.6778845 15.9947339,15.5172822 C16.1278604,15.7438328 16.27524,15.9645249 16.3825788,16.2032373 C16.5393624,16.5521474 16.4154931,16.9354665 16.1141216,17.1296845 M8.9374849,1.50073618 C8.95181143,1.50073618 8.96577061,1.50162607 8.9799502,1.50184854 C8.99405633,1.50162607 9.00808898,1.50073618 9.02234204,1.50073618 C10.6586522,1.50288674 11.9891094,2.8382373 11.9980727,4.48742157 C12.0069624,6.14899011 10.6602686,7.4978373 8.99986041,7.49042157 C8.99317469,7.49034742 8.98656245,7.48982831 8.9799502,7.48975416 C8.97326449,7.48982831 8.96665224,7.49034742 8.95996653,7.49042157 C7.29955837,7.4978373 5.95286449,6.14899011 5.96182776,4.48742157 C5.97071755,2.8382373 7.30117469,1.50288674 8.9374849,1.50073618 M17.606138,15.3146845 C16.619591,13.6227115 15.6178359,11.9397856 14.6301869,10.24848 C14.0257543,9.21354067 13.4656237,8.14597213 12.3624808,7.50013618 C12.4501298,7.38415416 12.5104482,7.3053991 12.569591,7.22582831 C14.5293135,4.58805303 13.1815176,0.85475191 9.99926449,0.102945169 C9.88994204,0.077138427 9.78458694,0.0347204494 9.6773951,1.48314607e-05 L8.9799502,1.48314607e-05 L8.28243184,1.48314607e-05 C8.17524,0.0347204494 8.0698849,0.077138427 7.96056245,0.102945169 C4.77830939,0.85475191 3.43058694,4.58805303 5.39023592,7.22582831 C5.44937878,7.3053991 5.50969714,7.38415416 5.59741959,7.50013618 C4.49420327,8.14597213 3.93414612,9.21354067 3.32964,10.24848 C2.34199102,11.9397856 1.34023592,13.6227115 0.353762449,15.3146845 C0.209542041,15.5621474 0.116676735,15.840089 7.34693877e-06,16.1040148 L7.34693877e-06,16.8960148 C0.0431338776,17.0005766 0.0900808163,17.1035811 0.128799184,17.2098485 C0.442293061,18.06948 1.04701959,18.5991856 1.94070122,18.7249564 C2.81711755,18.8481317 3.54439102,18.5188733 4.06220327,17.7914643 C4.43888082,17.2622036 4.77676653,16.7048373 5.22382776,16.1816575 L5.22382776,16.6414328 C5.22331347,21.1411497 5.25380327,25.6411631 5.20391755,30.1402867 C5.18841551,31.5426755 5.63356653,32.5194755 6.9747502,33.0000148 L7.93367265,33.0000148 C8.26200735,32.8324935 8.59026857,32.6649721 8.92315837,32.4951519 C8.94181959,32.50368 8.96114204,32.5125789 8.9799502,32.5211811 C8.9986849,32.5125789 9.01800735,32.50368 9.03674204,32.4951519 C9.36955837,32.6649721 9.69781959,32.8324935 10.0261543,33.0000148 L10.9850767,33.0000148 C12.3262604,32.5194755 12.7714114,31.5426755 12.7559094,30.1402867 C12.7060971,25.6411631 12.7365135,21.1411497 12.7359992,16.6414328 L12.7359992,16.1816575 C13.1830604,16.7048373 13.5209461,17.2622036 13.8976237,17.7914643 C14.4154359,18.5188733 15.1427094,18.8481317 16.0191257,18.7249564 C16.9128073,18.5991856 17.5175339,18.06948 17.8310278,17.2098485 C17.8697461,17.1035811 17.9166931,17.0005766 17.9598196,16.8960148 L17.9598196,16.1040148 C17.8431502,15.840089 17.7503584,15.5621474 17.606138,15.3146845" id="Fill-7" fill="#676767" mask="url(#mask-6)"></path>
                    </g>
                </g>
            </g>
        </g>
    </g>
</svg>