<?xml version="1.0" encoding="UTF-8"?>
<svg width="90px" height="153px" viewBox="0 0 90 153" version="1.1" xmlns="http://www.w3.org/2000/svg" xmlns:xlink="http://www.w3.org/1999/xlink">
    <!-- Generator: Sketch 52.6 (67491) - http://www.bohemiancoding.com/sketch -->
    <title>Group 48</title>
    <desc>Created with Sketch.</desc>
    <defs>
        <polygon id="path-1" points="0 0.00939389414 89.9851064 0.00939389414 89.9851064 153 0 153"></polygon>
    </defs>
    <g id="Welcome" stroke="none" stroke-width="1" fill="none" fill-rule="evenodd">
        <g id="Corporate-Acceleration" transform="translate(-709.000000, -3928.000000)">
            <g id="Group-6" transform="translate(122.000000, 3851.000000)">
                <g id="Group-48" transform="translate(587.000000, 77.000000)">
                    <path d="M78.513,71.2180294 C78.513,71.1433962 78.504,71.0704403 78.487,71 L78.487,73 C78.504,72.9295597 78.513,72.8566038 78.513,72.7819706 L78.513,71.2180294 Z" id="Fill-1" fill="#676767"></path>
                    <path d="M26.228,69.506 L26.773,69.506 C26.774,69.502 26.774,69.498 26.775,69.494 L26.225,69.494 L26.228,69.506 Z" id="Fill-3" fill="#676767"></path>
                    <path d="M42.9771283,50.54798 L42.9771283,55.2750218 C42.9847522,55.2740694 42.9923761,55.2721645 43,55.271212 L43,46 C29.2102922,48.3058973 21.2662008,56.2370029 19,70 L23.8135324,70 L23.8135324,69.9885705 L23.568615,69.9885705 C24.2719187,60.6316374 32.0806861,51.6013969 42.9771283,50.54798" id="Fill-5" fill="#676767"></path>
                    <path d="M65.7576591,74 L65.7576591,74.0028127 L65.9699269,74.0028127 C65.3321632,83.1000859 57.3130529,92.1448551 46.3221943,93.142433 L46.2463158,92.7758419 C46.2319084,92.7805297 46.1397016,92.7899055 46.1252943,92.7936558 L46.1675558,98 C46.1771607,97.9990624 45.9898656,97.6502852 46.000431,97.6493476 L46.4249664,97.6099695 C60.3116949,95.3513556 68.310635,87.5310571 70.5898718,74.0028127 L71,74.0028127 L71,74 L65.7576591,74 Z" id="Fill-7" fill="#676767"></path>
                    <path d="M70.5999532,69.9953893 C68.3748683,56.6823196 60.5669282,48.996205 47.0065581,46.7673701 L47.0065581,44.0027664 C47.0046844,44.0018443 47.0018738,44.0009221 47,44 L47,51.1789324 C56.8849982,52.0107111 65.2391381,60.1016492 66.1226139,70 L71,70 L71,69.9953893 L70.5999532,69.9953893 Z" id="Fill-9" fill="#676767"></path>
                    <path d="M43.3671482,97.7858382 C44.0822306,98.0055688 44.3205914,98.3749435 43.3928911,96.9779494 L43.2479678,93.2804136 C33.9518964,92.7320342 24.683475,84.6711412 23.8044003,74.0142067 L24.2811219,74.0142067 C24.2811219,74.0094711 24.2811219,74.0047356 24.2811219,74 L19.0019069,74 C19.0009534,74.0075769 19,74.0142067 19,74.0217836 L19.3832842,74.0217836 C20.0039757,80.3106251 22.4886487,85.7224385 26.966018,90.1710361 C31.3327879,94.5107156 36.6243978,96.9618484 42.7760134,97.6579777 C43.0200948,97.6949152 43.3328242,97.7754199 43.3671482,97.7858382" id="Fill-11" fill="#676767"></path>
                    <path d="M49.4960504,71.5032829 C49.4970368,73.8442392 47.4867561,75.7445778 45.0108952,75.7455094 C42.5153063,75.7473725 40.510944,73.8684592 40.506012,71.5256398 C40.5010801,69.1362434 42.4926192,67.2536041 45.0207592,67.2554671 C47.5035249,67.2582617 49.495064,69.149285 49.4960504,71.5032829 M36.0001425,71.517256 C36.028748,76.2513348 40.0512822,80.0277921 45.0345688,79.9998459 C50.0346242,79.9709682 54.016716,76.1740171 53.9999472,71.4483221 C53.9831785,66.7198325 49.9261203,62.9685268 44.8639218,63.0001991 C39.9644791,63.0309399 35.9725233,66.8670156 36.0001425,71.517256" id="Fill-13" fill="#676767"></path>
                    <path d="M44,87.494 C44.000947,87.499 44.0028409,87.504 44.0047348,87.508 L46,87.508 C45.9393939,87.499 45.8787879,87.492 45.8153409,87.492 L44.0492424,87.492 C44.032197,87.492 44.0160985,87.493 44,87.494" id="Fill-15" fill="#676767"></path>
                    <path d="M45.0099602,103.479 C45.0073041,103.494 45.0033201,103.507 45,103.521 L45.7828685,103.521 C45.8579017,103.521 45.9302789,103.505 46,103.479 L45.0099602,103.479 Z" id="Fill-17" fill="#676767"></path>
                    <path d="M41.4925,92.298 L41.4925,92.703 C41.4975,92.704 41.5025,92.704 41.5075,92.704 L41.5075,92.296 C41.5025,92.297 41.4975,92.297 41.4925,92.298" id="Fill-19" fill="#676767"></path>
                    <path d="M47,101.788319 L47,87.2369246 C47,86.6105153 46.560546,86.0897542 45.9925143,86 L44.0074857,86 C43.4940555,86.0804048 43.0871863,86.5142166 43.01321,87.0602211 L43.01321,92.1677941 C43.0088067,92.1677941 43.0044033,92.1677941 43,92.1668592 L43,96.538635 L43,101.793928 C43.0017613,102.373591 43.3822105,102.862564 43.8903567,103 L46.1087627,103 C46.6186702,102.862564 47,102.370786 47,101.788319" id="Fill-21" fill="#676767"></path>
                    <path d="M44.1783355,57 L45.8216645,57 C46.4698371,57 47,56.4380242 47,55.7520969 L47,50.7912395 L47,41.2479031 C47,40.5610438 46.4698371,40 45.8216645,40 L44.1783355,40 C43.5301629,40 43,40.5610438 43,41.2479031 L43,46.3289842 L43,55.7520969 C43,56.4380242 43.5301629,57 44.1783355,57" id="Fill-23" fill="#676767"></path>
                    <path d="M76.703415,70 L61.3222796,70 C60.594927,70 60,70.5301629 60,71.1783355 L60,72.8207838 C60,73.4689564 60.594927,74 61.3222796,74 L76.703415,74 C77.3428132,74 77.8794334,73.5896081 78,73.0497578 L78,70.9493615 C77.8794334,70.4095112 77.3428132,70 76.703415,70" id="Fill-25" fill="#676767"></path>
                    <path d="M12.2987242,74 L27.7052354,74 C28.3377695,74 28.8703256,73.6001761 29,73.0700132 L29,70.9299868 C28.8703256,70.3998239 28.3377695,70 27.7052354,70 L17.6797184,70 C17.6787286,70.0035227 17.6777387,70.007926 17.6767488,70.0123294 L12.1185658,70.0123294 C11.5592829,70.0801409 11.1088869,70.46059 11,70.9493615 L11,73.0497578 C11.1207655,73.5896081 11.658271,74 12.2987242,74" id="Fill-27" fill="#676767"></path>
                    <g id="Group-31">
                        <mask id="mask-2" fill="white">
                            <use xlink:href="#path-1"></use>
                        </mask>
                        <g id="Clip-30"></g>
                        <path d="M84.7244681,20.3873422 C84.7244681,16.2959747 84.7340426,12.378806 84.7244681,8.46163735 C84.7148936,5.96386627 83.8723404,5.13342651 81.306383,5.13342651 C72.8329787,5.12420964 64.35,5.12420964 55.8765957,5.12420964 C40.1648936,5.12420964 24.4531915,5.11591446 8.74148936,5.12420964 C6.19468085,5.12420964 5.28510638,6.00073373 5.27553191,8.44228193 C5.26595745,10.1391072 5.27553191,11.8248723 5.27553191,13.5216976 L5.27553191,20.3974807 C31.806383,20.3873422 58.1553191,20.3873422 84.7244681,20.3873422 Z M84.6574468,122.474288 L5.26595745,122.474288 L5.26595745,124.187704 C5.26595745,130.9068 5.27553191,137.635113 5.27553191,144.35421 C5.27553191,147.166276 6.04148936,147.940493 8.91382979,147.940493 C33.012766,147.948788 57.1212766,147.948788 81.2202128,147.940493 C83.8723404,147.940493 84.7340426,147.100836 84.7340426,144.521035 C84.743617,137.653547 84.7340426,130.778686 84.7340426,123.911198 C84.7244681,123.459571 84.6861702,123.018083 84.6574468,122.474288 Z M5.35212766,117.293487 L84.6287234,117.293487 L84.6287234,25.6040892 L5.35212766,25.6040892 L5.35212766,117.293487 Z M0,146.732161 L0,6.32240241 C1.5606383,1.57663735 5.02659574,-0.0188024096 10.043617,0.00976987952 C33.6159574,0.129589157 57.1882979,0.0641493976 80.7606383,0.0641493976 C86.9361702,0.0641493976 89.9808511,3.00525181 89.9808511,8.96764337 L89.9808511,132.132643 C89.9808511,136.464571 89.9904255,140.788204 89.9808511,145.11921 C89.9712766,147.718366 88.9659574,149.903686 86.7638298,151.423547 C85.7776596,152.096378 84.5808511,152.483487 83.4797872,153.000553 L6.5106383,153.000553 C3.15957447,152.059511 0.986170213,149.968204 0,146.732161 Z" id="Fill-29" stroke="#676767" fill="#676767" mask="url(#mask-2)"></path>
                    </g>
                    <path d="M44.0729116,138.023283 C45.5281374,137.986968 46.7505272,136.770393 46.7117212,135.417635 C46.6632136,134.03764 45.4214209,132.939091 43.927389,132.975407 C42.4430586,133.011723 41.2400718,134.174731 41.2885794,135.553819 C41.3273854,136.898406 42.6370887,138.059599 44.0729116,138.023283 M44.0923146,128.000162 C48.5162013,128.036477 52.0669524,131.422912 51.9990419,135.526582 C51.9214298,139.748277 48.2736636,143.080239 43.8206724,142.998529 C39.4452932,142.917726 35.9236466,139.466831 36.0012586,135.345912 C36.0885722,131.168703 39.6199203,127.973833 44.0923146,128.000162" id="Fill-32" fill="#676767"></path>
                    <path d="M43.9272084,14.9940689 C42.2543456,14.9940689 40.5814829,15.0122329 38.9086201,14.9849869 C37.1482238,14.9577408 36.02974,14.004129 36.0005622,12.5510063 C35.9713843,11.0978836 37.0801422,10.0443696 38.8210866,10.0262056 C42.2737975,9.98987753 45.7265084,9.98987753 49.1792193,10.0352876 C50.9298897,10.0534516 52.0191956,11.0888016 51.9997438,12.5510063 C51.9802919,14.0132111 50.8812599,14.9577408 49.1014118,14.9849869 C47.3896452,15.0122329 45.6584268,14.9940689 43.9272084,14.9940689" id="Fill-34" fill="#676767"></path>
                </g>
            </g>
        </g>
    </g>
</svg>