<?xml version="1.0" encoding="UTF-8"?>
<svg width="150px" height="158px" viewBox="0 0 150 158" version="1.1" xmlns="http://www.w3.org/2000/svg" xmlns:xlink="http://www.w3.org/1999/xlink">
    <!-- Generator: Sketch 52.6 (67491) - http://www.bohemiancoding.com/sketch -->
    <title>Group 10</title>
    <desc>Created with Sketch.</desc>
    <defs>
        <polygon id="path-1" points="0 0.113172093 149.892297 0.113172093 149.892297 158 0 158"></polygon>
    </defs>
    <g id="Welcome" stroke="none" stroke-width="1" fill="none" fill-rule="evenodd">
        <g id="Corporate-Acceleration" transform="translate(-192.000000, -3089.000000)">
            <g id="Group-10" transform="translate(192.000000, 3089.000000)">
                <g id="Group-9">
                    <mask id="mask-2" fill="white">
                        <use xlink:href="#path-1"></use>
                    </mask>
                    <g id="Clip-8"></g>
                    <path d="M125.828634,44.4312535 C128.335901,41.7865907 130.994041,38.9839279 133.509157,36.3328349 C135.929215,38.8847186 138.617878,41.7213698 141.187064,44.4312535 L125.828634,44.4312535 Z M119.396948,43.0652884 C117.349273,40.4748233 115.159448,37.7052302 112.809157,34.7326256 L127.294622,34.7326256 C124.708866,37.4608814 122.079506,40.2350674 119.396948,43.0652884 Z M120.228924,64.3291488 C116.901017,67.8345442 113.518169,71.396893 110.21032,74.8802419 L110.21032,64.3291488 L120.228924,64.3291488 Z M124.042587,75.1163233 C123.95625,75.9513349 122.911483,76.6623349 122.336773,77.4541721 C121.409738,78.7310326 120.255959,79.2381023 118.695785,79.0892884 C117.071948,78.9349628 115.425436,79.0543814 113.767587,79.0543814 C117.271657,75.372614 120.663227,71.8093465 124.124564,68.1716721 C124.124564,70.4681837 124.279797,72.8143 124.042587,75.1163233 Z M100.097529,44.4661605 C102.56032,41.8711023 105.179215,39.111614 107.895785,36.2501605 C109.815262,38.6752767 112.004215,41.4411953 114.399855,44.4661605 L100.097529,44.4661605 Z M85.7960756,34.7574279 L101.244331,34.7574279 C98.7797965,37.3469744 96.0981105,40.1661721 93.515843,42.8806488 C91.1167151,40.3554047 88.4454942,37.545393 85.7960756,34.7574279 Z M71.98125,44.4817767 C74.5181686,41.8040442 77.1954942,38.9774977 79.7821221,36.246486 C82.2126453,38.8011256 84.8838663,41.6102186 87.6161337,44.4817767 L71.98125,44.4817767 Z M68.0010174,40.3195791 L68.0010174,34.7124163 L73.3042151,34.7124163 C71.5739826,36.5422767 69.7364826,38.484207 68.0010174,40.3195791 Z M62.7109012,29.6573349 C60.8943314,21.9970907 59.0873547,14.3699163 57.2071221,6.44143953 C78.037064,14.1843581 98.550436,21.810614 119.063808,29.4377884 C119.046366,29.5103581 119.028052,29.5838465 119.01061,29.6573349 L62.7109012,29.6573349 Z M21.1975291,152.987358 L77.2199128,152.987358 L77.2199128,148.238172 L21.1975291,148.238172 L21.1975291,152.987358 Z M23.2757267,29.6591721 C23.5207849,28.9435791 23.5678779,28.1866488 23.9498547,27.7787884 C29.15625,22.2258233 34.4097384,16.7206256 39.6545058,11.2071605 C39.7190407,11.1391837 39.825436,11.1153 40.0888081,10.9811837 C38.5844477,17.3131256 37.1228198,23.469614 35.6524709,29.6591721 L23.2757267,29.6591721 Z M23.4981105,44.4505442 L30.3431686,44.4505442 L30.3431686,34.7748814 L23.4981105,34.7748814 L23.4981105,44.4505442 Z M35.19375,54.2759395 L63.1164244,54.2759395 L63.1164244,34.7353814 L35.19375,34.7353814 L35.19375,54.2759395 Z M35.2085756,143.129812 L63.1321221,143.129812 L63.1321221,133.449556 L35.2085756,133.449556 L35.2085756,143.129812 Z M45.3885174,93.7805326 C43.6268895,95.6195791 41.7143895,97.6147884 39.9222384,99.485986 L39.9222384,87.9657651 C41.7789244,89.9398465 43.6434593,91.9240326 45.3885174,93.7805326 Z M45.3928779,69.2730791 C43.6853198,71.0689512 41.8015988,73.0494628 39.9440407,75.0024163 L39.9440407,63.4077884 C41.7344477,65.3350209 43.6077035,67.3513581 45.3928779,69.2730791 Z M49.1777616,65.3129744 C47.3795058,63.4068698 45.5036337,61.4171721 43.650436,59.454114 L54.6902616,59.454114 C52.8492733,61.4098233 50.9760174,63.4022767 49.1777616,65.3129744 Z M58.4175872,75.030893 C56.5556686,73.081614 54.6667151,71.1056953 52.875436,69.2317419 C54.684157,67.3238 56.5652616,65.3405326 58.4175872,63.3875791 L58.4175872,75.030893 Z M53.0193314,93.9293465 C54.7469477,92.1141837 56.6550872,90.1097884 58.4751453,88.1981721 L58.4751453,99.7082884 C56.6236919,97.7470674 54.7556686,95.7693116 53.0193314,93.9293465 Z M52.9600291,118.619602 C54.7390988,116.752079 56.6454942,114.75044 58.4515988,112.853521 L58.4515988,124.466521 C56.5661337,122.458451 54.6998547,120.471509 52.9600291,118.619602 Z M49.1838663,122.417114 C50.9777616,124.31587 52.8571221,126.302812 54.7094477,128.263114 L43.6478198,128.263114 C45.50625,126.300056 47.3873547,124.314033 49.1838663,122.417114 Z M45.4949128,118.500184 C43.6844477,120.404451 41.8007267,122.385881 39.9449128,124.337916 L39.9449128,112.69644 C41.8068314,114.6448 43.696657,116.620719 45.4949128,118.500184 Z M41.3350291,81.4923581 C43.85625,78.8375907 46.5920058,75.9577651 49.2213663,73.1900093 C51.7896802,75.8916256 54.5263081,78.7705326 57.1696221,81.5511488 C54.5681686,84.2959395 51.8594477,87.1528 49.2954942,89.8571721 C46.687064,87.1160558 43.9486919,84.238986 41.3350291,81.4923581 Z M57.0981105,106.383788 C54.5864826,109.02937 51.8760174,111.884393 49.2832849,114.615405 C46.6242733,111.808149 43.8928779,108.92373 41.2704942,106.154137 C43.809157,103.469056 46.5126453,100.608521 49.050436,97.9243581 C51.6239826,100.629649 54.3597384,103.5058 57.0981105,106.383788 Z M46.3146802,5.11589302 L52.0478198,5.11589302 C53.971657,13.217986 55.9050872,21.3568233 57.8672965,29.6187535 L40.5013081,29.6187535 C42.4539244,21.3871372 44.3777616,13.2795326 46.3146802,5.11589302 Z M124.471657,114.830358 C126.020494,115.799486 127.573692,116.764021 129.122529,117.730393 C129.65189,118.061091 130.18125,118.398219 130.761192,118.761986 C130.367006,119.008172 130.01468,119.231393 129.662355,119.451858 C127.603343,120.73423 125.543459,122.021195 123.484448,123.303567 C121.394041,124.607067 119.302762,125.904137 117.216715,127.213149 C117.038808,127.326137 116.912355,127.306847 116.744913,127.201207 C114.786192,125.973033 112.824855,124.748533 110.863517,123.524951 C108.817587,122.249928 106.770785,120.980416 104.724855,119.709067 C104.225145,119.39766 103.72718,119.084416 103.184738,118.744533 C104.368169,118.007812 105.503634,117.294974 106.639099,116.5803 C108.280378,115.556974 109.921657,114.53916 111.562936,113.518591 C112.025145,113.231067 112.486483,112.942626 112.948692,112.655102 C114.203634,111.885312 115.459448,111.11644 116.712645,110.342056 C116.722238,110.336544 116.730087,110.333788 116.738808,110.329195 C116.780669,110.331033 116.820785,110.342056 116.863517,110.342056 C116.982122,110.342056 117.09811,110.328277 117.212355,110.310823 C117.223692,110.317253 117.233285,110.319091 117.244622,110.325521 C118.319913,110.993347 119.39782,111.657498 120.473983,112.323486 C121.806541,113.158498 123.139099,113.996265 124.471657,114.830358 Z M133.150727,139.644626 C133.150727,139.757614 133.129797,139.843963 133.096657,139.920207 C133.051308,139.979916 133.002471,140.035033 132.924855,140.083719 C130.883285,141.344044 128.842587,142.609881 126.807122,143.879393 C126.432122,144.112719 126.057994,144.347881 125.682994,144.580288 C123.599564,145.86266 121.517878,147.145951 119.43532,148.429242 L119.43532,146.264091 C119.43532,141.368847 119.437936,136.476358 119.430087,131.58387 C119.430087,131.334928 119.509448,131.214591 119.705669,131.092416 C122.463227,129.382893 125.219041,127.660509 127.973983,125.945474 C129.63968,124.910207 131.30189,123.878614 132.966715,122.847021 C133.019913,122.813951 133.08532,122.7818 133.151599,122.747812 C133.148983,128.380695 133.144622,134.01266 133.150727,139.644626 Z M114.592587,148.202347 L114.592587,148.433835 C113.201599,147.574021 111.81061,146.715126 110.420494,145.854393 C109.360029,145.190242 108.300436,144.524253 107.239099,143.860102 C105.173983,142.569463 103.107122,141.283416 101.036773,139.996451 C100.960029,139.949602 100.903343,139.900916 100.865843,139.837533 C100.847529,139.786091 100.825727,139.739242 100.825727,139.666672 C100.83532,134.020928 100.837064,128.377021 100.83968,122.732195 C101.009738,122.828649 101.143169,122.9003 101.272238,122.973788 C103.885029,124.600637 106.495203,126.235753 109.11061,127.862602 C110.865262,128.954823 112.619913,130.042451 114.375436,131.127323 C114.521076,131.218265 114.600436,131.311044 114.600436,131.512219 C114.592587,137.077126 114.592587,142.639277 114.592587,148.202347 Z M4.79694767,49.3733465 L18.6675872,49.3733465 L18.6675872,29.8236023 L4.79694767,29.8236023 L4.79694767,49.3733465 Z M132.159157,29.0418698 C106.957413,19.7235442 81.7748547,10.3473465 56.5905523,0.97757907 C55.9574128,0.741497674 55.3600291,0.403451163 54.7460756,0.113172093 L43.6207849,0.113172093 C40.5422965,3.31910233 37.4542151,6.51584651 34.3861919,9.7337186 C29.8922965,14.4461605 25.4306686,19.1944279 20.9027616,23.8701256 C20.4178779,24.3698465 19.5806686,24.733614 18.9013081,24.7428 C13.7315407,24.8153698 8.56002907,24.8273116 3.39026163,24.7538233 C1.96002907,24.7345326 0.817587209,25.0486953 -0.000436046512,26.3246372 L-0.000436046512,52.8447535 C0.817587209,54.1197767 1.95915698,54.4348581 3.38851744,54.4155674 C8.89665698,54.3448349 14.4065407,54.3880093 19.9164244,54.3861721 C22.8109012,54.3861721 23.3899709,53.7743814 23.4204942,50.6933814 C23.4239826,50.343393 23.4204942,49.992486 23.4204942,49.5469628 L30.4460756,49.5469628 C30.4460756,51.686393 30.4434593,53.7780558 30.4469477,55.8688 C30.4513081,58.598893 31.1271802,59.3062186 33.7399709,59.3209163 C34.1297965,59.3227535 34.5178779,59.3209163 35.0193314,59.3209163 L35.0193314,128.307207 C34.6652616,128.333847 34.2501453,128.388044 33.8350291,128.391719 C31.0530523,128.424788 30.4469477,129.07516 30.4469477,132.056951 C30.4460756,135.6983 30.4469477,139.33873 30.4469477,143.197788 L27.6588663,143.197788 C24.7818314,143.197788 21.9047965,143.179416 19.0295058,143.205137 C17.296657,143.221672 16.4175872,144.141195 16.4018895,145.957277 C16.3765988,149.039195 16.2806686,152.128463 16.4611919,155.19844 C16.5178779,156.158381 17.3699128,157.066881 17.8582849,158.000184 L80.5085756,158.000184 C81.6579942,157.175277 82.0434593,156.049067 81.9989826,154.582974 C81.9117733,151.760102 81.9859012,148.932637 81.9684593,146.107009 C81.9545058,144.096184 81.1068314,143.210649 79.1856105,143.202381 C75.487936,143.187684 71.7902616,143.198707 67.9199128,143.198707 C67.9199128,139.813649 67.9199128,136.543416 67.9199128,133.274102 C67.9199128,132.605358 67.93125,131.938451 67.9190407,131.269707 C67.884157,129.28644 67.0329942,128.421114 65.099564,128.396312 C64.5265988,128.388963 63.9518895,128.395393 63.3100291,128.395393 L63.3100291,59.3209163 C63.750436,59.3209163 64.2109012,59.3236721 64.6713663,59.3209163 C67.2527616,59.3053 67.9172965,58.5878698 67.9207849,55.8210326 C67.9225291,53.8689977 67.9277616,51.9169628 67.9356105,49.9640093 C67.9356105,49.8675558 67.9748547,49.7701837 68.0193314,49.5625791 L114.671076,49.5625791 L114.671076,59.3190791 C112.486483,59.3190791 110.354215,59.3080558 108.221948,59.3227535 C106.230087,59.3365326 105.398983,60.218393 105.394622,62.3394512 C105.385029,66.9131837 105.333576,71.4869163 105.442587,76.0569744 C105.46439,76.9719047 106.006831,77.9502186 106.51875,78.7512419 C107.026308,79.5476721 107.806831,80.1456837 108.45218,80.8465791 C110.144913,82.6883814 111.669331,84.8746605 114.719913,83.8449047 C114.67282,86.2130674 115.128052,88.1990907 116.516424,89.7598 C117.232413,90.5644977 118.112355,91.269986 119.034157,91.7963465 C121.387064,93.1375093 122.276599,94.9352186 121.661773,97.4687302 C121.263227,99.1102767 120.470494,100.229137 119.32718,100.806021 L119.32718,100.520335 C119.32718,99.0928233 118.21875,97.9243581 116.863517,97.9243581 C115.517878,97.9243581 114.417297,99.077207 114.402471,100.49094 C113.357703,99.7891256 112.707122,98.603207 112.428924,96.8762302 C112.405378,96.7320093 112.365262,96.5896256 112.305959,96.3241488 C111.200145,96.3241488 110.08561,96.3186372 108.971076,96.3278233 C108.589099,96.3314977 108.207122,96.3728349 107.832994,96.3967186 C107.696948,99.9351837 110.076017,103.864056 113.567006,105.330149 C113.957703,105.494579 114.219331,105.687486 114.399855,105.899684 L114.399855,107.442021 C111.729506,109.105614 109.056541,110.765533 106.38532,112.42637 C103.94782,113.942986 101.51032,115.459602 99.0728198,116.974381 C98.0734012,117.593521 97.5728198,118.52866 97.5702035,119.757753 C97.5640988,123.161184 97.5667151,126.561858 97.5667151,129.965288 L97.5667151,140.172823 C97.5667151,141.404672 98.0707849,142.337056 99.0693314,142.95987 C101.448401,144.438823 103.830087,145.917777 106.209157,147.398567 C109.302471,149.322126 112.396657,151.242009 115.487355,153.169242 C116.483285,153.7893 117.458285,153.7893 118.454215,153.169242 C121.477762,151.283347 124.510029,149.405719 127.536192,147.523498 C129.991134,145.996777 132.446076,144.472812 134.897529,142.940579 C135.88561,142.324195 136.377471,141.39273 136.377471,140.172823 C136.380087,133.3678 136.380087,126.564614 136.377471,119.761428 C136.377471,118.544277 135.888227,117.611893 134.897529,116.992753 C132.346657,115.400812 129.794913,113.807951 127.240552,112.219684 C124.650436,110.608451 122.056831,109.003649 119.465843,107.391498 C119.42311,106.59323 119.38125,105.807823 120.561192,105.27687 C124.019913,103.721672 126.345785,100.968614 126.400727,96.8247884 C126.455669,92.6469744 124.591134,89.4502302 121.091424,87.4008233 C119.41439,86.4179163 119.300145,86.2406256 119.614971,83.8908349 C122.597529,84.9077302 123.978924,82.4385209 125.878343,80.7933 C128.251308,78.7383814 129.11032,76.3481721 128.872238,73.1440791 C128.618459,69.7222767 128.81468,66.2646488 128.813808,62.8226372 C128.812936,60.0172186 128.136192,59.3218349 125.41875,59.3181605 C123.565552,59.3154047 121.712355,59.3043814 119.860029,59.2906023 C119.773692,59.2896837 119.687355,59.2226256 119.445785,59.1197419 L119.445785,49.4532651 L121.042587,49.4532651 C129.529797,49.4541837 138.017006,49.425707 146.503343,49.4826605 C147.930087,49.4918465 149.075145,49.1868698 149.892297,47.9109279 L149.892297,46.0608581 C145.53968,41.4402767 141.140843,36.8683814 136.861483,32.173393 C135.50189,30.6806605 133.999273,29.7225558 132.159157,29.0418698 Z" id="Fill-7" fill="#676767" mask="url(#mask-2)"></path>
                </g>
            </g>
        </g>
    </g>
</svg>