<?xml version="1.0" encoding="UTF-8"?>
<svg width="150px" height="150px" viewBox="0 0 150 150" version="1.1" xmlns="http://www.w3.org/2000/svg" xmlns:xlink="http://www.w3.org/1999/xlink">
    <!-- Generator: Sketch 53.1 (72631) - https://sketchapp.com -->
    <title>Group 119</title>
    <desc>Created with Sketch.</desc>
    <g id="Page-1" stroke="none" stroke-width="1" fill="none" fill-rule="evenodd">
        <g id="Corporate" transform="translate(-264.000000, -2855.000000)" fill="#676767">
            <g id="Group-119" transform="translate(264.000000, 2855.000000)">
                <path d="M0.119047619,147.892827 C0.820535714,149.309494 1.96904762,149.698482 3.51696429,149.697589 C51.1029762,149.666935 98.6883929,149.666637 146.274405,149.698482 C147.85744,149.699673 149.090774,149.38628 149.821429,147.892827 L149.821429,149.976161 L0.119047619,149.976161 L0.119047619,147.892827 Z" id="Fill-1"></path>
                <path d="M85.0238988,122.410655 C85.0247917,121.5675 84.9738988,120.720476 85.0361012,119.882381 C84.9738988,120.720476 85.0247917,121.5675 85.023006,122.410655 C85.023006,123.204107 84.9822321,124.000238 85.0319345,124.790417 C84.9822321,124.000238 85.023006,123.204107 85.0238988,122.410655" id="Fill-3"></path>
                <path d="M109.812024,104.881935 C109.881369,105.719137 109.824821,106.566458 109.824226,107.409315 C109.823929,108.041161 109.85756,108.67628 109.843274,109.307232 C109.85756,108.67628 109.824226,108.041161 109.824821,107.409315 C109.824821,106.566458 109.881369,105.719137 109.812024,104.881935" id="Fill-5"></path>
                <path d="M25.1784821,114.808869 C25.1799702,114.016607 25.1496131,113.22256 25.1865179,112.432083 C25.1496131,113.22256 25.1799702,114.016607 25.176994,114.808869 C25.176994,115.601131 25.1561607,116.394286 25.1814583,117.185655 C25.1561607,116.394286 25.176994,115.601131 25.1784821,114.808869" id="Fill-7"></path>
                <path d="M39.9338988,99.9593155 C39.9333036,100.590863 39.958006,101.224196 39.9472917,101.855149 C39.958006,101.224196 39.9336012,100.590863 39.9347917,99.9593155 C39.9347917,99.1170536 39.9699107,98.273006 39.926756,97.433125 C39.9699107,98.273006 39.9347917,99.1170536 39.9338988,99.9593155" id="Fill-9"></path>
                <path d="M144.839226,144.086845 C144.834167,144.368988 144.353512,144.650833 144.076131,144.913631 C144.021369,144.965417 143.884762,144.936845 143.78625,144.935655 C138.763631,144.862143 139.852321,145.726429 139.711548,141.119583 C139.658571,139.390714 139.733571,137.657679 139.694286,135.928214 C139.674345,135.036845 140.005893,134.685952 140.909167,134.726131 C142.138036,134.780595 143.371071,134.739821 144.87375,134.739821 C144.87375,137.984167 144.894583,141.035952 144.839226,144.086845 L144.839226,144.086845 Z M134.93,143.935655 C134.920774,144.278512 134.367798,144.865417 134.029107,144.894583 C132.71006,145.007083 131.375536,144.940417 129.877917,144.940417 L129.877917,134.750536 C131.375833,134.750536 132.79756,134.69756 134.208869,134.796071 C134.482976,134.815417 134.926726,135.420179 134.934762,135.76244 C134.995774,138.486548 135.003214,141.212738 134.93,143.935655 L134.93,143.935655 Z M115.044881,136.149048 C114.975833,138.62494 114.987143,141.104405 115.035952,143.581488 C115.056786,144.613929 114.677321,144.961548 113.652321,144.959464 C102.79994,144.935655 91.9475595,144.93625 81.0951786,144.963036 C80.0945833,144.965417 79.8225595,144.575833 79.8371429,143.64369 C79.8758333,141.116905 79.8856548,138.588036 79.8186905,136.06244 C79.7907143,135.005 80.1689881,134.712143 81.1907143,134.719583 C86.6413095,134.760357 92.0925,134.738929 97.5433929,134.738929 L97.5433929,134.744286 C102.895179,134.744286 108.24756,134.773452 113.59875,134.720774 C114.708274,134.709762 115.075536,135.038036 115.044881,136.149048 L115.044881,136.149048 Z M60.0856548,131.340714 C59.9749405,132.455 60.0630357,133.589226 60.0630357,134.807381 L5.06452381,134.807381 C5.06452381,133.320774 4.97940476,131.89369 5.1314881,130.4925 C5.16422619,130.187143 6.04339286,129.754702 6.53535714,129.750833 C13.421369,129.702024 20.307381,129.715417 27.1936905,129.717798 C37.5972619,129.720774 48.0008333,129.749345 58.4041071,129.704107 C59.6829762,129.698452 60.2195833,129.988333 60.0856548,131.340714 L60.0856548,131.340714 Z M60.0204762,144.165417 C60.0079762,144.43 59.6032143,144.695476 59.3433929,144.918393 C59.2552976,144.994286 59.0555952,144.938036 58.907381,144.946071 C54.6820833,145.169881 54.2666071,144.64131 55.0654167,139.84369 L60.0520238,139.84369 C60.0520238,141.332083 60.0871429,142.751131 60.0204762,144.165417 L60.0204762,144.165417 Z M50.07375,144.191607 C50.0579762,144.452321 49.5258333,144.87256 49.2124405,144.891012 C47.8922024,144.970179 46.5645238,144.924345 45.1038095,144.924345 L45.1038095,139.777024 C46.3683929,139.777024 47.5892262,139.769583 48.8097619,139.78119 C49.1916071,139.78506 49.5728571,139.839524 50.1145238,139.883571 C50.1145238,141.364821 50.1594643,142.782083 50.07375,144.191607 L50.07375,144.191607 Z M40.0564881,144.07881 C40.0350595,144.38506 39.4942857,144.901131 39.1880357,144.904702 C34.7749405,144.954405 30.3609524,144.950238 25.9478571,144.891607 C25.6326786,144.88744 25.077619,144.378214 25.0555952,144.074048 C24.9582738,142.705298 25.0133333,141.326131 25.0133333,139.86125 L40.0978571,139.86125 C40.0978571,141.329405 40.1517262,142.709167 40.0564881,144.07881 L40.0564881,144.07881 Z M15.8686905,144.913333 C15.5472619,144.868393 15.0419048,144.457083 15.026131,144.191905 C14.9419048,142.781488 14.9865476,141.363631 14.9865476,139.859762 L20.0547024,139.859762 C20.0874405,140.349345 20.1380357,140.778512 20.1422024,141.207976 C20.18,145.270179 19.9433929,145.48625 15.8686905,144.913333 L15.8686905,144.913333 Z M6.04994048,144.960357 C5.2689881,144.902619 5.02732143,144.597857 5.04339286,143.87256 C5.07166667,142.592798 5.05142857,141.31244 5.05142857,139.79131 C6.62970238,139.79131 8.13565476,139.770774 9.63922619,139.816607 C9.83208333,139.82256 10.0398214,140.155893 10.1913095,140.372262 C10.263631,140.475238 10.2189881,140.659464 10.23,140.806786 C10.5410119,144.92494 10.1779167,145.265119 6.04994048,144.960357 L6.04994048,144.960357 Z M144.751131,119.971964 L134.660357,119.971964 C132.230298,119.971964 129.799345,119.935655 127.370179,119.98625 C125.995179,120.014821 124.980298,121.064226 124.943095,122.324345 C124.906488,123.568393 125.888929,124.596964 127.293095,124.710952 C128.082083,124.775238 128.87881,124.753214 129.671964,124.753214 C134.284167,124.75381 138.896071,124.7425 143.508274,124.755298 C144.108571,124.757083 144.889524,124.574643 144.883571,125.613631 C144.875833,126.992202 144.881786,128.371369 144.881786,129.962738 C143.994583,129.962738 143.263929,129.96244 142.533274,129.962738 C137.722857,129.964821 132.91244,129.951429 128.102024,129.975833 C125.684464,129.988333 124.94756,130.766905 124.938036,133.225833 C124.926429,136.151726 124.92881,139.077917 124.93625,142.00381 C124.94369,144.974048 124.949643,144.974048 121.928512,144.946667 C119.74756,144.926726 119.746369,144.926726 119.746369,142.765714 C119.746071,126.816012 119.746369,110.86631 119.746964,94.9166071 L115.027024,94.9166071 C115.030298,106.083571 115.036548,117.250238 115.04875,128.4175 C115.050238,129.703214 114.58744,129.991607 113.407976,129.987143 C102.696071,129.94994 91.9841667,129.961845 81.2722619,129.951726 C80.840119,129.951429 80.4082738,129.871964 79.8383333,129.816012 L79.8383333,124.525238 C79.8383333,114.655595 79.8392262,104.78625 79.8392262,94.9166071 L75.101131,94.9166071 C75.1017262,105.313929 75.1023214,115.710655 75.1020238,126.107976 C75.1020238,131.910357 75.1139286,137.712738 75.0547024,143.514524 C75.0499405,143.99131 74.5547024,144.864524 74.2648214,144.874345 C71.2103571,144.974048 68.1517262,144.93625 64.9234524,144.93625 L64.9234524,142.995476 C64.9234524,137.936845 64.9392262,132.877917 64.9157143,127.819583 C64.9067857,125.868393 64.0201786,125.007976 62.101131,124.999345 C58.5302976,124.983571 54.9582738,124.931488 51.3892262,125.01125 C50.1478571,125.039226 49.8856548,124.561548 49.8954762,123.459464 C49.9350595,118.996369 49.9115476,114.532976 49.9127381,110.069583 C49.9139286,105.01869 49.9148214,99.9677976 49.9163095,94.9166071 L45.1320833,94.9166071 C45.1368452,104.383571 45.1442857,113.850238 45.1582738,123.317202 C45.1603571,124.761845 44.6606548,125.026131 43.3680952,125.020774 C32.8558929,124.979107 22.3433929,124.963631 11.8314881,125.034167 C10.2591667,125.045179 9.93446429,124.495774 9.93833333,123.067798 C9.96363095,113.684167 9.96630952,104.300238 9.96511905,94.9166071 L5.21839286,94.9166071 C5.22107143,104.358571 5.22613095,113.800238 5.24011905,123.241905 C5.24190476,124.561845 4.95529762,125.199345 3.53,124.991012 C1.99220238,124.766012 0.833571429,125.357381 0.118988095,126.761845 L0.118988095,147.892798 C0.82047619,149.309464 1.9689881,149.698452 3.51720238,149.697857 C51.1029167,149.666905 98.688631,149.666607 146.274345,149.698452 C147.857976,149.699643 149.090714,149.38625 149.821369,147.892798 L149.821369,94.9166071 L144.751131,94.9166071 L144.751131,119.971964 Z" id="Fill-11"></path>
                <path d="M55.1795833,117.49006 C55.215,118.820119 56.223631,119.764167 57.4334524,119.795417 C58.6956548,119.827857 59.7542857,118.835 59.8795833,117.487083 C59.9072619,117.192143 59.8992262,116.893036 59.8992262,116.595714 C59.8983333,109.369524 59.8968452,102.143333 59.8956548,94.9165476 L55.1331548,94.9165476 C55.1319643,99.8647619 55.1277976,104.813274 55.1275,109.761488 C55.1272024,112.337679 55.111131,114.915357 55.1795833,117.49006" id="Fill-13"></path>
                <path d="M124.947292,107.274821 C124.947292,108.167679 124.889256,109.065 124.960685,109.951607 C125.074375,111.362917 126.076458,112.26619 127.398185,112.25131 C128.657708,112.237321 129.680923,111.375417 129.755923,110.03375 C129.852351,108.303393 129.851161,106.560536 129.763363,104.829286 C129.69372,103.465893 128.548482,102.457262 127.330327,102.479286 C126.106815,102.501607 125.053244,103.531667 124.945804,104.895655 C124.883601,105.684048 124.934494,106.481369 124.934494,107.274821 L124.947292,107.274821 Z" id="Fill-15"></path>
                <path d="M65.0789286,107.420714 C65.0789286,108.263571 65.0357738,109.10881 65.08875,109.948095 C65.1732738,111.290952 66.0851786,112.181131 67.3575,112.245417 C68.6452976,112.310595 69.7149405,111.543333 69.8149405,110.182917 C69.9485714,108.36119 69.9444048,106.516845 69.8283333,104.693333 C69.7438095,103.36506 68.6191071,102.453452 67.4530357,102.482321 C66.2045238,102.513274 65.1664286,103.533512 65.0789286,104.893333 C65.0250595,105.732619 65.0691071,106.578155 65.0691071,107.420714 L65.0789286,107.420714 Z" id="Fill-17"></path>
                <path d="M127.332292,97.2775298 C128.701637,97.280506 129.687054,96.3870536 129.77247,94.9165179 L124.959077,94.9165179 C124.959673,94.9263393 124.959673,94.9361607 124.960565,94.9456845 C125.083482,96.3816964 126.034375,97.2748512 127.332292,97.2775298" id="Fill-19"></path>
                <path d="M67.3644048,97.283631 C68.7075595,97.328869 69.7096429,96.503869 69.8742262,95.072619 C69.8801786,95.0208333 69.8834524,94.96875 69.8882143,94.9166667 L65.0932738,94.9166667 C65.1700595,96.3238095 66.0932738,97.2404762 67.3644048,97.283631" id="Fill-21"></path>
                <path d="M137.35747,97.27375 C138.683958,97.2770238 139.595863,96.4517262 139.679792,95.0969643 C139.683065,95.0368452 139.683363,94.9764286 139.686339,94.9166071 L134.990208,94.9166071 C134.992589,94.9817857 134.993185,95.0469643 134.995565,95.1115476 C135.045565,96.4243452 136.052411,97.2704762 137.35747,97.27375" id="Fill-23"></path>
                <path d="M137.38625,112.249464 C138.682381,112.225655 139.596667,111.370893 139.677917,110.022083 C139.731488,109.133988 139.688036,108.240238 139.688036,107.349167 C139.693095,107.349167 139.698155,107.348869 139.702917,107.348869 C139.702917,106.903333 139.70619,106.457798 139.702024,106.012262 C139.698452,105.566726 139.7175,105.118214 139.674048,104.676548 C139.546964,103.37744 138.542202,102.465833 137.303512,102.495298 C136.134464,102.522976 135.068393,103.421488 135.017202,104.619107 C134.938929,106.447679 134.939821,108.284286 135.010357,110.113155 C135.060655,111.424762 136.090417,112.273274 137.38625,112.249464" id="Fill-25"></path>
                <path d="M17.7205655,104.764524 C19.0300893,104.708869 19.929494,103.7675 19.9913988,102.338036 C20.025625,101.550536 19.9976488,100.760357 19.9976488,99.971369 L19.9803869,99.971369 C19.9803869,99.0344643 20.0687798,98.0868452 19.9589583,97.1633333 C19.8059821,95.8731548 18.9461607,95.0927976 17.6833631,95.0427976 C16.4262202,94.9930952 15.4074702,95.6407143 15.3059821,96.9794048 C15.165506,98.8410119 15.1288988,100.724048 15.241994,102.58625 C15.3312798,104.050238 16.3622321,104.822262 17.7205655,104.764524" id="Fill-27"></path>
                <path d="M17.6594048,119.791071 C18.8620833,119.744345 19.8766667,118.775893 19.9716071,117.49256 C20.0332143,116.654762 19.9832143,115.808631 19.9832143,114.966369 L19.9894643,114.966369 C19.9894643,114.173512 20.012381,113.379762 19.9847024,112.587798 C19.9323214,111.089286 19.11,110.142262 17.8156548,110.046131 C16.3900595,109.940179 15.3242857,110.755357 15.2299405,112.292262 C15.1210119,114.066667 15.1543452,115.858929 15.2665476,117.634821 C15.3501786,118.955952 16.4466071,119.838095 17.6594048,119.791071" id="Fill-29"></path>
                <path d="M37.4978571,104.751726 C38.8585714,104.769583 39.8320833,103.889821 39.9228571,102.485357 C39.9365476,102.275536 39.9439881,102.065417 39.9472619,101.855298 C39.9579762,101.224048 39.9332738,100.591012 39.933869,99.9591667 C39.9347619,99.1169048 39.969881,98.2728571 39.9267262,97.4329762 C39.855,96.0311905 38.8829762,95.044881 37.6032143,95.0109524 C36.3398214,94.9773214 35.2725595,95.9326786 35.2103571,97.3368452 C35.1335714,99.0666071 35.132381,100.805595 35.2142262,102.53506 C35.2811905,103.952917 36.1716667,104.734167 37.4978571,104.751726" id="Fill-31"></path>
                <path d="M27.497381,110.045804 C26.1625595,110.077054 25.2530357,110.995506 25.186369,112.432113 C25.1497619,113.222589 25.1798214,114.016637 25.1783333,114.808899 C25.1771429,115.601161 25.1560119,116.394315 25.1816071,117.185685 C25.230119,118.688065 26.1810119,119.756518 27.4732738,119.797589 C28.7958929,119.839256 29.8575,118.843423 29.9119643,117.353244 C29.9732738,115.671994 29.96375,113.984494 29.8938095,112.303839 C29.8333929,110.845804 28.8851786,110.013065 27.497381,110.045804" id="Fill-33"></path>
                <path d="M37.4840476,110.043482 C36.1623214,110.09378 35.3322619,110.785446 35.2179762,112.126815 C35.1382143,113.061935 35.2025,114.009256 35.2025,114.950923 C35.2069643,114.950923 35.211131,114.95122 35.2152976,114.95122 C35.2152976,115.891994 35.1218452,116.844673 35.237619,117.770863 C35.4039881,119.104494 36.3536905,119.785446 37.6155952,119.763423 C38.8926786,119.741101 39.8179762,118.969077 39.8992262,117.657768 C40.0123214,115.830089 39.9977381,113.987232 39.911131,112.156875 C39.850119,110.871161 38.7685714,109.994375 37.4840476,110.043482" id="Fill-35"></path>
                <path d="M25.1816964,99.9959226 C25.1816964,100.838185 25.1412202,101.682827 25.1909226,102.522113 C25.2703869,103.859315 26.1879464,104.716161 27.4947917,104.748304 C28.8251488,104.781042 29.8114583,103.992946 29.8769345,102.643244 C29.963244,100.864077 29.9608631,99.0756845 29.890625,97.295625 C29.838244,95.9736012 28.8177083,95.0295536 27.618006,94.9991964 C26.3703869,94.9676488 25.2727679,95.9777679 25.1837798,97.3212202 C25.1251488,98.2090179 25.1727679,99.1039583 25.1727679,99.9959226 L25.1816964,99.9959226 Z" id="Fill-37"></path>
                <path d="M87.4527976,112.294226 C88.7057738,112.301667 89.7405952,111.337083 89.8596429,109.950179 C89.931369,109.11744 89.8727381,108.27369 89.8727381,107.435 L89.8599405,107.435 C89.8599405,106.546905 89.9286905,105.65256 89.8441667,104.7725 C89.7141071,103.421607 88.5956548,102.446012 87.3664881,102.494821 C86.1694643,102.542738 85.1194643,103.479643 85.0527976,104.775774 C84.9638095,106.498095 84.9590476,108.232024 85.0429762,109.954345 C85.1102381,111.334405 86.1864286,112.286488 87.4527976,112.294226" id="Fill-39"></path>
                <path d="M107.367411,117.528125 C106.043006,117.530208 105.094792,118.42247 104.992113,119.850149 C104.931994,120.68497 104.981101,121.527827 104.981101,122.367113 L104.973065,122.367113 C104.973065,122.811458 104.97128,123.255804 104.973661,123.700149 C104.976042,124.144196 104.936458,124.594494 104.995685,125.031101 C105.176339,126.362351 106.281696,127.326042 107.51622,127.27247 C108.707887,127.220982 109.738244,126.278125 109.802232,124.972173 C109.886458,123.248363 109.900149,121.513839 109.80878,119.79122 C109.73378,118.379911 108.711161,117.526339 107.367411,117.528125" id="Fill-41"></path>
                <path d="M87.410506,117.529583 C86.0756845,117.552798 85.1426488,118.44119 85.0358036,119.882262 C84.9738988,120.720655 85.0247917,121.567381 85.0238988,122.410536 C85.023006,123.203988 84.9822321,124.000119 85.0319345,124.790298 C85.1238988,126.261726 86.1673512,127.295357 87.4741964,127.274524 C88.7161607,127.255179 89.7736012,126.27244 89.8435417,124.867083 C89.9271726,123.185536 89.9361012,121.491786 89.8363988,119.811429 C89.749494,118.350119 88.7512798,117.506369 87.410506,117.529583" id="Fill-43"></path>
                <path d="M109.824226,107.409375 C109.824821,106.566518 109.881369,105.718899 109.812024,104.881994 C109.69506,103.468899 108.689405,102.50253 107.425714,102.490625 C106.19,102.47872 105.07631,103.474554 105.006667,104.849554 C104.920952,106.530804 104.923333,108.22247 105.00369,109.904315 C105.07244,111.351339 106.064702,112.249256 107.384643,112.254613 C108.703393,112.25997 109.685536,111.363244 109.810536,109.936161 C109.828988,109.727232 109.83881,109.517411 109.843274,109.307292 C109.85756,108.676339 109.823929,108.04122 109.824226,107.409375" id="Fill-45"></path>
                <path d="M107.41247,97.2731845 C108.747292,97.2794345 109.693423,96.4130655 109.812173,94.978244 C109.813661,94.958006 109.813363,94.9371726 109.815149,94.9166369 L104.993423,94.9166369 C104.994613,94.9383631 104.994911,94.9603869 104.995804,94.9821131 C105.061875,96.3746726 106.08747,97.2672321 107.41247,97.2731845" id="Fill-47"></path>
                <path d="M87.4172024,97.2714286 C88.7499405,97.28125 89.7555952,96.4342262 89.8356548,95 C89.8371429,94.9720238 89.8377381,94.9443452 89.8392262,94.9166667 L85.038631,94.9166667 C85.1600595,96.3827381 86.0624405,97.2616071 87.4172024,97.2714286" id="Fill-49"></path>
                <path d="M99.7816071,122.326964 C99.7816071,121.485 99.8170238,120.64125 99.773869,119.801369 C99.7000595,118.362083 98.7798214,117.513869 97.3813095,117.535298 C96.07,117.555536 95.1429167,118.392143 95.0955952,119.75375 C95.0354762,121.485 95.0384524,123.22131 95.0929167,124.952857 C95.1342857,126.276369 96.1140476,127.231429 97.3271429,127.278155 C98.5982738,127.326667 99.6827976,126.351964 99.7720833,125.000179 C99.8304167,124.112976 99.7830952,123.218333 99.7816071,122.326964" id="Fill-51"></path>
                <path d="M99.7737798,119.80125 C99.8172321,120.641131 99.7815179,121.484881 99.7815179,122.326845 C99.783006,123.218214 99.8303274,124.112857 99.771994,125.000357 C99.8303274,124.112857 99.783006,123.218214 99.7824107,122.326845 C99.7815179,121.484881 99.8172321,120.641131 99.7737798,119.80125" id="Fill-53"></path>
                <path d="M97.445119,97.279881 C98.7466071,97.262619 99.6790476,96.4206548 99.7722024,95.0828571 C99.7760714,95.0277976 99.7760714,94.9718452 99.7793452,94.9167857 L95.0963095,94.9167857 C95.0989881,94.9846429 95.099881,95.0530952 95.1025595,95.12125 C95.1558333,96.4641071 96.1406548,97.2974405 97.445119,97.279881" id="Fill-55"></path>
                <path d="M97.3500893,112.249167 C98.6965179,112.288452 99.693244,111.385179 99.7718155,109.990536 C99.8188393,109.15125 99.7801488,108.306905 99.7801488,107.46494 L99.7861012,107.46494 C99.7861012,106.622976 99.8179464,105.779524 99.7786607,104.939048 C99.7131845,103.535179 98.7530655,102.524464 97.4971131,102.480119 C96.195625,102.433988 95.1072321,103.485774 95.0697321,104.93994 C95.0259821,106.622976 95.0346131,108.308988 95.0881845,109.991429 C95.130744,111.330417 96.0652679,112.211667 97.3500893,112.249167" id="Fill-57"></path>
                <path d="M109.846012,75.655119 C109.857321,76.2830952 109.82994,76.91375 109.829643,77.5429167 C109.829345,78.1345833 109.856429,78.7283333 109.845119,79.3197024 C109.856429,78.7283333 109.829345,78.1345833 109.82994,77.5429167 C109.82994,76.91375 109.857321,76.2830952 109.846012,75.655119" id="Fill-59"></path>
                <path d="M104.976875,62.4992857 C104.97747,61.870119 104.949494,61.2385714 104.961101,60.6102976 C104.949494,61.2385714 104.977173,61.870119 104.975982,62.4992857 C104.975982,63.3382738 104.92628,64.181131 104.987292,65.0156548 C104.92628,64.181131 104.975982,63.3382738 104.976875,62.4992857" id="Fill-61"></path>
                <path d="M99.7853869,77.4225 C99.784494,78.0540476 99.8005655,78.6864881 99.7937202,79.3180357 C99.8005655,78.6864881 99.7847917,78.0540476 99.7862798,77.4225 C99.7862798,76.6296429 99.814256,75.8358929 99.7803274,75.0448214 C99.814256,75.8358929 99.7862798,76.6296429 99.7853869,77.4225" id="Fill-63"></path>
                <path d="M146.022738,62.5457738 C144.81381,62.646369 143.589702,62.5657143 142.281071,62.5657143 C142.281071,60.840119 142.305476,59.357381 142.274226,57.8758333 C142.24,56.2460714 141.40131,55.1496429 139.955476,55.1282143 C135.691488,55.0648214 131.425119,55.06125 127.161429,55.1344643 C125.855476,55.1567857 125.049226,56.1044048 124.979286,57.3648214 C124.909643,58.6204762 125.573036,59.5722619 126.901012,59.8038095 C127.625417,59.93 128.37869,59.9166071 129.119167,59.9195833 C131.834048,59.9317857 134.548929,59.9243452 137.313214,59.9243452 L137.313214,62.5654167 L135.62125,62.5654167 C133.042083,62.5657143 130.457262,62.4675 127.887321,62.6204762 C127.012321,62.6725595 125.878393,63.1335714 125.379286,63.7966667 C124.160238,65.4157143 125.537321,67.4014286 127.806964,67.413631 C132.815893,67.4404167 137.825119,67.4219643 142.834048,67.4219643 L144.75131,67.4219643 L144.75131,94.9166071 L149.821548,94.9166071 L149.821548,64.2618452 C148.925714,62.8686905 147.643869,62.4109524 146.022738,62.5457738" id="Fill-65"></path>
                <path d="M83.6667262,25.5448214 C83.7938095,25.2370833 84.4429167,24.9799405 84.85125,24.9784524 C93.1327976,24.9486905 101.414345,24.9522619 109.695893,24.9855952 C110.114048,24.987381 110.775357,25.2105952 110.908988,25.5135714 C111.898869,27.7579167 112.78369,30.0483929 113.808393,32.5891667 L80.9691071,32.5891667 C81.8991667,30.120119 82.7307143,27.8108929 83.6667262,25.5448214 M97.0595833,5.06416667 C97.30125,5.0647619 97.5432143,5.06535714 97.7845833,5.06595238 C98.411369,10.0144643 99.03875,14.9626786 99.6869643,20.0784524 L95.1816071,20.0784524 C95.8134524,15.0275595 96.4366667,10.0457143 97.0595833,5.06416667 M79.8009524,39.2736905 C79.7982738,37.7153571 80.267619,37.3909524 81.7295238,37.3992857 C92.1935119,37.4588095 102.658393,37.4594048 113.122381,37.3989881 C114.605417,37.3903571 115.05869,37.7704167 115.056607,39.2975 C115.028929,57.8370833 115.022083,76.3769643 115.027143,94.9165476 L119.747083,94.9165476 C119.747083,89.4421429 119.746488,83.9671429 119.747083,78.4927381 C119.748571,65.3504762 119.760179,52.2079167 119.750357,39.0659524 C119.749762,38.1698214 119.807798,37.5147619 120.885179,37.1808333 C121.924762,36.8585119 122.38994,35.8939286 122.241726,34.7980952 C122.087857,33.66 121.438155,32.8108929 120.238155,32.749881 C119.217619,32.6983929 118.80006,32.2195238 118.461667,31.3302381 C117.334881,28.3698214 116.126845,25.4400595 114.943512,22.5010714 C114.128036,20.4742857 113.780417,20.2335119 111.642917,20.2269643 C109.323571,20.2198214 107.003631,20.2251786 104.604226,20.2251786 C104.470595,19.3742857 104.344405,18.6986905 104.260476,18.0174405 C103.635774,12.9555357 103.025952,7.89184524 102.397381,2.8302381 C102.174762,1.03857143 101.368214,0.312083333 99.5643452,0.273988095 C98.2750595,0.247202381 96.9851786,0.267738095 95.6958929,0.274583333 C93.317619,0.287380952 92.7125595,0.91327381 92.4235714,3.31625 C91.7917262,8.57607143 91.0771429,13.8260714 90.4467857,19.0861905 C90.3393452,19.9829167 89.9649405,20.2489881 89.1179167,20.2344048 C86.9860714,20.1972024 84.8509524,20.2838095 82.7214881,20.206131 C81.072381,20.1457143 80.1685119,20.8727976 79.6339881,22.3891667 C78.5813095,25.376369 77.4122619,28.3222024 76.3342857,31.3004762 C76.0226786,32.1614881 75.6673214,32.737381 74.5985714,32.7674405 C73.3819048,32.8016667 72.5765476,33.7290476 72.6530357,34.8049405 C72.7122619,35.6397619 73.3191071,36.8034524 74.0125595,37.1382738 C75.0104762,37.6204167 75.1167262,38.188869 75.1143452,39.0733929 C75.0979762,45.6195238 75.1000595,52.1659524 75.1000595,58.7120833 C75.1000595,70.7802381 75.1006548,82.8486905 75.10125,94.9165476 L79.8390476,94.9165476 C79.8390476,76.3689286 79.8339881,57.8213095 79.8009524,39.2736905" id="Fill-67"></path>
                <path d="M59.8939881,85.677381 C59.8930952,79.6877976 59.8939881,73.6982143 59.8939881,67.43125 C62.3180952,67.43125 64.5359524,67.4357143 66.7535119,67.4300595 C68.6877381,67.425 69.8648214,66.5169643 69.8966667,65.0196429 C69.9282143,63.535119 68.7481548,62.5732143 66.8133333,62.5622024 C64.038631,62.5467262 61.2639286,62.5595238 58.4889286,62.566369 C55.8618452,62.5732143 55.1466667,63.2702381 55.1445833,65.9119048 C55.13625,75.5800595 55.1353571,85.2485119 55.1332738,94.9166667 L59.8954762,94.9166667 C59.894881,91.8369048 59.8942857,88.7571429 59.8939881,85.677381" id="Fill-69"></path>
                <path d="M124.95628,79.914494 C125.016399,81.3802679 126.072351,82.3674702 127.404494,82.3475298 C128.673244,82.3281845 129.667292,81.3740179 129.774435,79.9802679 C129.838423,79.1463393 129.786339,78.3037798 129.786339,77.4650893 L129.792887,77.4650893 C129.792887,76.675506 129.83247,75.8838393 129.784554,75.0975298 C129.691399,73.5746131 128.751518,72.6198512 127.397946,72.6079464 C126.037232,72.595744 125.010744,73.5403869 124.947054,75.031756 C124.877411,76.656756 124.889018,78.2888988 124.95628,79.914494" id="Fill-71"></path>
                <path d="M69.8772917,74.9532143 C69.7272917,73.408869 68.7421726,72.5413095 67.3469345,72.6169048 C66.0371131,72.6880357 65.1252083,73.6201786 65.0802679,75.076131 C65.0296726,76.7109524 65.0311607,78.3502381 65.0903869,79.9844643 C65.1383036,81.3121429 66.0906845,82.2579762 67.316875,82.3445833 C68.6011012,82.4353571 69.6772917,81.5609524 69.8436607,80.152619 C69.9472321,79.2731548 69.863006,78.371369 69.863006,77.4797024 L69.891875,77.4797024 C69.891875,76.6368452 69.958244,75.7880357 69.8772917,74.9532143" id="Fill-73"></path>
                <path d="M129.776905,94.86375 C129.84625,93.2390476 129.840595,91.6069048 129.772738,89.9819048 C129.711131,88.497381 128.670357,87.5244643 127.329286,87.5464881 C126.060833,87.5673214 125.075417,88.5107738 124.959048,89.9170238 C124.889702,90.7497619 124.94625,91.5929167 124.946845,92.4313095 C124.94744,93.2601786 124.891488,94.0935119 124.959345,94.9167262 L129.77244,94.9167262 C129.773631,94.8985714 129.77631,94.8819048 129.776905,94.86375" id="Fill-75"></path>
                <path d="M69.893006,92.3985119 L69.8626488,92.3985119 C69.8626488,91.5065476 69.943006,90.6059524 69.8438988,89.7252976 C69.693006,88.383631 68.6918155,87.5330357 67.4525298,87.5470238 C66.1775298,87.5616071 65.1433036,88.5431548 65.0915179,89.93125 C65.0308036,91.5654762 65.0352679,93.2050595 65.0876488,94.839881 C65.0885417,94.8660714 65.0918155,94.8907738 65.0933036,94.9166667 L69.888244,94.9166667 C69.9641369,94.0857143 69.893006,93.2380952 69.893006,92.3985119" id="Fill-77"></path>
                <path d="M139.689315,92.568244 L139.697649,92.568244 C139.697649,91.6259821 139.752113,90.6801488 139.684554,89.7429464 C139.591101,88.4426488 138.585446,87.5491964 137.327113,87.5441369 C136.076815,87.539375 135.044375,88.4560417 134.999732,89.7569345 C134.941101,91.4750893 134.930387,93.1986012 134.990208,94.916756 L139.686339,94.916756 C139.722649,94.1361012 139.689315,93.3512798 139.689315,92.568244" id="Fill-79"></path>
                <path d="M137.369673,82.3471726 C138.629196,82.3275298 139.591101,81.4322917 139.675327,80.1135417 C139.732173,79.225744 139.686339,78.3311012 139.684256,77.4394345 C139.68247,76.5480655 139.733661,75.6525298 139.670268,74.7653274 C139.573839,73.4108631 138.652411,72.6096726 137.315804,72.6239583 C136.019375,72.6376488 135.049732,73.493006 135.004196,74.8260417 C134.943185,76.606994 134.939613,78.3941964 135.009851,80.1745536 C135.061637,81.4766369 136.110149,82.3665179 137.369673,82.3471726" id="Fill-81"></path>
                <path d="M107.359554,57.6169048 C106.083661,57.6249405 105.091101,58.5788095 104.98872,59.9829762 C104.973542,60.1916071 104.965208,60.4008333 104.961042,60.6103571 C104.949435,61.238631 104.977411,61.8701786 104.976815,62.4993452 C104.975923,63.3383333 104.92622,64.1811905 104.987232,65.0157143 C105.086637,66.3719643 106.125625,67.3746429 107.371756,67.4047024 C108.611637,67.4344643 109.726815,66.465119 109.80003,65.0898214 C109.891399,63.3672024 109.902708,61.6320833 109.805685,59.9103571 C109.726815,58.5148214 108.651518,57.608869 107.359554,57.6169048" id="Fill-83"></path>
                <path d="M85.0291369,50.0344345 C85.1389583,51.451994 86.086875,52.3451488 87.4106845,52.3734226 C88.7437202,52.401994 89.768125,51.5430655 89.8443155,50.1180655 C89.9362798,48.395744 89.9362798,46.6609226 89.8458036,44.9383036 C89.774375,43.585625 88.6386607,42.604375 87.4065179,42.6216369 C86.1472917,42.639494 85.1383631,43.6156845 85.036875,45.0016964 C84.9758631,45.8365179 85.0258631,46.6790774 85.0258631,47.5180655 L85.0172321,47.5180655 C85.0172321,48.3573512 84.9645536,49.200506 85.0291369,50.0344345" id="Fill-85"></path>
                <path d="M109.843125,94.3513393 C109.85622,93.7227679 109.824375,93.090625 109.824077,92.4608631 C109.824077,91.5724702 109.899077,90.675744 109.806518,89.796875 C109.66128,88.4197917 108.594911,87.5075893 107.321399,87.5403274 C106.059792,87.5727679 105.044315,88.5519345 104.991339,89.9465774 C104.928244,91.6013393 104.917232,93.2629464 104.993423,94.9165179 L109.815149,94.9165179 C109.829137,94.7287202 109.838958,94.5403274 109.843125,94.3513393" id="Fill-87"></path>
                <path d="M109.823929,92.4609821 C109.824226,93.0904464 109.856071,93.7225893 109.842976,94.3514583 C109.856071,93.7225893 109.824524,93.0904464 109.824226,92.4609821 C109.823929,91.5725893 109.899226,90.6758631 109.806369,89.796994 C109.899226,90.6758631 109.823929,91.5725893 109.823929,92.4609821" id="Fill-89"></path>
                <path d="M85.0217262,62.5209226 C85.0217262,63.3140774 84.9833333,64.1093155 85.0300595,64.899494 C85.1181548,66.3858036 86.139881,67.4155655 87.45625,67.4066369 C88.6994048,67.398006 89.7684524,66.4194345 89.841369,65.0134821 C89.928869,63.333125 89.9345238,61.6405655 89.8383929,59.9608036 C89.7547619,58.4991964 88.7541667,57.633125 87.4282738,57.6474107 C86.0464286,57.6622917 85.1145833,58.6069345 85.0282738,60.1423512 C84.9839286,60.9328274 85.0205357,61.7277679 85.0217262,62.5209226" id="Fill-91"></path>
                <path d="M85.03,64.8995536 C84.9832738,64.109375 85.0216667,63.3138393 85.0216667,62.5209821 C85.0204762,61.7278274 84.983869,60.9325893 85.0285119,60.1424107 C84.983869,60.9325893 85.0204762,61.7278274 85.0210714,62.5209821 C85.0216667,63.3138393 84.9832738,64.109375 85.03,64.8995536" id="Fill-93"></path>
                <path d="M107.315685,52.3625 C108.674315,52.3946429 109.656458,51.5625 109.803482,50.1354167 C109.889494,49.3014881 109.819256,48.4511905 109.819256,47.6083333 L109.836518,47.6083333 C109.836518,47.1619048 109.838899,46.7154762 109.835923,46.2693452 C109.832946,45.8232143 109.864792,45.3720238 109.811518,44.9315476 C109.643065,43.5494048 108.594851,42.5839286 107.346935,42.6223214 C106.162708,42.6589286 105.088304,43.6065476 105.016875,44.9080357 C104.92253,46.6383929 104.921935,48.3815476 105.011518,50.1119048 C105.082946,51.4901786 106.045446,52.3324405 107.315685,52.3625" id="Fill-95"></path>
                <path d="M109.829762,77.5428274 C109.83006,76.9139583 109.85744,76.2833036 109.846131,75.6550298 C109.842262,75.445506 109.834226,75.2365774 109.819643,75.028244 C109.71131,73.5002679 108.766964,72.6047321 107.370833,72.6225893 C106.057143,72.6389583 105.070238,73.5312202 105.002976,74.9565179 C104.924405,76.6294345 104.922321,78.3121726 105.004464,79.9847917 C105.074107,81.3978869 106.094048,82.3324107 107.366964,82.3481845 C108.696131,82.3648512 109.707738,81.390744 109.81875,79.9091964 C109.833631,79.7130655 109.841667,79.5163393 109.845238,79.3196131 C109.856548,78.728244 109.829464,78.134494 109.829762,77.5428274" id="Fill-97"></path>
                <path d="M87.4189583,72.6225298 C86.0859226,72.6290774 85.1460417,73.5079464 85.038006,74.9400893 C84.9749107,75.7749107 85.0263988,76.6180655 85.0263988,77.4573512 L85.0189583,77.4573512 C85.0189583,78.2963393 84.9662798,79.1397917 85.0308631,79.9743155 C85.1383036,81.363006 86.1314583,82.3219345 87.400506,82.3555655 C88.6725298,82.389494 89.770744,81.4621131 89.8454464,80.0784821 C89.938006,78.3555655 89.9353274,76.6204464 89.8472321,74.8972321 C89.7752083,73.4909821 88.7454464,72.6159821 87.4189583,72.6225298" id="Fill-99"></path>
                <path d="M89.8277976,89.8254464 C89.7408929,88.4084821 88.67125,87.5120536 87.3953571,87.5462798 C86.12125,87.5808036 85.1429762,88.5302083 85.0373214,89.9272321 C84.9742262,90.7608631 85.0257143,91.603125 85.0257143,92.4415179 L85.02125,92.4415179 C85.02125,93.230506 84.9852381,94.021875 85.0286905,94.8084821 C85.0307738,94.8453869 85.0355357,94.8802083 85.0385119,94.9165179 L89.8391071,94.9165179 C89.9304762,93.2236607 89.9316667,91.5174107 89.8277976,89.8254464" id="Fill-101"></path>
                <path d="M99.7853869,77.4225 C99.7862798,76.6296429 99.814256,75.8358929 99.7803274,75.0448214 C99.7169345,73.5647619 98.8538393,72.6507738 97.5297321,72.61 C96.1115774,72.5668452 95.1163393,73.4754762 95.0708036,74.9870833 C95.020506,76.670119 95.0333036,78.3573214 95.0883631,80.0400595 C95.1336012,81.4260714 96.1600893,82.370119 97.470506,82.3469048 C98.7737798,82.3239881 99.718125,81.3635714 99.7779464,79.9489881 C99.7865774,79.738869 99.7916369,79.5284524 99.7937202,79.3180357 C99.8005655,78.6864881 99.784494,78.0540476 99.7853869,77.4225" id="Fill-103"></path>
                <path d="M99.8002083,94.4161607 C99.8121131,93.7483036 99.7838393,93.0777679 99.7835417,92.4090179 C99.7835417,91.7774702 99.801994,91.1450298 99.7939583,90.5137798 C99.791875,90.3033631 99.7862202,90.0929464 99.7763988,89.8828274 C99.7109226,88.4944345 98.7204464,87.5396726 97.4118155,87.5477083 C96.1624107,87.5554464 95.1472321,88.4616964 95.100506,89.773006 C95.039494,91.4858036 95.0341369,93.2039583 95.0963393,94.916756 L99.779375,94.916756 C99.7883036,94.7497917 99.7972321,94.5834226 99.8002083,94.4161607" id="Fill-105"></path>
                <path d="M99.7836607,92.4089583 C99.7839583,93.0777083 99.8122321,93.748244 99.8003274,94.4161012 C99.8122321,93.748244 99.7839583,93.0777083 99.7839583,92.4089583 C99.7836607,91.7774107 99.8021131,91.1449702 99.7940774,90.5137202 C99.8021131,91.1449702 99.7836607,91.7774107 99.7836607,92.4089583" id="Fill-107"></path>
                <path d="M97.4779762,52.3610417 C98.7854167,52.3387202 99.6925595,51.488125 99.7705357,50.1402083 C99.8190476,49.300625 99.7794643,48.4562798 99.7794643,47.6143155 L99.785119,47.6143155 C99.785119,46.7723512 99.8133929,45.9291964 99.778869,45.0884226 C99.7208333,43.673244 98.7761905,42.6577679 97.5238095,42.6125298 C96.2059524,42.5643155 95.1193452,43.5884226 95.075,45.0476488 C95.0238095,46.7300893 95.0330357,48.4166964 95.0889881,50.0991369 C95.1369048,51.5446726 96.0761905,52.3851488 97.4779762,52.3610417" id="Fill-109"></path>
                <path d="M99.7822024,62.4379464 C99.7822024,61.5959821 99.8164286,60.7522321 99.7744643,59.9123512 C99.7069048,58.5724702 98.8018452,57.6933036 97.5119643,57.650744 C96.1607738,57.6058036 95.1432143,58.4938988 95.095,59.8995536 C95.0357738,61.6311012 95.0372619,63.3674107 95.0941071,65.0989583 C95.1369643,66.4078869 96.1444048,67.3787202 97.3435119,67.4153274 C98.6030357,67.4540179 99.6920238,66.4599702 99.7789286,65.111756 C99.8366667,64.2239583 99.7899405,63.3296131 99.7899405,62.4379464 L99.7822024,62.4379464 Z" id="Fill-111"></path>
                <path d="M9.92741071,76.227381 L9.92741071,73.0514881 C11.5747321,73.6514881 12.9553869,74.141369 14.3271131,74.6559524 C24.153006,78.3395833 33.9711607,82.0446429 43.8110417,85.6901786 C44.8321726,86.0681548 45.1241369,86.5839286 45.123244,87.6309524 C45.1205655,90.8532738 45.1199702,94.0755952 45.1175893,97.297619 L49.9065774,97.297619 C49.9071726,93.3761905 49.9086607,89.4550595 49.909256,85.5339286 C49.9095536,83.2113095 49.5402083,82.7125 47.396756,81.910119 C34.6940774,77.1535714 21.991994,72.3964286 9.29199405,67.6324405 C6.59110119,66.6190476 5.18366071,67.5532738 5.181875,70.4339286 C5.17681548,79.3883929 5.17889881,88.3431548 5.1803869,97.297619 L9.92770833,97.297619 C9.92741071,90.2741071 9.92741071,83.2508929 9.92741071,76.227381" id="Fill-113"></path>
                <path d="M17.7205655,91.9669048 C19.0300893,91.91125 19.929494,90.969881 19.9913988,89.5404167 C20.025625,88.7529167 19.9976488,87.9627381 19.9976488,87.17375 L19.9803869,87.17375 C19.9803869,86.2368452 20.0687798,85.2892262 19.9589583,84.3657143 C19.8059821,83.0755357 18.9461607,82.2951786 17.6833631,82.2451786 C16.4262202,82.1954762 15.4074702,82.8430952 15.3059821,84.1817857 C15.165506,86.0433929 15.1288988,87.9264286 15.241994,89.788631 C15.3312798,91.252619 16.3622321,92.0246429 17.7205655,91.9669048" id="Fill-115"></path>
                <path d="M25.1816964,87.1983036 C25.1816964,88.0405655 25.1412202,88.8852083 25.1909226,89.724494 C25.2703869,91.0616964 26.1879464,91.9185417 27.4947917,91.9506845 C28.8251488,91.9834226 29.8114583,91.1953274 29.8769345,89.845625 C29.963244,88.0664583 29.9608631,86.2780655 29.890625,84.498006 C29.838244,83.1759821 28.8177083,82.2319345 27.618006,82.2015774 C26.3703869,82.1700298 25.2727679,83.1801488 25.1837798,84.5236012 C25.1251488,85.4113988 25.1727679,86.3063393 25.1727679,87.1983036 L25.1816964,87.1983036 Z" id="Fill-117"></path>
            </g>
        </g>
    </g>
</svg>