<?xml version="1.0" encoding="UTF-8"?>
<svg width="164px" height="148px" viewBox="0 0 164 148" version="1.1" xmlns="http://www.w3.org/2000/svg" xmlns:xlink="http://www.w3.org/1999/xlink">
    <!-- Generator: Sketch 52.6 (67491) - http://www.bohemiancoding.com/sketch -->
    <title>Group 58</title>
    <desc>Created with Sketch.</desc>
    <defs>
        <polygon id="path-1" points="0.233659599 0.264319978 73.3156039 0.264319978 73.3156039 148 0.233659599 148"></polygon>
    </defs>
    <g id="Welcome" stroke="none" stroke-width="1" fill="none" fill-rule="evenodd">
        <g id="Innovation-for-SME-" transform="translate(-241.000000, -2458.000000)">
            <g id="Group-58" transform="translate(241.000000, 2458.000000)">
                <path d="M133,82.441999 C132.478231,83.6365361 131.63388,84.0307334 130.448484,83.9981551 C127.656002,83.9210532 124.861577,83.9796941 122.067152,83.9742644 C120.734067,83.9720925 119.978134,83.2162762 120.000482,81.9359496 C120.021858,80.712092 120.751556,80.0301199 122.071038,80.0268621 C124.865463,80.0214324 127.659889,80.0789873 130.45237,80.0018854 C131.638738,79.9693071 132.486005,80.3537309 133,81.5602134 L133,82.441999 Z" id="Fill-1" fill="#676767"></path>
                <path d="M82.5595509,132 C81.353827,131.486005 80.9692988,130.638738 81.001886,129.45237 C81.0790089,126.66086 81.0214383,123.865463 81.0268694,121.07201 C81.0301282,119.751556 81.7122855,119.021858 82.9364754,119.000482 C84.2160634,118.978134 84.9731711,119.734067 84.9753436,121.067152 C84.9807748,123.860605 84.922118,126.656002 84.9981546,129.447512 C85.0307417,130.63388 84.6364374,131.478231 83.4415759,132 L82.5595509,132 Z" id="Fill-3" fill="#676767"></path>
                <path d="M83.4344132,32 C84.6455561,32.5130083 85.0278504,33.3654362 84.9984431,34.5437068 C84.9254696,37.4278029 84.970125,40.3138385 84.9690359,43.1998741 C84.9690359,44.0649089 84.4658452,44.6574384 83.5858061,44.9027902 C82.7068561,45.148142 81.8736507,44.9338229 81.3650143,44.2055256 C81.1460936,43.8922899 81.0295538,43.4704399 81.0273755,43.0970784 C81.0012357,40.0490912 81.0349996,36.9991645 81.0001466,33.9502075 C80.9881658,32.9212815 81.7124554,32.447064 82.5500174,32 L83.4344132,32 Z" id="Fill-5" fill="#676767"></path>
                <path d="M33,81.573029 C33.5175751,80.3639292 34.3726991,79.9710809 35.5634153,80.0016357 C38.4731851,80.0769317 41.3868686,79.9776283 44.2946816,80.0845704 C44.8406304,80.1042128 45.5724756,80.6225543 45.8444716,81.1496258 C46.0949427,81.63523 46.0264545,82.5660622 45.7564154,83.0734913 C45.5088795,83.539453 44.8083431,83.944305 44.2985952,83.9574 C41.1569439,84.0348784 38.0143142,83.9770424 34.8716845,83.9999586 C33.8707785,84.006506 33.4481085,83.2360868 33,82.4591202 L33,81.573029 Z" id="Fill-7" fill="#676767"></path>
                <path d="M125.998213,58.0957743 C125.7942,58.337019 125.507586,58.9358737 125.01895,59.2177989 C122.320007,60.7664956 119.582251,62.2565367 116.836534,63.7304949 C115.826421,64.272586 114.739678,63.9651172 114.235119,63.0928519 C113.744492,62.2480222 114.030111,61.2650681 115.013354,60.7163545 C117.703341,59.2140147 120.401289,57.7220814 123.122127,56.2717748 C124.512401,55.5300654 126.059915,56.3616502 125.998213,58.0957743" id="Fill-9" fill="#676767"></path>
                <path d="M59.029271,124.999182 C57.4461001,125.039949 56.5552725,123.549474 57.2250394,122.265816 C58.7000317,119.439979 60.2446345,116.654909 61.8033476,113.878787 C62.3009694,112.994843 63.2585855,112.777089 64.0534634,113.228507 C64.8709176,113.693845 65.2697676,114.7508 64.798485,115.644687 C63.2792806,118.520239 61.7177454,121.373917 60.1072947,124.192794 C59.8627169,124.622337 59.2691454,124.82816 59.029271,124.999182" id="Fill-11" fill="#676767"></path>
                <path d="M103.090188,49.9999995 C101.414059,50.0009937 100.579306,48.5385223 101.210576,47.2589841 C101.797363,46.0699182 102.467437,44.9255915 103.106278,43.7653576 C103.952387,42.228321 104.791872,40.6863134 105.654071,39.1582246 C106.286287,38.038753 107.226094,37.714643 108.144132,38.2564832 C109.018635,38.7734684 109.267546,39.9038763 108.682651,40.9815914 C107.246915,43.6321345 105.814018,46.2856601 104.306353,48.8904699 C103.99403,49.4303216 103.358975,49.7633794 103.090188,49.9999995" id="Fill-13" fill="#676767"></path>
                <path d="M49.0392924,64 C48.7576204,63.8947452 48.3604928,63.7960688 48.0171118,63.6109331 C45.3865146,62.1918726 42.7608939,60.7662336 40.1462217,59.3217992 C39.0255056,58.7034271 38.7119838,57.7476758 39.2703512,56.8342143 C39.8018453,55.9639825 40.908627,55.7384365 42.0084416,56.3295551 C44.6698933,57.7608326 47.3194014,59.2118455 49.9669188,60.6656777 C50.7751083,61.1101914 51.1772124,61.768034 50.9253997,62.6626999 C50.6875213,63.5056783 50.0316137,63.8900463 49.0392924,64" id="Fill-15" fill="#676767"></path>
                <path d="M50.9999308,102.076891 C50.7861177,102.330045 50.4818071,102.953925 49.9696503,103.249746 C47.3044458,104.789532 44.5934953,106.260105 41.8795613,107.723092 C40.8681759,108.268275 39.7454088,107.977194 39.2511526,107.123864 C38.7300454,106.227868 39.0254058,105.280671 40.0855207,104.688081 C42.7467472,103.20139 45.4139407,101.726077 48.0990347,100.279209 C49.4783775,99.5368116 51.0118645,100.321875 50.9999308,102.076891" id="Fill-17" fill="#676767"></path>
                <path d="M103.06461,113 C103.312702,113.201662 103.948497,113.488758 104.239038,113.995397 C105.787963,116.688531 107.266139,119.426368 108.732995,122.169173 C109.257478,123.150662 108.9792,124.206657 108.161345,124.721243 C107.317078,125.252717 106.318106,125.022246 105.769096,124.046718 C104.228662,121.30888 102.709924,118.558128 101.234578,115.781548 C100.56388,114.518924 101.379848,113.050664 103.06461,113" id="Fill-19" fill="#676767"></path>
                <path d="M59.0349703,38 C59.2986063,38.2176478 59.9358849,38.512814 60.2317642,39.0246341 C61.7775441,41.697031 63.2521991,44.4131562 64.7164225,47.1352443 C65.2702479,48.1668352 64.9829036,49.2431483 64.1151805,49.7529808 C63.2303875,50.2727515 62.2564514,49.962678 61.671331,48.9131982 C60.1976243,46.2745914 58.730556,43.6310155 57.2947825,40.9685569 C56.5361176,39.5603061 57.2862475,38.0149074 59.0349703,38" id="Fill-21" fill="#676767"></path>
                <path d="M115.956826,100 C116.232524,100.102965 116.626662,100.20125 116.969046,100.384716 C119.590665,101.793467 122.200341,103.223747 124.820965,104.637179 C125.620191,105.067761 126.123813,105.666831 125.973523,106.557012 C125.772472,107.744857 124.429813,108.374817 123.255359,107.761706 C120.438661,106.291175 117.654807,104.764482 114.882897,103.220003 C114.122488,102.795974 113.817926,102.10049 114.108554,101.258984 C114.380271,100.474576 115.00731,100.119814 115.956826,100" id="Fill-23" fill="#676767"></path>
                <path d="M57,54.5399928 C56.6545394,54.995209 56.3783532,55.6946643 55.9162199,55.8761805 C55.4012193,56.0786044 54.526174,56.0415409 54.1406072,55.7003663 C52.8280392,54.5409432 51.6312324,53.2323155 50.4517443,51.9198865 C49.7854338,51.1795663 49.8866109,50.154142 50.5556559,49.4984027 C51.1973558,48.8702234 52.133472,48.8065502 52.8152781,49.4755944 C54.0485451,50.6863363 55.2371483,51.9493473 56.4038754,53.2304148 C56.6581854,53.5088665 56.7420439,53.9545792 57,54.5399928" id="Fill-25" fill="#676767"></path>
                <path d="M116,50.6209344 C115.684264,51.2041348 115.526397,51.7008318 115.209754,52.0449851 C114.136434,53.212316 113.023194,54.3424412 111.895437,55.4548936 C111.169608,56.1711047 110.147096,56.1701745 109.497479,55.5190736 C108.849677,54.8679727 108.817922,53.786215 109.500201,53.0588422 C110.627051,51.8561658 111.782933,50.6813937 112.952425,49.5233642 C113.483188,48.9978328 114.179076,48.8034326 114.804197,49.2433908 C115.26782,49.5689413 115.579926,50.1214469 116,50.6209344" id="Fill-27" fill="#676767"></path>
                <path d="M57,109.602546 C56.734787,110.170724 56.6427371,110.603134 56.3884606,110.876529 C55.2428497,112.107737 54.0735427,113.318487 52.8677803,114.48832 C52.1432292,115.191336 51.2090595,115.14856 50.5428371,114.49111 C49.8465389,113.804833 49.8009697,112.819122 50.5173183,112.050083 C51.6437902,110.843053 52.8112744,109.676939 53.97967,108.510825 C54.5538426,107.937997 55.3011783,107.838496 55.9327681,108.255098 C56.3902834,108.557321 56.659142,109.154326 57,109.602546" id="Fill-29" fill="#676767"></path>
                <path d="M110.608942,108 C111.217796,108.332527 111.708418,108.493807 112.050084,108.807307 C113.195177,109.857441 114.303031,110.947442 115.394128,112.051033 C116.190107,112.855622 116.191038,113.795216 115.460227,114.495607 C114.757345,115.16791 113.799376,115.182407 113.016431,114.453021 C111.834099,113.351242 110.689936,112.211407 109.539258,111.078822 C108.962987,110.511623 108.832651,109.776801 109.225521,109.139834 C109.508536,108.677739 110.104356,108.39867 110.608942,108" id="Fill-31" fill="#676767"></path>
                <path d="M124.937848,69 C125.991992,69.0981802 126.64451,69.5103424 126.91968,70.3570246 C127.179675,71.1589912 126.796258,72.1456531 125.946468,72.4042266 C123.968683,73.0049725 121.960549,73.5201752 119.941286,73.9731648 C119.146126,74.1510556 118.242718,73.4161626 118.059609,72.6073915 C117.863348,71.7412676 118.1456,70.9120827 118.997413,70.6360118 C120.993407,69.9905502 123.046054,69.5093703 124.937848,69" id="Fill-33" fill="#676767"></path>
                <path d="M75,118.914531 C74.9467733,119.162674 74.8866468,119.496909 74.802864,119.826079 C74.4046492,121.375711 74.0222053,122.928381 73.5924487,124.466872 C73.2721026,125.61441 72.3120502,126.204891 71.3184845,125.935477 C70.327876,125.666064 69.7936373,124.663361 70.0745562,123.511772 C70.4855848,121.826421 70.9094273,120.144108 71.3648115,118.471923 C71.643759,117.452002 72.4618735,116.894945 73.3765847,117.016485 C74.244969,117.130935 74.9733866,117.944238 75,118.914531" id="Fill-35" fill="#676767"></path>
                <path d="M96,38.9878236 C95.6119187,40.5166431 95.1876685,42.1996634 94.7555981,43.8796402 C94.6617548,44.2428236 94.5776868,44.6161518 94.4212812,44.9499153 C94.0195144,45.8081643 93.0810809,46.2017821 92.2609292,45.8984529 C91.3606196,45.5646894 90.823953,44.652673 91.0526961,43.7092078 C91.4857441,41.9227107 91.9383427,40.139257 92.4339529,38.3700061 C92.7164604,37.3595852 93.5385672,36.869592 94.4906862,37.0298796 C95.3088829,37.1678488 95.9775167,37.9621856 96,38.9878236" id="Fill-37" fill="#676767"></path>
                <path d="M40.0606937,95 C38.956762,94.873901 38.3081642,94.4568041 38.0673431,93.5964206 C37.8336051,92.754467 38.2170974,91.834914 39.0812199,91.5749559 C41.0280252,90.9890804 43.0031624,90.4798342 44.9884181,90.0297576 C45.7918295,89.847399 46.6944024,90.5302739 46.9180219,91.3373077 C47.1568192,92.2006012 46.8765359,93.0474048 46.042769,93.3248227 C44.0220984,93.9970276 41.9366693,94.4868739 40.0606937,95" id="Fill-39" fill="#676767"></path>
                <path d="M74.9999955,43.82794 C75.0019553,44.9638285 74.3611083,45.8119451 73.5429016,45.9598842 C72.6639417,46.120996 71.854554,45.7997857 71.5880244,44.9425496 C70.9736344,42.9666507 70.4346958,40.9573135 70.0300019,38.9256842 C69.8585214,38.0664215 70.4405751,37.3378721 71.3048366,37.0916447 C72.1504803,36.8484571 73.0441384,37.0764455 73.3302658,37.9296285 C74.0103083,39.9501117 74.5061318,42.0384849 74.9999955,43.82794" id="Fill-41" fill="#676767"></path>
                <path d="M47,72.0615224 C46.9918889,73.3148756 45.9019635,74.2180417 44.7724967,73.9539176 C42.9819773,73.5344845 41.2026108,73.0685576 39.4323691,72.5769107 C38.3546104,72.2771743 37.8091407,71.3186114 38.060584,70.3264147 C38.30493,69.3619163 39.2772449,68.8030019 40.3762952,69.0641584 C42.0988843,69.4736992 43.8153901,69.9069815 45.5227709,70.3719192 C46.4372943,70.6212049 46.947278,71.2463977 47,72.0615224" id="Fill-43" fill="#676767"></path>
                <path d="M119.971146,90 C120.289119,90.0789762 120.717473,90.1846069 121.144813,90.2931992 C122.561518,90.6574771 123.981261,91.0089213 125.392902,91.3919559 C126.596949,91.7197073 127.216694,92.6802556 126.931126,93.7148441 C126.659734,94.6990853 125.679484,95.2074948 124.490626,94.9202188 C122.804555,94.5144784 121.123547,94.0880068 119.451654,93.6279703 C118.448112,93.3515535 117.888114,92.5025591 118.018746,91.5972941 C118.144316,90.7305301 118.964566,90.0177697 119.971146,90" id="Fill-45" fill="#676767"></path>
                <path d="M96,123.914421 C95.8986067,125.040064 95.4813345,125.713223 94.6165671,125.929849 C93.7664237,126.142426 92.9045811,125.88126 92.6286744,125.017794 C91.9920418,123.01755 91.4421784,120.977827 91.0288059,118.916846 C90.8581923,118.06654 91.4655769,117.35289 92.3186451,117.093749 C93.1795128,116.833596 94.0442802,117.113994 94.3231116,117.94608 C95.0016665,119.964545 95.4901089,122.052857 96,123.914421" id="Fill-47" fill="#676767"></path>
                <g id="Group-51" transform="translate(90.000000, 0.000000)">
                    <mask id="mask-2" fill="white">
                        <use xlink:href="#path-1"></use>
                    </mask>
                    <g id="Clip-50"></g>
                    <path d="M60.3814052,49.8109377 C53.2408857,53.6358727 50.4481065,60.6687558 53.0851974,67.4383143 C59.0542104,64.422574 61.4279766,57.0148857 60.3814052,49.8109377 M41.1077688,120.426158 C48.9238987,122.328055 56.6631455,120.635665 59.7394312,115.225016 C52.7670935,111.952678 44.7174312,114.153457 41.1077688,120.426158 M19.5766519,137.652782 C25.5004961,142.621353 33.8538468,144.150366 38.6090675,140.300444 C33.563613,134.55247 25.1785481,133.385769 19.5766519,137.652782 M18.5156649,24.5452234 C20.3118468,18.8289636 15.3644182,9.82883377 9.17917143,7.5627039 C6.62953506,15.2644701 12.548574,22.2262364 18.5156649,24.5452234 M40.6205221,41.7170675 C45.8207039,37.1098468 45.5141325,29.1534052 41.926574,22.4213273 C36.4842104,27.6128597 35.9143143,36.0363662 40.6205221,41.7170675 M52.6469636,95.9100545 C59.2377688,96.1695351 67.1673013,88.842574 66.9856649,82.7841844 C59.3348338,82.9398727 53.1851455,88.5283143 52.6469636,95.9100545 M31.121613,129.892392 C36.5370675,131.375275 40.7733273,134.242055 44.3541584,138.133301 C46.3041065,140.254314 46.2368338,141.959197 43.8938208,143.702522 C37.953639,148.125223 31.3647558,149.257327 24.4837169,146.525094 C21.0191714,145.149847 17.8544701,142.981743 14.6503662,141.015457 C13.6441584,140.399431 12.9051195,140.125535 11.7240026,140.516678 C9.22241818,141.345094 6.65836623,141.995717 4.09527532,142.61847 C2.06267792,143.112444 0.615353247,142.319587 0.303976623,140.710808 C-0.0429584416,138.919431 0.896937662,137.683535 3.05639221,137.258756 C8.27963896,136.231405 13.2751195,134.518834 17.9351974,131.973042 C35.0330416,122.633665 45.3200026,108.307457 48.1954312,89.0597688 C51.6580545,65.8814312 39.8920545,42.6761844 19.3767558,31.2340545 C16.7473532,29.7675091 13.9142104,28.5700545 11.5346779,26.7719506 C7.36088571,23.6187818 4.12026234,19.6602623 3.38795065,14.2044442 C2.82478182,10.0008597 3.43984675,5.91163896 4.9284961,1.96657403 C5.48782078,0.483690909 7.08026234,-0.202490909 8.56314545,0.610548052 C16.8213532,5.13896364 23.5620805,10.920574 24.3578208,21.1681325 C24.4846779,22.8067039 24.0329896,24.4837169 23.9493792,26.1482364 C23.9215091,26.7123662 24.0099247,27.5523143 24.3751195,27.8233273 C26.7479247,29.5897169 29.2120286,31.2340545 31.7607039,32.997561 C31.9798208,31.4964182 32.0730416,30.012574 32.4247818,28.5940805 C33.7471714,23.2670416 36.8782364,19.059613 40.8819247,15.4566779 C42.1697169,14.298626 43.6891195,14.3687818 44.6261325,15.9717948 C46.2156909,18.690574 47.7408597,21.5323662 48.709587,24.5125481 C51.2746,32.3930675 50.4769377,39.7478987 44.4041325,45.9811974 C44.1619506,46.2291455 43.9505221,46.835561 44.0841065,47.0758208 C45.4362883,49.5101325 46.8624701,51.9021584 48.3597688,54.4623662 C51.1919506,49.2189377 55.4608857,45.7899506 60.573613,43.3133532 C63.2914312,41.9967299 64.889639,42.6377429 65.4018727,45.5987039 C66.9529896,54.5748078 66.3994312,63.1011455 59.1906779,69.8322623 C57.8634831,71.0710416 56.2210675,71.9676909 54.7593273,73.0680805 C54.3681844,73.3631195 53.814626,73.8388338 53.8290416,74.213639 C53.9203403,76.6248857 54.1490675,79.0322883 54.332626,81.441613 C56.3786779,80.4882623 58.2354052,79.3013792 60.2651195,78.7507039 C63.3135351,77.9251714 66.4647818,77.3773792 69.6073792,77.025639 C72.4414831,76.7104182 73.6350935,78.2519247 73.2429896,81.1014052 C72.6894312,85.1262364 71.2113532,88.8070156 69.0576649,92.2148597 C65.5546779,97.7590935 60.3295091,100.64221 53.9568597,101.353379 C51.5975091,101.616704 50.0829117,102.241379 49.5360805,104.724704 C49.2439247,106.051899 48.5010416,107.281068 47.869639,108.770678 C49.2256649,108.61499 50.3337429,108.423743 51.4495091,108.370886 C55.7924442,108.160418 59.9104961,109.150288 63.878626,110.83499 C66.5858727,111.984392 67.2028597,113.431717 65.828574,116.069769 C63.3183403,120.892262 59.3992234,124.152106 54.1807818,125.70899 C48.8498987,127.298548 43.4853792,126.737301 38.1785221,125.532158 C36.7494571,125.207327 35.7749636,125.4226 34.7879766,126.498964 C33.7144961,127.67047 32.4564961,128.672834 31.121613,129.892392" id="Fill-49" fill="#676767" mask="url(#mask-2)"></path>
                </g>
                <path d="M12.8814695,49.5842783 C11.630303,56.9413409 15.2782595,65.5617083 20.2723714,67.227149 C22.8102054,60.3512994 20.001797,53.2198958 12.8814695,49.5842783 M13.5089718,115.222122 C17.2442413,121.228124 26.0398271,122.237803 32.0864925,120.283056 C28.7292595,114.164225 20.5669329,111.91535 13.5089718,115.222122 M34.5811498,140.535471 C40.1077751,143.947358 49.7218003,142.431392 53.6364933,137.615404 C47.4171208,133.442641 40.0300569,134.489931 34.5811498,140.535471 M54.643951,24.2796088 C61.3401868,21.3904019 66.5098842,14.4779068 64.0200244,7.11987981 C57.7699485,9.76703369 53.3659189,17.7451408 54.643951,24.2796088 M31.2901211,22.0808799 C27.7141259,29.1119906 27.5807577,37.2347509 32.7255085,41.4084784 C37.4039504,35.0591665 36.8580042,27.6760663 31.2901211,22.0808799 M20.5947579,95.7566208 C19.8933754,87.7100445 13.9109954,82.9702408 6.28981748,82.7011858 C7.65900052,90.2732995 13.4427674,95.6553636 20.5947579,95.7566208 M42.1351638,129.905388 C40.401377,128.293951 38.9611922,126.835847 37.3722874,125.563863 C36.9616285,125.235018 36.0616329,125.369063 35.4293332,125.498287 C31.1893754,126.364277 26.9561339,126.971821 22.599119,126.418281 C16.0986179,125.591829 11.2522665,122.305308 7.86241103,116.755446 C7.44887362,116.078469 7.18981306,115.280948 6.98352409,114.505606 C6.57766255,112.979997 7.13320353,111.8247 8.564753,111.18244 C13.410145,109.010713 18.4090543,107.694369 23.7783243,108.546858 C24.2407954,108.619185 24.7176587,108.598933 25.3422825,108.630757 C24.4442059,106.385739 23.6497535,104.269945 22.7238519,102.212976 C22.5722535,101.875452 21.8660736,101.724048 21.3872913,101.60929 C18.7285624,100.970887 15.9604523,100.644935 13.4178209,99.7027606 C6.92883353,97.2976598 3.44974614,92.0428906 1.26404259,85.7794063 C0.698906768,84.1592902 0.377479775,82.4379169 0.0877157395,80.7387238 C-0.348849281,78.1908985 0.855302588,76.7511168 3.4516651,76.8282652 C8.58298319,76.9796689 13.5022554,77.9932058 17.8880548,80.8785553 C18.1499938,81.0511748 18.4244061,81.2054715 18.9981772,81.5536036 C19.1123558,79.459025 19.0087316,77.5631035 19.3704569,75.7616888 C19.7571287,73.8349079 18.9194996,73.0595667 17.4294216,72.1472871 C11.0565318,68.2484007 7.78085493,62.3455851 7.38458822,54.9595918 C7.20996221,51.6942865 7.53234869,48.3634051 7.99481977,45.1154582 C8.3718968,42.4644469 10.1124,41.7537174 12.5015141,42.905157 C17.668333,45.3970498 22.0119151,48.8340102 24.9124339,54.1852149 C25.2213876,53.7483622 25.4746913,53.4494122 25.664669,53.1138168 C26.5953681,51.4657344 27.4051722,49.7376107 28.4625231,48.1772846 C29.3212609,46.9101224 29.3558023,46.0913852 28.2293686,44.8888348 C24.7080639,41.1317086 23.011697,36.5683818 23.2515679,31.4052263 C23.4309913,27.5439497 24.3319464,23.796467 25.9448382,20.270786 C26.6596535,18.7056382 27.4713766,17.1510982 28.4749964,15.7643561 C29.8029216,13.9311176 31.2018487,13.8780781 32.8300923,15.4567269 C37.6495782,20.1309545 41.2831424,25.4291197 41.3666175,32.6849251 C41.7772765,32.489161 42.0632026,32.4014048 42.2953976,32.2355357 C44.4072209,30.7349997 46.5372744,29.2566438 48.5934477,27.6818525 C49.0069851,27.3665084 49.4387527,26.6046682 49.3447233,26.1591363 C47.5735167,17.7856437 50.6448235,11.1904213 56.7058812,5.69745651 C59.2724997,3.37046842 61.9628916,1.208385 65.3585039,0.154345226 C66.8552983,-0.309509424 67.8387689,0.298998443 68.3194702,1.61920014 C69.9774578,6.17866954 70.7392878,10.8847209 69.4286332,15.6399543 C67.6535886,22.0770225 63.1814357,26.419512 57.4379671,29.2007112 C40.7343178,37.2877904 30.3133669,50.4271243 26.0254348,68.3863034 C18.6613985,99.2215476 38.8546895,130.821525 69.7999533,137.247985 C70.2739382,137.346349 70.7575179,137.434106 71.2084752,137.601903 C72.6496195,138.138085 73.3087847,139.53447 72.8616654,141.034042 C72.4989806,142.251058 71.1182838,143.157551 69.8028318,142.832564 C66.9838691,142.1363 64.1735417,141.38796 61.4015937,140.525827 C60.364392,140.202768 59.6495768,140.26738 58.7774062,140.959787 C54.759089,144.146979 50.3790466,146.688054 45.2803509,147.635051 C39.3363503,148.738273 33.9334984,147.325493 29.1735004,143.597297 C27.1355573,142.002254 27.069353,140.237485 28.7993018,138.326134 C32.3925678,134.359743 36.6536342,131.430997 42.1351638,129.905388" id="Fill-52" fill="#676767"></path>
                <path d="M108.41467,82.0342219 C108.440772,68.0113167 97.0320687,56.4360106 83.1503997,56.4040854 C68.9390665,56.3721602 57.4037177,67.8071888 57.3563466,81.9742412 C57.3089754,95.8384879 68.8945957,107.508602 82.7482286,107.553104 C96.8648196,107.599541 108.387601,96.1422611 108.41467,82.0342219 Z M113,83.5027815 C112.730275,85.0777583 112.523389,86.6662792 112.181157,88.2257772 C109.389161,100.948456 98.9365807,110.388643 86.0893421,111.82044 C69.9183917,113.62373 54.9926248,101.632429 53.1896223,85.389271 C51.3972542,69.2351163 62.498529,54.7700953 78.563136,52.3321704 C94.5600701,49.9048872 109.885108,61.0496867 112.422846,76.9552118 C112.60943,78.1267701 112.806649,79.2963936 113,80.4669845 L113,83.5027815 Z" id="Fill-54" fill="#676767"></path>
                <path d="M79.1273459,89.3905044 C79.4983059,88.8866915 79.7990586,88.4961167 80.0808363,88.0921068 C83.8672841,82.6576459 87.6508857,77.2203061 91.435436,71.7839259 C91.6688276,71.44997 91.8803981,71.0958616 92.1469959,70.787816 C92.891762,69.9279755 94.2086224,69.7485222 95.0738793,70.3655729 C96.007446,71.0315654 96.295865,72.2282408 95.6583072,73.269454 C94.9723634,74.3903175 94.1868012,75.4507236 93.4353939,76.5303224 C89.4980954,82.1922188 85.5607968,87.8541152 81.6187546,93.512173 C80.3464854,95.3374148 79.0969861,95.4813614 77.502143,93.9545686 C74.9822719,91.5429846 72.4804271,89.114127 69.9823772,86.6795116 C68.841035,85.5663252 68.691133,84.2765644 69.5488,83.3188402 C70.443468,82.320811 71.7906883,82.390865 72.9851603,83.5299618 C74.6568518,85.1239296 76.3095685,86.7370902 77.97367,88.3387351 C78.3247063,88.6765296 78.69282,88.9951313 79.1273459,89.3905044" id="Fill-56" fill="#676767"></path>
            </g>
        </g>
    </g>
</svg>