<?xml version="1.0" encoding="UTF-8"?>
<svg width="75px" height="88px" viewBox="0 0 75 88" version="1.1" xmlns="http://www.w3.org/2000/svg" xmlns:xlink="http://www.w3.org/1999/xlink">
    <!-- Generator: Sketch 52.6 (67491) - http://www.bohemiancoding.com/sketch -->
    <title>Group 37</title>
    <desc>Created with Sketch.</desc>
    <g id="Welcome" stroke="none" stroke-width="1" fill="none" fill-rule="evenodd">
        <g id="Pitch-Training" transform="translate(-725.000000, -2440.000000)">
            <g id="Group-37" transform="translate(726.000000, 2441.000000)">
                <path d="M24.3689208,20.1720193 C24.4022853,20.2115242 24.4350937,20.2515856 24.4679021,20.2910906 C25.4899672,19.5265859 26.5387239,18.7965784 27.5257563,17.9897867 C28.5973121,17.1128875 29.7928725,16.7729222 31.1624842,16.7790427 C36.5425059,16.8051939 41.9225277,16.7918401 47.3031055,16.7885016 C48.7344415,16.7873888 49.1798573,16.3539469 49.1826376,14.9417831 C49.1898666,11.5259938 49.1887545,8.11020447 49.1831937,4.69441514 C49.1804133,3.23440029 48.7322172,2.7959507 47.2630681,2.7959507 C39.6709816,2.79483789 32.0783391,2.79428148 24.4862526,2.7959507 C23.0426829,2.7959507 22.5872578,3.25387457 22.5850335,4.71722788 C22.581141,8.10575321 22.581141,11.4942785 22.5850335,14.8828039 C22.5867017,16.2192961 22.8447204,16.5281026 24.1609489,16.8191041 C25.256972,17.0611416 25.6934905,18.036525 25.1274066,19.0096828 C24.8955235,19.4091838 24.6230469,19.7853156 24.3689208,20.1720193 Z M48.6004275,0 C48.9479742,0.145778922 49.3088666,0.26651948 49.6408431,0.441231624 C51.2178707,1.27306173 51.9769125,2.61456166 51.9841415,4.37448049 C51.9985994,7.98389983 52.0125013,11.5933192 51.980805,15.2016257 C51.9574499,17.8751666 50.2163803,19.5805575 47.5177503,19.5900164 C42.0798968,19.6089343 36.6414872,19.604483 31.2041898,19.5861215 C30.4295779,19.5833395 29.7945407,19.7786387 29.1678446,20.2565933 C26.0616119,22.6252226 22.9253512,24.9543469 19.7996559,27.2979378 C19.6472914,27.4125579 19.4943709,27.5277344 19.3403382,27.6412416 C18.7130861,28.1008347 18.0752685,28.1420089 17.4663668,27.629557 C16.9058436,27.1588358 16.8430072,26.4288284 17.3190071,25.704385 C18.6402403,23.6957518 19.9826044,21.7015851 21.3144031,19.6996288 C21.462875,19.4765091 21.597445,19.2428177 21.768716,18.9640573 C20.0910389,17.8534667 19.7384876,16.2215218 19.7690717,14.3725776 C19.8185624,11.3384843 19.7824175,8.30272167 19.7824175,5.2680719 C19.7829736,2.16776596 20.419679,1.1812544 23.185038,0 L48.6004275,0 Z" id="Fill-1" fill="#676767"></path>
                <path d="M24.3689208,20.1720193 C24.4022853,20.2115242 24.4350937,20.2515856 24.4679021,20.2910906 C25.4899672,19.5265859 26.5387239,18.7965784 27.5257563,17.9897867 C28.5973121,17.1128875 29.7928725,16.7729222 31.1624842,16.7790427 C36.5425059,16.8051939 41.9225277,16.7918401 47.3031055,16.7885016 C48.7344415,16.7873888 49.1798573,16.3539469 49.1826376,14.9417831 C49.1898666,11.5259938 49.1887545,8.11020447 49.1831937,4.69441514 C49.1804133,3.23440029 48.7322172,2.7959507 47.2630681,2.7959507 C39.6709816,2.79483789 32.0783391,2.79428148 24.4862526,2.7959507 C23.0426829,2.7959507 22.5872578,3.25387457 22.5850335,4.71722788 C22.581141,8.10575321 22.581141,11.4942785 22.5850335,14.8828039 C22.5867017,16.2192961 22.8447204,16.5281026 24.1609489,16.8191041 C25.256972,17.0611416 25.6934905,18.036525 25.1274066,19.0096828 C24.8955235,19.4091838 24.6230469,19.7853156 24.3689208,20.1720193 Z M48.6004275,0 C48.9479742,0.145778922 49.3088666,0.26651948 49.6408431,0.441231624 C51.2178707,1.27306173 51.9769125,2.61456166 51.9841415,4.37448049 C51.9985994,7.98389983 52.0125013,11.5933192 51.980805,15.2016257 C51.9574499,17.8751666 50.2163803,19.5805575 47.5177503,19.5900164 C42.0798968,19.6089343 36.6414872,19.604483 31.2041898,19.5861215 C30.4295779,19.5833395 29.7945407,19.7786387 29.1678446,20.2565933 C26.0616119,22.6252226 22.9253512,24.9543469 19.7996559,27.2979378 C19.6472914,27.4125579 19.4943709,27.5277344 19.3403382,27.6412416 C18.7130861,28.1008347 18.0752685,28.1420089 17.4663668,27.629557 C16.9058436,27.1588358 16.8430072,26.4288284 17.3190071,25.704385 C18.6402403,23.6957518 19.9826044,21.7015851 21.3144031,19.6996288 C21.462875,19.4765091 21.597445,19.2428177 21.768716,18.9640573 C20.0910389,17.8534667 19.7384876,16.2215218 19.7690717,14.3725776 C19.8185624,11.3384843 19.7824175,8.30272167 19.7824175,5.2680719 C19.7829736,2.16776596 20.419679,1.1812544 23.185038,0 L48.6004275,0 Z" id="Stroke-3" stroke="#676767"></path>
                <path d="M70.1527422,57.4291791 C70.1527422,56.5427387 70.1583857,55.6557345 70.1510491,54.7692941 C70.1352472,52.6930388 70.1967618,50.6105806 70.068089,48.5405281 C69.9484459,46.6261102 68.3231055,45.1002148 66.4398551,44.8921381 C63.728697,44.5921468 61.6355069,46.500362 61.6185762,49.3361816 C61.5971308,52.9653993 61.6253485,56.5946169 61.6078535,60.2232706 C61.5954377,62.938981 59.8307018,64.6898699 57.1257515,64.7011478 C55.0737592,64.7096062 53.0223313,64.7022756 50.9709034,64.7028395 C49.2287416,64.7028395 48.8528816,65.0682423 48.8523173,66.777967 C48.8506242,71.5428658 48.8511885,76.3077647 48.8528816,81.0726635 C48.8528816,81.3495352 48.8483668,81.6286624 48.8856142,81.9015868 C48.9855049,82.6244981 49.5323642,83.1224159 50.2220052,83.1455355 C50.906567,83.1686551 51.4929311,82.7062626 51.6351484,81.9884263 C51.6938412,81.6929462 51.6949699,81.3828049 51.6949699,81.0794303 C51.6994848,78.1156068 51.6910195,75.1517833 51.7000491,72.187396 C51.7079501,69.2568422 53.4286664,67.5397869 56.350893,67.5364036 C60.3154821,67.5324563 64.2806355,67.5369675 68.2452246,67.5347119 C69.6837637,67.534148 70.1459699,67.084725 70.1499204,65.656947 C70.1578214,62.9147336 70.1521778,60.1713925 70.1527422,57.4291791 Z M72.998781,57.5098158 C72.998781,60.1967677 73.0021671,62.8842834 72.9976523,65.5712352 C72.9925731,68.6636264 71.2995102,70.3665843 68.2311157,70.368276 C64.2936157,70.3705316 60.35668,70.3671482 56.4191799,70.3699677 C54.997007,70.3710955 54.5438305,70.8289769 54.5421375,72.2685966 C54.5376226,75.3711378 54.573177,78.4748069 54.530286,81.5767842 C54.484009,84.9877751 51.1170711,87.0448581 48.2208048,85.4518593 C46.980354,84.7701123 46.2337132,83.7060455 46.0655356,82.2833426 C46.0074072,81.7899359 46.004021,81.2891986 46.0034567,80.7912808 C45.9995062,76.1087103 45.9989418,71.4267038 46.0017636,66.7452612 C46.004021,63.5288135 47.6570148,61.8715309 50.8535177,61.8704031 C52.9049456,61.8692753 54.9569379,61.8754782 57.0083658,61.8681476 C58.278163,61.8636364 58.7674582,61.3781242 58.77028,60.1076725 C58.7770522,56.5055218 58.7556068,52.9044988 58.778181,49.3029119 C58.8001908,45.7639172 60.9509451,43.0064787 64.2699128,42.1984196 C68.3682538,41.2003283 72.595832,44.0812595 72.882524,48.2901595 C73.0902064,51.3498448 72.9225932,54.4349054 72.9225932,57.5098158 L72.998781,57.5098158 Z" id="Fill-5" fill="#676767"></path>
                <path d="M70.1527422,57.4291791 C70.1527422,56.5427387 70.1583857,55.6557345 70.1510491,54.7692941 C70.1352472,52.6930388 70.1967618,50.6105806 70.068089,48.5405281 C69.9484459,46.6261102 68.3231055,45.1002148 66.4398551,44.8921381 C63.728697,44.5921468 61.6355069,46.500362 61.6185762,49.3361816 C61.5971308,52.9653993 61.6253485,56.5946169 61.6078535,60.2232706 C61.5954377,62.938981 59.8307018,64.6898699 57.1257515,64.7011478 C55.0737592,64.7096062 53.0223313,64.7022756 50.9709034,64.7028395 C49.2287416,64.7028395 48.8528816,65.0682423 48.8523173,66.777967 C48.8506242,71.5428658 48.8511885,76.3077647 48.8528816,81.0726635 C48.8528816,81.3495352 48.8483668,81.6286624 48.8856142,81.9015868 C48.9855049,82.6244981 49.5323642,83.1224159 50.2220052,83.1455355 C50.906567,83.1686551 51.4929311,82.7062626 51.6351484,81.9884263 C51.6938412,81.6929462 51.6949699,81.3828049 51.6949699,81.0794303 C51.6994848,78.1156068 51.6910195,75.1517833 51.7000491,72.187396 C51.7079501,69.2568422 53.4286664,67.5397869 56.350893,67.5364036 C60.3154821,67.5324563 64.2806355,67.5369675 68.2452246,67.5347119 C69.6837637,67.534148 70.1459699,67.084725 70.1499204,65.656947 C70.1578214,62.9147336 70.1521778,60.1713925 70.1527422,57.4291791 Z M72.998781,57.5098158 C72.998781,60.1967677 73.0021671,62.8842834 72.9976523,65.5712352 C72.9925731,68.6636264 71.2995102,70.3665843 68.2311157,70.368276 C64.2936157,70.3705316 60.35668,70.3671482 56.4191799,70.3699677 C54.997007,70.3710955 54.5438305,70.8289769 54.5421375,72.2685966 C54.5376226,75.3711378 54.573177,78.4748069 54.530286,81.5767842 C54.484009,84.9877751 51.1170711,87.0448581 48.2208048,85.4518593 C46.980354,84.7701123 46.2337132,83.7060455 46.0655356,82.2833426 C46.0074072,81.7899359 46.004021,81.2891986 46.0034567,80.7912808 C45.9995062,76.1087103 45.9989418,71.4267038 46.0017636,66.7452612 C46.004021,63.5288135 47.6570148,61.8715309 50.8535177,61.8704031 C52.9049456,61.8692753 54.9569379,61.8754782 57.0083658,61.8681476 C58.278163,61.8636364 58.7674582,61.3781242 58.77028,60.1076725 C58.7770522,56.5055218 58.7556068,52.9044988 58.778181,49.3029119 C58.8001908,45.7639172 60.9509451,43.0064787 64.2699128,42.1984196 C68.3682538,41.2003283 72.595832,44.0812595 72.882524,48.2901595 C73.0902064,51.3498448 72.9225932,54.4349054 72.9225932,57.5098158 L72.998781,57.5098158 Z" id="Stroke-7" stroke="#676767"></path>
                <path d="M2.85551796,57.4846619 C2.85551796,60.2262038 2.84931659,62.9688732 2.85777301,65.7104151 C2.8622831,67.0927431 3.3313324,67.5538949 4.70747345,67.5544586 C8.66845951,67.5578412 12.6288818,67.5538949 16.5893041,67.5567137 C19.5699095,67.5589687 21.2809247,69.2598183 21.2882536,72.2387012 C21.29671,75.3128587 21.2831797,78.3870163 21.2955825,81.4611738 C21.3006563,82.5170874 21.8582161,83.1569497 22.7128781,83.1625872 C23.56754,83.1682248 24.1256636,82.5356913 24.1279187,81.4735764 C24.1380664,76.4601007 24.1386301,71.4477526 24.1279187,66.4342769 C24.1256636,65.215438 23.6165873,64.7306085 22.3994269,64.7260984 C20.3219669,64.7187696 18.2450707,64.7249709 16.1676108,64.7238434 C13.0624142,64.7221521 11.3902985,63.0596378 11.3863522,59.9629301 C11.3824058,56.4456609 11.3942448,52.9283918 11.3818421,49.4111226 C11.3739494,47.3370669 10.3270449,45.7619347 8.57600268,45.1237637 C5.75155916,44.0943466 2.91865921,46.1187918 2.86622942,49.2589087 C2.82056477,51.9998868 2.85664548,54.7425562 2.85551796,57.4846619 M0.0124703186,57.4778968 C0.0124703186,54.7639789 -0.0196640688,52.0489335 0.0192354528,49.3350156 C0.0975982571,43.8305091 5.49279277,40.368488 10.2588298,42.7791055 C12.9344404,44.1332457 14.1950104,46.4187096 14.2164333,49.3829348 C14.2418026,52.900204 14.2209434,56.4180369 14.2237622,59.9358698 C14.2248897,61.4709755 14.6516569,61.8904094 16.2053828,61.8915369 C18.3099033,61.8932282 20.4149875,61.8847718 22.5200718,61.8937919 C25.1037893,61.9056308 26.929248,63.5811115 26.9579998,66.1563456 C27.0155034,71.3344378 27.0109933,76.514785 26.9625099,81.693441 C26.9382682,84.2235746 25.0400842,86.0377391 22.6418442,85.9994038 C20.2982889,85.9621959 18.4863605,84.1023673 18.4598637,81.621844 C18.4266018,78.4930023 18.4547899,75.3624692 18.4485885,72.2330637 C18.4457697,70.8541183 17.980103,70.3918389 16.6011431,70.3907114 C12.6125327,70.3867651 8.62392238,70.3924027 4.63531201,70.3878927 C1.77817034,70.3839464 0.0282556317,68.6475801 0.0147253633,65.7870858 C0.0017588561,63.0173562 0.0119065574,60.2476265 0.0124703186,57.4778968" id="Fill-9" fill="#676767"></path>
                <path d="M2.85551796,57.4846619 C2.85551796,60.2262038 2.84931659,62.9688732 2.85777301,65.7104151 C2.8622831,67.0927431 3.3313324,67.5538949 4.70747345,67.5544586 C8.66845951,67.5578412 12.6288818,67.5538949 16.5893041,67.5567137 C19.5699095,67.5589687 21.2809247,69.2598183 21.2882536,72.2387012 C21.29671,75.3128587 21.2831797,78.3870163 21.2955825,81.4611738 C21.3006563,82.5170874 21.8582161,83.1569497 22.7128781,83.1625872 C23.56754,83.1682248 24.1256636,82.5356913 24.1279187,81.4735764 C24.1380664,76.4601007 24.1386301,71.4477526 24.1279187,66.4342769 C24.1256636,65.215438 23.6165873,64.7306085 22.3994269,64.7260984 C20.3219669,64.7187696 18.2450707,64.7249709 16.1676108,64.7238434 C13.0624142,64.7221521 11.3902985,63.0596378 11.3863522,59.9629301 C11.3824058,56.4456609 11.3942448,52.9283918 11.3818421,49.4111226 C11.3739494,47.3370669 10.3270449,45.7619347 8.57600268,45.1237637 C5.75155916,44.0943466 2.91865921,46.1187918 2.86622942,49.2589087 C2.82056477,51.9998868 2.85664548,54.7425562 2.85551796,57.4846619 Z M0.0124703186,57.4778968 C0.0124703186,54.7639789 -0.0196640688,52.0489335 0.0192354528,49.3350156 C0.0975982571,43.8305091 5.49279277,40.368488 10.2588298,42.7791055 C12.9344404,44.1332457 14.1950104,46.4187096 14.2164333,49.3829348 C14.2418026,52.900204 14.2209434,56.4180369 14.2237622,59.9358698 C14.2248897,61.4709755 14.6516569,61.8904094 16.2053828,61.8915369 C18.3099033,61.8932282 20.4149875,61.8847718 22.5200718,61.8937919 C25.1037893,61.9056308 26.929248,63.5811115 26.9579998,66.1563456 C27.0155034,71.3344378 27.0109933,76.514785 26.9625099,81.693441 C26.9382682,84.2235746 25.0400842,86.0377391 22.6418442,85.9994038 C20.2982889,85.9621959 18.4863605,84.1023673 18.4598637,81.621844 C18.4266018,78.4930023 18.4547899,75.3624692 18.4485885,72.2330637 C18.4457697,70.8541183 17.980103,70.3918389 16.6011431,70.3907114 C12.6125327,70.3867651 8.62392238,70.3924027 4.63531201,70.3878927 C1.77817034,70.3839464 0.0282556317,68.6475801 0.0147253633,65.7870858 C0.0017588561,63.0173562 0.0119065574,60.2476265 0.0124703186,57.4778968 Z" id="Stroke-11" stroke="#676767"></path>
                <path d="M50.5454672,39.0063657 C48.4318322,38.3943818 47.3191586,37.1067722 47.1946637,34.9571574 C47.1496454,34.1860691 46.6516657,33.8599049 45.9102539,33.8604732 C39.3286956,33.865019 32.7482489,33.8599049 26.1666907,33.8667237 C25.2429827,33.8672919 24.8417088,34.2423238 24.8372626,35.1730849 C24.8205891,39.054097 24.8205891,42.9351091 24.8372626,46.815553 C24.8417088,47.7502916 25.2440942,48.1332788 26.1572424,48.1344152 C32.7388006,48.141234 39.3203589,48.141234 45.9013614,48.133847 C46.7961688,48.1332788 47.191329,47.716766 47.2046678,46.7990743 C47.2202296,45.7938751 47.2118929,44.7892442 47.2080025,43.784045 C47.2030004,42.4060868 47.7404406,41.3008791 48.7897551,40.4462609 C49.3416456,39.9967908 49.8902014,39.5433432 50.5454672,39.0063657 M36.0079043,31.0051165 C39.228655,31.0045483 42.4499616,31.0017071 45.6707123,31.0056848 C48.2795482,31.0090941 49.693455,32.309773 50.0019134,34.9781819 C50.0991751,35.8180261 50.5593617,36.2203331 51.4074835,36.0811167 C52.6713294,35.8725762 53.9273944,35.6083492 55.181792,35.3424175 C55.9193134,35.1861542 56.4973256,35.4003769 56.8330173,36.0816849 C57.1926076,36.8135654 56.9447293,37.4340728 56.3450416,37.9267283 C54.4937352,39.4456076 52.654656,40.982102 50.779451,42.4702968 C50.200883,42.9294268 49.9580067,43.4453798 49.9896862,44.1829426 C50.0313698,45.1580255 50.0191426,46.1370861 49.9924651,47.1133056 C49.9341081,49.2384865 48.3023352,50.9693156 46.2303837,50.977839 C39.434294,51.0079552 32.6370927,51.0062505 25.841003,50.9795437 C23.7607148,50.9715885 22.1011529,49.3453137 22.0594693,47.14399 C21.9816599,43.0436411 21.9777695,38.9393145 22.0622482,34.8389655 C22.1094896,32.5620672 23.7901712,31.026141 26.0171856,31.0113671 C29.3474252,30.9897743 32.6776647,31.0056848 36.0079043,31.0051165" id="Fill-13" fill="#676767"></path>
                <path d="M50.5454672,39.0063657 C48.4318322,38.3943818 47.3191586,37.1067722 47.1946637,34.9571574 C47.1496454,34.1860691 46.6516657,33.8599049 45.9102539,33.8604732 C39.3286956,33.865019 32.7482489,33.8599049 26.1666907,33.8667237 C25.2429827,33.8672919 24.8417088,34.2423238 24.8372626,35.1730849 C24.8205891,39.054097 24.8205891,42.9351091 24.8372626,46.815553 C24.8417088,47.7502916 25.2440942,48.1332788 26.1572424,48.1344152 C32.7388006,48.141234 39.3203589,48.141234 45.9013614,48.133847 C46.7961688,48.1332788 47.191329,47.716766 47.2046678,46.7990743 C47.2202296,45.7938751 47.2118929,44.7892442 47.2080025,43.784045 C47.2030004,42.4060868 47.7404406,41.3008791 48.7897551,40.4462609 C49.3416456,39.9967908 49.8902014,39.5433432 50.5454672,39.0063657 Z M36.0079043,31.0051165 C39.228655,31.0045483 42.4499616,31.0017071 45.6707123,31.0056848 C48.2795482,31.0090941 49.693455,32.309773 50.0019134,34.9781819 C50.0991751,35.8180261 50.5593617,36.2203331 51.4074835,36.0811167 C52.6713294,35.8725762 53.9273944,35.6083492 55.181792,35.3424175 C55.9193134,35.1861542 56.4973256,35.4003769 56.8330173,36.0816849 C57.1926076,36.8135654 56.9447293,37.4340728 56.3450416,37.9267283 C54.4937352,39.4456076 52.654656,40.982102 50.779451,42.4702968 C50.200883,42.9294268 49.9580067,43.4453798 49.9896862,44.1829426 C50.0313698,45.1580255 50.0191426,46.1370861 49.9924651,47.1133056 C49.9341081,49.2384865 48.3023352,50.9693156 46.2303837,50.977839 C39.434294,51.0079552 32.6370927,51.0062505 25.841003,50.9795437 C23.7607148,50.9715885 22.1011529,49.3453137 22.0594693,47.14399 C21.9816599,43.0436411 21.9777695,38.9393145 22.0622482,34.8389655 C22.1094896,32.5620672 23.7901712,31.026141 26.0171856,31.0113671 C29.3474252,30.9897743 32.6776647,31.0056848 36.0079043,31.0051165 Z" id="Stroke-15" stroke="#676767"></path>
                <path d="M35.0728753,56.9101793 L34.0718084,56.9101793 C30.4088902,56.9101793 26.745972,56.9107572 23.0824932,56.9090236 C22.779819,56.9090236 22.4732213,56.9240484 22.1755917,56.8772403 C21.4940142,56.7703329 21.0876461,56.3363468 21.0119775,55.6376927 C20.9318249,54.899743 21.2552379,54.3548043 21.9435414,54.1253869 C22.274241,54.0150123 22.6469787,54.006922 23.0006591,54.006922 C32.0063373,54.0005653 41.0125761,54.0017211 50.0182543,54.002299 C50.1836041,54.002299 50.3495144,53.9947865 50.5137432,54.006922 C51.4273708,54.0728 52.0164645,54.6657025 51.9996493,55.4972684 C51.9833945,56.3242114 51.3858933,56.8997775 50.4543293,56.9032448 C46.6260613,56.916536 42.7977933,56.9096014 38.9700858,56.9101793 L37.8916688,56.9101793 L37.8916688,57.9942778 C37.8916688,66.6260363 37.8922294,75.2577949 37.8916688,83.8901313 C37.8916688,85.3111324 37.4611989,85.9751138 36.5279535,85.9993847 C35.5739692,86.0242334 35.0734358,85.2961076 35.0734358,83.8751064 C35.0728753,75.2716639 35.0728753,66.6682214 35.0728753,58.0647789 L35.0728753,56.9101793 Z" id="Fill-17" fill="#676767"></path>
                <path d="M35.0728753,56.9101793 L34.0718084,56.9101793 C30.4088902,56.9101793 26.745972,56.9107572 23.0824932,56.9090236 C22.779819,56.9090236 22.4732213,56.9240484 22.1755917,56.8772403 C21.4940142,56.7703329 21.0876461,56.3363468 21.0119775,55.6376927 C20.9318249,54.899743 21.2552379,54.3548043 21.9435414,54.1253869 C22.274241,54.0150123 22.6469787,54.006922 23.0006591,54.006922 C32.0063373,54.0005653 41.0125761,54.0017211 50.0182543,54.002299 C50.1836041,54.002299 50.3495144,53.9947865 50.5137432,54.006922 C51.4273708,54.0728 52.0164645,54.6657025 51.9996493,55.4972684 C51.9833945,56.3242114 51.3858933,56.8997775 50.4543293,56.9032448 C46.6260613,56.916536 42.7977933,56.9096014 38.9700858,56.9101793 L37.8916688,56.9101793 L37.8916688,57.9942778 C37.8916688,66.6260363 37.8922294,75.2577949 37.8916688,83.8901313 C37.8916688,85.3111324 37.4611989,85.9751138 36.5279535,85.9993847 C35.5739692,86.0242334 35.0734358,85.2961076 35.0734358,83.8751064 C35.0728753,75.2716639 35.0728753,66.6682214 35.0728753,58.0647789 L35.0728753,56.9101793 Z" id="Stroke-19" stroke="#676767"></path>
                <path d="M6.98490317,28.8041582 C4.67208169,28.8080578 2.82571628,30.6464378 2.80625744,32.9627967 C2.78735457,35.2886261 4.69432036,37.2100118 7.01047764,37.1999843 C9.28994112,37.1905138 11.1763361,35.308124 11.2007987,33.0185052 C11.2258172,30.7004751 9.32441105,28.7997015 6.98490317,28.8041582 M7.09887634,26.0009071 C10.9600651,26.0610723 14.0645831,29.2409127 13.9989791,33.0691999 C13.932819,36.962109 10.7287829,40.0706426 6.85814276,39.9987786 C3.06978566,39.9280289 -0.0347324032,36.7370467 0.000293498985,32.9505409 C0.037543268,29.0464901 3.21044523,25.9390707 7.09887634,26.0009071" id="Fill-21" fill="#676767"></path>
                <path d="M6.98490317,28.8041582 C4.67208169,28.8080578 2.82571628,30.6464378 2.80625744,32.9627967 C2.78735457,35.2886261 4.69432036,37.2100118 7.01047764,37.1999843 C9.28994112,37.1905138 11.1763361,35.308124 11.2007987,33.0185052 C11.2258172,30.7004751 9.32441105,28.7997015 6.98490317,28.8041582 Z M7.09887634,26.0009071 C10.9600651,26.0610723 14.0645831,29.2409127 13.9989791,33.0691999 C13.932819,36.962109 10.7287829,40.0706426 6.85814276,39.9987786 C3.06978566,39.9280289 -0.0347324032,36.7370467 0.000293498985,32.9505409 C0.037543268,29.0464901 3.21044523,25.9390707 7.09887634,26.0009071 Z" id="Stroke-23" stroke="#676767"></path>
                <path d="M66.0152082,28.8046597 C63.6771777,28.7996465 61.7739486,30.7024616 61.7984131,33.0180362 C61.8228776,35.3091014 63.7077584,37.1901924 65.9885196,37.1996619 C68.3048657,37.2096884 70.2130989,35.2868202 70.1941945,32.9634472 C70.1741781,30.6462016 68.3282182,28.809116 66.0152082,28.8046597 M65.9935237,26.0000127 C69.8533591,25.9927713 72.9725865,29.0915303 72.9998311,32.960105 C73.0265197,36.7908017 69.8861639,39.9742293 66.0552411,39.9998527 C62.1904016,40.0249191 58.9955565,36.8470618 59.0000046,32.9812722 C59.0044527,29.1399919 62.1420285,26.0078111 65.9935237,26.0000127" id="Fill-25" fill="#676767"></path>
                <path d="M66.0152082,28.8046597 C63.6771777,28.7996465 61.7739486,30.7024616 61.7984131,33.0180362 C61.8228776,35.3091014 63.7077584,37.1901924 65.9885196,37.1996619 C68.3048657,37.2096884 70.2130989,35.2868202 70.1941945,32.9634472 C70.1741781,30.6462016 68.3282182,28.809116 66.0152082,28.8046597 Z M65.9935237,26.0000127 C69.8533591,25.9927713 72.9725865,29.0915303 72.9998311,32.960105 C73.0265197,36.7908017 69.8861639,39.9742293 66.0552411,39.9998527 C62.1904016,40.0249191 58.9955565,36.8470618 59.0000046,32.9812722 C59.0044527,29.1399919 62.1420285,26.0078111 65.9935237,26.0000127 Z" id="Stroke-27" stroke="#676767"></path>
                <path d="M34.4990267,11.9964788 C31.6527497,11.9964788 28.8075881,11.9970743 25.9613111,11.9952878 C25.6886173,11.9952878 25.4092316,12.0131532 25.1432296,11.9631302 C24.5102899,11.8434323 24.1165846,11.4295515 24.0212254,10.7464994 C23.921405,10.0306941 24.1723502,9.46019376 24.801944,9.17970767 C25.1175774,9.03916687 25.4934376,9.00879576 25.8419727,9.00820025 C31.6148291,8.99867206 37.3888008,9.00164962 43.1616572,9.00164962 C43.298283,9.00164962 43.436024,8.9956945 43.5720921,9.00641371 C44.4732645,9.0808527 45.0320359,9.697803 44.9985765,10.5767785 C44.9667901,11.4212144 44.4191718,11.9762314 43.5280373,11.9881417 C41.8868553,12.0089846 40.2451156,11.9958833 38.6028182,11.9964788 C37.2348877,11.9964788 35.8669572,11.9964788 34.4990267,11.9964788" id="Fill-29" fill="#676767"></path>
                <path d="M34.4990267,11.9964788 C31.6527497,11.9964788 28.8075881,11.9970743 25.9613111,11.9952878 C25.6886173,11.9952878 25.4092316,12.0131532 25.1432296,11.9631302 C24.5102899,11.8434323 24.1165846,11.4295515 24.0212254,10.7464994 C23.921405,10.0306941 24.1723502,9.46019376 24.801944,9.17970767 C25.1175774,9.03916687 25.4934376,9.00879576 25.8419727,9.00820025 C31.6148291,8.99867206 37.3888008,9.00164962 43.1616572,9.00164962 C43.298283,9.00164962 43.436024,8.9956945 43.5720921,9.00641371 C44.4732645,9.0808527 45.0320359,9.697803 44.9985765,10.5767785 C44.9667901,11.4212144 44.4191718,11.9762314 43.5280373,11.9881417 C41.8868553,12.0089846 40.2451156,11.9958833 38.6028182,11.9964788 C37.2348877,11.9964788 35.8669572,11.9964788 34.4990267,11.9964788 Z" id="Stroke-31" stroke="#676767"></path>
                <path d="M36.5346877,40.0014212 C38.7782672,40.0014212 41.0224105,39.9972446 43.26599,40.0032112 C44.3249099,40.0061945 44.9744709,40.5592956 44.9992806,41.4554747 C45.0252179,42.3838732 44.3480279,42.9954468 43.2609153,42.9966401 C38.7455636,43.0008167 34.2302119,43.0014133 29.7148603,42.9966401 C28.602938,42.9954468 27.9753673,42.417286 28.0007408,41.4501048 C28.0244227,40.5282695 28.63395,40.0061945 29.7204988,40.0032112 C31.9917072,39.9972446 34.2634794,40.0014212 36.5346877,40.0014212" id="Fill-33" fill="#676767"></path>
                <path d="M36.5346877,40.0014212 C38.7782672,40.0014212 41.0224105,39.9972446 43.26599,40.0032112 C44.3249099,40.0061945 44.9744709,40.5592956 44.9992806,41.4554747 C45.0252179,42.3838732 44.3480279,42.9954468 43.2609153,42.9966401 C38.7455636,43.0008167 34.2302119,43.0014133 29.7148603,42.9966401 C28.602938,42.9954468 27.9753673,42.417286 28.0007408,41.4501048 C28.0244227,40.5282695 28.63395,40.0061945 29.7204988,40.0032112 C31.9917072,39.9972446 34.2634794,40.0014212 36.5346877,40.0014212 Z" id="Stroke-35" stroke="#676767"></path>
            </g>
        </g>
    </g>
</svg>