<?xml version="1.0" encoding="UTF-8"?>
<svg width="83px" height="86px" viewBox="0 0 83 86" version="1.1" xmlns="http://www.w3.org/2000/svg" xmlns:xlink="http://www.w3.org/1999/xlink">
    <!-- Generator: Sketch 52.6 (67491) - http://www.bohemiancoding.com/sketch -->
    <title>Group 15</title>
    <desc>Created with Sketch.</desc>
    <defs>
        <polygon id="path-1" points="0.35764557 0.182192308 29.8724051 0.182192308 29.8724051 30 0.35764557 30"></polygon>
        <polygon id="path-3" points="0 0.182 29.8932692 0.182 29.8932692 30 0 30"></polygon>
        <polygon id="path-5" points="0.357683544 0.336702532 29.8724051 0.336702532 29.8724051 29.7770506 0.357683544 29.7770506"></polygon>
        <polygon id="path-7" points="0 0.33656962 29.8932692 0.33656962 29.8932692 29.7768228 0 29.7768228"></polygon>
    </defs>
    <g id="Welcome" stroke="none" stroke-width="1" fill="none" fill-rule="evenodd">
        <g id="Pitch-Training" transform="translate(-471.000000, -2199.000000)">
            <g id="Group-15" transform="translate(471.000000, 2199.000000)">
                <path d="M48.6863266,42.9555643 C48.6538071,39.0044826 45.4559236,35.8063236 41.5285056,35.7980971 C37.5724862,35.7894789 34.2656819,39.1098604 34.298985,43.0570247 C34.3326799,47.0461051 37.6285138,50.2505319 41.6280232,50.1831527 C45.5938377,50.1161653 48.7188462,46.9156559 48.6863266,42.9555643 M53.4999995,43.0186343 C53.5019585,49.61944 48.1413308,54.9870507 41.5351663,54.9999781 C34.946241,55.0125137 29.5382054,49.6523461 29.5002006,43.0703438 C29.4618041,36.4624868 34.9399722,30.9765709 41.5527973,31.0000752 C48.1284014,31.0235796 53.4984323,36.4260551 53.4999995,43.0186343" id="Fill-1" fill="#676767"></path>
                <g id="Group-5" transform="translate(52.500000, 56.000000)">
                    <mask id="mask-2" fill="white">
                        <use xlink:href="#path-1"></use>
                    </mask>
                    <g id="Clip-4"></g>
                    <path d="M8.30612658,4.85373077 L17.7663797,4.85373077 C18.5843544,4.85373077 19.2542278,4.17565385 19.2542278,3.34680769 L19.2542278,1.68873077 C19.2542278,0.860269231 18.5843544,0.182192308 17.7663797,0.182192308 L1.84549367,0.182192308 C1.02751899,0.182192308 0.35764557,0.860269231 0.35764557,1.68873077 L0.35764557,1.83988462 L0.35764557,3.34680769 L0.35764557,17.9645 C0.35764557,18.7933462 1.02751899,19.4714231 1.84549367,19.4714231 L3.63106329,19.4714231 C4.44941772,19.4714231 5.11891139,18.7933462 5.11891139,17.9645 L5.11891139,8.23219231 L26.1770127,29.5602692 C26.7557468,30.1468077 27.7028354,30.1468077 28.2811899,29.5602692 L29.4386582,28.3879615 C30.0173924,27.8021923 30.0173924,26.8433462 29.4386582,26.2568077 L8.30612658,4.85373077 Z" id="Fill-3" fill="#676767" mask="url(#mask-2)"></path>
                </g>
                <g id="Group-8" transform="translate(0.500000, 56.000000)">
                    <mask id="mask-4" fill="white">
                        <use xlink:href="#path-3"></use>
                    </mask>
                    <g id="Clip-7"></g>
                    <path d="M28.3863462,0.182 L12.2617308,0.182 C11.4328846,0.182 10.7548077,0.860461538 10.7548077,1.68892308 L10.7548077,3.347 C10.7548077,4.17584615 11.4328846,4.85353846 12.2617308,4.85353846 L21.8428846,4.85353846 L0.439423077,26.257 C-0.146730769,26.8431538 -0.146730769,27.8023846 0.439423077,28.3881538 L1.61173077,29.5604615 C2.19788462,30.1466154 3.15673077,30.1466154 3.74288462,29.5604615 L25.0709615,8.23238462 L25.0709615,17.9643077 C25.0709615,18.7935385 25.7490385,19.4712308 26.5778846,19.4712308 L28.3863462,19.4712308 C29.2151923,19.4712308 29.8932692,18.7935385 29.8932692,17.9643077 L29.8932692,3.347 L29.8932692,1.84007692 L29.8932692,1.68892308 C29.8932692,0.860461538 29.2151923,0.182 28.3863462,0.182" id="Fill-6" fill="#676767" mask="url(#mask-4)"></path>
                </g>
                <g id="Group-11" transform="translate(52.500000, 0.000000)">
                    <mask id="mask-6" fill="white">
                        <use xlink:href="#path-5"></use>
                    </mask>
                    <g id="Clip-10"></g>
                    <path d="M28.2812278,0.770468354 C27.7028734,0.192113924 26.7557848,0.192113924 26.1770506,0.770468354 L5.11894937,21.8285696 L5.11894937,12.2194557 C5.11894937,11.401481 4.4494557,10.7316076 3.63110127,10.7316076 L1.84553165,10.7316076 C1.02717722,10.7316076 0.357683544,11.401481 0.357683544,12.2194557 L0.357683544,26.6521139 L0.357683544,28.1403418 L0.357683544,28.2892025 C0.357683544,29.107557 1.02717722,29.7770506 1.84553165,29.7770506 L17.7664177,29.7770506 C18.5843924,29.7770506 19.2542658,29.107557 19.2542658,28.2892025 L19.2542658,26.6521139 C19.2542658,25.8341392 18.5843924,25.1642658 17.7664177,25.1642658 L8.30616456,25.1642658 L29.4386962,4.03211392 C30.0174304,3.45337975 30.0174304,2.50629114 29.4386962,1.92793671 L28.2812278,0.770468354 Z" id="Fill-9" fill="#676767" mask="url(#mask-6)"></path>
                </g>
                <g id="Group-14" transform="translate(0.500000, 0.000000)">
                    <mask id="mask-8" fill="white">
                        <use xlink:href="#path-7"></use>
                    </mask>
                    <g id="Clip-13"></g>
                    <path d="M28.3863462,10.7317595 L26.5778846,10.7317595 C25.7490385,10.7317595 25.0709615,11.4016329 25.0709615,12.2196076 L25.0709615,21.8287215 L3.74288462,0.770620253 C3.15673077,0.191886076 2.19788462,0.191886076 1.61173077,0.770620253 L0.439423077,1.92770886 C-0.146730769,2.50644304 -0.146730769,3.45353165 0.439423077,4.03188608 L21.8428846,25.1644177 L12.2617308,25.1644177 C11.4328846,25.1644177 10.7548077,25.8342911 10.7548077,26.6522658 L10.7548077,28.2889747 C10.7548077,29.1077089 11.4328846,29.7768228 12.2617308,29.7768228 L28.3863462,29.7768228 C29.2151923,29.7768228 29.8932692,29.1077089 29.8932692,28.2889747 L29.8932692,28.1404937 L29.8932692,26.6522658 L29.8932692,12.2196076 C29.8932692,11.4016329 29.2151923,10.7317595 28.3863462,10.7317595" id="Fill-12" fill="#676767" mask="url(#mask-8)"></path>
                </g>
            </g>
        </g>
    </g>
</svg>