<?xml version="1.0" encoding="UTF-8"?>
<svg width="77px" height="82px" viewBox="0 0 77 82" version="1.1" xmlns="http://www.w3.org/2000/svg" xmlns:xlink="http://www.w3.org/1999/xlink">
    <!-- Generator: Sketch 52.6 (67491) - http://www.bohemiancoding.com/sketch -->
    <title>Group 35</title>
    <desc>Created with Sketch.</desc>
    <g id="Welcome" stroke="none" stroke-width="1" fill="none" fill-rule="evenodd">
        <g id="Pitch-Training" transform="translate(-474.000000, -2703.000000)">
            <g id="Group-35" transform="translate(475.000000, 2704.000000)">
                <path d="M44.9999471,52.4634884 C44.9850124,48.3514665 41.603138,44.9939237 37.4839331,45.0000083 C33.3708128,45.0066459 30.0022136,48.3807828 30.0000011,52.4961235 C29.9977885,56.6098049 33.3680471,59.9916857 37.4767424,59.9999827 C41.6280292,60.0088329 45.0154349,56.6147831 44.9999471,52.4634884 Z" id="Stroke-1" stroke="#676767"></path>
                <path d="M38.3374003,30.0865785 C39.8578369,28.3801514 40.4681568,26.3714368 40.4579669,24.1001949 C40.4349056,18.8926784 40.4617211,13.6846173 40.4343693,8.47655615 C40.4316878,7.88723151 40.5882901,7.52394174 41.1369344,7.38505285 C41.8480804,7.20531428 42.5672711,6.92426853 43.2843165,6.92045589 C50.2488281,6.88505284 57.213876,6.87089162 64.1783875,6.91119663 C67.4053601,6.92917049 69.6669761,9.38614222 69.6905737,12.8017197 C69.7157803,16.480369 69.6964731,20.159563 69.6970094,23.838757 C69.6970094,25.419367 69.7045178,26.9999771 69.6948642,28.5805871 C69.6718029,32.2467092 67.3458298,34.5974718 63.7445134,34.6018291 C61.780549,34.6034631 59.8160483,34.5969272 57.8515476,34.6040078 C56.8829732,34.6078204 56.5998019,34.9569489 56.4051217,35.9199119 C56.1267772,37.3038989 55.8613041,38.713485 55.3620002,40.0228532 C54.8283725,41.4226354 53.6522464,42.1987792 52.0733521,42.5408271 C53.2489419,40.3218728 53.1143283,38.1072758 52.6257506,35.8719817 C52.4037186,34.8567311 52.0738884,34.6040078 51.0275491,34.6029184 C48.4763261,34.5996505 45.9251031,34.6170797 43.3744165,34.5963825 C41.049516,34.577864 38.9327035,33.0588008 38.2145854,30.8948573 C38.1368206,30.6595632 38.1834795,30.2586918 38.3374003,30.0865785 M4.15197779,26.1094542 C4.86258751,29.855097 7.93885721,32.5027005 11.6999938,32.5920251 C13.5593779,32.6361428 15.4198346,32.5996504 17.3446484,32.5996504 C17.4261674,33.0560774 17.4894518,33.4117419 17.553809,33.7679511 C18.4708977,38.837668 21.9649523,41.340936 26.947265,40.4988881 C27.8557728,40.3452933 28.3652666,39.8785177 28.4038808,39.1644654 C28.4403499,38.4836375 28.0113025,37.955315 27.1483809,37.7374501 C26.257035,37.5125046 25.6585139,36.9574937 25.5362354,36.072962 C25.3989403,35.0843999 25.4284373,34.069694 25.4182474,33.066426 C25.4128843,32.5854892 25.781865,32.6040077 26.1293934,32.6056417 C27.762455,32.6121777 29.3960529,32.5952931 31.0291145,32.6121777 C32.7377957,32.6290622 34.4427227,32.6541166 36.0039188,31.819694 C36.0897283,31.937341 36.1449682,31.9934413 36.1771467,32.0609794 C37.7383429,35.3725263 40.3389063,36.9662083 43.9391501,36.9378858 C46.1058394,36.9210013 48.2725286,36.9346178 50.553988,36.9346178 C50.5942112,37.6710013 50.6719761,38.3599991 50.6612499,39.0484523 C50.6322892,40.9308053 50.2391745,41.4787356 48.5208398,42.1448576 C47.9308996,42.3730711 47.5924885,42.8098903 47.6053599,43.4406093 C47.6198403,44.105642 47.9850669,44.5680603 48.6382915,44.7113065 C49.1853269,44.8311322 49.7436248,44.9155549 50.3008501,44.9656638 C53.6490286,45.2663174 56.4598252,43.5794982 57.7330233,40.4182781 C58.1711879,39.3294981 58.4060914,38.1562954 58.7584465,36.9346178 C60.3292962,36.9346178 61.9832739,36.9351625 63.6377878,36.9346178 C68.6506701,36.9318945 71.9811504,33.5658814 71.9929492,28.4645741 C72.0042117,23.3327657 72.0015302,18.2009573 71.9881224,13.0691489 C71.9865135,12.3730704 71.9623796,11.6611967 71.8250844,10.9825475 C71.042073,7.11217703 67.9416694,4.58548851 63.9134508,4.56642533 C58.3251087,4.54028154 52.735694,4.53047762 47.1468156,4.57296128 C44.7269883,4.5914798 42.2524576,4.17317913 39.9656351,5.35564104 C38.2751884,1.7074928 35.496034,0.135052674 31.6442612,0.213484049 C28.3985177,0.27938819 16.8104844,-0.327365638 11.7209098,0.254878385 C11.9316794,0.242351152 12.1440578,0.233091892 12.3607267,0.233091892 C12.6932385,0.233091892 13.0252139,0.224377295 13.356653,0.235270542 C14.1310835,0.260869671 20.096451,0.807710643 20.1093224,1.47710064 C20.117367,1.92590239 20.2573437,2.34202441 18.2713907,2.5141377 C18.1410676,2.52503095 17.9732028,2.53483487 17.7817404,2.54191548 C17.938879,2.54354947 18.0970902,2.54518345 18.2590556,2.54572811 C18.4853781,2.54681744 18.7170637,2.56533596 18.946604,2.56533596 C23.3615015,2.56642528 27.7769354,2.56370197 32.1918329,2.56642528 C35.8006576,2.56914859 38.1373569,4.91391989 38.1475468,8.58167597 C38.1630998,13.8169702 38.1647087,19.0528091 38.1475468,24.2881034 C38.1352117,27.9264477 35.8215737,30.2597811 32.2497543,30.2739423 C29.8256366,30.2832016 27.4004463,30.272853 24.9763286,30.2772103 C23.9342798,30.2793889 23.5990865,30.5381035 23.3743729,31.5506308 C22.8804322,33.7821123 22.7533269,35.9928967 23.8699227,38.1317856 C22.4776639,37.9749229 21.2210914,37.1677333 20.65314,35.7445307 C20.1532998,34.4912627 19.8717374,33.1339642 19.6175268,31.7984521 C19.3777966,30.5419162 19.1691723,30.2777549 17.8809576,30.2761209 C16.0183556,30.274487 14.1552174,30.2793889 12.2926155,30.2750316 C8.61943361,30.2652277 6.31652181,27.9427876 6.30472301,24.2216546 C6.29506944,20.8785172 6.2988236,17.5353799 6.3041867,14.1916979 C6.30794086,12.0408264 6.25377363,9.8866869 6.35835393,7.74017269 C6.48009612,5.24235127 8.31695521,3.16827715 10.7330283,2.71620742 C11.5766427,2.55825535 12.4577987,2.60400698 13.3217929,2.56751461 C13.5765398,2.55662136 16.3707108,2.59638171 17.7817404,2.54191548 C12.0126621,2.48254728 9.56226522,1.91010718 9.49200872,1.27012895 C9.45822124,0.962394742 9.69580622,0.61490018 10.5131415,0.440608237 C10.8542341,0.367623486 11.2645107,0.306621306 11.7209098,0.254878385 C7.06574579,0.53265617 4.01736417,3.82078261 4.00663799,8.70204635 C3.99537549,13.8599985 3.99966597,19.0174061 4.01039215,24.1748136 C4.01146477,24.8207831 4.03184452,25.4787352 4.15197779,26.1094542" id="Fill-3" fill="#676767"></path>
                <path d="M38.3374003,30.0865785 C39.8578369,28.3801514 40.4681568,26.3714368 40.4579669,24.1001949 C40.4349056,18.8926784 40.4617211,13.6846173 40.4343693,8.47655615 C40.4316878,7.88723151 40.5882901,7.52394174 41.1369344,7.38505285 C41.8480804,7.20531428 42.5672711,6.92426853 43.2843165,6.92045589 C50.2488281,6.88505284 57.213876,6.87089162 64.1783875,6.91119663 C67.4053601,6.92917049 69.6669761,9.38614222 69.6905737,12.8017197 C69.7157803,16.480369 69.6964731,20.159563 69.6970094,23.838757 C69.6970094,25.419367 69.7045178,26.9999771 69.6948642,28.5805871 C69.6718029,32.2467092 67.3458298,34.5974718 63.7445134,34.6018291 C61.780549,34.6034631 59.8160483,34.5969272 57.8515476,34.6040078 C56.8829732,34.6078204 56.5998019,34.9569489 56.4051217,35.9199119 C56.1267772,37.3038989 55.8613041,38.713485 55.3620002,40.0228532 C54.8283725,41.4226354 53.6522464,42.1987792 52.0733521,42.5408271 C53.2489419,40.3218728 53.1143283,38.1072758 52.6257506,35.8719817 C52.4037186,34.8567311 52.0738884,34.6040078 51.0275491,34.6029184 C48.4763261,34.5996505 45.9251031,34.6170797 43.3744165,34.5963825 C41.049516,34.577864 38.9327035,33.0588008 38.2145854,30.8948573 C38.1368206,30.6595632 38.1834795,30.2586918 38.3374003,30.0865785 Z M4.15197779,26.1094542 C4.86258751,29.855097 7.93885721,32.5027005 11.6999938,32.5920251 C13.5593779,32.6361428 15.4198346,32.5996504 17.3446484,32.5996504 C17.4261674,33.0560774 17.4894518,33.4117419 17.553809,33.7679511 C18.4708977,38.837668 21.9649523,41.340936 26.947265,40.4988881 C27.8557728,40.3452933 28.3652666,39.8785177 28.4038808,39.1644654 C28.4403499,38.4836375 28.0113025,37.955315 27.1483809,37.7374501 C26.257035,37.5125046 25.6585139,36.9574937 25.5362354,36.072962 C25.3989403,35.0843999 25.4284373,34.069694 25.4182474,33.066426 C25.4128843,32.5854892 25.781865,32.6040077 26.1293934,32.6056417 C27.762455,32.6121777 29.3960529,32.5952931 31.0291145,32.6121777 C32.7377957,32.6290622 34.4427227,32.6541166 36.0039188,31.819694 C36.0897283,31.937341 36.1449682,31.9934413 36.1771467,32.0609794 C37.7383429,35.3725263 40.3389063,36.9662083 43.9391501,36.9378858 C46.1058394,36.9210013 48.2725286,36.9346178 50.553988,36.9346178 C50.5942112,37.6710013 50.6719761,38.3599991 50.6612499,39.0484523 C50.6322892,40.9308053 50.2391745,41.4787356 48.5208398,42.1448576 C47.9308996,42.3730711 47.5924885,42.8098903 47.6053599,43.4406093 C47.6198403,44.105642 47.9850669,44.5680603 48.6382915,44.7113065 C49.1853269,44.8311322 49.7436248,44.9155549 50.3008501,44.9656638 C53.6490286,45.2663174 56.4598252,43.5794982 57.7330233,40.4182781 C58.1711879,39.3294981 58.4060914,38.1562954 58.7584465,36.9346178 C60.3292962,36.9346178 61.9832739,36.9351625 63.6377878,36.9346178 C68.6506701,36.9318945 71.9811504,33.5658814 71.9929492,28.4645741 C72.0042117,23.3327657 72.0015302,18.2009573 71.9881224,13.0691489 C71.9865135,12.3730704 71.9623796,11.6611967 71.8250844,10.9825475 C71.042073,7.11217703 67.9416694,4.58548851 63.9134508,4.56642533 C58.3251087,4.54028154 52.735694,4.53047762 47.1468156,4.57296128 C44.7269883,4.5914798 42.2524576,4.17317913 39.9656351,5.35564104 C38.2751884,1.7074928 35.496034,0.135052674 31.6442612,0.213484049 C28.3985177,0.27938819 16.8104844,-0.327365638 11.7209098,0.254878385 C11.9316794,0.242351152 12.1440578,0.233091892 12.3607267,0.233091892 C12.6932385,0.233091892 13.0252139,0.224377295 13.356653,0.235270542 C14.1310835,0.260869671 20.096451,0.807710643 20.1093224,1.47710064 C20.117367,1.92590239 20.2573437,2.34202441 18.2713907,2.5141377 C18.1410676,2.52503095 17.9732028,2.53483487 17.7817404,2.54191548 C17.938879,2.54354947 18.0970902,2.54518345 18.2590556,2.54572811 C18.4853781,2.54681744 18.7170637,2.56533596 18.946604,2.56533596 C23.3615015,2.56642528 27.7769354,2.56370197 32.1918329,2.56642528 C35.8006576,2.56914859 38.1373569,4.91391989 38.1475468,8.58167597 C38.1630998,13.8169702 38.1647087,19.0528091 38.1475468,24.2881034 C38.1352117,27.9264477 35.8215737,30.2597811 32.2497543,30.2739423 C29.8256366,30.2832016 27.4004463,30.272853 24.9763286,30.2772103 C23.9342798,30.2793889 23.5990865,30.5381035 23.3743729,31.5506308 C22.8804322,33.7821123 22.7533269,35.9928967 23.8699227,38.1317856 C22.4776639,37.9749229 21.2210914,37.1677333 20.65314,35.7445307 C20.1532998,34.4912627 19.8717374,33.1339642 19.6175268,31.7984521 C19.3777966,30.5419162 19.1691723,30.2777549 17.8809576,30.2761209 C16.0183556,30.274487 14.1552174,30.2793889 12.2926155,30.2750316 C8.61943361,30.2652277 6.31652181,27.9427876 6.30472301,24.2216546 C6.29506944,20.8785172 6.2988236,17.5353799 6.3041867,14.1916979 C6.30794086,12.0408264 6.25377363,9.8866869 6.35835393,7.74017269 C6.48009612,5.24235127 8.31695521,3.16827715 10.7330283,2.71620742 C11.5766427,2.55825535 12.4577987,2.60400698 13.3217929,2.56751461 C13.5765398,2.55662136 16.3707108,2.59638171 17.7817404,2.54191548 C12.0126621,2.48254728 9.56226522,1.91010718 9.49200872,1.27012895 C9.45822124,0.962394742 9.69580622,0.61490018 10.5131415,0.440608237 C10.8542341,0.367623486 11.2645107,0.306621306 11.7209098,0.254878385 C7.06574579,0.53265617 4.01736417,3.82078261 4.00663799,8.70204635 C3.99537549,13.8599985 3.99966597,19.0174061 4.01039215,24.1748136 C4.01146477,24.8207831 4.03184452,25.4787352 4.15197779,26.1094542 Z" id="Stroke-5" stroke="#676767"></path>
                <path d="M9.00310498,1.89971043 C9.07583823,2.45338934 11.6126184,2.94910866 17.5850727,3 C17.7832847,2.99387419 17.9570671,2.98586352 18.0919845,2.97596798 C20.1479479,2.82706369 20.0035919,2.4670546 19.9947084,2.07877254 C19.9813833,1.49964797 13.80572,1.02654701 13.0039887,1.00487107 C12.6608654,0.995446752 12.317187,1.00251499 11.9735085,1.00298621 C11.7486462,1.00298621 11.5287808,1.01052567 11.3105811,1.02136364 C10.8380926,1.06612917 10.4133526,1.11890537 10.0602355,1.18204832 C9.21408691,1.33283747 8.96868161,1.63394455 9.00310498,1.89971043" id="Fill-7" fill="#676767"></path>
                <path d="M9.00310498,1.44985521 C9.07583823,1.72669467 11.6126184,1.97455433 17.5850727,2 C17.7832847,1.9969371 17.9570671,1.99293176 18.0919845,1.98798399 C20.1479479,1.91353185 20.0035919,1.7335273 19.9947084,1.53938627 C19.9813833,1.24982398 13.80572,1.01327351 13.0039887,1.00243554 C12.6608654,0.997723376 12.317187,1.0012575 11.9735085,1.0014931 C11.7486462,1.0014931 11.5287808,1.00526283 11.3105811,1.01068182 C10.8380926,1.03306458 10.4133526,1.05945268 10.0602355,1.09102416 C9.21408691,1.16641874 8.96868161,1.31697228 9.00310498,1.44985521 Z" id="Stroke-9" stroke="#676767"></path>
                <path d="M14.3464357,13.5911885 C15.0960858,9.66796285 18.6362767,9.64635164 20.6935792,11.2724636 C20.8312268,11.3810468 20.9561685,11.505443 21.0890514,11.6208785 C22.0409376,12.4484298 22.9250588,12.3830691 23.9335923,11.6382729 C24.6615365,11.1016823 25.4943046,10.5545497 26.355661,10.3774431 C28.8592594,9.86193666 30.7640907,11.7231364 30.7344435,14.7334202 C30.6857374,16.1455284 29.9810875,17.5354983 28.9677893,18.7900028 C27.2985472,20.8578269 25.1501855,22.3284435 22.8366467,23.5808396 C22.6735872,23.66992 22.3839978,23.6910041 22.2278207,23.6066677 C19.6421631,22.2093183 17.241271,20.5742456 15.5392053,18.1168926 C14.600025,16.7627657 14.024552,15.2737005 14.3464357,13.5911885 M12.1154855,13.1816297 C11.7014838,15.558336 12.4341926,17.6425002 13.7757275,19.5485037 C15.7811474,22.397494 18.5875706,24.2903199 21.644936,25.8273515 C22.1108202,26.0613851 22.8975293,26.0550599 23.3676489,25.8231347 C26.2301899,24.4083909 28.8481417,22.633636 30.8323851,20.0850943 C32.4460387,18.0119992 33.3661601,15.7164668 32.8616286,13.0203363 C32.2379791,9.69062827 29.4400265,7.62175002 26.140719,8.08560043 C24.7584192,8.28010134 23.572532,8.91367883 22.5285278,9.79604882 C22.1007614,9.504561 21.7211716,9.2146545 21.3129934,8.97166014 C17.3873892,6.6350137 12.896371,8.69756671 12.1154855,13.1816297" id="Fill-11" fill="#676767"></path>
                <path d="M14.3464357,13.5911885 C15.0960858,9.66796285 18.6362767,9.64635164 20.6935792,11.2724636 C20.8312268,11.3810468 20.9561685,11.505443 21.0890514,11.6208785 C22.0409376,12.4484298 22.9250588,12.3830691 23.9335923,11.6382729 C24.6615365,11.1016823 25.4943046,10.5545497 26.355661,10.3774431 C28.8592594,9.86193666 30.7640907,11.7231364 30.7344435,14.7334202 C30.6857374,16.1455284 29.9810875,17.5354983 28.9677893,18.7900028 C27.2985472,20.8578269 25.1501855,22.3284435 22.8366467,23.5808396 C22.6735872,23.66992 22.3839978,23.6910041 22.2278207,23.6066677 C19.6421631,22.2093183 17.241271,20.5742456 15.5392053,18.1168926 C14.600025,16.7627657 14.024552,15.2737005 14.3464357,13.5911885 Z M12.1154855,13.1816297 C11.7014838,15.558336 12.4341926,17.6425002 13.7757275,19.5485037 C15.7811474,22.397494 18.5875706,24.2903199 21.644936,25.8273515 C22.1108202,26.0613851 22.8975293,26.0550599 23.3676489,25.8231347 C26.2301899,24.4083909 28.8481417,22.633636 30.8323851,20.0850943 C32.4460387,18.0119992 33.3661601,15.7164668 32.8616286,13.0203363 C32.2379791,9.69062827 29.4400265,7.62175002 26.140719,8.08560043 C24.7584192,8.28010134 23.572532,8.91367883 22.5285278,9.79604882 C22.1007614,9.504561 21.7211716,9.2146545 21.3129934,8.97166014 C17.3873892,6.6350137 12.896371,8.69756671 12.1154855,13.1816297 Z" id="Stroke-13" stroke="#676767"></path>
                <path d="M45.4898461,15.9976859 C48.1589284,16.0018855 50.8280107,15.9990858 53.497093,15.9990858 C56.165625,15.9990858 58.8347073,16.0018855 61.5037896,15.9976859 C62.4464984,15.996286 62.973711,15.6514495 62.999026,15.0443693 C63.0265423,14.407425 62.4696121,14.0042603 61.5098432,14.003327 C56.1716786,13.9986607 50.8340643,13.9991274 45.49645,14.003327 C44.5322785,14.0042603 43.9780999,14.4013589 44.0006633,15.0387698 C44.022126,15.6463166 44.5526405,15.996286 45.4898461,15.9976859" id="Fill-15" fill="#676767"></path>
                <path d="M45.4898461,15.9976859 C48.1589284,16.0018855 50.8280107,15.9990858 53.497093,15.9990858 C56.165625,15.9990858 58.8347073,16.0018855 61.5037896,15.9976859 C62.4464984,15.996286 62.973711,15.6514495 62.999026,15.0443693 C63.0265423,14.407425 62.4696121,14.0042603 61.5098432,14.003327 C56.1716786,13.9986607 50.8340643,13.9991274 45.49645,14.003327 C44.5322785,14.0042603 43.9780999,14.4013589 44.0006633,15.0387698 C44.022126,15.6463166 44.5526405,15.996286 45.4898461,15.9976859 Z" id="Stroke-17" stroke="#676767"></path>
                <path d="M45.5143863,20.9976858 C48.1913457,21.0018856 50.8677532,20.9990858 53.5447127,20.9990858 C56.1957304,20.9990858 58.8456443,21.0028189 61.4961101,20.9944194 C61.8040985,20.9934861 62.2346198,21.0172847 62.3924776,20.8670267 C62.6910828,20.5833097 63.0250128,20.1712667 62.9985191,19.8315529 C62.9499475,19.2067222 62.3278994,18.9995341 61.6219548,19.0000008 C56.2420943,19.002334 50.8616818,18.9986009 45.4818212,19.0037339 C44.5539926,19.0042005 44.0163929,19.3756458 44.0003863,19.9883439 C43.9832759,20.6201742 44.5352263,20.9962859 45.5143863,20.9976858" id="Fill-19" fill="#676767"></path>
                <path d="M45.5143863,20.9976858 C48.1913457,21.0018856 50.8677532,20.9990858 53.5447127,20.9990858 C56.1957304,20.9990858 58.8456443,21.0028189 61.4961101,20.9944194 C61.8040985,20.9934861 62.2346198,21.0172847 62.3924776,20.8670267 C62.6910828,20.5833097 63.0250128,20.1712667 62.9985191,19.8315529 C62.9499475,19.2067222 62.3278994,18.9995341 61.6219548,19.0000008 C56.2420943,19.002334 50.8616818,18.9986009 45.4818212,19.0037339 C44.5539926,19.0042005 44.0163929,19.3756458 44.0003863,19.9883439 C43.9832759,20.6201742 44.5352263,20.9962859 45.5143863,20.9976858 Z" id="Stroke-21" stroke="#676767"></path>
                <path d="M61.5062524,24.0031497 C56.1689238,23.9989501 50.8315952,23.9989501 45.493166,24.0031497 C44.5312472,24.0040829 43.9765481,24.4035107 44.0007611,25.0409152 C44.0244239,25.6479894 44.5543597,25.9960888 45.493166,25.9974887 C48.1621055,26.0016883 50.8310449,25.9988885 53.4994341,25.9988885 C56.1683735,25.9988885 58.8367626,26.0021549 61.5057021,25.9974887 C62.4472599,25.9960888 62.9749945,25.6489226 62.9992076,25.0418485 C63.0239709,24.4049105 62.4670706,24.0040829 61.5062524,24.0031497" id="Fill-23" fill="#676767"></path>
                <path d="M61.5062524,24.0031497 C56.1689238,23.9989501 50.8315952,23.9989501 45.493166,24.0031497 C44.5312472,24.0040829 43.9765481,24.4035107 44.0007611,25.0409152 C44.0244239,25.6479894 44.5543597,25.9960888 45.493166,25.9974887 C48.1621055,26.0016883 50.8310449,25.9988885 53.4994341,25.9988885 C56.1683735,25.9988885 58.8367626,26.0021549 61.5057021,25.9974887 C62.4472599,25.9960888 62.9749945,25.6489226 62.9992076,25.0418485 C63.0239709,24.4049105 62.4670706,24.0040829 61.5062524,24.0031497 Z" id="Stroke-25" stroke="#676767"></path>
                <path d="M4.13528984,64.7230906 C4.15429583,65.0259168 4.28795089,65.3281262 4.51418352,65.5729774 C4.74286854,65.8202957 5.01079174,65.9602989 5.29649475,65.9929868 C5.64963837,66.0324591 6.02975825,65.9054078 6.39332451,65.6093659 C6.59503329,65.4440759 6.78815871,65.2676843 6.98251032,65.0931429 C7.24430256,64.584321 4.4829156,65.263367 4.33025455,65.2010749 C4.19169472,65.1449503 4.56384434,63.792409 4.33025455,64.0273923 C4.25361748,64.1044865 4.16901015,64.1994666 4.07704566,64.3073985 C3.88085476,64.5682854 4.11934933,64.461587 4.13528984,64.7230906" id="Fill-27" fill="#676767"></path>
                <path d="M4.13528984,64.7230906 C4.15429583,65.0259168 4.28795089,65.3281262 4.51418352,65.5729774 C4.74286854,65.8202957 5.01079174,65.9602989 5.29649475,65.9929868 C5.64963837,66.0324591 6.02975825,65.9054078 6.39332451,65.6093659 C6.59503329,65.4440759 6.78815871,65.2676843 6.98251032,65.0931429 C7.24430256,64.584321 4.4829156,65.263367 4.33025455,65.2010749 C4.19169472,65.1449503 4.56384434,63.792409 4.33025455,64.0273923 C4.25361748,64.1044865 4.16901015,64.1994666 4.07704566,64.3073985 C3.88085476,64.5682854 4.11934933,64.461587 4.13528984,64.7230906 Z" id="Stroke-29" stroke="#676767"></path>
                <path d="M70.7448955,77.336823 C70.2990184,77.547188 69.7972724,77.6675514 69.2563107,77.6697201 C64.344679,77.6865276 59.4325102,77.687612 54.5208785,77.6653827 C53.9116922,77.6626718 53.3019688,77.6610453 52.6927825,77.65725 C52.0658685,77.6534548 51.440029,77.3894143 50.8088174,77.2446528 C51.0430372,76.510002 51.282629,75.9624025 51.3889949,75.3898628 C51.7704078,73.32525 51.3175471,71.3490122 50.7158816,69.3857867 C50.6175738,69.0669862 50.6417478,68.6131834 50.7975362,68.325287 C53.161222,63.965636 58.4354645,61.5513185 63.255772,62.5798297 C64.5547247,62.8568825 65.7596673,63.3231553 66.877046,63.9770217 C67.1220098,64.1206988 67.3621388,64.2741351 67.5985074,64.4362462 C67.5985074,64.4362462 70.5015433,66.7898397 71.5883016,69.3369907 C71.5883016,69.3369907 71.8730183,69.8238663 71.9713261,70.0965817 C72.4446005,71.4026878 72.7019199,72.7548791 72.6954735,74.1661677 C72.6890271,75.5958903 71.9154572,76.7848861 70.7448955,77.336823 M53.6817701,52.6503868 C53.6930513,48.6187533 56.974277,45.3217705 60.971592,45.3250236 C64.968907,45.3282766 68.2447606,48.6306812 68.2495954,52.6623147 C68.253893,55.7971863 66.2931082,58.4847613 63.5469351,59.5441766 C62.7303891,59.8591819 61.8461557,60.0315944 60.9216322,60.027257 C59.3073423,60.0202086 57.8128482,59.4715248 56.6057569,58.5541601 C54.8286949,57.2035954 53.6753237,55.0533185 53.6817701,52.6503868 M45.6221387,77.6751419 C43.4980447,77.6832746 41.3739507,77.6805637 39.2498567,77.6789372 C38.6401332,77.678395 38.0309469,77.6773106 37.4212234,77.6773106 C34.7636885,77.6773106 32.1066908,77.6832746 29.4502303,77.6756841 C27.1606783,77.6697201 25.7333344,76.1884906 25.7677153,73.8739339 C25.8585023,67.8519659 30.7932336,62.6904339 36.7685238,62.367296 C39.4126287,62.2241611 41.9213589,62.9701976 43.9842119,64.3462447 C46.7040622,66.1598292 48.6471193,69.0691549 49.094608,72.4897541 C49.1579978,72.9739189 49.2154783,73.462421 49.2235364,73.9503809 C49.2579172,76.1668035 47.8112341,77.6659249 45.6221387,77.6751419 M30.2135934,52.6726161 C30.2157422,48.6382717 33.4872982,45.3309875 37.4819272,45.3250236 C41.4824654,45.3190596 44.7669142,48.6100784 44.7814187,52.6406276 C44.7964603,56.7096715 41.5066394,60.0359318 37.4749436,60.0277991 C33.4846122,60.0196665 30.2114445,56.7047919 30.2135934,52.6726161 M6.74649102,52.6118922 C6.77496269,48.5840539 10.07123,45.3060474 14.073917,45.3255658 C18.0986292,45.3456263 21.3594412,48.703333 21.3121675,52.7783408 C21.2659682,56.802926 17.9546593,60.0619563 13.9471375,60.0267148 C9.9627153,59.9914732 6.71855655,56.6522006 6.74649102,52.6118922 M74.8190303,72.2089061 C74.5364624,70.9678613 74.2812918,69.6899484 73.7177676,68.5443268 C73.1596154,67.4090067 71.440034,64.7550467 70.2221986,63.5969551 C70.1502137,63.5091223 70.0653359,63.422916 69.967028,63.3394207 C69.8907454,63.2754437 69.8144628,63.2130933 69.7371058,63.1496585 C69.6210704,63.0477291 69.5039605,62.946884 69.3857762,62.8471233 C69.1730445,62.6687468 68.6798937,62.3743443 68.6798937,62.3743443 C68.6358431,62.3461511 68.5923298,62.3157891 68.5472049,62.2881381 C67.7478494,61.802889 66.9135757,61.3745686 66.0793021,60.9137175 C66.1561219,60.8616685 66.228644,60.8063663 66.3027778,60.7526908 C71.3315194,57.1390762 71.7876033,50.542942 68.2205865,46.3649205 C64.7282408,42.2747317 58.6347662,41.8502065 54.628856,45.4383387 C52.6653852,47.1971633 51.5431716,49.4184654 51.4067225,52.0626662 C51.266513,54.7735548 52.0599593,57.0414842 53.6726377,58.9217566 C54.3065352,59.6607448 55.0634519,60.3422622 55.9460736,60.9635979 C53.1246923,62.1265691 50.9286133,63.9038277 49.3245302,66.2747709 C48.2839713,65.2099338 47.3658942,64.0897946 46.2683919,63.1957436 C46.0776854,63.0412229 45.8805326,62.8948349 45.6806937,62.7517 C44.7282357,62.0701826 43.688214,61.5041491 42.716954,60.8828134 C48.4370736,56.9081085 48.0653303,49.6646141 44.3167395,45.8758761 C40.5423631,42.0616558 34.4214913,42.068162 30.6755865,45.8769605 C26.8652175,49.7513625 26.6336838,56.9894352 32.4397556,60.9879959 C29.6473832,62.0962072 27.4733294,63.9314788 25.7553596,66.4113997 C24.0492082,63.8512365 21.8289552,62.1054242 19.0860053,60.9495013 C24.3049161,57.3846827 24.8920771,50.7999342 21.428203,46.5329955 C18.0524299,42.3728659 11.957881,41.7981575 7.85849775,45.2919507 C5.85312523,47.0014371 4.67826595,49.2032208 4.48594788,51.8414577 C4.20552879,55.7028474 5.80961192,58.7038011 8.9833973,60.9478747 C8.7357475,61.0639008 8.59070314,61.1116124 8.46768404,61.1934812 C7.07042341,62.1287378 5.64630272,63.0276685 4.29631581,64.0274442 C4.03147556,64.3007018 3.88696841,64.4595599 3.81229743,64.5587784 C3.89287762,64.4644395 3.9670114,64.3809441 4.03416157,64.3131719 C4.23883527,64.1066022 3.91275407,65.2950557 4.03416157,65.3449361 C4.1679247,65.3991539 6.58747943,64.8027584 6.35809447,65.2495128 C6.4542535,65.1622222 6.55041254,65.0743894 6.65033198,64.9914362 C12.1738359,60.4181671 20.6288475,61.9818077 24.1528881,68.2401651 C24.3108253,68.5199288 24.4311584,68.9422853 24.3414458,69.2242177 C23.5098581,71.8402252 22.9350527,74.4497266 24.2329311,77.2479059 C23.5404786,77.4029687 22.9318295,77.6545392 22.3215688,77.6577922 C16.7749652,77.6881542 11.2283616,77.6908651 5.68175801,77.6664671 C3.76556091,77.6583344 2.31780336,76.1283089 2.30007572,74.1867704 C2.28557128,72.620419 2.47627775,71.0594893 3.18645789,69.6671769 C4.44350897,67.202437 5.55229249,66.0839243 6.28449789,65.3449361 C6.31995317,65.3086102 6.34359003,65.2771639 6.35809447,65.2495128 C6.18780165,65.4034913 6.01858323,65.5580119 5.841844,65.7033156 C5.52328362,65.964103 5.1902188,66.0752495 4.88079084,66.0405501 C4.63045503,66.0123569 4.39569806,65.8887403 4.19532196,65.6718693 C3.99709468,65.4566247 3.87998479,65.1909576 3.86333155,64.9242062 C3.84936432,64.694865 3.640393,64.7881196 3.81229743,64.5587784 C2.91732003,65.6176515 1.30947649,68.1995018 1.06612429,68.7839694 C0.344662924,70.5162272 -0.0200967702,72.3265587 0.000854081174,74.2057466 C0.0218049325,76.1358994 0.778184387,77.7445407 2.34788664,78.837571 C3.10426609,79.3645677 4.04598,79.6210178 4.9038905,80 L23.3100192,80 C24.0470594,79.6725247 24.7808764,79.3363745 25.5243631,79.0262488 C25.662961,78.9682358 25.8649487,78.968778 26.0030094,79.0262488 C26.7475705,79.3363745 27.4808503,79.6725247 28.2184277,80 L39.5764751,80 L46.7776588,80 C47.5152362,79.6725247 48.248516,79.3358323 48.993077,79.0257066 C49.1311377,78.9682358 49.3331254,78.968778 49.470649,79.0262488 C50.21521,79.3363745 50.9484898,79.6725247 51.6860672,80 L56.7862565,80 L68.264637,80 L70.0921959,80 C70.209843,79.9544571 70.3248041,79.8959019 70.4456744,79.8649977 C72.9619254,79.2284811 74.4961723,77.6192976 74.9076685,75.0477487 C75.0553989,74.1260465 75.0258528,73.117596 74.8190303,72.2089061" id="Fill-31" fill="#676767"></path>
                <path d="M70.7448955,77.336823 C70.2990184,77.547188 69.7972724,77.6675514 69.2563107,77.6697201 C64.344679,77.6865276 59.4325102,77.687612 54.5208785,77.6653827 C53.9116922,77.6626718 53.3019688,77.6610453 52.6927825,77.65725 C52.0658685,77.6534548 51.440029,77.3894143 50.8088174,77.2446528 C51.0430372,76.510002 51.282629,75.9624025 51.3889949,75.3898628 C51.7704078,73.32525 51.3175471,71.3490122 50.7158816,69.3857867 C50.6175738,69.0669862 50.6417478,68.6131834 50.7975362,68.325287 C53.161222,63.965636 58.4354645,61.5513185 63.255772,62.5798297 C64.5547247,62.8568825 65.7596673,63.3231553 66.877046,63.9770217 C67.1220098,64.1206988 67.3621388,64.2741351 67.5985074,64.4362462 C67.5985074,64.4362462 70.5015433,66.7898397 71.5883016,69.3369907 C71.5883016,69.3369907 71.8730183,69.8238663 71.9713261,70.0965817 C72.4446005,71.4026878 72.7019199,72.7548791 72.6954735,74.1661677 C72.6890271,75.5958903 71.9154572,76.7848861 70.7448955,77.336823 Z M53.6817701,52.6503868 C53.6930513,48.6187533 56.974277,45.3217705 60.971592,45.3250236 C64.968907,45.3282766 68.2447606,48.6306812 68.2495954,52.6623147 C68.253893,55.7971863 66.2931082,58.4847613 63.5469351,59.5441766 C62.7303891,59.8591819 61.8461557,60.0315944 60.9216322,60.027257 C59.3073423,60.0202086 57.8128482,59.4715248 56.6057569,58.5541601 C54.8286949,57.2035954 53.6753237,55.0533185 53.6817701,52.6503868 Z M45.6221387,77.6751419 C43.4980447,77.6832746 41.3739507,77.6805637 39.2498567,77.6789372 C38.6401332,77.678395 38.0309469,77.6773106 37.4212234,77.6773106 C34.7636885,77.6773106 32.1066908,77.6832746 29.4502303,77.6756841 C27.1606783,77.6697201 25.7333344,76.1884906 25.7677153,73.8739339 C25.8585023,67.8519659 30.7932336,62.6904339 36.7685238,62.367296 C39.4126287,62.2241611 41.9213589,62.9701976 43.9842119,64.3462447 C46.7040622,66.1598292 48.6471193,69.0691549 49.094608,72.4897541 C49.1579978,72.9739189 49.2154783,73.462421 49.2235364,73.9503809 C49.2579172,76.1668035 47.8112341,77.6659249 45.6221387,77.6751419 Z M30.2135934,52.6726161 C30.2157422,48.6382717 33.4872982,45.3309875 37.4819272,45.3250236 C41.4824654,45.3190596 44.7669142,48.6100784 44.7814187,52.6406276 C44.7964603,56.7096715 41.5066394,60.0359318 37.4749436,60.0277991 C33.4846122,60.0196665 30.2114445,56.7047919 30.2135934,52.6726161 Z M6.74649102,52.6118922 C6.77496269,48.5840539 10.07123,45.3060474 14.073917,45.3255658 C18.0986292,45.3456263 21.3594412,48.703333 21.3121675,52.7783408 C21.2659682,56.802926 17.9546593,60.0619563 13.9471375,60.0267148 C9.9627153,59.9914732 6.71855655,56.6522006 6.74649102,52.6118922 Z M74.8190303,72.2089061 C74.5364624,70.9678613 74.2812918,69.6899484 73.7177676,68.5443268 C73.1596154,67.4090067 71.440034,64.7550467 70.2221986,63.5969551 C70.1502137,63.5091223 70.0653359,63.422916 69.967028,63.3394207 C69.8907454,63.2754437 69.8144628,63.2130933 69.7371058,63.1496585 C69.6210704,63.0477291 69.5039605,62.946884 69.3857762,62.8471233 C69.1730445,62.6687468 68.6798937,62.3743443 68.6798937,62.3743443 C68.6358431,62.3461511 68.5923298,62.3157891 68.5472049,62.2881381 C67.7478494,61.802889 66.9135757,61.3745686 66.0793021,60.9137175 C66.1561219,60.8616685 66.228644,60.8063663 66.3027778,60.7526908 C71.3315194,57.1390762 71.7876033,50.542942 68.2205865,46.3649205 C64.7282408,42.2747317 58.6347662,41.8502065 54.628856,45.4383387 C52.6653852,47.1971633 51.5431716,49.4184654 51.4067225,52.0626662 C51.266513,54.7735548 52.0599593,57.0414842 53.6726377,58.9217566 C54.3065352,59.6607448 55.0634519,60.3422622 55.9460736,60.9635979 C53.1246923,62.1265691 50.9286133,63.9038277 49.3245302,66.2747709 C48.2839713,65.2099338 47.3658942,64.0897946 46.2683919,63.1957436 C46.0776854,63.0412229 45.8805326,62.8948349 45.6806937,62.7517 C44.7282357,62.0701826 43.688214,61.5041491 42.716954,60.8828134 C48.4370736,56.9081085 48.0653303,49.6646141 44.3167395,45.8758761 C40.5423631,42.0616558 34.4214913,42.068162 30.6755865,45.8769605 C26.8652175,49.7513625 26.6336838,56.9894352 32.4397556,60.9879959 C29.6473832,62.0962072 27.4733294,63.9314788 25.7553596,66.4113997 C24.0492082,63.8512365 21.8289552,62.1054242 19.0860053,60.9495013 C24.3049161,57.3846827 24.8920771,50.7999342 21.428203,46.5329955 C18.0524299,42.3728659 11.957881,41.7981575 7.85849775,45.2919507 C5.85312523,47.0014371 4.67826595,49.2032208 4.48594788,51.8414577 C4.20552879,55.7028474 5.80961192,58.7038011 8.9833973,60.9478747 C8.7357475,61.0639008 8.59070314,61.1116124 8.46768404,61.1934812 C7.07042341,62.1287378 5.64630272,63.0276685 4.29631581,64.0274442 C4.03147556,64.3007018 3.88696841,64.4595599 3.81229743,64.5587784 C3.89287762,64.4644395 3.9670114,64.3809441 4.03416157,64.3131719 C4.23883527,64.1066022 3.91275407,65.2950557 4.03416157,65.3449361 C4.1679247,65.3991539 6.58747943,64.8027584 6.35809447,65.2495128 C6.4542535,65.1622222 6.55041254,65.0743894 6.65033198,64.9914362 C12.1738359,60.4181671 20.6288475,61.9818077 24.1528881,68.2401651 C24.3108253,68.5199288 24.4311584,68.9422853 24.3414458,69.2242177 C23.5098581,71.8402252 22.9350527,74.4497266 24.2329311,77.2479059 C23.5404786,77.4029687 22.9318295,77.6545392 22.3215688,77.6577922 C16.7749652,77.6881542 11.2283616,77.6908651 5.68175801,77.6664671 C3.76556091,77.6583344 2.31780336,76.1283089 2.30007572,74.1867704 C2.28557128,72.620419 2.47627775,71.0594893 3.18645789,69.6671769 C4.44350897,67.202437 5.55229249,66.0839243 6.28449789,65.3449361 C6.31995317,65.3086102 6.34359003,65.2771639 6.35809447,65.2495128 C6.18780165,65.4034913 6.01858323,65.5580119 5.841844,65.7033156 C5.52328362,65.964103 5.1902188,66.0752495 4.88079084,66.0405501 C4.63045503,66.0123569 4.39569806,65.8887403 4.19532196,65.6718693 C3.99709468,65.4566247 3.87998479,65.1909576 3.86333155,64.9242062 C3.84936432,64.694865 3.640393,64.7881196 3.81229743,64.5587784 C2.91732003,65.6176515 1.30947649,68.1995018 1.06612429,68.7839694 C0.344662924,70.5162272 -0.0200967702,72.3265587 0.000854081174,74.2057466 C0.0218049325,76.1358994 0.778184387,77.7445407 2.34788664,78.837571 C3.10426609,79.3645677 4.04598,79.6210178 4.9038905,80 L23.3100192,80 C24.0470594,79.6725247 24.7808764,79.3363745 25.5243631,79.0262488 C25.662961,78.9682358 25.8649487,78.968778 26.0030094,79.0262488 C26.7475705,79.3363745 27.4808503,79.6725247 28.2184277,80 L39.5764751,80 L46.7776588,80 C47.5152362,79.6725247 48.248516,79.3358323 48.993077,79.0257066 C49.1311377,78.9682358 49.3331254,78.968778 49.470649,79.0262488 C50.21521,79.3363745 50.9484898,79.6725247 51.6860672,80 L56.7862565,80 L68.264637,80 L70.0921959,80 C70.209843,79.9544571 70.3248041,79.8959019 70.4456744,79.8649977 C72.9619254,79.2284811 74.4961723,77.6192976 74.9076685,75.0477487 C75.0553989,74.1260465 75.0258528,73.117596 74.8190303,72.2089061 Z" id="Stroke-33" stroke="#676767"></path>
            </g>
        </g>
    </g>
</svg>