<?xml version="1.0" encoding="UTF-8"?>
<svg width="85px" height="82px" viewBox="0 0 85 82" version="1.1" xmlns="http://www.w3.org/2000/svg" xmlns:xlink="http://www.w3.org/1999/xlink">
    <!-- Generator: Sketch 52.6 (67491) - http://www.bohemiancoding.com/sketch -->
    <title>Group 21</title>
    <desc>Created with Sketch.</desc>
    <g id="Welcome" stroke="none" stroke-width="1" fill="none" fill-rule="evenodd">
        <g id="Pitch-Training" transform="translate(-470.000000, -2441.000000)">
            <g id="Group-21" transform="translate(471.000000, 2442.000000)">
                <path d="M70.99778,57.7120174 C70.2882129,59.0157661 69.6096114,60.143822 69.051474,61.324767 C68.6183322,62.2401804 67.9831583,62.6893742 66.9348569,62.7998614 C65.5810527,62.9425891 64.2427313,63.2244219 62.8983679,63.446483 L62.7333435,63.7207086 C63.5641299,64.4412299 64.3473349,65.2222475 65.2370316,65.8674201 C66.5730872,66.8360848 66.8306309,68.0163052 66.4197693,69.5116857 C66.1467427,70.5042591 66.0961402,71.5533439 65.9216751,72.7422584 C67.3578027,72.0604982 68.6421229,71.5026285 69.8705539,70.849124 C70.6579128,70.4299972 71.3338708,70.4263747 72.1204745,70.8397054 C73.3757172,71.4997304 74.6781637,72.0767995 76.0818151,72.7469677 C75.8586357,71.2725978 75.7181572,69.9253787 75.4338017,68.6071399 C75.2359235,67.6891907 75.4915791,67.0498141 76.1864187,66.4289123 C77.2116846,65.5127744 78.1621798,64.5194766 79.2523981,63.4530036 C77.6644632,63.2016 76.2562802,62.9563547 74.8401671,62.7639983 C74.0395911,62.6553224 73.4659708,62.3568259 73.0989143,61.6149317 C72.4712929,60.3452347 71.7590824,59.1142989 70.99778,57.7120174 Z M63.9251443,76 C63.1880102,75.5674699 63.0358253,74.9520019 63.1785695,74.1583055 C63.5048419,72.34378 63.7880646,70.521285 64.0331466,68.6951674 C64.0724201,68.3999312 63.9138154,67.9894985 63.6966781,67.7685241 C62.3776159,66.4285501 61.0158814,65.1266127 59.6658535,63.8148944 C59.243663,63.4048239 58.85055,62.994029 59.0563584,62.3408868 C59.2734958,61.651157 59.8701515,61.5200214 60.4890873,61.422213 C62.2514874,61.1436404 64.0116216,60.8502155 65.7793085,60.6053324 C66.4673507,60.5100599 66.8963386,60.2430794 67.2112822,59.6127591 C67.9941095,58.0456524 68.872855,56.5227406 69.7047742,54.9780936 C69.9849758,54.457536 70.2976536,53.9974747 71.0019339,54.0000104 C71.7062142,54.0029085 72.0079407,54.4662301 72.2881423,54.988599 C73.1668877,56.6252582 74.0426121,58.264091 74.9708271,59.8750303 C75.1309423,60.1532406 75.5161251,60.4245682 75.8405094,60.4847022 C77.6984499,60.8292048 79.5673417,61.1190072 81.4366111,61.4059116 C82.0985968,61.5073425 82.6714617,61.7054949 83,62.3144423 L83,63.0835055 C82.6038659,63.4928514 82.2160397,63.9098047 81.8100873,64.309732 C80.6726652,65.4290939 79.5390194,66.5524406 78.3800724,67.6507919 C78.0081066,68.0032641 77.8612085,68.326756 77.9593924,68.8589058 C78.2886859,70.6480735 78.5239495,72.4531805 78.8218997,74.2481443 C78.9487834,75.0124982 78.763367,75.610578 78.0307645,76 L77.2294332,76 C75.2480077,75.0302486 73.2696031,74.0547012 71.2798697,73.1012511 C71.1216427,73.025178 70.8523924,73.0364079 70.6900114,73.11393 C68.6957464,74.064482 66.7124327,75.0345956 64.7264756,76 L63.9251443,76 Z" id="Fill-1" fill="#676767"></path>
                <path d="M70.99778,57.7120174 C70.2882129,59.0157661 69.6096114,60.143822 69.051474,61.324767 C68.6183322,62.2401804 67.9831583,62.6893742 66.9348569,62.7998614 C65.5810527,62.9425891 64.2427313,63.2244219 62.8983679,63.446483 L62.7333435,63.7207086 C63.5641299,64.4412299 64.3473349,65.2222475 65.2370316,65.8674201 C66.5730872,66.8360848 66.8306309,68.0163052 66.4197693,69.5116857 C66.1467427,70.5042591 66.0961402,71.5533439 65.9216751,72.7422584 C67.3578027,72.0604982 68.6421229,71.5026285 69.8705539,70.849124 C70.6579128,70.4299972 71.3338708,70.4263747 72.1204745,70.8397054 C73.3757172,71.4997304 74.6781637,72.0767995 76.0818151,72.7469677 C75.8586357,71.2725978 75.7181572,69.9253787 75.4338017,68.6071399 C75.2359235,67.6891907 75.4915791,67.0498141 76.1864187,66.4289123 C77.2116846,65.5127744 78.1621798,64.5194766 79.2523981,63.4530036 C77.6644632,63.2016 76.2562802,62.9563547 74.8401671,62.7639983 C74.0395911,62.6553224 73.4659708,62.3568259 73.0989143,61.6149317 C72.4712929,60.3452347 71.7590824,59.1142989 70.99778,57.7120174 Z M63.9251443,76 C63.1880102,75.5674699 63.0358253,74.9520019 63.1785695,74.1583055 C63.5048419,72.34378 63.7880646,70.521285 64.0331466,68.6951674 C64.0724201,68.3999312 63.9138154,67.9894985 63.6966781,67.7685241 C62.3776159,66.4285501 61.0158814,65.1266127 59.6658535,63.8148944 C59.243663,63.4048239 58.85055,62.994029 59.0563584,62.3408868 C59.2734958,61.651157 59.8701515,61.5200214 60.4890873,61.422213 C62.2514874,61.1436404 64.0116216,60.8502155 65.7793085,60.6053324 C66.4673507,60.5100599 66.8963386,60.2430794 67.2112822,59.6127591 C67.9941095,58.0456524 68.872855,56.5227406 69.7047742,54.9780936 C69.9849758,54.457536 70.2976536,53.9974747 71.0019339,54.0000104 C71.7062142,54.0029085 72.0079407,54.4662301 72.2881423,54.988599 C73.1668877,56.6252582 74.0426121,58.264091 74.9708271,59.8750303 C75.1309423,60.1532406 75.5161251,60.4245682 75.8405094,60.4847022 C77.6984499,60.8292048 79.5673417,61.1190072 81.4366111,61.4059116 C82.0985968,61.5073425 82.6714617,61.7054949 83,62.3144423 L83,63.0835055 C82.6038659,63.4928514 82.2160397,63.9098047 81.8100873,64.309732 C80.6726652,65.4290939 79.5390194,66.5524406 78.3800724,67.6507919 C78.0081066,68.0032641 77.8612085,68.326756 77.9593924,68.8589058 C78.2886859,70.6480735 78.5239495,72.4531805 78.8218997,74.2481443 C78.9487834,75.0124982 78.763367,75.610578 78.0307645,76 L77.2294332,76 C75.2480077,75.0302486 73.2696031,74.0547012 71.2798697,73.1012511 C71.1216427,73.025178 70.8523924,73.0364079 70.6900114,73.11393 C68.6957464,74.064482 66.7124327,75.0345956 64.7264756,76 L63.9251443,76 Z" id="Stroke-3" stroke="#676767"></path>
                <path d="M17.0607076,72.7412915 C16.8419756,71.2792919 16.7327991,70.0002235 16.4401455,68.7606392 C16.1960148,67.725358 16.4901847,67.0081234 17.2836096,66.3158833 C18.2828776,65.4443345 19.1919234,64.4793279 20.2336489,63.4628832 C18.837858,63.2306876 17.6137926,62.9224216 16.3741847,62.8485247 C15.0117533,62.767383 14.2486552,62.1580957 13.7334787,61.0007398 C13.2474918,59.9107605 12.6011519,58.8856221 11.9616355,57.7148633 C11.2489558,59.0189263 10.5662237,60.148752 10.0059361,61.3314647 C9.57074654,62.2501046 8.92781841,62.6905881 7.87661575,62.800709 C6.51873334,62.9430692 5.1767725,63.2267029 3.82798813,63.4494803 C3.77643258,63.5389536 3.72487702,63.6284268 3.67370055,63.7179 C4.7882104,64.7140592 5.89968757,65.7138409 7.01912552,66.7049287 C7.51458959,67.1439633 7.66622359,67.6413184 7.54567456,68.2940744 C7.2822105,69.7231101 7.09418435,71.1648242 6.85119087,72.7590412 C8.31066806,72.0631787 9.65641975,71.451718 10.9695701,70.7826613 C11.6507858,70.4359979 12.2520146,70.422595 12.9381584,70.7714319 C14.2315964,71.4285347 15.5576357,72.0276792 17.0607076,72.7412915 Z M4.89814504,76 C4.11760906,75.5946538 3.9803803,74.9563874 4.11306004,74.174674 C4.42049796,72.3565929 4.71504699,70.5363383 4.96183132,68.7102878 C5.00163524,68.4147002 4.8613738,68.0024714 4.64794895,67.7858521 C3.28779203,66.4078922 1.85560897,65.0940487 0.514785382,63.6994258 C0.197491252,63.3690631 -0.0250316333,62.802158 0.00226248546,62.3605877 C0.0397918988,61.7581831 0.644432447,61.5473596 1.2361841,61.4539017 C3.18998811,61.1456357 5.14682479,60.8522215 7.09153075,60.4975889 C7.41792292,60.4378193 7.80572686,60.1625171 7.96721706,59.882868 C8.91000142,58.2484424 9.79743936,56.5846754 10.6947335,54.9267042 C10.9654002,54.4264511 11.281178,54.0073398 11.9476094,54.000095 C12.6144199,53.9928502 12.9461192,54.4010943 13.2175441,54.9020719 C14.1034657,56.5375842 15.0034134,58.1654895 15.8768252,59.8064355 C16.0970736,60.2208377 16.3476488,60.4599159 16.8772305,60.5327261 C18.7309561,60.7877429 20.5748254,61.1101362 22.4217275,61.4100707 C23.0623811,61.5140335 23.7098582,61.6064046 23.9418582,62.3359554 C24.1609694,63.0249354 23.7212308,63.44296 23.2822504,63.8682295 C21.946734,65.1628742 20.5975705,66.4455651 19.2920018,67.7670156 C19.0728907,67.9887063 18.909126,68.3983994 18.9485508,68.6932626 C19.1938188,70.519313 19.4777535,72.341741 19.805662,74.1561998 C19.9489561,74.9505915 19.7977012,75.5660368 19.0588646,76 L18.2536881,76 C16.2612174,75.0331822 14.2710212,74.061293 12.2698316,73.1100515 C12.1079623,73.0328944 11.8372957,73.029272 11.6769427,73.1057046 C9.67878576,74.0580328 7.69238045,75.0317332 5.70256337,76 L4.89814504,76 Z" id="Fill-5" fill="#676767"></path>
                <path d="M17.0607076,72.7412915 C16.8419756,71.2792919 16.7327991,70.0002235 16.4401455,68.7606392 C16.1960148,67.725358 16.4901847,67.0081234 17.2836096,66.3158833 C18.2828776,65.4443345 19.1919234,64.4793279 20.2336489,63.4628832 C18.837858,63.2306876 17.6137926,62.9224216 16.3741847,62.8485247 C15.0117533,62.767383 14.2486552,62.1580957 13.7334787,61.0007398 C13.2474918,59.9107605 12.6011519,58.8856221 11.9616355,57.7148633 C11.2489558,59.0189263 10.5662237,60.148752 10.0059361,61.3314647 C9.57074654,62.2501046 8.92781841,62.6905881 7.87661575,62.800709 C6.51873334,62.9430692 5.1767725,63.2267029 3.82798813,63.4494803 C3.77643258,63.5389536 3.72487702,63.6284268 3.67370055,63.7179 C4.7882104,64.7140592 5.89968757,65.7138409 7.01912552,66.7049287 C7.51458959,67.1439633 7.66622359,67.6413184 7.54567456,68.2940744 C7.2822105,69.7231101 7.09418435,71.1648242 6.85119087,72.7590412 C8.31066806,72.0631787 9.65641975,71.451718 10.9695701,70.7826613 C11.6507858,70.4359979 12.2520146,70.422595 12.9381584,70.7714319 C14.2315964,71.4285347 15.5576357,72.0276792 17.0607076,72.7412915 Z M4.89814504,76 C4.11760906,75.5946538 3.9803803,74.9563874 4.11306004,74.174674 C4.42049796,72.3565929 4.71504699,70.5363383 4.96183132,68.7102878 C5.00163524,68.4147002 4.8613738,68.0024714 4.64794895,67.7858521 C3.28779203,66.4078922 1.85560897,65.0940487 0.514785382,63.6994258 C0.197491252,63.3690631 -0.0250316333,62.802158 0.00226248546,62.3605877 C0.0397918988,61.7581831 0.644432447,61.5473596 1.2361841,61.4539017 C3.18998811,61.1456357 5.14682479,60.8522215 7.09153075,60.4975889 C7.41792292,60.4378193 7.80572686,60.1625171 7.96721706,59.882868 C8.91000142,58.2484424 9.79743936,56.5846754 10.6947335,54.9267042 C10.9654002,54.4264511 11.281178,54.0073398 11.9476094,54.000095 C12.6144199,53.9928502 12.9461192,54.4010943 13.2175441,54.9020719 C14.1034657,56.5375842 15.0034134,58.1654895 15.8768252,59.8064355 C16.0970736,60.2208377 16.3476488,60.4599159 16.8772305,60.5327261 C18.7309561,60.7877429 20.5748254,61.1101362 22.4217275,61.4100707 C23.0623811,61.5140335 23.7098582,61.6064046 23.9418582,62.3359554 C24.1609694,63.0249354 23.7212308,63.44296 23.2822504,63.8682295 C21.946734,65.1628742 20.5975705,66.4455651 19.2920018,67.7670156 C19.0728907,67.9887063 18.909126,68.3983994 18.9485508,68.6932626 C19.1938188,70.519313 19.4777535,72.341741 19.805662,74.1561998 C19.9489561,74.9505915 19.7977012,75.5660368 19.0588646,76 L18.2536881,76 C16.2612174,75.0331822 14.2710212,74.061293 12.2698316,73.1100515 C12.1079623,73.0328944 11.8372957,73.029272 11.6769427,73.1057046 C9.67878576,74.0580328 7.69238045,75.0317332 5.70256337,76 L4.89814504,76 Z" id="Stroke-7" stroke="#676767"></path>
                <path d="M35.6938026,76.1687833 C37.3944807,75.3203516 38.914846,74.5998017 40.396839,73.8082064 C41.1411884,73.4103521 41.7920284,73.4200741 42.5259465,73.8145631 C43.7456661,74.4696765 44.9985425,75.0634664 46.2391248,75.6793179 C46.512947,75.8157998 46.7945928,75.9369509 47.1932183,76.1209211 C46.9201412,74.2617752 46.7033187,72.5865994 46.4157122,70.9237631 C46.2849481,70.1654469 46.4350847,69.5795094 46.986082,69.0380686 C48.0411358,68.0011797 49.0607976,66.9283941 50.0908908,65.8660784 C50.28238,65.6678992 50.4515165,65.4484063 50.6988879,65.1597376 C48.9915039,64.875556 47.4528837,64.5797828 45.9023421,64.3756207 C44.8893862,64.2425041 44.201664,63.8397888 43.7546073,62.8597362 C43.0847673,61.3924617 42.2774574,59.9887542 41.4474222,58.4029461 C40.6125438,59.9999719 39.8100771,61.4096622 39.1324136,62.8776845 C38.6991412,63.8162317 38.0430855,64.2294168 37.0632862,64.3662726 C35.4743722,64.5876352 33.8966347,64.8882694 32.1452901,65.1836687 C33.4905582,66.5634451 34.6976112,67.8224444 35.9307426,69.055643 C36.4474656,69.5727787 36.6132492,70.1355331 36.4910537,70.8613179 C36.206055,72.5529463 35.9776836,74.2539228 35.6938026,76.1687833 Z M33.4819896,80 C32.6310917,79.5030561 32.4615827,78.7623143 32.6165623,77.8319935 C32.9738352,75.6853006 33.3027944,73.5329989 33.5814597,71.3750884 C33.6265379,71.026592 33.4551662,70.5416136 33.2118928,70.2824849 C31.7019589,68.6753632 30.1089469,67.1463913 28.6239735,65.5172081 C28.2499361,65.1062666 27.9723884,64.4137609 28.0021922,63.8697027 C28.0446626,63.1012906 28.8001884,62.9023635 29.4815773,62.7883169 C31.6501748,62.4248636 33.8232429,62.0868371 35.981409,61.6721563 C36.3472504,61.6022326 36.7786601,61.2724324 36.9600907,60.9415104 C38.0192425,59.0087016 39.0154338,57.0414918 40.0268996,55.0825084 C40.3316432,54.4928316 40.6933866,54.0011226 41.4455595,54.0000009 C42.1969872,53.999253 42.5624561,54.4872227 42.8675723,55.0780213 C43.8794106,57.0362569 44.8756019,59.0038406 45.9347537,60.9362755 C46.1154391,61.264954 46.5468488,61.5883975 46.9115726,61.6594429 C49.0101312,62.0681409 51.1235917,62.3998107 53.2318366,62.7576552 C53.9586762,62.8810499 54.6840257,63.011549 54.9381029,63.8640938 C55.1798861,64.6747593 54.6687513,65.1683378 54.1754987,65.6708906 C52.6942509,67.1796705 51.2305128,68.7067727 49.7254219,70.1916216 C49.3074239,70.6036849 49.2195028,70.9929389 49.3130121,71.556815 C49.6699124,73.7038818 49.9571463,75.8621663 50.3024976,78.0111027 C50.4444381,78.8946831 50.1769492,79.5468051 49.414345,80 L48.5090552,80 C46.2696737,78.8554212 44.0332726,77.7044857 41.7842049,76.5786031 C41.6027744,76.4881137 41.2972856,76.4918529 41.11511,76.5830902 C38.8652972,77.707851 36.6277785,78.8569169 34.3869068,80 L33.4819896,80 Z" id="Fill-9" fill="#676767"></path>
                <path d="M35.6938026,76.1687833 C37.3944807,75.3203516 38.914846,74.5998017 40.396839,73.8082064 C41.1411884,73.4103521 41.7920284,73.4200741 42.5259465,73.8145631 C43.7456661,74.4696765 44.9985425,75.0634664 46.2391248,75.6793179 C46.512947,75.8157998 46.7945928,75.9369509 47.1932183,76.1209211 C46.9201412,74.2617752 46.7033187,72.5865994 46.4157122,70.9237631 C46.2849481,70.1654469 46.4350847,69.5795094 46.986082,69.0380686 C48.0411358,68.0011797 49.0607976,66.9283941 50.0908908,65.8660784 C50.28238,65.6678992 50.4515165,65.4484063 50.6988879,65.1597376 C48.9915039,64.875556 47.4528837,64.5797828 45.9023421,64.3756207 C44.8893862,64.2425041 44.201664,63.8397888 43.7546073,62.8597362 C43.0847673,61.3924617 42.2774574,59.9887542 41.4474222,58.4029461 C40.6125438,59.9999719 39.8100771,61.4096622 39.1324136,62.8776845 C38.6991412,63.8162317 38.0430855,64.2294168 37.0632862,64.3662726 C35.4743722,64.5876352 33.8966347,64.8882694 32.1452901,65.1836687 C33.4905582,66.5634451 34.6976112,67.8224444 35.9307426,69.055643 C36.4474656,69.5727787 36.6132492,70.1355331 36.4910537,70.8613179 C36.206055,72.5529463 35.9776836,74.2539228 35.6938026,76.1687833 Z M33.4819896,80 C32.6310917,79.5030561 32.4615827,78.7623143 32.6165623,77.8319935 C32.9738352,75.6853006 33.3027944,73.5329989 33.5814597,71.3750884 C33.6265379,71.026592 33.4551662,70.5416136 33.2118928,70.2824849 C31.7019589,68.6753632 30.1089469,67.1463913 28.6239735,65.5172081 C28.2499361,65.1062666 27.9723884,64.4137609 28.0021922,63.8697027 C28.0446626,63.1012906 28.8001884,62.9023635 29.4815773,62.7883169 C31.6501748,62.4248636 33.8232429,62.0868371 35.981409,61.6721563 C36.3472504,61.6022326 36.7786601,61.2724324 36.9600907,60.9415104 C38.0192425,59.0087016 39.0154338,57.0414918 40.0268996,55.0825084 C40.3316432,54.4928316 40.6933866,54.0011226 41.4455595,54.0000009 C42.1969872,53.999253 42.5624561,54.4872227 42.8675723,55.0780213 C43.8794106,57.0362569 44.8756019,59.0038406 45.9347537,60.9362755 C46.1154391,61.264954 46.5468488,61.5883975 46.9115726,61.6594429 C49.0101312,62.0681409 51.1235917,62.3998107 53.2318366,62.7576552 C53.9586762,62.8810499 54.6840257,63.011549 54.9381029,63.8640938 C55.1798861,64.6747593 54.6687513,65.1683378 54.1754987,65.6708906 C52.6942509,67.1796705 51.2305128,68.7067727 49.7254219,70.1916216 C49.3074239,70.6036849 49.2195028,70.9929389 49.3130121,71.556815 C49.6699124,73.7038818 49.9571463,75.8621663 50.3024976,78.0111027 C50.4444381,78.8946831 50.1769492,79.5468051 49.414345,80 L48.5090552,80 C46.2696737,78.8554212 44.0332726,77.7044857 41.7842049,76.5786031 C41.6027744,76.4881137 41.2972856,76.4918529 41.11511,76.5830902 C38.8652972,77.707851 36.6277785,78.8569169 34.3869068,80 L33.4819896,80 Z" id="Stroke-11" stroke="#676767"></path>
                <path d="M30.7627778,13.431925 C30.7392415,19.3509664 35.5189481,24.2147944 41.4059638,24.2625582 C47.3521879,24.310322 52.2400143,19.491686 52.2646539,13.5575807 C52.2892934,7.59996087 47.4731792,2.73870478 41.5317358,2.72400821 C35.6381006,2.70931165 30.7863141,7.53345892 30.7627778,13.431925 Z M43.1222745,0 C43.8360862,0.177828429 44.5554142,0.334714254 45.2618708,0.536424601 C52.0208326,2.46902282 56.0992311,9.22319641 54.7392746,16.2209656 C53.4440429,22.8891642 47.0046598,27.6247647 40.1747214,26.9329239 C33.3775131,26.2440225 28.2190193,20.6523471 28.0060893,13.7427574 C27.8019855,7.12195511 32.7515947,1.23524624 39.4167791,0.165703764 C39.5841075,0.138882534 39.7429774,0.056581773 39.905525,0 L43.1222745,0 Z" id="Fill-13" fill="#676767"></path>
                <path d="M30.7627778,13.431925 C30.7392415,19.3509664 35.5189481,24.2147944 41.4059638,24.2625582 C47.3521879,24.310322 52.2400143,19.491686 52.2646539,13.5575807 C52.2892934,7.59996087 47.4731792,2.73870478 41.5317358,2.72400821 C35.6381006,2.70931165 30.7863141,7.53345892 30.7627778,13.431925 Z M43.1222745,0 C43.8360862,0.177828429 44.5554142,0.334714254 45.2618708,0.536424601 C52.0208326,2.46902282 56.0992311,9.22319641 54.7392746,16.2209656 C53.4440429,22.8891642 47.0046598,27.6247647 40.1747214,26.9329239 C33.3775131,26.2440225 28.2190193,20.6523471 28.0060893,13.7427574 C27.8019855,7.12195511 32.7515947,1.23524624 39.4167791,0.165703764 C39.5841075,0.138882534 39.7429774,0.056581773 39.905525,0 L43.1222745,0 Z" id="Stroke-15" stroke="#676767"></path>
                <path d="M61.3539572,48.2482998 C60.7641354,48.2464484 60.1750532,48.2475593 59.5856012,48.2482998 C53.5568458,48.2482998 47.5284603,48.2494106 41.5000747,48.2501511 C35.4716892,48.2494106 29.4429339,48.2482998 23.4145483,48.2482998 C22.8254661,48.2475593 22.2356443,48.2464484 21.6461923,48.2482998 C21.227955,48.2482998 20.8984684,47.8917308 20.9299009,47.4740675 C20.9668803,46.9864234 21.0256776,46.4980387 21.1033344,46.0100243 C21.12922,45.8519195 21.1521472,45.6938147 21.1817307,45.5364504 C21.1913454,45.4868344 21.202809,45.4379589 21.2124237,45.3887131 C21.5637282,43.6154954 22.1742585,41.8733802 23.0177591,40.2245728 C23.0277435,40.2049486 23.0380978,40.1856946 23.0480822,40.1660703 C23.17788,39.9146578 23.3132247,39.6654668 23.4533767,39.4184974 C23.4785227,39.3744354 23.5044083,39.3303734 23.5299241,39.2863115 C23.6571333,39.0663717 23.7884103,38.8486536 23.923755,38.6327869 C23.9662813,38.5657682 24.0088076,38.4991198 24.0517038,38.4324714 C24.1744755,38.2417829 24.3005753,38.0529458 24.4296335,37.8655897 C24.4891703,37.7796873 24.5494468,37.6941552 24.6100931,37.6089934 C24.7276876,37.4434832 24.8478707,37.2798243 24.9702726,37.1180168 C25.0471898,37.0165631 25.1248466,36.9154797 25.2036128,36.8151368 C25.3160302,36.6722131 25.4299269,36.5307703 25.5460423,36.3908087 C25.63997,36.2775064 25.7346373,36.1649447 25.8307838,36.0531235 C25.9380241,35.9290834 26.0467436,35.8061541 26.1569423,35.6843356 C26.2667712,35.5628874 26.3777095,35.44255 26.4908665,35.3233235 C26.5932995,35.2148347 26.6979513,35.1074567 26.8029728,35.0008193 C26.9275935,34.8749278 27.0536933,34.7497769 27.1816421,34.6264774 C27.2811168,34.5305778 27.3824404,34.4357889 27.4841338,34.3417406 C27.6224369,34.2139979 27.7618493,34.0866254 27.9042201,33.962215 C28.0011061,33.8770532 28.0994714,33.7933724 28.1985763,33.7100619 C28.3501919,33.5819489 28.5029169,33.4549466 28.6589701,33.3305363 C28.7532676,33.255742 28.8486745,33.1820584 28.9440814,33.1083749 C29.1090097,32.981743 29.2750473,32.8565921 29.4440432,32.7344033 C29.5357522,32.6677549 29.6293101,32.6029579 29.7224983,32.5377906 C29.8996297,32.4141208 30.0782403,32.291932 30.2601791,32.1730757 C30.3489297,32.1153138 30.4391595,32.0590329 30.5297591,32.0020115 C30.7198333,31.8820444 30.9113867,31.7635583 31.1066381,31.6495155 C31.1920606,31.5995292 31.2789622,31.551024 31.3651243,31.5021485 C31.5688809,31.3866246 31.7744865,31.2733223 31.9830504,31.164093 C32.0636656,31.1222526 32.1457599,31.0818933 32.2271146,31.0407934 C32.4452932,30.9304533 32.6653208,30.822705 32.8886765,30.7197703 C32.9641145,30.6853353 33.0402921,30.6527516 33.1160999,30.6186869 C33.3490703,30.5150116 33.5835199,30.4135579 33.8220371,30.3183988 C33.8908189,30.2902584 33.9614496,30.2647098 34.0309709,30.2373099 C34.278733,30.1414103 34.5287139,30.0481025 34.7823927,29.9610893 C34.8452578,29.9396137 34.9092322,29.9199895 34.972467,29.8985139 C35.2346511,29.811871 35.4986842,29.7278199 35.766785,29.6511743 C35.8259521,29.6341419 35.8854889,29.6189609 35.944656,29.602669 C36.217934,29.5267639 36.4934307,29.4549317 36.7726253,29.3897644 C36.8321622,29.3760645 36.8928084,29.3642159 36.9523453,29.3508862 C37.2322795,29.2883107 37.5136929,29.2301785 37.7991741,29.1790814 C37.8649975,29.1672328 37.9326698,29.1576058 37.9992328,29.1464978 C38.2776878,29.0991033 38.557622,29.0561521 38.8408844,29.0198658 C38.9263069,29.0094983 39.012469,29.0013523 39.0978914,28.9917254 C39.3622943,28.9613633 39.6278066,28.9339634 39.896647,28.9135986 C40.0171999,28.9047122 40.139232,28.8995284 40.2605245,28.8928636 C40.4931251,28.8787933 40.7260954,28.8665745 40.9612845,28.8606502 C41.1398952,28.8562069 41.319985,28.8573177 41.5000747,28.8573177 C41.6797947,28.8573177 41.8602543,28.8562069 42.0384951,28.8606502 C42.2740541,28.8665745 42.5070244,28.8787933 42.739625,28.8928636 C42.8609175,28.8995284 42.9829496,28.9047122 43.1035025,28.9135986 C43.3719731,28.9339634 43.6378552,28.9613633 43.9022581,28.9917254 C43.9873107,29.0013523 44.0738426,29.0094983 44.1588953,29.0198658 C44.4425274,29.0561521 44.7224617,29.0991033 45.0005469,29.1461275 C45.0674797,29.1576058 45.1347822,29.1672328 45.2009754,29.1790814 C45.4864565,29.2301785 45.7682397,29.2883107 46.0474344,29.3508862 C46.1077109,29.3642159 46.1679873,29.3760645 46.2271544,29.3897644 C46.506349,29.4549317 46.7818457,29.5267639 47.0551237,29.602669 C47.1142907,29.6189609 47.1741974,29.6341419 47.2329947,29.6511743 C47.5010955,29.7278199 47.7654984,29.811871 48.0273127,29.8985139 C48.0909173,29.9196192 48.1548917,29.9396137 48.2177567,29.9610893 C48.4710658,30.0481025 48.7210467,30.1414103 48.9691786,30.2376802 C49.0386999,30.2647098 49.1089608,30.2902584 49.1781123,30.3183988 C49.4162598,30.4135579 49.6507094,30.5146413 49.8833099,30.6186869 C49.9598574,30.6523814 50.0364048,30.6853353 50.1118428,30.7201406 C50.3348287,30.822705 50.5544865,30.9304533 50.7722953,31.0404232 C50.85365,31.0818933 50.9361141,31.1222526 51.0170991,31.1644632 C51.225663,31.2733223 51.4308988,31.3866246 51.6346554,31.5021485 C51.7211873,31.551024 51.8080889,31.5995292 51.8935114,31.6495155 C52.0883929,31.7635583 52.2799464,31.8820444 52.4703904,32.0020115 C52.5606202,32.0586626 52.65085,32.1153138 52.7403402,32.173446 C52.9219091,32.291932 53.1005198,32.4141208 53.2772814,32.5377906 C53.3704695,32.6029579 53.4640275,32.6677549 53.5561062,32.7344033 C53.7247324,32.8562218 53.89077,32.981743 54.0553285,33.1080047 C54.1511052,33.1820584 54.2468819,33.255742 54.3415492,33.3309065 C54.4972326,33.4549466 54.6499576,33.5819489 54.8012034,33.7100619 C54.9003083,33.7933724 54.9986735,33.8770532 55.0959294,33.962215 C55.2379304,34.0866254 55.3773428,34.2136276 55.5152761,34.3413704 C55.6173393,34.4357889 55.7190327,34.5305778 55.8185073,34.6268477 C55.9464562,34.7497769 56.0721862,34.8745576 56.196437,35.000449 C56.3018284,35.1074567 56.4064802,35.2148347 56.5096528,35.3236937 C56.62244,35.4429203 56.7330085,35.5632577 56.8428374,35.6843356 C56.953036,35.8061541 57.0621253,35.9290834 57.1693657,36.0534937 C57.2651424,36.1649447 57.3598097,36.2771361 57.4533676,36.3904384 C57.5698528,36.5307703 57.6841192,36.6725833 57.7965367,36.8158774 C57.8753029,36.91585 57.9529596,37.0165631 58.0295071,37.1176465 C58.1522787,37.2798243 58.2720921,37.4434832 58.3896866,37.6089934 C58.4503329,37.6941552 58.5109791,37.7796873 58.570516,37.8655897 C58.6995742,38.0529458 58.825674,38.2421532 58.9484457,38.4328416 C58.9909721,38.4991198 59.034238,38.5657682 59.0760247,38.6324166 C59.2113694,38.8486536 59.343386,39.066742 59.4702254,39.2866817 C59.4957412,39.3307437 59.521257,39.3744354 59.546403,39.4184974 C59.686555,39.6654668 59.8218997,39.9146578 59.9516975,40.1660703 C59.9616819,40.1856946 59.9724059,40.2049486 59.9820206,40.2245728 C60.8255212,41.8733802 61.4364213,43.6154954 61.7877258,45.3887131 C61.7973405,45.4379589 61.8088041,45.4868344 61.8180489,45.5364504 C61.8480023,45.6938147 61.8705597,45.8519195 61.8968151,46.0100243 C61.9741021,46.4980387 62.0332692,46.9864234 62.0702486,47.4740675 C62.1016811,47.8917308 61.7718247,48.2482998 61.3539572,48.2482998 M64.9801594,49.6653189 C64.9831178,49.6371784 64.9868157,49.6101488 64.9894043,49.5816381 C64.9982793,49.4690763 65.0008679,49.3468876 64.9997585,49.2187746 L64.9997585,49.2150719 L64.9997585,49.2117395 C64.9990189,49.1680477 64.9997585,49.1265776 64.9982793,49.0814048 C64.9712843,48.3030996 64.9457685,47.5177593 64.8252156,46.7505621 C64.8100541,46.6542922 64.7923039,46.5602439 64.7764028,46.4647145 C64.3818323,43.4381366 63.4773157,40.6211308 62.019217,38.0570187 C60.0644847,34.4017242 57.2166993,31.4732675 53.4473867,29.3597726 C49.7427881,27.0492947 45.7401354,25.9103476 41.5000747,26.0055067 C37.2596443,25.9103476 33.2573613,27.0492947 29.5523929,29.3597726 C25.7834501,31.4732675 22.935295,34.4017242 20.9805627,38.0570187 C19.5228338,40.6207605 18.6186869,43.437396 18.2237467,46.463974 C18.2078455,46.5598736 18.1897256,46.6542922 18.1745641,46.7505621 C18.0543809,47.5177593 18.0288651,48.3030996 18.0018702,49.0814048 C18.000391,49.1269479 18.0007608,49.168418 18.000391,49.2121097 C18.000391,49.2132205 18.000391,49.2139611 18.0000212,49.2150719 C18.0000212,49.2161827 18.000391,49.2169232 18.000391,49.218034 C17.9989118,49.3465173 18.0015004,49.4690763 18.0103754,49.5820084 C18.012964,49.6101488 18.0166619,49.6371784 18.0196203,49.6649486 C18.0706519,50.1363009 18.2207883,50.4643591 18.5003528,50.6754124 C18.7336929,50.8679522 19.0450597,50.9745897 19.4399999,50.981995 C19.4755002,50.9823653 19.5113702,50.981995 19.5465007,50.9827356 C19.6407982,50.9882896 19.7387937,50.9923626 19.8430756,50.9923626 C20.0960149,50.9923626 20.3489541,50.9923626 20.6018934,50.9923626 C21.6103223,51.0023598 22.6194907,51.0027301 23.6279196,50.9923626 C26.3544124,50.9927328 29.0809053,50.9927328 31.8070284,50.9927328 C33.2721531,50.995695 34.7365383,50.9934734 36.201663,50.9934734 C37.96817,50.9934734 39.7339375,50.9931031 41.5000747,50.9934734 C43.266212,50.9931031 45.0319794,50.9934734 46.7981167,50.9934734 C48.2632414,50.9934734 49.7283662,50.995695 51.1927513,50.9927328 C53.919614,50.9927328 56.645737,50.9927328 59.3718601,50.9923626 C60.3806588,51.0027301 61.3894574,51.0023598 62.3982561,50.9923626 C62.6511953,50.9923626 62.9037648,50.9923626 63.1567041,50.9923626 C63.260986,50.9923626 63.3589815,50.9882896 63.4536488,50.9827356 C63.4887793,50.981995 63.5242795,50.9823653 63.5597798,50.981995 C63.9550898,50.9745897 64.2660867,50.8679522 64.4994269,50.6754124 C64.7789913,50.4647294 64.9291278,50.1363009 64.9801594,49.6653189" id="Fill-17" fill="#676767"></path>
                <path d="M61.3539572,48.2482998 C60.7641354,48.2464484 60.1750532,48.2475593 59.5856012,48.2482998 C53.5568458,48.2482998 47.5284603,48.2494106 41.5000747,48.2501511 C35.4716892,48.2494106 29.4429339,48.2482998 23.4145483,48.2482998 C22.8254661,48.2475593 22.2356443,48.2464484 21.6461923,48.2482998 C21.227955,48.2482998 20.8984684,47.8917308 20.9299009,47.4740675 C20.9668803,46.9864234 21.0256776,46.4980387 21.1033344,46.0100243 C21.12922,45.8519195 21.1521472,45.6938147 21.1817307,45.5364504 C21.1913454,45.4868344 21.202809,45.4379589 21.2124237,45.3887131 C21.5637282,43.6154954 22.1742585,41.8733802 23.0177591,40.2245728 C23.0277435,40.2049486 23.0380978,40.1856946 23.0480822,40.1660703 C23.17788,39.9146578 23.3132247,39.6654668 23.4533767,39.4184974 C23.4785227,39.3744354 23.5044083,39.3303734 23.5299241,39.2863115 C23.6571333,39.0663717 23.7884103,38.8486536 23.923755,38.6327869 C23.9662813,38.5657682 24.0088076,38.4991198 24.0517038,38.4324714 C24.1744755,38.2417829 24.3005753,38.0529458 24.4296335,37.8655897 C24.4891703,37.7796873 24.5494468,37.6941552 24.6100931,37.6089934 C24.7276876,37.4434832 24.8478707,37.2798243 24.9702726,37.1180168 C25.0471898,37.0165631 25.1248466,36.9154797 25.2036128,36.8151368 C25.3160302,36.6722131 25.4299269,36.5307703 25.5460423,36.3908087 C25.63997,36.2775064 25.7346373,36.1649447 25.8307838,36.0531235 C25.9380241,35.9290834 26.0467436,35.8061541 26.1569423,35.6843356 C26.2667712,35.5628874 26.3777095,35.44255 26.4908665,35.3233235 C26.5932995,35.2148347 26.6979513,35.1074567 26.8029728,35.0008193 C26.9275935,34.8749278 27.0536933,34.7497769 27.1816421,34.6264774 C27.2811168,34.5305778 27.3824404,34.4357889 27.4841338,34.3417406 C27.6224369,34.2139979 27.7618493,34.0866254 27.9042201,33.962215 C28.0011061,33.8770532 28.0994714,33.7933724 28.1985763,33.7100619 C28.3501919,33.5819489 28.5029169,33.4549466 28.6589701,33.3305363 C28.7532676,33.255742 28.8486745,33.1820584 28.9440814,33.1083749 C29.1090097,32.981743 29.2750473,32.8565921 29.4440432,32.7344033 C29.5357522,32.6677549 29.6293101,32.6029579 29.7224983,32.5377906 C29.8996297,32.4141208 30.0782403,32.291932 30.2601791,32.1730757 C30.3489297,32.1153138 30.4391595,32.0590329 30.5297591,32.0020115 C30.7198333,31.8820444 30.9113867,31.7635583 31.1066381,31.6495155 C31.1920606,31.5995292 31.2789622,31.551024 31.3651243,31.5021485 C31.5688809,31.3866246 31.7744865,31.2733223 31.9830504,31.164093 C32.0636656,31.1222526 32.1457599,31.0818933 32.2271146,31.0407934 C32.4452932,30.9304533 32.6653208,30.822705 32.8886765,30.7197703 C32.9641145,30.6853353 33.0402921,30.6527516 33.1160999,30.6186869 C33.3490703,30.5150116 33.5835199,30.4135579 33.8220371,30.3183988 C33.8908189,30.2902584 33.9614496,30.2647098 34.0309709,30.2373099 C34.278733,30.1414103 34.5287139,30.0481025 34.7823927,29.9610893 C34.8452578,29.9396137 34.9092322,29.9199895 34.972467,29.8985139 C35.2346511,29.811871 35.4986842,29.7278199 35.766785,29.6511743 C35.8259521,29.6341419 35.8854889,29.6189609 35.944656,29.602669 C36.217934,29.5267639 36.4934307,29.4549317 36.7726253,29.3897644 C36.8321622,29.3760645 36.8928084,29.3642159 36.9523453,29.3508862 C37.2322795,29.2883107 37.5136929,29.2301785 37.7991741,29.1790814 C37.8649975,29.1672328 37.9326698,29.1576058 37.9992328,29.1464978 C38.2776878,29.0991033 38.557622,29.0561521 38.8408844,29.0198658 C38.9263069,29.0094983 39.012469,29.0013523 39.0978914,28.9917254 C39.3622943,28.9613633 39.6278066,28.9339634 39.896647,28.9135986 C40.0171999,28.9047122 40.139232,28.8995284 40.2605245,28.8928636 C40.4931251,28.8787933 40.7260954,28.8665745 40.9612845,28.8606502 C41.1398952,28.8562069 41.319985,28.8573177 41.5000747,28.8573177 C41.6797947,28.8573177 41.8602543,28.8562069 42.0384951,28.8606502 C42.2740541,28.8665745 42.5070244,28.8787933 42.739625,28.8928636 C42.8609175,28.8995284 42.9829496,28.9047122 43.1035025,28.9135986 C43.3719731,28.9339634 43.6378552,28.9613633 43.9022581,28.9917254 C43.9873107,29.0013523 44.0738426,29.0094983 44.1588953,29.0198658 C44.4425274,29.0561521 44.7224617,29.0991033 45.0005469,29.1461275 C45.0674797,29.1576058 45.1347822,29.1672328 45.2009754,29.1790814 C45.4864565,29.2301785 45.7682397,29.2883107 46.0474344,29.3508862 C46.1077109,29.3642159 46.1679873,29.3760645 46.2271544,29.3897644 C46.506349,29.4549317 46.7818457,29.5267639 47.0551237,29.602669 C47.1142907,29.6189609 47.1741974,29.6341419 47.2329947,29.6511743 C47.5010955,29.7278199 47.7654984,29.811871 48.0273127,29.8985139 C48.0909173,29.9196192 48.1548917,29.9396137 48.2177567,29.9610893 C48.4710658,30.0481025 48.7210467,30.1414103 48.9691786,30.2376802 C49.0386999,30.2647098 49.1089608,30.2902584 49.1781123,30.3183988 C49.4162598,30.4135579 49.6507094,30.5146413 49.8833099,30.6186869 C49.9598574,30.6523814 50.0364048,30.6853353 50.1118428,30.7201406 C50.3348287,30.822705 50.5544865,30.9304533 50.7722953,31.0404232 C50.85365,31.0818933 50.9361141,31.1222526 51.0170991,31.1644632 C51.225663,31.2733223 51.4308988,31.3866246 51.6346554,31.5021485 C51.7211873,31.551024 51.8080889,31.5995292 51.8935114,31.6495155 C52.0883929,31.7635583 52.2799464,31.8820444 52.4703904,32.0020115 C52.5606202,32.0586626 52.65085,32.1153138 52.7403402,32.173446 C52.9219091,32.291932 53.1005198,32.4141208 53.2772814,32.5377906 C53.3704695,32.6029579 53.4640275,32.6677549 53.5561062,32.7344033 C53.7247324,32.8562218 53.89077,32.981743 54.0553285,33.1080047 C54.1511052,33.1820584 54.2468819,33.255742 54.3415492,33.3309065 C54.4972326,33.4549466 54.6499576,33.5819489 54.8012034,33.7100619 C54.9003083,33.7933724 54.9986735,33.8770532 55.0959294,33.962215 C55.2379304,34.0866254 55.3773428,34.2136276 55.5152761,34.3413704 C55.6173393,34.4357889 55.7190327,34.5305778 55.8185073,34.6268477 C55.9464562,34.7497769 56.0721862,34.8745576 56.196437,35.000449 C56.3018284,35.1074567 56.4064802,35.2148347 56.5096528,35.3236937 C56.62244,35.4429203 56.7330085,35.5632577 56.8428374,35.6843356 C56.953036,35.8061541 57.0621253,35.9290834 57.1693657,36.0534937 C57.2651424,36.1649447 57.3598097,36.2771361 57.4533676,36.3904384 C57.5698528,36.5307703 57.6841192,36.6725833 57.7965367,36.8158774 C57.8753029,36.91585 57.9529596,37.0165631 58.0295071,37.1176465 C58.1522787,37.2798243 58.2720921,37.4434832 58.3896866,37.6089934 C58.4503329,37.6941552 58.5109791,37.7796873 58.570516,37.8655897 C58.6995742,38.0529458 58.825674,38.2421532 58.9484457,38.4328416 C58.9909721,38.4991198 59.034238,38.5657682 59.0760247,38.6324166 C59.2113694,38.8486536 59.343386,39.066742 59.4702254,39.2866817 C59.4957412,39.3307437 59.521257,39.3744354 59.546403,39.4184974 C59.686555,39.6654668 59.8218997,39.9146578 59.9516975,40.1660703 C59.9616819,40.1856946 59.9724059,40.2049486 59.9820206,40.2245728 C60.8255212,41.8733802 61.4364213,43.6154954 61.7877258,45.3887131 C61.7973405,45.4379589 61.8088041,45.4868344 61.8180489,45.5364504 C61.8480023,45.6938147 61.8705597,45.8519195 61.8968151,46.0100243 C61.9741021,46.4980387 62.0332692,46.9864234 62.0702486,47.4740675 C62.1016811,47.8917308 61.7718247,48.2482998 61.3539572,48.2482998 Z M64.9801594,49.6653189 C64.9831178,49.6371784 64.9868157,49.6101488 64.9894043,49.5816381 C64.9982793,49.4690763 65.0008679,49.3468876 64.9997585,49.2187746 L64.9997585,49.2150719 L64.9997585,49.2117395 C64.9990189,49.1680477 64.9997585,49.1265776 64.9982793,49.0814048 C64.9712843,48.3030996 64.9457685,47.5177593 64.8252156,46.7505621 C64.8100541,46.6542922 64.7923039,46.5602439 64.7764028,46.4647145 C64.3818323,43.4381366 63.4773157,40.6211308 62.019217,38.0570187 C60.0644847,34.4017242 57.2166993,31.4732675 53.4473867,29.3597726 C49.7427881,27.0492947 45.7401354,25.9103476 41.5000747,26.0055067 C37.2596443,25.9103476 33.2573613,27.0492947 29.5523929,29.3597726 C25.7834501,31.4732675 22.935295,34.4017242 20.9805627,38.0570187 C19.5228338,40.6207605 18.6186869,43.437396 18.2237467,46.463974 C18.2078455,46.5598736 18.1897256,46.6542922 18.1745641,46.7505621 C18.0543809,47.5177593 18.0288651,48.3030996 18.0018702,49.0814048 C18.000391,49.1269479 18.0007608,49.168418 18.000391,49.2121097 C18.000391,49.2132205 18.000391,49.2139611 18.0000212,49.2150719 C18.0000212,49.2161827 18.000391,49.2169232 18.000391,49.218034 C17.9989118,49.3465173 18.0015004,49.4690763 18.0103754,49.5820084 C18.012964,49.6101488 18.0166619,49.6371784 18.0196203,49.6649486 C18.0706519,50.1363009 18.2207883,50.4643591 18.5003528,50.6754124 C18.7336929,50.8679522 19.0450597,50.9745897 19.4399999,50.981995 C19.4755002,50.9823653 19.5113702,50.981995 19.5465007,50.9827356 C19.6407982,50.9882896 19.7387937,50.9923626 19.8430756,50.9923626 C20.0960149,50.9923626 20.3489541,50.9923626 20.6018934,50.9923626 C21.6103223,51.0023598 22.6194907,51.0027301 23.6279196,50.9923626 C26.3544124,50.9927328 29.0809053,50.9927328 31.8070284,50.9927328 C33.2721531,50.995695 34.7365383,50.9934734 36.201663,50.9934734 C37.96817,50.9934734 39.7339375,50.9931031 41.5000747,50.9934734 C43.266212,50.9931031 45.0319794,50.9934734 46.7981167,50.9934734 C48.2632414,50.9934734 49.7283662,50.995695 51.1927513,50.9927328 C53.919614,50.9927328 56.645737,50.9927328 59.3718601,50.9923626 C60.3806588,51.0027301 61.3894574,51.0023598 62.3982561,50.9923626 C62.6511953,50.9923626 62.9037648,50.9923626 63.1567041,50.9923626 C63.260986,50.9923626 63.3589815,50.9882896 63.4536488,50.9827356 C63.4887793,50.981995 63.5242795,50.9823653 63.5597798,50.981995 C63.9550898,50.9745897 64.2660867,50.8679522 64.4994269,50.6754124 C64.7789913,50.4647294 64.9291278,50.1363009 64.9801594,49.6653189 Z" id="Stroke-19" stroke="#676767"></path>
            </g>
        </g>
    </g>
</svg>