<?xml version="1.0" encoding="UTF-8"?>
<svg width="120px" height="86px" viewBox="0 0 120 86" version="1.1" xmlns="http://www.w3.org/2000/svg" xmlns:xlink="http://www.w3.org/1999/xlink">
    <!-- Generator: Sketch 52.6 (67491) - http://www.bohemiancoding.com/sketch -->
    <title>Group 3</title>
    <desc>Created with Sketch.</desc>
    <defs>
        <polygon id="path-1" points="0 0 120 0 120 86 0 86"></polygon>
    </defs>
    <g id="Welcome" stroke="none" stroke-width="1" fill="none" fill-rule="evenodd">
        <g id="Pitch-Training" transform="translate(-202.000000, -2199.000000)">
            <g id="Group-3" transform="translate(202.000000, 2199.000000)">
                <mask id="mask-2" fill="white">
                    <use xlink:href="#path-1"></use>
                </mask>
                <g id="Clip-2"></g>
                <path d="M64.4446115,42.4711099 C64.4602615,39.969755 62.5287885,37.9516462 60.0704316,37.901881 C57.5859913,37.8516793 55.5423598,39.9007822 55.5462723,42.4383696 C55.5501848,44.9240092 57.5316509,46.9425545 59.9795745,46.9547776 C62.4231509,46.966564 64.4289614,44.952384 64.4446115,42.4711099 Z M30.0397868,42.4117409 C30.0350049,44.8642036 32.0355988,46.9111239 34.4796099,46.954341 C36.9088404,46.9966851 39.0781067,44.8144385 39.0294177,42.3781276 C38.9798593,39.9343955 36.911014,37.8892214 34.5000418,37.9014445 C32.0616822,37.914104 30.0450035,39.9531666 30.0397868,42.4117409 Z M89.9510969,42.5186924 C89.9841359,39.9885261 87.9674572,37.9058098 85.4799739,37.9014445 C83.0690017,37.8970791 80.9971133,39.9562224 80.961466,42.3920967 C80.9266882,44.7930482 82.9881433,46.9067585 85.4112877,46.954341 C87.8309543,47.001487 89.9189275,44.9619879 89.9510969,42.5186924 Z M34.4530918,72.3799803 C31.9351779,72.3987514 29.950234,74.4020179 29.9432784,76.9321842 C29.9358881,79.492035 32.0203835,81.59003 34.5352544,81.5555436 C37.0014363,81.5214938 39.0663692,79.4370314 39.0811497,76.9675437 C39.0959303,74.4369409 37.001871,72.3612092 34.4530918,72.3799803 Z M55.4297666,76.9496457 C55.4297666,79.4549294 57.475137,81.5306611 59.9665328,81.553361 C62.4422787,81.5760609 64.5250352,79.5169176 64.5637255,77.0085781 C64.60372,74.4456716 62.5379177,72.3655746 59.9665328,72.3799803 C57.4429675,72.3939495 55.4297666,74.4216621 55.4297666,76.9496457 Z M59.9730537,13.6540175 C62.5005315,13.6653675 64.5241657,11.6730143 64.5606824,9.13673652 C64.5971991,6.59391067 62.4814037,4.45313505 59.9604467,4.4810734 C57.4681814,4.50857521 55.4254194,6.58648955 55.4302014,9.09090017 C55.4341139,11.6206299 57.4477495,13.6431041 59.9730537,13.6540175 Z M106.393179,76.953138 C106.396222,79.4601678 108.401598,81.5088342 110.896472,81.553361 C113.387433,81.5978877 115.534094,79.4640967 115.533224,76.9457169 C115.533224,74.4478543 113.506547,72.4022437 111.008195,72.3773611 C108.44507,72.3520419 106.390136,74.3889218 106.393179,76.953138 Z M9.06789394,72.3782341 C6.55997863,72.3533516 4.49243743,74.3653489 4.44766099,76.8749979 C4.40244983,79.4165142 6.50346468,81.5651475 9.02659528,81.5568533 C11.5071231,81.5485591 13.5733601,79.4702082 13.585967,76.971036 C13.5981393,74.456585 11.5784176,72.4031167 9.06789394,72.3782341 Z M90.0254345,76.9788937 C90.0376068,74.4015814 88.0091906,72.3638284 85.4438919,72.376488 C82.9516266,72.3891476 80.9036479,74.4312659 80.8853896,76.9217074 C80.8675659,79.4239353 83.0172697,81.5804262 85.5038836,81.554234 C87.9974531,81.5280418 90.0128276,79.4885427 90.0254345,76.9788937 Z M120,78.0868236 C119.440077,80.3760217 118.538462,82.4639764 116.603946,83.9525663 C113.712605,86.1784665 110.534782,86.6259166 107.254365,85.1154998 C103.72746,83.4915836 101.912058,80.5458344 102.002045,76.6654604 C102.088555,72.924778 104.004378,70.1968606 107.419994,68.6951746 C108.348997,68.2865763 108.629828,67.8482936 108.594615,66.8996995 C108.528102,65.1042243 108.575487,63.3052569 108.575487,61.4316417 L87.7214042,61.4316417 L87.7214042,68.0831503 C92.971985,70.4775537 95.2894918,74.1911708 94.339188,78.6909903 C93.4488758,82.9031322 89.8606746,85.8816216 85.5751781,85.9654366 C81.4418346,86.0461959 77.7536472,83.127512 76.717703,78.9555315 C75.6104642,74.4928176 77.8132042,70.7726524 83.1668143,68.0993021 L83.1668143,61.4477936 L62.2449145,61.4477936 C62.2449145,63.5440424 62.2136145,65.612353 62.2831701,67.6767347 C62.2922993,67.9452047 62.7774499,68.306657 63.11436,68.4384911 C66.765596,69.8703312 69.1217931,73.3159148 68.9835513,77.0902105 C68.836615,81.1316666 66.3647817,84.4013259 62.5692177,85.5756094 C58.1420016,86.9450248 53.1200849,84.4646237 51.5859485,80.1498957 C49.9083535,75.4326809 52.0780546,70.3658003 56.6178638,68.5943347 C57.495569,68.25209 57.8085693,67.864882 57.7785734,66.9189071 C57.7046706,64.6070091 57.7481428,62.2911823 57.7564026,59.9766651 C57.7642276,57.5992867 58.4819548,56.8728897 60.8229366,56.8720166 C67.8545764,56.8685243 74.8862162,56.870707 81.9174213,56.870707 L83.1937672,56.870707 C83.1937672,55.0451109 83.2307186,53.3299584 83.1559463,51.620481 C83.143774,51.3472091 82.6755777,50.9822645 82.3430148,50.8521766 C76.7533502,48.6590165 74.7275424,42.0118733 78.2027157,37.1409977 C79.2503975,35.672925 80.6167309,34.5715431 82.3338856,33.9948782 C83.0037933,33.7696253 83.2376741,33.4404767 83.2137644,32.7306681 C83.1598588,31.1272691 83.1968102,29.5203778 83.1968102,27.825306 L62.2431757,27.825306 C62.2431757,29.6264562 62.2070937,31.3839526 62.2801271,33.1370837 C62.2918646,33.4177768 62.7448457,33.7997463 63.0743655,33.9302708 C69.7338826,36.5595309 71.1297773,44.9960377 65.574021,49.468792 C62.6987651,51.7837457 59.4374753,52.156548 56.1235841,50.541799 C52.6805802,48.8637522 50.9225616,45.9682048 51.0403715,42.1166421 C51.1577466,38.3017485 53.1235627,35.6017695 56.5891721,34.1223469 C57.5277384,33.7216063 57.8150901,33.289435 57.7720526,32.3408409 C57.7051053,30.8657836 57.754229,29.3854879 57.754229,27.848879 L36.7971166,27.848879 C36.7971166,29.6705464 36.7684249,31.4267332 36.8279819,33.1798643 C36.8366764,33.444842 37.2040171,33.8150251 37.4896299,33.9350727 C41.2799772,35.5284314 43.6409562,38.7522543 43.4974977,42.4981751 C43.3414323,46.5819753 41.2904105,49.4024384 37.5104966,50.9730972 C37.1927143,51.1049313 36.8284167,51.6108772 36.8253736,51.9461373 C36.7823361,57.1234617 36.8084194,62.3020957 36.779293,67.4798567 C36.7758152,68.1521231 37.1183767,68.3018551 37.6296106,68.5096466 C41.2825855,69.9951807 43.3427365,72.7527826 43.4618505,76.684668 C43.5727048,80.3432814 41.9098904,83.1742215 38.6481659,84.9378294 C34.1040094,87.3950941 28.4117503,85.3835333 26.2477007,80.5816304 C24.1718997,75.975296 26.4946232,70.2911525 31.248316,68.5624675 C32.1725365,68.2258978 32.4042437,67.805513 32.3699006,66.8983899 C32.3012144,65.1042243 32.3494686,63.3056934 32.3494686,61.4394994 L11.4219174,61.4394994 C11.4219174,63.556702 11.3910521,65.6590624 11.460173,67.758367 C11.4688675,68.0307659 11.9479319,68.3957105 12.2839725,68.5336561 C17.4576075,70.6582798 19.5281918,76.5087437 16.8211734,81.4228365 C14.9762103,84.771509 10.8950335,86.618932 7.13815983,85.8052277 C3.13958036,84.9395756 0.237371555,81.458196 0.0113157463,77.2552213 C-0.189526145,73.5184678 2.30317387,69.7306395 5.89485288,68.5074639 C6.76821081,68.2097459 7.02165415,67.829086 6.99861384,66.9437897 C6.93688322,64.5912938 6.97209576,62.2366152 6.97948604,59.8832463 C6.98644161,57.650798 7.72068826,56.906503 9.92386295,56.9051934 C16.9163777,56.9012646 23.9088925,56.9038838 30.9014073,56.9038838 L32.342513,56.9038838 C32.342513,55.0983683 32.3672922,53.3500391 32.3107783,51.6047657 C32.303388,51.3899897 31.8943139,51.1040582 31.6152219,50.994051 C27.7648829,49.4775227 25.4825887,46.2842573 25.5004123,42.3916602 C25.5173665,38.527438 27.7831413,35.3180207 31.5839219,33.9132458 C32.2555685,33.665293 32.3681617,33.3239214 32.3599019,32.7088413 C32.3325144,30.6300539 32.3477297,28.5508299 32.3499033,26.4720425 C32.3525117,23.9903318 33.0771944,23.2739752 35.5911958,23.2731021 C42.5058952,23.2717925 49.4201599,23.2726656 56.3344246,23.2726656 L57.7485776,23.2726656 C57.7485776,21.5714823 57.7959623,19.9755044 57.7064095,18.3873842 C57.6894553,18.0883566 57.175613,17.7076966 56.8117501,17.5549088 C53.6887022,16.240497 51.6789791,13.9517355 51.139923,10.6074284 C50.5886946,7.18978317 51.6515916,4.2248264 54.4077336,2.04563556 C57.3077687,-0.246618268 60.5542779,-0.619857084 63.8559969,0.963461261 C67.3085647,2.61924469 69.0661486,5.53138052 68.950947,9.38032396 C68.8370497,13.1886695 66.8877531,15.8956331 63.4138839,17.3807307 C62.5005315,17.771431 62.1588394,18.18876 62.2179617,19.160054 C62.2979507,20.4797042 62.237959,21.8080852 62.237959,23.2726656 L63.7247106,23.2726656 C70.6389753,23.2726656 77.55324,23.271356 84.4679394,23.2735386 C86.9028213,23.2744117 87.6383721,24.0064836 87.6418499,26.4218408 C87.644893,28.5399165 87.663586,30.6584287 87.6292429,32.7765045 C87.619679,33.3863461 87.8209557,33.6482681 88.3995716,33.8608614 C92.1794855,35.2512306 94.4704742,38.4728709 94.4900367,42.3349104 C94.510034,46.2340556 92.2238273,49.4286306 88.3860952,50.9434127 C88.0778768,51.0652064 87.6888,51.4803528 87.6766277,51.7737054 C87.6079415,53.41421 87.6435888,55.05908 87.6435888,56.870707 L89.0760001,56.870707 C96.0293898,56.870707 102.98278,56.8689609 109.936604,56.8715801 C112.318015,56.8724532 113.009224,57.5626176 113.013571,59.939996 C113.017484,62.3719416 112.989227,64.8047602 113.042263,67.2353961 C113.050088,67.5937927 113.350481,68.1586711 113.645658,68.2647495 C116.971287,69.4608599 119.032307,71.7496214 119.82046,75.2043723 C119.844369,75.3104507 119.938269,75.4003772 120,75.4977249 L120,78.0868236 Z" id="Fill-1" fill="#676767" mask="url(#mask-2)"></path>
            </g>
        </g>
    </g>
</svg>