<?xml version="1.0" encoding="UTF-8"?>
<svg width="93px" height="82px" viewBox="0 0 93 82" version="1.1" xmlns="http://www.w3.org/2000/svg" xmlns:xlink="http://www.w3.org/1999/xlink">
    <!-- Generator: Sketch 52.6 (67491) - http://www.bohemiancoding.com/sketch -->
    <title>Group 13</title>
    <desc>Created with Sketch.</desc>
    <g id="Welcome" stroke="none" stroke-width="1" fill="none" fill-rule="evenodd">
        <g id="Pitch-Training" transform="translate(-215.000000, -2441.000000)">
            <g id="Group-13" transform="translate(216.000000, 2442.000000)">
                <path d="M88.0493422,6.34114103 C87.403222,10.0379724 85.6649115,14.3606888 83.8910928,17.6500627 C83.3239147,18.520612 82.8248994,19.2811572 82.3934128,19.949084 C82.1137867,20.3568576 81.8236984,20.7750627 81.5215627,21.1938999 C81.2932965,21.4954627 80.6747585,22.2910955 80.443956,22.5907616 C75.4392194,29.0857419 69.3850923,34.3251587 61.9068377,37.8105168 C60.0249096,38.6877042 58.033287,39.3290784 56.0920731,40.0788761 C55.8089596,40.0520073 55.7667937,39.7779455 55.8089596,39.7359037 C56.125996,39.4198001 56.5276811,39.2351956 56.8155501,38.9488058 C64.2395915,31.5617812 71.655707,24.166538 79.0705543,16.7700303 C79.9252845,15.9171829 80.0251509,15.1854031 79.4018574,14.5614146 C78.7744423,13.9342651 78.0535016,14.040792 77.1892603,14.8888979 C77.099222,14.9774069 77.0104518,15.0668642 76.9207305,15.1560055 C69.5268076,22.5284892 62.1319335,29.9000247 54.7446684,37.2797789 C54.5274984,37.4966259 54.3971965,37.7994532 54.2259968,38.0624513 C54.8870177,25.9528393 76.4794158,5.71051439 88.0829481,5.9852084 C88.0718518,6.10564387 88.0696326,6.22513102 88.0493422,6.34114103 Z M86.2742554,70.1513901 C87.6413164,73.7948 85.4664467,77.1907007 81.6039922,77.2681461 C77.9415877,77.3417983 74.276964,77.2969115 70.6132913,77.2972277 C57.3798749,77.2991243 44.1464585,77.2978599 30.9130422,77.2978599 L29.5126924,77.2978599 C30.9777176,74.9994707 31.1787187,72.6501889 30.9444288,70.1513901 L86.2742554,70.1513901 Z M27.8818571,74.698224 C27.227177,76.3580839 25.8743827,77.0108378 24.2026497,77.2501282 C22.489702,77.4951085 21.1927061,76.8828159 20.4124795,75.3873298 C19.8345222,74.2803351 19.2210568,73.1161256 19.0083253,71.9092421 C18.3913725,68.414401 17.864775,64.8977486 17.480844,61.3675039 C17.341982,60.0898132 17.3036206,58.5178301 17.2503585,57.0400459 C17.2506755,56.5349123 17.2452859,56.0310432 17.2354578,55.5439276 C17.1815616,52.8987729 17.159369,50.2526698 17.1476387,47.6065667 C17.1130817,39.7956473 17.1948771,31.982199 17.0271649,24.1741245 C16.941248,20.1855295 16.5329051,16.1931413 16.0598868,12.2276219 C15.6651765,8.91833352 14.8120315,5.69439311 12.9044235,2.74862385 C13.3134005,2.72902543 13.5898562,2.70436935 13.866312,2.70436935 C31.0525382,2.70247273 48.2387644,2.71353635 65.4246736,2.68603534 C67.1322316,2.68319041 68.4130587,3.33720872 69.1577772,4.78654363 C69.8565254,6.14642123 70.3178134,7.62705039 70.8960878,9.04983261 C71.2518026,9.92607173 71.0498504,10.4745114 70.2204832,11.0697345 C66.1202515,14.013291 62.5380572,17.5154026 59.4672426,21.5150612 C58.9203548,22.2272425 58.3725159,22.4504117 57.5044702,22.448515 C46.3527149,22.4194335 35.2006424,22.4289166 24.048253,22.4304971 C23.7014152,22.4308132 23.3409448,22.3963579 23.0105928,22.4753838 C22.3169172,22.6410221 21.9155491,23.1000045 21.9573979,23.8381064 C21.9989297,24.5717828 22.4256607,24.9861946 23.1500889,25.0696459 C23.4623697,25.1053656 23.7813083,25.0829223 24.0970766,25.0829223 C34.6489991,25.0832384 45.2009216,25.0832384 55.7525271,25.0832384 L56.8092094,25.0832384 C56.0524435,26.4026547 55.3438672,27.5216614 54.758935,28.7019922 C54.4054394,29.4144896 53.9913899,29.6752751 53.17407,29.6727462 C43.4752925,29.6405037 33.7765149,29.6515673 24.0777374,29.65378 C23.7308995,29.65378 23.3745506,29.6329172 23.0400772,29.7034083 C22.3372075,29.8513448 21.9282306,30.2995796 21.9564468,31.0376815 C21.984029,31.7691452 22.393957,32.2015749 23.1266282,32.2853423 C23.4702956,32.3245392 23.8203038,32.3128433 24.1674587,32.3128433 C33.3608802,32.3141078 42.5543017,32.3137917 51.7477233,32.3137917 L52.9315372,32.3137917 C52.4921247,33.6076036 52.0267153,34.741151 51.7353589,35.9173725 C51.5330896,36.733868 51.1393304,36.9121504 50.3578357,36.9099377 C41.5752933,36.8843333 32.792751,36.8931842 24.0098916,36.8944486 C22.5543775,36.8947647 21.9374246,37.3025383 21.9507402,38.2410499 C21.9637387,39.1688139 22.5816426,39.5588857 24.0473019,39.5592018 C32.5771662,39.5595179 41.1070306,39.5592018 49.6368949,39.5595179 L50.7370112,39.5595179 C50.7934437,40.8087592 50.4494592,41.7159765 49.5484418,42.4831599 C48.5187075,43.3603473 47.6046916,44.3737754 46.6542165,45.3410524 C45.9418357,46.0655618 45.8806477,46.8409639 46.4605072,47.4102664 C47.0213446,47.961551 47.8373963,47.8916922 48.5500941,47.1975287 C49.4996182,46.273874 50.4580192,45.3562253 51.3599878,44.3873679 C52.0273494,43.670445 52.7169036,43.1453969 53.7700985,43.124218 C54.4843815,43.1096772 55.1996156,42.8906174 55.9053386,42.7243469 C61.7812913,41.3385488 66.9676897,38.5473542 71.7673038,34.97001 C72.0225181,34.7793996 72.2869265,34.6017494 72.6787835,34.3251587 C72.7206323,45.4795057 72.2970716,56.4305982 73.5141744,67.4212035 L72.317362,67.4212035 C58.2269962,67.4212035 44.1369475,67.4208874 30.0468987,67.4215196 C28.2619838,67.4218357 27.8558602,67.9351879 28.1548255,69.6705966 C28.4455479,71.3604863 28.5295625,73.0557498 27.8818571,74.698224 Z M2.82932375,9.86127049 C2.53701619,8.13502885 2.63910191,6.4969801 3.33943532,4.87378822 C4.29371488,2.66137926 8.98173213,1.58251774 10.7682322,4.3958396 C11.8296701,6.06739533 12.4504274,7.88277819 12.9079109,9.86127049 L2.82932375,9.86127049 Z M88.9909403,3.03912304 C85.1861865,3.48451298 81.5963833,4.62216977 78.1647813,6.27570759 C76.6350807,7.01286114 75.1535696,7.85021952 73.6558896,8.63921406 C73.1308774,7.26637621 72.6816368,5.85876697 72.0656351,4.5279709 C70.6675045,1.50728509 68.4086202,-0.0144375392 64.905368,0.000103225431 C46.2030737,0.0784969132 27.5001453,0.0361390335 8.79753398,0.0405644836 C8.00874742,0.0408805872 7.21647346,0.0585823877 6.43149133,0.129073486 C3.41647516,0.399974254 1.18327076,2.27889393 0.38782643,5.18198921 C-0.148599159,7.13993478 -0.0851918792,9.10862787 0.313639912,11.0757404 C0.562830523,12.3053834 0.918862401,12.5766002 2.1974702,12.5781808 C5.60909891,12.581974 9.02136168,12.5794452 12.4329904,12.5794452 L13.4865023,12.5794452 C13.6802116,14.4359215 13.9728362,16.1539445 14.0194405,17.8782895 C14.2229779,25.4009225 14.3840324,32.9254521 14.502604,40.4499817 C14.5786927,45.2996428 14.554598,50.1505683 14.5758394,55.0011778 C14.5764735,55.1902077 14.5758394,55.3792376 14.5856675,55.5682676 C14.589472,55.6419197 14.5999342,55.7582458 14.615469,55.9033374 C14.5425506,58.2292275 14.7704998,60.9417123 14.8186893,61.541993 C14.9768905,63.5185887 15.129385,65.4983454 15.3874526,67.4632453 C15.7691644,70.3698177 16.3382448,73.2403543 17.6460199,75.9044753 C18.9899372,78.6428806 21.052259,80.0125574 24.2590822,79.9999133 C42.9927631,79.9262611 61.7270781,79.9648258 80.461076,79.9600842 C81.2184759,79.9597681 81.9787292,79.9389053 82.7329588,79.8747362 C85.7200758,79.6199568 87.9225277,77.820063 88.7740874,74.9498425 C89.36219,72.9694535 89.2724687,70.9685179 88.9132664,68.9647373 C88.6973646,67.7632276 88.2928262,67.4253129 87.0592375,67.422784 C84.2788283,67.4177264 81.4990532,67.4212035 78.7186439,67.4212035 L76.1119706,67.4212035 C75.8903622,64.0025433 75.5394029,60.6809269 75.487726,57.3542528 C75.3678862,49.6707231 75.4398535,41.9837163 75.3219159,34.2998704 C75.2971871,32.68711 75.7946172,31.6164672 76.924852,30.468379 C79.1742252,28.1832662 81.1981856,25.6746682 83.2738229,23.2239171 C83.6789954,22.7456524 85.1430695,20.7099453 86.0780099,18.8749641 C86.2454051,18.5914192 86.4166048,18.2968106 86.593194,17.986713 C87.7183562,15.4288028 88.874588,12.8762664 89.8212587,10.2510262 C90.4014353,8.64205899 90.6192393,6.9031732 91,5.22245046 L91,3.89955698 C90.5272987,3.15355254 89.8903726,2.93417665 88.9909403,3.03912304 Z" id="Fill-1" fill="#676767"></path>
                <path d="M88.0493422,6.34114103 C87.403222,10.0379724 85.6649115,14.3606888 83.8910928,17.6500627 C83.3239147,18.520612 82.8248994,19.2811572 82.3934128,19.949084 C82.1137867,20.3568576 81.8236984,20.7750627 81.5215627,21.1938999 C81.2932965,21.4954627 80.6747585,22.2910955 80.443956,22.5907616 C75.4392194,29.0857419 69.3850923,34.3251587 61.9068377,37.8105168 C60.0249096,38.6877042 58.033287,39.3290784 56.0920731,40.0788761 C55.8089596,40.0520073 55.7667937,39.7779455 55.8089596,39.7359037 C56.125996,39.4198001 56.5276811,39.2351956 56.8155501,38.9488058 C64.2395915,31.5617812 71.655707,24.166538 79.0705543,16.7700303 C79.9252845,15.9171829 80.0251509,15.1854031 79.4018574,14.5614146 C78.7744423,13.9342651 78.0535016,14.040792 77.1892603,14.8888979 C77.099222,14.9774069 77.0104518,15.0668642 76.9207305,15.1560055 C69.5268076,22.5284892 62.1319335,29.9000247 54.7446684,37.2797789 C54.5274984,37.4966259 54.3971965,37.7994532 54.2259968,38.0624513 C54.8870177,25.9528393 76.4794158,5.71051439 88.0829481,5.9852084 C88.0718518,6.10564387 88.0696326,6.22513102 88.0493422,6.34114103 Z M86.2742554,70.1513901 C87.6413164,73.7948 85.4664467,77.1907007 81.6039922,77.2681461 C77.9415877,77.3417983 74.276964,77.2969115 70.6132913,77.2972277 C57.3798749,77.2991243 44.1464585,77.2978599 30.9130422,77.2978599 L29.5126924,77.2978599 C30.9777176,74.9994707 31.1787187,72.6501889 30.9444288,70.1513901 L86.2742554,70.1513901 Z M27.8818571,74.698224 C27.227177,76.3580839 25.8743827,77.0108378 24.2026497,77.2501282 C22.489702,77.4951085 21.1927061,76.8828159 20.4124795,75.3873298 C19.8345222,74.2803351 19.2210568,73.1161256 19.0083253,71.9092421 C18.3913725,68.414401 17.864775,64.8977486 17.480844,61.3675039 C17.341982,60.0898132 17.3036206,58.5178301 17.2503585,57.0400459 C17.2506755,56.5349123 17.2452859,56.0310432 17.2354578,55.5439276 C17.1815616,52.8987729 17.159369,50.2526698 17.1476387,47.6065667 C17.1130817,39.7956473 17.1948771,31.982199 17.0271649,24.1741245 C16.941248,20.1855295 16.5329051,16.1931413 16.0598868,12.2276219 C15.6651765,8.91833352 14.8120315,5.69439311 12.9044235,2.74862385 C13.3134005,2.72902543 13.5898562,2.70436935 13.866312,2.70436935 C31.0525382,2.70247273 48.2387644,2.71353635 65.4246736,2.68603534 C67.1322316,2.68319041 68.4130587,3.33720872 69.1577772,4.78654363 C69.8565254,6.14642123 70.3178134,7.62705039 70.8960878,9.04983261 C71.2518026,9.92607173 71.0498504,10.4745114 70.2204832,11.0697345 C66.1202515,14.013291 62.5380572,17.5154026 59.4672426,21.5150612 C58.9203548,22.2272425 58.3725159,22.4504117 57.5044702,22.448515 C46.3527149,22.4194335 35.2006424,22.4289166 24.048253,22.4304971 C23.7014152,22.4308132 23.3409448,22.3963579 23.0105928,22.4753838 C22.3169172,22.6410221 21.9155491,23.1000045 21.9573979,23.8381064 C21.9989297,24.5717828 22.4256607,24.9861946 23.1500889,25.0696459 C23.4623697,25.1053656 23.7813083,25.0829223 24.0970766,25.0829223 C34.6489991,25.0832384 45.2009216,25.0832384 55.7525271,25.0832384 L56.8092094,25.0832384 C56.0524435,26.4026547 55.3438672,27.5216614 54.758935,28.7019922 C54.4054394,29.4144896 53.9913899,29.6752751 53.17407,29.6727462 C43.4752925,29.6405037 33.7765149,29.6515673 24.0777374,29.65378 C23.7308995,29.65378 23.3745506,29.6329172 23.0400772,29.7034083 C22.3372075,29.8513448 21.9282306,30.2995796 21.9564468,31.0376815 C21.984029,31.7691452 22.393957,32.2015749 23.1266282,32.2853423 C23.4702956,32.3245392 23.8203038,32.3128433 24.1674587,32.3128433 C33.3608802,32.3141078 42.5543017,32.3137917 51.7477233,32.3137917 L52.9315372,32.3137917 C52.4921247,33.6076036 52.0267153,34.741151 51.7353589,35.9173725 C51.5330896,36.733868 51.1393304,36.9121504 50.3578357,36.9099377 C41.5752933,36.8843333 32.792751,36.8931842 24.0098916,36.8944486 C22.5543775,36.8947647 21.9374246,37.3025383 21.9507402,38.2410499 C21.9637387,39.1688139 22.5816426,39.5588857 24.0473019,39.5592018 C32.5771662,39.5595179 41.1070306,39.5592018 49.6368949,39.5595179 L50.7370112,39.5595179 C50.7934437,40.8087592 50.4494592,41.7159765 49.5484418,42.4831599 C48.5187075,43.3603473 47.6046916,44.3737754 46.6542165,45.3410524 C45.9418357,46.0655618 45.8806477,46.8409639 46.4605072,47.4102664 C47.0213446,47.961551 47.8373963,47.8916922 48.5500941,47.1975287 C49.4996182,46.273874 50.4580192,45.3562253 51.3599878,44.3873679 C52.0273494,43.670445 52.7169036,43.1453969 53.7700985,43.124218 C54.4843815,43.1096772 55.1996156,42.8906174 55.9053386,42.7243469 C61.7812913,41.3385488 66.9676897,38.5473542 71.7673038,34.97001 C72.0225181,34.7793996 72.2869265,34.6017494 72.6787835,34.3251587 C72.7206323,45.4795057 72.2970716,56.4305982 73.5141744,67.4212035 L72.317362,67.4212035 C58.2269962,67.4212035 44.1369475,67.4208874 30.0468987,67.4215196 C28.2619838,67.4218357 27.8558602,67.9351879 28.1548255,69.6705966 C28.4455479,71.3604863 28.5295625,73.0557498 27.8818571,74.698224 Z M2.82932375,9.86127049 C2.53701619,8.13502885 2.63910191,6.4969801 3.33943532,4.87378822 C4.29371488,2.66137926 8.98173213,1.58251774 10.7682322,4.3958396 C11.8296701,6.06739533 12.4504274,7.88277819 12.9079109,9.86127049 L2.82932375,9.86127049 Z M88.9909403,3.03912304 C85.1861865,3.48451298 81.5963833,4.62216977 78.1647813,6.27570759 C76.6350807,7.01286114 75.1535696,7.85021952 73.6558896,8.63921406 C73.1308774,7.26637621 72.6816368,5.85876697 72.0656351,4.5279709 C70.6675045,1.50728509 68.4086202,-0.0144375392 64.905368,0.000103225431 C46.2030737,0.0784969132 27.5001453,0.0361390335 8.79753398,0.0405644836 C8.00874742,0.0408805872 7.21647346,0.0585823877 6.43149133,0.129073486 C3.41647516,0.399974254 1.18327076,2.27889393 0.38782643,5.18198921 C-0.148599159,7.13993478 -0.0851918792,9.10862787 0.313639912,11.0757404 C0.562830523,12.3053834 0.918862401,12.5766002 2.1974702,12.5781808 C5.60909891,12.581974 9.02136168,12.5794452 12.4329904,12.5794452 L13.4865023,12.5794452 C13.6802116,14.4359215 13.9728362,16.1539445 14.0194405,17.8782895 C14.2229779,25.4009225 14.3840324,32.9254521 14.502604,40.4499817 C14.5786927,45.2996428 14.554598,50.1505683 14.5758394,55.0011778 C14.5764735,55.1902077 14.5758394,55.3792376 14.5856675,55.5682676 C14.589472,55.6419197 14.5999342,55.7582458 14.615469,55.9033374 C14.5425506,58.2292275 14.7704998,60.9417123 14.8186893,61.541993 C14.9768905,63.5185887 15.129385,65.4983454 15.3874526,67.4632453 C15.7691644,70.3698177 16.3382448,73.2403543 17.6460199,75.9044753 C18.9899372,78.6428806 21.052259,80.0125574 24.2590822,79.9999133 C42.9927631,79.9262611 61.7270781,79.9648258 80.461076,79.9600842 C81.2184759,79.9597681 81.9787292,79.9389053 82.7329588,79.8747362 C85.7200758,79.6199568 87.9225277,77.820063 88.7740874,74.9498425 C89.36219,72.9694535 89.2724687,70.9685179 88.9132664,68.9647373 C88.6973646,67.7632276 88.2928262,67.4253129 87.0592375,67.422784 C84.2788283,67.4177264 81.4990532,67.4212035 78.7186439,67.4212035 L76.1119706,67.4212035 C75.8903622,64.0025433 75.5394029,60.6809269 75.487726,57.3542528 C75.3678862,49.6707231 75.4398535,41.9837163 75.3219159,34.2998704 C75.2971871,32.68711 75.7946172,31.6164672 76.924852,30.468379 C79.1742252,28.1832662 81.1981856,25.6746682 83.2738229,23.2239171 C83.6789954,22.7456524 85.1430695,20.7099453 86.0780099,18.8749641 C86.2454051,18.5914192 86.4166048,18.2968106 86.593194,17.986713 C87.7183562,15.4288028 88.874588,12.8762664 89.8212587,10.2510262 C90.4014353,8.64205899 90.6192393,6.9031732 91,5.22245046 L91,3.89955698 C90.5272987,3.15355254 89.8903726,2.93417665 88.9909403,3.03912304 Z" id="Stroke-3" stroke="#676767" stroke-width="1.5"></path>
                <path d="M23.0052859,17.6635272 C26.0099526,17.6714782 29.014298,17.6661775 32.0189647,17.6661775 C35.0236315,17.6665088 38.0286195,17.698313 41.0320009,17.6347046 C41.5281196,17.6241032 42.1913248,17.3266014 42.4724801,16.9316993 C43.1501448,15.9785672 42.3249941,14.8899359 40.9722354,14.8886108 C34.9950339,14.8816536 29.0178325,14.8826475 23.0406311,14.8882795 C21.9317545,14.8889421 21.3392398,15.4064229 21.3575551,16.3118487 C21.3749064,17.1821574 21.9385023,17.6605455 23.0052859,17.6635272" id="Fill-5" fill="#676767"></path>
                <path d="M23.0052859,17.6635272 C26.0099526,17.6714782 29.014298,17.6661775 32.0189647,17.6661775 C35.0236315,17.6665088 38.0286195,17.698313 41.0320009,17.6347046 C41.5281196,17.6241032 42.1913248,17.3266014 42.4724801,16.9316993 C43.1501448,15.9785672 42.3249941,14.8899359 40.9722354,14.8886108 C34.9950339,14.8816536 29.0178325,14.8826475 23.0406311,14.8882795 C21.9317545,14.8889421 21.3392398,15.4064229 21.3575551,16.3118487 C21.3749064,17.1821574 21.9385023,17.6605455 23.0052859,17.6635272 Z" id="Stroke-7" stroke="#676767" stroke-width="1.5"></path>
                <path d="M57.3709901,61.381845 C60.5857619,61.4000149 63.8005336,61.3993542 67.0153053,61.3828361 C68.0689829,61.37722 68.7052776,60.8232036 68.7141791,59.9946568 C68.72374,59.1637975 68.0897531,58.6229956 67.0357458,58.6127544 C65.4285248,58.5972274 63.8209741,58.60879 62.2137531,58.60879 C60.6062024,58.60879 58.9986517,58.5982185 57.3914307,58.612424 C56.2843439,58.6223349 55.7192615,59.0977252 55.7143162,59.9725226 C55.7093709,60.8308019 56.3067626,61.3758985 57.3709901,61.381845" id="Fill-9" fill="#676767"></path>
                <path d="M57.3709901,61.381845 C60.5857619,61.4000149 63.8005336,61.3993542 67.0153053,61.3828361 C68.0689829,61.37722 68.7052776,60.8232036 68.7141791,59.9946568 C68.72374,59.1637975 68.0897531,58.6229956 67.0357458,58.6127544 C65.4285248,58.5972274 63.8209741,58.60879 62.2137531,58.60879 C60.6062024,58.60879 58.9986517,58.5982185 57.3914307,58.612424 C56.2843439,58.6223349 55.7192615,59.0977252 55.7143162,59.9725226 C55.7093709,60.8308019 56.3067626,61.3758985 57.3709901,61.381845 Z" id="Stroke-11" stroke="#676767" stroke-width="1.5"></path>
            </g>
        </g>
    </g>
</svg>