<?xml version="1.0" encoding="UTF-8"?>
<svg width="81px" height="80px" viewBox="0 0 81 80" version="1.1" xmlns="http://www.w3.org/2000/svg" xmlns:xlink="http://www.w3.org/1999/xlink">
    <!-- Generator: Sketch 52.6 (67491) - http://www.bohemiancoding.com/sketch -->
    <title>Group 25</title>
    <desc>Created with Sketch.</desc>
    <defs>
        <polygon id="path-1" points="0.0702510058 0.195066667 7.70086957 0.195066667 7.70086957 12.7858756 0.0702510058 12.7858756"></polygon>
        <polygon id="path-3" points="0 0.3151 7.70476322 0.3151 7.70476322 12.9123396 0 12.9123396"></polygon>
        <polygon id="path-5" points="0.0788928099 0.250333333 12.9806522 0.250333333 12.9806522 8.84645107 0.0788928099 8.84645107"></polygon>
        <polygon id="path-7" points="0.223897998 0.238610526 12.9420375 0.238610526 12.9420375 6 0.223897998 6"></polygon>
    </defs>
    <g id="Welcome" stroke="none" stroke-width="1" fill="none" fill-rule="evenodd">
        <g id="Pitch-Training" transform="translate(-722.000000, -2200.000000)">
            <g id="Group-25" transform="translate(722.000000, 2200.000000)">
                <g id="Group-3" transform="translate(73.000000, 40.000000)">
                    <mask id="mask-2" fill="white">
                        <use xlink:href="#path-1"></use>
                    </mask>
                    <g id="Clip-2"></g>
                    <path d="M7.70090435,3.4694 C7.70090435,3.60006667 7.68629565,3.73006667 7.65707826,3.85806667 C7.08594783,6.37006667 6.52455652,8.88406667 5.93394783,11.3920667 C5.93255652,11.3980667 5.93116522,11.4040667 5.92942609,11.4097333 C5.67933913,12.4580667 4.5029913,13.0424 3.44768696,12.6764 L1.35655652,11.9510667 C0.456382609,11.6390667 -0.0618782609,10.7784 0.0995130435,9.9024 C0.606295652,7.15473333 1.09951304,4.4784 1.61046957,1.70673333 C1.77151304,0.832733333 2.5642087,0.195066667 3.49081739,0.195066667 L5.79168696,0.195066667 C6.84594783,0.195066667 7.70090435,1.0144 7.70090435,2.02473333 L7.70090435,3.4694 Z" id="Fill-1" fill="#676767" mask="url(#mask-2)"></path>
                </g>
                <path d="M52.6511632,40.996009 C50.978826,42.6318969 50.3112022,44.3983882 50.7614601,46.7696687 C51.4232185,50.2547751 51.8696811,53.7817732 52.4941767,57.8547713 C49.2154022,56.0259705 46.37895,54.5685624 43.6708472,52.8953593 C41.477867,51.5407442 39.53434,51.5678505 37.3486054,52.9456997 C34.6498182,54.6467132 31.7950797,56.0907442 28.5704741,57.8896224 C29.2049755,53.7356571 29.6828354,50.0509492 30.3583947,46.4039085 C30.7330921,44.3828988 30.2455715,42.8005197 28.8137169,41.450833 C26.1335611,38.9232508 23.4468499,36.4027092 20.7628988,33.8793513 C20.9347214,33.6107517 21.1061989,33.3421521 21.2780214,33.0732005 C24.5505855,32.5616995 27.8141789,31.9769761 31.0981288,31.5626357 C33.4877733,31.2612972 35.1052515,30.190419 36.0720121,27.85927 C37.3672367,24.7356994 38.8787921,21.705769 40.5397435,18.1101249 C42.230367,21.7592777 43.7577935,24.8068097 45.0592286,27.9511501 C45.9928668,30.2073165 47.5599713,31.2387672 49.8478334,31.5425699 C53.1597303,31.9815525 56.4554111,32.5416337 60.2372323,33.124597 C57.5322347,35.945773 55.1591514,38.5427054 52.6511632,40.996009 M63.7043906,35.5310806 C64.7077239,34.4999819 65.2856411,33.3484887 64.8567748,31.907978 C64.422043,30.4484577 63.3051964,29.8774635 61.8788622,29.6680051 C58.2674834,29.1385505 54.675081,28.4640592 51.0564567,28.0021946 C49.6987825,27.8293474 48.9631888,27.2925002 48.4135636,26.0167401 C46.8747512,22.4436259 45.1813675,18.9402139 43.5804506,15.3942061 C42.9583701,14.017061 42.0771758,12.9922989 40.5011006,13.0000436 C38.9308909,13.0077883 38.0545269,14.0233976 37.4324465,15.4075833 C35.7866763,19.066593 34.0560299,22.6861752 32.4351014,26.3560979 C31.9862237,27.3731153 31.3727688,27.8103377 30.3025007,27.9599509 C26.569328,28.4820128 22.8540966,29.1318619 19.122994,29.6715254 C17.6921745,29.8785196 16.5842986,30.4607788 16.1443915,31.9132585 C15.7062094,33.3601057 16.3134538,34.4932933 17.3171321,35.5226318 C20.0621526,38.3374713 22.7409283,41.2199007 25.4994048,44.0203069 C26.25432,44.7866783 26.487212,45.4865159 26.2902026,46.5933012 C25.5204513,50.9155372 24.8838798,55.2620633 24.2531738,59.2495179 C24.1714028,62.3248603 26.4730659,63.8139512 28.9044585,62.5086205 C32.3971487,60.6337036 35.7997872,58.5841794 39.3073134,56.7402413 C39.9549258,56.3998274 41.0648718,56.3857461 41.7076538,56.7236958 C45.0561234,58.4827945 48.3286874,60.3936185 51.6140174,62.2748719 C52.8906107,63.0060402 54.1582333,63.3749686 55.4855452,62.4512394 C56.8252781,61.5187094 56.9129145,60.1690228 56.6772623,58.6978854 C56.0217144,54.6023573 55.3378744,50.5103496 54.784454,46.4007402 C54.6899171,45.6994946 54.9742179,44.7159201 55.442072,44.2037151 C58.1343037,41.2533437 60.9200372,38.3920361 63.7043906,35.5310806" id="Fill-4" fill="#676767"></path>
                <g id="Group-8" transform="translate(0.000000, 40.000000)">
                    <mask id="mask-4" fill="white">
                        <use xlink:href="#path-3"></use>
                    </mask>
                    <g id="Clip-7"></g>
                    <path d="M1.9098087,0.3151 L4.26633043,0.3151 C5.19050435,0.3151 5.9818087,0.949766667 6.14563478,1.82143333 C6.6552,4.5341 7.15676522,7.2061 7.67433043,9.96376667 C7.83850435,10.8374333 7.32511304,11.6984333 6.45589565,12.0054333 L4.17276522,12.8114333 C3.13589565,13.1777667 1.92024348,12.5107667 1.70946087,11.3911 C1.14528696,8.39143333 0.594330435,5.4651 0.0308521739,2.47143333 C-0.180626087,1.34876667 0.719547826,0.3151 1.9098087,0.3151" id="Fill-6" fill="#676767" mask="url(#mask-4)"></path>
                </g>
                <g id="Group-11" transform="translate(47.000000, 0.000000)">
                    <mask id="mask-6" fill="white">
                        <use xlink:href="#path-5"></use>
                    </mask>
                    <g id="Clip-10"></g>
                    <path d="M2.73598684,0.290366667 C5.98735526,0.957366667 9.00164474,2.06136667 11.9625658,3.5157 C12.9156711,3.98403333 13.2615395,5.14403333 12.7333289,6.04736667 C12.35975,6.68703333 11.9940395,7.31303333 11.6379079,7.9227 C11.1863289,8.69603333 10.2304868,9.0387 9.37146053,8.73836667 C6.68046053,7.7967 4.03769737,6.87136667 1.32309211,5.9217 C0.463723684,5.62103333 -0.0497763158,4.76236667 0.106907895,3.88603333 C0.229039474,3.20336667 0.355618421,2.49603333 0.485618421,1.76803333 C0.668644737,0.7427 1.69085526,0.0760333333 2.73598684,0.290366667" id="Fill-9" fill="#676767" mask="url(#mask-6)"></path>
                </g>
                <path d="M6.60831998,27.8836718 C5.87773687,27.6317918 5.12519532,27.3728464 4.34734574,27.1047161 C3.25128498,26.727426 2.71200076,25.5574026 3.15526336,24.5339855 C4.51222008,21.3976729 6.2867592,18.5273712 8.46994849,15.7626965 C9.16405827,14.8837659 10.5012896,14.7463447 11.394514,15.4451086 C12.0253537,15.9382706 12.6465169,16.4243673 13.257259,16.9016322 C14.0276651,17.503954 14.2245466,18.544328 13.7262019,19.3653226 C12.1853898,21.9039059 10.6561152,24.4237659 9.07548019,27.0277037 C8.58048501,27.8433993 7.54025077,28.2044391 6.60831998,27.8836718" id="Fill-12" fill="#676767"></path>
                <path d="M22.3731511,8.05762253 C22.0146952,7.44182525 21.643462,6.80350303 21.2584154,6.14230933 C20.7169329,5.21150939 21.0560501,4.01872705 21.9988099,3.50273259 C24.9293076,1.89930321 28.0207306,0.823304032 31.3055403,0.0498321556 C32.3608786,-0.198981826 33.404821,0.510727135 33.5902649,1.58187479 C33.7225275,2.34529708 33.8496102,3.07995674 33.9718581,3.78481418 C34.1286394,4.68997034 33.6175462,5.57849269 32.7576665,5.89557457 C30.049218,6.89533549 27.4243402,7.86425456 24.6658184,8.8827285 C23.803176,9.20085 22.8365883,8.85396588 22.3731511,8.05762253" id="Fill-14" fill="#676767"></path>
                <path d="M11.673307,64.8322137 C12.2544896,64.3497859 12.8179053,63.8828768 13.359454,63.4335106 C14.0557797,62.8559467 15.0708846,62.8556094 15.768577,63.4318238 C17.9744057,65.2525668 20.1190753,67.0227055 22.3262707,68.844798 C23.0249881,69.4216871 23.2047071,70.4091459 22.7499429,71.1884522 C22.3983633,71.7913182 22.0307252,72.4204985 21.6507869,73.072282 C21.116755,73.9878826 19.916806,74.2753151 19.0120609,73.710571 C16.2161662,71.9660718 13.7445173,69.901416 11.488463,67.4956871 C10.7661702,66.7248148 10.8591048,65.5076125 11.673307,64.8322137" id="Fill-16" fill="#676767"></path>
                <path d="M69.5060175,67.4920305 C67.2262034,69.9019613 64.7789569,71.9716072 62.0091468,73.7080364 C61.1070621,74.2734951 59.9083829,73.9924486 59.370549,73.0823295 C58.9895549,72.4381106 58.6181284,71.809711 58.2545609,71.1954479 C57.7953178,70.4182789 57.9712926,69.429736 58.67075,68.8514872 C60.8340448,67.0635609 62.9884554,65.2827028 65.2265823,63.4325087 C65.9239894,62.8562794 66.9405432,62.8556062 67.6379504,63.4318355 C68.1785178,63.8791537 68.7419791,64.3446473 69.3262839,64.8279798 C70.1436273,65.5038375 70.2338358,66.7229394 69.5060175,67.4920305" id="Fill-18" fill="#676767"></path>
                <path d="M67.7198591,16.9348503 C68.3044655,16.4628759 68.9131832,15.9714568 69.5478669,15.4595324 C70.4351629,14.7432626 71.7698163,14.8807892 72.482769,15.7572122 C74.6761558,18.4518858 76.4288622,21.3540868 77.8410427,24.5235633 C78.2921095,25.5353916 77.7468231,26.7020701 76.6651529,27.0838921 C75.8965588,27.3557636 75.1453989,27.6212713 74.4157537,27.8790012 C73.487654,28.2067317 72.4490132,27.850011 71.9504656,27.0351038 C70.3895369,24.4825527 68.862735,21.9855073 67.277324,19.3926529 C66.7798892,18.5791598 66.9661027,17.5432908 67.7198591,16.9348503" id="Fill-20" fill="#676767"></path>
                <g id="Group-24" transform="translate(34.000000, 74.000000)">
                    <mask id="mask-8" fill="white">
                        <use xlink:href="#path-7"></use>
                    </mask>
                    <g id="Clip-23"></g>
                    <path d="M12.548,1.67671579 C12.669,2.34018947 12.791,3.00618947 12.915,3.68576842 C13.0893333,4.64166316 12.402,5.54955789 11.39,5.69766316 C8.19666667,6.16597895 5.05533333,6.03966316 1.83566667,5.66261053 C0.794666667,5.5404 0.0706666667,4.61955789 0.251666667,3.64092632 C0.376333333,2.96797895 0.498,2.31050526 0.616,1.67103158 C0.769333333,0.841452632 1.52933333,0.238610526 2.418,0.238610526 L10.745,0.238610526 C11.6353333,0.238610526 12.3963333,0.845557895 12.548,1.67671579" id="Fill-22" fill="#676767" mask="url(#mask-8)"></path>
                </g>
            </g>
        </g>
    </g>
</svg>