<?xml version="1.0" encoding="UTF-8"?>
<svg width="97px" height="96px" viewBox="0 0 97 96" version="1.1" xmlns="http://www.w3.org/2000/svg" xmlns:xlink="http://www.w3.org/1999/xlink">
    <!-- Generator: Sketch 52.6 (67491) - http://www.bohemiancoding.com/sketch -->
    <title>Group</title>
    <desc>Created with Sketch.</desc>
    <defs>
        <polygon id="path-1" points="0 0 97 0 97 96 0 96"></polygon>
        <polygon id="path-3" points="0 0 7 0 7 7 0 7"></polygon>
    </defs>
    <g id="Welcome" stroke="none" stroke-width="1" fill="none" fill-rule="evenodd">
        <g id="Pitch-Training" transform="translate(-714.000000, -2696.000000)">
            <g id="Group" transform="translate(714.000000, 2696.000000)">
                <g id="Group-3">
                    <mask id="mask-2" fill="white">
                        <use xlink:href="#path-1"></use>
                    </mask>
                    <g id="Clip-2"></g>
                    <path d="M26.2428048,54.3449017 C26.4560255,54.4458668 26.7150553,54.362281 26.8299946,54.1562128 C27.1464941,53.5926288 27.5862618,52.9727691 27.4738212,52.4762193 C26.9957404,50.3642276 26.241139,48.3143045 25.5748243,46.2461747 C25.5156888,46.064934 25.3391154,45.9209345 25.1417197,45.6585907 C25.0426054,45.9383138 24.9876344,46.0227272 24.9851357,46.1087959 C24.9218358,47.9360991 24.95182,49.7725057 24.7769124,51.5882228 C24.6561429,52.8411834 24.9576503,53.7374558 26.2428048,54.3449017 Z M27.4879804,39.5204077 C27.4821501,37.7882766 26.0945497,36.3880062 24.3571341,36.3598683 C22.5988962,36.3317305 21.1488288,37.7733801 21.1563249,39.5427525 C21.162988,41.278194 22.5480897,42.679292 24.2830066,42.7057747 C26.0354143,42.7322573 27.4946435,41.2823319 27.4879804,39.5204077 Z M58.036011,76.9652274 C58.5174234,77.2391574 58.4849406,77.220123 58.9663529,77.4940529 C59.9050238,76.6101943 60.8428617,75.7255081 61.8298404,74.8987527 C62.3520645,74.4617889 63.0633555,74.153928 63.7371662,74.0107561 C65.0664641,73.7277228 66.4315763,73.6184818 67.7750334,73.3950344 C67.9932514,73.3586208 68.3380693,73.1169665 68.3497298,72.9497948 C68.4754967,71.2383532 68.5446269,69.5227736 68.6287491,67.8022286 C68.5288019,67.811332 68.4580059,67.7972631 68.4121968,67.8254009 C65.3354887,69.7048419 62.2587805,71.585938 59.1887355,73.4777927 C59.0121621,73.5862061 58.8047716,73.7641364 58.7589625,73.9462047 C58.5065958,74.9492352 58.2700541,75.9572313 58.036011,76.9652274 Z M91.0494061,85.0267132 C91.6091105,84.9911272 91.5791263,84.9927823 92.1396635,84.9571963 C92.3645448,84.0336137 92.5877602,83.110031 92.792652,82.1823105 C92.8484558,81.9307253 92.8193046,81.5914163 92.6885403,81.3787274 C90.8445143,78.3779115 88.9813318,75.3886818 87.0748389,72.3233144 C86.878276,72.0080053 86.4026939,72.0460741 86.261102,72.3895211 C85.6647504,73.8353086 85.0892211,75.2297859 84.5045299,76.6482631 C84.4237392,76.8444003 84.4912036,77.0703304 84.6661112,77.1919851 C85.8496527,78.0162578 87.0090403,78.8488063 88.206741,79.6225964 C88.987995,80.127422 89.4985586,80.7572126 89.7984002,81.6443816 C90.183197,82.7831358 90.6163015,83.9045107 91.0494061,85.0267132 Z M35.420457,82.1334831 C33.4606588,79.2990114 31.5225159,76.497643 29.506081,73.5812406 C29.2936932,73.2725521 28.8147795,73.3387588 28.6948429,73.6929643 C27.5529461,77.0570891 26.467686,80.2532146 25.3690996,83.4890641 C25.2608235,83.8076835 25.5281822,84.1296133 25.8638383,84.0840962 C28.9422122,83.6703047 31.9564534,83.2647891 35.1031246,82.8418942 C35.4404464,82.7963771 35.6128553,82.4123786 35.420457,82.1334831 Z M29.1812526,45.2613509 C28.9030662,45.3002473 28.724827,45.5791428 28.8081164,45.8464521 C29.4769298,48.0064437 30.0716156,50.0522288 30.7779092,52.0599451 C31.1493797,53.1151134 30.9852997,53.9211792 30.2914995,54.757038 C29.5918691,55.6011727 28.9372149,56.481721 28.2584067,57.3854416 C28.0152019,57.708199 28.2850593,58.1633696 28.6873468,58.107094 C30.0624538,57.9150947 31.4167385,57.7255782 32.7976757,57.533579 C33.0417135,57.4996481 33.2157882,57.279511 33.1899685,57.0362016 C33.1616501,56.7589613 33.1358304,56.5106864 33.1008489,56.2624115 C32.818498,54.2348332 32.5119933,52.2097376 32.2512976,50.1796766 C32.0514032,48.6238206 32.3137646,48.2373393 33.795482,47.7192724 C37.8583359,46.29914 41.9228556,44.8839731 45.9848766,43.4605303 C46.2688933,43.3603928 46.5354192,43.2081175 46.8094411,43.0798422 C46.7769583,42.9979114 46.7444754,42.9159807 46.7119926,42.83405 C40.9067257,43.6376331 35.1014588,44.4420437 29.1812526,45.2613509 Z M21.5819334,46.977758 C21.5802676,46.7708623 21.4386757,46.5912768 21.2362826,46.5424494 C20.1676804,46.2883814 19.0674283,46.0756926 18.0188155,45.7165215 C16.1931132,45.0900412 14.4098884,44.3410786 12.6075072,43.6467365 C9.88977605,42.5990164 7.17121204,41.5537791 4.44765067,40.5052315 C4.1553051,40.3935078 3.83047668,40.5987484 3.82464642,40.909092 C3.81298591,41.4966759 4.1294854,41.8881227 4.77664356,42.2489488 C9.25427839,44.7499046 13.6769423,47.3476876 18.1520784,49.8536089 C19.1190676,50.3956757 19.5513393,51.0933282 19.6762733,52.1592551 C19.9336374,54.35235 20.272625,56.5346863 20.592456,58.7708155 C20.6274376,59.0182628 20.8614806,59.1928828 21.1105157,59.1572968 C22.4964503,58.9619872 23.842406,58.7724707 25.2308393,58.5763335 C25.6281294,58.5200579 25.764724,58.0185426 25.4507231,57.7710953 C24.7236072,57.1959251 24.0564596,56.6579962 23.326845,56.227653 C21.8901039,55.3818632 21.4303468,54.2464193 21.5452861,52.6135981 C21.6818806,50.6787091 21.5935939,48.7289236 21.5819334,46.977758 Z M81.9600406,79.1881153 C81.6393767,78.966323 81.2029405,79.2212186 81.2437523,79.6076999 C81.2862299,80.0239741 81.3237101,80.3897658 81.3520284,80.7555575 C81.4702993,82.2700343 80.6299099,83.0380313 79.1506912,82.7036878 C76.4321272,82.0887936 73.7177277,81.4507272 71.0091584,80.796109 C69.3666926,80.3996968 68.7261976,78.8992888 69.5874094,77.4551565 C69.6598711,77.3335018 69.7339986,77.2093644 69.8097919,77.0827442 C70.0096863,76.7492282 69.723171,76.3354367 69.3375414,76.402471 C68.4854914,76.5514359 67.707569,76.6995733 66.9296466,76.7004008 C64.6825002,76.702056 63.0791805,77.793638 61.6249486,79.3437009 C60.8103789,80.2118354 59.9133527,81.0030048 58.9430319,81.8843806 C58.6490206,82.15169 58.8180979,82.6383087 59.216221,82.6705845 C69.2734086,83.4840986 78.9358047,85.2476779 88.324179,88.9850426 C88.6939836,89.1323524 89.0637883,88.7756641 88.9238622,88.404907 C88.1884173,86.4567766 87.4987816,84.6286458 86.8033156,82.8063081 C86.7150289,82.5745849 86.558445,82.3743098 86.3535532,82.2319655 C84.9343029,81.2421763 83.5067236,80.2565249 81.9600406,79.1881153 Z M73.6311068,78.1643951 C74.8962718,78.4598423 76.105633,78.7420481 77.3624691,79.03584 C77.6656423,79.1070122 77.9513247,78.8603924 77.9238393,78.551704 C77.8763643,78.0270164 77.8288894,77.5362597 77.7972395,77.0554339 C77.698958,75.5335088 78.8541812,74.5197197 80.3542222,74.8474425 C80.5516179,74.8904769 80.7456821,74.9434422 80.9347488,75.0088212 C81.4669677,75.1925446 81.7543159,75.0452349 81.9500459,74.5288231 C82.33984,73.4993099 82.7871037,72.4904862 83.1760649,71.4601454 C84.7810505,67.2055413 85.9437697,62.8863857 85.2099906,58.2668175 C84.776886,55.5399316 83.8773612,52.9992518 82.4964239,50.6182956 C82.3664926,50.3948481 82.0683167,50.323676 81.8517645,50.4668479 C74.8263088,55.1062781 71.3356526,64.7459647 71.6471547,72.4755897 C71.6546508,72.6758648 71.7962426,72.8455193 71.9919726,72.8943467 C72.3667746,72.9878636 72.746574,73.0813805 73.1255405,73.1806904 C74.7371892,73.6027577 75.1228188,74.5660643 74.254111,76.0002656 C73.9625983,76.4802638 73.668587,76.9577791 73.3454243,77.4832943 C73.1830101,77.7472933 73.3287665,78.093223 73.6311068,78.1643951 Z M33.9995408,60.9829448 C33.9395725,60.7619802 33.7221874,60.6196359 33.4948075,60.6502565 C29.4502772,61.2039095 25.5015296,61.7542522 21.5486176,62.2723191 C20.8223346,62.3666636 20.920616,62.8267997 20.9272792,63.298522 C21.0172317,70.10953 21.1055184,76.9205379 21.1971366,83.7323734 C21.2013011,84.0236827 21.2362826,84.3149919 21.257105,84.6063011 C21.3437259,84.6253355 21.4303468,84.6451975 21.5169677,84.6650595 C21.6560609,84.3456124 21.8184751,84.0344412 21.9300828,83.7067184 C23.5758801,78.8769441 25.2033538,74.0405491 26.8741379,69.2190507 C27.037385,68.7473284 27.3680437,68.24002 27.7694983,67.9636073 C28.553251,67.4256784 29.3444997,67.7550564 30.060788,68.7903627 C32.9392676,72.947312 35.8102511,77.1083993 38.6895635,81.264521 C38.8020041,81.294314 38.8736329,81.3133484 38.9852406,81.3431414 L39.271756,81.2057626 C39.373369,81.1569352 39.4258412,81.0435563 39.39669,80.935143 C37.6059692,74.3144791 35.8135826,67.6896773 33.9995408,60.9829448 Z M46.8019451,46.6235525 C46.6312019,46.6442421 46.5362521,46.6392766 46.4529627,46.668242 C42.9839618,47.8765131 39.5191253,49.0988532 36.0434612,50.2872624 C35.5478896,50.4569169 35.552887,50.7076745 35.6020277,51.1388452 C36.1217532,55.6855862 36.9704715,60.1561894 38.2506287,64.5638964 C39.8855984,70.1906331 41.334,75.8711627 42.8848475,81.5218993 C42.9681368,81.8247947 43.2504877,82.286586 43.4678728,82.3031376 C44.4140397,82.3726546 45.3677027,82.3486547 46.3480182,82.342034 C46.5987191,82.3395513 46.8019451,82.137621 46.8019451,81.8885186 L46.8019451,46.6235525 Z M50.7623531,22.6120598 C60.4139216,18.6140064 69.9896969,14.6482288 79.5621406,10.6841063 C79.5080025,10.1147292 79.5113341,10.1470049 79.457196,9.57762784 C69.903076,7.5906011 60.3439586,5.60357436 50.6798967,3.59337529 C50.3967129,3.5346169 50.1293541,3.74896089 50.1293541,4.03695977 L50.1293541,22.1933028 C50.1293541,22.5168878 50.4616786,22.7361973 50.7623531,22.6120598 Z M0.109941927,93.3704049 C4.71001209,90.2909686 9.82231168,88.3271142 15.0845321,86.6893274 C15.7191968,86.4915351 16.3513629,86.2482257 17.0035184,86.1497433 C17.8180882,86.0247783 18.0629588,85.6755383 18.0471339,84.8388519 C17.9138709,77.5519837 17.9388577,70.2618052 17.6914884,62.9807301 C17.5790478,59.6555017 16.9843619,56.3451698 16.5420955,53.036493 C16.4971193,52.7021495 16.0490226,52.3388406 15.7008732,52.1377379 C11.1232911,49.4911275 6.53904596,46.8544481 1.93147976,44.2591479 C0.985312874,43.7261845 0.563035928,43.0475664 0.613842424,41.9741913 C0.670479174,40.7775063 0.618839785,39.5766834 0.628834505,38.3783432 C0.642160799,36.6983498 1.60915002,36.0255248 3.18081984,36.6263501 C8.03075801,38.4817911 12.8756988,40.3521286 17.7231383,42.2158455 C17.725637,42.2166731 17.7281357,42.2183283 17.7314673,42.2191559 C18.0862798,42.355707 18.4402595,42.0221911 18.3286518,41.6605373 C17.4732703,38.9071688 18.0279773,36.5162815 20.2984447,34.6715991 C22.5389279,32.8517441 25.7613924,32.7838823 28.1018228,34.4738067 C30.3772875,36.1173865 31.0635917,38.4313085 30.4455848,41.2442631 C30.3781204,41.5537791 30.6363174,41.8376401 30.951984,41.796261 C32.5303169,41.5893652 34.0386868,41.3965384 35.545391,41.1879875 C38.9694157,40.7137824 42.3867772,40.1849569 45.8191309,39.7777861 C46.7294833,39.6702003 46.8644121,39.3193051 46.8627463,38.5331013 C46.8427568,26.1350806 46.8485871,13.7370599 46.8485871,1.33903925 L46.8485871,0.455180622 C46.8485871,0.202767812 47.0568104,-0.00164518482 47.3108429,9.98114178e-06 C48.4535726,0.00994097694 49.5355011,0.0124237259 50.6765651,0.309526017 C53.6791457,1.08910919 56.747525,1.61710713 59.7884187,2.24855295 C68.6937148,4.0990285 77.5990108,5.95198679 86.5051398,7.79749685 C87.3688502,7.97708235 88.1167885,8.2907363 88.2267304,9.28052555 C88.3425026,10.3224525 87.6462037,10.7834162 86.7949867,11.135139 C74.8837784,16.0559474 62.9792333,20.9924799 51.0605289,25.8950815 C50.2817736,26.2153561 49.9644412,26.5654237 49.9794333,27.455903 C50.0419003,31.24044 50.0060859,35.0266322 50.0060859,38.8119967 L50.0060859,80.990591 L50.0060859,81.8123809 C50.0060859,82.062311 50.2101448,82.2658964 50.4625115,82.2658964 L53.1311019,82.2658964 C53.3426568,82.2658964 53.5250605,82.121897 53.5742012,81.9183115 C54.2113646,79.2741839 54.9243213,76.6250908 55.4390495,73.9387564 C55.7522174,72.3100731 56.5368029,71.2954564 57.9693796,70.4637355 C61.6382749,68.3343645 65.2255467,66.0643043 68.8178159,63.8074855 C69.2226021,63.55259 69.5857436,63.064316 69.7373302,62.6083178 C71.4405972,57.4955101 73.9376115,52.8759419 78.1012456,49.3074041 C79.2739594,48.3010632 80.5766047,47.4387217 81.855096,46.5606562 C82.7254696,45.9623137 83.6474826,46.1270027 84.1638765,46.9901718 C86.8249709,51.445051 88.7572835,56.142412 88.5898719,61.4381155 C88.5340681,63.193419 88.1692608,64.9363087 88.0118439,66.6907847 C87.9677006,67.1765759 88.0201729,67.7666425 88.2642106,68.1671927 C90.6804343,72.12966 93.1299738,76.0722654 95.6111632,79.9958363 C96.1225597,80.8035573 96.2658174,81.5624509 96.0292757,82.4901714 C95.3279794,85.2377469 94.7099725,88.006012 94.0220026,90.7577254 C93.8679173,91.3767575 93.9736948,91.7193768 94.5767096,92.0313756 C95.3296452,92.4203396 96.0351059,92.9019929 96.792206,93.3910944 C97.0170872,93.5359215 97.0678937,93.8421272 96.9029808,94.0515057 C96.4240671,94.6647447 95.9743047,95.2390872 95.5162133,95.8258436 C95.3712899,96.0112222 95.1080956,96.0542565 94.9090341,95.9276363 C91.0710613,93.4837837 86.9465733,91.7524801 82.6788276,90.3447615 C76.4562811,88.2907005 70.0604928,87.0269813 63.5530968,86.2780187 C55.4557073,85.3461603 47.3383284,85.1988505 39.2142863,85.7434001 C28.5857338,86.4567766 18.1878928,88.2840799 8.36058379,92.5676494 C6.15341632,93.5293008 4.04619606,94.7168824 1.85985093,95.834947 C1.6749486,95.930119 1.4484016,95.8870847 1.31097419,95.7323267 C0.903689322,95.271363 0.455592681,94.7648822 0,94.2501256 C0.0441433494,93.8975752 0.0657985774,93.7229552 0.109941927,93.3704049 Z" id="Fill-1" fill="#676767" mask="url(#mask-2)"></path>
                </g>
                <g id="Group-3" transform="translate(76.000000, 58.000000)">
                    <mask id="mask-4" fill="white">
                        <use xlink:href="#path-3"></use>
                    </mask>
                    <g id="Clip-2"></g>
                    <path d="M4.65815152,3.52534144 C4.665816,2.8799341 4.18213217,2.37445174 3.53968399,2.35583159 C2.86767278,2.33693761 2.34867757,2.84953944 2.35579459,3.52506761 C2.36291162,4.16773669 2.86219815,4.66062307 3.50628873,4.66062307 C4.15202169,4.66062307 4.65048703,4.16965347 4.65815152,3.52534144 M3.53694667,6.99991659 C1.58688239,7.01306023 0.0112829985,5.47114734 6.00007635e-05,3.53903272 C-0.011162997,1.60773959 1.55348712,0.01516893 3.47617825,0.000108512783 C5.41255595,-0.0149519044 6.9878816,1.53955697 6.9999258,3.4771481 C7.01224372,5.43774059 5.48947454,6.98704678 3.53694667,6.99991659" id="Fill-1" fill="#676767" mask="url(#mask-4)"></path>
                </g>
            </g>
        </g>
    </g>
</svg>