<?xml version="1.0" encoding="UTF-8"?>
<svg width="82px" height="82px" viewBox="0 0 82 82" version="1.1" xmlns="http://www.w3.org/2000/svg" xmlns:xlink="http://www.w3.org/1999/xlink">
    <!-- Generator: Sketch 52.6 (67491) - http://www.bohemiancoding.com/sketch -->
    <title>Group 57</title>
    <desc>Created with Sketch.</desc>
    <g id="Welcome" stroke="none" stroke-width="1" fill="none" fill-rule="evenodd">
        <g id="Pitch-Training" transform="translate(-215.000000, -2709.000000)">
            <g id="Group-57" transform="translate(216.000000, 2710.000000)">
                <path d="M27.7118545,5.27750107 L77.2686033,5.27750107 C77.4606132,2.98703693 77.17146,2.66705116 74.9690391,2.66705116 L29.8983379,2.66705116 C29.6471314,2.66705116 29.3951659,2.65874965 29.1447183,2.66931521 C28.2324819,2.70554002 27.7535958,3.16665158 27.7148902,4.05868737 C27.6974348,4.44433059 27.7118545,4.83148318 27.7118545,5.27750107 Z M80,40.8313911 C79.4399081,42.373964 78.5223592,43.5580622 76.8064137,43.9037072 C76.4269476,43.9799303 76.0307851,43.9942693 75.6422118,43.9942693 C60.7003565,43.9987974 45.7577422,43.9980427 30.8158868,43.9980427 C30.6762433,43.9980427 30.5365998,44.0033255 30.3969563,43.9965333 C29.5423988,43.9557804 28.9709229,43.4320301 28.9602978,42.6818748 C28.9489138,41.9317195 29.5188719,41.3792912 30.3605276,41.3355196 C30.6117341,41.3219353 30.8636996,41.3317462 31.1149061,41.3317462 L75.3545766,41.3317462 C76.9657894,41.3317462 77.3186929,40.9815731 77.3186929,39.3801349 C77.3194518,29.2432274 77.3186929,19.1063198 77.3186929,8.9694123 L77.3186929,8.069075 L27.7103366,8.069075 L27.7103366,8.91809383 C27.7103366,13.7224084 27.7103366,18.5274777 27.7095777,23.3317922 C27.7095777,23.6102704 27.7368993,23.8940314 27.6875687,24.1634534 C27.5547556,24.8804026 27.1077446,25.3158549 26.3677857,25.3143455 C25.6278269,25.3135909 25.180057,24.8804026 25.0502796,24.1611893 C25.001708,23.8917673 25.0297884,23.6072517 25.0297884,23.3295282 C25.0282706,17.191688 25.0859494,11.0530932 25.000949,4.91600772 C24.9667971,2.46404133 25.850953,0.805247196 28.2127497,0 L76.8162798,0 C78.4221801,0.513939401 79.4793726,1.57351491 80,3.16665158 L80,40.8313911 Z" id="Fill-1" fill="#676767"></path>
                <path d="M27.7118545,5.27750107 L77.2686033,5.27750107 C77.4606132,2.98703693 77.17146,2.66705116 74.9690391,2.66705116 L29.8983379,2.66705116 C29.6471314,2.66705116 29.3951659,2.65874965 29.1447183,2.66931521 C28.2324819,2.70554002 27.7535958,3.16665158 27.7148902,4.05868737 C27.6974348,4.44433059 27.7118545,4.83148318 27.7118545,5.27750107 Z M80,40.8313911 C79.4399081,42.373964 78.5223592,43.5580622 76.8064137,43.9037072 C76.4269476,43.9799303 76.0307851,43.9942693 75.6422118,43.9942693 C60.7003565,43.9987974 45.7577422,43.9980427 30.8158868,43.9980427 C30.6762433,43.9980427 30.5365998,44.0033255 30.3969563,43.9965333 C29.5423988,43.9557804 28.9709229,43.4320301 28.9602978,42.6818748 C28.9489138,41.9317195 29.5188719,41.3792912 30.3605276,41.3355196 C30.6117341,41.3219353 30.8636996,41.3317462 31.1149061,41.3317462 L75.3545766,41.3317462 C76.9657894,41.3317462 77.3186929,40.9815731 77.3186929,39.3801349 C77.3194518,29.2432274 77.3186929,19.1063198 77.3186929,8.9694123 L77.3186929,8.069075 L27.7103366,8.069075 L27.7103366,8.91809383 C27.7103366,13.7224084 27.7103366,18.5274777 27.7095777,23.3317922 C27.7095777,23.6102704 27.7368993,23.8940314 27.6875687,24.1634534 C27.5547556,24.8804026 27.1077446,25.3158549 26.3677857,25.3143455 C25.6278269,25.3135909 25.180057,24.8804026 25.0502796,24.1611893 C25.001708,23.8917673 25.0297884,23.6072517 25.0297884,23.3295282 C25.0282706,17.191688 25.0859494,11.0530932 25.000949,4.91600772 C24.9667971,2.46404133 25.850953,0.805247196 28.2127497,0 L76.8162798,0 C78.4221801,0.513939401 79.4793726,1.57351491 80,3.16665158 L80,40.8313911 Z" id="Stroke-3" stroke="#676767"></path>
                <path d="M78.1451212,80 C77.4601372,79.5411053 77.2600638,78.9130668 77.2860275,78.1180906 C77.3387186,76.5516713 77.3127549,74.9808395 77.2990094,73.4122139 C77.2783911,71.1927522 75.6686404,69.6182434 73.3761965,69.6108893 C68.7981816,69.5961811 64.219403,69.5961811 59.641388,69.6108893 C57.3474169,69.6182434 55.7376662,71.1912814 55.7193389,73.4114785 C55.7055934,74.9801041 55.678866,76.5502004 55.7315571,78.1173552 C55.7590481,78.9123314 55.5559202,79.5396345 54.873227,80 L53.8614055,80 C53.1756578,79.5411053 52.9755845,78.9130668 53.0023118,78.1180906 C53.0557665,76.5509359 53.0084209,74.9808395 53.0206391,73.4122139 C53.0488938,69.7307608 55.8606121,67.0244589 59.698661,67.0112215 C64.2491849,66.995778 68.8004725,66.9965134 73.3509965,67.0119569 C76.6048616,67.0229881 79.0698879,68.9299014 79.8495631,71.9936116 C79.8823996,72.1223081 79.9488362,72.242915 80,72.367199 L80,80 L78.1451212,80 Z" id="Fill-5" fill="#676767"></path>
                <path d="M78.1451212,80 C77.4601372,79.5411053 77.2600638,78.9130668 77.2860275,78.1180906 C77.3387186,76.5516713 77.3127549,74.9808395 77.2990094,73.4122139 C77.2783911,71.1927522 75.6686404,69.6182434 73.3761965,69.6108893 C68.7981816,69.5961811 64.219403,69.5961811 59.641388,69.6108893 C57.3474169,69.6182434 55.7376662,71.1912814 55.7193389,73.4114785 C55.7055934,74.9801041 55.678866,76.5502004 55.7315571,78.1173552 C55.7590481,78.9123314 55.5559202,79.5396345 54.873227,80 L53.8614055,80 C53.1756578,79.5411053 52.9755845,78.9130668 53.0023118,78.1180906 C53.0557665,76.5509359 53.0084209,74.9808395 53.0206391,73.4122139 C53.0488938,69.7307608 55.8606121,67.0244589 59.698661,67.0112215 C64.2491849,66.995778 68.8004725,66.9965134 73.3509965,67.0119569 C76.6048616,67.0229881 79.0698879,68.9299014 79.8495631,71.9936116 C79.8823996,72.1223081 79.9488362,72.242915 80,72.367199 L80,80 L78.1451212,80 Z" id="Stroke-7" stroke="#676767"></path>
                <path d="M48.1282254,80 C47.4436775,79.5413256 47.2437315,78.9135886 47.2704418,78.1189941 C47.3223362,76.5533268 47.2971522,74.9832492 47.2834154,73.4153768 C47.2628103,71.1969806 45.6533214,69.6232277 43.3623373,69.6158772 C38.7872374,69.6011761 34.2121375,69.6011761 29.6370375,69.6158772 C27.3437639,69.6232277 25.7350382,71.1955105 25.7174857,73.4146417 C25.703749,74.9825142 25.6770386,76.5518567 25.7296961,78.1182591 C25.7564065,78.9128536 25.5534079,79.5398555 24.8711495,80 L23.8599722,80 C23.1761875,79.5413256 22.9762415,78.9143237 23.0021887,78.1204642 C23.0548462,76.5011379 22.9991361,74.8788714 23.023557,73.258075 C23.0746882,69.7761192 25.8930108,67.0461247 29.5134068,67.0226029 C34.1701641,66.9924657 38.8269213,66.9924657 43.4836786,67.0226029 C47.106364,67.0453896 49.921634,69.7702388 49.976581,73.2566049 C50.001765,74.8774013 49.9452917,76.5004029 49.9979493,78.1197292 C50.0231333,78.9135886 49.8208979,79.5398555 49.1394026,80 L48.1282254,80 Z" id="Fill-9" fill="#676767"></path>
                <path d="M48.1282254,80 C47.4436775,79.5413256 47.2437315,78.9135886 47.2704418,78.1189941 C47.3223362,76.5533268 47.2971522,74.9832492 47.2834154,73.4153768 C47.2628103,71.1969806 45.6533214,69.6232277 43.3623373,69.6158772 C38.7872374,69.6011761 34.2121375,69.6011761 29.6370375,69.6158772 C27.3437639,69.6232277 25.7350382,71.1955105 25.7174857,73.4146417 C25.703749,74.9825142 25.6770386,76.5518567 25.7296961,78.1182591 C25.7564065,78.9128536 25.5534079,79.5398555 24.8711495,80 L23.8599722,80 C23.1761875,79.5413256 22.9762415,78.9143237 23.0021887,78.1204642 C23.0548462,76.5011379 22.9991361,74.8788714 23.023557,73.258075 C23.0746882,69.7761192 25.8930108,67.0461247 29.5134068,67.0226029 C34.1701641,66.9924657 38.8269213,66.9924657 43.4836786,67.0226029 C47.106364,67.0453896 49.921634,69.7702388 49.976581,73.2566049 C50.001765,74.8774013 49.9452917,76.5004029 49.9979493,78.1197292 C50.0231333,78.9135886 49.8208979,79.5398555 49.1394026,80 L48.1282254,80 Z" id="Stroke-11" stroke="#676767"></path>
                <path d="M21.1708128,64.3108876 L21.1708128,63.3573322 C21.1708128,57.1232385 21.1865397,50.8883951 21.1588304,44.6550511 C21.153588,43.2749445 21.597687,42.1587149 22.5375593,41.1526839 C27.6772751,35.654747 32.793026,30.1328213 37.9147681,24.6183921 C38.3281621,24.174599 38.7595297,23.7442996 39.1377253,23.2720197 C39.4934539,22.8282266 39.4792247,22.3312083 39.0673285,21.9271467 C38.6569301,21.5238347 38.1731393,21.5298319 37.7193046,21.8739215 C37.5013741,22.0395943 37.3193908,22.252495 37.1246762,22.4474042 C32.4672535,27.1087311 27.8030906,31.7640608 23.1583992,36.4373821 C22.1870731,37.4149264 21.0704599,37.8827083 19.6887354,37.8737125 C15.4447066,37.8452258 11.2006779,37.8602188 6.95739804,37.863967 C4.27557928,37.8669657 2.65121042,39.504952 2.64971262,42.2066925 C2.64671701,48.0817036 2.64821482,53.9567147 2.64971262,59.8324754 C2.64971262,60.0806098 2.62649665,60.3354909 2.67442639,60.5753791 C2.80922879,61.2493149 3.23460523,61.6406325 3.92359525,61.6908591 C4.56914894,61.7373374 5.15479046,61.2530632 5.26637689,60.5873735 C5.31131102,60.318249 5.29333737,60.03713 5.29333737,59.7620083 C5.29483517,54.8795345 5.29408627,49.9970607 5.29558407,45.1145868 C5.29558407,44.8387155 5.2701214,44.5560972 5.32104675,44.2892216 C5.45135573,43.6145362 5.87673218,43.2224689 6.5664711,43.1714927 C7.2150204,43.1242647 7.79916411,43.6032914 7.91149944,44.27123 C7.95718247,44.5396049 7.93920882,44.8207238 7.93920882,45.0965952 C7.94070663,51.1927532 7.94070663,57.2889112 7.94070663,63.3850692 L7.94070663,64.3108876 L21.1708128,64.3108876 Z M5.29483517,64.1894442 C2.50442559,64.6279898 0.555782083,63.4532874 0.0802291899,61.1241233 C0.00908348138,60.7770351 0.00533897041,60.4119553 0.00533897041,60.0551216 C0.000845557241,54.0706616 -0.00364785593,48.0854518 0.00459006821,42.1017414 C0.0105812858,38.0716202 2.85041841,35.2259469 6.87052539,35.2169511 C11.1138052,35.2072056 15.3563362,35.2027077 19.599616,35.2259469 C20.3178132,35.2304448 20.8502827,35.002551 21.3520471,34.4972866 C26.0753733,29.7475009 30.8099329,25.0097096 35.548986,20.2756666 C37.1426499,18.6841586 39.2807657,18.5762089 40.7995393,19.9833029 C42.333291,21.4046403 42.4156703,23.6236058 40.9410818,25.238353 C38.803715,27.578762 36.6326475,29.8899345 34.4758092,32.2123518 C31.1724016,35.7656953 27.8772319,39.3257856 24.5573485,42.864136 C24.0308703,43.4241249 23.8017062,44.0081027 23.8039529,44.7832413 C23.8271689,51.5668288 23.8174332,58.3519157 23.8166842,65.1362528 C23.8166842,66.5995707 23.4175194,66.9983847 21.9564112,66.9991344 C17.0795601,67.0006337 12.2034579,66.999884 7.32735573,66.9991344 C5.63483677,66.9991344 5.3030731,66.6692882 5.29483517,64.9788262 C5.29333737,64.7336905 5.29483517,64.4893044 5.29483517,64.1894442 Z" id="Fill-13" fill="#676767"></path>
                <path d="M21.1708128,64.3108876 L21.1708128,63.3573322 C21.1708128,57.1232385 21.1865397,50.8883951 21.1588304,44.6550511 C21.153588,43.2749445 21.597687,42.1587149 22.5375593,41.1526839 C27.6772751,35.654747 32.793026,30.1328213 37.9147681,24.6183921 C38.3281621,24.174599 38.7595297,23.7442996 39.1377253,23.2720197 C39.4934539,22.8282266 39.4792247,22.3312083 39.0673285,21.9271467 C38.6569301,21.5238347 38.1731393,21.5298319 37.7193046,21.8739215 C37.5013741,22.0395943 37.3193908,22.252495 37.1246762,22.4474042 C32.4672535,27.1087311 27.8030906,31.7640608 23.1583992,36.4373821 C22.1870731,37.4149264 21.0704599,37.8827083 19.6887354,37.8737125 C15.4447066,37.8452258 11.2006779,37.8602188 6.95739804,37.863967 C4.27557928,37.8669657 2.65121042,39.504952 2.64971262,42.2066925 C2.64671701,48.0817036 2.64821482,53.9567147 2.64971262,59.8324754 C2.64971262,60.0806098 2.62649665,60.3354909 2.67442639,60.5753791 C2.80922879,61.2493149 3.23460523,61.6406325 3.92359525,61.6908591 C4.56914894,61.7373374 5.15479046,61.2530632 5.26637689,60.5873735 C5.31131102,60.318249 5.29333737,60.03713 5.29333737,59.7620083 C5.29483517,54.8795345 5.29408627,49.9970607 5.29558407,45.1145868 C5.29558407,44.8387155 5.2701214,44.5560972 5.32104675,44.2892216 C5.45135573,43.6145362 5.87673218,43.2224689 6.5664711,43.1714927 C7.2150204,43.1242647 7.79916411,43.6032914 7.91149944,44.27123 C7.95718247,44.5396049 7.93920882,44.8207238 7.93920882,45.0965952 C7.94070663,51.1927532 7.94070663,57.2889112 7.94070663,63.3850692 L7.94070663,64.3108876 L21.1708128,64.3108876 Z M5.29483517,64.1894442 C2.50442559,64.6279898 0.555782083,63.4532874 0.0802291899,61.1241233 C0.00908348138,60.7770351 0.00533897041,60.4119553 0.00533897041,60.0551216 C0.000845557241,54.0706616 -0.00364785593,48.0854518 0.00459006821,42.1017414 C0.0105812858,38.0716202 2.85041841,35.2259469 6.87052539,35.2169511 C11.1138052,35.2072056 15.3563362,35.2027077 19.599616,35.2259469 C20.3178132,35.2304448 20.8502827,35.002551 21.3520471,34.4972866 C26.0753733,29.7475009 30.8099329,25.0097096 35.548986,20.2756666 C37.1426499,18.6841586 39.2807657,18.5762089 40.7995393,19.9833029 C42.333291,21.4046403 42.4156703,23.6236058 40.9410818,25.238353 C38.803715,27.578762 36.6326475,29.8899345 34.4758092,32.2123518 C31.1724016,35.7656953 27.8772319,39.3257856 24.5573485,42.864136 C24.0308703,43.4241249 23.8017062,44.0081027 23.8039529,44.7832413 C23.8271689,51.5668288 23.8174332,58.3519157 23.8166842,65.1362528 C23.8166842,66.5995707 23.4175194,66.9983847 21.9564112,66.9991344 C17.0795601,67.0006337 12.2034579,66.999884 7.32735573,66.9991344 C5.63483677,66.9991344 5.3030731,66.6692882 5.29483517,64.9788262 C5.29333737,64.7336905 5.29483517,64.4893044 5.29483517,64.1894442 Z" id="Stroke-15" stroke="#676767"></path>
                <path d="M71.2331352,11.07562 C71.3863313,10.8490201 71.5266982,10.6031036 71.72291,10.4166231 C72.22325,9.94410666 72.8103761,9.85495262 73.3907101,10.2450015 C73.9574603,10.626878 74.1514081,11.1729465 73.8767116,11.8207991 C73.7816244,12.0451701 73.6374842,12.2517103 73.5001359,12.4552787 C71.9017646,14.8208325 70.3026386,17.1849003 68.6997393,19.5474823 C67.9171562,20.7005412 67.2900331,20.8045542 66.1663434,19.9761646 C64.9717155,19.0950256 63.7793516,18.2116577 62.5069937,17.2710826 C62.3296485,17.5957519 62.1832443,17.848355 62.0519333,18.1069017 C60.7373144,20.6953405 59.441562,23.2926948 58.096002,25.8662747 C57.8530013,26.3321045 57.4726523,26.773417 57.0538156,27.0973433 C55.5256277,28.2786343 53.9581975,29.4094047 52.3998232,30.5505764 C51.5432833,31.1768835 50.7840946,31.1441936 50.2777173,30.4799961 C49.7728493,29.8180274 49.9615145,29.0891931 50.8014518,28.4547135 C50.8240916,28.4383686 50.8467315,28.4227667 50.8686166,28.4064218 C52.4571774,27.2154724 54.3159066,26.2451793 55.5580781,24.7711659 C56.8002496,23.2986384 57.4273726,21.3223906 58.3208909,19.5660561 C59.0664957,18.101701 59.8037991,16.6343742 60.5486492,15.1700191 C61.2663316,13.7576706 61.9492995,13.5912497 63.2141108,14.5184517 C64.4562823,15.4285658 65.6961898,16.3416517 67.0108087,17.3082301 C68.4635305,15.1633326 69.8468235,13.1187333 71.2331352,11.07562 Z" id="Fill-17" fill="#676767"></path>
                <path d="M67.0108087,17.3082301 C68.4635305,15.1633326 69.8468235,13.1187333 71.2331352,11.07562 C71.3863313,10.8490201 71.5266982,10.6031036 71.72291,10.4166231 C72.22325,9.94410666 72.8103761,9.85495262 73.3907101,10.2450015 C73.9574603,10.626878 74.1514081,11.1729465 73.8767116,11.8207991 C73.7816244,12.0451701 73.6374842,12.2517103 73.5001359,12.4552787 C71.9017646,14.8208325 70.3026386,17.1849003 68.6997393,19.5474823 C67.9171562,20.7005412 67.2900331,20.8045542 66.1663434,19.9761646 C64.9717155,19.0950256 63.7793516,18.2116577 62.5069937,17.2710826 C62.3296485,17.5957519 62.1832443,17.848355 62.0519333,18.1069017 C60.7373144,20.6953405 59.441562,23.2926948 58.096002,25.8662747 C57.8530013,26.3321045 57.4726523,26.773417 57.0538156,27.0973433 C55.5256277,28.2786343 53.9581975,29.4094047 52.3998232,30.5505764 C51.5432833,31.1768835 50.7840946,31.1441936 50.2777173,30.4799961 C49.7728493,29.8180274 49.9615145,29.0891931 50.8014518,28.4547135 C50.8240916,28.4383686 50.8467315,28.4227667 50.8686166,28.4064218 C52.4571774,27.2154724 54.3159066,26.2451793 55.5580781,24.7711659 C56.8002496,23.2986384 57.4273726,21.3223906 58.3208909,19.5660561 C59.0664957,18.101701 59.8037991,16.6343742 60.5486492,15.1700191 C61.2663316,13.7576706 61.9492995,13.5912497 63.2141108,14.5184517 C64.4562823,15.4285658 65.6961898,16.3416517 67.0108087,17.3082301 Z" id="Stroke-19" stroke="#676767"></path>
                <path d="M71.0017021,28.9683329 C71.0017021,26.1347523 70.9974653,23.3004717 71.0050915,20.4668911 C71.0076336,19.617797 71.4863897,19.1019005 72.310867,19.0116011 C73.2438059,18.9094018 73.9793108,19.4917978 73.9894791,20.3891917 C74.0089682,21.9606809 73.9954106,23.5321701 73.9954106,25.1036594 C73.9954106,29.2252311 74.0055788,33.3475029 73.9801581,37.4690746 C73.9784634,37.858972 73.9055908,38.3867683 73.6047795,38.6016669 C73.222622,38.875365 72.5455846,39.0496638 72.046492,38.9873642 C71.2872611,38.8928649 70.9983127,38.3363687 71.0000074,37.701473 C71.0050915,35.3571891 71.0017021,33.0129052 71.0017021,30.6686212 L71.0017021,28.9683329 Z" id="Fill-21" fill="#676767"></path>
                <path d="M71.0017021,28.9683329 C71.0017021,26.1347523 70.9974653,23.3004717 71.0050915,20.4668911 C71.0076336,19.617797 71.4863897,19.1019005 72.310867,19.0116011 C73.2438059,18.9094018 73.9793108,19.4917978 73.9894791,20.3891917 C74.0089682,21.9606809 73.9954106,23.5321701 73.9954106,25.1036594 C73.9954106,29.2252311 74.0055788,33.3475029 73.9801581,37.4690746 C73.9784634,37.858972 73.9055908,38.3867683 73.6047795,38.6016669 C73.222622,38.875365 72.5455846,39.0496638 72.046492,38.9873642 C71.2872611,38.8928649 70.9983127,38.3363687 71.0000074,37.701473 C71.0050915,35.3571891 71.0017021,33.0129052 71.0017021,30.6686212 L71.0017021,28.9683329 Z" id="Stroke-23" stroke="#676767"></path>
                <path d="M39.5541966,11.0011082 C42.1294323,11.0011082 44.7031305,10.9977143 47.2775975,11.0028051 C48.3622714,11.004502 48.980328,11.5373367 48.9995462,12.4664035 C49.0195331,13.4251664 48.3784147,13.9970304 47.2529983,13.9978788 C42.0756214,14.0004242 36.8990132,14.0012727 31.7216364,13.9970304 C30.6377312,13.9970304 30.0204433,13.4608019 30.0004564,12.5325836 C29.9804695,11.5695783 30.6177443,11.004502 31.7462356,11.0019567 C34.3491455,10.9985628 36.9512867,11.0011082 39.5541966,11.0011082" id="Fill-25" fill="#676767"></path>
                <path d="M39.5541966,11.0011082 C42.1294323,11.0011082 44.7031305,10.9977143 47.2775975,11.0028051 C48.3622714,11.004502 48.980328,11.5373367 48.9995462,12.4664035 C49.0195331,13.4251664 48.3784147,13.9970304 47.2529983,13.9978788 C42.0756214,14.0004242 36.8990132,14.0012727 31.7216364,13.9970304 C30.6377312,13.9970304 30.0204433,13.4608019 30.0004564,12.5325836 C29.9804695,11.5695783 30.6177443,11.004502 31.7462356,11.0019567 C34.3491455,10.9985628 36.9512867,11.0011082 39.5541966,11.0011082 Z" id="Stroke-27" stroke="#676767"></path>
                <path d="M63.9981678,31.4999997 C63.9981678,33.4806907 64.0032573,35.4613818 63.9964712,37.4420729 C63.9930782,38.425691 63.4306832,39.0007075 62.4984477,38.9999993 C61.5662122,38.9999993 61.0046654,38.4263991 61.0038172,37.4406566 C60.9987276,33.4792744 60.9987276,29.5186005 61.0038172,25.5572183 C61.0046654,24.5700595 61.5645157,24 62.4992959,24 C63.4340762,24 63.9930782,24.5721839 63.9964712,25.5586346 C64.0032573,27.5393257 63.9981678,29.5193086 63.9981678,31.4999997" id="Fill-29" fill="#676767"></path>
                <path d="M63.9981678,31.4999997 C63.9981678,33.4806907 64.0032573,35.4613818 63.9964712,37.4420729 C63.9930782,38.425691 63.4306832,39.0007075 62.4984477,38.9999993 C61.5662122,38.9999993 61.0046654,38.4263991 61.0038172,37.4406566 C60.9987276,33.4792744 60.9987276,29.5186005 61.0038172,25.5572183 C61.0046654,24.5700595 61.5645157,24 62.4992959,24 C63.4340762,24 63.9930782,24.5721839 63.9964712,25.5586346 C64.0032573,27.5393257 63.9981678,29.5193086 63.9981678,31.4999997 Z" id="Stroke-31" stroke="#676767"></path>
                <path d="M66.0025719,32.9982992 C66.0025719,31.4718675 65.9949435,29.9461158 66.0059623,28.4196841 C66.0118955,27.5364615 66.5925001,26.9993207 67.5002775,27.0000006 C68.4072074,27.0006806 68.9912024,27.5385013 68.9937452,28.4217239 C69.0022212,31.4745872 69.0022212,34.5274506 68.9928976,37.5796341 C68.9903548,38.460137 68.4021218,39.0013573 67.4977347,38.9999974 C66.5916525,38.9993175 66.0118955,38.460137 66.0059623,37.5769144 C65.9949435,36.0511626 66.0025719,34.5247309 66.0025719,32.9982992" id="Fill-33" fill="#676767"></path>
                <path d="M66.0025719,32.9982992 C66.0025719,31.4718675 65.9949435,29.9461158 66.0059623,28.4196841 C66.0118955,27.5364615 66.5925001,26.9993207 67.5002775,27.0000006 C68.4072074,27.0006806 68.9912024,27.5385013 68.9937452,28.4217239 C69.0022212,31.4745872 69.0022212,34.5274506 68.9928976,37.5796341 C68.9903548,38.460137 68.4021218,39.0013573 67.4977347,38.9999974 C66.5916525,38.9993175 66.0118955,38.460137 66.0059623,37.5769144 C65.9949435,36.0511626 66.0025719,34.5247309 66.0025719,32.9982992 Z" id="Stroke-35" stroke="#676767"></path>
                <path d="M55.0074877,35.4990075 C55.0074877,34.7443066 54.9872052,33.9896058 55.0134034,33.2355664 C55.0387566,32.4881413 55.6497665,32 56.4982507,32 C57.3458897,32.0006614 57.9695763,32.4894642 57.9822528,33.2368892 C58.0059157,34.7456295 58.0059157,36.2550312 57.9822528,37.7637715 C57.9695763,38.5092123 57.3416642,39.0006608 56.4965605,38.9999993 C55.6523019,38.9993379 55.0387566,38.5078894 55.0134034,37.7624487 C54.9872052,37.0084092 55.0074877,36.2537084 55.0074877,35.4990075" id="Fill-37" fill="#676767"></path>
                <path d="M55.0074877,35.4990075 C55.0074877,34.7443066 54.9872052,33.9896058 55.0134034,33.2355664 C55.0387566,32.4881413 55.6497665,32 56.4982507,32 C57.3458897,32.0006614 57.9695763,32.4894642 57.9822528,33.2368892 C58.0059157,34.7456295 58.0059157,36.2550312 57.9822528,37.7637715 C57.9695763,38.5092123 57.3416642,39.0006608 56.4965605,38.9999993 C55.6523019,38.9993379 55.0387566,38.5078894 55.0134034,37.7624487 C54.9872052,37.0084092 55.0074877,36.2537084 55.0074877,35.4990075 Z" id="Stroke-39" stroke="#676767"></path>
                <path d="M54.436846,13.9900113 C54.0452653,13.9908544 53.6529752,14.0136178 53.2628132,13.9857959 C52.5137023,13.9326813 52.0093293,13.3332458 52.0001073,12.5221952 C51.9915947,11.7086154 52.4902926,11.0644962 53.2323097,11.0290865 C54.0665469,10.9894614 54.9029122,10.9919907 55.7371494,11.0265573 C56.4848415,11.0569084 56.9913427,11.6765781 56.9998553,12.4859425 C57.0097867,13.2953069 56.5075419,13.9259366 55.7676529,13.9832666 C55.3257059,14.0169901 54.8809213,13.9891682 54.436846,13.9900113" id="Fill-41" fill="#676767"></path>
                <path d="M54.436846,13.9900113 C54.0452653,13.9908544 53.6529752,14.0136178 53.2628132,13.9857959 C52.5137023,13.9326813 52.0093293,13.3332458 52.0001073,12.5221952 C51.9915947,11.7086154 52.4902926,11.0644962 53.2323097,11.0290865 C54.0665469,10.9894614 54.9029122,10.9919907 55.7371494,11.0265573 C56.4848415,11.0569084 56.9913427,11.6765781 56.9998553,12.4859425 C57.0097867,13.2953069 56.5075419,13.9259366 55.7676529,13.9832666 C55.3257059,14.0169901 54.8809213,13.9891682 54.436846,13.9900113 Z" id="Stroke-43" stroke="#676767"></path>
                <path d="M13,31.4462277 C9.44018534,31.4462277 6.55442291,28.5603437 6.55442291,25.0003791 C6.55442291,21.4396563 9.44018534,18.5537723 13,18.5537723 C16.5598147,18.5537723 19.4455771,21.4396563 19.4455771,25.0003791 C19.4455771,28.5603437 16.5598147,31.4462277 13,31.4462277 M13,16 C8.02914912,16 4,20.0293188 4,25.0003791 C4,29.9706812 8.02914912,34 13,34 C17.9708509,34 22,29.9706812 22,25.0003791 C22,20.0293188 17.9708509,16 13,16" id="Fill-45" fill="#676767"></path>
                <path d="M13,31.4462277 C9.44018534,31.4462277 6.55442291,28.5603437 6.55442291,25.0003791 C6.55442291,21.4396563 9.44018534,18.5537723 13,18.5537723 C16.5598147,18.5537723 19.4455771,21.4396563 19.4455771,25.0003791 C19.4455771,28.5603437 16.5598147,31.4462277 13,31.4462277 Z M13,16 C8.02914912,16 4,20.0293188 4,25.0003791 C4,29.9706812 8.02914912,34 13,34 C17.9708509,34 22,29.9706812 22,25.0003791 C22,20.0293188 17.9708509,16 13,16 Z" id="Stroke-47" stroke="#676767"></path>
                <path d="M37,63.4462277 C33.4401853,63.4462277 30.5544229,60.5603437 30.5544229,57.0003791 C30.5544229,53.4396563 33.4401853,50.5537723 37,50.5537723 C40.5598147,50.5537723 43.4455771,53.4396563 43.4455771,57.0003791 C43.4455771,60.5603437 40.5598147,63.4462277 37,63.4462277 M37,48 C32.0291491,48 28,52.0293188 28,57.0003791 C28,61.9706812 32.0291491,66 37,66 C41.9708509,66 46,61.9706812 46,57.0003791 C46,52.0293188 41.9708509,48 37,48" id="Fill-49" fill="#676767"></path>
                <path d="M37,63.4462277 C33.4401853,63.4462277 30.5544229,60.5603437 30.5544229,57.0003791 C30.5544229,53.4396563 33.4401853,50.5537723 37,50.5537723 C40.5598147,50.5537723 43.4455771,53.4396563 43.4455771,57.0003791 C43.4455771,60.5603437 40.5598147,63.4462277 37,63.4462277 Z M37,48 C32.0291491,48 28,52.0293188 28,57.0003791 C28,61.9706812 32.0291491,66 37,66 C41.9708509,66 46,61.9706812 46,57.0003791 C46,52.0293188 41.9708509,48 37,48 Z" id="Stroke-51" stroke="#676767"></path>
                <path d="M66.0003791,63.4462277 C62.4404145,63.4462277 59.5537723,60.5603437 59.5537723,57.0003791 C59.5537723,53.4396563 62.4404145,50.5537723 66.0003791,50.5537723 C69.5603437,50.5537723 72.4462277,53.4396563 72.4462277,57.0003791 C72.4462277,60.5603437 69.5603437,63.4462277 66.0003791,63.4462277 M66.0003791,48 C61.0293188,48 57,52.0293188 57,57.0003791 C57,61.9706812 61.0293188,66 66.0003791,66 C70.9714394,66 75,61.9706812 75,57.0003791 C75,52.0293188 70.9714394,48 66.0003791,48" id="Fill-53" fill="#676767"></path>
                <path d="M66.0003791,63.4462277 C62.4404145,63.4462277 59.5537723,60.5603437 59.5537723,57.0003791 C59.5537723,53.4396563 62.4404145,50.5537723 66.0003791,50.5537723 C69.5603437,50.5537723 72.4462277,53.4396563 72.4462277,57.0003791 C72.4462277,60.5603437 69.5603437,63.4462277 66.0003791,63.4462277 Z M66.0003791,48 C61.0293188,48 57,52.0293188 57,57.0003791 C57,61.9706812 61.0293188,66 66.0003791,66 C70.9714394,66 75,61.9706812 75,57.0003791 C75,52.0293188 70.9714394,48 66.0003791,48 Z" id="Stroke-55" stroke="#676767"></path>
            </g>
        </g>
    </g>
</svg>