<?xml version="1.0" encoding="UTF-8"?>
<svg width="252px" height="1253px" viewBox="0 0 252 1253" version="1.1" xmlns="http://www.w3.org/2000/svg" xmlns:xlink="http://www.w3.org/1999/xlink">
    <!-- Generator: Sketch 52.6 (67491) - http://www.bohemiancoding.com/sketch -->
    <title>Group 17</title>
    <desc>Created with Sketch.</desc>
    <defs>
        <rect id="path-1" x="0" y="0" width="3" height="1240" rx="1.5"></rect>
        <filter x="-233.3%" y="-0.4%" width="566.7%" height="101.1%" filterUnits="objectBoundingBox" id="filter-2">
            <feOffset dx="0" dy="2" in="SourceAlpha" result="shadowOffsetOuter1"></feOffset>
            <feGaussianBlur stdDeviation="2" in="shadowOffsetOuter1" result="shadowBlurOuter1"></feGaussianBlur>
            <feComposite in="shadowBlurOuter1" in2="SourceAlpha" operator="out" result="shadowBlurOuter1"></feComposite>
            <feColorMatrix values="0 0 0 0 0   0 0 0 0 0   0 0 0 0 0  0 0 0 0.248329937 0" type="matrix" in="shadowBlurOuter1"></feColorMatrix>
        </filter>
    </defs>
    <g id="Welcome" stroke="none" stroke-width="1" fill="none" fill-rule="evenodd">
        <g id="Accelerator" transform="translate(-331.000000, -4601.000000)">
            <g id="Group-17" transform="translate(331.000000, 4601.000000)">
                <g id="Group-4" transform="translate(177.000000, 5.000000)">
                    <g id="Rectangle" transform="translate(1.500000, 620.000000) scale(-1, 1) translate(-1.500000, -620.000000) ">
                        <use fill="black" fill-opacity="1" filter="url(#filter-2)" xlink:href="#path-1"></use>
                        <rect stroke="#DEDEDE" stroke-width="10" stroke-linejoin="square" fill="#DEDEDE" fill-rule="evenodd" x="5" y="5" width="1" height="1230" rx="0.5"></rect>
                    </g>
                </g>
                <g id="Group-5" transform="translate(129.000000, 252.000000) scale(-1, 1) translate(-129.000000, -252.000000) translate(74.000000, 246.000000)" fill="#DEDEDE">
                    <path d="M12,6 L108,6" id="Line-Copy" stroke="#DEDEDE" stroke-linecap="square"></path>
                    <circle id="Oval-2-Copy-3" cx="6" cy="6" r="6"></circle>
                    <circle id="Oval-2-Copy-5" cx="106" cy="6" r="4"></circle>
                </g>
                <g id="Group-5" transform="translate(109.000000, 1247.000000) scale(-1, 1) translate(-109.000000, -1247.000000) translate(34.000000, 1241.000000)" fill="#DEDEDE">
                    <path d="M12,6 L148,6" id="Line-Copy" stroke="#DEDEDE" stroke-linecap="square"></path>
                    <circle id="Oval-2-Copy-3" cx="6" cy="6" r="6"></circle>
                    <circle id="Oval-2-Copy-5" cx="146" cy="6" r="4"></circle>
                </g>
                <g id="Group-5" transform="translate(134.000000, 846.000000) scale(-1, 1) translate(-134.000000, -846.000000) translate(84.000000, 840.000000)" fill="#DEDEDE">
                    <path d="M12,6 L98,6" id="Line-Copy" stroke="#DEDEDE" stroke-linecap="square"></path>
                    <circle id="Oval-2-Copy-3" cx="6" cy="6" r="6"></circle>
                    <circle id="Oval-2-Copy-5" cx="96" cy="6" r="4"></circle>
                </g>
                <g id="Group-5" transform="translate(172.000000, 60.000000)" fill="#DEDEDE">
                    <path d="M12,6 L77,6" id="Line-Copy" stroke="#DEDEDE" stroke-linecap="square"></path>
                    <circle id="Oval-2-Copy-3" cx="6" cy="6" r="6"></circle>
                    <circle id="Oval-2-Copy-5" cx="75" cy="6" r="4"></circle>
                </g>
                <circle id="Oval-2-Copy-3" fill="#DEDEDE" cx="178" cy="10" r="10"></circle>
                <g id="Group-5" transform="translate(136.000000, 587.500000) scale(-1, 1) translate(-136.000000, -587.500000) translate(86.000000, 580.000000)" fill="#DEDEDE">
                    <path d="M12,8 L98,8" id="Line-Copy" stroke="#DEDEDE" stroke-linecap="square"></path>
                    <circle id="Oval-2-Copy-3" cx="7.5" cy="7.5" r="7.5"></circle>
                    <circle id="Oval-2-Copy-5" cx="96" cy="8" r="4"></circle>
                </g>
                <g id="Group-5" transform="translate(172.000000, 411.000000)" fill="#DEDEDE">
                    <path d="M13,7 L78,7" id="Line-Copy" stroke="#DEDEDE" stroke-linecap="square"></path>
                    <circle id="Oval-2-Copy-3" cx="7" cy="7" r="7"></circle>
                    <circle id="Oval-2-Copy-5" cx="76" cy="7" r="4"></circle>
                </g>
                <g id="Group-5" transform="translate(172.000000, 686.000000)" fill="#DEDEDE">
                    <path d="M13,7 L78,7" id="Line-Copy" stroke="#DEDEDE" stroke-linecap="square"></path>
                    <circle id="Oval-2-Copy-3" cx="7" cy="7" r="7"></circle>
                    <circle id="Oval-2-Copy-5" cx="76" cy="7" r="4"></circle>
                </g>
                <g id="Group-5" transform="translate(93.000000, 1119.000000) scale(-1, 1) translate(-93.000000, -1119.000000) translate(0.000000, 1112.000000)" fill="#DEDEDE">
                    <path d="M12,6 L184,6" id="Line-Copy" stroke="#DEDEDE" stroke-linecap="square"></path>
                    <circle id="Oval-2-Copy-3" cx="7" cy="7" r="7"></circle>
                    <circle id="Oval-2-Copy-5" cx="182" cy="6" r="4"></circle>
                </g>
                <g id="Group-5" transform="translate(172.000000, 1179.000000)" fill="#DEDEDE">
                    <path d="M13,7 L78,7" id="Line-Copy" stroke="#DEDEDE" stroke-linecap="square"></path>
                    <circle id="Oval-2-Copy-3" cx="7" cy="7" r="7"></circle>
                    <circle id="Oval-2-Copy-5" cx="76" cy="7" r="4"></circle>
                </g>
            </g>
        </g>
    </g>
</svg>