<?xml version="1.0" encoding="UTF-8"?>
<svg width="194px" height="139px" viewBox="0 0 194 139" version="1.1" xmlns="http://www.w3.org/2000/svg" xmlns:xlink="http://www.w3.org/1999/xlink">
    <!-- Generator: Sketch 52.6 (67491) - http://www.bohemiancoding.com/sketch -->
    <title>Group 31</title>
    <desc>Created with Sketch.</desc>
    <defs>
        <polygon id="path-1" points="0 0.177520888 193.637573 0.177520888 193.637573 139 0 139"></polygon>
    </defs>
    <g id="Welcome" stroke="none" stroke-width="1" fill="none" fill-rule="evenodd">
        <g id="Startup-Services" transform="translate(-173.000000, -1663.000000)">
            <g id="Group-31" transform="translate(173.000000, 1663.000000)">
                <path d="M128.79454,129.093031 L129.945123,129.093031 C131.632492,129.093031 133,130.41552 133,132.046516 L133,132.046884 C133,133.677511 131.632492,135 129.945123,135 L82.0548774,135 C80.3678897,135 79,133.677511 79,132.046884 L79,132.022926 C79,130.391562 80.3678897,129.06981 82.0548774,129.06981 L83.1658112,129.06981 C84.8531802,129.06981 86.2210699,127.747322 86.2210699,126.115957 L86.2210699,122.953853 C86.2210699,121.322489 87.5889596,120 89.2759473,120 L89.4463616,120 C91.1337306,120 92.501239,121.322489 92.501239,122.953853 L92.501239,125.985109 C92.501239,127.616473 93.8691287,128.938962 95.5564977,128.938962 L116.325318,128.938962 C118.012687,128.938962 119.380577,127.616473 119.380577,125.985109 L119.380577,122.961593 C119.380577,121.330229 120.748085,120.008109 122.435454,120.008109 L122.684404,120.008109 C124.371773,120.008109 125.739662,121.330229 125.739662,122.961593 L125.739662,126.139178 C125.739662,127.770543 127.107552,129.093031 128.79454,129.093031" id="Fill-1" fill="#676767"></path>
                <g id="Group-27" transform="translate(14.000000, 15.000000)" fill="#676767" fill-opacity="0.7">
                    <path d="M164.923162,54.4843625 L146.274956,54.4843625 C145.20264,54.4843625 144.325604,55.360876 144.325604,56.4320855 L144.325604,71.2427206 C144.325604,72.3139301 145.20264,73.1904436 146.274956,73.1904436 L164.923162,73.1904436 C165.995478,73.1904436 166.872514,72.3139301 166.872514,71.2427206 L166.872514,56.4320855 C166.872514,55.360876 165.995478,54.4843625 164.923162,54.4843625" id="Fill-3"></path>
                    <path d="M164.923162,78.535 L146.274956,78.535 C145.20264,78.535 144.325604,79.4115135 144.325604,80.482723 L144.325604,83.8406554 C144.325604,84.9118649 145.20264,85.7883784 146.274956,85.7883784 L164.923162,85.7883784 C165.995478,85.7883784 166.872514,84.9118649 166.872514,83.8406554 L166.872514,80.482723 C166.872514,79.4115135 165.995478,78.535 164.923162,78.535" id="Fill-5"></path>
                    <path d="M164.923162,91.5147297 L146.274956,91.5147297 C145.20264,91.5147297 144.325604,92.3912432 144.325604,93.4624527 L144.325604,96.8203851 C144.325604,97.8915946 145.20264,98.7681081 146.274956,98.7681081 L164.923162,98.7681081 C165.995478,98.7681081 166.872514,97.8915946 166.872514,96.8203851 L166.872514,93.4624527 C166.872514,92.3912432 165.995478,91.5147297 164.923162,91.5147297" id="Fill-7"></path>
                    <path d="M160.846948,105.157724 L150.223914,105.157724 C149.151598,105.157724 148.274561,106.034237 148.274561,107.105065 L148.274561,108.374024 C148.274561,109.44447 149.151598,110.320984 150.223914,110.320984 L160.846948,110.320984 C161.919264,110.320984 162.7963,109.44447 162.7963,108.374024 L162.7963,107.105065 C162.7963,106.034237 161.919264,105.157724 160.846948,105.157724" id="Fill-9"></path>
                    <path d="M17.9610984,97.9658463 L17.9610984,73.2291537 C17.9610984,72.1579443 17.0840618,71.2818125 16.011746,71.2818125 L1.9493524,71.2818125 C0.877036613,71.2818125 0,72.1579443 0,73.2291537 L0,97.9658463 C0,99.0370557 0.877036613,99.9135693 1.9493524,99.9135693 L16.011746,99.9135693 C17.0840618,99.9135693 17.9610984,99.0370557 17.9610984,97.9658463" id="Fill-11"></path>
                    <path d="M38.9407696,71.2816598 L24.878376,71.2816598 C23.8060602,71.2816598 22.9290236,72.1581733 22.9290236,73.2293828 L22.9290236,97.9656936 C22.9290236,99.036903 23.8060602,99.9134166 24.878376,99.9134166 L38.9407696,99.9134166 C40.0130854,99.9134166 40.890122,99.036903 40.890122,97.9656936 L40.890122,73.2293828 C40.890122,72.1581733 40.0130854,71.2816598 38.9407696,71.2816598" id="Fill-13"></path>
                    <path d="M38.9407696,46.4674706 L1.94931419,46.4674706 C0.876998398,46.4674706 -3.82151029e-05,47.3439841 -3.82151029e-05,48.4151936 L-3.82151029e-05,63.9893422 C-3.82151029e-05,65.0605517 0.876998398,65.9370652 1.94931419,65.9370652 L38.9407696,65.9370652 C40.0130854,65.9370652 40.890122,65.0605517 40.890122,63.9893422 L40.890122,48.4151936 C40.890122,47.3439841 40.0130854,46.4674706 38.9407696,46.4674706" id="Fill-15"></path>
                    <path d="M28.6226918,106.785 L12.649543,106.785 C11.5772272,106.785 10.7001906,107.661514 10.7001906,108.732723 L10.7001906,110.945385 C10.7001906,112.016595 11.5772272,112.893108 12.649543,112.893108 L28.6226918,112.893108 C29.6950076,112.893108 30.5720442,112.016595 30.5720442,110.945385 L30.5720442,108.732723 C30.5720442,107.661514 29.6950076,106.785 28.6226918,106.785" id="Fill-17"></path>
                    <path d="M147.107625,22.6244324 C147.023934,15.8848986 147.036163,9.14307432 147.117943,2.40277703 C147.137433,0.786418919 146.583314,0.381375 145.032163,0.389773649 C134.083154,0.446273649 123.133762,0.415733108 112.184371,0.415351351 C85.9573458,0.414587838 59.7299384,0.431003378 33.5029133,0.380611486 C31.7473114,0.377175676 31.0590574,0.727246622 31.0942153,2.6555 C31.2149751,9.20377365 31.2111535,15.7562466 31.1022405,22.3041385 C31.0712863,24.1713108 31.6643847,24.6301824 33.4677554,24.6244561 C51.9917622,24.5637568 70.5165334,24.5874257 89.0413046,24.5874257 L89.0413046,24.5744459 C107.69295,24.5744459 126.344977,24.5599392 144.997005,24.6023142 C146.501151,24.6053682 147.128261,24.2942365 147.107625,22.6244324" id="Fill-19"></path>
                    <path d="M114.223796,32.8009986 C107.792577,32.8582622 101.359828,32.87735 94.9297551,32.780002 C93.244087,32.7544243 92.9425698,33.3869953 92.9624416,34.8884446 C93.0373432,40.6128872 92.9926316,46.338475 92.9949245,52.0636811 C92.9972174,57.9797655 93.0323753,63.8966135 92.9704668,69.8119345 C92.9563272,71.1561 93.3812792,71.5538905 94.7165149,71.5412926 C101.211554,71.4802115 107.707357,71.4775392 114.202014,71.5386203 C115.582343,71.5516 116.090986,71.2114547 116.08449,69.7382554 C116.032899,58.0335932 116.035574,46.3281676 116.092515,34.6231236 C116.099394,33.1632858 115.616355,32.7884007 114.223796,32.8009986" id="Fill-21"></path>
                    <path d="M82.5052609,32.8009986 C76.0740412,32.8582622 69.6412929,32.87735 63.2112197,32.780002 C61.5255515,32.7544243 61.2240343,33.3869953 61.2439062,34.8884446 C61.3188078,40.6128872 61.2740961,46.338475 61.276389,52.0636811 C61.2786819,57.9797655 61.3138398,63.8966135 61.2519314,69.8119345 C61.2377918,71.1561 61.6627437,71.5538905 62.9979794,71.5412926 C69.4930183,71.4802115 75.9888215,71.4775392 82.4834783,71.5386203 C83.8638078,71.5516 84.3724508,71.2114547 84.3659542,69.7382554 C84.3143638,58.0335932 84.3170389,46.3281676 84.3739794,34.6231236 C84.3808581,33.1632858 83.8978192,32.7884007 82.5052609,32.8009986" id="Fill-23"></path>
                    <path d="M136.507023,42.289372 L146.645108,42.289372 C146.652368,39.734274 146.651986,37.1787943 146.664597,34.6233145 C146.671476,33.1634767 146.188055,32.7882098 144.795879,32.8011895 C138.364659,32.858453 131.931911,32.8775409 125.501838,32.7801929 C123.816169,32.7542334 123.514652,33.3871861 123.534524,34.8882537 C123.609426,40.6126963 123.564714,46.3382841 123.567007,52.063872 C123.5693,57.9799564 123.604458,63.8968044 123.542549,69.8121253 C123.52841,71.1559091 123.953362,71.5536997 125.288597,71.5411017 C127.278076,71.5223956 129.267172,71.5113247 131.25665,71.5036895 L131.25665,47.534328 C131.25665,44.649774 133.619108,42.289372 136.507023,42.289372" id="Fill-25"></path>
                </g>
                <g id="Group-30">
                    <mask id="mask-2" fill="white">
                        <use xlink:href="#path-1"></use>
                    </mask>
                    <g id="Clip-29"></g>
                    <path d="M188.245446,125.712062 C188.245446,128.270278 186.401679,130.362979 184.148442,130.362979 L154.593731,130.362979 C152.34011,130.362979 150.496727,128.270278 150.496727,125.712062 L150.496727,86.7443169 L150.496727,66.6359069 C150.496727,64.0780759 152.34011,61.9853751 154.593731,61.9853751 L160.531051,61.9853751 L184.148442,61.9853751 C186.401679,61.9853751 188.245446,64.0780759 188.245446,66.6359069 L188.245446,125.712062 Z M122.865529,111.738134 C105.300478,111.738134 87.7354265,111.716187 70.1707585,111.773558 C68.462715,111.778563 67.7810312,111.383896 67.8868494,109.553023 C68.0371419,106.951298 67.9251893,104.33417 67.9251893,101.623863 L145.104217,101.623863 L145.104217,111.711181 C137.691577,111.750455 130.278553,111.738134 122.865529,111.738134 Z M55.7085569,47.8058349 C49.838715,48.0222283 43.954304,47.8381784 38.0764107,47.8320177 C37.4530036,47.8312476 36.8295964,47.8320177 36.1103395,47.8320177 C36.068549,47.0680953 36.0118059,46.5082449 36.0118059,45.9480094 C36.0064383,33.7568238 36.0056715,21.5652532 36.0098889,9.37368255 C36.0106557,6.88746925 36.4596162,6.41771856 38.8727308,6.41771856 C81.4887032,6.41386814 124.104675,6.41386814 166.720648,6.41771856 C168.948964,6.4181036 169.501442,6.87591801 169.503359,8.85195125 C169.519462,24.9963584 169.516778,41.1403806 169.513328,57.2847878 L160.542936,57.2847878 L150.371739,57.2847878 C147.474774,57.2847878 145.104217,59.6654997 145.104217,62.5748737 L145.104217,86.7508626 L145.104217,95.2660565 C141.772478,95.2995551 138.439205,95.2787629 135.106699,95.2787629 C113.575,95.2787629 92.0436834,95.279918 70.5123672,95.2779928 C67.9244225,95.2779928 67.9205885,95.271062 67.9202051,92.6500842 C67.9186715,81.8704609 67.6913158,71.0839069 67.9984186,60.3127546 C68.2069877,52.9965801 63.116213,47.5324554 55.7085569,47.8058349 Z M61.7240905,127.258774 C61.7229403,130.846976 59.8465846,132.743306 56.3043593,132.746001 C41.4177348,132.757167 26.5307269,132.758707 11.643719,132.744846 C8.17702332,132.741381 6.33325652,130.88163 6.32827233,127.380832 C6.31140277,116.087948 6.32175455,104.795065 6.32175455,93.5021812 L6.30335138,93.5021812 C6.30335138,82.4018183 6.2956834,71.3010704 6.30680198,60.2003224 C6.31140277,55.7592532 7.92628024,54.1405385 12.2889798,54.1401535 C26.9202605,54.1389983 41.5515411,54.1397684 56.1828217,54.1413086 C59.8573198,54.1416936 61.7233237,55.9821922 61.7244739,59.6916825 C61.7340589,82.213918 61.7340589,104.736153 61.7240905,127.258774 Z M188.370051,57.2847878 L175.82983,57.2847878 L175.82983,57.0141036 C175.82983,41.0394997 175.849,25.0641258 175.819478,9.08952188 C175.809509,3.42556066 172.60966,0.191596676 167.058423,0.19005651 C124.385707,0.176580055 81.7126083,0.17272964 39.0395095,0.184665928 C32.7233909,0.186591136 29.7972881,3.14101496 29.7838692,9.50382659 C29.7585648,21.5009512 29.782719,33.4980759 29.7777348,45.4952006 C29.7773514,46.2337102 29.7029719,46.9722199 29.6554304,47.8539651 L27.1549008,47.8539651 C21.9169008,47.8555053 16.678134,47.8077601 11.4409008,47.872062 C6.13848972,47.9371341 2.16494032,50.7741202 0.608722925,55.4585357 C0.408588538,56.0607407 0.203086561,56.6617906 -0.000115019763,57.2632255 L-0.000115019763,129.651037 C0.108003557,129.879752 0.244877075,130.099611 0.319256522,130.338721 C2.15688893,136.270671 5.72480198,138.951331 11.8591893,138.975588 C15.6920312,138.99099 19.5252565,138.985599 23.3580984,138.985214 C34.5372526,138.983289 45.7167901,139.036425 56.8951775,138.953256 C63.2530866,138.906281 67.7607111,134.35432 67.9067862,128.065821 C67.9543277,126.013935 67.9179047,123.960123 67.9190549,121.907081 C67.9202051,120.661472 67.9194383,119.415478 67.9194383,118.166018 L145.104217,118.166018 L145.104217,129.77348 C145.104217,132.682854 147.474774,135.063181 150.371739,135.063181 L188.370051,135.063181 C191.267015,135.063181 193.637573,132.682854 193.637573,129.77348 L193.637573,62.5748737 C193.637573,59.6654997 191.267015,57.2847878 188.370051,57.2847878 Z" id="Fill-28" fill="#676767" mask="url(#mask-2)"></path>
                </g>
            </g>
        </g>
    </g>
</svg>