<?xml version="1.0" encoding="UTF-8"?>
<svg width="150px" height="160px" viewBox="0 0 150 160" version="1.1" xmlns="http://www.w3.org/2000/svg" xmlns:xlink="http://www.w3.org/1999/xlink">
    <!-- Generator: Sketch 52.6 (67491) - http://www.bohemiancoding.com/sketch -->
    <title>Group 7</title>
    <desc>Created with Sketch.</desc>
    <defs>
        <polygon id="path-1" points="1.6257463e-05 0.200907612 126.522441 0.200907612 126.522441 144 1.6257463e-05 144"></polygon>
        <polygon id="path-3" points="0.185768966 0.46647541 33.559155 0.46647541 33.559155 34.6824754 0.185768966 34.6824754"></polygon>
    </defs>
    <g id="Welcome" stroke="none" stroke-width="1" fill="none" fill-rule="evenodd">
        <g id="Startup" transform="translate(-267.000000, -1446.000000)">
            <g id="Group-7" transform="translate(267.000000, 1446.000000)">
                <g id="Group-3" transform="translate(0.000000, 16.000000)">
                    <mask id="mask-2" fill="white">
                        <use xlink:href="#path-1"></use>
                    </mask>
                    <g id="Clip-2"></g>
                    <path d="M126.486839,65.4334272 C126.486839,56.5267392 126.523953,47.6200512 126.420149,38.7145152 C126.406232,37.5325632 125.999716,35.9514432 125.176245,35.2683072 C123.510747,33.8853312 121.479907,32.9009472 119.512277,31.9280832 C117.998716,31.1804352 116.617953,31.7397312 115.780565,33.1376832 C114.9223,34.5701952 115.285903,35.9341632 116.594177,36.9605952 C117.239035,37.4645952 117.958122,37.9161792 118.710843,38.2329792 C120.200049,38.8602432 120.580469,39.8987712 120.576989,41.4706752 C120.523638,61.7499072 120.51204,82.0297152 120.585108,102.308947 C120.592647,104.290387 119.917053,105.340435 118.213862,106.309843 C100.644368,116.311507 83.10909,126.374227 65.6120854,136.500883 C63.9042543,137.489875 62.6458525,137.524435 60.9304826,136.531987 C43.2525466,126.307411 25.5345968,116.149075 7.79577032,106.028179 C6.41616758,105.240787 5.91802603,104.368723 5.92150548,102.787027 C5.97253744,82.4392512 5.97543699,62.0908992 5.9029484,41.7436992 C5.89656941,39.9154752 6.48749635,38.9356992 8.06774749,38.0359872 C25.8123731,27.9237312 43.5216242,17.7504192 61.2117384,7.5454272 C62.6185968,6.7344192 63.6972269,6.6238272 65.1719347,7.4826432 C75.8683502,13.7092032 86.6221767,19.8384192 97.3557064,26.0027712 C98.9446562,26.9157312 100.520848,27.8511552 102.123136,28.7877312 C101.954382,29.1488832 101.914368,29.3660352 101.783889,29.4950592 C97.7291676,33.5068992 93.6924233,37.5371712 89.560574,41.4695232 C89.1755146,41.8358592 88.0168571,41.8502592 87.4897201,41.5518912 C80.244921,37.4611392 73.0273776,33.3214272 65.8544872,29.1085632 C64.1182406,28.0884672 62.630195,28.0089792 60.8620534,29.0313792 C49.6112452,35.5372992 38.3326014,41.9965632 27.0336607,48.4195392 C25.2904553,49.4108352 24.5284553,50.6486592 24.5400534,52.7044032 C24.6137018,65.6528832 24.6113822,78.6019392 24.5359941,91.5504192 C24.523816,93.6148032 25.3310489,94.8318912 27.0632361,95.8185792 C38.2995466,102.213331 49.5196196,108.635155 60.7002589,115.124371 C62.5426288,116.194003 64.0538708,116.123155 65.8672452,115.071955 C76.9893137,108.619027 88.1461767,102.223699 99.3297155,95.8756032 C101.14483,94.8445632 101.957282,93.5917632 101.944524,91.4524992 C101.864496,78.7096512 101.90567,65.9668032 101.90335,53.2233792 C101.90277,49.9557312 101.128012,48.7518912 99.0229438,48.7207872 C96.8471265,48.6885312 95.9836425,49.9557312 95.9813228,53.3236032 C95.9703046,64.9697472 95.941889,76.6176192 96.0161174,88.2643392 C96.0271356,90.1063872 95.5481311,91.2151872 93.8374005,92.1736512 C84.1813411,97.5897792 74.5908114,103.122259 65.0199986,108.686995 C63.7297018,109.437523 62.7931493,109.466899 61.487195,108.707155 C51.73951,103.036435 41.9518114,97.4348352 32.1472954,91.8608832 C30.9897977,91.2025152 30.5223913,90.4514112 30.5281904,89.1024192 C30.5792224,77.7984192 30.5774826,66.4938432 30.5334096,55.1892672 C30.5281904,53.8673472 30.9347064,53.0741952 32.1136607,52.4043072 C42.0387977,46.7652672 51.9378388,41.0801472 61.8200626,35.3673792 C62.8238845,34.7873472 63.5690671,34.7297472 64.6123228,35.3397312 C70.6648297,38.8821312 76.7706881,42.3352512 82.8510306,45.8309952 C83.2958205,46.0867392 83.6843594,46.4369472 83.9621356,46.6408512 C80.308711,50.3739072 76.7811265,54.0320832 73.1613365,57.5986752 C72.7971539,57.9569472 71.7399804,58.0249152 71.2389393,57.7703232 C69.2811676,56.7755712 67.4103822,55.6085952 65.5216196,54.4813632 C64.1907292,53.6864832 62.8812954,53.4284352 61.4442817,54.2642112 C57.1639758,56.7525312 52.8164005,59.1308352 48.6068434,61.7308992 C47.7729347,62.2469952 46.983679,63.5493312 46.9523639,64.5129792 C46.7859301,69.5777472 46.7830306,74.6528832 46.945405,79.7176512 C46.9761402,80.6818752 47.7706151,81.9842112 48.6062635,82.5014592 C52.8146607,85.1032512 57.1077247,87.5812032 61.4837155,89.8938432 C62.4034507,90.3805632 64.0179164,90.4082112 64.9277932,89.9272512 C69.3640945,87.5840832 73.6994918,85.0433472 77.9942954,82.4490432 C78.7128023,82.0147392 79.4458068,81.0009792 79.5055374,80.2060992 C79.6945877,77.6872512 79.6725511,75.1401792 79.5235146,72.6155712 C79.4284096,71.0114112 78.1856653,70.1975232 76.6668845,70.2194112 C75.1544826,70.2407232 74.0143822,71.0718912 73.8363502,72.6766272 C73.6936927,73.9645632 73.9169575,75.3049152 73.6786151,76.5663552 C73.5243594,77.3831232 73.0157795,78.3836352 72.3477247,78.8110272 C69.7439347,80.4768192 67.0450397,82.0043712 64.3072909,83.4426432 C63.7279621,83.7473472 62.699784,83.7173952 62.1111767,83.4063552 C59.3774872,81.9600192 56.6756927,80.4364992 54.0771219,78.7649472 C53.4183457,78.3415872 52.8442361,77.2921152 52.8042224,76.5012672 C52.6551858,73.5625152 52.6528662,70.6070592 52.806542,67.6694592 C52.8477155,66.8849472 53.4577795,65.8527552 54.1252543,65.4253632 C56.7284644,63.7607232 59.4348982,62.2475712 62.1633685,60.7908672 C62.706163,60.5011392 63.6096607,60.4867392 64.1831904,60.7286592 C65.3725831,61.2292032 66.452953,61.9877952 67.8041402,62.7717312 C65.5459758,65.0469312 63.4461265,67.1147712 61.4048479,69.2379072 C59.9353594,70.7666112 59.8611311,72.3292992 61.0829986,73.6149312 C62.3129849,74.9092032 64.0753274,74.8337472 65.6497795,73.4121792 C65.9553913,73.1356992 66.2407064,72.8373312 66.5353,72.5487552 C85.1961813,54.2215872 103.930131,35.9664192 122.455894,17.5061952 C120.905218,16.1284032 119.385857,14.7367872 117.9703,13.2357312 C117.869976,13.3405632 117.772551,13.4476992 117.669907,13.5513792 C117.531889,13.6901952 117.389232,13.8071232 117.244254,13.9102272 C113.993286,17.2596672 110.751597,20.5929792 107.480332,23.8819392 C107.183419,24.1803072 106.187716,24.1445952 105.735387,23.8871232 C92.4125648,16.2925632 79.0984416,8.6841792 65.842889,0.9767232 C63.9674644,-0.1142208 62.4527429,-0.0088128 60.6880808,1.0060992 C41.433953,12.0791232 22.1775055,23.1492672 2.87350548,34.1364672 C0.814249772,35.3080512 -0.00458127854,36.7088832 0.00121780822,39.0457152 C0.0626881279,61.1065152 0.0644278539,83.1673152 5.79908676e-05,105.228115 C-0.00690091324,107.581651 0.856003196,108.951955 2.901921,110.116051 C22.1438708,121.072723 41.344647,132.100243 60.5257064,143.161171 C62.40809,144.246355 63.9837018,144.299923 65.8933411,143.198035 C85.0744005,132.135955 104.274597,121.107283 123.525245,110.165011 C125.747455,108.902419 126.537871,107.371411 126.522213,104.895187 C126.435807,91.7416512 126.487419,78.5875392 126.486839,65.4334272" id="Fill-1" fill="#676767" mask="url(#mask-2)"></path>
                </g>
                <g id="Group-6" transform="translate(116.000000, 0.000000)">
                    <mask id="mask-4" fill="white">
                        <use xlink:href="#path-3"></use>
                    </mask>
                    <g id="Clip-5"></g>
                    <path d="M15.5338379,26.858541 C13.0764586,28.8552623 9.81245862,27.9819836 6.87087241,28.0565738 C6.67332069,28.0611639 6.28994138,27.4105082 6.27938966,27.0564918 C6.22428621,25.2554262 5.99273448,23.3998525 6.34797586,21.665918 C6.68387241,20.026082 7.34804483,18.2416557 8.43487241,17.0000164 C10.8945966,14.1891148 13.700769,11.6714098 16.3738724,9.04239344 C16.5198379,8.89952459 16.7338034,8.82436066 17.2649069,8.51337705 C17.2649069,10.6024754 17.2525966,12.4264918 17.2684241,14.2499344 C17.2865966,16.4520656 17.9982517,17.1996885 20.2317,17.2714098 C21.8631138,17.323623 23.4980448,17.2817377 25.1318034,17.2817377 C25.2003897,17.4423934 25.2689759,17.6041967 25.3381483,17.7654262 C22.0870448,20.8167377 18.9889414,24.0493607 15.5338379,26.858541 M33.2460793,14.3641148 C32.7384241,13.6377213 31.5595621,13.0461639 30.6339414,12.9767377 C28.139631,12.7879672 25.6189414,12.8677213 23.1117345,12.928541 C22.0038034,12.9549344 21.5711828,12.5831311 21.5999069,11.4906721 C21.6679069,8.92419672 21.6374241,6.35542623 21.6989759,3.78837705 C21.7300448,2.47329508 21.4738724,1.28731148 20.1678034,0.701491803 C18.9297345,0.146081967 17.8862862,0.630918033 16.9524586,1.55411475 C12.8994241,5.56247541 8.79363103,9.51977049 4.75173448,13.5378852 C2.38287241,15.8926393 1.05511379,18.7505902 0.937286207,22.0750164 C0.856389655,24.3620656 0.917355172,26.6542787 0.862251724,28.9424754 C0.837631034,29.966082 0.6307,30.5180492 0.185768966,30.6643607 C1.40097586,31.9455902 2.51945862,33.3117377 3.63325172,34.6824754 C5.64159655,33.5050984 7.84104483,32.9519836 10.5950448,33.1992787 C14.1896655,33.5223115 17.412631,32.0115738 20.0112862,29.5271475 C24.2132172,25.5090328 28.3395276,21.4146066 32.5092172,17.3626393 C33.4078724,16.4899344 33.9295966,15.3406721 33.2460793,14.3641148" id="Fill-4" fill="#676767" mask="url(#mask-4)"></path>
                </g>
            </g>
        </g>
    </g>
</svg>