<?xml version="1.0" encoding="UTF-8"?>
<svg width="167px" height="136px" viewBox="0 0 167 136" version="1.1" xmlns="http://www.w3.org/2000/svg" xmlns:xlink="http://www.w3.org/1999/xlink">
    <!-- Generator: Sketch 52.6 (67491) - http://www.bohemiancoding.com/sketch -->
    <title>Group 12</title>
    <desc>Created with Sketch.</desc>
    <defs>
        <path d="M0.5,3.317 C0.514,4.808 1.822,5.974 3.506,6 C6.16,6.038 8.469,4.55 8.5,2.778 C8.525,1.293 7.237,0.068 5.583,0.005 C5.499,0.002 5.415,0 5.331,0 C2.713,0 0.483,1.509 0.5,3.317 Z" id="path-1"></path>
        <path d="M0.555,1.771 C-0.297,3.031 0.014,4.727 1.265,5.645 C3.169,7.045 5.503,6.959 6.539,5.452 C7.405,4.192 7.106,2.518 5.846,1.585 C4.971,0.936 3.955,0.616 3.023,0.616 C1.996,0.616 1.073,1.004 0.555,1.771 Z" id="path-3"></path>
    </defs>
    <g id="Welcome" stroke="none" stroke-width="1" fill="none" fill-rule="evenodd">
        <g id="Startup" transform="translate(-614.000000, -1022.000000)">
            <g id="Group-12" transform="translate(614.000000, 1022.000000)">
                <g id="Group-3" transform="translate(38.000000, 26.000000)">
                    <mask id="mask-2" fill="white">
                        <use xlink:href="#path-1"></use>
                    </mask>
                    <g id="Clip-2"></g>
                    <polygon id="Fill-1" fill="#676767" mask="url(#mask-2)" points="-4.5 11 13.5 11 13.5 -5 -4.5 -5"></polygon>
                </g>
                <g id="Group-6" transform="translate(94.000000, 45.000000)">
                    <mask id="mask-4" fill="white">
                        <use xlink:href="#path-3"></use>
                    </mask>
                    <g id="Clip-5"></g>
                    <polygon id="Fill-4" fill="#676767" mask="url(#mask-4)" points="1.5742 -7.8945 15.1502 2.3355 5.5212 15.1145 -8.0548 4.8825"></polygon>
                </g>
                <g id="Group-11" fill="#676767">
                    <path d="M165.945667,53.84784 C165.228149,52.25664 164.06983,51.8933257 161.622115,52.4790971 C161.514341,52.5043543 161.379382,52.4159543 161.182283,52.3605829 C160.936638,51.9661829 160.65701,51.5270971 160.385149,51.0821829 C151.24287,36.1250971 139.194597,24.08424 124.16751,15.1364114 C123.831568,14.9372686 123.490772,14.7575543 123.15483,14.5622971 C118.315713,11.7461257 113.390184,9.34281143 108.374359,7.36692571 C97.4290622,3.21989714 85.965289,0.958411429 73.9917773,0.648525714 C64.6980331,0.407611429 55.7586785,1.30715429 47.164975,3.30246857 C33.2010564,6.54412571 20.1566087,12.6922971 8.01900988,21.6333257 C5.874225,23.21384 3.84206802,24.96144 1.87107965,26.7556686 C0.640911047,27.8757257 0.608870349,29.3454971 1.6798064,30.6209829 C2.7653064,31.91104 4.14596919,31.9664114 5.54702151,31.0804686 C5.98491105,30.80264 6.39270174,30.4684686 6.78689942,30.1284686 C16.1855041,22.0364686 26.7463122,15.9533829 38.4732076,11.9481829 C55.5761436,6.10698286 72.3072134,4.77515429 88.6693297,7.81475429 C91.7928122,8.41801143 94.8395913,9.13589714 97.8057831,9.97229714 C105.148928,12.0880686 112.417312,15.0936686 119.608992,18.9832686 C133.807876,27.0092114 145.61633,38.5721257 155.084841,53.5845829 C155.315923,53.94984 155.476126,54.3597829 155.76158,54.9338971 C151.171022,56.8155543 146.690178,58.5990971 142.263708,60.5001829 C142.095737,60.5720686 141.924853,60.6390971 141.757853,60.7109829 C140.327673,61.3288114 139.663556,61.0616686 138.828556,59.7385829 C132.266039,49.3355543 123.98012,40.9968114 113.995074,34.7155543 C108.415138,31.3514971 102.692475,28.6577257 96.8251436,26.6468686 C84.5292831,22.43184 71.616882,21.1495543 58.1277483,22.7048114 C55.7305215,22.98264 53.343975,23.4615543 50.9826727,24.0113829 C49.5097715,24.3542971 48.806818,25.6045257 49.0524634,27.2472114 C49.3019924,28.9093257 50.351568,29.6563543 51.8487424,29.6019543 C52.3186727,29.5844686 52.7895738,29.5018971 53.2536785,29.40864 C64.2980099,27.1889257 75.319039,27.2889829 86.2905506,29.7729257 C91.6520273,30.9872114 96.7435855,32.6211543 101.575905,34.6601829 C114.646568,40.5110971 125.218056,49.5482971 133.273865,61.7941257 C133.646702,62.36144 133.965167,62.9656686 134.38558,63.68064 C131.382492,64.8949257 128.635731,66.0052686 126.221027,66.9805829 C123.361638,63.7457257 120.93237,60.5487543 118.04094,57.8510971 C114.952411,54.96984 111.479394,52.4917257 108.07337,49.9776686 C106.495609,48.8119543 104.750847,49.27824 103.838173,50.7693829 C102.973074,52.1876686 103.375039,53.6681257 104.950859,54.8221829 C105.318841,55.0912686 105.711097,55.3273257 106.08976,55.5847543 C112.250312,59.7803543 117.687522,64.7025829 121.515899,71.2121257 C123.090748,73.8922971 123.963615,74.22064 126.913301,73.0277257 C129.666859,71.91544 132.422359,70.8021829 135.175917,69.6898971 C135.238056,69.8229829 135.299225,69.9560686 135.361365,70.0901257 C135.110865,70.2863543 134.872016,70.4990971 134.608894,70.6739543 C121.474149,79.4391543 108.35494,88.2247543 95.1833006,96.93264 C93.5113587,98.0361829 93.1268703,99.2864114 93.2890157,101.204983 C93.5472831,104.236811 93.9055564,107.383269 93.3948471,110.338354 C91.0985971,123.637211 78.6629227,131.564069 64.9689227,128.718754 C52.7390855,126.178469 44.7667773,113.46344 47.5242192,100.898983 C51.3933762,83.2733829 71.4751262,76.3849829 85.5157483,87.8837829 C86.7051378,88.8590971 87.8556901,89.10584 89.2878122,88.4841257 C92.4549866,87.1114971 95.6551727,85.8175543 98.8427366,84.4915543 C102.148754,83.1160114 102.609946,81.0390971 100.216603,78.30744 C81.0582076,56.4415543 50.5175971,49.8746971 24.146161,62.0534971 C20.9081087,63.5504686 17.8671552,65.5040114 14.823289,67.3876114 C13.2863064,68.3366971 13.0202715,69.9444114 13.8513878,71.3073257 C14.6999808,72.6984114 16.3738645,73.0879543 17.953568,72.2175543 C18.580789,71.8726971 19.1546087,71.4336114 19.7565855,71.0421257 C42.5365506,56.2560114 73.2655215,59.4520114 92.4928529,78.6095543 C92.9404517,79.05544 93.3482424,79.5392114 93.8909924,80.1346971 C93.118132,80.4805257 92.5161552,80.6961829 91.9675797,81.0060686 C89.6451145,82.31944 87.7634517,82.1368114 85.2506843,80.6748114 C75.0792192,74.7588114 64.6349227,74.75104 54.7964866,81.3518971 C44.9832948,87.9372114 40.1966087,97.3241257 41.5228994,109.370811 C43.3550448,126.021097 60.3327308,138.150354 76.5404692,134.472526 C91.0141262,131.188126 100.904022,117.458926 99.4330622,102.594126 C99.310725,101.348754 99.8923122,100.854297 100.751585,100.283097 C114.939789,90.8320686 129.121196,81.37424 143.305516,71.9164114 L147.856266,68.88264 C153.220655,65.30584 158.584074,61.7309829 163.948463,58.1561257 C166.065091,56.74464 166.677748,55.4681829 165.945667,53.84784" id="Fill-7"></path>
                    <path d="M69.9465244,111.9998 C66.7890756,111.970994 63.9261858,108.958516 64.0014517,105.742542 C64.0720715,102.727277 67.0334573,99.939666 70.1026313,100.000993 C73.2405667,100.064179 76.0477041,102.94471 75.9993852,106.053826 C75.9510664,109.143428 73.0147692,112.027676 69.9465244,111.9998 M70.1703178,96.0016512 C65.0569199,95.8995831 60.1191485,100.545065 60.0023707,105.571233 C59.8782368,110.929354 64.6477377,115.951844 69.9100964,115.99966 C75.0234943,116.046556 79.9180487,111.238317 79.9989656,106.088931 C80.0798825,100.907361 75.4014131,96.106478 70.1703178,96.0016512" id="Fill-9"></path>
                </g>
            </g>
        </g>
    </g>
</svg>