<?xml version="1.0" encoding="UTF-8"?>
<svg width="92px" height="92px" viewBox="0 0 92 92" version="1.1" xmlns="http://www.w3.org/2000/svg" xmlns:xlink="http://www.w3.org/1999/xlink">
    <!-- Generator: Sketch 52.6 (67491) - http://www.bohemiancoding.com/sketch -->
    <title>Group 12</title>
    <desc>Created with Sketch.</desc>
    <defs>
        <polygon id="path-1" points="0 0 90.466629 0 90.466629 92 0 92"></polygon>
    </defs>
    <g id="Welcome" stroke="none" stroke-width="1" fill="none" fill-rule="evenodd">
        <g id="Accelerator" transform="translate(-687.000000, -3404.000000)">
            <g id="Group-12" transform="translate(687.000000, 3404.000000)">
                <path d="M3.06666667,0 C1.37290833,0 0,1.39637288 0,3.11864407 L0,17.1525424 C0,18.013678 0.68655,18.7118644 1.53333333,18.7118644 C2.38011667,18.7118644 3.06666667,18.013678 3.06666667,17.1525424 L3.06666667,4.6779661 C3.06666667,3.81683051 3.75321667,3.11864407 4.6,3.11864407 L16.8666667,3.11864407 C17.71345,3.11864407 18.4,2.42045763 18.4,1.55932203 C18.4,0.698186441 17.71345,0 16.8666667,0 L3.06666667,0 Z" id="Fill-1" fill="#676767"></path>
                <path d="M87.4,0 L73.6,0 C72.7532167,0 72.0666667,0.698186441 72.0666667,1.55932203 C72.0666667,2.42045763 72.7532167,3.11864407 73.6,3.11864407 L85.8666667,3.11864407 C86.71345,3.11864407 87.4,3.81683051 87.4,4.6779661 L87.4,17.1525424 C87.4,18.013678 88.08655,18.7118644 88.9333333,18.7118644 C89.7801167,18.7118644 90.4666667,18.013678 90.4666667,17.1525424 L90.4666667,3.11864407 C90.4666667,1.39637288 89.0937583,0 87.4,0" id="Fill-3" fill="#676767"></path>
                <path d="M3.06666667,87.3220339 L3.06666667,74.8474576 C3.06666667,73.986322 2.38011667,73.2881356 1.53333333,73.2881356 C0.68655,73.2881356 0,73.986322 0,74.8474576 L0,88.8813559 C0,90.603822 1.37290833,92 3.06666667,92 L16.8666667,92 C17.71345,92 18.4,91.3018136 18.4,90.440678 C18.4,89.5795424 17.71345,88.8813559 16.8666667,88.8813559 L4.6,88.8813559 C3.75321667,88.8813559 3.06666667,88.1831695 3.06666667,87.3220339" id="Fill-5" fill="#676767"></path>
                <path d="M87.4,74.8474576 L87.4,87.3220339 C87.4,88.1831695 86.71345,88.8813559 85.8666667,88.8813559 L73.6,88.8813559 C72.7532167,88.8813559 72.0666667,89.5795424 72.0666667,90.440678 C72.0666667,91.3018136 72.7532167,92 73.6,92 L87.4,92 C89.0937583,92 90.4666667,90.603822 90.4666667,88.8813559 L90.4666667,74.8474576 C90.4666667,73.986322 89.7801167,73.2881356 88.9333333,73.2881356 C88.08655,73.2881356 87.4,73.986322 87.4,74.8474576" id="Fill-7" fill="#676767"></path>
                <g id="Group-11" transform="translate(1.533333, 0.000000)">
                    <mask id="mask-2" fill="white">
                        <use xlink:href="#path-1"></use>
                    </mask>
                    <g id="Clip-10"></g>
                    <path d="M84.3978234,47.5333333 C84.2753165,50.8677583 83.739113,54.1732417 82.8025945,57.3712 C82.2294505,53.8364833 79.4328997,51.10945 75.9361745,50.6751333 C78.2894387,48.7918167 79.7370938,45.97355 79.9121845,42.9333333 C79.9121845,32.7949333 74.1720745,30.6666667 69.3577401,30.6666667 C64.5434056,30.6666667 58.8032956,32.7949333 58.8032956,42.9333333 C58.9785748,45.97355 60.4262299,48.7918167 62.7793056,50.6751333 C61.5523515,50.82885 60.3774156,51.2708333 59.3476034,51.9662 C59.1561156,52.0965333 58.9814019,52.2422 58.8032956,52.3878667 L58.8032956,49.5266667 C58.8113999,45.4296 55.8101683,41.97155 51.8117301,41.4705333 C54.1638634,39.588175 55.6111416,36.771825 55.7877401,33.7333333 C55.7877401,23.5949333 50.0476301,21.4666667 45.2332956,21.4666667 C40.4189612,21.4666667 34.6788512,23.5949333 34.6788512,33.7333333 C34.8541304,36.77355 36.3017855,39.5918167 38.6548612,41.4751333 C34.6581192,41.9759583 31.657453,45.431325 31.6632956,49.5266667 L31.6632956,52.3817333 C31.4853779,52.2376 31.3104756,52.0904 31.1191763,51.9600667 C30.0893641,51.2647 28.9142398,50.822525 27.6872856,50.669 C30.039042,48.787025 31.4863202,45.9714417 31.6632956,42.9333333 C31.6632956,32.7949333 25.9231856,30.6666667 21.1088512,30.6666667 C16.2945167,30.6666667 10.5544067,32.7949333 10.5544067,42.9333333 C10.7296859,45.97355 12.1773411,48.7918167 14.5304167,50.6751333 C11.0336916,51.10945 8.23714078,53.8364833 7.66399675,57.3712 C6.72766675,54.1732417 6.19146328,50.8677583 6.06876786,47.5333333 L9.04662897,47.5333333 L9.04662897,44.4666667 L6.06876786,44.4666667 C6.87919842,23.6679583 23.2736431,6.99583333 43.7255179,6.17166667 L43.7255179,9.2 L46.7410734,9.2 L46.7410734,6.17166667 C67.1931366,6.99583333 83.5873929,23.6679583 84.3978234,44.4666667 L81.4199623,44.4666667 L81.4199623,47.5333333 L84.3978234,47.5333333 Z M70.603353,59.4304667 L69.3577401,60.6985333 L68.1123156,59.4304667 L69.3577401,56.2610667 L70.603353,59.4304667 Z M61.9021559,41.3110667 C62.3064288,36.1724833 64.6841944,33.7333333 69.3577401,33.7333333 C73.6368134,33.7333333 75.9919623,35.7910667 76.6661274,40.0844 L71.6420234,37.0177333 C70.9279022,36.582075 70.0017497,36.8176333 69.5733523,37.5438583 C69.5168106,37.6396917 69.4708234,37.741275 69.4361445,37.8472667 C68.673209,40.1733333 64.5541486,41.055 61.9021559,41.3110667 Z M71.4369656,40.4708 L76.8257634,43.7598 C76.2211445,47.5134 71.672179,50.6 69.3577401,50.6 C65.9948302,50.017525 63.1975255,47.6460333 62.0284323,44.3869333 C64.6097479,44.1707333 69.270289,43.3749333 71.4369656,40.4708 Z M79.9121845,64.5533333 C79.1123084,66.0935667 78.2144267,67.5789833 77.2240052,69 L58.8032956,69 L58.8032956,58.7266667 C58.8032956,55.9321667 61.0312258,53.6666667 63.7791508,53.6666667 L67.1307523,53.6666667 L64.9429667,59.2296 C64.7188733,59.799425 64.8506154,60.450325 65.2776934,60.8840667 L68.293249,63.9507333 C68.8820362,64.5493083 69.8364595,64.5493083 70.4252467,63.9507333 L73.4408023,60.8840667 C73.8678804,60.450325 73.9996224,59.799425 73.7757174,59.2296 L71.5849163,53.6666667 L74.9365179,53.6666667 C77.6844429,53.6666667 79.9121845,55.9321667 79.9121845,58.7266667 L79.9121845,64.5533333 Z M43.0063079,44.4666667 L40.8185223,50.0296 C40.5944288,50.599425 40.7261709,51.250325 41.153249,51.6840667 L44.1688045,54.7507333 C44.7575917,55.3493083 45.7120151,55.3493083 46.3008023,54.7507333 L49.3163579,51.6840667 C49.7434359,51.250325 49.875178,50.599425 49.651273,50.0296 L47.4604719,44.4666667 L50.8120734,44.4666667 C53.5599984,44.4666667 55.7877401,46.7321667 55.7877401,49.5266667 L55.7877401,59.8 L34.6788512,59.8 L34.6788512,49.5266667 C34.6788512,46.7321667 36.9067813,44.4666667 39.6547063,44.4666667 L43.0063079,44.4666667 Z M46.4789086,50.2304667 L45.2332956,51.4983417 L43.9878712,50.2304667 L45.2332956,47.0610667 L46.4789086,50.2304667 Z M37.7777115,32.1110667 C38.1819844,26.9724833 40.5597499,24.5333333 45.2332956,24.5333333 C49.512369,24.5333333 51.8675179,26.5910667 52.541683,30.8844 L47.517579,27.8177333 C46.8034577,27.382075 45.8773052,27.6176333 45.4489079,28.3438583 C45.3923662,28.4396917 45.346379,28.541275 45.3117001,28.6472667 C44.5487645,30.9733333 40.4297041,31.855 37.7777115,32.1110667 Z M47.3125212,31.2708 L52.701319,34.5598 C52.0967001,38.3134 47.5477345,41.4 45.2332956,41.4 C41.8703858,40.817525 39.0730811,38.4460333 37.9041763,35.1869333 C40.4853034,34.9707333 45.1458445,34.1749333 47.3125212,31.2708 Z M46.7410734,85.8283333 L46.7410734,82.8 L43.7255179,82.8 L43.7255179,85.8283333 C32.882334,85.405325 22.6995567,80.4210333 15.6099856,72.0666667 L33.1710734,72.0666667 C34.0037437,72.0666667 34.6788512,71.3801167 34.6788512,70.5333333 L34.6788512,62.8666667 L55.7877401,62.8666667 L55.7877401,70.5333333 C55.7877401,71.3801167 56.4628476,72.0666667 57.2955179,72.0666667 L74.8566056,72.0666667 C67.767223,80.4210333 57.5842573,85.405325 46.7410734,85.8283333 Z M22.3544641,59.4304667 L21.1088512,60.6985333 L19.8634267,59.4304667 L21.1088512,56.2610667 L22.3544641,59.4304667 Z M13.653267,41.3110667 C14.0575399,36.1724833 16.4353055,33.7333333 21.1088512,33.7333333 C25.3879245,33.7333333 27.7430734,35.7910667 28.4172386,40.0844 L23.3931345,37.0177333 C22.6790133,36.582075 21.7528608,36.8176333 21.3244634,37.5438583 C21.2679217,37.6396917 21.2219345,37.741275 21.1872556,37.8472667 C20.4243201,40.1733333 16.3052597,41.055 13.653267,41.3110667 Z M23.1880767,40.4708 L28.5768745,43.7598 C27.9722556,47.5134 23.4232901,50.6 21.1088512,50.6 C17.7459413,50.017525 14.9486366,47.6460333 13.7797319,44.3869333 C16.360859,44.1707333 21.0214001,43.3749333 23.1880767,40.4708 Z M13.2427745,69 C12.2521645,67.5789833 11.3542829,66.0935667 10.5544067,64.5533333 L10.5544067,58.7266667 C10.5544067,55.9321667 12.7823369,53.6666667 15.5302619,53.6666667 L18.8818634,53.6666667 L16.6940779,59.2296 C16.4699844,59.799425 16.6017265,60.450325 17.0288045,60.8840667 L20.0443601,63.9507333 C20.6331473,64.5493083 21.5875706,64.5493083 22.1763579,63.9507333 L25.1919134,60.8840667 C25.6189915,60.450325 25.7507336,59.799425 25.5268286,59.2296 L23.3360274,53.6666667 L26.687629,53.6666667 C29.435554,53.6666667 31.6632956,55.9321667 31.6632956,58.7266667 L31.6632956,69 L13.2427745,69 Z M87.413379,44.4666667 C86.5984251,21.9755417 68.8573463,3.93376667 46.7410734,3.105 L46.7410734,0 L43.7255179,0 L43.7255179,3.105 C21.6092449,3.93376667 3.86835467,21.9755417 3.05321231,44.4666667 L-3.76944444e-05,44.4666667 L-3.76944444e-05,47.5333333 L3.05321231,47.5333333 C3.86835467,70.0244583 21.6092449,88.0662333 43.7255179,88.895 L43.7255179,92 L46.7410734,92 L46.7410734,88.895 C68.8573463,88.0662333 86.5984251,70.0244583 87.413379,47.5333333 L90.466629,47.5333333 L90.466629,44.4666667 L87.413379,44.4666667 Z" id="Fill-9" fill="#676767" mask="url(#mask-2)"></path>
                </g>
            </g>
        </g>
    </g>
</svg>