<?xml version="1.0" encoding="UTF-8"?>
<svg width="147px" height="139px" viewBox="0 0 147 139" version="1.1" xmlns="http://www.w3.org/2000/svg" xmlns:xlink="http://www.w3.org/1999/xlink">
    <!-- Generator: Sketch 52.6 (67491) - http://www.bohemiancoding.com/sketch -->
    <title>Group 15</title>
    <desc>Created with Sketch.</desc>
    <defs>
        <polygon id="path-1" points="0 0.130252313 120.809349 0.130252313 120.809349 132 0 132"></polygon>
        <polygon id="path-3" points="0.304854097 0.244422222 9.74873128 0.244422222 9.74873128 16.8208779 0.304854097 16.8208779"></polygon>
    </defs>
    <g id="Welcome" stroke="none" stroke-width="1" fill="none" fill-rule="evenodd">
        <g id="Startup-Services" transform="translate(-183.000000, -2670.000000)">
            <g id="Group-15" transform="translate(183.000000, 2670.000000)">
                <g id="Group-3" transform="translate(0.000000, 7.000000)">
                    <mask id="mask-2" fill="white">
                        <use xlink:href="#path-1"></use>
                    </mask>
                    <g id="Clip-2"></g>
                    <path d="M50.2843937,95.0900991 C51.9623621,94.1257764 53.5746776,93.1987331 55.2400498,92.241638 C54.2094505,90.4777072 53.2914536,88.9062605 52.3566618,87.3070444 C50.6168574,88.3196784 49.039277,89.2379723 47.4261981,90.1771885 C48.4232076,91.8912865 49.3240278,93.4395285 50.2843937,95.0900991 Z M106.986062,39.9456726 C108.156365,38.1737533 109.243075,36.5764392 110.256879,34.9346179 C110.394674,34.711321 110.255734,34.2160357 110.095419,33.9292115 C109.077797,32.1078398 108.032312,30.3013037 106.959343,28.5115055 C106.785286,28.2223988 106.420378,27.8366697 106.155857,27.845419 C104.23169,27.9089464 102.310958,28.0618686 100.182198,28.1995746 C102.501428,32.2037014 104.681719,35.9674133 106.986062,39.9456726 Z M32.5447249,98.721811 C34.3517091,101.838837 36.0659394,104.793811 37.7774978,107.750307 C40.776542,112.930261 43.7385609,118.132278 46.7834095,123.285603 C48.9243842,126.908566 53.7533148,127.286687 56.2977502,124.104612 C57.855482,122.156946 57.9600688,119.788174 56.5336429,117.318595 C52.019236,109.502825 47.4880341,101.696566 42.9595041,93.8891654 C42.8018606,93.6179378 42.6041382,93.3695343 42.3861855,93.053419 C39.0959016,94.948589 35.8895924,96.7950674 32.5447249,98.721811 Z M111.346643,69.5619839 C112.583744,68.9092115 113.748703,68.588151 114.476993,67.8429406 C115.611416,66.6815689 115.090009,65.3364622 114.343779,64.0499378 C103.488895,45.3409349 92.6550057,26.6193787 81.8115735,7.90390893 C81.5745356,7.49421441 81.3271918,7.07462939 81.007706,6.73112507 C80.0236744,5.67360346 78.3686082,5.56100403 77.2349489,6.43288876 C75.7405798,7.5817072 75.5306429,8.46614524 76.3913842,9.95124035 C82.8963748,21.1815112 89.3998385,32.4121625 95.904829,43.6428138 C100.646731,51.8283354 105.38558,60.0165199 110.144277,68.1929118 C110.403072,68.6376035 110.831343,68.9837706 111.346643,69.5619839 Z M35.1998543,57.6629637 C27.8135104,61.9094075 20.5928259,66.06037 13.3729047,70.2132346 C13.0839552,70.3790905 12.7972959,70.5491308 12.5167438,70.7290617 C8.33632744,73.4109061 5.98274385,77.2415689 5.76440946,82.1693153 C5.27163028,93.270249 16.8796145,100.565627 26.7600088,95.3982259 C29.710195,93.8553095 32.5588479,92.1191481 35.4475798,90.4598282 C40.1070341,87.7833095 44.7607628,85.0965199 49.5080088,82.3621798 C44.7294631,74.1135112 39.9971035,65.944347 35.1998543,57.6629637 Z M71.7868953,13.4288888 C71.5731413,13.6164277 71.4490877,13.695932 71.3632044,13.8051078 C60.9949931,26.9640242 50.6241098,40.1210386 40.2955956,53.3111481 C40.027258,53.6538916 40.0104631,54.4816496 40.2375767,54.8776496 C44.9153527,63.0452922 49.6553464,71.1771769 54.3480088,79.3356899 C54.7556681,80.0436207 55.1308826,80.1756207 55.929788,80.0173729 C68.9676334,77.4397591 82.014258,74.9055112 95.0585924,72.3602317 C98.2641382,71.7348484 101.468921,71.1045199 104.818368,70.4483239 C93.77187,51.3794594 82.8146902,32.4650386 71.7868953,13.4288888 Z M-7.6340694e-05,80.4932576 C0.2354347,79.5334997 0.441554574,78.5661337 0.710655521,77.6162663 C2.23670599,72.2327965 5.45904669,68.1697072 10.319277,65.3790674 C17.9163211,61.0162202 25.5148921,56.6560357 33.0882707,52.2532461 C33.8845041,51.7902951 34.6356965,51.1398052 35.2059615,50.4177994 C47.5323117,34.8052807 59.8380498,19.176785 72.1281382,3.53573602 C75.9779994,-1.36348012 83.1826524,-0.928298559 86.4412549,4.52934986 C89.7792517,10.1201395 93.0092265,15.7755977 96.2258416,21.4375228 C96.7483937,22.3565775 97.3072076,22.6806813 98.3538385,22.5954709 C101.39487,22.3470674 104.446589,22.2257187 107.490674,22.0047043 C109.051842,21.8913441 110.12252,22.4904795 110.88898,23.8462375 C112.596722,26.8662605 114.340725,29.8665026 116.112592,32.8496265 C116.906154,34.1856035 116.893939,35.4021337 116.007624,36.6981683 C114.262476,39.2495343 112.611226,41.8648081 110.856154,44.4093268 C110.32864,45.1743182 110.288561,45.7251424 110.778668,46.5540415 C113.779621,51.6267216 116.767977,56.7089118 119.645258,61.8512058 C122.493148,66.9421452 119.87657,73.1712519 114.396454,74.441419 C111.846293,75.0321856 109.248419,75.4148715 106.676501,75.9158628 C90.9220719,78.9826755 75.1691697,82.055955 59.4166492,85.1303758 C58.9975388,85.2121625 58.5856808,85.3312288 57.9432738,85.487955 C58.6585861,86.7280703 59.3357281,87.9019954 60.0132517,89.0766813 C60.4407596,89.8180876 60.8751382,90.5553095 61.295012,91.3005199 C62.5328763,93.4973499 62.1557533,94.8527274 59.9380562,96.1377303 C57.7173054,97.4246352 55.4893022,98.6982259 53.1616744,100.037246 C53.4513874,100.553454 53.696441,101.001569 53.9521823,101.443598 C56.4763874,105.803782 59.0284568,110.14875 61.5217438,114.526814 C64.8440909,120.360301 63.1359678,127.198814 57.5974505,130.412462 C51.9730498,133.676704 45.1264347,131.774687 41.7021729,125.923321 C37.2125767,118.252105 32.7821445,110.546272 28.3246114,102.856797 C28.0654347,102.409442 27.7906082,101.971217 27.6413621,101.723955 C25.0549394,102.090664 22.6257785,102.705016 20.189747,102.733546 C10.16087,102.85109 1.99661451,95.9030213 0.255283281,85.9813383 C0.21673123,85.7607043 0.0869520505,85.5556669 -7.6340694e-05,85.3434017 L-7.6340694e-05,80.4932576 Z" id="Fill-1" fill="#676767" mask="url(#mask-2)"></path>
                </g>
                <path d="M128.269623,26.9994869 C126.612391,27.0235616 125.523065,26.1987077 125.134519,24.8809148 C124.741323,23.5473352 125.211608,22.2761129 126.525617,21.4962511 C128.694196,20.2088475 130.901901,18.990116 133.095273,17.7461258 C136.131982,16.0237992 139.165978,14.2955527 142.211597,12.5882235 C144.061746,11.5510387 145.766626,11.9093963 146.615386,13.4742507 C147.468794,15.0477879 146.886167,16.6860503 145.025172,17.7480991 C139.970964,20.6323251 134.906684,23.4983965 129.834657,26.3502598 C129.255517,26.6762547 128.601999,26.8641162 128.269623,26.9994869" id="Fill-4" fill="#676767"></path>
                <path d="M130.140914,39 C130.393761,39.0560666 130.914533,39.1489771 131.423319,39.2887432 C134.725792,40.1958214 138.030198,41.096492 141.324552,42.0340064 C143.411118,42.6279124 144.345568,44.0492018 143.884722,45.8165025 C143.413824,47.622249 141.936952,48.3803501 139.875516,47.8172808 C136.292746,46.8381169 132.707657,45.866562 129.144605,44.8153125 C127.620565,44.3651774 126.804033,42.9470918 127.040255,41.5081814 C127.27957,40.0496477 128.431686,39.0288343 130.140914,39" id="Fill-6" fill="#676767"></path>
                <g id="Group-10" transform="translate(109.000000, 0.000000)">
                    <mask id="mask-4" fill="white">
                        <use xlink:href="#path-3"></use>
                    </mask>
                    <g id="Clip-9"></g>
                    <path d="M6.00525,0.244951111 C8.48733333,0.209817778 10.1306667,1.82066222 9.67191667,3.51915111 C8.64775,7.30939556 7.51691667,11.0777289 6.3315,14.82944 C5.834,16.4040178 4.16775,17.1293511 2.5215,16.6983067 C0.843166667,16.2589511 -0.0480833333,14.86684 0.436083333,13.1237733 C1.4365,9.52166222 2.5315,5.94108444 3.60358333,2.35559556 C3.69691667,2.04430667 3.829,1.67181778 4.08358333,1.48481778 C4.814,0.94724 5.6165,0.490128889 6.00525,0.244951111" id="Fill-8" fill="#676767" mask="url(#mask-4)"></path>
                </g>
                <path d="M20.102825,98 C16.8597728,97.6764499 14.3589547,96.3425572 12.6117593,93.63508 C11.6099397,92.0826807 11.8675617,90.3402409 13.1721657,89.36077 C14.5592401,88.319556 16.1996165,88.6411015 17.4103613,90.1906942 C18.7652329,91.9255164 19.9987552,92.1941392 21.8779032,91.1216526 C23.3729746,90.2680736 24.8366287,89.3575626 26.3368055,88.5136059 C28.0156682,87.5686149 29.7082759,87.9571157 30.5742156,89.4365457 C31.440548,90.9167776 30.964183,92.6576137 29.3336245,93.6683571 C27.6194173,94.7316223 25.9091373,95.8241553 24.1034272,96.7029929 C22.8522327,97.311604 21.441988,97.5794249 20.102825,98" id="Fill-11" fill="#676767"></path>
                <path d="M39.9999951,86.4916053 C39.9973182,87.8479224 38.8760321,88.9850334 37.5258711,88.9998492 C36.1198298,89.0153384 34.9634094,87.8358004 35.000886,86.4242609 C35.0373587,85.0443732 36.1445911,83.9833615 37.5305557,84.0001976 C38.9094933,84.0163603 40.002672,85.1194623 39.9999951,86.4916053" id="Fill-13" fill="#676767"></path>
            </g>
        </g>
    </g>
</svg>