<?xml version="1.0" encoding="UTF-8"?>
<svg width="92px" height="92px" viewBox="0 0 92 92" version="1.1" xmlns="http://www.w3.org/2000/svg" xmlns:xlink="http://www.w3.org/1999/xlink">
    <!-- Generator: Sketch 52.6 (67491) - http://www.bohemiancoding.com/sketch -->
    <title>Group 6</title>
    <desc>Created with Sketch.</desc>
    <defs>
        <polygon id="path-1" points="0 0.084283871 91.999982 0.084283871 91.999982 92 0 92"></polygon>
    </defs>
    <g id="Welcome" stroke="none" stroke-width="1" fill="none" fill-rule="evenodd">
        <g id="Accelerator" transform="translate(-258.000000, -3736.000000)">
            <g id="Group-6" transform="translate(258.000000, 3736.000000)">
                <path d="M49.6756542,48.6694419 C45.8254588,52.7144313 40.7062917,54.9422875 35.2612788,54.9422875 C29.8162659,54.9422875 24.6969214,52.7146176 20.846726,48.6694419 C20.0820437,47.8660719 19.391506,47.013691 18.7738713,46.1225485 L24.727608,39.6387507 C25.3757521,39.9972949 26.1129405,40.2011656 26.8948285,40.2011656 C28.5112862,40.2011656 29.9381255,39.3333173 30.7762427,38.0182206 L41.2723091,41.4782462 C41.2717769,41.5101127 41.2700031,41.5419791 41.2700031,41.5740319 C41.2700031,44.2785805 43.3643207,46.4790427 45.9388041,46.4790427 C48.5131102,46.4790427 50.6076051,44.2785805 50.6076051,41.5740319 C50.6076051,40.740659 50.4080534,39.9555517 50.0577293,39.2675345 L55.6465968,33.5257964 C55.6464194,39.2462902 53.5258497,44.6244526 49.6756542,48.6694419 M28.9435596,35.2961548 C28.9435596,36.482854 28.0242026,37.4485379 26.8948285,37.4485379 C25.7650997,37.4485379 24.84592,36.482854 24.84592,35.2961548 C24.84592,34.1094556 25.7650997,33.1437717 26.8948285,33.1437717 C28.0242026,33.1439581 28.9435596,34.1094556 28.9435596,35.2961548 M47.9875352,41.5742183 C47.9875352,42.7609175 47.0683556,43.7266014 45.9388041,43.7266014 C44.8092526,43.7266014 43.890073,42.7609175 43.890073,41.5742183 C43.890073,40.3875191 44.8092526,39.4218352 45.9388041,39.4218352 C47.0683556,39.4218352 47.9875352,40.3873328 47.9875352,41.5742183 M20.8465486,18.3815919 C24.696744,14.3366025 29.8160885,12.1087463 35.2611014,12.1087463 C40.7061143,12.1087463 45.8252814,14.3366025 49.6754768,18.3815919 C52.7143393,21.5740139 54.6745581,25.5973862 55.3661601,29.963649 L48.2250462,37.3002005 C47.5486988,36.8991677 46.7689393,36.6693938 45.9386268,36.6693938 C44.322169,36.6693938 42.8953298,37.5372421 42.0572125,38.8523389 L31.5611462,35.3923132 C31.5616784,35.3604468 31.5634521,35.3285803 31.5634521,35.2965275 C31.5634521,32.591979 29.4691346,30.3915167 26.8946511,30.3915167 C24.3203451,30.3915167 22.2258501,32.591979 22.2258501,35.2965275 C22.2258501,36.1805886 22.4507671,37.0102344 22.8420659,37.7275091 L17.3349702,43.7249242 C13.1562683,35.6075515 14.3257301,25.2323197 20.8465486,18.3815919 M51.5285586,16.4351294 C47.1832974,11.8702138 41.4064078,9.3559322 35.2612788,9.3559322 C29.1163271,9.3559322 23.3390827,11.8700274 18.9938216,16.4351294 C10.0242817,25.8586539 10.0242817,41.1920072 18.9938216,50.615718 C23.3390827,55.1806337 29.1161497,57.6949153 35.2612788,57.6949153 C41.4062304,57.6949153 47.1832974,55.18082 51.5285586,50.615718 C55.8736423,46.0508024 58.2666667,39.9812685 58.2666667,33.5254237 C58.2666667,27.069579 55.8736423,21.0002314 51.5285586,16.4351294" id="Fill-1" fill="#676767"></path>
                <g id="Group-5">
                    <mask id="mask-2" fill="white">
                        <use xlink:href="#path-1"></use>
                    </mask>
                    <g id="Clip-4"></g>
                    <path d="M79.6169977,88.1288403 L60.167982,68.1223645 L68.7940602,59.2180258 L88.2430758,79.2241306 L79.6169977,88.1288403 Z M55.7566539,59.1375258 C56.625443,58.4113565 57.4663805,57.6325097 58.2740758,56.7987597 C59.0546383,55.9930177 59.7863258,55.1555581 60.4694977,54.2910177 L64.985943,59.2742274 L60.2817242,64.1301952 L55.7566539,59.1375258 Z M14.6937477,54.8615661 C3.19590391,42.9930097 3.19590391,23.6813565 14.6937477,11.8126145 C20.4423102,5.87824355 27.9936773,2.91142903 35.5452242,2.91142903 C43.0967711,2.91142903 50.648318,5.87842903 56.3970602,11.8126145 C67.8947242,23.6809855 67.8947242,42.9928242 56.3970602,54.8615661 C44.8997555,66.7299371 26.1908727,66.7299371 14.6937477,54.8615661 Z M4.72953672,61.1465016 C3.58528672,61.1465016 2.65432578,60.1855097 2.65432578,59.0041629 C2.65432578,57.8230016 3.58528672,56.8620097 4.72953672,56.8620097 C5.87396641,56.8620097 6.80492734,57.8230016 6.80492734,59.0041629 C6.80474766,60.1856952 5.87396641,61.1465016 4.72953672,61.1465016 Z M72.2014742,13.0019371 C73.3457242,13.0019371 74.2768648,13.962929 74.2768648,15.1442758 C74.2768648,16.3254371 73.3457242,17.2866145 72.2014742,17.2866145 C71.0570445,17.2866145 70.1260836,16.3254371 70.1260836,15.1442758 C70.1260836,13.962929 71.0570445,13.0019371 72.2014742,13.0019371 Z M68.7904664,55.3469774 L66.8634977,57.335921 L62.082732,52.0611306 C67.7410914,43.5231226 69.1033023,32.8418484 66.1679273,23.2716226 L69.9609508,19.4428645 C70.6281305,19.8149452 71.3910836,20.0263968 72.2012945,20.0263968 C74.8090992,20.0263968 76.9308492,17.8362032 76.9308492,15.1442758 C76.9308492,14.3470661 76.7436148,13.5945581 76.4138883,12.9290419 L84.556607,4.70969516 L84.556607,8.95801774 L87.2107711,8.95801774 L87.2107711,0.084283871 L78.6145211,0.084283871 L78.6145211,2.82406613 L82.6283805,2.82406613 L74.5931148,10.9349048 C73.8908961,10.507921 73.0736773,10.2619694 72.2014742,10.2619694 C69.5936695,10.2619694 67.4719195,12.4519774 67.4719195,15.1440903 C67.4719195,16.0054774 67.6900602,16.8147435 68.0709977,17.5182839 L65.1640133,20.4526387 C63.5991148,16.6055177 61.3039664,13.0028645 58.2740758,9.87523548 C45.741232,-3.06170806 25.3495758,-3.0613371 12.8169117,9.87523548 C1.65274766,21.3995339 0.433927344,39.3612355 9.15937266,52.2913161 L6.92477891,54.6823887 C6.26820078,54.3255177 5.52141953,54.1225984 4.72935703,54.1225984 C2.12155234,54.1222274 -1.796875e-05,56.3126065 -1.796875e-05,59.0043484 C-1.796875e-05,61.6964613 2.12155234,63.8866548 4.72953672,63.8866548 C7.33752109,63.8866548 9.45909141,61.6964613 9.45909141,59.0043484 C9.45909141,58.1242274 9.23124766,57.2988242 8.83467734,56.5848968 L10.786982,54.4957919 C11.4230758,55.2876226 12.0983414,56.0570097 12.816732,56.7987597 C19.0831539,63.2671387 27.3142789,66.50105 35.5454039,66.50105 C41.8639352,66.50105 48.1817477,64.5927919 53.6115445,60.7812839 L58.4036305,66.0686871 L56.4110758,68.1257032 L79.6200523,92.0000742 L91.999982,79.2211629 L68.7904664,55.3469774 Z" id="Fill-3" fill="#676767" mask="url(#mask-2)"></path>
                </g>
            </g>
        </g>
    </g>
</svg>