<?xml version="1.0" encoding="UTF-8"?>
<svg width="150px" height="149px" viewBox="0 0 150 149" version="1.1" xmlns="http://www.w3.org/2000/svg" xmlns:xlink="http://www.w3.org/1999/xlink">
    <!-- Generator: Sketch 52.6 (67491) - http://www.bohemiancoding.com/sketch -->
    <title>Group 15</title>
    <desc>Created with Sketch.</desc>
    <defs>
        <path d="M75.1083333,0.0948730159 C33.1972222,-0.0722579365 -1.05388889,34.57625 0.250555556,76.728 C1.50444444,117.300004 35.6061111,149.199952 75.6616667,148.678702 C80.5933333,148.614718 85.405,148.080782 90.0572222,147.129294 C90.1177778,147.115504 90.1794444,147.105024 90.24,147.091234 C90.6561111,147.007393 91.07,146.915829 91.4822222,146.822611 C91.7722222,146.758075 92.0616667,146.694091 92.3494444,146.625143 C92.5483333,146.57881 92.7461111,146.53027 92.9438889,146.48173 C93.4261111,146.363139 93.9088889,146.242893 94.3877778,146.114925 C94.405,146.111615 94.4222222,146.105548 94.44,146.101135 C102.793889,143.867758 110.560556,140.251552 117.478889,135.51452 C117.491667,135.505694 117.505556,135.496317 117.519444,135.48694 C117.963333,135.182464 118.403889,134.871921 118.841111,134.556413 C118.946111,134.483052 119.050556,134.406381 119.155,134.330262 C119.495556,134.082048 119.833889,133.831627 120.171111,133.579 C120.372222,133.426762 120.572222,133.275627 120.77,133.121734 C121.006111,132.940813 121.240556,132.759341 121.474444,132.576214 C121.768333,132.342893 122.062778,132.108468 122.354444,131.870734 C122.486667,131.763175 122.618333,131.655063 122.749444,131.547504 C123.137778,131.227583 123.523889,130.904905 123.905,130.57671 C123.936667,130.550234 123.967778,130.523758 123.999444,130.497282 C140.053889,116.692706 150.101111,96.2404008 149.873333,73.3864841 C149.477222,33.3489683 115.818889,0.0904603175 75.9172222,0.0904603175 C75.6477778,0.0904603175 75.3794444,0.0915634921 75.1083333,0.0948730159 Z M6.21448888,74.3482551 C6.21448888,36.6502596 36.9599366,6.09046032 74.8850444,6.09046032 C97.3830673,6.09046032 117.351872,16.8443503 129.876651,33.4613121 C133.181229,37.844126 135.967374,42.6360707 138.144676,47.7439554 C141.628931,55.9203212 143.5556,64.9104027 143.5556,74.3482551 C143.5556,112.044546 112.811297,142.604345 74.8850444,142.604345 C36.9599366,142.604345 6.21448888,112.044546 6.21448888,74.3482551 Z" id="path-1"></path>
    </defs>
    <g id="Welcome" stroke="none" stroke-width="1" fill="none" fill-rule="evenodd">
        <g id="Startup" transform="translate(-610.000000, -1974.000000)">
            <g id="Group-15" transform="translate(610.000000, 1974.000000)">
                <g id="Group-3">
                    <mask id="mask-2" fill="white">
                        <use xlink:href="#path-1"></use>
                    </mask>
                    <g id="Clip-2"></g>
                    <polygon id="Fill-1" fill="#676767" mask="url(#mask-2)" points="-7.195 156.040738 157.286667 156.040738 157.286667 -7.26550794 -7.195 -7.26550794"></polygon>
                </g>
                <g id="Group-14" transform="translate(31.071429, 30.000000)" fill="#676767" stroke="#676767">
                    <path d="M53.9393924,46.644186 C51.4399123,49.104186 48.996594,51.5089299 46.526585,53.9401968 C47.2172089,54.6828383 47.9473128,55.468027 48.621811,56.1935391 C51.1629955,53.6766253 53.656915,51.2055741 56.1892025,48.6975013 C55.4557622,48.0283504 54.6611555,47.3022857 53.9393924,46.644186 Z M39.3367568,36.7445094 C39.0203599,36.5411671 38.6889494,36.3997116 38.4520687,36.1643208 C32.2575841,30.0104528 26.1465081,23.770938 19.8430362,17.7297925 C17.8795958,15.8483235 16.6851835,13.9657493 17.1750705,11.2355472 C17.2762731,10.6691725 17.0432848,10.3304528 16.5194783,10.0254394 C13.5679231,8.30808086 10.645283,6.54209704 7.7115217,4.79434771 C7.49632731,4.66560108 7.27001175,4.55453639 6.95750723,4.38545283 C6.15678391,5.21263612 5.3860877,6.04755526 4.5692387,6.83495418 C4.20224051,7.18859299 4.13718174,7.44166577 4.42188336,7.90526415 C6.2479774,10.878593 8.02569439,13.8828652 9.85734901,16.8528787 C10.0224982,17.1214232 10.4489946,17.351841 10.7731763,17.3800216 C11.6228327,17.4535121 12.4858345,17.4496442 13.3382712,17.393283 C14.3291664,17.3280809 15.0609385,17.6822722 15.7587911,18.3812615 C22.5121139,25.1423935 29.2910154,31.8781078 36.0638002,38.6204528 C36.2956763,38.8508706 36.5392297,39.0702372 36.7021546,39.2238491 C37.5506989,38.4253989 38.3336284,37.6888356 39.3367568,36.7445094 Z M51.1429774,58.9226361 C52.5959566,60.4908032 54.0661736,62.0738895 55.5336103,63.659186 C61.1948354,69.7716119 66.8488318,75.891221 72.520066,81.9953585 C74.922792,84.5813423 78.6228011,85.0366523 81.4542477,83.1386065 C85.1792794,80.6415849 85.5535063,75.490062 82.1915805,72.4067736 C76.3201655,67.0237278 70.4209476,61.6699677 64.5334069,56.3040512 C62.6478146,54.5855876 60.7627785,52.8660189 58.9044331,51.1707628 C56.3020823,53.7700081 53.7503327,56.3184178 51.1429774,58.9226361 Z M15.9573038,84.1912345 C16.30484,84.2304663 16.5478373,84.2757763 16.7913906,84.2840647 C26.1893246,84.6211267 33.1350434,75.7961806 30.479311,66.8419353 C30.1412278,65.7042129 30.3692116,64.9361536 31.1982939,64.1161536 C42.1960063,53.2240782 53.176481,42.3154259 64.1324892,31.3819084 C65.0099485,30.5060997 65.8245732,30.2878383 67.0262143,30.6353989 C74.4946275,32.7959111 82.2788816,28.2881213 84.1060877,20.7860054 C84.4653011,19.3095633 84.6437957,17.8082561 84.3774439,16.1649407 C84.0732803,16.450062 83.8636465,16.6362749 83.6656899,16.8346442 C82.2171591,18.2834582 80.7602875,19.7234313 79.3312188,21.1910323 C78.7779412,21.7590647 78.160717,22.0287143 77.3561013,22.0055067 C76.0160018,21.9668275 74.6670054,22.0707089 73.3346908,21.9613019 C72.7107939,21.9099137 71.9779096,21.6457898 71.5336193,21.2275013 C70.021698,19.8063154 68.5792839,18.3055606 67.1935877,16.7617062 C66.8165805,16.3417601 66.5796998,15.6731617 66.5418879,15.1012615 C66.4490262,13.7176496 66.4423535,12.3191186 66.5441121,10.9366119 C66.5874846,10.3409515 66.8460515,9.64748787 67.244189,9.21151752 C68.6421184,7.67926685 70.1451429,6.24039892 71.6059069,4.76395687 C71.7960787,4.57056065 71.9740172,4.36390296 72.240925,4.07215094 C71.895613,4.02297305 71.6815307,3.97434771 71.4663363,3.96495418 C62.055613,3.52401078 54.9931221,12.3975822 57.6510787,21.3717197 C57.9841573,22.4989434 57.8012143,23.2841321 56.9671275,24.1102102 C45.9493969,35.0221779 34.9494602,45.9518275 23.9684295,56.9008167 C23.1187731,57.7473396 22.320274,57.9584178 21.1442116,57.6130674 C14.5504774,55.6757898 7.49688336,58.9889434 4.77219982,65.2411671 C3.84024684,67.3784717 3.48603797,69.6080539 3.7245868,72.0984447 C4.03987161,71.8127709 4.24728119,71.6381617 4.43800904,71.4475283 C5.90711392,69.9793747 7.38455967,68.5195094 8.83475859,67.0325687 C9.36746203,66.4871914 9.95799548,66.2230674 10.731472,66.2435121 C12.1010425,66.278876 13.4778418,66.1766523 14.8390714,66.287717 C15.4613002,66.3385526 16.1669376,66.6286469 16.6368065,67.0364367 C17.795075,68.0415445 18.7620597,69.2687817 19.947019,70.2368679 C21.4289132,71.4475283 21.9260289,72.8637412 21.840396,74.7595768 C21.6418834,79.1656954 22.3775479,77.6925687 19.2035696,80.9101294 C18.1526203,81.9760189 17.0972224,83.0391456 15.9573038,84.1912345 Z M87.7532712,79.7005741 C87.3490172,80.6598194 87.0415172,81.6732156 86.5260515,82.5678113 C83.0879458,88.5332561 74.8655181,89.4963693 70.1623807,84.4619892 C63.6759656,77.5185121 57.2390398,70.5286199 50.7798716,63.5586199 C50.0853553,62.8093477 49.3875027,62.0628383 48.6535063,61.2748868 C47.8828101,61.8517601 47.3651203,62.8690243 46.2263137,62.6496577 C45.8593156,62.5789299 45.4244783,62.3833235 45.2059476,62.1026226 C44.0009702,60.5532426 45.3838861,59.7166658 46.2897043,58.7220566 C45.517896,57.8854798 44.7761148,57.0792938 43.9915172,56.228903 C42.6147179,57.5981482 41.2857396,58.9226361 39.9556492,60.2443612 C38.0984159,62.0899137 36.225613,63.9205472 34.399519,65.795938 C34.1604141,66.0423801 33.9991573,66.5534987 34.0720009,66.8828248 C36.5314448,77.9992399 27.7985561,88.2895768 16.3660063,87.6546846 C14.9575118,87.5767736 13.5462369,87.2408167 12.1772224,86.8750216 C10.5485289,86.4396038 10.2110018,85.0057089 11.394849,83.8254394 C13.5312233,81.6958706 15.6753825,79.5740377 17.84234,77.4743073 C18.2471501,77.0825418 18.3222179,76.6648059 18.400066,76.1398733 C18.6803192,74.2539838 18.0908978,72.793566 16.5328237,71.6751833 C16.0523897,71.330938 15.6370145,70.875628 15.2622315,70.4147925 C14.7695642,69.809186 14.1690217,69.7019892 13.4133391,69.6213154 C11.6951203,69.4367601 10.4845823,70.0219218 9.35022423,71.3099407 C7.73765642,73.1427844 5.92490778,74.8026765 4.18722694,76.5261132 C2.91885895,77.7842938 1.55262477,77.4450216 1.00045931,75.7503181 C-2.22801266,65.8423531 4.62651266,55.127097 15.027019,53.7992938 C17.1189087,53.532407 19.177991,53.6318679 21.2342929,54.0855202 C21.5089855,54.1457493 21.9393743,54.0545768 22.1312143,53.8661536 C26.1659702,49.89269 30.1773716,45.8949137 34.1909973,41.8999003 C34.2276971,41.8634313 34.2388183,41.802097 34.2849711,41.7031887 C34.1292749,41.5346577 33.9657939,41.3451294 33.7895235,41.1699677 C27.1551971,34.563 20.5164222,27.9604528 13.8915488,21.3440916 C13.4978599,20.9506685 13.1097315,20.7699811 12.5508933,20.7920836 C11.5249665,20.8324205 10.4951474,20.7849003 9.4681085,20.8092129 C8.64569892,20.828 8.04626854,20.5097251 7.62422061,19.8085256 C5.28154882,15.916841 2.92719982,12.0323396 0.588420434,8.13844474 C0.000111211573,7.15985984 0.0890804702,6.50949596 0.89703255,5.69723181 C2.38226311,4.2047655 3.87861483,2.72279784 5.37830289,1.24414555 C5.63575769,0.990520216 5.93436076,0.778336927 6.21405787,0.546814016 L7.24220886,0.546814016 C11.2997631,2.96481941 15.3523128,5.39221833 19.4204322,7.7936469 C20.2050298,8.25724528 20.6459837,8.84185445 20.6109521,9.78010243 C20.5748083,10.7713962 20.6381989,11.7671105 20.5898219,12.7578518 C20.5609069,13.347434 20.7583074,13.7530135 21.1736826,14.1657763 C27.7985561,20.7390377 34.4078599,27.3283235 41.0227242,33.9126361 C41.2145642,34.1043747 41.4269783,34.2756685 41.6371682,34.4629865 C41.7761826,34.3452911 41.8673761,34.2789838 41.9463363,34.1999677 C45.9032441,30.2701563 49.8668246,26.3469757 53.7959295,22.3895364 C54.0261374,22.158566 54.1217794,21.6270027 54.0455995,21.2866253 C52.0171004,12.268283 57.6938951,3.19413208 66.7520778,1.03085714 C67.52333,0.846301887 68.3045913,0.707056604 69.0814042,0.546814016 L72.5078327,0.546814016 C73.6132758,0.795466307 74.7354005,0.988309973 75.8208255,1.30603235 C77.6446953,1.83980593 77.958868,3.20131536 76.6176564,4.55840431 C74.5580181,6.64211051 72.4878146,8.71642318 70.4426338,10.814496 C70.2079774,11.055965 69.9777694,11.4140243 69.9577514,11.7311941 C69.7753644,14.5724609 69.7898219,14.5730135 71.7771727,16.6230135 C71.7971908,16.6434582 71.8205452,16.6616927 71.8361148,16.6849003 C72.9187595,18.3094286 74.4317929,18.9520566 76.3496365,18.5774205 C76.786142,18.4923261 77.2899304,18.3414771 77.5918698,18.0480674 C79.774953,15.9256819 81.9035425,13.7496981 84.0699439,11.6112884 C85.1881763,10.5067197 86.5816573,10.842124 87.0759928,12.3229865 C87.3345597,13.0965714 87.5291799,13.8906011 87.7532712,14.6757898 L87.7532712,20.4627574 C87.6921049,20.6462075 87.6137007,20.8252372 87.5731085,21.0125553 C85.5735244,30.3524879 76.3746591,36.2565984 67.0467884,34.1596307 C66.4796094,34.0325418 66.1593201,34.1889164 65.7850931,34.5641051 C62.8124078,37.5429596 59.8208165,40.5046846 56.8364539,43.4730404 C56.6429458,43.6653315 56.4605588,43.869779 56.2347993,44.1084852 C57.0866799,44.8870431 57.8940759,45.6247116 58.6936872,46.3557493 C60.5965172,44.7041456 61.2876971,44.503566 62.1529231,45.3091995 C62.9925705,46.0910728 62.8418788,46.7464097 61.2938137,48.7997251 C61.5179051,48.9826226 61.767575,49.1666253 61.9955588,49.3743881 C69.5017839,56.2145364 77.0202423,63.0419757 84.4925479,69.9180404 C85.3750118,70.7303046 86.0850976,71.7641456 86.7251203,72.7874879 C87.1949892,73.5384178 87.4190805,74.4407493 87.7532712,75.2745633 L87.7532712,79.7005741 Z" id="Fill-4"></path>
                </g>
            </g>
        </g>
    </g>
</svg>