<?xml version="1.0" encoding="UTF-8"?>
<svg width="148px" height="139px" viewBox="0 0 148 139" version="1.1" xmlns="http://www.w3.org/2000/svg" xmlns:xlink="http://www.w3.org/1999/xlink">
    <!-- Generator: Sketch 52.6 (67491) - http://www.bohemiancoding.com/sketch -->
    <title>Group 19</title>
    <desc>Created with Sketch.</desc>
    <defs>
        <polygon id="path-1" points="0.0565402126 0.03136853 13.7425143 0.03136853 13.7425143 139 0.0565402126 139"></polygon>
        <polygon id="path-3" points="0.5 139 148.5 139 148.5 0 0.5 0"></polygon>
    </defs>
    <g id="Welcome" stroke="none" stroke-width="1" fill="none" fill-rule="evenodd">
        <g id="Startup-Services" transform="translate(-707.000000, -2120.000000)">
            <g id="Group" transform="translate(631.000000, 2044.000000)">
                <g id="Group-19" transform="translate(76.000000, 76.000000)">
                    <g id="Group-3" transform="translate(133.500000, 0.000000)">
                        <mask id="mask-2" fill="white">
                            <use xlink:href="#path-1"></use>
                        </mask>
                        <g id="Clip-2"></g>
                        <path d="M8.69937143,19.2771992 C8.27422857,17.0911867 7.87965714,14.9964021 7.4408,12.9111143 C7.39794286,12.7067872 7.08537143,12.4282116 6.89308571,12.4241826 C6.70194286,12.4204414 6.37308571,12.6918224 6.3308,12.8909694 C5.89051429,14.979135 5.49565714,17.0770853 5.06765714,19.2771992 L8.69937143,19.2771992 Z M4.59708571,129.835439 C4.63108571,131.484733 3.98251429,133.260365 5.79908571,134.1548 C6.43565714,134.467909 7.55794286,134.399992 8.16851429,134.025872 C9.7848,133.035893 9.14765714,131.369907 9.13308571,129.835439 L4.59708571,129.835439 Z M4.68165714,28.4650128 L9.12765714,28.4650128 L9.12765714,23.935282 L4.68165714,23.935282 L4.68165714,28.4650128 Z M4.64508571,125.176493 L9.09537143,125.176493 L9.09537143,83.7936319 L4.64508571,83.7936319 L4.64508571,125.176493 Z M4.6388,79.136988 L9.14194286,79.136988 L9.14194286,33.1861205 L4.6388,33.1861205 L4.6388,79.136988 Z M13.7425143,133.275617 C13.6085143,133.568582 13.4516571,133.852913 13.3442286,134.155375 C12.2079429,137.357843 9.05765714,139.424137 6.05708571,138.92627 C2.50394286,138.336599 0.0948,135.57847 0.0836571429,131.953247 C0.0556571429,122.940982 0.0690857143,113.928429 0.0693714286,104.915876 C0.0702285714,77.5429487 0.00651428571,50.1697333 0.155371429,22.7973814 C0.174514286,19.2651122 1.2848,15.7362965 1.91194286,12.2100708 C2.16194286,10.8033793 2.47165714,9.40733582 2.76851429,7.93646832 C3.36908571,7.88092588 3.9208,7.82998799 4.58851429,7.76811429 L4.58851429,2.2210646 C4.58851429,1.01467122 5.55708571,0.0370666667 6.75508571,0.0315987578 C6.79822857,0.0313109731 6.84165714,0.0313109731 6.88537143,0.0313109731 L6.9068,0.0313109731 C8.10422857,0.0315987578 9.07337143,1.01467122 9.07337143,2.22077681 L9.07337143,7.76552422 L10.9873714,7.91286998 C11.7913714,11.9081847 12.5879429,15.88393 13.3985143,19.8570853 C13.4616571,20.166166 13.6256571,20.4539507 13.7425143,20.7518079 L13.7425143,133.275617 Z" id="Fill-1" fill="#676767" mask="url(#mask-2)"></path>
                    </g>
                    <path d="M46.5,12.4998355 C46.5,11.1191181 47.4889503,10 48.7090724,10 L74.2909276,10 C75.5110497,10 76.5,11.1191181 76.5,12.4998355 C76.5,13.8805528 75.5110497,15 74.2909276,15 L48.7090724,15 C47.4889503,15 46.5,13.8805528 46.5,12.4998355" id="Fill-4" fill="#676767"></path>
                    <path d="M42.3266758,19.0236283 C42.2637571,16.2365524 42.3569807,13.432341 42.0270904,10.670397 C41.8438181,9.13649141 40.9375579,7.6734122 40.3479116,6.15521406 C40.5438831,6.14207691 40.781127,6.11180433 41.0180823,6.11180433 C65.4034072,6.11009079 89.7887321,6.08695798 114.17348,6.17206389 C115.584244,6.17720452 117.153459,6.847485 118.361903,7.59173337 C120.153642,8.69468319 120.957155,10.4327859 120.937529,12.4587636 C120.911842,15.0790548 120.919923,17.7002027 120.925118,20.335059 L42.3390864,20.335059 C42.3387978,19.8955355 42.3364888,19.4585823 42.3266758,19.0236283 Z M42.3336026,37.0977829 C42.3341799,34.5206158 42.9581717,33.9008848 45.5565985,33.9005992 C69.6991958,33.8977433 93.8417931,33.8977433 117.984679,33.900028 C120.174134,33.9003136 120.927138,34.6468467 120.927427,36.8067663 C120.929159,68.4056217 120.929159,100.004191 120.927427,131.603047 C120.927427,133.763252 120.168362,134.516925 117.991029,134.51721 C93.7520329,134.518924 69.5130373,134.51921 45.2740416,134.51721 C43.0880498,134.516925 42.3336026,133.773533 42.3330254,131.608473 C42.3298506,115.809045 42.3315823,100.009903 42.3315823,84.2104756 C42.3318709,68.5061495 42.3301392,52.802109 42.3336026,37.0977829 Z M63.0312569,24.6988791 L63.0312569,24.6554694 L125.5,24.6554694 L125.5,20.335059 L125.453821,20.335059 C125.454398,17.881267 125.455553,15.462317 125.452378,13.043367 C125.444008,6.50420543 120.510951,2.00787144 113.313399,2.0061579 C85.9942728,1.99958932 58.6754358,1.99901814 31.3560215,2.00101727 C24.6543142,2.00130286 19.3342208,6.79836346 19.3330663,12.8591612 C19.3275826,37.5581545 19.3339322,62.2574333 19.3345094,86.9567121 C19.334798,97.0371936 19.3420135,107.11739 19.3220988,117.197871 C19.3160379,120.364782 17.4922615,122.550119 14.3431517,123.290084 C9.43578189,124.443012 5.39657462,121.643941 5.3931112,117.044509 C5.38098925,101.422147 5.38791608,85.7995001 5.39195673,70.1771384 C5.39224535,69.8004448 5.44881446,69.4243223 5.49095267,68.898265 L14.5518225,68.898265 L14.5518225,64.8086116 L0.817074674,64.8086116 C0.817074674,82.7022731 -0.048778974,117.336954 1.08116004,118.941686 C2.61574132,124.431017 7.08239167,127.613921 13.2804607,127.617063 C19.3405704,127.619919 25.4009687,127.61592 31.461367,127.614778 C31.8279117,127.614778 35.5479076,127.616492 37.8040336,127.617348 C37.8040336,128.949342 37.8040336,130.281335 37.803745,131.613328 C37.803745,136.109091 40.7245579,138.992125 45.3182002,138.993267 C69.4114438,138.99955 93.5046874,139.001835 117.59822,138.998408 C122.66,138.997551 125.45411,136.234751 125.45613,131.230923 C125.462768,115.575147 125.458439,99.9193711 125.458439,84.2633098 L125.452955,84.2633098 C125.452955,68.4173309 125.459016,52.5710664 125.449203,36.7250875 C125.446606,32.3032926 122.485675,29.4179736 118.006903,29.4182592 C93.9136589,29.4191159 69.8201267,29.4199727 45.7268831,29.4214006 C40.5649522,29.4216862 37.8072084,32.1479314 37.8069198,37.2502881 C37.8057653,65.9464034 37.805188,94.6425188 37.8040336,123.338634 C33.2109686,123.35834 24.8898264,123.438876 21.3383834,123.438876 C23.7486313,120.662367 23.8871679,117.661384 23.8839931,114.559302 C23.8464728,80.608896 23.8614809,46.6582044 23.8632126,12.7077984 C23.8635012,8.65412936 26.552554,6.10437899 30.8134198,6.11151874 C34.9204523,6.11837291 37.7887368,8.84290456 37.8040336,12.7703426 C37.8138466,15.2918196 37.8069198,17.8135821 37.8043222,20.335059 L37.7601637,20.335059 L37.7601637,24.6554694 L47.1246595,24.6554694 L47.1246595,24.6988791 L63.0312569,24.6988791 Z" id="Fill-6" fill="#676767"></path>
                    <mask id="mask-4" fill="white">
                        <use xlink:href="#path-3"></use>
                    </mask>
                    <g id="Clip-9"></g>
                    <path d="M51.0174158,61.3600017 L110.961236,61.3600017 L110.961236,42.6635292 L51.0174158,42.6635292 L51.0174158,61.3600017 Z M46.5,66 L115.5,66 L115.5,38 L46.5,38 L46.5,66 Z" id="Fill-8" fill="#676767" mask="url(#mask-4)"></path>
                    <path d="M99.7567348,118.342792 L81.2688821,118.342792 C80.0303525,118.342792 79.0266917,119.303694 79.0266917,120.488843 C79.0266917,121.673992 80.0303525,122.634894 81.2688821,122.634894 L99.7567348,122.634894 C100.994976,122.634894 101.998925,121.673992 101.998925,120.488843 C101.998925,119.303694 100.994976,118.342792 99.7567348,118.342792 M74.5,124.853949 L74.5,116.146051 C74.5,114.960902 75.5039487,114 76.7424782,114 L104.25781,114 C105.496051,114 106.5,114.960902 106.5,116.146051 L106.5,124.853949 C106.5,126.039098 105.496051,127 104.25781,127 L76.7424782,127 C75.5039487,127 74.5,126.039098 74.5,124.853949" id="Fill-10" fill="#676767" mask="url(#mask-4)"></path>
                    <path d="M110.5,71.5001645 C110.5,72.8807001 109.632412,74 108.561877,74 L51.4381232,74 C50.3675877,74 49.5,72.8807001 49.5,71.5001645 C49.5,70.1192999 50.3675877,69 51.4381232,69 L108.561877,69 C109.632412,69 110.5,70.1192999 110.5,71.5001645" id="Fill-11" fill="#676767" mask="url(#mask-4)"></path>
                    <path d="M96.8534486,84.4798872 L96.8534486,84.4991734 C96.8534486,85.691336 97.8198101,86.6575746 99.0121243,86.6575746 C100.204439,86.6575746 101.1708,85.691336 101.1708,84.4991734 L101.1708,84.4798872 C101.1708,83.2877247 100.204439,82.3214861 99.0121243,82.3214861 C97.8198101,82.3214861 96.8534486,83.2877247 96.8534486,84.4798872 M94.6586757,78 L103.341324,78 C104.533639,78 105.5,78.9662386 105.5,80.1584012 L105.5,88.8415988 C105.5,90.0334859 104.533639,91 103.341324,91 L94.6586757,91 C93.4663614,91 92.5,90.0334859 92.5,88.8415988 L92.5,80.1584012 C92.5,78.9662386 93.4663614,78 94.6586757,78" id="Fill-12" fill="#676767" mask="url(#mask-4)"></path>
                    <path d="M59.8489476,84.4479317 L59.8489476,84.5281004 C59.8489476,85.7091422 60.8067466,86.666483 61.9880137,86.666483 C63.1692808,86.666483 64.1268043,85.7091422 64.1268043,84.5281004 L64.1268043,84.4479317 C64.1268043,83.2666144 63.1692808,82.3092735 61.9880137,82.3092735 C60.8067466,82.3092735 59.8489476,83.2666144 59.8489476,84.4479317 M57.6387906,78 L66.3612094,78 C67.5424765,78 68.5,78.9573408 68.5,80.1386581 L68.5,88.8613419 C68.5,90.0426592 67.5424765,91 66.3612094,91 L57.6387906,91 C56.4575235,91 55.5,90.0426592 55.5,88.8613419 L55.5,80.1386581 C55.5,78.9573408 56.4575235,78 57.6387906,78" id="Fill-13" fill="#676767" mask="url(#mask-4)"></path>
                    <path d="M81.0724558,82.3337925 L81.0450774,82.3337925 C79.8528761,82.3337925 78.8863385,83.2967045 78.8863385,84.4844336 C78.8863385,85.6718873 79.8528761,86.6347992 81.0450774,86.6347992 L81.0724558,86.6347992 C82.2646571,86.6347992 83.2311947,85.6718873 83.2311947,84.4844336 C83.2311947,83.2967045 82.2646571,82.3337925 81.0724558,82.3337925 M85.3415376,91 L76.6587389,91 C75.4665376,91 74.5,90.0370881 74.5,88.8493589 L74.5,80.1503656 C74.5,78.9626364 75.4665376,78 76.6587389,78 L85.3415376,78 C86.5334624,78 87.5,78.9626364 87.5,80.1503656 L87.5,88.8493589 C87.5,90.0370881 86.5334624,91 85.3415376,91" id="Fill-14" fill="#676767" mask="url(#mask-4)"></path>
                    <path d="M59.8605465,102.451271 L59.8605465,102.521042 C59.8605465,103.713784 60.8236729,104.680602 62.0118598,104.680602 C63.1997709,104.680602 64.1628973,103.713784 64.1628973,102.521042 L64.1628973,102.451271 C64.1628973,101.25853 63.1997709,100.291711 62.0118598,100.291711 C60.8236729,100.291711 59.8605465,101.25853 59.8605465,102.451271 M55.5,106.84044 L55.5,98.1595604 C55.5,96.9668186 56.4634022,96 57.6513133,96 L66.3486867,96 C67.5368736,96 68.5,96.9668186 68.5,98.1595604 L68.5,106.84044 C68.5,108.033181 67.5368736,109 66.3486867,109 L57.6513133,109 C56.4634022,109 55.5,108.033181 55.5,106.84044" id="Fill-15" fill="#676767" mask="url(#mask-4)"></path>
                    <path d="M83.1779622,102.547756 L83.1779622,102.52512 C83.1779622,101.333992 82.2142645,100.368391 81.0257592,100.368391 C79.8369784,100.368391 78.8732808,101.333992 78.8732808,102.52512 L78.8732808,102.547756 C78.8732808,103.738884 79.8369784,104.704209 81.0257592,104.704209 C82.2142645,104.704209 83.1779622,103.738884 83.1779622,102.547756 M74.5,106.843271 L74.5,98.1564531 C74.5,96.9653247 75.4636976,96 76.6522029,96 L85.3475216,96 C86.5363024,96 87.5,96.9653247 87.5,98.1564531 L87.5,106.843271 C87.5,108.034399 86.5363024,109 85.3475216,109 L76.6522029,109 C75.4636976,109 74.5,108.034399 74.5,106.843271" id="Fill-16" fill="#676767" mask="url(#mask-4)"></path>
                    <path d="M101.168044,102.547948 L101.168044,102.525076 C101.168044,101.334089 100.202571,100.368514 99.0117102,100.368514 C97.8208495,100.368514 96.8556516,101.334089 96.8556516,102.525076 L96.8556516,102.547948 C96.8556516,103.738935 97.8208495,104.704511 99.0117102,104.704511 C100.202571,104.704511 101.168044,103.738935 101.168044,102.547948 M92.5,106.843437 L92.5,98.1562871 C92.5,96.9655757 93.4651979,96 94.6560586,96 L103.343666,96 C104.534527,96 105.5,96.9655757 105.5,98.1562871 L105.5,106.843437 C105.5,108.0347 104.534527,109 103.343666,109 L94.6560586,109 C93.4651979,109 92.5,108.0347 92.5,106.843437" id="Fill-17" fill="#676767" mask="url(#mask-4)"></path>
                    <path d="M59.8364561,120.452338 L59.8364561,120.523418 C59.8364561,121.711673 60.7997457,122.67484 61.9881518,122.67484 C63.1762823,122.67484 64.1395719,121.711673 64.1395719,120.523418 L64.1395719,120.452338 C64.1395719,119.264358 63.1762823,118.300916 61.9881518,118.300916 C60.7997457,118.300916 59.8364561,119.264358 59.8364561,120.452338 M55.5,124.848578 L55.5,116.151422 C55.5,114.963167 56.4632895,114 57.6514201,114 L66.3485799,114 C67.5367105,114 68.5,114.963167 68.5,116.151422 L68.5,124.848578 C68.5,126.036833 67.5367105,127 66.3485799,127 L57.6514201,127 C56.4632895,127 55.5,126.036833 55.5,124.848578" id="Fill-18" fill="#676767" mask="url(#mask-4)"></path>
                </g>
            </g>
        </g>
    </g>
</svg>