<?xml version="1.0" encoding="UTF-8"?>
<svg width="91px" height="93px" viewBox="0 0 91 93" version="1.1" xmlns="http://www.w3.org/2000/svg" xmlns:xlink="http://www.w3.org/1999/xlink">
    <!-- Generator: Sketch 52.6 (67491) - http://www.bohemiancoding.com/sketch -->
    <title>Group 32</title>
    <desc>Created with Sketch.</desc>
    <defs>
        <polygon id="path-1" points="0.000283454646 0.713458771 88.8157895 0.713458771 88.8157895 62.1714805 0.000283454646 62.1714805"></polygon>
        <polygon id="path-3" points="0 0.203647455 17.006398 0.203647455 17.006398 17.8158479 0 17.8158479"></polygon>
        <polygon id="path-5" points="0.164654605 0.203647455 17.1710526 0.203647455 17.1710526 17.8158479 0.164654605 17.8158479"></polygon>
    </defs>
    <g id="Welcome" stroke="none" stroke-width="1" fill="none" fill-rule="evenodd">
        <g id="Accelerator" transform="translate(-687.000000, -4068.000000)">
            <g id="Group-2" transform="translate(645.000000, 4028.000000)">
                <g id="Group-32" transform="translate(41.447368, 40.470588)">
                    <g id="Group-3" transform="translate(2.467105, 14.546247)">
                        <mask id="mask-2" fill="white">
                            <use xlink:href="#path-1"></use>
                        </mask>
                        <g id="Clip-2"></g>
                        <path d="M63.981194,54.43578 C76.2169863,43.289232 77.4282825,23.9597878 66.6910204,11.2617846 C65.8463256,10.2634399 64.9430501,9.32589808 63.981194,8.45112059 C73.3711016,13.5566044 80.9714656,21.6022036 85.7070479,31.4424696 C80.9714656,41.2866584 73.3711016,49.3302962 63.981194,54.43578 M44.4077058,59.0999523 C29.700189,59.0803385 17.7799762,46.7098865 17.7629689,31.4424696 C17.7629689,16.1691686 29.6926302,3.78890966 44.4077058,3.78890966 C59.1227814,3.78890966 71.0524426,16.1691686 71.0524426,31.4424696 C71.0524426,46.7157707 59.1227814,59.0999523 44.4077058,59.0999523 M3.10836366,31.4424696 C7.84394597,21.6022036 15.4461996,13.5566044 24.8342175,8.45112059 C12.6003149,19.5957073 11.3871291,38.9271128 22.1262808,51.6231547 C22.9690859,52.6214994 23.8742511,53.5610025 24.8342175,54.43578 C15.4461996,49.3302962 7.84394597,41.2866584 3.10836366,31.4424696 M88.7003289,30.8501315 C88.5774986,30.5461169 76.1092735,0.713458771 44.4077058,0.713458771 C12.706138,0.713458771 0.237912934,30.5461169 0.115082587,30.8481701 C-0.0379829227,31.2286787 -0.0379829227,31.6582219 0.115082587,32.0387305 C0.237912934,32.3407837 12.706138,62.1714805 44.4077058,62.1714805 C76.1092735,62.1714805 88.5774986,32.3407837 88.7003289,32.0387305 C88.8552842,31.6582219 88.8552842,31.2306401 88.7003289,30.8501315" id="Fill-1" fill="#676767" mask="url(#mask-2)"></path>
                    </g>
                    <path d="M2.3294023,0 C1.49601064,0 0.822368421,0.699624531 0.822368421,1.56070088 L0.822368421,18.7363834 L3.83836086,18.7363834 L3.83836086,3.12140175 L18.9144737,3.12140175 L18.9144737,0 L2.3294023,0 Z" id="Fill-4" fill="#676767"></path>
                    <path d="M89.7758609,0 L73.1907895,0 L73.1907895,3.12140175 L88.2669023,3.12140175 L88.2669023,18.7363834 L91.2828947,18.7363834 L91.2828947,1.56070088 C91.2828947,0.699624531 90.6092525,0 89.7758609,0" id="Fill-6" fill="#676767"></path>
                    <g id="Group-10" transform="translate(2.467105, 74.162012)">
                        <mask id="mask-4" fill="white">
                            <use xlink:href="#path-3"></use>
                        </mask>
                        <g id="Clip-9"></g>
                        <path d="M2.83485197,14.8817302 L2.83485197,0.203647455 L-0.000180921052,0.203647455 L-0.000180921052,16.3487891 C-0.000180921052,17.1600745 0.634851974,17.8158479 1.41643092,17.8158479 L17.006398,17.8158479 L17.006398,14.8817302 L2.83485197,14.8817302 Z" id="Fill-8" fill="#676767" mask="url(#mask-4)"></path>
                    </g>
                    <g id="Group-13" transform="translate(72.467105, 74.162012)">
                        <mask id="mask-6" fill="white">
                            <use xlink:href="#path-5"></use>
                        </mask>
                        <g id="Clip-12"></g>
                        <path d="M14.3362007,0.203647455 L14.3362007,14.8817302 L0.164654605,14.8817302 L0.164654605,17.8158479 L15.7546217,17.8158479 C16.5362007,17.8158479 17.1712336,17.1600745 17.1712336,16.3487891 L17.1712336,0.203647455 L14.3362007,0.203647455 Z" id="Fill-11" fill="#676767" mask="url(#mask-6)"></path>
                    </g>
                    <path d="M35.6032875,38.6942492 L35.6032875,38.9422137 C35.6013587,42.8899667 35.6013587,46.8396876 35.5936434,50.7874406 C35.5936434,50.9370065 35.6495795,51.0098215 35.7633805,51.0787005 C37.3180182,51.9997117 38.8668693,52.9207228 40.4157205,53.8496059 C42.1111628,54.8631118 43.8027475,55.8785856 45.5001186,56.8960274 C45.6351368,56.9747463 45.7740126,57.0514972 45.9341056,57.143992 L45.9341056,56.9649065 C45.9341056,52.9758261 45.9341056,48.9867457 45.9379633,45.0035692 C45.9379633,44.8579393 45.8781695,44.7929962 45.770155,44.7280531 C44.4527635,43.9507039 43.135372,43.1694188 41.8218382,42.3881337 C39.8621461,41.21719 37.9024539,40.0482143 35.9427618,38.8812066 C35.8424626,38.8162635 35.7421633,38.7670642 35.6032875,38.6942492 M47.8127868,57.1538318 C47.8918689,57.1125044 47.947805,57.0888887 48.0056699,57.0554332 C49.7879096,55.992728 51.5643629,54.9280549 53.3466026,53.8692856 C54.8742366,52.9581143 56.4018706,52.050879 57.9333623,51.1475796 C58.0838112,51.0590208 58.1513202,50.9645581 58.1513202,50.7736648 C58.1474626,46.8239438 58.1513202,42.8801268 58.1513202,38.9304059 L58.1513202,38.6942492 C58.0722382,38.7355766 58.0163021,38.7591923 57.9622948,38.7926478 C56.7124124,39.5326055 55.4663877,40.2725632 54.2165053,41.0144888 C52.1507274,42.2464397 50.0830208,43.4764225 48.0133853,44.7044374 C47.8667941,44.7929962 47.8050715,44.879587 47.8050715,45.0567045 C47.8127868,48.5655996 47.8089292,52.0725267 47.8089292,55.5794538 C47.8127868,56.0950626 47.8127868,56.6106714 47.8127868,57.1538318 M36.5175534,37.0175366 C36.9245367,37.2615652 37.2987298,37.48985 37.6748519,37.7102629 C39.2102012,38.6214342 40.7455506,39.5326055 42.2789711,40.4477127 C43.7506691,41.3234605 45.2204382,42.2011763 46.6921361,43.082828 C46.8155813,43.157611 46.9139517,43.1694188 47.0451122,43.0906999 C48.609394,42.153945 50.1794623,41.221126 51.7476018,40.2902749 C53.2925953,39.3692638 54.8395177,38.4502206 56.3806535,37.5272415 C56.6449033,37.3717716 56.9091532,37.2123658 57.2061931,37.0332803 C56.7702773,36.769572 56.374867,36.5294794 55.9775279,36.2933227 C54.812514,35.6025643 53.649429,34.909838 52.4902017,34.2151436 C50.6751718,33.1288228 48.8620708,32.0464379 47.0528275,30.9561811 C46.9178093,30.8735262 46.8097948,30.891238 46.6805631,30.9679889 C45.3921041,31.7414021 44.0959298,32.5089114 42.8036131,33.2744528 C41.573019,34.0065385 40.3404961,34.7346884 39.109902,35.4667742 C38.25543,35.9764791 37.4067444,36.486184 36.5175534,37.0175366 M33.7188198,44.2852592 C33.7188198,42.0830979 33.7149621,39.8789687 33.7188198,37.6728714 C33.7188198,36.8758425 34.0621517,36.2736429 34.7391713,35.8702086 C36.3921793,34.8901582 38.0451874,33.9081399 39.6981954,32.9241536 C41.7543291,31.7000747 43.8143205,30.4838677 45.8704542,29.2558528 C46.545545,28.8563543 47.207134,28.8563543 47.8802959,29.2558528 C49.8669917,30.4366363 51.8498298,31.609548 53.8365256,32.7903315 C55.5666869,33.8156452 57.298777,34.8507988 59.0270094,35.8820164 C59.6982426,36.2815148 60.0300015,36.8876504 60.0300015,37.6728714 C60.0338592,42.0830979 60.0338592,46.4893885 60.0300015,50.8956791 C60.0300015,51.686804 59.6982426,52.2909716 59.0270094,52.6885021 C57.3624284,53.6783923 55.6978474,54.6702504 54.0351952,55.6562047 C51.9829192,56.8763477 49.9306431,58.0886188 47.8802959,59.3146657 C47.207134,59.7161321 46.5416873,59.7161321 45.8704542,59.3146657 C43.7757439,58.0650031 41.6791047,56.8232124 39.5805368,55.5774858 C37.9680342,54.6190832 36.3536027,53.6606805 34.7391713,52.7022779 C34.0660093,52.3027795 33.7226774,51.6966439 33.7226774,50.899615 C33.7188198,48.6915498 33.7188198,46.4893885 33.7188198,44.2852592" id="Fill-14" fill="#676767"></path>
                    <path d="M29.0557304,30.5787644 C30.1028726,31.6496579 31.152017,32.7249047 32.1991592,33.7979748 C33.024059,34.6446772 34.2734218,33.290824 33.4445176,32.4441216 C32.3973754,31.3710514 31.348231,30.2958047 30.3010888,29.2249112 C29.4741869,28.3782088 28.2268263,29.7277087 29.0557304,30.5787644" id="Fill-16" fill="#676767"></path>
                    <path d="M60.3057304,59.5346484 C61.3528726,60.6056479 62.402017,61.681001 63.4491592,62.7541772 C64.274059,63.6009634 65.5234218,62.2469763 64.6945176,61.4001901 C63.6473754,60.3291907 62.598231,59.2516608 61.5510888,58.1806613 C60.7241869,57.3338752 59.4768263,58.6878623 60.3057304,59.5346484" id="Fill-18" fill="#676767"></path>
                    <path d="M63.4491669,29.2248574 C62.40203,30.2955368 61.3528909,31.3705686 60.305754,32.4434242 C59.4768541,33.2899573 60.7242084,34.6435398 61.549104,33.7991828 C62.598243,32.7241511 63.6473821,31.6491193 64.694519,30.5784399 C65.523419,29.7275545 64.2740625,28.3783243 63.4491669,29.2248574" id="Fill-20" fill="#676767"></path>
                    <path d="M32.1988232,56.4767291 C31.1517917,57.5476406 30.1027581,58.6229055 29.0557266,59.6959937 C28.22691,60.5427103 29.4741388,61.8965863 30.2989514,61.0520463 C31.3479849,59.9767815 32.3970185,58.9015166 33.44405,57.8284284 C34.2728666,56.9817118 33.0276398,55.6321891 32.1988232,56.4767291" id="Fill-22" fill="#676767"></path>
                    <path d="M64.231134,45.9786336 C64.8488129,45.8901091 65.4664919,45.8032549 66.0858092,45.7147304 C66.4724729,45.6596114 66.6821888,45.1585294 66.5904381,44.8111126 C66.4773881,44.3868632 66.0907244,44.2432197 65.7040607,44.2966685 C65.0863818,44.3851929 64.4687028,44.4737174 63.8493855,44.5605716 C63.4627218,44.6173609 63.2530058,45.1167726 63.3431182,45.4641894 C63.4578065,45.8884388 63.8444703,46.0320823 64.231134,45.9786336" id="Fill-24" fill="#676767"></path>
                    <path d="M45.3338816,24.6027137 C45.3322368,25.2347222 45.3289474,25.8631701 45.3240132,26.4951786 C45.3190789,27.5046119 46.7664474,27.5063922 46.7713816,26.4951786 C46.7730263,25.8631701 46.7763158,25.2347222 46.78125,24.6027137 C46.7861842,23.5950607 45.3388158,23.5932804 45.3338816,24.6027137" id="Fill-26" fill="#676767"></path>
                    <path d="M28.2556479,42.8845102 C27.6371907,42.7880548 27.0220145,42.6915994 26.4035573,42.5951441 C26.0180468,42.5346551 25.6259745,42.6932343 25.516063,43.0986738 C25.4209158,43.4419895 25.6325364,43.9242663 26.0213278,43.9831204 C26.639785,44.077941 27.2549612,44.177666 27.8734184,44.2741214 C28.2572884,44.3329755 28.6510012,44.1743963 28.7609127,43.7689568 C28.8544195,43.427276 28.6427988,42.9449991 28.2556479,42.8845102" id="Fill-28" fill="#676767"></path>
                    <path d="M45.3338816,65.4826149 C45.3322368,66.1144996 45.3289474,66.7446044 45.3240132,67.3747091 C45.3190789,68.3839447 46.7664474,68.3857246 46.7713816,67.3747091 C46.7730263,66.7446044 46.7763158,66.1144996 46.78125,65.4826149 C46.7861842,64.4733794 45.3388158,64.4733794 45.3338816,65.4826149" id="Fill-30" fill="#676767"></path>
                </g>
            </g>
        </g>
    </g>
</svg>