<?xml version="1.0" encoding="UTF-8"?>
<svg width="152px" height="152px" viewBox="0 0 152 152" version="1.1" xmlns="http://www.w3.org/2000/svg" xmlns:xlink="http://www.w3.org/1999/xlink">
    <!-- Generator: Sketch 52.6 (67491) - http://www.bohemiancoding.com/sketch -->
    <title>Group 32</title>
    <desc>Created with Sketch.</desc>
    <defs>
        <path d="M5.24375776,0.0875307125 C4.73059006,0.13544226 4.48434783,0.399262899 4.47736025,0.938574939 C4.46841615,1.60657248 4.44968944,2.2779484 4.5002795,2.94133907 C4.55645963,3.6759828 4.36444099,4.04330467 3.66708075,4.30804668 C1.86400621,4.99600737 0.742919255,6.44195332 0.477950311,8.55528256 C0.216614907,10.6382064 0.90810559,12.3295455 2.49540373,13.4947789 C3.22099379,14.029484 4.03630435,14.4161548 4.81416149,14.8617936 C5.52018634,15.2653563 6.26003106,15.6062654 6.9302795,16.0703317 C7.72434783,16.6213145 8.05947205,17.465602 7.8392236,18.5042998 C7.6586646,19.3590295 6.88947205,20.1182432 5.93888199,20.105344 C4.9136646,20.0918305 3.84232919,19.9874079 2.8802795,19.6305283 C0.959813665,18.9183047 1.00062112,18.8421376 0.361397516,20.9953931 C0.154285714,21.6941032 0.24931677,22.1953317 0.894968944,22.4551597 C1.96993789,22.8888206 3.05468944,23.2923833 4.25403727,23.7546069 C4.25403727,24.3624079 4.17326087,25.0451474 4.28618012,25.6882678 C4.3465528,26.036855 4.69593168,26.5282555 4.98326087,26.5927518 C6.8584472,27.0138206 7.20698758,26.6670762 7.20950311,24.5780098 C7.20950311,24.5178133 7.21677019,24.4560811 7.20950311,24.3964988 C7.11447205,23.6646192 7.35372671,23.3003686 8.03375776,23.0190418 C11.6499689,21.5211916 12.6634472,16.612715 9.93046584,13.7693489 C9.2073913,13.0162776 8.26490683,12.502457 7.38391304,11.9560811 C6.57279503,11.4530098 5.6881677,11.0936732 4.87481366,10.5942875 C4.17326087,10.164312 3.77916149,9.49109337 3.9873913,8.54637592 C4.16878882,7.71990172 4.78313665,7.21683047 5.70326087,7.12285012 C6.85481366,7.00583538 7.94767081,7.22542998 8.9726087,7.82340295 C9.39857143,8.0715602 9.78819876,8.18796069 10.1018012,7.61425061 C10.7935714,6.34613022 10.935,5.21375921 10.4254658,4.82094595 C10.3145031,4.73433661 10.1881677,4.66277641 10.0609938,4.61117936 C9.54698758,4.40386978 9.03857143,4.16461916 8.51114907,4.01320639 C7.31627329,3.66707617 7.31263975,3.68488943 7.31263975,2.26136364 L7.31263975,2.17045455 C7.31124224,0.440110565 7.2265528,0.0294840295 6.17478261,0.0294840295 C5.92350932,0.0294840295 5.61717391,0.0528255528 5.24375776,0.0875307125 Z" id="path-1"></path>
        <path d="M5.24347826,0.0875307125 C4.73031056,0.13544226 4.48406832,0.399262899 4.47708075,0.938574939 C4.46813665,1.60657248 4.44940994,2.2779484 4.5002795,2.94103194 C4.55618012,3.67567568 4.36416149,4.04330467 3.66708075,4.30773956 C1.86400621,4.99662162 0.742919255,6.44256757 0.477950311,8.55558968 C0.216614907,10.6385135 0.908385093,12.3295455 2.49540373,13.4947789 C3.22071429,14.029484 4.03602484,14.4161548 4.81388199,14.8617936 C5.51990683,15.2650491 6.25975155,15.6059582 6.93,16.0700246 C7.72406832,16.6210074 8.06003106,17.4652948 7.83950311,18.5046069 C7.65810559,19.3593366 6.88919255,20.1185504 5.93860248,20.1059582 C4.9136646,20.0921376 3.84232919,19.987715 2.8802795,19.6311425 C0.959813665,18.9189189 1.00090062,18.8427518 0.361677019,20.9957002 C0.154285714,21.6944103 0.249596273,22.1956388 0.894968944,22.4554668 C1.96993789,22.8891278 3.05440994,23.2926904 4.25375776,23.7546069 C4.25375776,24.3624079 4.17298137,25.0451474 4.28590062,25.6879607 C4.34627329,26.036855 4.69565217,26.5282555 4.98298137,26.5927518 C6.8578882,27.0138206 7.20642857,26.6670762 7.2092236,24.578317 C7.2092236,24.5178133 7.21621118,24.4560811 7.2092236,24.3964988 C7.11391304,23.6649263 7.3531677,23.3003686 8.03431677,23.0190418 C11.6499689,21.5214988 12.6637267,16.6124079 9.93074534,13.7693489 C9.20767081,13.0162776 8.26546584,12.502457 7.38335404,11.9563882 C6.57251553,11.453317 5.6878882,11.0936732 4.87453416,10.5945946 C4.17298137,10.1646192 3.77916149,9.49140049 3.9871118,8.54668305 C4.16850932,7.72020885 4.78285714,7.21713759 5.70298137,7.12346437 C6.85453416,7.00614251 7.9471118,7.22604423 8.9731677,7.8240172 C9.39885093,8.07186732 9.78847826,8.18826781 10.1020807,7.61455774 C10.7938509,6.34674447 10.9352795,5.21345209 10.4257453,4.82063882 C10.3147826,4.73372236 10.1884472,4.66246929 10.0612733,4.61056511 C9.54754658,4.40356265 9.03885093,4.16431204 8.51170807,4.01289926 C7.31571429,3.66676904 7.31236025,3.68458231 7.31236025,2.26105651 L7.31236025,2.17014742 C7.31152174,0.440110565 7.22599379,0.0297911548 6.17506211,0.0297911548 C5.92350932,0.0297911548 5.61689441,0.0531326781 5.24347826,0.0875307125 Z" id="path-3"></path>
        <path d="M5.24375776,0.0875307125 C4.73059006,0.13544226 4.48434783,0.399262899 4.47736025,0.938574939 C4.46841615,1.60657248 4.44968944,2.2779484 4.5002795,2.94133907 C4.55645963,3.6759828 4.36444099,4.04330467 3.66708075,4.30804668 C1.86400621,4.99600737 0.742919255,6.44195332 0.477950311,8.55528256 C0.216614907,10.6382064 0.90810559,12.3295455 2.49540373,13.4947789 C3.22099379,14.029484 4.03630435,14.4161548 4.81416149,14.8617936 C5.52018634,15.2653563 6.26003106,15.6062654 6.9302795,16.0703317 C7.72434783,16.6213145 8.05947205,17.465602 7.8392236,18.5042998 C7.6586646,19.3590295 6.88947205,20.1182432 5.93888199,20.105344 C4.9136646,20.0918305 3.84232919,19.9874079 2.8802795,19.6305283 C0.959813665,18.9183047 1.00062112,18.8421376 0.361397516,20.9953931 C0.154285714,21.6941032 0.24931677,22.1953317 0.894968944,22.4551597 C1.96993789,22.8888206 3.05468944,23.2923833 4.25403727,23.7546069 C4.25403727,24.3624079 4.17326087,25.0451474 4.28618012,25.6882678 C4.3465528,26.036855 4.69593168,26.5282555 4.98326087,26.5927518 C6.8584472,27.0138206 7.20698758,26.6670762 7.20950311,24.5780098 C7.20950311,24.5178133 7.21677019,24.4560811 7.20950311,24.3964988 C7.11447205,23.6646192 7.35372671,23.3003686 8.03375776,23.0190418 C11.6499689,21.5211916 12.6634472,16.612715 9.93046584,13.7693489 C9.2073913,13.0162776 8.26490683,12.502457 7.38391304,11.9560811 C6.57279503,11.4530098 5.6881677,11.0936732 4.87481366,10.5942875 C4.17326087,10.164312 3.77916149,9.49109337 3.9873913,8.54637592 C4.16878882,7.71990172 4.78313665,7.21683047 5.70326087,7.12285012 C6.85481366,7.00583538 7.94767081,7.22542998 8.9726087,7.82340295 C9.39857143,8.0715602 9.78819876,8.18796069 10.1018012,7.61425061 C10.7935714,6.34613022 10.935,5.21375921 10.4254658,4.82094595 C10.3145031,4.73433661 10.1881677,4.66277641 10.0609938,4.61117936 C9.54698758,4.40386978 9.03857143,4.16461916 8.51114907,4.01320639 C7.31627329,3.66707617 7.31263975,3.68488943 7.31263975,2.26136364 L7.31263975,2.17045455 C7.31124224,0.440110565 7.2265528,0.0294840295 6.17478261,0.0294840295 C5.92350932,0.0294840295 5.61717391,0.0528255528 5.24375776,0.0875307125 Z" id="path-5"></path>
    </defs>
    <g id="Welcome" stroke="none" stroke-width="1" fill="none" fill-rule="evenodd">
        <g id="Startup" transform="translate(-256.000000, -2448.000000)">
            <g id="Group-32" transform="translate(257.000000, 2449.000000)">
                <g id="Group-19">
                    <path d="M136.497588,58.9335 C134.875824,58.943602 134.024647,58.1645204 134.018176,56.6645204 C134.011412,55.0292143 135.569647,52.7008469 136.673765,52.6965612 C137.765235,52.6922755 139.223176,54.7129898 139.203765,56.2035 C139.183176,57.7864592 138.055824,58.9240102 136.497588,58.9335 M147.735529,38.1040102 C146.562588,38.0476837 145.569059,39.0027857 145.425235,40.3987041 C145.284353,41.7637041 145.259059,43.1430918 145.085529,44.5022755 C144.732882,47.2644184 144.097,49.943602 142.634941,52.6543163 C140.464941,49.0142143 137.842882,46.781051 133.819941,48.9738061 C130.729941,50.6580918 128.948176,55.0500306 129.921118,58.5600306 C130.254941,59.7643163 131.030529,60.9780918 131.914059,61.8453367 C133.691706,63.5899286 136.021118,63.4056429 138.559353,63.1356429 C137.185529,66.4279898 135.120529,68.7245204 132.401118,70.7088061 C126.912882,59.501051 109.545235,48.1552347 100.513765,42.8675816 C100.342882,43.1489082 100.077588,43.3791122 99.7046471,43.4954388 C98.9237647,43.7394184 98.1517059,44.0877857 97.3787647,44.4511531 C97.2064118,44.6375816 97.0467059,44.8454388 96.8984706,45.0695204 C96.5546471,45.588398 96.0587647,45.7763571 95.5790588,45.7451327 C104.575235,50.3299286 112.729941,54.8124796 120.884647,62.478398 C128.672588,69.7996224 132.697882,80.9948265 131.796412,91.9751327 C130.935529,102.458296 126.166706,111.026969 118.905529,118.168806 C117.961412,119.098194 116.837,119.842071 115.748471,120.597276 C114.710235,121.317276 114.517588,122.340949 114.519353,123.517071 C114.530235,130.047276 114.523765,136.578092 114.523176,143.108296 C114.522882,143.654724 114.523176,144.201153 114.523176,144.843704 L100.188471,144.843704 C100.188471,141.315031 100.185824,137.910031 100.189353,134.504724 C100.192294,131.536561 99.087,130.741867 96.3190588,131.638806 C87.1864118,134.597786 77.8578824,135.600337 68.3414118,134.552786 C66.2061176,134.317684 64.0811176,133.970847 61.9581765,133.62952 C59.3199412,133.205235 58.0687647,134.2935 58.0611176,137.094827 C58.0549412,139.635643 58.0602353,142.176459 58.0602353,144.828092 L43.7158235,144.828092 C43.7158235,143.307276 43.7155294,141.844316 43.7158235,140.381051 C43.7161176,136.809827 43.6575882,133.236765 43.7425882,129.667378 C43.7852353,127.861561 43.0978824,126.7485 41.6111176,125.85799 C35.5984706,122.256459 30.2225882,117.792582 26.3384706,111.773602 C24.8667059,109.493296 23.3140588,108.940133 20.9172941,109.00748 C18.2987647,109.081255 15.5767059,109.055541 13.0608235,108.401969 C7.89258824,107.058704 4.62670588,102.288092 4.60052941,96.7527857 C4.58464706,93.4368673 4.587,90.1203367 4.602,86.8041122 C4.63288235,79.8349286 9.63288235,74.5267653 16.3334706,74.3437041 C17.3264118,74.3164592 18.3243529,74.2729898 19.3128824,74.3372755 C20.6058235,74.4211531 21.8037647,73.6429898 22.3546471,72.4227857 C25.0511176,66.4540102 29.0143529,61.4991122 33.8505294,57.2773776 C34.0299412,57.1206429 34.2493529,57.0138061 34.6681765,56.7422755 C35.0672941,57.8831939 35.4411176,58.9007449 35.7790588,59.9311531 C36.347,61.6662551 37.3534706,62.408602 38.6658235,62.0265612 C39.937,61.6567653 40.4552353,60.3643163 39.9764118,58.6530918 C38.2034706,52.3145204 34.6122941,47.3945204 29.2734706,43.8444184 C28.7899412,43.5226837 28.3140588,43.1887041 27.6878824,42.7604388 C30.6687647,40.0408469 33.9643529,38.5206429 37.6593529,37.8967653 C46.7555294,36.3612551 55.1902353,41.7144184 58.7825882,49.2392143 C59.5967059,50.9449286 60.7281765,51.4488061 61.9264118,50.8261531 C63.2484706,50.1392143 63.5025882,48.8914592 62.6608235,47.160949 C62.4178824,46.661051 62.1472941,46.1758469 61.8872941,45.6854388 C61.6525882,45.2421735 61.4149412,44.8013571 61.1034706,44.2194184 C61.8399412,43.9154388 64.5175882,41.9639082 65.2964118,41.355949 C65.4284706,41.2524796 65.562,41.1490102 65.6952353,41.0455408 C64.4478824,40.3849286 63.5305294,38.8371735 63.1311176,37.3604388 C63.0390588,37.2585 62.9449412,37.1587041 62.852,37.0576837 C60.5964118,38.3149286 57.4693529,39.8905408 56.5061176,39.0722755 C50.7222941,34.1571735 44.1237647,32.2732959 36.7540588,33.4696224 C31.3467059,34.3478878 26.8078824,36.9924796 22.9790588,41.040949 C20.7346471,43.4140102 20.9552353,44.8457449 23.8596471,46.0925816 C27.1743529,47.5148265 29.9667059,49.6356429 32.2246471,52.7127857 C31.6072941,53.2708469 31.1605294,53.6868673 30.6646471,54.1139082 C26.4064118,57.7827857 22.7796471,62.1964592 20.1114118,67.2352347 C19.0058235,69.3229898 17.7355294,69.9725816 15.4934706,69.9719694 C8.09494118,69.9695204 0.992294118,76.7721735 0.415823529,84.4175816 C0.0987647059,88.6264592 0.0114117647,92.8772755 0.159352941,97.095949 C0.432882353,104.891357 5.31582353,111.213398 12.5508235,112.968398 C15.1722941,113.60452 17.9946471,113.313398 20.717,113.550031 C21.3625882,113.606357 22.2087647,113.902071 22.5667059,114.39799 C26.8331765,120.307378 32.0255294,125.133398 38.0749412,128.967888 C38.9314118,129.510643 39.2690588,130.118602 39.2584706,131.170745 C39.2081765,136.066867 39.2917059,140.965133 39.2072941,145.860337 C39.1767059,147.620235 39.5917059,148.947888 41.1787647,149.723296 L60.5905294,149.723296 C62.1984706,148.973602 62.6484706,147.65299 62.5667059,145.889418 C62.4564118,143.510541 62.5393529,141.12248 62.5393529,138.4335 C73.7302353,140.321357 84.6861176,139.737582 95.7067059,136.619724 C95.7067059,139.886663 95.7731765,142.879622 95.6814118,145.867071 C95.6278824,147.615031 96.057,148.953704 97.6493529,149.723296 L117.061118,149.723296 C118.572588,148.983704 119.060824,147.762888 119.041706,146.026867 C118.967,139.192684 118.984647,132.356357 119.057882,125.521561 C119.065529,124.783194 119.506412,123.904929 120.007588,123.343806 C121.539647,121.628602 123.315235,120.141153 124.790529,118.378806 C134.937882,106.257276 138.820529,92.5016633 134.527294,76.7265612 C134.184059,75.4656429 134.395824,74.8338061 135.368176,74.0737041 C139.177588,71.0957449 141.961706,67.3062551 142.611706,62.2919694 C142.892,60.1307449 143.805235,58.5744184 145.036412,56.9550306 C148.707588,52.1274796 149.510824,46.3255408 149.854941,40.4262551 C149.928765,39.1604388 148.860235,38.1578878 147.735529,38.1040102" id="Fill-1" fill="#676767"></path>
                    <path d="M136.497588,58.9335 C134.875824,58.943602 134.024647,58.1645204 134.018176,56.6645204 C134.011412,55.0292143 135.569647,52.7008469 136.673765,52.6965612 C137.765235,52.6922755 139.223176,54.7129898 139.203765,56.2035 C139.183176,57.7864592 138.055824,58.9240102 136.497588,58.9335 Z M147.735529,38.1040102 C146.562588,38.0476837 145.569059,39.0027857 145.425235,40.3987041 C145.284353,41.7637041 145.259059,43.1430918 145.085529,44.5022755 C144.732882,47.2644184 144.097,49.943602 142.634941,52.6543163 C140.464941,49.0142143 137.842882,46.781051 133.819941,48.9738061 C130.729941,50.6580918 128.948176,55.0500306 129.921118,58.5600306 C130.254941,59.7643163 131.030529,60.9780918 131.914059,61.8453367 C133.691706,63.5899286 136.021118,63.4056429 138.559353,63.1356429 C137.185529,66.4279898 135.120529,68.7245204 132.401118,70.7088061 C126.912882,59.501051 109.545235,48.1552347 100.513765,42.8675816 C100.342882,43.1489082 100.077588,43.3791122 99.7046471,43.4954388 C98.9237647,43.7394184 98.1517059,44.0877857 97.3787647,44.4511531 C97.2064118,44.6375816 97.0467059,44.8454388 96.8984706,45.0695204 C96.5546471,45.588398 96.0587647,45.7763571 95.5790588,45.7451327 C104.575235,50.3299286 112.729941,54.8124796 120.884647,62.478398 C128.672588,69.7996224 132.697882,80.9948265 131.796412,91.9751327 C130.935529,102.458296 126.166706,111.026969 118.905529,118.168806 C117.961412,119.098194 116.837,119.842071 115.748471,120.597276 C114.710235,121.317276 114.517588,122.340949 114.519353,123.517071 C114.530235,130.047276 114.523765,136.578092 114.523176,143.108296 C114.522882,143.654724 114.523176,144.201153 114.523176,144.843704 L100.188471,144.843704 C100.188471,141.315031 100.185824,137.910031 100.189353,134.504724 C100.192294,131.536561 99.087,130.741867 96.3190588,131.638806 C87.1864118,134.597786 77.8578824,135.600337 68.3414118,134.552786 C66.2061176,134.317684 64.0811176,133.970847 61.9581765,133.62952 C59.3199412,133.205235 58.0687647,134.2935 58.0611176,137.094827 C58.0549412,139.635643 58.0602353,142.176459 58.0602353,144.828092 L43.7158235,144.828092 C43.7158235,143.307276 43.7155294,141.844316 43.7158235,140.381051 C43.7161176,136.809827 43.6575882,133.236765 43.7425882,129.667378 C43.7852353,127.861561 43.0978824,126.7485 41.6111176,125.85799 C35.5984706,122.256459 30.2225882,117.792582 26.3384706,111.773602 C24.8667059,109.493296 23.3140588,108.940133 20.9172941,109.00748 C18.2987647,109.081255 15.5767059,109.055541 13.0608235,108.401969 C7.89258824,107.058704 4.62670588,102.288092 4.60052941,96.7527857 C4.58464706,93.4368673 4.587,90.1203367 4.602,86.8041122 C4.63288235,79.8349286 9.63288235,74.5267653 16.3334706,74.3437041 C17.3264118,74.3164592 18.3243529,74.2729898 19.3128824,74.3372755 C20.6058235,74.4211531 21.8037647,73.6429898 22.3546471,72.4227857 C25.0511176,66.4540102 29.0143529,61.4991122 33.8505294,57.2773776 C34.0299412,57.1206429 34.2493529,57.0138061 34.6681765,56.7422755 C35.0672941,57.8831939 35.4411176,58.9007449 35.7790588,59.9311531 C36.347,61.6662551 37.3534706,62.408602 38.6658235,62.0265612 C39.937,61.6567653 40.4552353,60.3643163 39.9764118,58.6530918 C38.2034706,52.3145204 34.6122941,47.3945204 29.2734706,43.8444184 C28.7899412,43.5226837 28.3140588,43.1887041 27.6878824,42.7604388 C30.6687647,40.0408469 33.9643529,38.5206429 37.6593529,37.8967653 C46.7555294,36.3612551 55.1902353,41.7144184 58.7825882,49.2392143 C59.5967059,50.9449286 60.7281765,51.4488061 61.9264118,50.8261531 C63.2484706,50.1392143 63.5025882,48.8914592 62.6608235,47.160949 C62.4178824,46.661051 62.1472941,46.1758469 61.8872941,45.6854388 C61.6525882,45.2421735 61.4149412,44.8013571 61.1034706,44.2194184 C61.8399412,43.9154388 64.5175882,41.9639082 65.2964118,41.355949 C65.4284706,41.2524796 65.562,41.1490102 65.6952353,41.0455408 C64.4478824,40.3849286 63.5305294,38.8371735 63.1311176,37.3604388 C63.0390588,37.2585 62.9449412,37.1587041 62.852,37.0576837 C60.5964118,38.3149286 57.4693529,39.8905408 56.5061176,39.0722755 C50.7222941,34.1571735 44.1237647,32.2732959 36.7540588,33.4696224 C31.3467059,34.3478878 26.8078824,36.9924796 22.9790588,41.040949 C20.7346471,43.4140102 20.9552353,44.8457449 23.8596471,46.0925816 C27.1743529,47.5148265 29.9667059,49.6356429 32.2246471,52.7127857 C31.6072941,53.2708469 31.1605294,53.6868673 30.6646471,54.1139082 C26.4064118,57.7827857 22.7796471,62.1964592 20.1114118,67.2352347 C19.0058235,69.3229898 17.7355294,69.9725816 15.4934706,69.9719694 C8.09494118,69.9695204 0.992294118,76.7721735 0.415823529,84.4175816 C0.0987647059,88.6264592 0.0114117647,92.8772755 0.159352941,97.095949 C0.432882353,104.891357 5.31582353,111.213398 12.5508235,112.968398 C15.1722941,113.60452 17.9946471,113.313398 20.717,113.550031 C21.3625882,113.606357 22.2087647,113.902071 22.5667059,114.39799 C26.8331765,120.307378 32.0255294,125.133398 38.0749412,128.967888 C38.9314118,129.510643 39.2690588,130.118602 39.2584706,131.170745 C39.2081765,136.066867 39.2917059,140.965133 39.2072941,145.860337 C39.1767059,147.620235 39.5917059,148.947888 41.1787647,149.723296 L60.5905294,149.723296 C62.1984706,148.973602 62.6484706,147.65299 62.5667059,145.889418 C62.4564118,143.510541 62.5393529,141.12248 62.5393529,138.4335 C73.7302353,140.321357 84.6861176,139.737582 95.7067059,136.619724 C95.7067059,139.886663 95.7731765,142.879622 95.6814118,145.867071 C95.6278824,147.615031 96.057,148.953704 97.6493529,149.723296 L117.061118,149.723296 C118.572588,148.983704 119.060824,147.762888 119.041706,146.026867 C118.967,139.192684 118.984647,132.356357 119.057882,125.521561 C119.065529,124.783194 119.506412,123.904929 120.007588,123.343806 C121.539647,121.628602 123.315235,120.141153 124.790529,118.378806 C134.937882,106.257276 138.820529,92.5016633 134.527294,76.7265612 C134.184059,75.4656429 134.395824,74.8338061 135.368176,74.0737041 C139.177588,71.0957449 141.961706,67.3062551 142.611706,62.2919694 C142.892,60.1307449 143.805235,58.5744184 145.036412,56.9550306 C148.707588,52.1274796 149.510824,46.3255408 149.854941,40.4262551 C149.928765,39.1604388 148.860235,38.1578878 147.735529,38.1040102 Z" id="Stroke-3" stroke="#676767" stroke-width="2"></path>
                    <path d="M42.3747647,81.6714796 C39.8506471,81.6711735 37.7418235,79.5081122 37.7653529,76.9428061 C37.788,74.4525 39.8859412,72.335051 42.3227059,72.3420918 C44.8771176,72.350051 46.9794706,74.4984184 46.9350588,77.0551531 C46.8909412,79.577602 44.8224118,81.6717857 42.3747647,81.6714796" id="Fill-5" fill="#676767"></path>
                    <path d="M42.3747647,81.6714796 C39.8506471,81.6711735 37.7418235,79.5081122 37.7653529,76.9428061 C37.788,74.4525 39.8859412,72.335051 42.3227059,72.3420918 C44.8771176,72.350051 46.9794706,74.4984184 46.9350588,77.0551531 C46.8909412,79.577602 44.8224118,81.6717857 42.3747647,81.6714796 Z" id="Stroke-7" stroke="#676767" stroke-width="2"></path>
                    <path d="M100.590529,57.5804694 L66.4728824,57.5804694 C65.5022941,57.5804694 64.7081765,56.7539388 64.7081765,55.7437347 C64.7081765,54.7335306 65.5022941,53.907 66.4728824,53.907 L100.590529,53.907 C101.561118,53.907 102.355235,54.7335306 102.355235,55.7437347 C102.355235,56.7539388 101.561118,57.5804694 100.590529,57.5804694" id="Fill-9" fill="#676767"></path>
                    <path d="M100.590529,57.5804694 L66.4728824,57.5804694 C65.5022941,57.5804694 64.7081765,56.7539388 64.7081765,55.7437347 C64.7081765,54.7335306 65.5022941,53.907 66.4728824,53.907 L100.590529,53.907 C101.561118,53.907 102.355235,54.7335306 102.355235,55.7437347 C102.355235,56.7539388 101.561118,57.5804694 100.590529,57.5804694 Z" id="Stroke-11" stroke="#676767" stroke-width="2"></path>
                    <path d="M83.3846471,46.4356837 C72.1614118,46.4356837 63.0628824,36.9657857 63.0628824,25.2844592 C63.0628824,13.6031327 72.1614118,4.13354082 83.3846471,4.13354082 C94.6078824,4.13354082 103.706412,13.6031327 103.706412,25.2844592 C103.706412,36.9657857 94.6078824,46.4356837 83.3846471,46.4356837 M83.3846471,0.0293571429 C69.9837647,0.0293571429 59.1199412,11.336602 59.1199412,25.2844592 C59.1199412,39.2326224 69.9837647,50.5395612 83.3846471,50.5395612 C96.7855294,50.5395612 107.649353,39.2326224 107.649353,25.2844592 C107.649353,11.336602 96.7855294,0.0293571429 83.3846471,0.0293571429" id="Fill-13" fill="#676767"></path>
                    <path d="M83.3846471,46.4356837 C72.1614118,46.4356837 63.0628824,36.9657857 63.0628824,25.2844592 C63.0628824,13.6031327 72.1614118,4.13354082 83.3846471,4.13354082 C94.6078824,4.13354082 103.706412,13.6031327 103.706412,25.2844592 C103.706412,36.9657857 94.6078824,46.4356837 83.3846471,46.4356837 Z M83.3846471,0.0293571429 C69.9837647,0.0293571429 59.1199412,11.336602 59.1199412,25.2844592 C59.1199412,39.2326224 69.9837647,50.5395612 83.3846471,50.5395612 C96.7855294,50.5395612 107.649353,39.2326224 107.649353,25.2844592 C107.649353,11.336602 96.7855294,0.0293571429 83.3846471,0.0293571429 Z" id="Stroke-15" stroke="#676767" stroke-width="2"></path>
                    <path d="M81.5349412,35.6155714 C80.2731765,35.1554694 79.1317059,34.7529184 78.0002353,34.3209796 C77.3217059,34.0616939 77.2211176,33.5624082 77.4393529,32.8659796 C78.112,30.7191429 78.0693529,30.7956735 80.0896471,31.5052653 C81.1022941,31.8606735 82.2299412,31.964449 83.3081765,31.9782245 C84.3084706,31.9910816 85.1178824,31.2343469 85.3078824,30.3824082 C85.5393529,29.3467959 85.1872941,28.5052653 84.3514118,27.9566939 C83.6464118,27.4938367 82.8672941,27.1543469 82.1252353,26.752102 C81.3061176,26.3079184 80.4481765,25.921898 79.6843529,25.3901633 C78.0146471,24.2275102 77.287,22.542 77.5617059,20.4661837 C77.8405294,18.3597551 79.0199412,16.9188367 80.9181765,16.2331224 C81.6514118,15.9683265 81.8537647,15.6025102 81.7949412,14.8705714 C81.7411176,14.2087347 81.7605294,13.5398571 81.7702353,12.8743469 C81.7778824,12.3367959 82.0364118,12.0735306 82.5764118,12.0260816 C84.6158235,11.8473061 84.752,11.9651633 84.7534706,14.101898 L84.7534706,14.1928163 C84.7534706,15.6116939 84.7578824,15.5939388 86.0149412,15.9383265 C86.5702353,16.0901633 87.1046471,16.3277143 87.6455294,16.5349592 C87.7799412,16.5866939 87.9125882,16.6577143 88.0299412,16.7437347 C88.5658235,17.1358776 88.417,18.2642449 87.6887647,19.5279184 C87.3590588,20.1000612 86.9484706,19.9837347 86.5008235,19.7363878 C85.4217059,19.1403673 84.272,18.9217959 83.0602353,19.0384286 C82.0922941,19.1314898 81.4458235,19.6329184 81.2546471,20.4573061 C81.0358235,21.3986327 81.4505294,22.0696531 82.1881765,22.4979184 C83.0449412,22.9953673 83.9752353,23.3538367 84.8290588,23.8558776 C85.7561176,24.4004694 86.7475882,24.9123061 87.5087647,25.6629184 C90.3846471,28.4966939 89.3178824,33.389449 85.5125882,34.882102 C84.7967059,35.1628163 84.5455294,35.5261837 84.6449412,36.2550612 C84.6528824,36.314449 84.6455294,36.3759796 84.6452353,36.436898 C84.6425882,38.5185306 84.2758235,38.8638367 82.302,38.4441429 C82.0008235,38.3798571 81.6328824,37.8903673 81.5687647,37.5426122 C81.4505294,36.9022041 81.5349412,36.2213878 81.5349412,35.6155714" id="Fill-17" fill="#676767"></path>
                </g>
                <g id="Group-22" transform="translate(76.956522, 12.162162)">
                    <mask id="mask-2" fill="white">
                        <use xlink:href="#path-1"></use>
                    </mask>
                    <g id="Clip-21"></g>
                    <polygon id="Fill-20" fill="#676767" mask="url(#mask-2)" points="-335.962733 2156.63391 142.890373 2156.63391 142.890373 -1735.73649 -335.962733 -1735.73649"></polygon>
                </g>
                <g id="Group-26" transform="translate(76.956522, 12.162162)">
                    <mask id="mask-4" fill="white">
                        <use xlink:href="#path-3"></use>
                    </mask>
                    <g id="Clip-24"></g>
                    <polygon id="Fill-23" fill="#676767" mask="url(#mask-4)" points="-2.07475155 29.3184889 13.8247826 29.3184889 13.8247826 -2.53961916 -2.07475155 -2.53961916"></polygon>
                    <polygon id="Stroke-25" stroke="#676767" stroke-width="2" mask="url(#mask-4)" points="-2.07475155 29.3184889 13.8247826 29.3184889 13.8247826 -2.53961916 -2.07475155 -2.53961916"></polygon>
                </g>
                <g id="Group-29" transform="translate(76.956522, 12.162162)">
                    <mask id="mask-6" fill="white">
                        <use xlink:href="#path-5"></use>
                    </mask>
                    <use id="Clip-28" stroke="#979797" xlink:href="#path-5"></use>
                    <polygon id="Stroke-27" mask="url(#mask-6)" points="-335.962733 2156.63391 142.890373 2156.63391 142.890373 -1735.73649 -335.962733 -1735.73649"></polygon>
                </g>
                <path d="M81.1302687,36.1598405 C79.8760763,35.6929245 78.741456,35.284412 77.6167758,34.8460764 C76.9423184,34.5829508 76.8423339,34.0762709 77.0592595,33.3695286 C77.7278697,31.1908984 77.6854786,31.2685624 79.6936483,31.9886629 C80.7002181,32.3493344 81.8210978,32.4546468 82.8928622,32.4686263 C83.8871532,32.4816739 84.6917074,31.7137323 84.8805672,30.8491768 C85.1106486,29.7982277 84.7607026,28.9442345 83.9298367,28.387539 C83.2290676,27.9178272 82.4546257,27.5733097 81.7170203,27.1651078 C80.9028184,26.714346 80.050026,26.3226088 79.2907865,25.7829994 C77.631101,24.6031281 76.9078208,22.8926563 77.1808781,20.7860983 C77.4580283,18.6484746 78.6303621,17.186217 80.5172054,16.4903476 C81.2460403,16.2216302 81.4471789,15.8503963 81.3887083,15.1076179 C81.3352078,14.4359798 81.3545031,13.7571965 81.3641507,13.0818304 C81.3717519,12.5363186 81.6287298,12.2691544 82.1654891,12.2210028 C84.1926616,12.0395797 84.3280209,12.1591822 84.3294826,14.3275608 L84.3294826,14.4198256 C84.3294826,15.859716 84.3338679,15.841698 85.5833827,16.1911859 C86.1353443,16.3452713 86.6665489,16.5863403 87.2041852,16.7966544 C87.3377904,16.8491553 87.4696414,16.9212274 87.58629,17.0085218 C88.1189564,17.4064721 87.971026,18.5515499 87.2471611,19.8339377 C86.9194339,20.4145537 86.5113097,20.2965045 86.0663491,20.0454944 C84.9937076,19.4406473 83.8509015,19.2188389 82.646409,19.3371989 C81.6842768,19.4316383 81.0416859,19.9404927 80.8516567,20.7770892 C80.6341464,21.7323563 81.0463635,22.4133142 81.7795837,22.8479219 C82.6312067,23.3527378 83.5559178,23.7165159 84.4046172,24.2259917 C85.3261125,24.7786487 86.3116329,25.2980654 87.0682413,26.0597939 C89.9268645,28.9355361 88.8665018,33.9007503 85.0840446,35.4155088 C84.3724585,35.7003803 84.1227894,36.0691289 84.2216045,36.8088008 C84.2294981,36.869068 84.2221893,36.9315099 84.2218969,36.9933304 C84.2192657,39.1057909 83.8547021,39.4562109 81.8927241,39.0303015 C81.5933551,38.9650638 81.2276221,38.4683249 81.1638892,38.1154197 C81.0463635,37.4655275 81.1302687,36.7746286 81.1302687,36.1598405" id="Stroke-30" stroke="#676767" stroke-width="2"></path>
            </g>
        </g>
    </g>
</svg>