<?xml version="1.0" encoding="UTF-8"?>
<svg width="100px" height="100px" viewBox="0 0 100 100" version="1.1" xmlns="http://www.w3.org/2000/svg" xmlns:xlink="http://www.w3.org/1999/xlink">
    <!-- Generator: Sketch 52.6 (67491) - http://www.bohemiancoding.com/sketch -->
    <title>Group 3</title>
    <desc>Created with Sketch.</desc>
    <defs>
        <polygon id="path-1" points="0 0.000308859673 99.9335947 0.000308859673 99.9335947 100 0 100"></polygon>
    </defs>
    <g id="Welcome" stroke="none" stroke-width="1" fill="none" fill-rule="evenodd">
        <g id="Accelerator" transform="translate(-309.000000, -7576.000000)">
            <g id="Group-28" transform="translate(262.000000, 7532.000000)">
                <g id="Group-20">
                    <g id="Group-3" transform="translate(47.000000, 44.000000)">
                        <mask id="mask-2" fill="white">
                            <use xlink:href="#path-1"></use>
                        </mask>
                        <g id="Clip-2"></g>
                        <path d="M50.1925,40.8064 C44.6295,38.8534 37.9765,41.7504 35.0915,47.0174 C32.0065,52.6494 33.4265,59.5994 38.4815,63.6204 C43.4775,67.5954 50.6265,67.3484 55.4295,63.0904 C59.7235,59.2844 60.5705,52.8664 59.1315,50.1014 C58.8125,50.4044 58.4985,50.6864 58.2005,50.9844 C55.8865,53.2944 53.5995,55.6314 51.2565,57.9124 C48.6355,60.4644 44.6535,60.4834 42.1035,58.0144 C39.5435,55.5354 39.4515,51.4204 41.9775,48.7574 C43.9045,46.7234 45.9135,44.7674 47.9105,42.8014 C48.5705,42.1514 49.3055,41.5774 50.1925,40.8064 M89.9095,13.4104 C89.5675,12.6124 89.4145,11.9914 89.0705,11.5044 C87.9155,9.8684 85.9445,9.8404 84.3705,11.4144 C71.2495,24.5334 58.1335,37.6574 45.0185,50.7814 C44.7715,51.0284 44.5205,51.2784 44.3165,51.5594 C43.6485,52.4844 43.5175,53.4914 43.9985,54.5314 C44.4795,55.5694 45.3385,56.1324 46.4625,56.2454 C47.5755,56.3584 48.3585,55.7434 49.0985,55.0014 C56.0515,48.0364 63.0145,41.0824 69.9735,34.1234 C76.1345,27.9634 82.3065,21.8124 88.4385,15.6234 C89.0555,15.0004 89.4335,14.1414 89.9095,13.4104 M70.5535,38.7804 C70.3985,38.8864 70.2225,38.9704 70.0925,39.0994 C67.6105,41.5714 65.1165,44.0314 62.6815,46.5484 C62.4255,46.8124 62.3665,47.4624 62.4815,47.8564 C63.1915,50.3084 63.5255,52.7614 63.2325,55.3344 C62.2495,63.9394 54.6275,70.4384 45.8335,70.0764 C37.2185,69.7214 30.0885,62.4974 29.8605,53.8954 C29.5515,42.1684 40.8145,33.7784 51.9345,37.4784 C52.6725,37.7234 53.1315,37.6284 53.6615,37.0634 C54.9115,35.7294 56.2285,34.4574 57.5255,33.1684 C58.7625,31.9404 60.0075,30.7214 61.2715,29.4764 C51.4625,22.8924 35.9015,23.4604 25.7775,34.5054 C15.8105,45.3794 16.1575,62.2404 26.5105,72.9084 C36.7145,83.4234 53.5675,84.2984 64.6175,74.8764 C76.1515,65.0404 77.3605,49.1224 70.5535,38.7804 M73.1685,35.9554 C73.3975,36.3534 73.5295,36.5894 73.6675,36.8214 C78.8735,45.5954 79.7665,54.7824 76.2805,64.3764 C71.0345,78.8104 55.6495,87.4774 40.6835,84.4424 C23.5215,80.9624 12.5695,65.2314 15.4015,47.9234 C17.9195,32.5354 31.2805,22.0104 46.0005,21.6064 C52.1455,21.4384 57.8385,23.0574 63.0935,26.2494 C63.3975,26.4344 64.0285,26.5924 64.1815,26.4384 C66.1115,24.4924 68.0025,22.3934 68.2835,19.7714 C68.1845,18.5534 68.1425,18.1794 68.0475,17.5004 C67.8985,16.2634 67.7205,15.7564 66.7305,15.2404 C57.7425,10.5574 48.2685,9.0844 38.3355,11.0644 C14.9405,15.7274 -0.0665,38.0734 4.3635,61.5364 C8.6465,84.2174 31.0515,99.7974 53.7655,95.7774 C67.4115,93.3614 77.7435,86.0174 84.3245,73.8604 C91.5785,60.4584 91.5585,46.8024 84.6705,33.1734 C84.2075,32.2574 83.6715,31.8454 82.6075,31.9154 C81.0955,32.0144 79.5725,31.9164 78.0555,31.9584 C77.6605,31.9694 77.1715,32.0794 76.8975,32.3304 C75.6385,33.4864 74.4405,34.7074 73.1685,35.9554 M68.0335,11.7964 C68.0335,10.6984 68.0125,9.7754 68.0385,8.8534 C68.0775,7.4474 68.8035,6.6074 69.8975,6.6544 C70.9725,6.7014 71.5985,7.4964 71.6025,8.8654 C71.6105,11.7064 71.6055,14.5484 71.6055,17.3894 L71.6055,18.6314 C73.1315,17.3754 74.9195,16.5674 74.7735,14.0724 C74.5425,10.1544 74.7075,6.2134 74.7145,2.2824 C74.7175,0.7744 75.3935,-0.0336 76.5865,0.0014 C77.7295,0.0344 78.3425,0.8124 78.3465,2.2774 C78.3535,5.5044 78.3485,8.7314 78.3485,12.3484 C79.6815,11.0154 80.6955,9.7944 81.9195,8.8414 C82.9915,8.0064 84.2275,7.2254 85.5155,6.8584 C88.0015,6.1494 90.7525,7.4114 92.1935,9.6024 C93.6625,11.8364 93.6965,14.5884 92.1825,16.7334 C91.5585,17.6164 90.7795,18.3964 90.0315,19.1844 C89.3375,19.9154 88.5885,20.5944 87.6325,21.5204 C88.2675,21.5554 88.6215,21.5904 88.9745,21.5904 C91.8935,21.5954 94.8135,21.5884 97.7325,21.5974 C99.1615,21.6014 99.9435,22.2654 99.9335,23.4274 C99.9235,24.5714 99.1295,25.2244 97.6955,25.2284 C93.6095,25.2374 89.5215,25.2704 85.4355,25.2094 C84.3745,25.1944 83.5705,25.4244 82.8975,26.2644 C82.3805,26.9094 81.7525,27.4664 80.9155,28.3284 C81.8175,28.3284 82.3435,28.3274 82.8695,28.3284 C85.6725,28.3314 88.4745,28.3244 91.2765,28.3414 C92.4875,28.3484 93.3015,29.0944 93.2895,30.1284 C93.2775,31.1084 92.5095,31.8334 91.3455,31.8814 C90.3475,31.9224 89.3465,31.8894 88.1475,31.8894 C94.8085,45.6924 95.1665,59.4274 88.7855,73.1334 C84.2525,82.8694 77.0855,90.2234 67.4775,95.0744 C48.2685,104.7724 24.9025,99.8194 10.7855,83.1244 C-2.8565,66.9914 -3.6285,42.9814 8.8745,25.8784 C21.0275,9.2554 45.1765,0.3794 68.0335,11.7964" id="Fill-1" fill="#7A7A7A" mask="url(#mask-2)"></path>
                    </g>
                </g>
            </g>
        </g>
    </g>
</svg>