<?xml version="1.0" encoding="UTF-8"?>
<svg width="100px" height="101px" viewBox="0 0 100 101" version="1.1" xmlns="http://www.w3.org/2000/svg" xmlns:xlink="http://www.w3.org/1999/xlink">
    <!-- Generator: Sketch 52.6 (67491) - http://www.bohemiancoding.com/sketch -->
    <title>Group 162</title>
    <desc>Created with Sketch.</desc>
    <defs>
        <polygon id="path-1" points="0.696618093 0.14520162 3.991 0.14520162 3.991 6.51365966 0.696618093 6.51365966"></polygon>
        <polygon id="path-3" points="0.559946804 0.961 6.9822698 0.961 6.9822698 4.33686292 0.559946804 4.33686292"></polygon>
        <polygon id="path-5" points="0 0.530434935 3.4537 0.530434935 3.4537 6.97969302 0 6.97969302"></polygon>
    </defs>
    <g id="Welcome" stroke="none" stroke-width="1" fill="none" fill-rule="evenodd">
        <g id="Accelerator" transform="translate(-602.000000, -7383.000000)">
            <g id="Group-27" transform="translate(556.000000, 7336.000000)">
                <g id="Group-162" transform="translate(46.000000, 46.000000)">
                    <g id="Group-3" transform="translate(96.000000, 47.039000)">
                        <mask id="mask-2" fill="white">
                            <use xlink:href="#path-1"></use>
                        </mask>
                        <g id="Clip-2"></g>
                        <path d="M3.9913,5.3051 C3.8563,5.5231 3.7713,5.8481 3.5763,5.9401 C3.0283,6.1981 2.4143,6.5631 1.8653,6.5081 C1.1523,6.4371 0.7273,5.8071 0.7163,5.0261 C0.7013,3.9861 0.6943,2.9451 0.6973,1.9051 C0.6993,0.9331 1.1903,0.2521 2.0383,0.1591 C2.9193,0.0631 3.5333,0.4651 3.7963,1.3441 C3.8423,1.4971 3.9253,1.6381 3.9913,1.7851 L3.9913,5.3051 Z" id="Fill-1" fill="#676767" mask="url(#mask-2)"></path>
                    </g>
                    <path d="M50.1232,101.039 C49.8822,100.878 49.5292,100.771 49.4222,100.546 C49.1892,100.053 48.8292,99.404 48.9862,98.997 C49.1802,98.494 49.7962,97.928 50.3162,97.824 C51.4202,97.603 52.5792,97.637 53.7162,97.62 C54.5912,97.607 55.2952,98.295 55.3482,99.125 C55.4032,99.987 54.7402,100.699 53.8032,100.805 C53.2272,100.871 52.6532,100.96 52.0792,101.039 L50.1232,101.039 Z" id="Fill-4" fill="#676767"></path>
                    <path d="M50.0235,44.2592 C46.2635,44.2222 43.2555,47.1232 43.2125,50.8262 C43.1695,54.6532 46.0565,57.6512 49.8265,57.6922 C53.5665,57.7322 56.5995,54.8082 56.6435,51.1192 C56.6895,47.3032 53.7865,44.2962 50.0235,44.2592 M50.0345,41.0402 C55.4455,41.0662 59.8815,45.5552 59.8585,50.9832 C59.8355,56.5642 55.3745,60.9302 49.7205,60.9072 C44.3675,60.8852 39.9585,56.3352 39.9925,50.8672 C40.0265,45.4082 44.5175,41.0132 50.0345,41.0402" id="Fill-6" stroke="#979797" stroke-width="0.4" fill="#676767"></path>
                    <path d="M58.067,83.4403 C58.035,86.2543 60.21,88.5363 62.96,88.5743 C65.82,88.6143 68.133,86.4203 68.166,83.6363 C68.2,80.7623 66.031,78.5033 63.207,78.4723 C60.318,78.4403 58.1,80.5843 58.067,83.4403 M63.171,75.2603 C67.736,75.2953 71.408,79.0003 71.388,83.5513 C71.368,88.1183 67.583,91.8393 62.999,91.7953 C58.404,91.7523 54.808,87.9743 54.852,83.2343 C54.893,78.8563 58.68,75.2253 63.171,75.2603" id="Fill-8" stroke="#979797" stroke-width="0.4" fill="#676767"></path>
                    <path d="M84.9537,22.6654 C87.7537,22.6754 90.0647,20.3774 90.0567,17.5914 C90.0477,14.7894 87.7427,12.5094 84.9387,12.5294 C82.1737,12.5494 79.9037,14.8014 79.8737,17.5554 C79.8437,20.3264 82.1587,22.6554 84.9537,22.6654 M84.9407,9.3484 C89.4867,9.3174 93.2507,13.0254 93.2617,17.5454 C93.2737,22.1184 89.5277,25.8784 84.9507,25.8904 C80.5167,25.9014 76.7717,22.2164 76.7297,17.7974 C76.6837,13.0464 80.2477,9.3794 84.9407,9.3484" id="Fill-10" stroke="#979797" stroke-width="0.4" fill="#676767"></path>
                    <path d="M35.6959,41.3798 C35.6979,38.5858 33.4159,36.2988 30.6099,36.2848 C27.8729,36.2718 25.5749,38.5598 25.5639,41.3078 C25.5529,44.1318 27.7969,46.4378 30.5869,46.4688 C33.3339,46.4988 35.6939,44.1488 35.6959,41.3798 M30.5719,49.6018 C25.9789,49.5918 22.3809,45.9548 22.3779,41.3188 C22.3739,36.8248 26.1049,33.0848 30.5799,33.0928 C35.1789,33.1018 38.9549,36.8768 38.9099,41.4218 C38.8639,45.9888 35.1729,49.6108 30.5719,49.6018" id="Fill-12" stroke="#979797" stroke-width="0.4" fill="#676767"></path>
                    <path d="M90.5636,79.5809 C90.3136,80.1599 90.2296,80.5199 90.0266,80.7929 C89.3856,81.6539 88.7306,82.5069 88.0256,83.3159 C87.3236,84.1209 86.4106,84.1869 85.6996,83.5669 C85.0366,82.9869 84.9766,82.0899 85.5856,81.2949 C86.2386,80.4429 86.9056,79.6009 87.5956,78.7779 C88.0566,78.2279 88.7146,77.9679 89.3366,78.3289 C89.8346,78.6159 90.1766,79.1699 90.5636,79.5809" id="Fill-14" fill="#676767"></path>
                    <path d="M42.2164,97.1737 C43.4674,97.3207 44.6364,97.4227 45.7914,97.6077 C46.6124,97.7397 47.1784,98.5547 47.0874,99.3177 C46.9874,100.1547 46.2644,100.8387 45.3974,100.7637 C44.2014,100.6607 43.0034,100.5047 41.8264,100.2667 C40.9774,100.0937 40.4824,99.2617 40.6254,98.5117 C40.7774,97.7147 41.4604,97.1707 42.2164,97.1737" id="Fill-16" fill="#676767"></path>
                    <path d="M73.9156,94.6933 C73.4826,94.2663 72.9476,93.9013 72.6436,93.3963 C72.2556,92.7523 72.5486,92.0773 73.1206,91.6793 C74.1336,90.9743 75.1946,90.3333 76.2706,89.7263 C77.0096,89.3093 77.8016,89.5453 78.1286,90.2263 C78.3776,90.7433 78.4346,91.8013 78.1186,92.0613 C76.9766,92.9973 75.6426,93.7003 74.3756,94.4833 C74.3006,94.5303 74.1856,94.5103 74.0876,94.5223 C74.0306,94.5793 73.9736,94.6363 73.9156,94.6933" id="Fill-18" fill="#676767"></path>
                    <path d="M62.1798,5.7753 C61.2028,5.5423 59.9198,5.3073 58.6868,4.9163 C57.9108,4.6703 57.6518,3.9483 57.8048,3.1623 C57.9508,2.4093 58.4668,1.8473 59.2218,1.9563 C60.5938,2.1553 61.9618,2.4653 63.2858,2.8733 C64.0048,3.0943 64.2868,3.8223 64.1098,4.5613 C63.9138,5.3703 63.3658,5.8403 62.1798,5.7753" id="Fill-20" fill="#676767"></path>
                    <path d="M77.5992,27.7514 C77.3692,28.0564 77.1192,28.7094 76.6842,28.8744 C76.1952,29.0594 75.3822,29.0044 74.9852,28.6984 C74.0402,27.9674 73.2202,27.0604 72.4232,26.1594 C71.8862,25.5524 71.9252,24.8224 72.4402,24.1914 C72.9602,23.5544 73.7632,23.3284 74.3552,23.8124 C75.4542,24.7104 76.4052,25.7934 77.3902,26.8264 C77.5232,26.9664 77.4952,27.2594 77.5992,27.7514" id="Fill-22" fill="#676767"></path>
                    <path d="M5.6534,33.726 C4.1824,33.695 3.4524,32.621 3.8894,31.487 C4.2974,30.429 4.7984,29.402 5.3344,28.402 C5.7814,27.57 6.6364,27.33 7.4104,27.707 C8.1774,28.082 8.5284,28.919 8.1734,29.782 C7.7414,30.831 7.2874,31.883 6.7124,32.856 C6.4514,33.298 5.8744,33.553 5.6534,33.726" id="Fill-24" fill="#676767"></path>
                    <path d="M16.3614,87.1244 C14.9424,87.0954 12.0724,84.0944 12.2554,83.0514 C12.3414,82.5604 12.7604,81.9334 13.1914,81.7494 C13.6234,81.5664 14.4114,81.6764 14.7734,81.9794 C15.7144,82.7694 16.5844,83.6784 17.3194,84.6624 C17.5944,85.0324 17.5994,85.8224 17.3964,86.2714 C17.1974,86.7114 16.5764,86.9594 16.3614,87.1244" id="Fill-26" fill="#676767"></path>
                    <path d="M64.1515,17.8593 C64.1855,19.3393 63.1835,20.1093 62.0795,19.7893 C61.0225,19.4833 59.9795,19.1163 58.9485,18.7283 C58.0655,18.3963 57.6945,17.6123 57.9535,16.7833 C58.2245,15.9183 59.0315,15.4643 59.9485,15.7363 C61.0045,16.0503 62.0785,16.3473 63.0695,16.8113 C63.5825,17.0513 63.9335,17.6373 64.1515,17.8593" id="Fill-28" fill="#676767"></path>
                    <path d="M8.3058,72.3646 C7.7498,72.8856 7.3428,73.5596 6.8088,73.6826 C6.3158,73.7956 5.4228,73.4816 5.1678,73.0696 C4.4918,71.9756 3.9518,70.7596 3.5968,69.5236 C3.4648,69.0676 3.8558,68.1846 4.2748,67.9236 C4.7008,67.6576 5.8068,67.6886 6.0028,67.9896 C6.8588,69.3016 7.4908,70.7596 8.3058,72.3646" id="Fill-30" fill="#676767"></path>
                    <path d="M12.8316,21.9389 C12.5916,22.4869 12.4906,22.8379 12.2996,23.1299 C11.7476,23.9749 11.1706,24.8039 10.5806,25.6219 C9.9656,26.4729 9.0646,26.6589 8.2886,26.1259 C7.5756,25.6379 7.3856,24.7119 7.9156,23.8829 C8.5286,22.9249 9.1816,21.9869 9.8806,21.0899 C10.3136,20.5339 10.9966,20.2669 11.6186,20.6499 C12.1176,20.9579 12.4566,21.5239 12.8316,21.9389" id="Fill-32" fill="#676767"></path>
                    <path d="M19.5948,87.0878 C20.0878,87.2808 20.3928,87.3378 20.6218,87.5008 C21.5768,88.1788 22.5318,88.8618 23.4438,89.5968 C24.1348,90.1528 24.2138,90.9918 23.7338,91.6948 C23.2458,92.4098 22.3418,92.6418 21.5878,92.1388 C20.6138,91.4888 19.6808,90.7748 18.7628,90.0468 C18.1498,89.5618 18.0108,88.8228 18.3588,88.1958 C18.6238,87.7188 19.2068,87.4198 19.5948,87.0878" id="Fill-34" fill="#676767"></path>
                    <path d="M71.9347,6.8915 C71.7937,8.2595 70.7587,8.9225 69.7617,8.5405 C68.7297,8.1455 67.7097,7.7155 66.7037,7.2605 C65.8307,6.8665 65.4897,6.0795 65.7777,5.2665 C66.0717,4.4345 66.8247,3.9865 67.7327,4.2965 C68.8977,4.6935 70.0537,5.1665 71.1287,5.7595 C71.5597,5.9965 71.7667,6.6415 71.9347,6.8915" id="Fill-36" fill="#676767"></path>
                    <path d="M97.6105,35.7333 C97.4425,36.6323 97.0115,37.1533 96.2225,37.3373 C95.4665,37.5133 94.8185,37.2203 94.5155,36.5323 C94.0175,35.4053 93.5745,34.2453 93.2255,33.0653 C92.9875,32.2623 93.3395,31.5993 94.1365,31.2313 C94.8745,30.8913 95.6205,31.0743 95.9435,31.7073 C96.6015,32.9973 97.0665,34.3853 97.6105,35.7333" id="Fill-38" fill="#676767"></path>
                    <path d="M94.7555,72.7431 C94.6635,73.0491 94.6165,73.3781 94.4705,73.6561 C93.9745,74.6051 93.4795,75.5591 92.9125,76.4681 C92.4225,77.2541 91.5355,77.4551 90.7915,77.0511 C90.0815,76.6651 89.7535,75.7251 90.1495,74.9311 C90.6695,73.8861 91.2325,72.8561 91.8545,71.8681 C92.2515,71.2371 92.9495,70.9241 93.6305,71.2781 C94.1365,71.5401 94.4885,72.0961 94.9095,72.5211 C94.8585,72.5951 94.8065,72.6691 94.7555,72.7431" id="Fill-40" fill="#676767"></path>
                    <g id="Group-44" transform="translate(49.000000, 0.039000)">
                        <mask id="mask-4" fill="white">
                            <use xlink:href="#path-3"></use>
                        </mask>
                        <g id="Clip-43"></g>
                        <path d="M2.6871,0.9658 C3.5631,1.0178 4.4401,1.0558 5.3151,1.1248 C6.4181,1.2108 7.0321,1.8698 6.9791,2.8748 C6.9271,3.8318 6.1941,4.3968 5.0621,4.3318 C4.2511,4.2858 3.4431,4.1908 2.6321,4.1658 C1.2411,4.1238 0.5481,3.5938 0.5601,2.5278 C0.5721,1.4858 1.3631,0.8988 2.6871,0.9658" id="Fill-42" fill="#676767" mask="url(#mask-4)"></path>
                    </g>
                    <path d="M61.6368,96.3139 C62.6568,96.3319 63.2188,96.6849 63.4158,97.4979 C63.6118,98.3119 63.2198,99.1449 62.4128,99.3699 C61.2268,99.7019 60.0198,99.9949 58.8028,100.1589 C57.9898,100.2689 57.3548,99.8189 57.1478,98.9639 C56.9448,98.1219 57.2508,97.4059 58.0528,97.1549 C59.2858,96.7709 60.5728,96.5559 61.6368,96.3139" id="Fill-45" fill="#676767"></path>
                    <path d="M66.8614,98.0453 C65.8304,97.9213 65.2634,97.5193 65.0784,96.7373 C64.9004,95.9883 65.1954,95.3473 65.8824,95.0273 C66.9684,94.5213 68.0824,94.0613 69.2164,93.6753 C70.0494,93.3923 70.8874,93.8313 71.1574,94.5443 C71.4644,95.3553 71.1704,96.2143 70.3364,96.5993 C69.1324,97.1533 67.8894,97.6223 66.8614,98.0453" id="Fill-47" fill="#676767"></path>
                    <path d="M80.6344,89.8554 C80.2944,89.5634 79.6474,89.2654 79.4824,88.7964 C79.3134,88.3164 79.4274,87.5054 79.7534,87.1284 C80.5324,86.2284 81.4704,85.4464 82.4204,84.7154 C83.0714,84.2134 83.8424,84.2544 84.4564,84.8644 C85.0364,85.4384 85.1724,86.2384 84.6534,86.8064 C83.7394,87.8064 82.6684,88.6634 81.6364,89.5494 C81.4594,89.7024 81.1524,89.7054 80.6344,89.8554" id="Fill-49" fill="#676767"></path>
                    <path d="M31.5299,79.4833 C31.5139,81.0343 30.2579,81.8163 29.1919,81.1503 C28.1519,80.5003 27.1859,79.7143 26.2619,78.9043 C25.5999,78.3233 25.6089,77.4453 26.1299,76.7983 C26.6519,76.1483 27.5869,76.0063 28.3139,76.5283 C29.2089,77.1703 30.0989,77.8273 30.9289,78.5493 C31.2609,78.8383 31.4279,79.3183 31.5299,79.4833" id="Fill-51" fill="#676767"></path>
                    <path d="M9.1368,74.9589 C9.3658,75.1289 9.8778,75.3719 10.1928,75.7699 C10.8358,76.5829 11.3888,77.4689 11.9488,78.3439 C12.4658,79.1499 12.2948,80.0809 11.5768,80.5899 C10.8918,81.0749 9.9578,80.9629 9.4128,80.2319 C8.7348,79.3229 8.0818,78.3849 7.5148,77.4039 C6.8438,76.2419 7.5828,74.9429 9.1368,74.9589" id="Fill-53" fill="#676767"></path>
                    <path d="M23.9527,76.1703 C23.3967,75.8423 22.9127,75.6803 22.6077,75.3523 C21.8797,74.5703 21.2047,73.7323 20.5657,72.8753 C19.9567,72.0563 20.0957,71.0653 20.8147,70.5433 C21.5607,70.0013 22.3897,70.1223 23.0527,70.9033 C23.7247,71.6953 24.4557,72.4583 24.9927,73.3363 C25.2687,73.7883 25.3687,74.5273 25.2007,75.0193 C25.0467,75.4693 24.4257,75.7593 23.9527,76.1703" id="Fill-55" fill="#676767"></path>
                    <path d="M1.1066,39.9218 C1.4926,38.6198 1.7936,37.2838 2.2966,36.0288 C2.5996,35.2738 3.3576,34.9868 4.1856,35.3178 C4.9826,35.6348 5.3596,36.2608 5.1746,37.1008 C4.9236,38.2408 4.6226,39.3728 4.2816,40.4898 C4.0376,41.2898 3.2166,41.7338 2.4196,41.5278 C1.6336,41.3258 1.2316,40.7818 1.1066,39.9218" id="Fill-57" fill="#676767"></path>
                    <path d="M84.7691,62.6991 C84.0571,64.2501 83.5301,65.6511 82.7631,66.9041 C82.5451,67.2601 81.5121,67.4331 81.0531,67.2331 C80.5991,67.0351 80.0381,66.1621 80.1481,65.7551 C80.5161,64.3941 81.0881,63.0711 81.7371,61.8131 C82.0401,61.2251 82.8021,60.9611 83.4431,61.3631 C83.9351,61.6721 84.2891,62.2001 84.7691,62.6991" id="Fill-59" fill="#676767"></path>
                    <path d="M17.6319,59.8392 C17.6439,60.9072 17.1699,61.4462 16.3559,61.6232 C15.5579,61.7962 14.8599,61.4262 14.6339,60.6862 C14.2579,59.4532 13.9959,58.1752 13.8149,56.8982 C13.7019,56.1042 14.1909,55.5192 14.9829,55.3372 C15.7999,55.1492 16.5519,55.4082 16.8029,56.2362 C17.1759,57.4712 17.3899,58.7542 17.6319,59.8392" id="Fill-61" fill="#676767"></path>
                    <path d="M99.3688,43.4022 C99.3598,44.6122 98.8308,45.2722 98.0268,45.4152 C97.2708,45.5492 96.4818,45.0542 96.2848,44.2032 C96.0138,43.0352 95.7868,41.8522 95.6258,40.6632 C95.5178,39.8652 96.1018,39.1792 96.8718,39.0522 C97.7138,38.9132 98.4328,39.1892 98.6648,40.0202 C99.0038,41.2342 99.1858,42.4922 99.3688,43.4022" id="Fill-63" fill="#676767"></path>
                    <path d="M0.0558,47.3075 C0.1388,46.4675 0.2038,45.6245 0.3108,44.7865 C0.4408,43.7785 1.1968,43.1835 2.1318,43.3145 C3.0548,43.4445 3.6098,44.2345 3.4928,45.2295 C3.3868,46.1325 3.1918,47.0415 3.2238,47.9415 C3.2678,49.1315 2.2358,49.8305 1.4938,49.7555 C0.5198,49.6565 0.0268,48.9625 0.0698,47.7015 C0.0738,47.5705 0.0818,47.4405 0.0878,47.3105 C0.0768,47.3095 0.0668,47.3085 0.0558,47.3075" id="Fill-65" fill="#676767"></path>
                    <path d="M46.7442,85.6972 C46.7412,86.6342 45.8922,87.4102 44.9102,87.2752 C43.7872,87.1202 42.6662,86.9172 41.5652,86.6462 C40.5912,86.4072 40.1402,85.5312 40.4062,84.6082 C40.6252,83.8422 41.4752,83.3782 42.3472,83.5422 C43.3342,83.7272 44.3232,83.9032 45.3092,84.0902 C46.1492,84.2492 46.7462,84.9252 46.7442,85.6972" id="Fill-67" fill="#676767"></path>
                    <path d="M20.1744,14.4608 C19.7374,14.0838 19.0914,13.7818 18.9224,13.3098 C18.7514,12.8348 18.8524,11.9688 19.1884,11.6598 C20.1614,10.7658 21.2784,10.0098 22.4064,9.3118 C23.0664,8.9038 23.7504,9.1918 24.2214,9.7828 C24.6964,10.3808 24.8084,11.1778 24.2574,11.6588 C23.1884,12.5908 21.9734,13.3548 20.8094,14.1738 C20.6864,14.2608 20.4974,14.2518 20.3384,14.2858 C20.2834,14.3448 20.2294,14.4028 20.1744,14.4608" id="Fill-69" fill="#676767"></path>
                    <path d="M66.7716,18.6459 C67.2826,18.8099 67.5526,18.8459 67.7686,18.9749 C68.7446,19.5569 69.7306,20.1279 70.6626,20.7769 C71.4776,21.3439 71.6296,22.2639 71.1376,22.9989 C70.6466,23.7289 69.7466,23.9139 68.9086,23.4159 C67.9866,22.8679 67.0726,22.3069 66.1796,21.7129 C65.5546,21.2969 65.1856,20.6399 65.5326,19.9559 C65.8066,19.4159 66.3906,19.0329 66.7716,18.6459" id="Fill-71" fill="#676767"></path>
                    <path d="M31.2535,19.6747 C31.6775,20.0527 32.2005,20.3657 32.5035,20.8247 C32.9115,21.4437 32.6895,22.1367 32.1465,22.5697 C31.1845,23.3347 30.1635,24.0277 29.1355,24.7027 C28.5175,25.1087 27.7695,25.0337 27.3755,24.4767 C27.0475,24.0137 26.8905,23.2857 26.9665,22.7167 C27.0705,21.9547 30.2685,19.8727 31.2535,19.6747" id="Fill-73" fill="#676767"></path>
                    <path d="M99.5387,57.3471 C99.3687,58.3291 99.2027,59.4881 98.9567,60.6291 C98.7757,61.4701 97.9967,61.9791 97.2237,61.8681 C96.4047,61.7491 95.8127,61.0991 95.8917,60.2241 C95.9987,59.0301 96.1657,57.8361 96.4017,56.6601 C96.5797,55.7701 97.3657,55.3301 98.2527,55.4821 C99.0507,55.6181 99.5727,56.3031 99.5387,57.3471" id="Fill-75" fill="#676767"></path>
                    <path d="M43.2252,4.6303 C42.1032,4.6853 41.4402,4.2003 41.3382,3.3073 C41.2252,2.3193 41.7142,1.6813 42.8042,1.5193 C43.8932,1.3583 44.9912,1.2213 46.0892,1.1633 C46.9852,1.1153 47.6222,1.6953 47.7282,2.4973 C47.8432,3.3693 47.3702,4.0973 46.4382,4.2593 C45.3542,4.4483 44.2502,4.5173 43.2252,4.6303" id="Fill-77" fill="#676767"></path>
                    <path d="M1.045,61.6381 C1.097,60.5001 1.479,59.9211 2.352,59.7801 C3.193,59.6441 3.861,59.9481 4.115,60.7871 C4.462,61.9341 4.77,63.0991 5.004,64.2741 C5.16,65.0611 4.777,65.6741 4.019,65.9721 C3.24,66.2781 2.314,65.9731 2.047,65.2041 C1.615,63.9531 1.324,62.6551 1.045,61.6381" id="Fill-79" fill="#676767"></path>
                    <path d="M80.8624,70.2006 C80.7724,70.4716 80.7374,70.7806 80.5814,71.0076 C79.9424,71.9426 79.3014,72.8806 78.5924,73.7636 C77.9734,74.5336 77.0644,74.6116 76.3544,74.0576 C75.6704,73.5236 75.5564,72.5966 76.1114,71.8026 C76.7234,70.9266 77.3554,70.0646 77.9914,69.2056 C78.4614,68.5726 79.1734,68.3836 79.8054,68.7026 C80.3024,68.9536 80.6264,69.5466 81.0274,69.9886 C80.9724,70.0586 80.9174,70.1296 80.8624,70.2006" id="Fill-81" fill="#676767"></path>
                    <path d="M20.9122,67.8251 C20.4692,68.2741 20.0942,68.8431 19.5652,69.1411 C18.8782,69.5301 18.1692,69.1831 17.8072,68.5541 C17.1942,67.4901 16.6542,66.3741 16.1952,65.2351 C15.8682,64.4251 16.2742,63.6101 17.0242,63.2851 C17.8172,62.9421 18.5642,63.1171 18.9782,63.8461 C19.6012,64.9421 20.0872,66.1151 20.6252,67.2571 C20.6802,67.3721 20.6982,67.5041 20.7332,67.6281 C20.7932,67.6941 20.8522,67.7591 20.9122,67.8251" id="Fill-83" fill="#676767"></path>
                    <path d="M26.7818,91.8519 C26.8888,91.8799 27.1568,91.9059 27.3838,92.0159 C28.3758,92.4969 29.3708,92.9769 30.3388,93.5059 C31.1228,93.9349 31.3858,94.8319 31.0218,95.6039 C30.6708,96.3489 29.7718,96.7099 28.9618,96.3409 C27.8998,95.8569 26.8568,95.3249 25.8358,94.7589 C25.1088,94.3559 24.9388,93.6489 25.1598,92.8999 C25.3638,92.2089 25.8908,91.8519 26.7818,91.8519" id="Fill-85" fill="#676767"></path>
                    <path d="M37.3258,99.4115 C36.0068,98.9745 34.6588,98.6085 33.3818,98.0725 C32.7138,97.7915 32.4368,97.1035 32.6818,96.3365 C32.9308,95.5595 33.4908,95.0465 34.2848,95.2235 C35.6078,95.5165 36.9198,95.9105 38.1828,96.4005 C38.8928,96.6765 39.0808,97.4265 38.8878,98.1505 C38.6908,98.8865 38.1588,99.2815 37.3258,99.4115" id="Fill-87" fill="#676767"></path>
                    <path d="M86.2716,55.682 C86.1666,56.307 86.0336,57.37 85.7976,58.411 C85.5866,59.339 84.7206,59.832 83.8796,59.607 C82.9866,59.369 82.5296,58.616 82.6946,57.671 C82.8566,56.745 83.0106,55.819 83.1646,54.892 C83.3546,53.745 84.0106,53.134 84.9276,53.254 C85.8936,53.381 86.3616,54.063 86.2716,55.682" id="Fill-89" fill="#676767"></path>
                    <path d="M18.0245,40.809 C17.7165,41.949 17.4415,43.252 16.9985,44.497 C16.7345,45.24 16.0315,45.509 15.2305,45.311 C14.3715,45.1 13.9095,44.461 14.0415,43.662 C14.2455,42.423 14.5975,41.198 14.9965,40.003 C15.2705,39.182 16.0015,38.911 16.8205,39.097 C17.6125,39.276 17.9955,39.846 18.0245,40.809" id="Fill-91" fill="#676767"></path>
                    <path d="M95.504,69.788 C94.089,69.812 93.318,68.823 93.646,67.725 C93.971,66.637 94.355,65.564 94.768,64.506 C95.085,63.698 95.881,63.344 96.683,63.566 C97.444,63.776 97.992,64.565 97.766,65.394 C97.433,66.611 97.032,67.822 96.514,68.97 C96.324,69.391 95.718,69.624 95.504,69.788" id="Fill-93" fill="#676767"></path>
                    <path d="M56.1915,16.2269 C56.1995,17.2109 55.4245,17.9269 54.4205,17.8359 C53.3565,17.7399 52.2945,17.6279 51.2325,17.5099 C50.3205,17.4079 49.7385,16.7469 49.7815,15.8829 C49.8215,15.0629 50.4255,14.4119 51.2935,14.4269 C52.4885,14.4479 53.6895,14.5239 54.8745,14.6809 C55.6995,14.7899 56.1865,15.3409 56.1915,16.2269" id="Fill-95" fill="#676767"></path>
                    <path d="M43.3468,18.1234 C42.3718,18.1214 41.7438,17.6104 41.6088,16.7844 C41.4838,16.0294 41.9958,15.2214 42.8328,15.0514 C44.0038,14.8144 45.1908,14.6264 46.3798,14.5114 C47.2178,14.4314 47.8988,15.0794 47.9918,15.8784 C48.0888,16.7254 47.6288,17.4884 46.8108,17.6364 C45.6348,17.8504 44.4418,17.9744 43.3468,18.1234" id="Fill-97" fill="#676767"></path>
                    <path d="M79.3741,29.8593 C79.5471,29.9813 80.0561,30.1873 80.3271,30.5643 C80.9681,31.4563 81.5311,32.4093 82.0601,33.3743 C82.5221,34.2183 82.2521,35.1483 81.5141,35.5713 C80.7211,36.0263 79.8051,35.7593 79.2661,34.8953 C78.7341,34.0433 78.2021,33.1913 77.7041,32.3193 C77.0091,31.1043 77.7081,29.8293 79.3741,29.8593" id="Fill-99" fill="#676767"></path>
                    <path d="M38.7648,83.246 C38.7678,84.737 37.8158,85.498 36.6998,85.119 C35.5718,84.737 34.4798,84.217 33.4238,83.66 C32.6028,83.227 32.3938,82.331 32.7948,81.567 C33.1878,80.819 34.0268,80.522 34.8818,80.877 C35.8688,81.286 36.8778,81.666 37.8008,82.193 C38.2708,82.463 38.5728,83.027 38.7648,83.246" id="Fill-101" fill="#676767"></path>
                    <path d="M40.0318,18.247 C39.7978,18.489 39.4478,19.058 38.9378,19.332 C38.0318,19.82 37.0358,20.146 36.0668,20.509 C35.1448,20.853 34.2918,20.512 33.9448,19.702 C33.5898,18.877 33.9008,18.007 34.7998,17.605 C35.8628,17.13 36.9478,16.692 38.0548,16.339 C39.0608,16.018 40.0498,16.835 40.0318,18.247" id="Fill-103" fill="#676767"></path>
                    <path d="M18.5406,37.6239 C17.0696,37.6309 16.3066,36.4729 16.8086,35.3219 C17.2726,34.2569 17.8506,33.2339 18.4626,32.2439 C18.9226,31.4989 19.7966,31.3349 20.5106,31.7279 C21.2656,32.1419 21.5686,32.9989 21.1706,33.8169 C20.6756,34.8359 20.1696,35.8589 19.5576,36.8089 C19.2906,37.2239 18.7496,37.4629 18.5406,37.6239" id="Fill-105" fill="#676767"></path>
                    <path d="M26.2838,26.2338 C26.2918,27.4308 23.6968,30.5838 22.8678,30.5668 C22.3228,30.5568 21.5708,30.3178 21.3028,29.9198 C21.0318,29.5148 21.0148,28.6348 21.2848,28.2298 C21.9668,27.2118 22.8038,26.2648 23.7248,25.4568 C24.0878,25.1378 24.9068,25.0758 25.3968,25.2458 C25.8378,25.3988 26.1128,26.0288 26.2838,26.2338" id="Fill-107" fill="#676767"></path>
                    <path d="M37.5943,2.4848 C38.7773,2.4988 39.3433,2.8668 39.5253,3.6718 C39.7133,4.4998 39.4393,5.2118 38.6263,5.5008 C37.4693,5.9108 36.2793,6.2478 35.0813,6.5178 C34.2973,6.6948 33.6443,6.3228 33.3843,5.5498 C33.1243,4.7768 33.2513,3.9558 34.0603,3.6278 C35.3123,3.1208 36.6353,2.7868 37.5943,2.4848" id="Fill-109" fill="#676767"></path>
                    <path d="M70.6339,41.8363 C70.8949,42.0903 71.5239,42.4543 71.7619,42.9903 C72.2029,43.9863 72.4589,45.0723 72.7109,46.1403 C72.9299,47.0653 72.4079,47.8393 71.5259,48.0733 C70.6759,48.2983 69.8949,47.8223 69.6089,46.8773 C69.3189,45.9183 69.0329,44.9573 68.7839,43.9873 C68.4949,42.8583 69.1979,41.8603 70.6339,41.8363" id="Fill-111" fill="#676767"></path>
                    <path d="M71.9474,59.1176 C71.0574,60.6516 70.3604,62.0656 69.4504,63.3276 C69.0324,63.9076 68.1964,63.7706 67.5974,63.2956 C67.0034,62.8226 66.7894,62.1816 67.1134,61.4766 C67.5974,60.4196 68.1144,59.3736 68.6724,58.3536 C69.0744,57.6166 69.8324,57.4176 70.5184,57.7256 C71.0274,57.9546 71.3754,58.5386 71.9474,59.1176" id="Fill-113" fill="#676767"></path>
                    <path d="M14.0631,19.9852 C13.6911,19.7062 13.0891,19.4752 12.9071,19.0602 C12.7061,18.6012 12.6721,17.8042 12.9471,17.4512 C13.7391,16.4342 14.6761,15.5102 15.6511,14.6592 C16.2421,14.1432 17.0251,14.2172 17.6151,14.7622 C18.2351,15.3332 18.4031,16.1182 17.8521,16.7762 C17.0201,17.7682 16.0731,18.6682 15.1371,19.5672 C14.9261,19.7682 14.5551,19.8012 14.0631,19.9852" id="Fill-115" fill="#676767"></path>
                    <path d="M31.7652,7.1102 C31.6102,7.3142 31.3802,7.8672 30.9672,8.1132 C29.9702,8.7102 28.9032,9.1982 27.8352,9.6622 C27.0432,10.0062 26.2182,9.6652 25.8482,8.9472 C25.4592,8.1912 25.6822,7.2782 26.4682,6.8422 C27.4582,6.2932 28.4732,5.7732 29.5212,5.3452 C30.7052,4.8622 31.7802,5.5922 31.7652,7.1102" id="Fill-117" fill="#676767"></path>
                    <path d="M59.8419,30.0551 C60.0599,30.1111 60.3039,30.1211 60.4899,30.2311 C61.5249,30.8441 62.5829,31.4291 63.5589,32.1271 C64.3009,32.6571 64.3719,33.6121 63.8679,34.3011 C63.4049,34.9351 62.5089,35.1291 61.7689,34.7011 C60.8109,34.1471 59.8599,33.5781 58.9429,32.9611 C58.3119,32.5381 58.0149,31.8591 58.3859,31.1771 C58.6619,30.6721 59.2069,30.3131 59.6319,29.8891 C59.7019,29.9451 59.7719,30.0001 59.8419,30.0551" id="Fill-119" fill="#676767"></path>
                    <path d="M69.6622,39.0194 C69.6912,39.8394 69.3502,40.3334 68.6752,40.6194 C67.9712,40.9164 67.3672,40.7024 66.9202,40.1684 C66.1902,39.2964 65.4862,38.3964 64.8522,37.4534 C64.4142,36.8004 64.4632,36.0704 65.0402,35.4854 C65.5732,34.9454 66.3682,34.6804 66.8812,35.2224 C67.8952,36.2914 68.7272,37.5354 69.6222,38.7174 C69.6902,38.8064 69.6572,38.9704 69.6622,39.0194" id="Fill-121" fill="#676767"></path>
                    <g id="Group-125" transform="translate(0.000000, 51.039000)">
                        <mask id="mask-6" fill="white">
                            <use xlink:href="#path-5"></use>
                        </mask>
                        <g id="Clip-124"></g>
                        <path d="M3.4537,4.7807 C3.3647,5.2487 3.3637,5.7587 3.1657,6.1767 C2.8537,6.8367 2.1747,7.1497 1.5367,6.8867 C1.0427,6.6847 0.4487,6.1657 0.3437,5.6887 C0.0867,4.5277 0.0397,3.3107 0.0007,2.1127 C-0.0293,1.1837 0.6237,0.5607 1.4937,0.5317 C2.4407,0.4997 3.0757,1.0767 3.1527,2.0447 C3.1897,2.4977 3.2147,2.9507 3.2517,3.4047 C3.2877,3.8567 3.3327,4.3087 3.3737,4.7607 C3.4007,4.7677 3.4277,4.7747 3.4537,4.7807" id="Fill-123" fill="#676767" mask="url(#mask-6)"></path>
                    </g>
                    <path d="M58.9796,68.9833 C59.9476,69.0663 60.4716,69.4143 60.6966,70.1623 C60.9266,70.9233 60.6796,71.5983 60.0256,71.9093 C58.8646,72.4623 57.6466,72.9223 56.4146,73.2923 C55.6946,73.5073 55.0506,73.1063 54.7566,72.4133 C54.4756,71.7493 54.4756,70.9283 55.1566,70.5813 C56.4396,69.9253 57.8176,69.4573 58.9796,68.9833" id="Fill-126" fill="#676767"></path>
                    <path d="M52.4996,27.7797 C53.4126,27.9657 54.6316,28.1547 55.8166,28.4747 C56.6876,28.7097 57.1156,29.6007 56.8836,30.3897 C56.6406,31.2207 55.7936,31.6797 54.8816,31.5017 C53.9296,31.3157 52.9726,31.1497 52.0156,30.9847 C51.1406,30.8337 50.5206,30.1197 50.5706,29.3027 C50.6216,28.4767 51.3396,27.8067 52.4996,27.7797" id="Fill-128" fill="#676767"></path>
                    <path d="M86.4894,48.4867 C86.4894,49.2357 86.5274,49.6947 86.4814,50.1457 C86.3984,50.9487 85.7484,51.5077 84.9604,51.5087 C84.1934,51.5097 83.4854,50.9317 83.4064,50.1637 C83.2914,49.0307 83.2014,47.8937 83.1484,46.7557 C83.1044,45.8047 83.6824,45.1547 84.5514,45.0847 C85.4404,45.0127 86.1234,45.5347 86.2614,46.4487 C86.3784,47.2197 86.4364,47.9987 86.4894,48.4867" id="Fill-130" fill="#676767"></path>
                    <path d="M85.4562,41.7484 C85.3052,42.5734 84.9542,43.1224 84.1902,43.3034 C83.3762,43.4964 82.6432,43.2824 82.3302,42.4564 C81.9052,41.3344 81.5462,40.1824 81.2472,39.0204 C81.0352,38.1974 81.3752,37.5114 82.1922,37.2134 C82.9312,36.9434 83.7302,37.0804 84.0572,37.8224 C84.6162,39.0904 84.9992,40.4354 85.4562,41.7484" id="Fill-132" fill="#676767"></path>
                    <path d="M65.5138,64.3104 C66.8898,64.3354 67.7678,65.7464 67.0128,66.6614 C66.1378,67.7214 65.0508,68.6314 63.9518,69.4704 C63.3078,69.9614 62.5658,69.6604 62.0578,69.0444 C61.5388,68.4134 61.5018,67.6714 62.0618,67.0944 C62.9398,66.1894 63.9078,65.3694 64.8668,64.5474 C65.0688,64.3744 65.3978,64.3504 65.5138,64.3104" id="Fill-134" fill="#676767"></path>
                    <path d="M43.2809,73.4096 C42.0149,72.8486 40.7069,72.3646 39.4979,71.6996 C38.7809,71.3046 38.7789,70.4776 39.1099,69.7826 C39.4889,68.9866 40.2409,68.7896 41.0169,69.0386 C42.0949,69.3846 43.1529,69.8076 44.1839,70.2766 C44.9769,70.6366 45.1969,71.3636 44.9799,72.1656 C44.7649,72.9636 44.1629,73.2926 43.2809,73.4096" id="Fill-136" fill="#676767"></path>
                    <path d="M44.2472,31.6034 C43.3072,31.5964 42.7882,31.1154 42.6442,30.2804 C42.5062,29.4784 42.8622,28.7944 43.6272,28.5884 C44.8442,28.2614 46.0992,28.0374 47.3512,27.8934 C48.1532,27.8014 48.7232,28.3014 48.8882,29.1004 C49.0602,29.9354 48.7422,30.6704 47.9212,30.8954 C46.7052,31.2284 45.4412,31.3824 44.2472,31.6034" id="Fill-138" fill="#676767"></path>
                    <path d="M49.8356,74.2006 C49.2846,74.2006 48.7306,74.2346 48.1826,74.1936 C47.2386,74.1226 46.6106,73.4146 46.6486,72.5256 C46.6856,71.6816 47.3296,71.0236 48.2306,70.9986 C49.2966,70.9686 50.3656,70.9686 51.4316,71.0126 C52.3776,71.0536 53.0326,71.7646 53.0226,72.6396 C53.0116,73.5386 52.3816,74.1566 51.3916,74.2056 C50.8746,74.2316 50.3546,74.2106 49.8356,74.2106 L49.8356,74.2006 Z" id="Fill-140" fill="#676767"></path>
                    <path d="M37.9781,67.6918 C37.9921,69.1858 36.6691,70.0238 35.6571,69.2988 C34.6091,68.5488 33.6561,67.6318 32.7921,66.6708 C32.2421,66.0578 32.3461,65.2388 32.9621,64.6398 C33.5701,64.0488 34.3171,63.9448 34.9891,64.5088 C35.8861,65.2608 36.7421,66.0658 37.5671,66.8958 C37.8191,67.1498 37.9131,67.5598 37.9781,67.6918" id="Fill-142" fill="#676767"></path>
                    <path d="M32.9259,62.1024 C32.5389,62.5284 32.2229,63.0834 31.7469,63.3464 C31.1439,63.6794 30.3719,63.5524 30.0099,62.9284 C29.3469,61.7844 28.7519,60.5864 28.2739,59.3544 C27.9889,58.6224 28.3359,57.9154 29.0949,57.5844 C29.8169,57.2704 30.5909,57.3544 31.0029,58.0554 C31.6409,59.1424 32.1369,60.3114 32.6799,61.4534 C32.7469,61.5924 32.7319,61.7704 32.7549,61.9314 C32.8119,61.9884 32.8689,62.0454 32.9259,62.1024" id="Fill-144" fill="#676767"></path>
                    <path d="M73.211,52.2113 C73.117,53.0483 73.062,53.8923 72.918,54.7203 C72.745,55.7193 71.943,56.2573 71.014,56.0743 C70.127,55.8993 69.639,55.1653 69.75,54.1863 C69.851,53.2853 69.934,52.3813 70.036,51.4803 C70.165,50.3383 70.772,49.7463 71.751,49.7893 C72.667,49.8303 73.17,50.4773 73.176,51.6223 C73.177,51.8163 73.176,52.0113 73.176,52.2063 C73.188,52.2083 73.199,52.2093 73.211,52.2113" id="Fill-146" fill="#676767"></path>
                    <path d="M16.4562,50.3378 C16.4562,50.8918 16.4772,51.4458 16.4512,51.9978 C16.4092,52.8988 15.8452,53.4648 14.9902,53.5058 C14.0672,53.5498 13.4002,53.0438 13.3592,52.0908 C13.3052,50.8588 13.3122,49.6148 13.4282,48.3878 C13.5082,47.5408 14.1422,47.1078 15.0042,47.1068 C15.8112,47.1058 16.4072,47.6578 16.4892,48.4848 C16.5212,48.8058 16.4822,49.1338 16.4792,49.4598 C16.4772,49.7528 16.4782,50.0458 16.4782,50.3378 L16.4562,50.3378 Z" id="Fill-148" fill="#676767"></path>
                    <path d="M38.1149,34.5067 C37.6289,34.0197 36.9899,33.6547 36.8359,33.1437 C36.6939,32.6737 36.9119,31.8977 37.2599,31.5237 C37.7449,31.0017 38.4689,30.6587 39.1439,30.3647 C39.9379,30.0177 40.7479,30.3777 41.1219,31.1107 C41.4949,31.8407 41.3019,32.6797 40.5649,33.1487 C39.8379,33.6107 39.0569,33.9887 38.1149,34.5067" id="Fill-150" fill="#676767"></path>
                    <path d="M74.6026,7.7475 C75.9456,8.2135 77.0756,8.6455 77.6366,9.7215 C77.8526,10.1365 77.6926,10.9775 77.3816,11.3685 C77.1006,11.7205 76.2956,11.9725 75.8726,11.8275 C75.0706,11.5555 74.2796,11.0645 73.6806,10.4685 C73.3646,10.1545 73.2646,9.3475 73.4326,8.9015 C73.6136,8.4205 74.2216,8.1005 74.6026,7.7475" id="Fill-152" fill="#676767"></path>
                    <path d="M94.4689,28.2943 C94.0069,28.7813 93.6399,29.3553 93.1179,29.6713 C92.4859,30.0553 91.8259,29.7423 91.4139,29.1753 C90.9989,28.6023 90.6409,27.9723 90.3559,27.3243 C90.0179,26.5573 90.3649,25.6763 91.1029,25.3473 C91.8559,25.0113 92.6029,25.0793 93.0859,25.8093 C93.5639,26.5303 93.9349,27.3223 94.4689,28.2943" id="Fill-154" fill="#676767"></path>
                    <path d="M28.1822,51.0272 C29.1292,51.0382 29.7822,51.6992 29.9182,52.6712 C30.1932,54.6442 29.9492,55.5262 28.9982,55.7782 C28.6682,55.8662 28.2572,55.8902 27.9472,55.7752 C26.6482,55.2912 26.8982,54.0492 26.7202,53.0432 C26.5782,52.2372 26.8602,51.5672 27.6432,51.1952 C27.8442,51.1002 28.0712,51.0612 28.1822,51.0272" id="Fill-156" fill="#676767"></path>
                    <path d="M72.6583,79.2343 C71.4543,79.2223 70.6143,77.8343 71.3313,76.8673 C71.8553,76.1603 72.5753,75.5223 73.3413,75.0893 C74.3823,74.5023 75.6373,75.5113 75.4943,76.7093 C75.3883,77.5973 73.5403,79.2433 72.6583,79.2343" id="Fill-158" fill="#676767"></path>
                    <path d="M50.9151,84.4276 C51.2401,84.4276 51.5671,84.4056 51.8911,84.4316 C52.7211,84.5006 53.2551,85.0736 53.2871,85.8996 C53.3181,86.7176 52.8191,87.3986 52.0311,87.4986 C51.3871,87.5806 50.7301,87.6076 50.0821,87.5826 C49.1111,87.5466 48.4451,86.8576 48.4581,85.9856 C48.4701,85.1146 49.1511,84.4856 50.1341,84.4466 C50.3941,84.4356 50.6541,84.4446 50.9151,84.4446 L50.9151,84.4276 Z" id="Fill-160" fill="#676767"></path>
                </g>
            </g>
        </g>
    </g>
</svg>