<?xml version="1.0" encoding="UTF-8"?>
<svg width="95px" height="123px" viewBox="0 0 95 123" version="1.1" xmlns="http://www.w3.org/2000/svg" xmlns:xlink="http://www.w3.org/1999/xlink">
    <!-- Generator: Sketch 52.6 (67491) - http://www.bohemiancoding.com/sketch -->
    <title>Group 19</title>
    <desc>Created with Sketch.</desc>
    <defs>
        <polygon id="path-1" points="0 0 62.5394737 0 62.5394737 81.9834711 0 81.9834711"></polygon>
        <polygon id="path-3" points="0.0820951245 0.445679135 30.4093086 0.445679135 30.4093086 31.0541331 0.0820951245 31.0541331"></polygon>
    </defs>
    <g id="Welcome" stroke="none" stroke-width="1" fill="none" fill-rule="evenodd">
        <g id="Accelerator" transform="translate(-318.000000, -6422.000000)">
            <g id="Group-21" transform="translate(265.000000, 6387.000000)">
                <g id="Group-18">
                    <g id="Group-15" transform="translate(52.000000, 35.000000)">
                        <g id="Group-19" transform="translate(0.638158, 0.000000)">
                            <g id="Group-3" transform="translate(17.230263, 0.000000)">
                                <mask id="mask-2" fill="white">
                                    <use xlink:href="#path-1"></use>
                                </mask>
                                <g id="Clip-2"></g>
                                <path d="M38.0817123,69.7104606 C40.3207461,68.8815877 42.1862256,68.2329046 44.0081619,67.4806124 C44.3702575,67.3297035 44.7804796,66.8026485 44.8056888,66.42425 C44.8973585,64.9669655 44.8423567,63.4961666 44.8423567,62.0186107 C42.8324973,62.4375519 40.8180545,62.8227075 38.8311126,63.3137245 C38.5194354,63.3903052 38.1321307,63.9421363 38.1160885,64.2912539 C38.0381692,65.8814284 38.0817123,67.4761077 38.0817123,69.7104606 M24.4320859,69.7239748 C24.4320859,67.4851172 24.4664621,65.8408857 24.4022933,64.2034114 C24.3908346,63.8903317 24.0447812,63.3858004 23.7674802,63.3204816 C21.7278282,62.8339693 19.6675505,62.4375519 17.6393572,62.0163583 C17.6393572,63.3858004 17.5522709,64.7214569 17.6806086,66.0345897 C17.7333187,66.5616447 18.1435408,67.2981703 18.5881391,67.496379 C20.3481984,68.2802044 22.186177,68.8883448 24.4320859,69.7239748 M37.7952443,13.5678399 C35.5332932,10.8131891 33.5028081,8.33558008 31.2293982,5.5651627 C28.9376544,8.39188937 26.9415455,10.8559842 24.7758475,13.5272972 C29.2103719,15.1377431 33.2209236,15.0566577 37.7952443,13.5678399 M33.0513346,66.6202064 C33.0513346,63.6628422 32.9779988,60.7054779 33.083419,57.7526184 C33.1338374,56.302091 32.350061,55.8696356 31.213356,55.878645 C30.1591538,55.8876545 29.4143371,56.2930815 29.432671,57.6692807 C29.4991316,63.5299522 29.4968399,69.3906238 29.432671,75.2512953 C29.4189206,76.6139803 30.0743593,76.987874 31.2064808,76.9923788 C32.4004793,76.9968835 33.1292539,76.6297469 33.0765438,75.176967 C32.975707,72.3277167 33.0467511,69.4739615 33.0513346,66.6202064 M50.3448337,58.3652636 C50.1339932,61.7798593 49.9185693,64.9106562 49.7833564,68.0482101 C49.769606,68.350028 50.2233713,68.6946409 50.5006723,68.9829445 C52.185104,70.7442992 53.8901614,72.4831303 55.5654262,74.2534946 C56.113153,74.8301018 56.5875439,75.4765325 57.0963111,76.09143 C57.231524,76.0396255 57.3667368,75.9855685 57.5019497,75.933764 C57.1306872,72.4988969 57.0367257,69.0077206 56.3102429,65.6494341 C55.6318867,62.5118801 53.3538934,60.2887891 50.3448337,58.3652636 M12.1597976,58.4643679 C11.5914451,58.797719 11.2178909,58.9643945 10.9085055,59.2076506 C7.8834036,61.5884077 5.83458459,64.491715 5.6833295,68.5121987 C5.58707626,71.0078268 5.30060828,73.4966976 5.09435133,76.0666539 C7.65652096,73.4741739 10.053685,71.0573789 12.4325151,68.6203126 C12.6227299,68.4243562 12.7762767,68.077491 12.7602345,67.8117111 C12.586062,64.7665044 12.3752215,61.7212976 12.1597976,58.4643679 M21.604074,17.6536424 C18.5148033,23.2282627 16.603489,29.0574011 16.4522339,35.2266476 C16.28952,41.7923115 16.763911,48.3759944 17.0182946,54.9484155 C17.0366285,55.4259183 17.4055993,56.1534344 17.7951958,56.3111004 C19.8669322,57.144478 21.998254,57.8314514 23.7995646,58.4598632 C24.5535484,56.3584003 24.8858512,54.5339791 25.8140075,53.0879563 C26.8315418,51.511296 28.7497314,50.8040513 30.6014604,50.9436983 C32.3523527,51.0720835 34.1880395,51.4887723 35.7578841,52.2478216 C38.1458812,53.4055408 38.031294,55.9552257 38.2238004,58.5995102 C40.4536672,57.8584799 42.4795688,57.2886298 44.4023419,56.4755236 C44.9386099,56.248034 45.4198761,55.3268139 45.4909202,54.6758785 C45.7682212,52.2072789 45.841557,49.7139033 46.0317717,47.2340419 C46.5336637,40.6909017 46.5680398,34.1792947 44.8996503,27.766792 C43.9852445,24.2575967 42.754578,20.8745342 40.902849,17.6626519 C34.4492983,20.3677505 28.0965844,20.3992837 21.604074,17.6536424 M16.7066174,72.3232119 C16.3307714,72.2128457 15.663874,72.4786256 15.368239,72.7917053 C13.3056696,74.9765059 11.1697643,77.1117545 9.32949397,79.4767449 C7.89257057,81.3214374 6.23334802,82.1390484 3.96681336,81.900297 C1.78736495,81.6728075 -0.103323724,80.0308284 0.00438823679,78.0172079 C0.231270878,73.7737394 0.407735155,69.4919805 1.13421796,65.3228402 C2.03716503,60.1401326 5.48623953,56.5363376 9.89097121,53.9573719 C11.5891534,52.9595711 11.8229113,51.83789 11.7633259,50.0832923 C11.5708195,44.5447099 11.0780945,38.9520706 11.6097791,33.4652928 C12.8954474,20.2055797 18.9043998,9.28833337 29.3249591,0.873472144 C30.7847999,-0.304518332 31.7427488,-0.291004101 33.2392576,0.914014838 C42.4704018,8.34909431 48.1195504,17.9194223 50.404419,29.5236421 C51.7038378,36.1230916 51.3692432,42.7428124 50.8742265,49.3760475 C50.8627678,49.5314612 50.8467256,49.6868748 50.8146412,49.8400361 C50.4067108,51.7500475 50.8994357,52.9820949 52.7947079,54.0767476 C57.1719386,56.6039088 60.389547,60.282032 61.4299987,65.3656353 C61.9754337,68.0437054 61.9914759,70.827637 62.2389843,73.5642688 C62.3283623,74.5440506 62.3741972,75.5305894 62.4842009,76.5103712 C62.7752523,79.0623085 61.9204319,80.7178018 59.834945,81.566946 C57.5775773,82.4859137 55.1483288,81.8282211 53.6311944,80.0353331 C51.621335,77.6635856 49.5289729,75.3661663 47.4686951,73.0394662 C46.7651298,72.2421265 46.0501057,72.1925743 45.000487,72.5957489 C43.1762589,73.305246 41.2511941,73.7782441 39.337588,74.2219614 C38.4231822,74.4336843 38.0633784,74.7715401 38.0358775,75.7423124 C37.9464994,79.0893369 36.6562477,80.7403255 33.5990614,81.645779 C30.5464585,82.5467277 26.9323785,81.6007316 25.4152441,79.3348455 C24.89731,78.5622819 24.7116787,77.5352004 24.493963,76.5959613 C24.3449997,75.9540353 24.404585,75.2670619 24.3816676,74.7918115 C21.7186612,73.9223959 19.2275357,73.068747 16.7066174,72.3232119 Z" id="Fill-1" fill="#676767" mask="url(#mask-2)"></path>
                            </g>
                            <path d="M10.8946641,96.8342383 C11.6102657,96.9250074 12.1897856,96.9703919 12.7552281,97.0776645 C14.414016,97.3932935 15.3102776,98.3731875 15.1272713,99.6315776 C14.944265,100.902345 13.8086875,101.704827 12.1475534,101.620247 C10.6670794,101.545981 9.40245893,101.785281 8.48742745,103.103497 C8.77836053,103.346923 9.08102479,103.582097 9.36022671,103.839964 C10.5356902,104.91269 10.4301097,106.400066 9.11856455,107.320135 C8.99186788,107.408841 8.85813251,107.487233 8.71735843,107.553247 C6.73948269,108.473315 5.59921269,109.919433 5.77283405,111.91429 C5.96053281,114.053554 7.61462819,115.204671 9.70512319,116.007153 C10.4911118,116.308341 11.4788765,116.749809 11.7768483,117.360438 C12.0959362,118.014388 12.0396266,119.233583 11.5469173,119.675051 C10.9298576,120.232043 9.58546523,120.640504 8.76193689,120.438336 C1.58480533,118.69722 -1.29871695,112.432087 1.99070392,107.200485 C2.63826466,106.166955 3.19197602,105.279893 3.06997182,103.955489 C2.88696552,101.977134 4.71937472,100.531017 5.42089886,98.8394107 C6.08253701,97.2426993 5.54994176,95.2230863 6.86383312,93.624312 C8.75959066,91.3220769 12.2367103,90.2514138 15.4064732,91.1508533 C16.4106616,91.4355383 17.1192244,91.3612727 18.024871,90.8331614 C23.5338298,87.627361 30.9854708,90.2184069 32.3838266,95.7718269 C33.1064668,98.6434319 31.3444447,102.199931 28.4984621,103.615104 C27.2690352,104.227796 25.8612945,104.000873 25.0682672,103.062238 C24.3104334,102.168987 24.4910935,100.803325 25.476512,99.965773 C27.7852068,97.9977334 28.0315614,96.5000428 26.2859629,95.0539257 C24.3526656,93.4530884 21.3424467,93.7253958 19.6625427,95.6501138 C18.0882193,97.4551816 17.0863772,97.5480136 15.0592305,96.0771412 C13.534178,94.9714083 11.9551621,95.2148346 10.8946641,96.8342383" id="Fill-4" fill="#676767"></path>
                            <g id="Group-8" transform="translate(64.453947, 91.920862)">
                                <mask id="mask-4" fill="white">
                                    <use xlink:href="#path-3"></use>
                                </mask>
                                <g id="Clip-7"></g>
                                <path d="M21.3850643,10.7638501 C22.0812994,9.24218716 21.6036235,7.51763586 20.1458107,6.29202438 C18.6316682,5.01672594 16.2004781,4.7227448 14.4384849,5.69164037 C13.7895666,6.04773019 13.255561,6.58600551 12.6967703,7.068383 C11.5859485,8.02485683 10.2069973,8.1511445 9.1322265,7.16775691 C7.39727154,5.57570415 5.41221269,5.15336506 3.08466922,5.5446498 C1.59981815,5.79308456 0.488996341,5.0850455 0.151018102,3.85529343 C-0.162175066,2.71456382 0.615174884,1.52828784 2.0121516,1.12251106 C4.64387549,0.358574171 7.17871228,0.743648051 9.57610459,1.88644795 C10.3872524,2.27152183 10.9595622,2.33363052 11.7864823,1.8760965 C15.4434068,-0.146576509 19.1431419,-0.0306402872 22.5724945,2.26531096 C26.0694426,4.60473829 27.2568729,7.87372569 26.3961549,11.8362601 C26.2834955,12.3455514 26.57641,13.1136289 26.970718,13.5090542 C30.179258,16.7345655 31.3509159,20.4217514 29.5934291,24.5685416 C27.9080443,28.5497087 24.5936043,30.7297237 19.9768216,31.0402671 C18.0683711,31.1665548 17.0093727,30.4253911 16.8922069,29.0134535 C16.7682815,27.4917906 17.707861,26.6409016 19.6658816,26.5042625 C23.1222724,26.257898 25.8125792,23.4609366 25.4610818,20.4693681 C25.0825462,17.2500676 21.8807657,14.9127106 18.4153621,15.3246982 C16.6083051,15.5420786 15.326241,14.7408765 15.1662647,13.2999549 C15.0198074,11.999813 16.1892121,10.8694348 17.8791033,10.7762718 C19.0440017,10.7120928 20.2156595,10.7638501 21.3850643,10.7638501" id="Fill-6" fill="#676767" mask="url(#mask-4)"></path>
                            </g>
                            <path d="M48.3772411,102.520557 C54.2365795,98.7009939 57.5674757,93.9589002 56.57984,87.4128384 C56.34955,85.8841912 57.1757452,84.7151049 58.626335,84.5096416 C60.3380785,84.2692495 61.5678748,85.0685018 61.7578048,86.821104 C62.3869477,92.6788636 61.0194522,98.033238 56.2237214,102.403443 C54.4288836,104.036877 52.5224619,105.575797 50.6374073,107.131154 C49.0894784,108.405027 47.8454373,108.378317 46.2737672,107.069515 C44.6688592,105.734004 43.0924408,104.375891 41.489907,103.042434 C36.1742431,98.6167539 34.604947,93.0589708 35.2269676,86.8704152 C35.4050269,85.1116491 36.5968372,84.2980143 38.3180772,84.5096416 C39.8588837,84.6986678 40.5734951,85.8472078 40.3811911,87.5032423 C39.8303943,92.2206804 41.1171695,96.4162416 45.1246911,99.7858403 C46.2072917,100.696043 47.2898923,101.6083 48.3772411,102.520557" id="Fill-9" fill="#676767"></path>
                            <path d="M73.3865951,112.796231 C73.4253723,114.484031 72.7424624,115.39097 71.3464825,115.508913 C69.8277082,115.634989 68.978918,114.862261 68.7699518,113.154126 C68.3929511,110.063214 65.8638148,108.432352 62.5526712,109.144075 C60.7236791,109.536539 59.3815565,108.682472 59.3492422,107.102446 C59.3276993,105.971824 59.9309004,105.292636 61.0015825,104.885937 C66.548879,102.785338 73.2573377,107.061777 73.3865951,112.796231" id="Fill-11" fill="#676767"></path>
                            <path d="M26.0900926,118.002349 C21.0532265,117.998086 16.9750682,114.27888 17.2427278,109.918138 C17.3157259,108.709662 17.6004183,107.543814 19.0457799,107.021633 C21.021594,106.309762 22.7370484,107.624805 22.6567506,109.749761 C22.5715862,112.083589 24.0802127,113.422077 26.6886767,113.321904 C28.7447887,113.245175 29.9687229,114.080664 29.9930556,115.579004 C30.0173882,116.983563 28.8250866,117.92562 26.9149707,118.000217 C26.6424446,118.013005 26.365052,118.002349 26.0900926,118.002349" id="Fill-13" fill="#676767"></path>
                            <path d="M38.4409135,106.826947 C39.8896103,107.333069 41.4387642,107.716742 42.7632115,108.375925 C44.1722543,109.077965 44.3652376,110.304495 43.5562937,111.353473 C42.800222,112.333064 41.1849779,112.74735 39.7732916,112.141228 C38.3140203,111.514698 37.4125502,111.502453 36.741074,112.894288 C36.1700548,114.082042 34.5680287,114.537144 33.1827784,114.139185 C31.6917839,113.710614 30.9832971,112.580003 31.3771946,111.2698 C32.0698197,108.955517 35.1020374,107.124906 38.4409135,106.826947" id="Fill-15" fill="#676767"></path>
                        </g>
                    </g>
                </g>
            </g>
        </g>
    </g>
</svg>