<?xml version="1.0" encoding="UTF-8"?>
<svg width="111px" height="120px" viewBox="0 0 111 120" version="1.1" xmlns="http://www.w3.org/2000/svg" xmlns:xlink="http://www.w3.org/1999/xlink">
    <!-- Generator: Sketch 52.6 (67491) - http://www.bohemiancoding.com/sketch -->
    <title>Group 65</title>
    <desc>Created with Sketch.</desc>
    <g id="Welcome" stroke="none" stroke-width="1" fill="none" fill-rule="evenodd">
        <g id="Accelerator" transform="translate(-307.000000, -6832.000000)">
            <g id="Group-24" transform="translate(265.000000, 6793.000000)">
                <g id="Group-65" transform="translate(43.000000, 39.000000)">
                    <path d="M56.763005,112.451939 C54.8904131,112.451939 53.0013408,112.409612 51.1184486,112.49215 C50.7682389,112.504848 50.4386297,113.010654 50.1007804,113.290011 C50.4406898,113.620161 50.7599986,114.210621 51.1225687,114.238133 C52.6037497,114.350299 54.1014112,114.2339 55.5887725,114.312205 C56.9278096,114.382044 57.1976771,113.804283 56.763005,112.451939 Z M50.5086717,101.438487 L34.6853732,101.438487 C35.1653665,103.123096 35.5835581,104.530465 35.9626086,105.950531 C36.2242358,106.926166 37.1038802,107.569534 38.0865274,107.527207 C41.0715501,107.400227 44.062753,107.402343 47.0539559,107.408692 C54.274456,107.42139 61.4949561,107.474299 68.7175163,107.472182 C69.284032,107.472182 70.1204152,107.353667 70.3635019,106.972725 C70.9732788,106.016138 71.6675181,104.89236 71.7045991,103.810908 C71.8570433,99.5930351 71.7684609,95.3645805 71.7684609,91.0239597 L35.1694866,91.0239597 L35.1694866,96.5222205 L50.5086717,96.5222205 L50.5086717,101.438487 Z M53.260908,85.8431504 L53.260908,85.8537321 L57.9042766,85.8537321 L62.7021496,85.8537321 C66.8861256,85.8558485 66.9438072,85.8537321 66.8552247,81.5342748 C66.8263839,80.1036265 67.2569358,79.2782524 68.4435287,78.4740419 C77.9033109,72.0657533 82.4848779,60.9507165 80.3547788,50.0155689 C76.4736313,30.1007752 55.5867124,21.859733 39.3143214,31.6097282 C32.40695,35.74718 28.0478692,43.2030587 26.8942372,51.3319346 C25.4521973,61.5221293 28.5567033,70.3155371 36.4858631,76.8571553 C39.0774149,78.9946624 40.6409982,80.9501639 39.9900202,84.3765243 C39.7572337,85.6061199 40.3958514,85.8791283 41.4959219,85.8643139 C45.4162105,85.8071726 49.3385593,85.8431504 53.260908,85.8431504 Z M76.6116551,85.8368014 C76.6116551,92.2323919 76.9206636,98.3528577 76.465391,104.41195 C76.2717457,107.000238 74.5227572,109.47636 73.3753054,111.952482 C73.2455218,112.233956 72.4544599,112.286864 71.9682864,112.291097 C69.0100444,112.320726 66.0518024,112.333424 63.0956205,112.280515 C62.2860181,112.265701 61.6906616,112.926 61.7277426,113.755607 C61.8019047,115.493125 61.7462831,117.236992 61.7462831,119.090909 L45.3873697,119.090909 C45.3873697,117.317413 45.325568,115.582011 45.4079703,113.855075 C45.4491715,112.959862 44.818794,112.259352 43.9473898,112.278399 C41.0324091,112.337657 38.1153682,112.265701 35.2003874,112.320726 C34.2754218,112.339773 33.3895972,111.863596 32.9446249,111.029756 C30.8722075,107.127218 29.8978005,103.072304 30.1903286,98.5708411 C30.4601961,94.4164585 30.2480102,90.2239818 30.2480102,85.8473831 C31.6426688,85.8473831 32.876643,85.9383859 34.0858965,85.7965909 C34.5967907,85.7373332 35.0747239,85.2082473 35.1715466,84.6897431 C35.4599546,83.1151835 34.93052,81.9723579 33.6203236,80.8168343 C25.1637893,73.3546066 21.0601556,63.8479909 21.9624606,52.3816411 C23.095492,37.9545264 34.57001,25.4659826 48.4877557,23.1464699 C65.9117186,20.2407301 82.7526853,32.7631355 85.195913,50.7266603 C86.8666193,62.9951044 82.381875,72.956734 73.2970232,80.8041362 C71.9291453,81.9871723 71.5006534,83.1321142 71.6510376,84.8378872 C71.700479,85.4177654 72.1742921,85.8600812 72.7387478,85.8452668 C73.9665418,85.8135216 75.1943358,85.8368014 76.6116551,85.8368014 Z" id="Fill-1" fill="#676767"></path>
                    <path d="M48.9383996,68.1818182 C45.5068684,64.7434085 41.9174911,61.1492972 38.22,57.4427348 L41.9239779,54.3222158 L49.0313775,61.5839641 L65.8776658,44.5454545 L69.16,47.9687266 C62.4158627,54.7093072 55.6609141,61.4628628 48.9383996,68.1818182" id="Fill-3" fill="#676767"></path>
                    <path d="M109.2,55.8568029 C108.688631,56.9429483 107.861144,57.3017814 106.698943,57.270914 C103.963585,57.2014624 101.224509,57.2574095 98.4854328,57.2516219 C97.1800482,57.2496927 96.4399583,56.5609646 96.4604131,55.3976509 C96.4827273,54.2844966 97.1967839,53.6632909 98.4910114,53.6594324 C101.228228,53.655574 103.967304,53.7076627 106.702662,53.6382111 C107.864863,53.6073438 108.696069,53.95846 109.2,55.0542514 L109.2,55.8568029 Z" id="Fill-5" fill="#676767"></path>
                    <path d="M109.2,55.8568029 C108.688631,56.9429483 107.861144,57.3017814 106.698943,57.270914 C103.963585,57.2014624 101.224509,57.2574095 98.4854328,57.2516219 C97.1800482,57.2496927 96.4399583,56.5609646 96.4604131,55.3976509 C96.4827273,54.2844966 97.1967839,53.6632909 98.4910114,53.6594324 C101.228228,53.655574 103.967304,53.7076627 106.702662,53.6382111 C107.864863,53.6073438 108.696069,53.95846 109.2,55.0542514 L109.2,55.8568029 Z" id="Stroke-7" stroke="#676767" stroke-width="0.5"></path>
                    <path d="M54.9953338,0.909090909 C56.0971162,1.48343292 56.4456589,2.43713737 56.41855,3.75536886 C56.3527142,6.98312858 56.3933775,10.2130077 56.3933775,13.4407674 C56.3914412,14.4093072 55.9344629,15.0726617 55.1328146,15.3460569 C54.3331026,15.6194522 53.5759903,15.3820858 53.1112666,14.5661386 C52.9137591,14.216447 52.8072599,13.7459528 52.8033872,13.3263228 C52.780151,9.9162996 52.813069,6.50415701 52.780151,3.08989508 C52.7685329,1.93909171 53.4288278,1.40925591 54.1898128,0.909090909 L54.9953338,0.909090909 Z" id="Fill-9" fill="#676767"></path>
                    <path d="M54.9953338,0.909090909 C56.0971162,1.48343292 56.4456589,2.43713737 56.41855,3.75536886 C56.3527142,6.98312858 56.3933775,10.2130077 56.3933775,13.4407674 C56.3914412,14.4093072 55.9344629,15.0726617 55.1328146,15.3460569 C54.3331026,15.6194522 53.5759903,15.3820858 53.1112666,14.5661386 C52.9137591,14.216447 52.8072599,13.7459528 52.8033872,13.3263228 C52.780151,9.9162996 52.813069,6.50415701 52.780151,3.08989508 C52.7685329,1.93909171 53.4288278,1.40925591 54.1898128,0.909090909 L54.9953338,0.909090909 Z" id="Stroke-11" stroke="#676767" stroke-width="0.5"></path>
                    <path d="M0,55.0659025 C0.507480815,53.9673517 1.34454327,53.6089181 2.51118735,53.6379802 C5.36319208,53.705792 8.21894205,53.616668 11.0690741,53.7135419 C11.6027717,53.7329167 12.3199863,54.2017867 12.5877713,54.6822816 C12.833085,55.1220894 12.7656705,55.9687678 12.5016307,56.4298879 C12.2581897,56.8541959 11.5709371,57.2223169 11.0728194,57.2339418 C7.9942273,57.3036911 4.91376257,57.2513791 1.83329785,57.2726914 C0.853916057,57.2785038 0.440066389,56.5771363 0,55.8718939 L0,55.0659025 Z" id="Fill-13" fill="#676767"></path>
                    <path d="M0,55.0659025 C0.507480815,53.9673517 1.34454327,53.6089181 2.51118735,53.6379802 C5.36319208,53.705792 8.21894205,53.616668 11.0690741,53.7135419 C11.6027717,53.7329167 12.3199863,54.2017867 12.5877713,54.6822816 C12.833085,55.1220894 12.7656705,55.9687678 12.5016307,56.4298879 C12.2581897,56.8541959 11.5709371,57.2223169 11.0728194,57.2339418 C7.9942273,57.3036911 4.91376257,57.2513791 1.83329785,57.2726914 C0.853916057,57.2785038 0.440066389,56.5771363 0,55.8718939 L0,55.0659025 Z" id="Stroke-15" stroke="#676767" stroke-width="0.5"></path>
                    <path d="M103.738189,28.7450957 C103.521541,29.0201338 103.216171,29.7003805 102.69828,30.017409 C99.8323382,31.778912 96.9271939,33.4732302 94.011733,35.1486526 C92.9408736,35.763814 91.7854185,35.4152925 91.2489572,34.4243158 C90.7290024,33.4627325 91.0323094,32.3457843 92.0763456,31.7222248 C94.9319704,30.01321 97.7958485,28.3209913 100.684486,26.6728628 C102.159755,25.828853 103.802152,26.7757396 103.738189,28.7450957" id="Fill-17" fill="#676767"></path>
                    <path d="M103.738189,28.7450957 C103.521541,29.0201338 103.216171,29.7003805 102.69828,30.017409 C99.8323382,31.778912 96.9271939,33.4732302 94.011733,35.1486526 C92.9408736,35.763814 91.7854185,35.4152925 91.2489572,34.4243158 C90.7290024,33.4627325 91.0323094,32.3457843 92.0763456,31.7222248 C94.9319704,30.01321 97.7958485,28.3209913 100.684486,26.6728628 C102.159755,25.828853 103.802152,26.7757396 103.738189,28.7450957 Z" id="Stroke-19" stroke="#676767" stroke-width="0.5"></path>
                    <path d="M78.818215,20.9090909 C76.9112299,20.9090909 75.9608911,19.3583541 76.6799528,18.0012019 C77.3464514,16.7408421 78.109666,15.5278488 78.8350352,14.2963207 C79.7979891,12.6652668 80.7525329,11.0300941 81.7344094,9.4093373 C82.4534711,8.2231163 83.5215509,7.87919458 84.5665031,8.45377038 C85.5609948,9.00157383 85.8448349,10.2001513 85.1783362,11.3431247 C83.5467812,14.1542213 81.9173286,16.9694368 80.2016728,19.733167 C79.846347,20.3036239 79.1251828,20.6578427 78.818215,20.9090909" id="Fill-21" fill="#676767"></path>
                    <path d="M78.818215,20.9090909 C76.9112299,20.9090909 75.9608911,19.3583541 76.6799528,18.0012019 C77.3464514,16.7408421 78.109666,15.5278488 78.8350352,14.2963207 C79.7979891,12.6652668 80.7525329,11.0300941 81.7344094,9.4093373 C82.4534711,8.2231163 83.5215509,7.87919458 84.5665031,8.45377038 C85.5609948,9.00157383 85.8448349,10.2001513 85.1783362,11.3431247 C83.5467812,14.1542213 81.9173286,16.9694368 80.2016728,19.733167 C79.846347,20.3036239 79.1251828,20.6578427 78.818215,20.9090909 Z" id="Stroke-23" stroke="#676767" stroke-width="0.5"></path>
                    <path d="M17.9385706,35.4545455 C17.6393321,35.3335968 17.2183344,35.2230748 16.8530571,35.010372 C14.0608521,33.400504 11.2727745,31.7781241 8.49707921,30.1390617 C7.30837996,29.4342231 6.9740583,28.349856 7.56634421,27.3113661 C8.13180184,26.3229238 9.30605508,26.0664293 10.4741172,26.7379027 C13.2993416,28.3665386 16.1121837,30.0139424 18.9229622,31.6655168 C19.7814672,32.1701645 20.208656,32.9167095 19.9403732,33.9343463 C19.6886,34.8894234 18.9910647,35.3273409 17.9385706,35.4545455" id="Fill-25" fill="#676767"></path>
                    <path d="M17.9385706,35.4545455 C17.6393321,35.3335968 17.2183344,35.2230748 16.8530571,35.010372 C14.0608521,33.400504 11.2727745,31.7781241 8.49707921,30.1390617 C7.30837996,29.4342231 6.9740583,28.349856 7.56634421,27.3113661 C8.13180184,26.3229238 9.30605508,26.0664293 10.4741172,26.7379027 C13.2993416,28.3665386 16.1121837,30.0139424 18.9229622,31.6655168 C19.7814672,32.1701645 20.208656,32.9167095 19.9403732,33.9343463 C19.6886,34.8894234 18.9910647,35.3273409 17.9385706,35.4545455 Z" id="Stroke-27" stroke="#676767" stroke-width="0.5"></path>
                    <path d="M29.614958,8.18181818 C29.9162253,8.41237392 30.6388454,8.72732952 30.9759277,9.26872379 C32.7329692,12.1012657 34.4120603,14.9852709 36.0764042,17.8713346 C36.7084335,18.9644158 36.3797782,20.1069018 35.3938125,20.6482961 C34.3867792,21.1979245 33.2807279,20.8685592 32.6128836,19.7569512 C30.938006,16.9594044 29.2673418,14.1536234 27.6367062,11.3313742 C26.7708261,9.83687899 27.6261724,8.19828645 29.614958,8.18181818" id="Fill-29" fill="#676767"></path>
                    <path d="M29.614958,8.18181818 C29.9162253,8.41237392 30.6388454,8.72732952 30.9759277,9.26872379 C32.7329692,12.1012657 34.4120603,14.9852709 36.0764042,17.8713346 C36.7084335,18.9644158 36.3797782,20.1069018 35.3938125,20.6482961 C34.3867792,21.1979245 33.2807279,20.8685592 32.6128836,19.7569512 C30.938006,16.9594044 29.2673418,14.1536234 27.6367062,11.3313742 C26.7708261,9.83687899 27.6261724,8.19828645 29.614958,8.18181818 Z" id="Stroke-31" stroke="#676767" stroke-width="0.5"></path>
                    <path d="M27.3,24.8463113 C26.940816,25.3187102 26.6538392,26.0456262 26.1724586,26.2345858 C25.6373856,26.4447551 24.7264655,26.4081201 24.3265493,26.0514107 C22.9601692,24.8482394 21.7159856,23.4869591 20.4884651,22.1237507 C19.7978692,21.3544152 19.9015512,20.2900714 20.5977015,19.6094313 C21.2660799,18.9557853 22.2380983,18.8902279 22.9472089,19.5843652 C24.2302732,20.8434531 25.467051,22.1546012 26.6816111,23.4869591 C26.944519,23.7742548 27.0315378,24.2389412 27.3,24.8463113" id="Fill-33" fill="#676767"></path>
                    <path d="M27.3,24.8463113 C26.940816,25.3187102 26.6538392,26.0456262 26.1724586,26.2345858 C25.6373856,26.4447551 24.7264655,26.4081201 24.3265493,26.0514107 C22.9601692,24.8482394 21.7159856,23.4869591 20.4884651,22.1237507 C19.7978692,21.3544152 19.9015512,20.2900714 20.5977015,19.6094313 C21.2660799,18.9557853 22.2380983,18.8902279 22.9472089,19.5843652 C24.2302732,20.8434531 25.467051,22.1546012 26.6816111,23.4869591 C26.944519,23.7742548 27.0315378,24.2389412 27.3,24.8463113 Z" id="Stroke-35" stroke="#676767" stroke-width="0.5"></path>
                    <path d="M91,20.775756 C90.6719834,21.3796416 90.5061323,21.8986057 90.1781157,22.2552756 C89.0613851,23.4687081 87.9041131,24.6425106 86.7320988,25.7974417 C85.9765549,26.5409757 84.9132652,26.5409757 84.2388041,25.8634916 C83.5625003,25.1878947 83.5311728,24.0631579 84.2406469,23.308301 C85.4108185,22.0590128 86.6141602,20.8380317 87.8304015,19.6359221 C88.3832384,19.0886508 89.1056121,18.8867266 89.7561169,19.3434151 C90.237085,19.6831007 90.5632588,20.2567919 91,20.775756" id="Fill-37" fill="#676767"></path>
                    <path d="M91,20.775756 C90.6719834,21.3796416 90.5061323,21.8986057 90.1781157,22.2552756 C89.0613851,23.4687081 87.9041131,24.6425106 86.7320988,25.7974417 C85.9765549,26.5409757 84.9132652,26.5409757 84.2388041,25.8634916 C83.5625003,25.1878947 83.5311728,24.0631579 84.2406469,23.308301 C85.4108185,22.0590128 86.6141602,20.8380317 87.8304015,19.6359221 C88.3832384,19.0886508 89.1056121,18.8867266 89.7561169,19.3434151 C90.237085,19.6831007 90.5632588,20.2567919 91,20.775756 Z" id="Stroke-39" stroke="#676767" stroke-width="0.5"></path>
                    <path d="M101.654553,40.9090909 C102.721394,41.0147353 103.380677,41.4663132 103.658375,42.3881121 C103.922088,43.2643389 103.53451,44.3394257 102.673446,44.6232155 C100.675617,45.2777963 98.6438261,45.841233 96.6020456,46.33424 C95.7989186,46.5289571 94.8859111,45.7252313 94.7001131,44.8427901 C94.5023281,43.8982051 94.7860197,42.9950493 95.6490815,42.6926164 C97.6668881,41.9883206 99.7426316,41.4663132 101.654553,40.9090909" id="Fill-41" fill="#676767"></path>
                    <path d="M101.654553,40.9090909 C102.721394,41.0147353 103.380677,41.4663132 103.658375,42.3881121 C103.922088,43.2643389 103.53451,44.3394257 102.673446,44.6232155 C100.675617,45.2777963 98.6438261,45.841233 96.6020456,46.33424 C95.7989186,46.5289571 94.8859111,45.7252313 94.7001131,44.8427901 C94.5023281,43.8982051 94.7860197,42.9950493 95.6490815,42.6926164 C97.6668881,41.9883206 99.7426316,41.4663132 101.654553,40.9090909 Z" id="Stroke-43" stroke="#676767" stroke-width="0.5"></path>
                    <path d="M69.16,10.1892917 C68.7346567,11.7322291 68.2717831,13.4332625 67.8005695,15.1302935 C67.6984037,15.4945148 67.606663,15.8747458 67.4356917,16.21095 C66.9957533,17.0774765 65.9720104,17.4777197 65.0754535,17.1695324 C64.0934109,16.8313269 63.5075214,15.9107677 63.7577233,14.958189 C64.228937,13.1530923 64.7251708,11.3519981 65.26519,9.56491236 C65.5737723,8.5442923 66.4724143,8.049992 67.5107523,8.21209048 C68.4052242,8.35017437 69.1349798,9.15266191 69.16,10.1892917" id="Fill-45" fill="#676767"></path>
                    <path d="M69.16,10.1892917 C68.7346567,11.7322291 68.2717831,13.4332625 67.8005695,15.1302935 C67.6984037,15.4945148 67.606663,15.8747458 67.4356917,16.21095 C66.9957533,17.0774765 65.9720104,17.4777197 65.0754535,17.1695324 C64.0934109,16.8313269 63.5075214,15.9107677 63.7577233,14.958189 C64.228937,13.1530923 64.7251708,11.3519981 65.26519,9.56491236 C65.5737723,8.5442923 66.4724143,8.049992 67.5107523,8.21209048 C68.4052242,8.35017437 69.1349798,9.15266191 69.16,10.1892917 Z" id="Stroke-47" stroke="#676767" stroke-width="0.5"></path>
                    <path d="M9.36303761,71.8181818 C8.24601377,71.6817982 7.59058655,71.2271863 7.34879785,70.2869662 C7.11100565,69.3674103 7.49866688,68.3651977 8.37190376,68.0820985 C10.3421819,67.4435754 12.3384374,66.8856426 14.3466824,66.3959015 C15.1579735,66.1975254 16.0711754,66.9435023 16.2969781,67.8217298 C16.5387668,68.7640163 16.2550148,69.6897715 15.4117517,69.9914685 C13.3695364,70.7250468 11.2593804,71.2581826 9.36303761,71.8181818" id="Fill-49" fill="#676767"></path>
                    <path d="M9.36303761,71.8181818 C8.24601377,71.6817982 7.59058655,71.2271863 7.34879785,70.2869662 C7.11100565,69.3674103 7.49866688,68.3651977 8.37190376,68.0820985 C10.3421819,67.4435754 12.3384374,66.8856426 14.3466824,66.3959015 C15.1579735,66.1975254 16.0711754,66.9435023 16.2969781,67.8217298 C16.5387668,68.7640163 16.2550148,69.6897715 15.4117517,69.9914685 C13.3695364,70.7250468 11.2593804,71.2581826 9.36303761,71.8181818 Z" id="Stroke-51" stroke="#676767" stroke-width="0.5"></path>
                    <path d="M47.3199953,15.0783227 C47.3220851,16.2257962 46.6220239,17.0834028 45.7276173,17.233334 C44.768429,17.3932607 43.8844711,17.0694092 43.5939979,16.2038063 C42.923193,14.2087216 42.3359775,12.1796525 41.8929537,10.1265943 C41.7048775,9.25899234 42.3422467,8.52332984 43.2847171,8.27344447 C44.20838,8.02955636 45.1842862,8.25945089 45.4956567,9.12105562 C46.2396024,11.1621193 46.7808437,13.2711517 47.3199953,15.0783227" id="Fill-53" fill="#676767"></path>
                    <path d="M47.3199953,15.0783227 C47.3220851,16.2257962 46.6220239,17.0834028 45.7276173,17.233334 C44.768429,17.3932607 43.8844711,17.0694092 43.5939979,16.2038063 C42.923193,14.2087216 42.3359775,12.1796525 41.8929537,10.1265943 C41.7048775,9.25899234 42.3422467,8.52332984 43.2847171,8.27344447 C44.20838,8.02955636 45.1842862,8.25945089 45.4956567,9.12105562 C46.2396024,11.1621193 46.7808437,13.2711517 47.3199953,15.0783227 Z" id="Stroke-55" stroke="#676767" stroke-width="0.5"></path>
                    <path d="M16.38,44.2502528 C16.3719922,45.614049 15.2709194,46.6005353 14.1278057,46.3138641 C12.3180425,45.8564548 10.518289,45.3484566 8.72854523,44.810948 C7.63948417,44.4821193 7.08694583,43.4387203 7.34119354,42.3573796 C7.5894354,41.3055492 8.57239309,40.694265 9.68347562,40.9788283 C11.4251725,41.4256981 13.1608636,41.8999704 14.8865449,42.4058608 C15.8114461,42.6777769 16.3279493,43.358621 16.38,44.2502528" id="Fill-57" fill="#676767"></path>
                    <path d="M16.38,44.2502528 C16.3719922,45.614049 15.2709194,46.6005353 14.1278057,46.3138641 C12.3180425,45.8564548 10.518289,45.3484566 8.72854523,44.810948 C7.63948417,44.4821193 7.08694583,43.4387203 7.34119354,42.3573796 C7.5894354,41.3055492 8.57239309,40.694265 9.68347562,40.9788283 C11.4251725,41.4256981 13.1608636,41.8999704 14.8865449,42.4058608 C15.8114461,42.6777769 16.3279493,43.358621 16.38,44.2502528 Z" id="Stroke-59" stroke="#676767" stroke-width="0.5"></path>
                    <path d="M96.6327189,66.3636364 C96.9546836,66.4519528 97.3866363,66.5655026 97.8205888,66.6832579 C99.2524319,67.0827848 100.688275,67.4633867 102.114118,67.8839414 C103.331985,68.2414128 103.959916,69.2885938 103.669948,70.4156802 C103.395978,71.4901973 102.404087,72.0432267 101.202218,71.7320162 C99.4984049,71.2883311 97.7985912,70.8236182 96.1087763,70.3210555 C95.0928876,70.0182561 94.5269496,69.0951387 94.6589351,68.1068353 C94.7869211,67.1605874 95.6148304,66.3846641 96.6327189,66.3636364" id="Fill-61" fill="#676767"></path>
                    <path d="M96.6327189,66.3636364 C96.9546836,66.4519528 97.3866363,66.5655026 97.8205888,66.6832579 C99.2524319,67.0827848 100.688275,67.4633867 102.114118,67.8839414 C103.331985,68.2414128 103.959916,69.2885938 103.669948,70.4156802 C103.395978,71.4901973 102.404087,72.0432267 101.202218,71.7320162 C99.4984049,71.2883311 97.7985912,70.8236182 96.1087763,70.3210555 C95.0928876,70.0182561 94.5269496,69.0951387 94.6589351,68.1068353 C94.7869211,67.1605874 95.6148304,66.3846641 96.6327189,66.3636364 Z" id="Stroke-63" stroke="#676767" stroke-width="0.5"></path>
                </g>
            </g>
        </g>
    </g>
</svg>