<?xml version="1.0" encoding="UTF-8"?>
<svg width="119px" height="120px" viewBox="0 0 119 120" version="1.1" xmlns="http://www.w3.org/2000/svg" xmlns:xlink="http://www.w3.org/1999/xlink">
    <!-- Generator: Sketch 52.6 (67491) - http://www.bohemiancoding.com/sketch -->
    <title>Group 101</title>
    <desc>Created with Sketch.</desc>
    <g id="Welcome" stroke="none" stroke-width="1" fill="none" fill-rule="evenodd">
        <g id="Accelerator" transform="translate(-590.000000, -6515.000000)">
            <g id="Group-22" transform="translate(556.000000, 6481.000000)">
                <g id="Group-101" transform="translate(34.000000, 34.000000)">
                    <path d="M82.4324778,74.2660842 C82.1632509,74.1530797 81.952177,74.082175 81.7583337,73.9802494 C74.2802872,70.1203724 66.8065484,66.2560638 59.3263481,62.4028341 C58.9451228,62.2056303 58.7555871,61.9907003 58.7642023,61.5098775 C58.7965096,59.66857 58.7878943,57.8250466 58.76851,55.983739 C58.7642023,55.5605263 58.8718931,55.3190071 59.2638875,55.1173717 C66.7828564,51.2442 74.2953639,47.355518 81.8078714,43.4734832 C81.975869,43.3848523 82.1524819,43.3205949 82.4324778,43.1987274 L82.4324778,74.2660842 Z M58.8245092,87.8554215 L58.8245092,65.0396043 C66.1690191,68.8374397 73.455376,72.5998227 80.9011152,76.446405 C73.4639912,80.2907716 66.1884034,84.0487231 58.8245092,87.8554215 Z M58.1159039,52.8240464 C57.6980638,53.0434079 57.3749915,53.0633499 56.9399208,52.8351252 C49.5846418,49.0129164 42.2185938,45.2106495 34.8568533,41.403951 C34.6694714,41.306457 34.4863971,41.2023156 34.1654786,41.0250538 C36.200834,39.9725615 38.1004991,38.9931897 40.0023179,38.0093864 C45.6517752,35.0867815 51.3033864,32.1708239 56.9485361,29.2371401 C57.3491457,29.0288574 57.6636028,29.0111312 58.0706738,29.2238454 C65.4281066,33.0438385 72.7920009,36.8461054 80.1558951,40.6550197 C80.3583538,40.759161 80.554351,40.8743812 80.8494237,41.0361327 C80.5478895,41.2023156 80.3497385,41.3197516 80.1451261,41.4261087 C72.8006162,45.2239441 65.4561062,49.0173479 58.1159039,52.8240464 Z M56.2722381,61.4699936 C56.2765457,61.9175798 56.1559321,62.1723937 55.7467072,62.3828922 C48.2277383,66.2538481 40.7152307,70.1403144 33.2005694,74.0201333 C33.0368795,74.1065485 32.8581128,74.1619428 32.6190393,74.2594368 L32.6190393,43.2098062 C32.8947277,43.3338895 33.1058016,43.4136574 33.3039526,43.5155829 C40.781999,47.3798915 48.253584,51.2464158 55.7359381,55.0996455 C56.1430092,55.3079282 56.2765457,55.5516632 56.2722381,56.0081125 C56.2485461,57.8272624 56.2485461,59.6464122 56.2722381,61.4699936 Z M56.2227004,87.8598531 C48.8609599,84.0553704 41.574603,80.2907716 34.137479,76.446405 C41.5638339,72.6109015 48.8501909,68.844087 56.2227004,65.032957 L56.2227004,87.8598531 Z M84.9912103,68.9548757 C84.9912103,59.8037321 84.9890565,50.6548044 84.995518,41.5058766 C84.995518,40.7170613 84.8016746,40.1365287 84.0478393,39.7487684 C75.4778085,35.3393796 66.916393,30.9122647 58.3592851,26.4785024 C57.7712935,26.1727257 57.252224,26.1749414 56.6642325,26.4785024 C48.219123,30.8524388 39.7697059,35.2175121 31.3159811,39.5737223 C30.7473739,39.8684202 30.256304,40.2030019 30,40.8212026 L30,76.6413931 C30.3230723,76.9959168 30.5793763,77.4833869 30.9756783,77.6916696 C39.5629396,82.1631 48.1652776,86.6035096 56.7654618,91.0527823 C57.2780698,91.3186751 57.7712935,91.3142436 58.290363,91.0483508 C66.8496247,86.61902 75.4110402,82.1896893 83.9789172,77.7780848 C84.6982915,77.4080506 85.0084408,76.8851281 84.9998256,76.0630763 C84.9761336,73.6921989 84.9912103,71.3235373 84.9912103,68.9548757 Z" id="Fill-1" stroke="#676767" fill="#676767"></path>
                    <path d="M82.4324778,74.2660842 C82.1632509,74.1530797 81.952177,74.082175 81.7583337,73.9802494 C74.2802872,70.1203724 66.8065484,66.2560638 59.3263481,62.4028341 C58.9451228,62.2056303 58.7555871,61.9907003 58.7642023,61.5098775 C58.7965096,59.66857 58.7878943,57.8250466 58.76851,55.983739 C58.7642023,55.5605263 58.8718931,55.3190071 59.2638875,55.1173717 C66.7828564,51.2442 74.2953639,47.355518 81.8078714,43.4734832 C81.975869,43.3848523 82.1524819,43.3205949 82.4324778,43.1987274 L82.4324778,74.2660842 Z M58.8245092,87.8554215 L58.8245092,65.0396043 C66.1690191,68.8374397 73.455376,72.5998227 80.9011152,76.446405 C73.4639912,80.2907716 66.1884034,84.0487231 58.8245092,87.8554215 Z M58.1159039,52.8240464 C57.6980638,53.0434079 57.3749915,53.0633499 56.9399208,52.8351252 C49.5846418,49.0129164 42.2185938,45.2106495 34.8568533,41.403951 C34.6694714,41.306457 34.4863971,41.2023156 34.1654786,41.0250538 C36.200834,39.9725615 38.1004991,38.9931897 40.0023179,38.0093864 C45.6517752,35.0867815 51.3033864,32.1708239 56.9485361,29.2371401 C57.3491457,29.0288574 57.6636028,29.0111312 58.0706738,29.2238454 C65.4281066,33.0438385 72.7920009,36.8461054 80.1558951,40.6550197 C80.3583538,40.759161 80.554351,40.8743812 80.8494237,41.0361327 C80.5478895,41.2023156 80.3497385,41.3197516 80.1451261,41.4261087 C72.8006162,45.2239441 65.4561062,49.0173479 58.1159039,52.8240464 Z M56.2722381,61.4699936 C56.2765457,61.9175798 56.1559321,62.1723937 55.7467072,62.3828922 C48.2277383,66.2538481 40.7152307,70.1403144 33.2005694,74.0201333 C33.0368795,74.1065485 32.8581128,74.1619428 32.6190393,74.2594368 L32.6190393,43.2098062 C32.8947277,43.3338895 33.1058016,43.4136574 33.3039526,43.5155829 C40.781999,47.3798915 48.253584,51.2464158 55.7359381,55.0996455 C56.1430092,55.3079282 56.2765457,55.5516632 56.2722381,56.0081125 C56.2485461,57.8272624 56.2485461,59.6464122 56.2722381,61.4699936 Z M56.2227004,87.8598531 C48.8609599,84.0553704 41.574603,80.2907716 34.137479,76.446405 C41.5638339,72.6109015 48.8501909,68.844087 56.2227004,65.032957 L56.2227004,87.8598531 Z M84.9912103,68.9548757 C84.9912103,59.8037321 84.9890565,50.6548044 84.995518,41.5058766 C84.995518,40.7170613 84.8016746,40.1365287 84.0478393,39.7487684 C75.4778085,35.3393796 66.916393,30.9122647 58.3592851,26.4785024 C57.7712935,26.1727257 57.252224,26.1749414 56.6642325,26.4785024 C48.219123,30.8524388 39.7697059,35.2175121 31.3159811,39.5737223 C30.7473739,39.8684202 30.256304,40.2030019 30,40.8212026 L30,76.6413931 C30.3230723,76.9959168 30.5793763,77.4833869 30.9756783,77.6916696 C39.5629396,82.1631 48.1652776,86.6035096 56.7654618,91.0527823 C57.2780698,91.3186751 57.7712935,91.3142436 58.290363,91.0483508 C66.8496247,86.61902 75.4110402,82.1896893 83.9789172,77.7780848 C84.6982915,77.4080506 85.0084408,76.8851281 84.9998256,76.0630763 C84.9761336,73.6921989 84.9912103,71.3235373 84.9912103,68.9548757 Z" id="Stroke-3" stroke="#676767" stroke-width="0.5"></path>
                    <path d="M118.75,61.0387385 C118.1469,62.159237 117.172663,62.5289057 115.8062,62.4982596 C112.584045,62.4273905 109.357674,62.4810212 106.13552,62.4771904 C104.598249,62.4733596 103.72523,61.7665837 103.750535,60.5656391 C103.77584,59.4183253 104.617227,58.7785877 106.141846,58.7747569 C109.364,58.7690108 112.588263,58.8245568 115.810417,58.7517723 C117.178989,58.7211262 118.155335,59.0831334 118.75,60.2112934 L118.75,61.0387385 Z" id="Fill-5" fill="#676767"></path>
                    <path d="M118.75,61.0387385 C118.1469,62.159237 117.172663,62.5289057 115.8062,62.4982596 C112.584045,62.4273905 109.357674,62.4810212 106.13552,62.4771904 C104.598249,62.4733596 103.72523,61.7665837 103.750535,60.5656391 C103.77584,59.4183253 104.617227,58.7785877 106.141846,58.7747569 C109.364,58.7690108 112.588263,58.8245568 115.810417,58.7517723 C117.178989,58.7211262 118.155335,59.0831334 118.75,60.2112934 L118.75,61.0387385 Z" id="Stroke-7"></path>
                    <path d="M57.7124168,120 C56.5827996,119.407364 56.2228538,118.428778 56.2515729,117.060022 C56.3243279,113.837434 56.2707189,110.612738 56.2764627,107.39015 C56.2783773,105.865326 56.9178556,105.023826 58.0666188,105.000627 C59.2651618,104.97321 59.9735658,105.846345 59.9754805,107.385932 C59.9812243,110.60852 59.9257007,113.833216 59.9984557,117.055804 C60.0271748,118.42456 59.6595706,119.396819 58.5395264,120 L57.7124168,120 Z" id="Fill-9" fill="#676767"></path>
                    <path d="M57.7124168,120 C56.5827996,119.407364 56.2228538,118.428778 56.2515729,117.060022 C56.3243279,113.837434 56.2707189,110.612738 56.2764627,107.39015 C56.2783773,105.865326 56.9178556,105.023826 58.0666188,105.000627 C59.2651618,104.97321 59.9735658,105.846345 59.9754805,107.385932 C59.9812243,110.60852 59.9257007,113.833216 59.9984557,117.055804 C60.0271748,118.42456 59.6595706,119.396819 58.5395264,120 L57.7124168,120 Z" id="Stroke-11"></path>
                    <path d="M58.5326512,0 C59.6681404,0.591490968 60.0255025,1.57450265 59.9986043,2.93640534 C59.9313587,6.26433139 59.9736274,9.59436239 59.9717061,12.9222884 C59.9717061,13.9200348 59.4990659,14.6041435 58.6748275,14.8883118 C57.8505891,15.1703751 57.0686193,14.924096 56.5921365,14.0821159 C56.3865573,13.7221695 56.2770431,13.235926 56.2751218,12.8044112 C56.2501448,9.28703969 56.282807,5.76756318 56.2501448,2.24808667 C56.238617,1.06299978 56.9168365,0.515712766 57.7026489,0 L58.5326512,0 Z" id="Fill-13" fill="#676767"></path>
                    <path d="M58.5326512,0 C59.6681404,0.591490968 60.0255025,1.57450265 59.9986043,2.93640534 C59.9313587,6.26433139 59.9736274,9.59436239 59.9717061,12.9222884 C59.9717061,13.9200348 59.4990659,14.6041435 58.6748275,14.8883118 C57.8505891,15.1703751 57.0686193,14.924096 56.5921365,14.0821159 C56.3865573,13.7221695 56.2770431,13.235926 56.2751218,12.8044112 C56.2501448,9.28703969 56.282807,5.76756318 56.2501448,2.24808667 C56.238617,1.06299978 56.9168365,0.515712766 57.7026489,0 L58.5326512,0 Z" id="Stroke-15"></path>
                    <path d="M0,60.2246476 C0.596730307,59.0917969 1.58420217,58.7244379 2.95816839,58.7513647 C6.31557272,58.8225285 9.67722424,58.7321313 13.032505,58.8302219 C13.6632128,58.8494554 14.5062802,59.3341385 14.8205723,59.8284384 C15.1093813,60.282348 15.0308082,61.1555469 14.7186397,61.6306133 C14.4340779,62.0672128 13.6249881,62.4461119 13.0367522,62.457652 C9.41177481,62.5307391 5.78679746,62.4788088 2.15969652,62.4999656 C1.00446062,62.5057356 0.518157278,61.784481 0,61.055533 L0,60.2246476 Z" id="Fill-17" fill="#676767"></path>
                    <path d="M0,60.2246476 C0.596730307,59.0917969 1.58420217,58.7244379 2.95816839,58.7513647 C6.31557272,58.8225285 9.67722424,58.7321313 13.032505,58.8302219 C13.6632128,58.8494554 14.5062802,59.3341385 14.8205723,59.8284384 C15.1093813,60.282348 15.0308082,61.1555469 14.7186397,61.6306133 C14.4340779,62.0672128 13.6249881,62.4461119 13.0367522,62.457652 C9.41177481,62.5307391 5.78679746,62.4788088 2.15969652,62.4999656 C1.00446062,62.5057356 0.518157278,61.784481 0,61.055533 L0,60.2246476 Z" id="Stroke-19"></path>
                    <path d="M111.247946,32.6194109 C111.016275,32.9219614 110.68593,33.6694392 110.126058,34.0209317 C107.032823,35.9585898 103.896686,37.8206103 100.749824,39.6626091 C99.5914693,40.3411231 98.347311,39.9562611 97.7681338,38.8661893 C97.2082626,37.8094871 97.5343179,36.5792633 98.6604957,35.8940754 C101.743005,34.0164824 104.834095,32.1522373 107.950926,30.3391588 C109.546881,29.4137101 111.318734,30.4503906 111.247946,32.6194109" id="Fill-21" fill="#676767"></path>
                    <path d="M111.247946,32.6194109 C111.016275,32.9219614 110.68593,33.6694392 110.126058,34.0209317 C107.032823,35.9585898 103.896686,37.8206103 100.749824,39.6626091 C99.5914693,40.3411231 98.347311,39.9562611 97.7681338,38.8661893 C97.2082626,37.8094871 97.5343179,36.5792633 98.6604957,35.8940754 C101.743005,34.0164824 104.834095,32.1522373 107.950926,30.3391588 C109.546881,29.4137101 111.318734,30.4503906 111.247946,32.6194109 Z" id="Stroke-23"></path>
                    <path d="M30.0367708,112.499128 C28.0572632,112.54413 26.9447577,110.838342 27.7807956,109.366135 C29.6253871,106.128137 31.5562365,102.937283 33.5047798,99.7592878 C34.1262789,98.7435293 35.3228305,98.4949471 36.3159019,99.0113981 C37.3399377,99.5449928 37.8375793,100.757903 37.2470446,101.78009 C35.3493714,105.073805 33.3986163,108.34609 31.3837208,111.575517 C31.0785006,112.066252 30.3353558,112.301977 30.0367708,112.499128" id="Fill-25" fill="#676767"></path>
                    <path d="M30.0367708,112.499128 C28.0572632,112.54413 26.9447577,110.838342 27.7807956,109.366135 C29.6253871,106.128137 31.5562365,102.937283 33.5047798,99.7592878 C34.1262789,98.7435293 35.3228305,98.4949471 36.3159019,99.0113981 C37.3399377,99.5449928 37.8375793,100.757903 37.2470446,101.78009 C35.3493714,105.073805 33.3986163,108.34609 31.3837208,111.575517 C31.0785006,112.066252 30.3353558,112.301977 30.0367708,112.499128 Z" id="Stroke-27"></path>
                    <path d="M83.8635131,22.5 C81.7693434,22.5 80.7233713,20.8244207 81.5134141,19.3588245 C82.24782,17.9960771 83.0845977,16.6847542 83.8835424,15.3562897 C84.9406419,13.595003 85.9910649,11.8272883 87.0681937,10.076715 C87.8582364,8.79538967 89.033286,8.42256256 90.1794043,9.04394108 C91.2743368,9.63532201 91.5836775,10.9316462 90.8537225,12.1658325 C89.0577662,15.2020165 87.2684862,18.2446285 85.3835109,21.2272454 C84.9918277,21.8443385 84.1995595,22.2278791 83.8635131,22.5" id="Fill-29" fill="#676767"></path>
                    <path d="M83.8635131,22.5 C81.7693434,22.5 80.7233713,20.8244207 81.5134141,19.3588245 C82.24782,17.9960771 83.0845977,16.6847542 83.8835424,15.3562897 C84.9406419,13.595003 85.9910649,11.8272883 87.0681937,10.076715 C87.8582364,8.79538967 89.033286,8.42256256 90.1794043,9.04394108 C91.2743368,9.63532201 91.5836775,10.9316462 90.8537225,12.1658325 C89.0577662,15.2020165 87.2684862,18.2446285 85.3835109,21.2272454 C84.9918277,21.8443385 84.1995595,22.2278791 83.8635131,22.5 Z" id="Stroke-31"></path>
                    <path d="M19.003733,40 C18.6819405,39.867433 18.2271404,39.7437039 17.8324082,39.5117117 C14.8182849,37.7397333 11.8084521,35.9567077 8.8136363,34.153797 C7.52861147,33.3804898 7.17034912,32.1851777 7.80964361,31.0428924 C8.41890413,29.9558433 9.6867667,29.6730338 10.9481934,30.4109899 C13.9966413,32.2028533 17.0343628,34.0146017 20.0677937,35.8307691 C20.9924109,36.3853409 21.4536468,37.207256 21.1640336,38.3274469 C20.8915825,39.3813542 20.1407333,39.8630141 19.003733,40" id="Fill-33" fill="#676767"></path>
                    <path d="M19.003733,40 C18.6819405,39.867433 18.2271404,39.7437039 17.8324082,39.5117117 C14.8182849,37.7397333 11.8084521,35.9567077 8.8136363,34.153797 C7.52861147,33.3804898 7.17034912,32.1851777 7.80964361,31.0428924 C8.41890413,29.9558433 9.6867667,29.6730338 10.9481934,30.4109899 C13.9966413,32.2028533 17.0343628,34.0146017 20.0677937,35.8307691 C20.9924109,36.3853409 21.4536468,37.207256 21.1640336,38.3274469 C20.8915825,39.3813542 20.1407333,39.8630141 19.003733,40 Z" id="Stroke-35"></path>
                    <path d="M21.2499298,83.8456186 C21.0055754,84.1621889 20.6561915,84.942468 20.0688836,85.3125431 C17.0144538,87.2364882 13.9085811,89.0757173 10.8005648,90.9037996 C9.64095325,91.5859863 8.35273411,91.2203699 7.7868608,90.1547317 C7.19097907,89.0333593 7.52964567,87.851794 8.74498719,87.1094142 C11.7929866,85.2523502 14.8495598,83.406433 17.9254241,81.5984151 C19.5072972,80.6709977 21.2627905,81.6541493 21.2499298,83.8456186" id="Fill-37" fill="#676767"></path>
                    <path d="M21.2499298,83.8456186 C21.0055754,84.1621889 20.6561915,84.942468 20.0688836,85.3125431 C17.0144538,87.2364882 13.9085811,89.0757173 10.8005648,90.9037996 C9.64095325,91.5859863 8.35273411,91.2203699 7.7868608,90.1547317 C7.19097907,89.0333593 7.52964567,87.851794 8.74498719,87.1094142 C11.7929866,85.2523502 14.8495598,83.406433 17.9254241,81.5984151 C19.5072972,80.6709977 21.2627905,81.6541493 21.2499298,83.8456186 Z" id="Stroke-39"></path>
                    <path d="M83.831067,98.75 C84.1416008,98.9812489 84.9356802,99.3109926 85.2994484,99.8891148 C87.2358487,102.976715 89.0835251,106.111422 90.9156747,109.256835 C91.572232,110.380961 91.2239905,111.590735 90.2014469,112.179563 C89.1456318,112.789803 87.8968422,112.526437 87.2114496,111.406593 C85.2861398,108.269745 83.3874472,105.12005 81.5419889,101.936095 C80.7057656,100.488649 81.7260911,98.8078122 83.831067,98.75" id="Fill-41" fill="#676767"></path>
                    <path d="M83.831067,98.75 C84.1416008,98.9812489 84.9356802,99.3109926 85.2994484,99.8891148 C87.2358487,102.976715 89.0835251,106.111422 90.9156747,109.256835 C91.572232,110.380961 91.2239905,111.590735 90.2014469,112.179563 C89.1456318,112.789803 87.8968422,112.526437 87.2114496,111.406593 C85.2861398,108.269745 83.3874472,105.12005 81.5419889,101.936095 C80.7057656,100.488649 81.7260911,98.8078122 83.831067,98.75 Z" id="Stroke-43"></path>
                    <path d="M30.0439611,8.75 C30.3739417,8.99851501 31.1699085,9.33486721 31.5400218,9.92401917 C33.4708543,12.985467 35.3147325,16.100474 37.145233,19.2197658 C37.8386382,20.4002121 37.4774432,21.6342176 36.3938583,22.2169425 C35.2879773,22.8125216 34.0706164,22.456888 33.339308,21.2571604 C31.4976595,18.2321329 29.6626997,15.2028207 27.8678727,12.1520847 C26.9202933,10.5367372 27.8589543,8.76713897 30.0439611,8.75" id="Fill-45" fill="#676767"></path>
                    <path d="M30.0439611,8.75 C30.3739417,8.99851501 31.1699085,9.33486721 31.5400218,9.92401917 C33.4708543,12.985467 35.3147325,16.100474 37.145233,19.2197658 C37.8386382,20.4002121 37.4774432,21.6342176 36.3938583,22.2169425 C35.2879773,22.8125216 34.0706164,22.456888 33.339308,21.2571604 C31.4976595,18.2321329 29.6626997,15.2028207 27.8678727,12.1520847 C26.9202933,10.5367372 27.8589543,8.76713897 30.0439611,8.75 Z" id="Stroke-47"></path>
                    <path d="M99.7426253,81.25 C100.057981,81.3798526 100.508488,81.5009017 100.901074,81.7319953 C103.906604,83.4927086 106.897118,85.2798327 109.898357,87.0471487 C110.81439,87.5841663 111.391469,88.3324694 111.219847,89.4461206 C110.990302,90.9295216 109.449995,91.7196417 108.104907,90.9515305 C104.878414,89.113786 101.68839,87.2056129 98.5112374,85.2754309 C97.6402557,84.745016 97.2905759,83.8756638 97.6252388,82.8236376 C97.9341584,81.8442408 98.6549708,81.3974597 99.7426253,81.25" id="Fill-49" fill="#676767"></path>
                    <path d="M99.7426253,81.25 C100.057981,81.3798526 100.508488,81.5009017 100.901074,81.7319953 C103.906604,83.4927086 106.897118,85.2798327 109.898357,87.0471487 C110.81439,87.5841663 111.391469,88.3324694 111.219847,89.4461206 C110.990302,90.9295216 109.449995,91.7196417 108.104907,90.9515305 C104.878414,89.113786 101.68839,87.2056129 98.5112374,85.2754309 C97.6402557,84.745016 97.2905759,83.8756638 97.6252388,82.8236376 C97.9341584,81.8442408 98.6549708,81.3974597 99.7426253,81.25 Z" id="Stroke-51"></path>
                    <path d="M28.75,27.1865537 C28.2552443,27.6730569 27.8633585,28.4238807 27.2020513,28.6173328 C26.4648163,28.8337692 25.2156805,28.7954619 24.6645912,28.4277114 C22.7884383,27.1865537 21.081286,25.7845051 19.3961774,24.3786258 C18.4434052,23.5837485 18.587913,22.4862433 19.5431345,21.785219 C20.4616167,21.1110098 21.7989268,21.0420566 22.7712933,21.7603192 C24.5323298,23.058938 26.2321342,24.411187 27.8976485,25.7825897 C28.2601428,26.081387 28.3826071,26.5583133 28.75,27.1865537" id="Fill-53" fill="#676767"></path>
                    <path d="M28.75,27.1865537 C28.2552443,27.6730569 27.8633585,28.4238807 27.2020513,28.6173328 C26.4648163,28.8337692 25.2156805,28.7954619 24.6645912,28.4277114 C22.7884383,27.1865537 21.081286,25.7845051 19.3961774,24.3786258 C18.4434052,23.5837485 18.587913,22.4862433 19.5431345,21.785219 C20.4616167,21.1110098 21.7989268,21.0420566 22.7712933,21.7603192 C24.5323298,23.058938 26.2321342,24.411187 27.8976485,25.7825897 C28.2601428,26.081387 28.3826071,26.5583133 28.75,27.1865537 Z" id="Stroke-55"></path>
                    <path d="M98.75,23.5664488 C98.2989081,24.3987858 98.0745813,25.1086469 97.6210511,25.598551 C96.0897769,27.2682242 94.4975444,28.8829081 92.8858052,30.4725969 C91.8495129,31.4948968 90.3889505,31.4923973 89.459945,30.5625793 C88.5358161,29.6352608 88.4894878,28.0880637 89.4648216,27.0507667 C91.0741225,25.3311033 92.7248751,23.6514321 94.3951343,21.9992555 C95.1534564,21.2469028 96.1482969,20.9694571 97.0407274,21.5968343 C97.7039544,22.0617433 98.1501697,22.8540882 98.75,23.5664488" id="Fill-57" fill="#676767"></path>
                    <path d="M98.75,23.5664488 C98.2989081,24.3987858 98.0745813,25.1086469 97.6210511,25.598551 C96.0897769,27.2682242 94.4975444,28.8829081 92.8858052,30.4725969 C91.8495129,31.4948968 90.3889505,31.4923973 89.459945,30.5625793 C88.5358161,29.6352608 88.4894878,28.0880637 89.4648216,27.0507667 C91.0741225,25.3311033 92.7248751,23.6514321 94.3951343,21.9992555 C95.1534564,21.2469028 96.1482969,20.9694571 97.0407274,21.5968343 C97.7039544,22.0617433 98.1501697,22.8540882 98.75,23.5664488 Z" id="Stroke-59"></path>
                    <path d="M28.75,93.5391271 C28.3704298,94.3512086 28.2406413,94.9683905 27.8757641,95.3606883 C26.2399389,97.1197817 24.5673811,98.8488905 22.8458465,100.520529 C21.8124359,101.522513 20.4778181,101.462543 19.5252193,100.523028 C18.5309902,99.5410338 18.4648715,98.1342588 19.4909355,97.0348255 C21.0973746,95.3132128 22.7674836,93.6465717 24.4351437,91.9799307 C25.2555051,91.1628518 26.3231994,91.0179265 27.2243726,91.6151187 C27.8782129,92.0448972 28.2626808,92.8994568 28.75,93.5391271" id="Fill-61" fill="#676767"></path>
                    <path d="M28.75,93.5391271 C28.3704298,94.3512086 28.2406413,94.9683905 27.8757641,95.3606883 C26.2399389,97.1197817 24.5673811,98.8488905 22.8458465,100.520529 C21.8124359,101.522513 20.4778181,101.462543 19.5252193,100.523028 C18.5309902,99.5410338 18.4648715,98.1342588 19.4909355,97.0348255 C21.0973746,95.3132128 22.7674836,93.6465717 24.4351437,91.9799307 C25.2555051,91.1628518 26.3231994,91.0179265 27.2243726,91.6151187 C27.8782129,92.0448972 28.2626808,92.8994568 28.75,93.5391271 Z" id="Stroke-63"></path>
                    <path d="M91.0487107,91.25 C91.9192695,91.7247809 92.6172175,91.9536496 93.1075322,92.4040827 C94.7435824,93.9039033 96.3245972,95.4597237 97.8830976,97.037457 C99.0213282,98.189105 99.0238298,99.5282305 97.9781586,100.528922 C96.9750147,101.490658 95.6066364,101.510136 94.4884186,100.468053 C92.7998347,98.8951893 91.1637846,97.2663258 89.5202296,95.649636 C88.6972013,94.8388564 88.5120825,93.7894689 89.0699406,92.8764288 C89.4777023,92.2166051 90.3282483,91.8173023 91.0487107,91.25" id="Fill-65" fill="#676767"></path>
                    <path d="M91.0487107,91.25 C91.9192695,91.7247809 92.6172175,91.9536496 93.1075322,92.4040827 C94.7435824,93.9039033 96.3245972,95.4597237 97.8830976,97.037457 C99.0213282,98.189105 99.0238298,99.5282305 97.9781586,100.528922 C96.9750147,101.490658 95.6066364,101.510136 94.4884186,100.468053 C92.7998347,98.8951893 91.1637846,97.2663258 89.5202296,95.649636 C88.6972013,94.8388564 88.5120825,93.7894689 89.0699406,92.8764288 C89.4777023,92.2166051 90.3282483,91.8173023 91.0487107,91.25 Z" id="Stroke-67"></path>
                    <path d="M108.957997,45 C110.129433,45.121144 110.854708,45.6377205 111.161311,46.6937309 C111.448884,47.699455 111.023868,48.9337528 110.078685,49.2537559 C107.881715,50.0057633 105.648798,50.6526268 103.405309,51.2172037 C102.52356,51.4366344 101.519171,50.520054 101.316178,49.5097584 C101.098384,48.4263193 101.411331,47.3885948 102.356515,47.0457343 C104.57463,46.2365835 106.85618,45.6354348 108.957997,45" id="Fill-69" fill="#676767"></path>
                    <path d="M108.957997,45 C110.129433,45.121144 110.854708,45.6377205 111.161311,46.6937309 C111.448884,47.699455 111.023868,48.9337528 110.078685,49.2537559 C107.881715,50.0057633 105.648798,50.6526268 103.405309,51.2172037 C102.52356,51.4366344 101.519171,50.520054 101.316178,49.5097584 C101.098384,48.4263193 101.411331,47.3885948 102.356515,47.0457343 C104.57463,46.2365835 106.85618,45.6354348 108.957997,45 Z" id="Stroke-71"></path>
                    <path d="M48.75,107.128729 C48.6827956,107.403892 48.608639,107.77642 48.5043563,108.140482 C48.0061168,109.861309 47.5287338,111.586369 46.9910986,113.296613 C46.5901895,114.572946 45.3897799,115.226987 44.1476571,114.928541 C42.9101692,114.627978 42.2427599,113.514626 42.5926863,112.23406 C43.1071476,110.362952 43.6355132,108.493961 44.2079093,106.635552 C44.5532009,105.501034 45.5774887,104.882976 46.7199636,105.018441 C47.806821,105.145439 48.7175565,106.049244 48.75,107.128729" id="Fill-73" fill="#676767"></path>
                    <path d="M48.75,107.128729 C48.6827956,107.403892 48.608639,107.77642 48.5043563,108.140482 C48.0061168,109.861309 47.5287338,111.586369 46.9910986,113.296613 C46.5901895,114.572946 45.3897799,115.226987 44.1476571,114.928541 C42.9101692,114.627978 42.2427599,113.514626 42.5926863,112.23406 C43.1071476,110.362952 43.6355132,108.493961 44.2079093,106.635552 C44.5532009,105.501034 45.5774887,104.882976 46.7199636,105.018441 C47.806821,105.145439 48.7175565,106.049244 48.75,107.128729 Z" id="Stroke-75"></path>
                    <path d="M76.25,9.70686608 C75.7649075,11.4075015 75.2338347,13.2777763 74.6935658,15.1438101 C74.576316,15.5467038 74.4728603,15.9623204 74.2774439,16.3334067 C73.7739592,17.285508 72.6014608,17.7244501 71.5760995,17.3872917 C70.4495814,17.0162054 69.7805676,16.0047303 70.0656457,14.9550862 C70.6059145,12.9681843 71.1737716,10.9876438 71.792207,9.02194684 C72.1439566,7.89596506 73.1739159,7.35523934 74.3625075,7.53336075 C75.3878688,7.68603625 76.2224118,8.56816134 76.25,9.70686608" id="Fill-77" fill="#676767"></path>
                    <path d="M76.25,9.70686608 C75.7649075,11.4075015 75.2338347,13.2777763 74.6935658,15.1438101 C74.576316,15.5467038 74.4728603,15.9623204 74.2774439,16.3334067 C73.7739592,17.285508 72.6014608,17.7244501 71.5760995,17.3872917 C70.4495814,17.0162054 69.7805676,16.0047303 70.0656457,14.9550862 C70.6059145,12.9681843 71.1737716,10.9876438 71.792207,9.02194684 C72.1439566,7.89596506 73.1739159,7.35523934 74.3625075,7.53336075 C75.3878688,7.68603625 76.2224118,8.56816134 76.25,9.70686608 Z" id="Stroke-79"></path>
                    <path d="M9.78899969,76.25 C8.56247517,76.0926692 7.84136335,75.5705132 7.57491147,74.494279 C7.31480368,73.4454068 7.74197257,72.2962076 8.70204521,71.9701451 C10.863266,71.2382147 13.0583219,70.5997707 15.2639514,70.0365719 C16.1563537,69.8108363 17.1587203,70.6636151 17.4082546,71.6714445 C17.6747065,72.752239 17.3638459,73.8102319 16.4354938,74.1568158 C14.1917998,74.9959136 11.8719767,75.6092759 9.78899969,76.25" id="Fill-81" fill="#676767"></path>
                    <path d="M9.78899969,76.25 C8.56247517,76.0926692 7.84136335,75.5705132 7.57491147,74.494279 C7.31480368,73.4454068 7.74197257,72.2962076 8.70204521,71.9701451 C10.863266,71.2382147 13.0583219,70.5997707 15.2639514,70.0365719 C16.1563537,69.8108363 17.1587203,70.6636151 17.4082546,71.6714445 C17.6747065,72.752239 17.3638459,73.8102319 16.4354938,74.1568158 C14.1917998,74.9959136 11.8719767,75.6092759 9.78899969,76.25 Z" id="Stroke-83"></path>
                    <path d="M48.749995,15.0880284 C48.7522986,16.3502829 47.9506798,17.2906201 46.9279249,17.4558144 C45.8291545,17.6337161 44.8179171,17.2779128 44.4839093,16.3248684 C43.7168431,14.1307482 43.0442205,11.8963884 42.53745,9.64084985 C42.3232244,8.68780539 43.051131,7.87665866 44.1314735,7.6013347 C45.1887809,7.33236438 46.3036759,7.58439169 46.6630222,8.53108252 C47.5130145,10.7781496 48.130353,13.0993423 48.749995,15.0880284" id="Fill-85" fill="#676767"></path>
                    <path d="M48.749995,15.0880284 C48.7522986,16.3502829 47.9506798,17.2906201 46.9279249,17.4558144 C45.8291545,17.6337161 44.8179171,17.2779128 44.4839093,16.3248684 C43.7168431,14.1307482 43.0442205,11.8963884 42.53745,9.64084985 C42.3232244,8.68780539 43.051131,7.87665866 44.1314735,7.6013347 C45.1887809,7.33236438 46.3036759,7.58439169 46.6630222,8.53108252 C47.5130145,10.7781496 48.130353,13.0993423 48.749995,15.0880284 Z" id="Stroke-87"></path>
                    <path d="M17.5,48.8253462 C17.4915233,50.3929653 16.2814784,51.5209997 15.0248118,51.1930557 C13.034913,50.6674149 11.0577293,50.083628 9.09114142,49.4696051 C7.8938115,49.0951442 7.28772946,47.8996602 7.56745963,46.6553335 C7.83871314,45.452872 8.91948881,44.7527929 10.1401296,45.080737 C12.0537383,45.5900969 13.9609895,46.1343444 15.859764,46.7158055 C16.8748454,47.0274686 17.4427825,47.8089523 17.5,48.8253462" id="Fill-89" fill="#676767"></path>
                    <path d="M17.5,48.8253462 C17.4915233,50.3929653 16.2814784,51.5209997 15.0248118,51.1930557 C13.034913,50.6674149 11.0577293,50.083628 9.09114142,49.4696051 C7.8938115,49.0951442 7.28772946,47.8996602 7.56745963,46.6553335 C7.83871314,45.452872 8.91948881,44.7527929 10.1401296,45.080737 C12.0537383,45.5900969 13.9609895,46.1343444 15.859764,46.7158055 C16.8748454,47.0274686 17.4427825,47.8089523 17.5,48.8253462 Z" id="Stroke-91"></path>
                    <path d="M103.440296,70 C103.793723,70.0997959 104.269897,70.2297627 104.743954,70.366692 C106.318503,70.8215756 107.895168,71.2625343 109.463368,71.7406264 C110.803004,72.1490933 111.490811,73.3489651 111.173362,74.6439911 C110.870727,75.8717129 109.780818,76.5099426 108.462345,76.1502131 C106.587277,75.6442711 104.718558,75.1081582 102.864654,74.5349119 C101.747232,74.1891074 101.125032,73.1284858 101.271058,71.9959182 C101.410736,70.914409 102.320758,70.0232084 103.440296,70" id="Fill-93" fill="#676767"></path>
                    <path d="M103.440296,70 C103.793723,70.0997959 104.269897,70.2297627 104.743954,70.366692 C106.318503,70.8215756 107.895168,71.2625343 109.463368,71.7406264 C110.803004,72.1490933 111.490811,73.3489651 111.173362,74.6439911 C110.870727,75.8717129 109.780818,76.5099426 108.462345,76.1502131 C106.587277,75.6442711 104.718558,75.1081582 102.864654,74.5349119 C101.747232,74.1891074 101.125032,73.1284858 101.271058,71.9959182 C101.410736,70.914409 102.320758,70.0232084 103.440296,70 Z" id="Stroke-95"></path>
                    <path d="M76.25,112.682354 C76.1238999,113.934768 75.6011577,114.681562 74.5189897,114.922736 C73.4574562,115.157563 72.3798737,114.867731 72.0359643,113.907265 C71.2380947,111.685923 70.5525687,109.420154 70.0367047,107.128999 C69.8211882,106.185457 70.5800815,105.392121 71.6484931,105.104404 C72.723783,104.814572 73.805951,105.127675 74.1544458,106.050061 C75.0027555,108.294674 75.6126214,110.613332 76.25,112.682354" id="Fill-97" fill="#676767"></path>
                    <path d="M76.25,112.682354 C76.1238999,113.934768 75.6011577,114.681562 74.5189897,114.922736 C73.4574562,115.157563 72.3798737,114.867731 72.0359643,113.907265 C71.2380947,111.685923 70.5525687,109.420154 70.0367047,107.128999 C69.8211882,106.185457 70.5800815,105.392121 71.6484931,105.104404 C72.723783,104.814572 73.805951,105.127675 74.1544458,106.050061 C75.0027555,108.294674 75.6126214,110.613332 76.25,112.682354 Z" id="Stroke-99"></path>
                </g>
            </g>
        </g>
    </g>
</svg>