<?xml version="1.0" encoding="UTF-8"?>
<svg width="93px" height="98px" viewBox="0 0 93 98" version="1.1" xmlns="http://www.w3.org/2000/svg" xmlns:xlink="http://www.w3.org/1999/xlink">
    <!-- Generator: Sketch 52.6 (67491) - http://www.bohemiancoding.com/sketch -->
    <title>Group 14</title>
    <desc>Created with Sketch.</desc>
    <defs>
        <polygon id="path-1" points="0.000142857143 0.91971831 98.9728571 0.91971831 98.9728571 98.5912676 0.000142857143 98.5912676"></polygon>
    </defs>
    <g id="Welcome" stroke="none" stroke-width="1" fill="none" fill-rule="evenodd">
        <g id="Accelerator" transform="translate(-313.000000, -7214.000000)">
            <g id="Group-26" transform="translate(263.000000, 7162.000000)">
                <g id="Group-14" transform="translate(47.000000, 51.000000)">
                    <g id="Group-3" transform="translate(0.310345, 0.000000)">
                        <mask id="mask-2" fill="white">
                            <use xlink:href="#path-1"></use>
                        </mask>
                        <g id="Clip-2"></g>
                        <path d="M36.6896552,76.0101641 L36.6896552,96 L47.6559267,96 C47.6559267,94.4321697 47.664008,92.9260764 47.6518861,91.4214188 C47.6464986,90.7667204 47.806777,89.9497832 47.5050765,89.5133176 C47.2720668,89.1787898 46.4302688,89.3252354 45.8605399,89.2577556 C45.8295617,89.2534483 45.7985835,89.2548841 45.7676054,89.2491411 C44.9877636,89.0926452 44.5998631,88.5355773 44.5284786,87.7459192 C44.4611348,87.0065121 45.0739638,86.2599263 45.7905023,86.1709103 C46.1864841,86.122095 46.5932409,86.1378882 46.9932633,86.1536814 C47.4579358,86.1737817 47.6626611,85.9856995 47.6613143,85.4659609 C47.6464986,82.5686336 47.6357236,79.6698705 47.6626611,76.7725431 C47.6693955,76.0431862 47.3070856,75.9972424 46.7858443,76.0001139 C44.5621505,76.0144714 42.3371099,76.0087284 40.1134162,76.0101641 C39.0062834,76.0101641 37.8978037,76.0101641 36.6896552,76.0101641 Z M61.5761288,96 C61.6135244,95.7560296 61.6789667,95.5350212 61.6789667,95.3125776 C61.6829733,89.1573483 61.6722889,83.0021191 61.6896511,76.8468899 C61.6909867,76.1006276 61.3624397,75.9972989 60.782808,76.0016043 C57.7190407,76.0231311 54.656609,76.0331769 51.5928417,76.0001692 C50.9117077,75.9929936 50.6793208,76.2125669 50.6900053,76.9502185 C50.7207231,79.3210366 50.6926764,81.6904195 50.6953475,84.0598025 C50.6980186,85.9756875 50.7020253,85.9756875 52.4542758,86.160818 C53.2662943,86.2469252 53.7898326,86.8697672 53.7791481,87.7380148 C53.7684637,88.5919111 53.2288987,89.1975317 52.4021891,89.2578067 C52.0362465,89.2836389 51.6502706,89.2018371 51.3056969,89.2994252 C51.0773167,89.3625705 50.7367497,89.6524647 50.7327431,89.847641 C50.6913408,91.8783357 50.7060319,93.9090303 50.7060319,96 L61.5761288,96 Z M8.69379276,63 L10.2285253,63 L87.7426043,63 C89.6956557,63 89.6956557,63 89.6889303,61.1930246 C89.684895,60.0078175 89.684895,60.0028533 88.4366639,60.0028533 C64.3584462,60.0028533 40.2802285,60.0028533 16.2020108,60.0040944 C13.978599,60.0040944 11.7565324,60.0003712 9.53312061,60.0065765 C9.15246391,60.0078175 8.68168707,59.9010869 8.68975753,60.5029983 C8.70186322,61.29355 8.69379276,62.0853428 8.69379276,63 Z M8.71546207,21 C8.71546207,21.7523129 8.76924743,22.4020939 8.70201573,23.0419923 C8.62133769,23.8041878 8.93194814,24.0673121 9.74141778,23.9857806 C10.2591019,23.933897 10.7888876,23.975898 11.3132949,23.975898 C36.7725943,23.975898 62.2318938,23.975898 87.6911933,23.9771333 C89.7000764,23.9771333 89.7000764,23.979604 89.6879747,22.1290871 C89.6812515,21.0024707 89.6812515,21 88.4885612,21 C65.7144958,21 42.9404303,21 20.1663649,21 L8.71546207,21 Z M8.68965517,17 L89.6635898,17 C89.6743705,16.8049587 89.6999747,16.6758666 89.6851512,16.5537903 C88.8334749,9.58562284 82.7760618,4.01080821 76.01925,4.00800186 C58.2054695,3.99817964 40.3916891,3.99817964 22.5779086,4.00379234 C16.8897349,4.00519551 11.681303,7.78955872 9.64913862,13.417694 C9.2435143,14.5402341 9.02250968,15.7357392 8.68965517,17 Z M77.1108428,66.0166696 C76.5858308,66.0166696 76.0971657,66.0166696 75.6071544,66.0166696 C74.0025022,66.0138942 74.0025022,66.0125066 73.9244234,67.6263894 C73.877307,68.5714058 73.3415254,69.15146 72.5001599,69.1639492 C71.6278322,69.1764384 71.0355109,68.5714058 70.9978177,67.6000233 C70.9789711,67.1046181 70.9951254,66.6078253 70.9951254,66.0763403 L67.8194755,66.0763403 C67.6000473,67.2753039 68.1910225,69.0168542 66.3467493,69.1084417 C64.2453549,69.2125184 64.93864,67.261427 64.6370946,66.0860541 L61.5381773,66.0860541 C61.5166383,66.4357518 61.4937532,66.7146774 61.4829837,66.9949907 C61.4722142,67.2808547 61.4977917,67.5708818 61.4654833,67.8539704 C61.3752889,68.6394026 60.7829676,69.1570108 60.0075652,69.1542354 C59.2213933,69.15146 58.6465724,68.6394026 58.5765708,67.8414812 C58.5402238,67.4307251 58.607533,67.0047045 58.5334929,66.6036623 C58.4944535,66.3899581 58.2629097,66.0583003 58.1027137,66.0485865 C57.194039,65.9944666 56.2813257,66.0222204 55.2663024,66.0222204 C55.2663024,66.6355791 55.2905337,67.1101689 55.2609177,67.5805956 C55.197647,68.6088735 54.6470574,69.1778261 53.7733835,69.1611739 C52.9091328,69.1445216 52.3370043,68.5339382 52.291234,67.5486787 C52.2696951,67.0574367 52.2871955,66.5634193 52.2871955,66.0125066 C50.7161978,66.0125066 49.2973191,66.0000174 47.8784403,66.0180573 C47.271311,66.0263835 46.5376403,65.9028791 46.098784,66.2053954 C45.8120467,66.403835 45.9614732,67.261427 45.9022411,67.8220536 C45.8174314,68.6213627 45.2520338,69.1431339 44.4766314,69.1542354 C43.6500739,69.1667246 43.0725606,68.6366273 43.0052514,67.7762598 C42.9756353,67.3960329 43.0537141,66.997766 42.9675582,66.6369668 C42.9123647,66.403835 42.6579357,66.0624634 42.4748546,66.0499742 C41.5931036,65.9875281 40.7046216,66.0222204 39.7245991,66.0222204 C39.7245991,66.6466806 39.7636385,67.154575 39.7151758,67.6527555 C39.6195967,68.6560549 39.0218906,69.1986415 38.1387934,69.15146 C37.3176207,69.1056663 36.7737621,68.5131229 36.7266456,67.5708818 C36.7010681,67.0768643 36.7212609,66.5800715 36.7212609,66.0846664 L33.4783017,66.0846664 C33.4783017,66.689699 33.509264,67.2253471 33.4715708,67.7568322 C33.4136848,68.6005473 32.8038631,69.1625615 32.0069218,69.1639492 C31.1965185,69.1653369 30.6311209,68.624138 30.5624655,67.7540568 C30.5315032,67.3738299 30.5920815,66.9797261 30.515349,66.6119884 C30.4709249,66.3955088 30.2501506,66.0583003 30.092647,66.0485865 C29.1853185,65.9944666 28.271259,66.0222204 27.3666228,66.0222204 C27.0516156,67.297507 27.7529778,69.1445216 25.7498549,69.1153801 C23.7844251,69.0862386 24.4642484,67.2739162 24.2300123,66.0943802 L21.0435929,66.0943802 C21.0435929,66.6827605 21.073209,67.1920426 21.036862,67.6957738 C20.9735913,68.601935 20.3610772,69.1708877 19.5197117,69.1556231 C18.7025776,69.1403585 18.1721808,68.6158119 18.0981406,67.7152015 C18.0550627,67.1837164 18.0483318,66.6466806 18.0200619,66.0166696 C17.4910113,66.0166696 17.0333084,66.0152819 16.5769518,66.0166696 C14.910375,66.019445 14.910375,66.019445 14.7838337,67.7096507 C14.7192168,68.5852827 14.1793967,69.1431339 13.3743782,69.1639492 C12.5343589,69.1847646 11.9191525,68.6074858 11.8666513,67.7068753 C11.835689,67.1795534 11.8612665,66.6466806 11.8612665,66.0749526 L8.68965517,66.0749526 L8.68965517,94.9042003 L33.6196511,94.9042003 C33.6196511,92.3425256 33.6209973,89.8613369 33.6196511,87.3801482 C33.6183049,83.1130033 33.5994583,78.8458583 33.6236897,74.580101 C33.6317668,73.0036859 34.070623,72.5790529 35.5595034,72.5776652 C44.6112499,72.5707268 53.6643425,72.5707268 62.716089,72.5776652 C64.1766995,72.5790529 64.6182481,73.0702949 64.6182481,74.6036918 C64.6195942,81.005103 64.6182481,87.4065143 64.6182481,93.8079256 L64.6182481,94.9832986 L65.5861549,94.9832986 C73.2796009,94.9819109 80.9717008,94.968034 88.6651468,94.9999508 C89.5011275,95.0041139 89.693632,94.744616 89.6895934,93.9231039 C89.6613235,87.7756397 89.6788239,81.6295633 89.6801701,75.4834868 C89.6801701,72.6165205 89.6774777,69.7509419 89.6694006,66.8839755 C89.6694006,66.4870963 89.7663259,66.0069558 89.125542,66.0138942 C88.2639837,66.0236081 87.4024255,66.0166696 86.5193283,66.0166696 C86.1275885,67.2031441 86.9447226,69.1542354 84.8756366,69.1153801 C82.9155916,69.0779125 83.6142615,67.2558763 83.3611788,66.0985433 L80.2420686,66.0985433 C80.0468718,68.6144242 79.7870582,69.18754 78.7356879,69.1403585 C76.725834,69.048771 77.3881569,67.3321992 77.1108428,66.0166696 Z M36.7828514,27.0508507 C36.0728579,27.0508507 35.4664052,27.0522797 34.8599525,27.0494217 C33.5502298,27.0437057 33.5502298,27.0422766 33.544851,28.4226981 C33.5381276,29.6773669 33.0137006,30.3690066 32.0683874,30.3661486 C31.1472785,30.3632906 30.6389877,29.7173791 30.6067153,28.5098676 C30.5690641,27.0451347 30.5690641,27.0451347 29.1692475,27.0479927 C29.0455366,27.0479927 28.9231703,27.0465637 28.7994593,27.0494217 C27.2046634,27.0722858 27.3498893,26.923669 27.3095488,28.5741729 C27.2799658,29.7616783 26.7165429,30.3975868 25.7860212,30.3604326 C24.9146657,30.3261364 24.3848599,29.6573608 24.3646897,28.5470218 C24.3391407,27.0651408 24.6726224,27.0422766 22.884192,27.0465637 C22.760481,27.0479927 22.63677,27.0465637 22.5130591,27.0465637 C21.1562724,27.0479927 21.1562724,27.0479927 21.1239999,28.5313027 C21.0984509,29.6802249 20.5309941,30.3704356 19.6166086,30.3618616 C18.7304615,30.3547165 18.1804855,29.7259531 18.1724174,28.594179 C18.1616599,26.7821972 18.1280428,27.0679988 16.7107453,27.0551377 C14.9989619,27.0408476 14.9989619,27.0465637 14.8658381,28.8671195 C14.8012933,29.7588203 14.2445939,30.3518585 13.4566087,30.3661486 C12.6296277,30.3804387 12.0191409,29.7702524 11.946528,28.8514004 C11.7999574,27.0365606 11.7999574,27.0365606 10.1043102,27.0494217 C10.0115269,27.0508507 9.91739901,27.0651408 9.82596046,27.0508507 C8.94115804,26.9008049 8.68566798,27.286637 8.68970203,28.2340691 C8.72197446,37.2210986 8.70852761,46.2081282 8.7098723,55.1937287 C8.7098723,56.9985654 8.71390635,56.9885624 10.4472047,56.9871334 C20.6937009,56.9842754 30.9401971,56.9857044 41.1866932,56.9857044 C56.9894259,56.9842754 72.7908139,56.9757013 88.5922019,56.9999945 C89.4514553,57.0014235 89.6975326,56.727054 89.6894645,55.8310661 C89.6545027,51.7641102 89.678707,47.6971542 89.678707,43.6316272 C89.678707,38.4486163 89.6827411,33.2670343 89.6598814,28.0854523 C89.6585367,27.7482065 89.4568341,27.1365912 89.3129528,27.1251591 C88.4281504,27.0494217 87.5083862,26.9951194 86.6585455,27.2037545 C86.4487748,27.2551988 86.439362,28.3026615 86.366749,28.8956997 C86.2591742,29.7959745 85.7199557,30.3575746 84.9225578,30.3618616 C84.1063343,30.3675776 83.5012262,29.7445302 83.4420601,28.8171042 C83.4178558,28.4241271 83.4864347,28.0168599 83.408443,27.6410309 C83.3613791,27.4238217 83.1166465,27.099437 82.9472162,27.0880049 C82.0664478,27.0322736 81.1803007,27.0622828 80.198681,27.0622828 C80.198681,27.5895866 80.2013704,27.9754187 80.198681,28.3626798 C80.1879235,29.6259226 79.6796328,30.3261364 78.7544898,30.3604326 C77.7755595,30.3975868 77.2592006,29.7245241 77.2269282,28.3726828 C77.1973451,27.0608537 77.1973451,27.0522797 75.9414098,27.0565667 C75.3578167,27.0579957 74.5684869,26.8650797 74.2484519,27.1837484 C73.9082468,27.5224232 74.0064087,28.3655378 73.9311064,28.9900142 C73.8329444,29.8031196 73.2627982,30.3604326 72.5043961,30.3647196 C71.7500281,30.3675776 71.119371,29.8202677 71.0346559,29.0271684 C70.9862473,28.5741729 71.0655836,28.1011714 70.991626,27.655321 C70.9553195,27.4366828 70.7105869,27.099437 70.543846,27.0894339 C69.6603883,27.0322736 68.7742412,27.0622828 67.77783,27.0622828 C67.77783,27.5410003 67.781864,27.8925362 67.77783,28.2440721 C67.7616937,29.6444997 67.2359221,30.3704356 66.2448896,30.3632906 C65.296887,30.3561455 64.7805281,29.6387837 64.7590132,28.3012324 C64.7563238,28.2040599 64.7455663,28.1026004 64.7576685,28.0068569 C64.8464177,27.295211 64.593617,26.9479621 63.8863129,27.0437057 C63.6725081,27.0722858 63.4546692,27.0465637 63.238175,27.0465637 C61.6057279,27.0465637 61.6595153,27.0522797 61.4766382,28.782808 C61.4228508,29.2829607 61.0584413,29.9160112 60.6604147,30.1517974 C60.2973499,30.3675776 59.5577734,30.3104173 59.2350491,30.0374768 C58.8746736,29.7330982 58.6447326,29.0600355 58.6218729,28.5341607 C58.54926,26.8979469 58.6608688,27.0665698 57.1817158,27.0522797 C55.4739664,27.0365606 55.4739664,27.0379896 55.2951234,28.8256783 C55.1969614,29.8031196 54.6442961,30.3775807 53.8159704,30.3618616 C53.0064703,30.3490005 52.406741,29.7216661 52.334128,28.7985271 C52.3153025,28.5698859 52.3005109,28.3340996 52.3354727,28.1111744 C52.4766646,27.2037545 52.0759486,26.9908324 51.2919975,27.0322736 C50.1530497,27.0922919 49.0087232,27.0465637 47.867086,27.0479927 C46.1216855,27.0494217 46.1216855,27.0494217 45.9562893,28.9071317 C45.9522552,28.9399989 45.9535999,28.9728661 45.9495659,29.0057333 C45.8487145,29.8116936 45.2610874,30.3604326 44.4999959,30.3618616 C43.7375598,30.3618616 43.1418646,29.8174096 43.0638728,29.0014462 C43.0235323,28.5784599 43.0813537,28.1440416 43.0262217,27.7253423 C42.9966386,27.5052751 42.8298977,27.1337331 42.7088761,27.1265881 C41.8200397,27.0765728 40.9110329,27.0122675 40.0464007,27.1780324 C39.8742811,27.2108996 39.8675577,28.216921 39.7841873,28.775663 C39.7788085,28.8085302 39.7747745,28.8399684 39.7707404,28.8728355 C39.6295485,29.8274127 39.039232,30.3947288 38.2243532,30.3604326 C37.4229212,30.3261364 36.8420175,29.694515 36.7882301,28.7485119 C36.7586471,28.2326401 36.7828514,27.7139103 36.7828514,27.0508507 Z M22.4814018,1 L75.9086474,1 C76.81474,1.1413183 77.7235173,1.26850477 78.6269251,1.42678126 C85.5360488,2.63787907 91.4343759,9.03111887 92.2908012,16.3061848 C92.3914782,17.156921 92.6129675,17.5413068 93.4559692,17.4254258 C94.4815317,17.2841075 95.2507037,17.6939305 95.6896552,18.7114223 L95.6896552,19.2950668 C95.1164677,20.8651131 93.7324952,20.5372547 92.5592731,20.6545489 C92.5391377,20.9513173 92.5149752,21.142097 92.5149752,21.3328767 C92.5122905,32.7994434 92.51766,44.2660101 92.4934975,55.7339899 C92.4908128,56.5592888 92.8143214,56.7684399 93.4801316,56.6751698 C94.4694505,56.538091 95.2158023,56.8871472 95.6896552,57.8297403 L95.6896552,58.6084041 C95.1983516,59.5326258 94.4479727,59.9000534 93.4640233,59.750256 C92.6666619,59.6287222 92.4894704,60.0314794 92.4961822,60.8059036 C92.5283988,64.3402743 92.5096058,67.8760581 92.5096058,71.4118419 C92.5082634,79.9418144 92.5096058,88.4717868 92.5055787,97.0017593 C92.5055787,98.4064631 92.0089058,98.9406463 90.6866818,98.9943473 C90.4705619,99.0014132 90.2557844,98.9971736 90.0396646,98.9971736 C62.6810381,98.9985868 35.3224116,98.9985868 7.96512752,99 C6.19052843,99 5.73144152,98.5067991 5.73144152,96.6272658 C5.73278388,84.6915223 5.72472972,72.7557789 5.75023455,60.8200355 C5.75291927,59.966473 5.53948413,59.6089377 4.71661783,59.7460164 C4.50720977,59.781346 4.28572047,59.7615614 4.07094297,59.7446032 C3.19975174,59.6711177 2.66683506,59.0450777 2.69233989,58.1378142 C2.7218718,57.1386938 3.30579813,56.622882 4.57030066,56.7006071 C5.5072675,56.7571344 5.75828871,56.4561264 5.75560399,55.4598324 C5.72070265,44.2702496 5.73278388,33.0806668 5.73412624,21.891084 L5.73412624,20.5853029 C5.10187497,20.5853029 4.61057144,20.6262852 4.12732207,20.5768238 C3.22257185,20.4849669 2.68965517,19.8716455 2.68965517,18.9968852 C2.68965517,18.1263645 3.23599544,17.5229354 4.13806094,17.4296653 C4.44277652,17.3971621 4.75554625,17.3943357 5.06160419,17.4254258 C5.63076457,17.4833663 5.8280914,17.2713888 5.91937183,16.6368697 C7.04024191,8.94632789 12.0324764,3.24272139 19.1187916,1.54407545 C20.222211,1.27981023 21.3591894,1.17664787 22.4814018,1 Z" id="Fill-1" fill="#676767" mask="url(#mask-2)"></path>
                    </g>
                    <path d="M78.9658366,49.9150268 L83.5066158,49.9150268 L83.5066158,36.6311243 L78.9658366,36.6311243 L78.9658366,49.9150268 Z M71.4530295,49.8977731 L75.9768703,49.8977731 L75.9768703,36.6383133 L71.4530295,36.6383133 L71.4530295,49.8977731 Z M68.4992429,49.5081273 C68.4992429,46.076081 68.4992429,42.3176525 68.4979399,38.559224 C68.4979399,37.4708038 68.4875163,36.3823836 68.4979399,35.2925256 C68.5096665,34.0157526 69.0425728,33.3615502 70.1709271,33.3572368 C75.0439585,33.3399831 79.9156868,33.3399831 84.7887182,33.3572368 C85.9431315,33.3615502 86.4239199,33.9927477 86.4252228,35.4176148 C86.4291317,39.8719421 86.4265258,44.3248316 86.4134963,48.7777211 C86.4121933,49.4276101 86.4291317,49.9092756 87.1392392,50.2356578 C87.530124,50.413946 87.9509768,51.249312 87.8871322,51.7079726 C87.81547,52.2183942 87.2421722,52.6813682 86.8200165,53.0796409 C86.651936,53.2377997 86.3040485,53.1917898 86.0369439,53.1917898 C80.3274189,53.1975411 74.617894,53.2018545 68.9070661,53.1917898 C67.5063953,53.1889142 66.6907489,52.3032249 67.1102986,51.1357253 C67.3122558,50.5721048 67.9050979,50.1781455 68.4992429,49.5081273 Z" id="Fill-4" fill="#676767"></path>
                    <path d="M42.3800352,49.892219 L46.9457608,49.892219 L46.9457608,36.6363426 L42.3800352,36.6363426 L42.3800352,49.892219 Z M54.5531248,49.9238456 C54.5531248,45.6039336 54.5622746,41.387527 54.5269827,37.172558 C54.5256756,36.96986 54.1492287,36.6119039 53.9322489,36.5989657 C52.9153195,36.5385875 51.8905474,36.6262796 50.8749251,36.5558384 C50.0985034,36.5040858 49.8331606,36.7470359 49.8436175,37.6455201 C49.8854449,41.3070228 49.8553814,44.9699632 49.8579957,48.631466 C49.8593028,49.0498002 49.9037444,49.4681344 49.9298866,49.9238456 L54.5531248,49.9238456 Z M48.4646194,53.1900153 C45.5863692,53.1900153 42.706812,53.1957656 39.8272548,53.1871402 C38.635173,53.184265 37.9241067,52.6609879 38.0064544,51.6863122 C38.0522032,51.1544096 38.3815942,50.4413725 38.7776477,50.2056103 C39.3331683,49.8764057 39.4534221,49.5357004 39.452115,48.9232936 C39.4364297,44.4711248 39.4429653,40.0175183 39.4442724,35.5653495 C39.4455795,33.8460101 39.9056812,33.3471717 41.4898952,33.3457341 C46.1392756,33.3442966 50.7873489,33.342859 55.4354222,33.3471717 C56.9647376,33.3486093 57.4052328,33.8345095 57.407847,35.5250974 C57.4117683,39.9456396 57.4169967,44.3647442 57.4026186,48.7838489 C57.4013115,49.4551963 57.4836592,49.892219 58.1463626,50.2372369 C58.5424161,50.4442477 58.9541548,51.2651028 58.8861853,51.7222516 C58.8077588,52.2340282 58.2378601,52.7127405 57.7960578,53.0764469 C57.5751567,53.2590189 57.1594966,53.1813899 56.8327198,53.1828275 C54.043353,53.1885778 51.2539862,53.1857026 48.4646194,53.1857026 L48.4646194,53.1900153 Z" id="Fill-6" fill="#676767"></path>
                    <path d="M21.0185216,49.9217675 C21.0185216,45.5854936 21.0263458,41.3729077 20.9911369,37.1603219 C20.9911369,36.9632839 20.6077505,36.6181079 20.3899767,36.6037256 C19.3767414,36.5433198 18.3556819,36.6382432 17.3450547,36.5548256 C16.4765673,36.4814757 16.2979145,36.8784282 16.3057387,37.7428065 C16.3396436,41.4994723 16.320083,45.2546999 16.3252992,49.0113657 C16.3266032,49.2975741 16.3670283,49.5852208 16.393109,49.9217675 L21.0185216,49.9217675 Z M28.5597568,49.918891 C28.5597568,45.6041906 28.5558447,41.4218077 28.5662769,37.2394248 C28.567581,36.7072784 28.345895,36.5620168 27.9090432,36.569208 C26.8931999,36.5864668 25.8747484,36.6252991 24.8615131,36.5562639 C24.0803961,36.501611 23.8300213,36.7719989 23.8404536,37.6550742 C23.8808787,41.4448194 23.8561021,45.2360028 23.8613182,49.025748 C23.8613182,49.3119565 23.9056554,49.5981649 23.9317361,49.918891 L28.5597568,49.918891 Z M13.4772865,49.8642381 C13.4772865,45.1108765 13.4772865,40.4596295 13.4785905,35.8083825 C13.4785905,33.7588998 13.8606728,33.3446885 15.7489157,33.3446885 C20.2973902,33.3432503 24.8445607,33.3461268 29.3917312,33.347565 C30.9526612,33.3490032 31.3973372,33.8365644 31.3986412,35.5912092 C31.4012493,40.0123389 31.4025533,44.4349068 31.389513,48.8560365 C31.3869049,49.4859827 31.4247219,49.9131381 32.0897798,50.2281112 C32.4875106,50.4165198 32.838296,51.1658394 32.8878493,51.699424 C32.949139,52.3753937 32.5148953,52.937743 31.8328849,53.0901958 C31.5433891,53.1563545 31.242157,53.1923104 30.946141,53.1923104 C25.2605479,53.1980633 19.5762588,53.2009398 13.8919696,53.1937486 C12.6896493,53.1923104 12.122394,52.7579639 12.0167671,51.828865 C11.8837555,50.6538283 12.5579417,50.1792112 13.4772865,49.8642381 Z" id="Fill-7" fill="#676767"></path>
                    <path d="M76.0004308,88.1037443 C76.0004308,83.6879704 76.0082243,79.4209292 75.9770501,75.155332 C75.9757511,74.963279 75.6393288,74.6196053 75.4483864,74.6109413 C74.2884438,74.560401 73.1246045,74.554625 71.9659608,74.6138293 C71.7568334,74.6239374 71.3931336,75.0065993 71.3918347,75.2203123 C71.3554647,79.2938565 71.3580626,83.3674008 71.3801443,87.439501 C71.3814433,87.6618781 71.6191471,88.0705321 71.7555345,88.0748641 C73.1427895,88.1225164 74.5326423,88.1037443 76.0004308,88.1037443 M83.5147285,81.3140226 C83.5147285,79.3602809 83.4978424,77.4065392 83.523821,75.4527975 C83.5329135,74.8333184 83.3900314,74.545961 82.7795353,74.5705091 C81.7079198,74.6138293 80.6337065,74.6008332 79.562091,74.5748411 C79.0697973,74.5632891 78.8580721,74.762562 78.8580721,75.3170608 C78.8645667,79.3241807 78.8658656,83.3313006 78.8541753,87.3384205 C78.8528764,87.9506795 79.0957759,88.1441765 79.616646,88.1326244 C80.6285108,88.1066323 81.6429734,88.0979682 82.6548382,88.1398445 C83.3030032,88.1658366 83.5459028,87.9319074 83.5290167,87.1766917 C83.487451,85.22295 83.5160274,83.2692083 83.5147285,81.3140226 M77.4227568,91.279116 C74.5326423,91.28056 71.6425278,91.270452 68.7511143,91.2863361 C67.9613662,91.2906681 67.3196958,91.0581829 67.0754974,90.1499024 C66.8338968,89.253174 67.171618,88.7376634 68.0964547,88.1282924 C68.3302617,87.9723396 68.4744427,87.445277 68.4770406,87.0871632 C68.5004213,82.615073 68.4926277,78.1429828 68.4887309,73.6694486 C68.4887309,71.9092039 68.9134803,71.4341255 70.486482,71.4341255 C75.0768931,71.4355695 79.6660052,71.4341255 84.2551174,71.4326815 C86.0463389,71.4312375 86.3645762,71.7980153 86.3619784,73.8268454 C86.3554837,78.2007431 86.3619784,82.5731968 86.3528859,86.9470945 C86.3515869,87.5665736 86.3489891,88.050316 87.0633994,88.2972412 C87.7024719,88.5167303 88.0142146,89.2228498 87.8505497,89.9925056 C87.6738955,90.8213658 87.1621179,91.279116 86.3645762,91.279116 C83.3835368,91.277672 80.4037962,91.279116 77.4227568,91.279116" id="Fill-8" fill="#676767"></path>
                    <path d="M21.0212292,81.3306219 C21.0212292,79.3796264 21.0173266,77.4286309 21.0238309,75.4776354 C21.0264326,74.9765285 21.0199283,74.5591801 20.3890079,74.5765094 C19.2572539,74.6082799 18.124199,74.6010593 16.9937459,74.5765094 C16.4707975,74.5649565 16.3277022,74.8436702 16.329003,75.3635505 C16.3355074,79.3651853 16.3368082,83.365376 16.3277022,87.3670107 C16.3264013,87.9201057 16.5397434,88.1381666 17.0236658,88.1309461 C18.037041,88.1193932 19.0504161,88.0905109 20.0611895,88.1439431 C20.7870731,88.1829341 21.0602552,87.9273262 21.0381404,87.0839647 C20.9874066,85.1676279 21.0212292,83.2484029 21.0212292,81.3306219 M28.5428403,81.3869423 C28.5428403,79.4012881 28.5259291,77.417078 28.5519464,75.4328679 C28.5597516,74.790238 28.3633207,74.5505154 27.7779307,74.5721771 C26.7372374,74.609724 25.6926414,74.6053917 24.6506472,74.5721771 C24.096478,74.5548477 23.8389064,74.7295853 23.8415081,75.4039857 C23.8597203,79.3724059 23.8571185,83.3408261 23.8441099,87.3092462 C23.8415081,87.9042204 24.0483459,88.1439431 24.5804004,88.1323902 C25.6236955,88.1121726 26.6669906,88.0948432 27.7089848,88.1424989 C28.3971433,88.1728253 28.5675568,87.8507883 28.555849,87.1402851 C28.5207256,85.2225042 28.5428403,83.3047233 28.5428403,81.3869423 M22.4261652,91.2805546 C19.5304359,91.2805546 16.6360076,91.27189 13.7415792,91.2863311 C12.953254,91.2906634 12.309325,91.0769348 12.0738681,90.1483707 C11.8397121,89.2299154 12.1584244,88.7331408 13.0846415,88.1280578 C13.3227001,87.9720937 13.480105,87.4493251 13.4827067,87.0940735 C13.5074232,82.6548728 13.4970162,78.2142279 13.4944145,73.7750272 C13.4944145,71.8341405 13.8482503,71.4326773 15.5666951,71.4326773 C20.1912762,71.4326773 24.8171581,71.4341214 29.4443409,71.4326773 C30.9793636,71.4326773 31.3735262,71.8760197 31.3735262,73.6277277 C31.3735262,78.0669285 31.3748271,82.5061292 31.3644202,86.94533 C31.3631193,87.5662982 31.3527124,88.0500758 32.0733925,88.2912425 C32.7212241,88.5078593 33.0048131,89.2125861 32.8539125,89.985186 C32.6887025,90.8357681 32.1748601,91.2776664 31.3800306,91.2791105 C28.3945415,91.2805546 25.4116542,91.2791105 22.4261652,91.2805546" id="Fill-9" fill="#676767"></path>
                    <path d="M24.6473741,13.1150217 C27.4460184,13.4378133 27.6105063,13.3019011 27.4800909,10.9113018 C27.4765661,10.8554807 27.4988895,10.781457 27.4718665,10.747479 C27.3379263,10.5848697 27.1981116,10.3081912 27.0477227,10.2996967 C26.281679,10.2535836 25.5109356,10.2778536 24.7084696,10.2778536 C24.6826215,10.5593861 24.6508989,10.745052 24.649724,10.9319313 C24.6438494,11.6466841 24.6473741,12.3602234 24.6473741,13.1150217 M30.0296535,11.7267752 C30.0296535,12.6453964 30.0449273,13.5640175 30.0249538,14.4814252 C30.0061552,15.3235957 29.6184337,15.8259856 28.8136179,15.8466151 C26.9572543,15.8951552 25.098541,15.8927282 23.2421774,15.8393341 C22.4632097,15.8174911 22.0320164,15.2896176 22.0202673,14.4571551 C21.9932442,12.6490369 21.9932442,10.8397051 22.0202673,9.03158688 C22.0331913,8.12510075 22.5149059,7.63605937 23.3819922,7.62513785 C25.1608114,7.60329481 26.9384557,7.60329481 28.7161,7.62635135 C29.5643877,7.63605937 30.0026304,8.1020442 30.0237789,8.97212527 C30.0472772,9.89074642 30.0296535,10.8093676 30.0296535,11.7267752" id="Fill-10" fill="#676767"></path>
                    <path d="M39.6709238,13.0827885 C42.366485,13.4792856 42.5884724,13.3015872 42.478066,10.9322752 C42.4733678,10.8488658 42.5027312,10.7412797 42.462797,10.6892999 C42.3476924,10.5381958 42.2102716,10.2976381 42.0716763,10.2903851 C41.2812133,10.2529113 40.4872267,10.2722526 39.6709238,10.2722526 L39.6709238,13.0827885 Z M41.0345606,7.6128208 C41.8696561,7.6128208 42.7047515,7.6019413 43.5386724,7.61644729 C44.5828353,7.63457978 45.0197629,8.06975953 45.0279846,9.12869692 C45.0409045,10.8742512 45.0373809,12.6210144 45.0232865,14.3665687 C45.0162393,15.3360525 44.5992788,15.8123326 43.6573006,15.8365092 C41.9624445,15.8800272 40.2640647,15.8945332 38.5692086,15.8679389 C37.4804133,15.852224 37.0094242,15.3142935 37.004726,14.2009587 C36.9988534,12.537605 36.9965043,10.8754601 37.0094242,9.21210637 C37.0188205,8.11448634 37.471017,7.64545928 38.5304489,7.62370029 C39.3655443,7.60798547 40.2006398,7.62128263 41.0345606,7.62128263 L41.0345606,7.6128208 Z" id="Fill-11" fill="#676767"></path>
                    <path d="M54.69532,10.2702345 L54.69532,13.109662 L57.4715566,13.109662 C57.4715566,12.2761019 57.496229,11.505452 57.4515836,10.7408512 C57.4421846,10.5763168 57.1919356,10.3004798 57.0403763,10.2920111 C56.2720062,10.2448285 55.4989365,10.2702345 54.69532,10.2702345 Z M60.0304407,11.7014415 C60.0304407,12.5894431 60.0398397,13.4774447 60.0280909,14.3642365 C60.0139924,15.3369249 59.6051349,15.8184299 58.6640577,15.8402065 C56.9146644,15.8837597 55.1629214,15.8934382 53.4123533,15.8656125 C52.5182712,15.8510948 52.0248224,15.30426 52.0142485,14.3799641 C51.9954505,12.6051706 51.9942756,10.8291674 52.0165983,9.05316419 C52.0283471,8.11677012 52.5088722,7.63889459 53.4405504,7.62679648 C55.1640963,7.60501987 56.8888171,7.60139044 58.612363,7.62558667 C59.6027851,7.63889459 60.0222165,8.10830144 60.0316156,9.12091363 C60.0398397,9.98108958 60.0339653,10.8412655 60.0339653,11.7014415 L60.0304407,11.7014415 Z" id="Fill-12" fill="#676767"></path>
                    <path d="M69.6605101,10.2700107 L69.6605101,13.0935683 C72.3254284,13.4931284 72.6522248,13.226755 72.4653161,10.8754047 C72.460614,10.8209192 72.4817734,10.7434288 72.4535608,10.7131591 C72.3077955,10.559389 72.1585037,10.3002804 71.9974566,10.2905941 C71.2521728,10.2445842 70.502187,10.2700107 69.6605101,10.2700107 Z M75.0326657,11.7011621 C75.0326657,12.5898805 75.0408944,13.4785989 75.0314902,14.3673173 C75.0209104,15.3177859 74.5789125,15.8493218 73.6690551,15.8638513 C71.8904837,15.8929102 70.1095612,15.8856455 68.3309898,15.8420571 C67.4622758,15.8190521 67.0202778,15.3008349 67.0120491,14.3903223 C66.9955918,12.6407336 66.9967673,10.8911449 67.0108736,9.14034549 C67.0179268,8.12449436 67.4552226,7.63896837 68.4273829,7.6256497 C70.1800928,7.60143394 71.9339781,7.60385552 73.6855125,7.63049285 C74.5836146,7.64381152 75.0115062,8.11359727 75.0267881,9.03379615 C75.0432454,9.92251455 75.0303147,10.8124437 75.0303147,11.7011621 L75.0326657,11.7011621 Z" id="Fill-13" fill="#676767"></path>
                </g>
            </g>
        </g>
    </g>
</svg>