<?xml version="1.0" encoding="UTF-8"?>
<svg width="102px" height="102px" viewBox="0 0 102 102" version="1.1" xmlns="http://www.w3.org/2000/svg" xmlns:xlink="http://www.w3.org/1999/xlink">
    <!-- Generator: Sketch 52.6 (67491) - http://www.bohemiancoding.com/sketch -->
    <title>Group 37</title>
    <desc>Created with Sketch.</desc>
    <g id="Welcome" stroke="none" stroke-width="1" fill="none" fill-rule="evenodd">
        <g id="Accelerator" transform="translate(-602.000000, -6932.000000)">
            <g id="Group-25" transform="translate(556.000000, 6893.000000)">
                <g id="Group-37" transform="translate(46.000000, 40.000000)">
                    <path d="M4.92755158,48.9918265 L4.92755158,96.0472472 L6.02031068,96.0472472 C13.7376071,96.0472472 21.4549035,96.0472472 29.1747178,96.0447151 C31.503755,96.0447151 32.2842973,95.2496119 32.2868151,92.8794954 C32.289333,86.761759 32.2868151,80.6414904 32.289333,74.5237539 C32.289333,72.6195578 32.9641244,71.657331 34.2834925,71.6775884 C35.5827176,71.6953137 36.2021156,72.594236 36.2021156,74.468046 C36.2021156,80.3072432 36.2021156,86.1464403 36.2046335,91.9856374 C36.2046335,92.4591543 36.1215435,92.8921563 36.7585667,93.1630991 C40.8904046,94.9254934 45.1128862,96.1004229 49.6677277,96.0700368 C60.6204975,95.9966037 71.5732673,96.0472472 82.5235192,96.0447151 C82.8709864,96.0447151 83.2209715,96.0472472 83.5659208,96.0269898 C85.5046869,95.9079776 87.1312362,94.4975557 87.5315788,92.5908274 C88.125798,89.7370654 86.0913525,87.2605976 83.0598273,87.2327437 C79.7236388,87.1972932 76.3849324,87.2276793 73.0487439,87.2200828 C71.580821,87.2175506 70.7171888,86.4832197 70.7171888,85.2728397 C70.7146709,84.0725884 71.580821,83.3129357 73.046226,83.3078714 C77.7748011,83.2926783 82.5033762,83.302807 87.2319513,83.3002748 C87.6851694,83.3002748 88.1383874,83.3002748 88.5865697,83.25976 C90.6310867,83.0749112 92.277779,81.5074944 92.5194953,79.5399939 C92.7863904,77.3724515 91.6407559,75.4176119 89.6289713,74.7668428 C88.9491442,74.5465435 88.1962986,74.4832391 87.4761855,74.4781747 C82.818111,74.4553852 78.1575186,74.468046 73.4994441,74.4655139 C73.1167266,74.4655139 72.7314912,74.4756426 72.3538095,74.424999 C71.394498,74.2907937 70.7348139,73.5184802 70.7146709,72.5537212 C70.6970457,71.5509796 71.3869443,70.7356191 72.3890598,70.6064781 C72.7667415,70.5583668 73.1519769,70.5684955 73.5346944,70.5684955 C79.7941394,70.5684955 86.0510665,70.5659633 92.3105114,70.5710277 C93.4913963,70.5710277 94.5866733,70.330471 95.5233239,69.5682861 C96.945925,68.4085496 97.5023761,66.4866283 96.9207463,64.7470236 C96.3089019,62.9137284 94.7427817,61.769185 92.7108541,61.7641206 C86.3129258,61.7463954 79.9175154,61.7590563 73.5195871,61.7514597 C73.0688869,61.7489276 72.6081152,61.7362667 72.1750402,61.6324475 C71.2232823,61.4045517 70.649206,60.5664015 70.7272603,59.6092391 C70.8027966,58.6546089 71.497731,57.9304066 72.4696319,57.8265874 C72.8145812,57.791137 73.1645663,57.8037979 73.5120335,57.8037979 C78.1373756,57.8037979 82.7601998,57.7987335 87.3855419,57.8088622 C88.8207324,57.8113944 90.067082,57.3758602 90.9936612,56.2541063 C92.1644745,54.8436845 92.4338875,53.2332207 91.6533453,51.5569204 C90.8778388,49.893281 89.5232204,49.0019552 87.67258,48.999423 C79.8168003,48.9867621 71.9585027,48.9361186 64.1002051,49.0298091 C61.8995796,49.0551309 60.7363199,47.7839787 61.5772912,45.5784536 C62.8538554,42.2233209 63.8836676,38.7744976 65.0242663,35.3661891 C65.6537359,33.4898469 65.7217186,31.603376 65.1728212,29.6991799 C64.143009,26.1085548 60.5928009,23.1079266 57.2717196,23.04209 C57.1357542,23.3839338 56.9897173,23.7359062 56.8613055,24.0954751 C55.4563295,28.00009 54.0589072,31.9072371 52.6514133,35.8143842 C50.674879,41.3016089 47.1548854,45.4594414 42.0561822,48.265092 C40.3817933,49.186804 38.7174758,50.1313055 37.0179081,51.0074383 C36.4110995,51.3214281 36.1643474,51.6734005 36.1844905,52.3773454 C36.2398838,54.1574649 36.2096692,55.9426487 36.1995977,57.7253004 C36.1920441,59.1787692 35.4442343,60.0852881 34.2633495,60.0903525 C33.1000898,60.0954168 32.309476,59.1711727 32.2943688,57.7354291 C32.2742257,55.846426 32.2943688,53.9599552 32.2868151,52.0709521 C32.2792615,49.7945262 31.4710226,48.9943586 29.1948608,48.9943586 C21.4775644,48.9918265 13.7577501,48.9918265 6.03793582,48.9918265 L4.92755158,48.9918265 Z M101.072727,67.4741768 C100.566634,69.1504771 100.005147,70.8318418 98.6329034,71.9941104 C97.587984,72.8803719 96.3869561,73.5767202 95.2438394,74.366759 C98.2501859,79.6032983 95.6064139,85.4197059 90.233262,87.0808131 C91.6029877,89.4002861 91.9529728,91.8488999 91.0691975,94.4139939 C89.9462239,97.6830327 86.9096629,99.9670552 83.4702414,99.9746517 C71.6160712,100.005038 59.7619011,100.017699 47.9077309,99.9569265 C44.0453059,99.9366691 40.3591324,98.8908805 36.8038885,97.3968969 C36.358224,97.2095159 35.905006,97.0449244 35.3762516,96.837286 C34.3011176,98.4249602 32.8911059,99.5543106 30.9649291,99.8733647 C30.4210675,99.9619908 29.8595806,99.9898448 29.3056475,99.9898448 C20.7196831,99.9974413 12.1312009,99.9974413 3.54523649,99.9949091 C1.55611279,99.9949091 0.929161136,99.3643974 0.929161136,97.3639786 C0.926643258,80.7934209 0.926643258,64.220331 0.929161136,47.6497734 C0.929161136,45.669612 1.5661843,45.0391002 3.57041528,45.0391002 C12.0178963,45.036568 20.4678953,45.0694863 28.9153763,45.021375 C31.3174321,45.0061819 33.364467,45.6290972 34.9230335,47.5687437 C41.0238522,44.7504322 46.5984343,41.4535395 48.9501325,34.5634894 C50.5842354,29.7751452 52.3643752,25.0425088 54.0815681,20.2845507 C54.6959303,18.5930574 55.4714368,18.213231 57.2163263,18.7373914 C58.2159239,19.0361881 59.2155215,19.3248561 60.2075655,19.6439103 C67.2475527,21.9152719 71.0445129,29.2839031 68.8036014,36.3765272 C68.0155055,38.8681881 67.1543912,41.3421237 66.3310451,43.8211237 C66.2101869,44.1806927 66.0994003,44.5402616 65.940774,45.036568 L67.1770521,45.036568 C73.7134637,45.036568 80.254911,45.2264812 86.783769,44.9884567 C93.8539707,44.7276426 98.3005435,51.8455885 94.6823526,57.935471 C95.3495903,58.2216068 96.0344532,58.4621635 96.6689585,58.7989429 C99.1490684,60.1080777 100.445776,62.2933453 101.072727,64.9571942 L101.072727,67.4741768 Z" id="Fill-1" fill="#676767"></path>
                    <path d="M4.92755158,48.9918265 L4.92755158,96.0472472 L6.02031068,96.0472472 C13.7376071,96.0472472 21.4549035,96.0472472 29.1747178,96.0447151 C31.503755,96.0447151 32.2842973,95.2496119 32.2868151,92.8794954 C32.289333,86.761759 32.2868151,80.6414904 32.289333,74.5237539 C32.289333,72.6195578 32.9641244,71.657331 34.2834925,71.6775884 C35.5827176,71.6953137 36.2021156,72.594236 36.2021156,74.468046 C36.2021156,80.3072432 36.2021156,86.1464403 36.2046335,91.9856374 C36.2046335,92.4591543 36.1215435,92.8921563 36.7585667,93.1630991 C40.8904046,94.9254934 45.1128862,96.1004229 49.6677277,96.0700368 C60.6204975,95.9966037 71.5732673,96.0472472 82.5235192,96.0447151 C82.8709864,96.0447151 83.2209715,96.0472472 83.5659208,96.0269898 C85.5046869,95.9079776 87.1312362,94.4975557 87.5315788,92.5908274 C88.125798,89.7370654 86.0913525,87.2605976 83.0598273,87.2327437 C79.7236388,87.1972932 76.3849324,87.2276793 73.0487439,87.2200828 C71.580821,87.2175506 70.7171888,86.4832197 70.7171888,85.2728397 C70.7146709,84.0725884 71.580821,83.3129357 73.046226,83.3078714 C77.7748011,83.2926783 82.5033762,83.302807 87.2319513,83.3002748 C87.6851694,83.3002748 88.1383874,83.3002748 88.5865697,83.25976 C90.6310867,83.0749112 92.277779,81.5074944 92.5194953,79.5399939 C92.7863904,77.3724515 91.6407559,75.4176119 89.6289713,74.7668428 C88.9491442,74.5465435 88.1962986,74.4832391 87.4761855,74.4781747 C82.818111,74.4553852 78.1575186,74.468046 73.4994441,74.4655139 C73.1167266,74.4655139 72.7314912,74.4756426 72.3538095,74.424999 C71.394498,74.2907937 70.7348139,73.5184802 70.7146709,72.5537212 C70.6970457,71.5509796 71.3869443,70.7356191 72.3890598,70.6064781 C72.7667415,70.5583668 73.1519769,70.5684955 73.5346944,70.5684955 C79.7941394,70.5684955 86.0510665,70.5659633 92.3105114,70.5710277 C93.4913963,70.5710277 94.5866733,70.330471 95.5233239,69.5682861 C96.945925,68.4085496 97.5023761,66.4866283 96.9207463,64.7470236 C96.3089019,62.9137284 94.7427817,61.769185 92.7108541,61.7641206 C86.3129258,61.7463954 79.9175154,61.7590563 73.5195871,61.7514597 C73.0688869,61.7489276 72.6081152,61.7362667 72.1750402,61.6324475 C71.2232823,61.4045517 70.649206,60.5664015 70.7272603,59.6092391 C70.8027966,58.6546089 71.497731,57.9304066 72.4696319,57.8265874 C72.8145812,57.791137 73.1645663,57.8037979 73.5120335,57.8037979 C78.1373756,57.8037979 82.7601998,57.7987335 87.3855419,57.8088622 C88.8207324,57.8113944 90.067082,57.3758602 90.9936612,56.2541063 C92.1644745,54.8436845 92.4338875,53.2332207 91.6533453,51.5569204 C90.8778388,49.893281 89.5232204,49.0019552 87.67258,48.999423 C79.8168003,48.9867621 71.9585027,48.9361186 64.1002051,49.0298091 C61.8995796,49.0551309 60.7363199,47.7839787 61.5772912,45.5784536 C62.8538554,42.2233209 63.8836676,38.7744976 65.0242663,35.3661891 C65.6537359,33.4898469 65.7217186,31.603376 65.1728212,29.6991799 C64.143009,26.1085548 60.5928009,23.1079266 57.2717196,23.04209 C57.1357542,23.3839338 56.9897173,23.7359062 56.8613055,24.0954751 C55.4563295,28.00009 54.0589072,31.9072371 52.6514133,35.8143842 C50.674879,41.3016089 47.1548854,45.4594414 42.0561822,48.265092 C40.3817933,49.186804 38.7174758,50.1313055 37.0179081,51.0074383 C36.4110995,51.3214281 36.1643474,51.6734005 36.1844905,52.3773454 C36.2398838,54.1574649 36.2096692,55.9426487 36.1995977,57.7253004 C36.1920441,59.1787692 35.4442343,60.0852881 34.2633495,60.0903525 C33.1000898,60.0954168 32.309476,59.1711727 32.2943688,57.7354291 C32.2742257,55.846426 32.2943688,53.9599552 32.2868151,52.0709521 C32.2792615,49.7945262 31.4710226,48.9943586 29.1948608,48.9943586 C21.4775644,48.9918265 13.7577501,48.9918265 6.03793582,48.9918265 L4.92755158,48.9918265 Z M101.072727,67.4741768 C100.566634,69.1504771 100.005147,70.8318418 98.6329034,71.9941104 C97.587984,72.8803719 96.3869561,73.5767202 95.2438394,74.366759 C98.2501859,79.6032983 95.6064139,85.4197059 90.233262,87.0808131 C91.6029877,89.4002861 91.9529728,91.8488999 91.0691975,94.4139939 C89.9462239,97.6830327 86.9096629,99.9670552 83.4702414,99.9746517 C71.6160712,100.005038 59.7619011,100.017699 47.9077309,99.9569265 C44.0453059,99.9366691 40.3591324,98.8908805 36.8038885,97.3968969 C36.358224,97.2095159 35.905006,97.0449244 35.3762516,96.837286 C34.3011176,98.4249602 32.8911059,99.5543106 30.9649291,99.8733647 C30.4210675,99.9619908 29.8595806,99.9898448 29.3056475,99.9898448 C20.7196831,99.9974413 12.1312009,99.9974413 3.54523649,99.9949091 C1.55611279,99.9949091 0.929161136,99.3643974 0.929161136,97.3639786 C0.926643258,80.7934209 0.926643258,64.220331 0.929161136,47.6497734 C0.929161136,45.669612 1.5661843,45.0391002 3.57041528,45.0391002 C12.0178963,45.036568 20.4678953,45.0694863 28.9153763,45.021375 C31.3174321,45.0061819 33.364467,45.6290972 34.9230335,47.5687437 C41.0238522,44.7504322 46.5984343,41.4535395 48.9501325,34.5634894 C50.5842354,29.7751452 52.3643752,25.0425088 54.0815681,20.2845507 C54.6959303,18.5930574 55.4714368,18.213231 57.2163263,18.7373914 C58.2159239,19.0361881 59.2155215,19.3248561 60.2075655,19.6439103 C67.2475527,21.9152719 71.0445129,29.2839031 68.8036014,36.3765272 C68.0155055,38.8681881 67.1543912,41.3421237 66.3310451,43.8211237 C66.2101869,44.1806927 66.0994003,44.5402616 65.940774,45.036568 L67.1770521,45.036568 C73.7134637,45.036568 80.254911,45.2264812 86.783769,44.9884567 C93.8539707,44.7276426 98.3005435,51.8455885 94.6823526,57.935471 C95.3495903,58.2216068 96.0344532,58.4621635 96.6689585,58.7989429 C99.1490684,60.1080777 100.445776,62.2933453 101.072727,64.9571942 L101.072727,67.4741768 Z" id="Stroke-3" stroke="#676767" stroke-width="0.2"></path>
                    <path d="M60.8471246,0 C61.03292,0.131523942 61.2259542,0.251091162 61.399685,0.392180482 C62.2635131,1.08567036 62.3720948,2.30286466 61.6506295,3.09200831 C60.9146866,3.89550003 59.6647901,3.9098481 58.9191955,3.12070445 C58.1808397,2.33873483 58.2677051,1.13588859 59.1194685,0.413702582 C59.2883734,0.267830573 59.4717559,0.138697975 59.6478996,0 L60.8471246,0 Z" id="Fill-5" fill="#676767"></path>
                    <path d="M60.8471246,0 C61.03292,0.131523942 61.2259542,0.251091162 61.399685,0.392180482 C62.2635131,1.08567036 62.3720948,2.30286466 61.6506295,3.09200831 C60.9146866,3.89550003 59.6647901,3.9098481 58.9191955,3.12070445 C58.1808397,2.33873483 58.2677051,1.13588859 59.1194685,0.413702582 C59.2883734,0.267830573 59.4717559,0.138697975 59.6478996,0 L60.8471246,0 Z" id="Stroke-7" stroke="#676767" stroke-width="0.2"></path>
                    <path d="M39.9159208,25.9290154 C41.6953243,25.9290154 43.4770754,25.9195539 45.2541314,25.9337461 C46.4842204,25.9432076 47.2518522,26.6220675 47.2894122,27.6888473 C47.3293197,28.8123959 46.5687303,29.6024279 45.3128188,29.6118894 C41.6882819,29.635543 38.0637449,29.635543 34.4415554,29.6118894 C33.1809489,29.6047933 32.4227071,28.8242227 32.455572,27.6983087 C32.488437,26.6291636 33.2560689,25.9432076 34.4791154,25.9337461 C36.2913838,25.9195539 38.1036523,25.9290154 39.9159208,25.9290154" id="Fill-9" fill="#676767"></path>
                    <path d="M39.9159208,25.9290154 C41.6953243,25.9290154 43.4770754,25.9195539 45.2541314,25.9337461 C46.4842204,25.9432076 47.2518522,26.6220675 47.2894122,27.6888473 C47.3293197,28.8123959 46.5687303,29.6024279 45.3128188,29.6118894 C41.6882819,29.635543 38.0637449,29.635543 34.4415554,29.6118894 C33.1809489,29.6047933 32.4227071,28.8242227 32.455572,27.6983087 C32.488437,26.6291636 33.2560689,25.9432076 34.4791154,25.9337461 C36.2913838,25.9195539 38.1036523,25.9290154 39.9159208,25.9290154 Z" id="Stroke-11" stroke="#676767" stroke-width="0.2"></path>
                    <path d="M75.0899513,29.6262054 C73.3450058,29.6262054 71.6024025,29.6356787 69.8597993,29.6214687 C68.5270825,29.6119953 67.6932562,28.8872834 67.690914,27.7765321 C67.6885718,26.6586757 68.5200559,25.9339638 69.8527726,25.9292271 C73.3731123,25.9244904 76.893452,25.9244904 80.4114494,25.9315954 C81.6879531,25.9339638 82.4960151,26.6349923 82.5264639,27.7196919 C82.5569126,28.8422849 81.7254285,29.609627 80.418476,29.6214687 C78.6430819,29.6380471 76.8653455,29.623837 75.0899513,29.6262054" id="Fill-13" fill="#676767"></path>
                    <path d="M75.0899513,29.6262054 C73.3450058,29.6262054 71.6024025,29.6356787 69.8597993,29.6214687 C68.5270825,29.6119953 67.6932562,28.8872834 67.690914,27.7765321 C67.6885718,26.6586757 68.5200559,25.9339638 69.8527726,25.9292271 C73.3731123,25.9244904 76.893452,25.9244904 80.4114494,25.9315954 C81.6879531,25.9339638 82.4960151,26.6349923 82.5264639,27.7196919 C82.5569126,28.8422849 81.7254285,29.609627 80.418476,29.6214687 C78.6430819,29.6380471 76.8653455,29.623837 75.0899513,29.6262054 Z" id="Stroke-15" stroke="#676767" stroke-width="0.2"></path>
                    <path d="M69.3486703,18.5185185 C68.781427,18.0767223 68.0514094,17.7743164 67.8442423,17.2734565 C67.6198112,16.7324333 67.6222775,15.7779645 67.9823537,15.4023196 C69.8838521,13.4083303 71.9012654,11.5112054 73.9408752,9.64479362 C74.628966,9.01635624 75.7905818,9.20299742 76.4342797,9.866873 C77.1248368,10.5803621 77.1593646,11.5679065 76.4219483,12.3404593 C75.5266903,13.2760277 74.5648429,14.1525325 73.6276582,15.0526627 C72.739799,15.9079046 71.8766026,16.7867719 70.9468168,17.5947628 C70.5398813,17.9467823 69.9948345,18.1546863 69.3486703,18.5185185" id="Fill-17" fill="#676767"></path>
                    <path d="M69.3486703,18.5185185 C68.781427,18.0767223 68.0514094,17.7743164 67.8442423,17.2734565 C67.6198112,16.7324333 67.6222775,15.7779645 67.9823537,15.4023196 C69.8838521,13.4083303 71.9012654,11.5112054 73.9408752,9.64479362 C74.628966,9.01635624 75.7905818,9.20299742 76.4342797,9.866873 C77.1248368,10.5803621 77.1593646,11.5679065 76.4219483,12.3404593 C75.5266903,13.2760277 74.5648429,14.1525325 73.6276582,15.0526627 C72.739799,15.9079046 71.8766026,16.7867719 70.9468168,17.5947628 C70.5398813,17.9467823 69.9948345,18.1546863 69.3486703,18.5185185 Z" id="Stroke-19" stroke="#676767" stroke-width="0.2"></path>
                    <path d="M47.3893567,18.5185185 C46.7356994,18.1516027 46.1792403,17.9622267 45.7953078,17.5976781 C44.0141525,15.9217011 42.2694466,14.2078489 40.5320304,12.4868951 C39.6791171,11.641805 39.6621074,10.524487 40.4324024,9.78592086 C41.1735379,9.07576112 42.3010359,9.06865952 43.1320797,9.85693684 C44.9545442,11.5849922 46.7405593,13.3485556 48.5362943,15.1097517 C49.1413525,15.7039187 49.3454685,16.4779929 48.9202268,17.1668478 C48.5946132,17.6947332 47.9531057,18.0403443 47.3893567,18.5185185" id="Fill-21" fill="#676767"></path>
                    <path d="M47.3893567,18.5185185 C46.7356994,18.1516027 46.1792403,17.9622267 45.7953078,17.5976781 C44.0141525,15.9217011 42.2694466,14.2078489 40.5320304,12.4868951 C39.6791171,11.641805 39.6621074,10.524487 40.4324024,9.78592086 C41.1735379,9.07576112 42.3010359,9.06865952 43.1320797,9.85693684 C44.9545442,11.5849922 46.7405593,13.3485556 48.5362943,15.1097517 C49.1413525,15.7039187 49.3454685,16.4779929 48.9202268,17.1668478 C48.5946132,17.6947332 47.9531057,18.0403443 47.3893567,18.5185185 Z" id="Stroke-23" stroke="#676767" stroke-width="0.2"></path>
                    <path d="M62.1132807,11.9910955 C62.1132807,12.8435942 62.1491003,13.7014885 62.1061168,14.5512894 C62.0368656,15.859713 61.2774905,16.6852339 60.2363347,16.6663494 C59.1904029,16.6501627 58.4572955,15.7895707 58.4381917,14.4838449 C58.4119241,12.8489898 58.4119241,11.2168325 58.4358038,9.58197739 C58.4572955,8.29513601 59.2142827,7.42105508 60.2458866,7.40756617 C61.2751025,7.39407727 62.0177618,8.2411804 62.1156687,9.54151068 C62.1204446,9.61435075 62.1228326,9.68719083 62.1228326,9.76272869 C62.1228326,10.5046184 62.1228326,11.2492058 62.1228326,11.9910955 L62.1132807,11.9910955 Z" id="Fill-25" fill="#676767"></path>
                    <path d="M62.1132807,11.9910955 C62.1132807,12.8435942 62.1491003,13.7014885 62.1061168,14.5512894 C62.0368656,15.859713 61.2774905,16.6852339 60.2363347,16.6663494 C59.1904029,16.6501627 58.4572955,15.7895707 58.4381917,14.4838449 C58.4119241,12.8489898 58.4119241,11.2168325 58.4358038,9.58197739 C58.4572955,8.29513601 59.2142827,7.42105508 60.2458866,7.40756617 C61.2751025,7.39407727 62.0177618,8.2411804 62.1156687,9.54151068 C62.1204446,9.61435075 62.1228326,9.68719083 62.1228326,9.76272869 C62.1228326,10.5046184 62.1228326,11.2492058 62.1228326,11.9910955 L62.1132807,11.9910955 Z" id="Stroke-27" stroke="#676767" stroke-width="0.2"></path>
                    <path d="M23.1409213,85.44047 C22.2566724,85.4660772 21.5692073,86.2266092 21.6177643,87.122859 C21.6637657,87.9781374 22.3588977,88.6131945 23.2252572,88.5927088 C24.0737272,88.5747838 24.7663036,87.8757089 24.7714149,87.0409162 C24.7765262,86.1753949 24.0021695,85.4174236 23.1409213,85.44047 M23.2227016,81.4816064 C26.2766825,81.5020921 28.7352011,83.9706203 28.7454236,87.0204305 C28.7556461,90.0958478 26.2306811,92.6053474 23.1409213,92.5925438 C20.1124967,92.5797402 17.6233105,90.0804835 17.6181992,87.0460376 C17.6105324,83.9629381 20.1329417,81.4611207 23.2227016,81.4816064" id="Fill-29" fill="#676767"></path>
                    <path d="M23.1409213,85.44047 C22.2566724,85.4660772 21.5692073,86.2266092 21.6177643,87.122859 C21.6637657,87.9781374 22.3588977,88.6131945 23.2252572,88.5927088 C24.0737272,88.5747838 24.7663036,87.8757089 24.7714149,87.0409162 C24.7765262,86.1753949 24.0021695,85.4174236 23.1409213,85.44047 Z M23.2227016,81.4816064 C26.2766825,81.5020921 28.7352011,83.9706203 28.7454236,87.0204305 C28.7556461,90.0958478 26.2306811,92.6053474 23.1409213,92.5925438 C20.1124967,92.5797402 17.6233105,90.0804835 17.6181992,87.0460376 C17.6105324,83.9629381 20.1329417,81.4611207 23.2227016,81.4816064 Z" id="Stroke-31" stroke="#676767" stroke-width="0.2"></path>
                    <path d="M34.3016517,66.6666181 C33.2867307,66.6594131 32.4642119,65.8380498 32.4545918,64.8293579 C32.4473767,63.8350759 33.2843257,62.9824912 34.2824115,62.963278 C35.3310028,62.9440648 36.187192,63.8062562 36.1631418,64.8605793 C36.1414965,65.8788778 35.3213827,66.673823 34.3016517,66.6666181" id="Fill-33" fill="#676767"></path>
                    <path d="M34.3016517,66.6666181 C33.2867307,66.6594131 32.4642119,65.8380498 32.4545918,64.8293579 C32.4473767,63.8350759 33.2843257,62.9824912 34.2824115,62.963278 C35.3310028,62.9440648 36.187192,63.8062562 36.1631418,64.8605793 C36.1414965,65.8788778 35.3213827,66.673823 34.3016517,66.6666181 Z" id="Stroke-35" stroke="#676767" stroke-width="0.2"></path>
                </g>
            </g>
        </g>
    </g>
</svg>