<?xml version="1.0" encoding="utf-8"?>
<!-- Generator: Adobe Illustrator 23.0.1, SVG Export Plug-In . SVG Version: 6.00 Build 0)  -->
<svg version="1.1" id="Layer_1" xmlns="http://www.w3.org/2000/svg" xmlns:xlink="http://www.w3.org/1999/xlink" x="0px" y="0px"
	 viewBox="0 0 369.4 124.7" style="enable-background:new 0 0 369.4 124.7;" xml:space="preserve">
<style type="text/css">
	.st0{fill:#2D2D2D;}
</style>
<g>
	<path class="st0" d="M314.1,66.5c-1.4,6.8-1.1,7.2,5.8,7.3c11,0.3,22-0.2,32.8,1.2c11.1,1.4,15.7,7.1,16.6,18.5
		c0.4,5.2-0.1,10.7-1.2,15.8c-2,8.7-8.9,12.5-17.1,13.8c-13.4,2.2-26.8,2.4-40.1-0.5c-9.9-2.2-14.8-8.1-14.9-18.3
		c-0.2-24.1-0.2-48.3,0.1-72.4c0.1-10.1,5.9-16.8,16.1-17.6c10.9-0.8,21.9-0.3,32.8-0.4c1.5,0,3,0,4.9,0c0.1-1.7,0.2-3.3,0.3-4.9
		c0.3-6.2,3.3-9,9.5-8.9c6.2,0.1,8.9,2.9,8.9,9.3c0,11,0.1,22,0,33c-0.1,15.1-7.4,22.5-22.6,23.2c-5.3,0.3-10.6,0.7-15.9,0.9
		C324.7,66.6,319.4,66.5,314.1,66.5z M330.7,49C330.7,49,330.7,49,330.7,49c3.5-0.1,7,0.2,10.4-0.1c7.6-0.6,12.5-10.5,8.5-16.9
		c-0.5-0.8-1.9-1.3-2.9-1.3c-8.4-0.1-16.9-0.4-25.3,0c-5.8,0.3-8.2,4-7.9,10.5c0.3,5.5,2.6,7.6,8.7,7.8C325,49.1,327.9,49,330.7,49z
		 M328.6,89.1c0,0.1,0,0.3,0,0.4c-3.8,0-7.6-0.1-11.4,0c-1.1,0-2.6,0.2-3.2,0.9c-3.1,3.7,0.3,15.2,5.2,15.6c8.6,0.8,17.4,0.7,26,0.2
		c4-0.2,6.5-3.5,6.3-7.7c-0.1-4.2-2.3-7.4-6.7-8C339.5,89.9,334.1,89.6,328.6,89.1z"/>
	<path class="st0" d="M130.9,64c0-7.2,0.1-14.3,0-21.5c-0.1-7.8-3.1-10.7-10.9-11.1c-15-0.7-17.5,1.7-17.5,16.7c0,12.5,0,25,0,37.5
		c0,5.8-2.6,8.6-8.3,8.9c-6.5,0.4-11-2.1-10.9-7.5c0.1-18.8,0-37.6,1.6-56.3c1.3-14.2,10.3-16.8,23-17.6c10.6-0.7,21.3-0.5,31.3,4.1
		c1,0.4,2.6,0.1,3.7-0.3c12.8-5,26-4.9,39.3-2.5c9.4,1.7,14.9,9,15.3,20.1c0.6,16.8,0.8,33.6,1,50.4c0.1,6.8-3.4,9.9-10.3,9.7
		c-6.5-0.1-9.1-2.9-9.1-9.7c0-12.8,0.1-25.7,0-38.5c0-2.8-0.5-5.6-1-8.4c-0.2-1.1-0.6-2.4-1.4-3.1c-5.6-5.8-12.8-3.7-19.3-2.9
		c-5.3,0.7-6.6,5.6-6.7,10.4c-0.1,13.8-0.4,27.7,0,41.5c0.3,8.7-4.9,11.3-11.8,10.7c-5.1-0.5-7.7-3.3-7.8-8.5
		C130.9,78.6,131,71.3,130.9,64C131,64,130.9,64,130.9,64z"/>
	<path class="st0" d="M50,45c0-2.9,0-4.9,0-6.9c0.1-3.8-1.7-6.5-5.4-6.5c-8.2-0.2-16.5,0.2-24.7,0.4c-2,0.1-3.9,0.5-5.9,0.5
		C8.3,32.6,5.7,30.6,5,26c-0.9-6,0.9-9.7,6.6-11c13.9-3,28-3.1,42-0.4c11,2.1,15.4,10.2,15.6,20.3c0.3,14.8-0.1,29.6-0.7,44.3
		c-0.3,8.4-5.6,14.2-13.7,14.7c-13.7,0.9-27.4,0.8-41.1-0.1C6,93.3,1.5,87.6,0.8,79.6c-0.4-5.1-1.1-10.3-0.7-15.4
		C1.3,51,7.7,45.5,22,45c7.3-0.2,14.6-0.1,22-0.1C45.7,45,47.5,45,50,45z M49.9,61.5c-8.2,0-15.5-0.1-22.8,0
		c-5.5,0.1-7.8,2.3-8.1,7.3c-0.4,5.1,2.1,8.5,7.3,8.9c5.8,0.4,11.7,0.6,17.4-0.1c2.3-0.3,5.3-3,6-5.3C50.7,69.3,49.9,65.6,49.9,61.5
		z"/>
	<path class="st0" d="M262,44.3c0-2.2,0-4.3,0-6.5c0.1-3.5-1.6-6.2-5-6.2c-8.2-0.2-16.5,0.1-24.8,0.3c-2,0-3.9,0.6-5.9,0.6
		c-6,0.1-8.5-1.9-9.3-7.3c-0.7-5.3,1.5-9.1,7.1-10.2c14-2.9,28.1-3.4,42-0.2c10.2,2.3,15.1,9.1,15.3,20.5c0.2,13.3,0.2,26.7,0,40
		c-0.2,12.5-5.5,18.1-20.8,19.8c-9.7,1.1-19.7,0.8-29.4-0.4c-14.6-1.9-17.4-5-18.9-19.6c-0.6-5.7,0.1-11.7,1.3-17.3
		c1.9-8.5,9.1-12.6,21.2-12.8c8.5-0.2,17-0.1,25.5-0.2C260.6,44.8,260.9,44.7,262,44.3z M261.4,61.5c-7.7,0-15.1-0.1-22.5,0
		c-5.6,0.1-8.2,2.6-8.3,7.7c-0.2,4.9,2.5,8.1,7.7,8.6c3.5,0.4,7,0.7,10.4,0.4C262.1,77.4,263.1,76,261.4,61.5z"/>
</g>
</svg>
