<?xml version="1.0" encoding="utf-8"?>
<!-- Generator: Adobe Illustrator 23.0.1, SVG Export Plug-In . SVG Version: 6.00 Build 0)  -->
<svg version="1.1" id="Layer_1" xmlns="http://www.w3.org/2000/svg" xmlns:xlink="http://www.w3.org/1999/xlink" x="0px" y="0px"
	 viewBox="0 0 466.4 98.1" style="enable-background:new 0 0 466.4 98.1;" xml:space="preserve">
<style type="text/css">
	.st0{fill:#383838;}
</style>
<g>
	<path class="st0" d="M0,3.1c7.3,0,14.4,0,21.8,0c0,12.2,0,24.2,0,36.9c1-0.9,1.5-1.3,1.9-1.8c6.5-7.4,14.8-9.1,24-7.4
		c10.1,1.9,16.7,8.8,17.3,19.8c0.8,14.7,0.4,29.4,0.5,44.1c0,0.3-0.2,0.5-0.4,0.9c-7,0-14.1,0-21.5,0c-0.1-1.1-0.2-2.2-0.2-3.3
		c0-9.3,0.1-18.6,0-27.9c0-3.1-0.4-6.2-1-9.2c-0.7-3.5-2.8-6-6.5-6.7c-4-0.7-7.8-0.2-10.6,3.2c-2.6,3.2-3.3,7-3.3,11
		c0,9.7,0,19.4,0,29.1c0,1.1,0,2.2,0,3.6c-7.4,0-14.6,0-22,0C0,64.9,0,34.1,0,3.1z"/>
	<path class="st0" d="M443.9,95.9c0-2.3,0-4.1,0-6.7c-3.6,4.3-7.6,7-12.5,8.1c-16.5,3.8-32.7-6.6-37-23.8
		c-4-16.1,2.7-32.5,16.3-39.6c10.7-5.6,22.5-4.4,31.9,3.3c0.3,0.2,0.6,0.4,1.3,0.9c0.2-2,0.3-3.7,0.5-5.7c6.9,0,13.7,0,20.5,0.1
		c0.5,0,1.2,0.8,1.4,1.4c0.3,0.8,0.1,1.8,0.1,2.7c0,18.6,0,37.2,0.1,55.8c0,2.6-0.6,3.7-3.5,3.6C456.8,95.7,450.6,95.9,443.9,95.9z
		 M430.9,78.4c7.7,0.1,13.8-5.7,14-13.4c0.2-7.7-6.3-14.5-14-14.6c-8-0.1-14.6,6.2-14.6,14.2C416.2,72.9,421.9,78.3,430.9,78.4z"/>
	<path class="st0" d="M140.6,68.1c-15.3,0-30.6,0-46.2,0c-0.2,4.4,0.8,8,3.8,10.8c5.2,4.8,15.1,4.1,19.7-1.2
		c0.6-0.7,1.6-1.4,2.4-1.4c5.8-0.1,11.6-0.1,17.4-0.1c0.7,0,1.4,0.1,2.5,0.1c-0.3,1.2-0.5,2.2-0.9,3.2
		c-4.5,11.6-13.8,16.7-25.4,18.1c-9,1.1-17.8,0.2-25.9-4.4C76.2,86.7,71.8,76,72.1,62.9c0.2-8.3,2.5-16,8.4-22.2
		c8.6-9,19.6-11.3,31.4-10c22.4,2.5,29.7,19.5,29.1,36.2C141,67.2,140.8,67.5,140.6,68.1z M94.8,55.1c7.9,0,15.5,0,23.2,0
		c0.6,0,1.1-0.1,1.7-0.1c-0.5-5.2-5.7-9.7-11.4-10C101.8,44.6,96,48.8,94.8,55.1z"/>
	<path class="st0" d="M314.6,68.1c-15.3,0-30.6,0-45.9,0c-1.4,6.7,2.9,12.5,10.2,13.8c5.1,0.9,9.8,0.1,13.1-4.5
		c0.4-0.6,1.2-1.1,1.9-1.1c6.6-0.1,13.2-0.1,20.1-0.1c-0.8,4.9-3,8.7-6.1,12c-5.2,5.6-11.9,8.4-19.3,9.3
		c-10.2,1.2-20.1,0.3-28.8-5.6c-11.3-7.6-14.8-18.8-13.6-31.6c1.7-17.8,14.5-29.4,32.4-29.8c3.4-0.1,6.8,0.1,10.1,0.7
		C305.8,34,318.1,51.4,314.6,68.1z M293.8,55c-0.9-6.3-6.7-10.4-13.6-9.9c-6.2,0.4-11.2,4.8-11.3,9.9C277.1,55,285.3,55,293.8,55z"
		/>
	<path class="st0" d="M171.7,32.4c8.2,0,15.8-0.1,23.4,0.1c0.9,0,2.1,1.3,2.6,2.2c4.3,9,8.5,18.1,12.7,27.2c0.3,0.7,0.7,1.4,1.4,2.6
		c0.7-1.4,1.2-2.4,1.7-3.4c4-8.8,8.1-17.6,12-26.4c0.8-1.7,1.8-2.3,3.6-2.3c7.2,0.1,14.3,0,22,0c-0.6,1.3-0.9,2.2-1.3,3.1
		c-9.9,19.3-19.8,38.6-29.6,57.9c-1,1.9-0.6,2.3-3.5,3.6c-1.1,0.2-1.8,0.3-3.3,0.2c-6.5-0.3-5.9-0.1-8.3-2c-1.9-1.5-3.6-4.6-5-7.6
		c-8.4-17.5-17.8-34.6-26.8-51.9C172.8,34.8,172.4,33.9,171.7,32.4z"/>
	<path class="st0" d="M348,95.9c-7.3,0-14.2,0.1-21.1-0.1c-0.6,0-1.5-1.8-1.5-2.7c-0.1-11.9-0.1-23.8-0.1-35.7c0-0.4,0-0.8,0-1.2
		c0-4.9,0-4.9-4.9-5c-0.6,0-1.2-0.1-2.1-0.2c0-5.8,0-11.4,0.1-17.1c0-0.5,0.9-1.2,1.5-1.3c0.8-0.2,1.8-0.2,2.7-0.1
		c2.4,0.3,3.1-0.6,3-3c-0.2-5.2-0.1-10.4-0.1-15.8c7.5,0,14.7,0,22.2,0c0,6.1,0,12.2,0,18.8c3.4,0,6.5,0.2,9.7,0
		c2.6-0.2,3.2,0.8,3.1,3.2c-0.2,5-0.1,10-0.1,15.4c-4.2,0-8.3,0-12.5,0C348,66.1,348,80.7,348,95.9z"/>
	<path class="st0" d="M147.3,95.9c0-1.5,0-2.6,0-3.6c0-28.7,0-57.4,0-86.1c0-2.4,0.5-3.3,3.1-3.3c6.2,0.2,12.4,0.1,18.9,0.1
		c0.1,1.2,0.2,2.1,0.2,3.1c0,29,0,58,0.1,87c0,2.2-0.5,3-2.8,2.9C160.4,95.8,154.1,95.9,147.3,95.9z"/>
	<path class="st0" d="M386.8,95.7c-7.6,0-14.7,0-22.1,0c0-21,0-41.9,0-62.9c0.6-0.1,1.1-0.3,1.7-0.3c6,0,12,0,18,0
		c1.3,0,2.4-0.1,2.4,1.8C386.8,54.6,386.8,75,386.8,95.7z"/>
	<path class="st0" d="M375.9,0c6.7,0.1,12.2,5.9,12.2,12.7c-0.1,7-5.8,12.6-12.7,12.4c-6.9-0.1-12.2-5.9-12.1-13
		C363.5,5.2,369-0.1,375.9,0z"/>
</g>
</svg>
