<?xml version="1.0" encoding="utf-8"?>
<!-- Generator: Adobe Illustrator 23.0.1, SVG Export Plug-In . SVG Version: 6.00 Build 0)  -->
<svg version="1.1" id="Layer_1" xmlns="http://www.w3.org/2000/svg" xmlns:xlink="http://www.w3.org/1999/xlink" x="0px" y="0px"
	 viewBox="0 0 592.8 217.6" style="enable-background:new 0 0 592.8 217.6;" xml:space="preserve">
<style type="text/css">
	.st0{fill:#1C1C1C;}
	.st1{fill:#3A3A3A;}
</style>
<g>
	<path class="st0" d="M184.1,217.3c-2.4-0.2-4.6-1-7-1.6c-9.4-2.7-16.6-8.3-19.7-17.7c-6.9-20.7-7.9-41.8-0.1-62.4
		c8.1-21.2,36.4-26.6,52.2-10.5c6.5,6.6,9.6,15,10,23.8c0.5,12.8,0.3,25.7-1,38.3c-1.6,15.7-12.1,29.7-28.2,30.1c-0.3,0-0.7,0-1.2,0
		C187.4,217.6,185.8,217.5,184.1,217.3z M174.6,166c0,7,0.3,13.8,1.1,20.7c0.9,7.4,5.3,12.1,10.8,12.1c5.3,0,10.4-4.4,10.7-11.4
		c0.7-14,0.7-28.1,0-42.1c-0.3-6.8-5.7-11.3-11-11.1c-5.3,0.1-9.7,4.8-10.6,11.6C174.8,152.6,174.6,159.3,174.6,166z"/>
	<path class="st1" d="M532.4,1.9c6.8,0,13.3,0,20.5,0c0,9.8,0.3,19.6-0.1,29.3c-0.2,5.4,1.2,7.5,6.8,6.8c4-0.5,8.1-0.1,12.9-0.1
		c0-12.2,0-23.9,0-35.9c7.2,0,13.6,0,20.4,0c0,32,0,63.8,0,96.1c-6.4,0-12.9,0-20,0c0-12.8,0-25.7,0-39.1c-6.9,0-13,0-19.6,0
		c0,13.2,0,26,0,39.2c-7,0-13.7,0-20.7,0C532.4,66.2,532.4,34.4,532.4,1.9z"/>
	<path class="st1" d="M306.3,98.1c0-32.3,0-64.1,0-95.5c12.1,0,24-0.9,35.7,0.3c9.1,0.9,16.7,6.3,19.2,15.8
		c2.8,10.4,2.1,20.3-7.7,27.7c11.8,8,14.3,18.9,10.6,31.4c-3.9,13-14.1,18.9-26.7,20.1C327.3,98.9,317,98.1,306.3,98.1z M325.8,80.1
		c7.1-0.1,14.5,2.2,19.2-5c3.1-4.8,3.2-10.5-0.5-14.9c-5.1-6-12.1-3.7-18.7-3.7C325.8,64.7,325.8,72.2,325.8,80.1z M325.7,40.6
		c6.5,0,13.5,1.6,16.7-5.1c1.5-3.3,1.5-8.8-0.3-11.8c-3.6-6-10.3-3.8-16.3-3.6C325.7,26.8,325.7,33.3,325.7,40.6z"/>
	<path class="st1" d="M228.6,98.4c0-32.5,0-64.3,0-95.7c12.4,0,24.8-1.2,36.8,0.3C278,4.6,285.2,14,287.9,26
		c3.6,16.4,3.8,32.9-1.1,49.1c-4.7,15.5-15.2,23-31.3,23.3C246.7,98.5,237.9,98.4,228.6,98.4z M249.7,21.2c0,19.4,0,38.8,0,58.3
		c10.8,1.2,17-2.5,17.9-12.8c1-11.3,0.9-22.8-0.1-34.1C266.6,22.9,260.3,19.4,249.7,21.2z"/>
	<path class="st1" d="M148.7,50c-0.1,9.5-0.9,20.1-3.9,29.9c-4.4,14.2-16.2,21.4-31.1,20.7c-13.8-0.6-25-9.1-28.7-22.7
		c-4.9-18.1-5.4-36.3-0.3-54.5C89,8.1,100.1-0.1,116.3,0c15.3,0.1,26.1,8.4,29.9,23.9C148.3,32.1,148.9,40.3,148.7,50z M127.5,49.7
		c0-6.6-0.3-13.8-1.3-20.7c-1-6.9-5.6-11.3-11-11.2c-5.2,0.1-10.2,4.4-10.4,11c-0.5,14-0.6,28.1,0,42.2c0.3,7.2,5.2,11.4,10.6,11.4
		c5.8,0,10-4.3,10.9-11.8C127.1,63.6,127.5,57,127.5,49.7z"/>
	<path class="st0" d="M150.2,214.9c-7.4,0-13.7,0.3-20-0.2c-1.9-0.1-4.4-1.9-5.3-3.6c-5.4-9.9-10.3-20-15.5-29.9
		c-1-1.9-3.1-3.2-4.6-4.8c-0.5,0.3-1.1,0.7-1.6,1c0,12.2,0,24.4,0,37c-6.7,0-12.9,0-19.5,0c0-31.9,0-63.7,0-97.3
		c12.9,1,26,0.8,38.5,3.3c10.1,2,16.2,10.2,17.6,20.6c1.6,11.7,0,22.5-11.1,29.6c-0.7,0.4-1.2,1-2,1.6
		C134.4,186.2,142,200.1,150.2,214.9z M103.1,136.7c0,8.1,0,15.9,0,23.6c13.6,0,18.4-3.6,18.1-13
		C120.9,138.4,116.1,135.4,103.1,136.7z"/>
	<path class="st0" d="M70.3,155.3c-1.4,13.4-1.3,26.6-4.5,39c-4.3,16.8-16.7,23.5-35.4,21.9c-14.7-1.2-25.3-11.5-27.9-27.2
		c-2.5-15-2.8-30,0-45c4.1-21.3,23.6-33.1,43.6-26.1c8.5,3,13.5,9.3,17.2,17.7c-5.2,2.3-10,4.5-14.8,6.6c-0.4-0.2-0.9-0.3-1.1-0.6
		c-2.9-5.3-7-8.5-13.3-7.5c-5.5,0.9-10.2,5.7-10.5,12.8c-0.6,13.2-0.6,26.5,0.1,39.7c0.4,7.9,5.9,12.4,12.1,12.2
		c6.4-0.1,10.9-4.7,11.8-12.6c0.5-4.2,0.1-8.4,0.1-12.9c-3.1-0.2-5.8-0.3-8.9-0.5c0-5.9,0-11.5,0-17.5
		C48.6,155.3,58.3,155.3,70.3,155.3z"/>
	<path class="st1" d="M452.7,98.5c-7,0-13.3,0.3-19.5-0.2c-1.5-0.1-3.5-2.3-4.1-4c-1.4-4-2.3-8.3-2.9-12.5c-0.5-3.7-2.3-4.6-5.8-4.5
		c-5.7,0.2-11.4,0.3-17.2,0c-3.6-0.2-5,1.2-5.7,4.7c-1,5.4-2.4,10.7-3.7,16.2c-7.2,0-14.1,0-21.6,0C376.8,82,381.3,66,385.8,50
		c4.5-15.9,9-31.8,13.5-48c8.6,0,17.1,0,26.4,0C434.6,33.8,443.5,65.8,452.7,98.5z M403.1,59.9c6,0,11.4,0,17.5,0
		c-2.6-12.5-5.1-24.4-7.5-36.4c-0.4,0-0.9,0-1.3,0.1C409,35.4,406.2,47.2,403.1,59.9z"/>
	<path class="st0" d="M296.5,118.3c0.1,2,0.3,3.8,0.3,5.6c0,19,0.1,38-0.1,57.1c0,3.7-0.4,7.4-1.1,10.9
		c-5.5,25.3-26.8,28.4-44.5,21.4c-9.9-3.9-13.6-13.1-15.3-22.9c-0.8-5-1-10.2-1-15.3c-0.1-18.4,0-36.8,0.1-55.2
		c0-0.4,0.3-0.7,0.6-1.5c6.3,0,12.7,0,19.9,0c0,2.1,0,4.3,0,6.5c0,19.2,0,38.5,0,57.7c0,10.4,3.6,15.8,10.4,16
		c6.7,0.2,10.4-5.3,10.4-15.7c0-19.4,0-38.9,0-58.3c0-2,0-4,0-6.3C283.2,118.3,289.6,118.3,296.5,118.3z"/>
	<path class="st1" d="M47.9,26c-3.4-5.9-7.5-9.6-14.2-8.3c-6,1.2-10.1,6-10.4,14.2c-0.5,12.6-0.5,25.3,0.2,37.9
		c0.4,8.1,5.7,12.7,12.3,12.6c6.9-0.1,11.1-4.6,11.8-13c0.3-4,0.1-8.1,0.1-12.5c-2.9-0.2-5.4-0.3-8.5-0.5c0-5.6,0-11.1,0-17.1
		c9.6,0,19.3,0,29.5,0c-0.3,15.8,2.4,31.6-6.1,46.2c-6.6,11.3-16.9,15.7-29.4,15C21.1,99.7,10.4,94.8,6,82.8
		C-1.7,61.5-2.3,39.6,6,18.2C11.1,5,22.8-0.8,38.9,0.1C49.6,0.7,59,8.2,62.8,19.4C58,21.5,53.2,23.6,47.9,26z"/>
	<path class="st0" d="M314.4,214.4c0-32.2,0-64,0-95.9c11.6,0,23.1-1.2,34.3,0.3c15.2,2.1,24,14.7,23.2,30.4
		c-0.8,15.3-11.1,26-26.7,27.6c-3.4,0.4-6.9,0.4-11.3,0.7c0,6.1,0,12.1,0,18.1c0,6.1,0,12.2,0,18.8
		C327.3,214.4,321.1,214.4,314.4,214.4z M334.1,160.6c6.8,0,14.1,1.3,16.7-5.7c1.6-4.2,1.4-10.5-0.7-14.3c-3.2-6-10.1-4.5-16-3.8
		C334.1,144.7,334.1,152.4,334.1,160.6z"/>
	<path class="st1" d="M503.7,26c-3.1-5.5-6.8-9.4-13.3-8.2c-7.1,1.4-10.3,6.6-10.5,13.3c-0.4,12.6-0.5,25.2-0.1,37.8
		c0.2,6.2,2.9,11.7,9.7,13.3c6.4,1.5,11.1-1.3,14.1-7.4c5.6,2.2,10.8,4.3,16,6.4c-4.9,12.5-15.1,19.4-28.1,19.3
		c-15.1-0.2-26.9-7.6-31-21.3c-5.7-19-5.7-38.4,0-57.4c4.2-14,15.2-21.5,29.3-21.7c14.4-0.2,24.5,6.4,29.7,19.7
		C514.4,21.8,509.3,23.8,503.7,26z"/>
	<path class="st1" d="M185.4,79.2c10.6,0,20.7,0,31.2,0c0,6.7,0,12.7,0,19c-17.2,0-34.2,0-51.5,0c0-31.9,0-63.9,0-96.3
		c6.6,0,13.2,0,20.3,0C185.4,27.6,185.4,53,185.4,79.2z"/>
</g>
</svg>
