<?xml version="1.0" encoding="utf-8"?>
<!-- Generator: Adobe Illustrator 23.0.1, SVG Export Plug-In . SVG Version: 6.00 Build 0)  -->
<svg version="1.1" id="Layer_1" xmlns="http://www.w3.org/2000/svg" xmlns:xlink="http://www.w3.org/1999/xlink" x="0px" y="0px"
	 viewBox="0 0 431.9 171" style="enable-background:new 0 0 431.9 171;" xml:space="preserve">
<style type="text/css">
	.st0{opacity:0.9;}
	.st1{fill:#262626;}
	.st2{fill:#FFFFFF;}
	.st3{fill:#353535;}
	.st4{fill:#191919;}
</style>
<g class="st0">
	<path class="st1" d="M275.3,98.7c0-10.8,0-21.6,0-32.4c0-2.6-1-4.8-3.2-6.3c-2.3-1.6-4.8-1.8-7.3-0.5c-2.6,1.4-3.9,3.6-3.9,6.6
		c0,20.7,0,41.5,0,62.2c0,5.2-0.8,10.3-2.7,15.2c-1.5,3.7-3.5,7.2-7.1,9.2c-4.7,2.7-9.7,3.1-14.9,1.8c-4-1-7.4-2.9-10-6.1
		c-2.4-3-3.7-6.6-4.6-10.3c-2.6-10.8-5.1-21.6-7.6-32.5c-3-13-8.8-24.3-19.4-32.7c-6.2-4.9-13.1-8.8-20.7-11.1
		c-10.5-3.3-21.4-4.3-32.4-3.1c-15.1,1.7-28.2,7.5-38.4,19.1c-1.2,1.3-2.2,2.8-3,4.4c-0.6,1.1,0.1,2.2,1.1,2.9
		c0.9,0.7,1.9,0.8,2.8,0.2c0.6-0.4,1.2-0.9,1.7-1.4c2.5-2.4,4.8-5.1,7.4-7.3c8.3-7,17.9-11.2,28.7-12.1c8.8-0.7,17.4,0.6,25.7,3.5
		c7.3,2.5,13.8,6.5,19.4,12c5.5,5.4,9.1,12,11.6,19.3c2.1,5.8,3.1,11.9,4.3,18c1.7,8.7,3.3,17.5,5.2,26.2
		c1.7,7.5,5.4,13.9,11.4,18.8c7,5.8,15.2,8.2,24.3,7.5c12.3-0.9,21.2-7.1,26.5-18.2c3.4-7.1,4.9-14.7,4.9-22.6
		C275.3,118.8,275.3,108.8,275.3,98.7z"/>
	<path class="st1" d="M110.7,141.5c-0.6,0.4-0.6,0.8,0,1.2c1.3,0.9,2.6,1.9,3.9,2.9c0.2,0.2,0.7,0.5,0.6,0.5
		c-0.7,1.2,0.6,1.4,1.1,1.7c3.3,2.5,7,3.6,11,4.3c0.6,0.1,1.3,0.2,1.9,0.4c0,0.1,0,0.3-0.1,0.4c-1.6-0.1-3.1-0.2-4.7-0.3
		c0,0.1,0,0.1,0,0.2c1.9,0.7,3.8,1.5,5.6,2.2c0,0.1-0.1,0.2-0.1,0.4c-1.1-0.3-2.2-0.5-3.3-0.8c0,0.1-0.1,0.3-0.1,0.4
		c2.9,0.8,5.8,1.9,8.7,2.3c5.5,0.8,11.1,0.3,16.6-0.7c5.7-1,11-3,15.7-6.6c3.1-2.4,6.4-4.6,9.7-6.9c0.3-0.2,0.8-0.4,1.2-0.5
		c0.1,0.1,0.1,0.2,0.2,0.3c-0.2,0.3-0.4,0.6-0.5,0.8c0.1,0,0.1,0.1,0.2,0.1c1.9-2.3,3.8-4.6,5.7-6.9c0.1,0.1,0.3,0.3,0.4,0.4
		c-3.6,5-7.8,9.5-13,13c-5.2,3.5-10.8,5.9-16.8,7.7c0.8,0.1,1.5,0,2.2-0.2c16.1-5,27.9-14.4,33.1-31.1c2.1-6.7,2.8-13.4,1.7-20.3
		c-1.8-11-6.9-20.2-15.5-27.2c-9.6-7.8-20.7-11.4-33-9.6c-10.3,1.4-20.3,4.3-28,12c-2.7,2.7-5.1,5.6-6.9,8.6c2.1,1,4.3,1.7,6.2,3
		c5.1,3.6,10.1,7.4,13.7,12.7c0.5,0.7,0.9,0.7,1.6,0.4c9.7-4.6,19.8-8.2,30.4-10.3c5.5-1.1,5.4-1.6,9.9-0.1
		c-1.8,0.5-3.2,0.9-4.6,1.3c0,0,0,0.1,0,0.1c0.6,0,1.3,0,1.9,0c0,0,0,0.1,0,0.1c-3.5,0.7-6.9,1.4-10.6,2.2c0.1-0.5,0.2-0.7,0.3-1.1
		c-3.7,0.9-7.2,1.8-10.1,4.4c4,0.3,7.9,0.9,11.8-0.9c-0.3,1.7,1.1,0.3,1.3,1.2c-0.1,0.2-0.2,0.6-0.4,1.1c4.4-0.2,8.7-2.1,13.2-0.9
		c-1.4,0.8-2.8,1.5-4.3,1.9c-1.5,0.4-3.1,0.3-4.7,0.7c-2.2,0.5-4.5,1.1-6.7,1.8c-2.3,0.8-4.5,1.7-6.7,2.6c-0.4,0.2-0.7,0.7-1.1,1
		c0.1,0.1,0.2,0.2,0.2,0.3c0.6,0,1.2,0,1.7-0.2c3.3-1,6.7-1.9,10-3c4.7-1.6,9.4-1.8,14.4-1c-1.7,4.2-4,7.9-7.1,11
		c-2.2,2.2-4.6,4.2-6.9,6.4c-0.5,0.5-0.9,1.1-1.3,1.7c0.1,0.2,0.1,0.3,0.2,0.5c1-0.1,2.1-0.1,3.3-0.2c-5.7,5.2-12.4,8.1-19.6,10
		c0.7,1.6,0.4,2.3-1.3,3c-0.4,0.2-0.9,0.4-1,0.7c-0.6,2-1.1,2.5-3.3,2.4c-2.7-0.2-5.2-1-7.3-2.8c-0.7-0.6-1.2-0.5-1.6,0
		c0.2,0.5,0.4,1,0.6,1.7c1.1,0.4,2.4,0.9,3.7,1.4c0.3,0.1,0.6,0.3,0.8,0.5c0.6,0.4,1.2,1.1,1.8,1.2c1.4,0.3,2.9,0.4,4.3,0.5
		c1.8,0.1,3.7,0,5.7,0C136.8,149.3,121.4,150.4,110.7,141.5z"/>
	<path class="st1" d="M381.9,118.7c0.7,0,1.2,0,1.7,0c13.3,0,26.6,0,39.9,0c4,0,7-3.1,7-7.2c0-4-3.1-7.1-7.1-7.1
		c-13.3,0-26.7,0-40,0c-0.5,0-1,0-1.5,0c0-0.7,0-1.1,0-1.6c0-7.5,0-15.1,0-22.6c0-0.5,0-1,0.1-1.5c0.4-2.9,1.8-4.3,4.7-4.5
		c0.9-0.1,1.7,0,2.6,0c11.5,0,23.1-0.1,34.6,0c6.2,0.1,8.4-5.6,7.1-9.2c-1.1-2.9-3.4-4.6-6.9-4.6c-11.4,0-22.8,0-34.3,0.1
		c-2.5,0-5,0-7.5,0.4c-5.2,0.8-9.4,3.3-12.2,7.8c-1.9,3.1-2.6,6.6-2.6,10.2c0,22.8,0,45.7,0,68.5c0,7.9,3.8,13.5,10.6,17.2
		c4.7,2.6,9.9,3.5,15.2,3.5c10.5,0.1,21.1,0.1,31.6,0c4.3,0,7.5-4.3,6.8-8.4c-0.6-3.5-3.6-5.8-7.3-5.8c-10.5,0-21.1,0-31.6,0
		c-1.9,0-3.9-0.3-5.8-0.7c-3.7-0.9-5.2-2.8-5.2-6.7c0-8.8,0-17.6,0-26.4C381.9,119.7,381.9,119.3,381.9,118.7z"/>
	<path class="st1" d="M310,168.3c5.5,0,10.9,0,16.4,0c2,0,4-0.1,6-0.3c8.8-1.1,15.8-5.2,20.7-12.7c4.2-6.6,6-13.9,5.3-21.7
		c-0.9-10.8-6-18.9-15.7-23.9c-5.3-2.7-10.9-4-16.9-4c-3.9,0-7.8,0-11.7-0.2c-4.1-0.2-7.8-1.7-10.3-5.1c-2.8-3.7-3.9-8-3.6-12.6
		c0.3-4,1.5-7.6,4.8-10c3-2.2,6.4-3.3,10.1-3.4c8.2-0.1,16.4,0,24.6,0c0.7,0,1.3,0,2-0.1c2.7-0.3,5.3-2.5,6-5c1.4-4.9-2-9.3-7.1-9.4
		c-8.4,0-16.8-0.1-25.3,0c-2.5,0-5.1,0.4-7.5,1c-9.4,2.4-16.6,7.6-20.1,17c-2.9,7.8-2.7,15.7,0.4,23.4c4.1,10.5,11.8,16.7,22.9,18.2
		c4.6,0.6,9.4,0.3,14.1,0.5c2.7,0.2,5.5,0.4,8.1,1.2c5.6,1.6,9.5,5.2,10.6,11.2c0.9,4.9,0.1,9.6-2.3,14c-0.8,1.5-2,2.8-3.2,3.9
		c-2.9,2.6-6.6,3.3-10.3,3.3c-12.3,0-24.5,0-36.8,0c-0.5,0-1.1,0-1.6,0c-3.8,0.2-6.9,3.4-6.9,7.2c0,4.1,3.2,7.2,7.6,7.2
		C296.8,168.3,303.4,168.3,310,168.3z"/>
	<path class="st1" d="M41.3,91.5c-2.3,3.4,1.1,8.4,5,8.6c0.6,0,1.3-0.1,1.9,0.1c0.6,0.2,1.3,0.5,1.6,0.9c0.2,0.3-0.4,1.1-0.8,1.5
		c-1.7,1.7-3.6,3.2-5.3,4.9c-3.3,3.4-2.6,10.5,2.8,12.9c2.7,1.2,5.3,1.1,8,0.4c0.9-0.2,1.4-0.1,1.3,0.9c-0.1,2.7,0.4,5.4,1.5,7.9
		c0.2,0.4,0,1.4-0.3,1.5c-1.4,0.8-2.8,1.7-4.3,1.9c-2.5,0.4-2.9,0.4-3.6,2.8c-0.5,1.8-1.6,3-3.2,4c-0.7,0.4-1.3,1-1.9,1.5
		c-0.8,0.6-1.7,1.3-2.5,1.9c-0.3,0.2-0.7,0.4-0.8,0.7c-0.4,1.1-0.8,2.3-1.2,3.6c1.1,0.2,1.9,0.4,2.7,0.5c1.8,0.3,3.2-0.3,4-2
		c0.2-0.4,0.4-0.7,0.7-1.1c0.5-0.9,1.3-1.2,2.2-0.9c2.4,0.8,4.2-0.4,5.7-1.8c1.8-1.7,3.7-2.3,6-1.7c2.8,0.6,5.5,0.6,7.8-1.4
		c0.3-0.2,0.6-0.4,1-0.5c1.2-0.3,1.8-1.1,2.3-2.1c0.5-0.9,1-1.8,1.5-2.8c0.5-0.9,0.4-1.6-0.7-2.1c-0.6,0.8-1.2,1.6-1.7,2.4
		c-1.6,2.2-3.6,3.7-6.4,3.8c-1.5,0.1-3.1,0.1-4.6,0.1c-3.6,0-6.8,1.2-9.4,3.7c-0.3,0.3-0.6,0.4-0.9,0.6c-0.1-0.1-0.2-0.2-0.3-0.3
		c0.3-0.6,0.5-1.3,0.9-1.8c2.3-3,5.6-3.8,9.1-4.1c2.2-0.2,4.5-0.5,6.6-1.2c3.1-1.1,5.1-3.3,5.6-6.7c0.3-1.6,0.6-3.3,0.8-4.9
		c0.1-0.6,0.3-1.3,1-1c0.3,0.1,0.5,0.9,0.5,1.3c-0.1,1.4-0.4,2.9-0.4,4.3c-0.1,2.4,1.1,3.6,3.5,3.5c1.9-0.1,3.7-0.4,5.6-0.5
		c2.4,0,4.8,0.2,7.2,0.2c1.7,0,2.2-0.7,1.9-2.4c-0.1-0.4,0.2-0.8,0.3-1.2c0.3,0.3,0.8,0.6,0.9,0.9c0.4,1.7,1.4,2.9,2.8,3.9
		c1.2,0.8,2.5,1.6,3.6,2.5c1.3,1,2.4,2.4,2.1,4c-0.3,1.8-2.1,2.2-3.6,2.7c-1.8,0.6-2.8,0.2-3.9-1.3c-0.6-0.8-1.1-1.6-1.6-2.4
		c-0.6-1.1-1.5-1.5-2.7-1.5c-1,0-2.1,0.2-3.1,0.3c-1,0.1-1.1,0.7-0.7,1.5c0.4,0.8,0.9,1.5,1.3,2.3c0.4,0.9,1,1.2,2.1,1.2
		c0.5,0,1.1,0.4,1.5,0.8c0.4,0.4,0.6,1.1,1,1.6c1.1,1.5,2.7,2.2,4.3,1.7c2.5-0.8,4.9-1.8,7.4-2.7c0.6-0.2,1.3-0.5,2-0.5
		c1.6-0.1,2.9-0.5,3.6-2.1c0.4-0.8,0.9-1.5,1.3-2.3c0.7-1.2,0.5-2.4-0.2-3.6c-0.7-1.3-1.4-2.5-2-3.9c-0.6-1.4-1.8-1.8-3.3-0.9
		c1,1.9,1.9,3.7,2.9,5.6c0.9,1.8-0.3,4.6-2.2,5.2c0.1-0.5,0.2-0.9,0.4-1.3c0.6-1.6,0.6-3.1-0.5-4.6c-0.8-1.2-1.5-2.6-2.2-3.9
		c-1.1-2-0.9-2.4,1.3-2.8c1.8-0.3,3-1.2,3.4-3c0.3-1.2,0.5-2.4,0.8-3.6c0.1-0.4,0.4-0.8,0.7-1.2c0.3,0.4,0.7,0.8,0.7,1.2
		c0.2,2.1-0.3,4.1-1.5,5.9c-0.6,0.9-0.4,1.3,0.7,1.3c0.4,0,0.8,0,1.2-0.1c1.7-0.3,3.3-0.7,5-1.1c0.5-0.1,1.1-0.1,1.8-0.1
		c-1.5,2.1-1.9,4.6-3.9,6.1c-0.5,0.3-0.5,1.2-0.8,1.9c0.8,0,1.3,0,2.1,0c-0.4,0.7-0.7,1.1-1,1.5c-0.9,1.2-0.4,2.6,0.1,3.7
		c0.5,1.1,1.8,0.9,2.8,0.7c1.1-0.2,2.2-0.7,3.3-1c1.6-0.3,3.2-0.7,4.8-0.6c1.7,0.1,3.1-0.4,4.4-1.4c1.5-1.3,1.6-1.3,3.1,0.2
		c1.6,1.6,3.4,2.5,5.6,2.8c0.7,0.1,1.5,0,2.3,0c0-0.1,0.1-0.3,0.1-0.4c-0.5-0.3-1-0.6-1.5-0.9c-1.1-0.9-2.6-1.6-3.3-2.7
		c-1.3-1.9-2.1-4.2-3.2-6.4c0.5,0.3,1,0.4,1.3,0.7c0.9,1,1.7,2.2,2.6,3.2c1,1.1,1.9,2.2,3,3.1c1,0.8,2.3,0.9,3.9,0.3
		c-0.5-0.3-0.8-0.5-1-0.7c-1.1-1-2.2-1.8-3.2-2.9c-1.3-1.5-2.4-3.1-3.5-4.6c-0.2-0.2-0.3-0.5-0.4-0.8c-1-3.6-2.2-7.1-2.9-10.7
		c-0.6-3.1-1.3-6.1-3.2-8.8c-4.3-6.2-9.9-10.9-15.8-15.4c-3.6-2.7-7.5-2.9-11.5-0.3c-2,1.3-4.2,2.2-6.4,3c-2.9,1-5.6,2.1-7.7,4.5
		c-0.6,0.7-1.7,1.4-2.6,1.3c-3.6-0.1-6.3,1.4-8.7,3.8c-1.6,1.6-3.5,2.5-5.8,2.7c-3.9,0.2-7.1,1.7-10.1,4.1c-1.9,1.5-4,2.7-6.1,3.8
		c-1.5,0.8-3.2,1.2-5,0.8c-4.5-1.1-5.8-6.1-2.5-9.5c1.8-1.8,3.9-3.3,5.6-5.1c3-3.1,2-7-2.2-8.2C47.1,94.3,43.8,94,41.3,91.5z"/>
	<path class="st1" d="M91.9,134.9c-0.7-0.7-1.3-1.9-1.9-1.9c-3.7,0-7.5-0.7-11.2,0.2c-0.7,0.2-1.4,0.2-2.1,0.2
		c-1.4,0.1-1.7,0.7-1,1.9c2.5,4.4,5.5,8.5,9,12.2c7.3,7.8,16,13.7,25.9,17.8c7.6,3.1,15.5,4.8,23.6,5.5c4.1,0.4,8.4,0,12.5-0.4
		c11.3-0.9,21.8-4.4,31.6-10.1c8.8-5.2,15.6-12.3,20.2-21.5c0.4-0.8,0.6-1.8,0.7-2.7c0.1-1.2-0.7-1.8-1.7-2.3
		c-0.9-0.4-1.8-0.3-2.5,0.4c-0.6,0.6-1.2,1.2-1.6,1.9c-4.9,9.4-12.1,16.4-21.6,21.1c-10.3,5.1-21.2,7.6-32.7,6.6
		c-13.4-1.1-25.1-6-35.3-14.8c-1-0.9-1.9-2.4-3.1-2.6c-1.2-0.3-2.7,0.6-4,0.9c-0.2,0-0.3,0.1-0.5,0.1c-1.5,0.4-3,0.2-4.1-0.7
		c-0.9-0.7-1.6-1.7-2.4-2.5c-0.3-0.3-0.8-0.6-1.2-0.8c-0.7-0.3-1.7-0.4-2-1c-0.9-1.3-1.7-2.7-2.3-4.2c-0.7-1.7-0.3-2.6,1.5-2.9
		C87.6,135.1,89.6,135.1,91.9,134.9z"/>
	<path class="st1" d="M83,101c0,0,0-0.1,0-0.2c0-11.5,0.1-23.1,0-34.6c0-3.9-4.2-7.2-8.1-6.6c-3.8,0.6-6.3,3.6-6.3,7.6
		c0,11.8,0,23.6,0,35.4c0,0.5,0,1.1,0,1.7c-0.6,0-1,0-1.5,0c-4,0-8.1,0-12.1,0c-0.5,0-1.1,0.2-1.5,0.5c-1.6,1.3-3.2,2.5-4.6,4
		c-0.9,0.9-1.6,2-2,3.2c-0.6,1.8,0.5,3.7,2.4,4c1.3,0.2,2.7,0.1,3.9-0.4c2-0.9,3.8-2.2,5.6-3.5c3.3-2.4,6.7-4.4,10.9-4.5
		c2.4-0.1,4.3-1.2,6.1-2.9c1-0.9,2.1-1.9,3.3-2.5C80.2,101.6,81.7,101.4,83,101z"/>
	<path class="st2" d="M280.3,26.5c0.7,0,1.1,0,1.6,0c8.7,0,17.4,0,26.1,0c1.1,0,2-0.4,2.7-1.3c0.6-0.9,0.6-1.9,0.1-2.8
		c-0.6-1.1-1.5-1.4-2.7-1.4c-8.7,0-17.4,0-26.1,0c-0.5,0-1,0-1.6,0c0-0.6,0-1,0-1.5c0-3.3,0-6.6,0-9.9c0-2.7,0.5-3.2,3.2-3.3
		c0.3,0,0.6,0,0.9,0c8,0,15.9,0,23.9,0c0.7,0,1.4-0.1,2-0.5c1.2-0.7,1.5-1.9,1.2-3c-0.4-1.3-1.5-2-3.1-2c-8.5,0-17,0-25.5,0
		c-4.7,0-8.1,3.4-8.1,8.2c0,10.7,0,21.4,0,32.2c0,4.9,3.2,8,8.1,8c8.5,0,16.9,0,25.4,0c0.3,0,0.5,0,0.8,0c1.2-0.1,2.1-0.7,2.5-1.9
		c0.4-1.2,0.1-2.2-0.9-2.9c-0.7-0.4-1.6-0.7-2.4-0.7c-8.2-0.1-16.4,0-24.6,0c-2.9,0-3.3-0.3-3.3-3.2c0-4.1,0-8.2,0-12.3
		C280.3,27.6,280.3,27.2,280.3,26.5z"/>
	<path class="st3" d="M43,36.7c0.6,0,1.1,0,1.5,0c5.8,0,11.7,0,17.5,0c0.9,0,1.3-0.2,1.2-1.2c-0.1-1.6-0.1-3.3-0.4-4.8
		c-1.3-6.6-5.7-10.4-12.7-11.2c-9.5-1.1-18.1,6.8-16.8,17.1c0.7,5.9,3.9,10.3,9.5,12.4c5.8,2.2,11.3,1.3,16.2-2.5
		c1.3-1,2.3-2.4,3.5-3.8c-2.8-1.3-5.2-2.4-7.6-3.5c-2.5,3.2-5,4.1-8.1,3.1C44.5,41.5,43,39.5,43,36.7z"/>
	<path class="st3" d="M169.6,21c0,5.5,0,10.9,0,16.3c0,3-2.3,5.3-5.3,5.2c-3,0-5.2-2.3-5.2-5.3c0-5,0-9.9,0-14.9c0-0.4,0-0.9,0-1.3
		c-3.1,0-6.1,0-9.1,0c0,0.2-0.1,0.3-0.1,0.5c0,6-0.1,11.9,0,17.9c0,3,1.4,5.5,3.7,7.5c5.4,4.5,13.9,4.9,19.7,1.1
		c3.4-2.3,5.3-5.3,5.2-9.6c-0.1-5.3,0-10.7,0-16c0-0.4,0-0.9,0-1.4C175.6,21,172.7,21,169.6,21z"/>
	<path class="st2" d="M405,9.3c2.3,4.4,4.5,8.6,6.7,12.7c4.4,8.4,8.8,16.9,13.2,25.3c0.3,0.5,0.6,1,1.1,1.4c1,1,2.5,0.9,3.5,0
		c1.1-1,1.3-2.1,0.5-3.7c-3.5-6.7-7-13.4-10.5-20.1c-4-7.6-7.9-15.1-11.9-22.7c-0.5-1-1.4-1.7-2.5-1.7c-1.2,0-2,0.6-2.6,1.7
		c-3.3,6.3-6.6,12.6-9.9,18.9c-4.1,7.9-8.2,15.8-12.3,23.7c-0.8,1.5-0.3,3.1,1,3.9c1.4,0.8,3,0.2,3.9-1.4c1.2-2.3,2.5-4.7,3.7-7.1
		c4.5-8.6,9-17.3,13.5-25.9C403.2,12.7,404,11.1,405,9.3z"/>
	<path class="st3" d="M192.8,49.2c0-16.3,0-32.3,0-48.4c-3.1,0-6,0-9.1,0c0,0.5,0,0.8,0,1.2c0,15.3,0,30.6,0,45.9
		c0,0.2-0.1,0.5,0,0.6c0.2,0.3,0.4,0.6,0.7,0.6C187.2,49.2,190,49.2,192.8,49.2z"/>
	<path class="st3" d="M199.5,0.8c0,16.2,0,32.2,0,48.3c3,0,6,0,9,0c0-16.1,0-32.2,0-48.3C205.4,0.8,202.5,0.8,199.5,0.8z"/>
	<path class="st2" d="M369.2,24.9c0,7,0,14,0,21c0,2,1.1,3.3,2.8,3.3c1.6,0,2.8-1.4,2.8-3.3c0-14,0-27.9,0-41.9c0-2-1.1-3.3-2.8-3.3
		c-1.7,0-2.8,1.3-2.8,3.3C369.2,11,369.2,17.9,369.2,24.9z"/>
	<path class="st1" d="M134.3,121.5c4.6-2.9,9-5.6,13.5-8.4c-0.6,0-1.2,0.2-1.8,0.5c-3.5,1.7-7,3.4-10.5,5.1
		C133.4,119.6,133.8,119.2,134.3,121.5z"/>
	<path class="st1" d="M93.6,136.2c0.8,1.4,1.4,2.6,2.2,3.7c0.3,0.4,1.1,0.5,1.6,0.4c0.7-0.2,1.3-0.7,1.9-1.1c0,0,0-0.3-0.1-0.5
		c-0.3-0.7-0.5-1.4-0.8-2.1c-0.2-0.3-0.5-0.7-0.8-0.7C96.2,135.9,94.9,136.1,93.6,136.2z"/>
	<path class="st1" d="M35.3,147.2c0.7,0.2,1.6,0.5,2.5,0.7c0.4-1.4,0.8-2.6,1.1-3.7c0.3-1-0.3-2.4-1.1-2.3c-0.6,0.1-1.4,0.8-1.7,1.5
		C35.7,144.4,35.6,145.7,35.3,147.2z"/>
	<path class="st1" d="M40.6,141.8c0.6-0.2,1.1-0.3,1.3-0.6c0.6-0.6,1.1-1.3,1.6-2c0.4-0.5,0.5-1-0.1-1.3c-0.4-0.2-1-0.3-1.4-0.1
		c-0.7,0.4-1.5,0.8-2,1.4c-0.4,0.4-0.6,1.1-0.6,1.6C39.6,141.1,40.2,141.4,40.6,141.8z"/>
	<path class="st1" d="M114.2,129.9c-0.1-0.1-0.1-0.2-0.2-0.3c-1.2,0.2-2.4,0.4-3.9,0.7c0.5,1,0.9,1.8,1.4,2.8
		C112.6,131.8,113.4,130.8,114.2,129.9z"/>
	<path class="st1" d="M0,65.1c0.2-0.3,0.5-0.6,0.6-1c1.4-3.1,4.7-5,7.9-4.4c3.6,0.7,6,3.6,6,7.2c0,11.9,0,23.8,0,35.8
		c0,0.5,0,1,0,1.7c9.8,0,19.5,0,29.6,0c-2.3,2-3.9,4-4.2,6.8c-0.3,2.7,0,5.2,1.5,7.7c-9,0-17.8,0-26.9,0c0,0.6,0,1.1,0,1.5
		c0,13.9,0,27.8,0,41.6c0,5.2-4.8,8.7-9.6,7c-2-0.7-3.4-2.1-4.3-4.1c-0.1-0.4-0.4-0.7-0.6-1C0,130.9,0,98,0,65.1z"/>
	<path class="st3" d="M0,3c6,0,11.9,0,17.9,0c6.4,0,12,4.5,13.4,10.5c1.6,6.8-2.2,13.6-8.9,15.9c-0.4,0.1-0.8,0.3-1.3,0.4
		c4.5,6.4,8.9,12.6,13.3,18.9c-0.1,0.1-0.2,0.2-0.3,0.2c-3.5,0-6.9,0-10.4,0c-0.4,0-0.9-0.4-1.2-0.7c-3-4.6-5.9-9.1-8.9-13.7
		c-0.2-0.3-0.4-0.7-0.4-1c0-3.5,0-6.9,0-10.6c0.9,0,1.7,0,2.5,0c3.2-0.1,6-2.5,6.3-5.4c0.3-3.2-1.7-6-4.9-6.5
		c-2.3-0.3-4.6-0.1-7.1-0.1c0,12.6,0,25.2,0,38c-3.4,0-6.7,0-10,0C0,33.7,0,18.3,0,3z"/>
	<path class="st4" d="M224.2,0c3.6,3.4,7.3,6.9,10.9,10.3c2.9,2.8,5.7,5.6,8.5,8.5c0.7,0.8,1.2,0.7,1.9,0
		C251,13.2,256.6,7.6,262.2,2c1-1,2.1-1.7,3.6-1.1c1.5,0.6,1.8,1.8,1.8,3.3c0,14,0,28-0.1,42c0,0.9-0.4,2-1,2.7
		c-1.5,1.6-4.1,0.6-4.5-1.6c-0.1-0.4-0.1-0.9-0.1-1.4c0-11.3,0-22.6,0-33.9c0-0.4,0-0.9,0-1.7c-0.6,0.5-1,0.7-1.3,1.1
		c-4.6,4.6-9.1,9.1-13.7,13.7c-1.8,1.8-3.1,1.8-4.9,0c-4.7-4.7-9.3-9.3-14-14c-0.3-0.3-0.7-0.6-1.3-1.2c0,0.8-0.1,1.2-0.1,1.7
		c0,11.4,0,22.8,0,34.1c0,0.4,0,0.8,0,1.2c-0.1,1.4-1.2,2.5-2.6,2.5c-1.3,0.1-2.5-0.8-2.8-2.2c-0.1-0.5-0.1-1-0.1-1.5
		c0-14,0-27.9,0-41.9c0-1.8,0.5-3.2,2.4-3.7c0.1,0,0.1-0.2,0.2-0.3C223.9,0,224,0,224.2,0z"/>
	<path class="st1" d="M275.3,98.7c0,10,0,20.1,0,30.1c0,7.9-1.5,15.5-4.9,22.6c-5.3,11.1-14.2,17.2-26.5,18.2
		c-9.1,0.7-17.3-1.8-24.3-7.5c-6-4.9-9.8-11.3-11.4-18.8c-1.9-8.7-3.5-17.5-5.2-26.2c-1.2-6-2.3-12.1-4.3-18
		C196,92,192.4,85.4,186.9,80c-5.5-5.5-12-9.4-19.4-12c-8.3-2.9-16.9-4.3-25.7-3.5c-10.9,0.9-20.4,5.1-28.7,12.1
		c-2.6,2.3-5,4.9-7.4,7.3c-0.5,0.5-1.1,1-1.7,1.4c-0.9,0.6-1.9,0.5-2.8-0.2c-1-0.8-1.6-1.8-1.1-2.9c0.8-1.6,1.8-3.1,3-4.4
		c10.2-11.6,23.3-17.4,38.4-19.1c11-1.2,21.8-0.2,32.4,3.1c7.6,2.3,14.4,6.2,20.7,11.1c10.7,8.4,16.4,19.8,19.4,32.7
		c2.5,10.8,5,21.7,7.6,32.5c0.9,3.7,2.2,7.2,4.6,10.3c2.6,3.3,6,5.1,10,6.1c5.2,1.3,10.2,0.9,14.9-1.8c3.6-2.1,5.6-5.5,7.1-9.2
		c1.9-4.9,2.7-10,2.7-15.2c0-20.7,0-41.5,0-62.2c0-3,1.3-5.2,3.9-6.6c2.5-1.3,5-1.1,7.3,0.5c2.2,1.5,3.2,3.7,3.2,6.3
		C275.3,77.1,275.3,87.9,275.3,98.7z"/>
	<path class="st1" d="M110.7,141.5c10.6,8.9,26,7.9,36,4.2c-2,0-3.8,0.1-5.7,0c-1.4-0.1-2.9-0.2-4.3-0.5c-0.7-0.1-1.2-0.8-1.8-1.2
		c-0.3-0.2-0.5-0.4-0.8-0.5c-1.3-0.5-2.6-1-3.7-1.4c-0.2-0.7-0.4-1.1-0.6-1.7c0.4-0.6,0.9-0.6,1.6,0c2.1,1.8,4.6,2.6,7.3,2.8
		c2.2,0.1,2.7-0.3,3.3-2.4c0.1-0.3,0.6-0.6,1-0.7c1.6-0.7,2-1.4,1.3-3c7.2-1.9,13.9-4.8,19.6-10c-1.2,0.1-2.3,0.1-3.3,0.2
		c-0.1-0.2-0.1-0.3-0.2-0.5c0.4-0.6,0.8-1.2,1.3-1.7c2.3-2.1,4.7-4.2,6.9-6.4c3.1-3.1,5.4-6.8,7.1-11c-4.9-0.7-9.7-0.5-14.4,1
		c-3.3,1.1-6.7,2-10,3c-0.5,0.2-1.1,0.1-1.7,0.2c-0.1-0.1-0.2-0.2-0.2-0.3c0.4-0.4,0.6-0.9,1.1-1c2.2-0.9,4.4-1.9,6.7-2.6
		c2.2-0.7,4.4-1.3,6.7-1.8c1.5-0.3,3.1-0.3,4.7-0.7c1.5-0.4,2.9-1.1,4.3-1.9c-4.5-1.2-8.8,0.7-13.2,0.9c0.2-0.5,0.4-0.9,0.4-1.1
		c-0.3-0.9-1.6,0.5-1.3-1.2c-3.9,1.9-7.8,1.3-11.8,0.9c2.9-2.6,6.4-3.5,10.1-4.4c-0.1,0.4-0.2,0.6-0.3,1.1c3.6-0.8,7.1-1.5,10.6-2.2
		c0,0,0-0.1,0-0.1c-0.6,0-1.3,0-1.9,0c0,0,0-0.1,0-0.1c1.4-0.4,2.9-0.8,4.6-1.3c-4.5-1.5-4.4-1-9.9,0.1
		c-10.6,2.1-20.6,5.7-30.4,10.3c-0.7,0.3-1.1,0.3-1.6-0.4c-3.6-5.2-8.6-9-13.7-12.7c-1.8-1.3-4.1-2-6.2-3c1.8-2.9,4.2-5.9,6.9-8.6
		c7.8-7.7,17.7-10.6,28-12c12.3-1.7,23.4,1.8,33,9.6c8.6,7,13.8,16.2,15.5,27.2c1.1,6.9,0.4,13.6-1.7,20.3
		c-5.2,16.7-17,26.1-33.1,31.1c-0.7,0.2-1.4,0.3-2.2,0.2c6-1.8,11.6-4.2,16.8-7.7c5.2-3.5,9.4-7.9,13-13c-0.1-0.1-0.3-0.3-0.4-0.4
		c-1.9,2.3-3.8,4.6-5.7,6.9c-0.1,0-0.1-0.1-0.2-0.1c0.2-0.3,0.4-0.6,0.5-0.8c-0.1-0.1-0.1-0.2-0.2-0.3c-0.4,0.2-0.8,0.3-1.2,0.5
		c-3.2,2.3-6.5,4.5-9.7,6.9c-4.7,3.6-9.9,5.6-15.7,6.6c-5.5,0.9-11,1.5-16.6,0.7c-3-0.4-5.8-1.5-8.7-2.3c0-0.1,0.1-0.3,0.1-0.4
		c1.1,0.3,2.2,0.5,3.3,0.8c0-0.1,0.1-0.2,0.1-0.4c-1.9-0.7-3.8-1.5-5.6-2.2c0-0.1,0-0.1,0-0.2c1.6,0.1,3.1,0.2,4.7,0.3
		c0-0.1,0-0.3,0.1-0.4c-0.6-0.1-1.3-0.3-1.9-0.4c-4-0.7-7.8-1.9-11-4.3c-0.5-0.4-1.8-0.5-1.1-1.7c0,0-0.4-0.3-0.6-0.5
		c-1.3-1-2.6-1.9-3.9-2.9C110.1,142.2,110.1,141.9,110.7,141.5z"/>
	<path class="st1" d="M381.9,118.7c0,0.6,0,1.1,0,1.5c0,8.8,0,17.6,0,26.4c0,3.8,1.5,5.8,5.2,6.7c1.9,0.4,3.9,0.7,5.8,0.7
		c10.5,0.1,21.1,0,31.6,0c3.7,0,6.7,2.3,7.3,5.8c0.7,4.1-2.4,8.4-6.8,8.4c-10.5,0-21.1,0.1-31.6,0c-5.3-0.1-10.5-0.9-15.2-3.5
		c-6.8-3.7-10.6-9.3-10.6-17.2c0-22.8,0-45.7,0-68.5c0-3.6,0.6-7.1,2.6-10.2c2.8-4.5,7-7,12.2-7.8c2.4-0.4,5-0.4,7.5-0.4
		c11.4-0.1,22.8-0.1,34.3-0.1c3.4,0,5.8,1.7,6.9,4.6c1.3,3.6-0.8,9.3-7.1,9.2c-11.5-0.1-23.1,0-34.6,0c-0.9,0-1.7,0-2.6,0
		c-2.9,0.2-4.4,1.6-4.7,4.5c-0.1,0.5-0.1,1-0.1,1.5c0,7.5,0,15.1,0,22.6c0,0.5,0,0.9,0,1.6c0.6,0,1,0,1.5,0c13.3,0,26.7,0,40,0
		c4,0,7.1,3.1,7.1,7.1c0,4.1-3,7.2-7,7.2c-13.3,0-26.6,0-39.9,0C383.1,118.7,382.6,118.7,381.9,118.7z"/>
	<path class="st1" d="M310,168.3c-6.6,0-13.2,0-19.8,0c-4.4,0-7.6-3.1-7.6-7.2c0-3.8,3-7,6.9-7.2c0.5,0,1.1,0,1.6,0
		c12.3,0,24.5,0,36.8,0c3.8,0,7.4-0.7,10.3-3.3c1.2-1.1,2.4-2.5,3.2-3.9c2.4-4.4,3.2-9.1,2.3-14c-1.1-6-5-9.6-10.6-11.2
		c-2.6-0.8-5.4-1-8.1-1.2c-4.7-0.3-9.5,0.1-14.1-0.5c-11.1-1.5-18.8-7.8-22.9-18.2c-3-7.7-3.3-15.6-0.4-23.4
		c3.5-9.3,10.7-14.6,20.1-17c2.4-0.6,5-0.9,7.5-1c8.4-0.1,16.8-0.1,25.3,0c5.1,0,8.5,4.5,7.1,9.4c-0.7,2.6-3.3,4.7-6,5
		c-0.7,0.1-1.3,0.1-2,0.1c-8.2,0-16.4,0-24.6,0c-3.7,0-7.2,1.1-10.1,3.4c-3.3,2.5-4.5,6.1-4.8,10c-0.3,4.6,0.8,8.9,3.6,12.6
		c2.5,3.4,6.2,4.9,10.3,5.1c3.9,0.2,7.8,0.1,11.7,0.2c5.9,0,11.6,1.3,16.9,4c9.7,5,14.8,13.1,15.7,23.9c0.6,7.8-1.1,15.1-5.3,21.7
		c-4.8,7.5-11.9,11.6-20.7,12.7c-2,0.3-4,0.3-6,0.3C320.9,168.3,315.4,168.3,310,168.3z"/>
	<path class="st1" d="M41.3,91.5c2.5,2.5,5.7,2.8,8.8,3.6c4.1,1.2,5.2,5.1,2.2,8.2c-1.8,1.8-3.8,3.3-5.6,5.1c-3.3,3.3-2,8.4,2.5,9.5
		c1.7,0.4,3.5,0,5-0.8c2.1-1.1,4.3-2.3,6.1-3.8c3-2.4,6.2-3.9,10.1-4.1c2.2-0.1,4.2-1,5.8-2.7c2.4-2.5,5.1-4,8.7-3.8
		c0.8,0,1.9-0.6,2.6-1.3c2.1-2.3,4.8-3.5,7.7-4.5c2.2-0.8,4.5-1.7,6.4-3c4-2.6,7.9-2.4,11.5,0.3c5.9,4.4,11.5,9.2,15.8,15.4
		c1.9,2.7,2.6,5.6,3.2,8.8c0.7,3.6,1.9,7.1,2.9,10.7c0.1,0.3,0.2,0.5,0.4,0.8c1.2,1.6,2.3,3.2,3.5,4.6c0.9,1.1,2.1,2,3.2,2.9
		c0.2,0.2,0.5,0.4,1,0.7c-1.6,0.6-2.9,0.4-3.9-0.3c-1.1-0.9-2.1-2-3-3.1c-0.9-1-1.7-2.2-2.6-3.2c-0.3-0.3-0.8-0.5-1.3-0.7
		c1.1,2.3,1.9,4.5,3.2,6.4c0.7,1.1,2.2,1.9,3.3,2.7c0.5,0.4,1,0.6,1.5,0.9c0,0.1-0.1,0.3-0.1,0.4c-0.8,0-1.5,0.1-2.3,0
		c-2.2-0.3-4-1.2-5.6-2.8c-1.4-1.5-1.5-1.4-3.1-0.2c-1.3,1-2.6,1.5-4.4,1.4c-1.6-0.1-3.2,0.3-4.8,0.6c-1.1,0.2-2.2,0.7-3.3,1
		c-1,0.2-2.3,0.4-2.8-0.7c-0.5-1.1-1-2.4-0.1-3.7c0.3-0.4,0.6-0.9,1-1.5c-0.7,0-1.2,0-2.1,0c0.3-0.8,0.4-1.6,0.8-1.9
		c2-1.5,2.5-3.9,3.9-6.1c-0.7,0.1-1.3,0-1.8,0.1c-1.7,0.3-3.3,0.7-5,1.1c-0.4,0.1-0.8,0.1-1.2,0.1c-1.1-0.1-1.2-0.4-0.7-1.3
		c1.1-1.8,1.6-3.8,1.5-5.9c0-0.4-0.5-0.8-0.7-1.2c-0.2,0.4-0.5,0.8-0.7,1.2c-0.3,1.2-0.5,2.4-0.8,3.6c-0.5,1.8-1.6,2.7-3.4,3
		c-2.2,0.4-2.4,0.8-1.3,2.8c0.7,1.3,1.4,2.7,2.2,3.9c1,1.5,1,3,0.5,4.6c-0.1,0.4-0.2,0.9-0.4,1.3c1.9-0.7,3.1-3.5,2.2-5.2
		c-0.9-1.9-1.9-3.8-2.9-5.6c1.5-0.9,2.6-0.5,3.3,0.9c0.6,1.3,1.3,2.6,2,3.9c0.6,1.2,0.8,2.3,0.2,3.6c-0.4,0.8-0.9,1.5-1.3,2.3
		c-0.7,1.6-2,2.1-3.6,2.1c-0.7,0-1.4,0.2-2,0.5c-2.5,0.9-4.9,1.9-7.4,2.7c-1.6,0.6-3.3-0.1-4.3-1.7c-0.4-0.5-0.6-1.2-1-1.6
		c-0.4-0.4-1-0.8-1.5-0.8c-1,0.1-1.6-0.3-2.1-1.2c-0.4-0.8-0.9-1.5-1.3-2.3c-0.4-0.8-0.3-1.4,0.7-1.5c1-0.1,2.1-0.3,3.1-0.3
		c1.1,0,2.1,0.5,2.7,1.5c0.5,0.8,1,1.6,1.6,2.4c1.1,1.5,2.1,1.8,3.9,1.3c1.5-0.5,3.3-0.9,3.6-2.7c0.3-1.7-0.8-3-2.1-4
		c-1.1-0.9-2.4-1.6-3.6-2.5c-1.4-1-2.4-2.2-2.8-3.9c-0.1-0.4-0.6-0.6-0.9-0.9c-0.1,0.4-0.4,0.8-0.3,1.2c0.3,1.7-0.2,2.4-1.9,2.4
		c-2.4,0-4.8-0.2-7.2-0.2c-1.9,0-3.7,0.4-5.6,0.5c-2.4,0.1-3.5-1.1-3.5-3.5c0-1.4,0.3-2.9,0.4-4.3c0-0.4-0.2-1.2-0.5-1.3
		c-0.8-0.3-0.9,0.4-1,1c-0.3,1.6-0.6,3.3-0.8,4.9c-0.5,3.4-2.6,5.6-5.6,6.7c-2.1,0.7-4.4,1-6.6,1.2c-3.6,0.3-6.8,1.1-9.1,4.1
		c-0.4,0.5-0.6,1.2-0.9,1.8c0.1,0.1,0.2,0.2,0.3,0.3c0.3-0.2,0.6-0.4,0.9-0.6c2.6-2.6,5.8-3.7,9.4-3.7c1.5,0,3.1,0,4.6-0.1
		c2.8-0.2,4.8-1.6,6.4-3.8c0.6-0.8,1.1-1.6,1.7-2.4c1.1,0.5,1.2,1.2,0.7,2.1c-0.5,0.9-1,1.8-1.5,2.8c-0.5,1-1.2,1.8-2.3,2.1
		c-0.4,0.1-0.7,0.3-1,0.5c-2.3,2-5,2-7.8,1.4c-2.3-0.5-4.2,0.1-6,1.7c-1.5,1.4-3.3,2.7-5.7,1.8c-0.9-0.3-1.7,0.1-2.2,0.9
		c-0.2,0.4-0.5,0.7-0.7,1.1c-0.9,1.7-2.2,2.3-4,2c-0.8-0.1-1.6-0.3-2.7-0.5c0.4-1.3,0.7-2.5,1.2-3.6c0.1-0.3,0.5-0.5,0.8-0.7
		c0.8-0.6,1.7-1.3,2.5-1.9c0.6-0.5,1.2-1.1,1.9-1.5c1.6-0.9,2.7-2.2,3.2-4c0.7-2.4,1.1-2.4,3.6-2.8c1.5-0.2,3-1.2,4.3-1.9
		c0.3-0.2,0.5-1.1,0.3-1.5c-1.1-2.5-1.6-5.1-1.5-7.9c0-1-0.4-1.2-1.3-0.9c-2.7,0.7-5.4,0.8-8-0.4c-5.4-2.4-6.1-9.5-2.8-12.9
		c1.7-1.7,3.6-3.3,5.3-4.9c0.4-0.4,0.9-1.2,0.8-1.5c-0.2-0.5-1-0.8-1.6-0.9c-0.6-0.2-1.2,0-1.9-0.1C42.5,99.9,39.1,94.9,41.3,91.5z"
		/>
	<path class="st3" d="M138.8,24c0.6,0.4,1.2,0.7,1.8,1c7.7,4,7.6,14.1,3,19.2c-2.8,3.1-6.3,4.8-10.4,4.9c-6.7,0.1-13.3,0-20,0
		c-0.2,0-0.3,0-0.6-0.1c0-15.2,0-30.4,0-45.7c0.3,0,0.5-0.1,0.8-0.1c5.3,0,10.7,0,16,0.1c1.5,0,3,0.2,4.5,0.5
		c8.7,1.6,11.9,12.6,5.8,19.3C139.4,23.4,139.1,23.7,138.8,24z M125.2,21c1.2,0,2.3,0,3.4,0c2.4-0.1,4.4-1.9,4.6-4.3
		c0.3-2.5-1.1-4.9-3.5-5.3c-2.4-0.3-4.9-0.1-7.4-0.1c0,9.9,0,19.8,0,29.7c3.1,0,6.1,0.1,9.1,0c4.1-0.2,6.4-4.1,5.1-7.9
		c-0.8-2.4-2.8-3.8-5.4-3.9c-1.9,0-3.9,0-5.8,0C125.2,26.4,125.2,23.8,125.2,21z"/>
	<path class="st1" d="M91.9,134.9c-2.3,0.2-4.3,0.2-6.2,0.5c-1.8,0.3-2.3,1.2-1.5,2.9c0.6,1.5,1.4,2.9,2.3,4.2c0.4,0.5,1.4,0.6,2,1
		c0.4,0.2,0.9,0.5,1.2,0.8c0.8,0.8,1.5,1.8,2.4,2.5c1.2,1,2.7,1.1,4.1,0.7c0.2,0,0.3-0.1,0.5-0.1c1.3-0.4,2.8-1.2,4-0.9
		c1.2,0.3,2,1.7,3.1,2.6c10.2,8.8,21.9,13.7,35.3,14.8c11.6,0.9,22.4-1.5,32.7-6.6c9.4-4.7,16.7-11.7,21.6-21.1
		c0.4-0.7,1-1.3,1.6-1.9c0.7-0.7,1.6-0.8,2.5-0.4c1,0.4,1.8,1.1,1.7,2.3c-0.1,0.9-0.3,1.9-0.7,2.7c-4.6,9.2-11.4,16.3-20.2,21.5
		c-9.7,5.8-20.3,9.2-31.6,10.1c-4.2,0.3-8.4,0.7-12.5,0.4c-8.1-0.8-16-2.4-23.6-5.5c-9.9-4.1-18.6-10-25.9-17.8
		c-3.5-3.7-6.5-7.8-9-12.2c-0.7-1.2-0.4-1.9,1-1.9c0.7,0,1.4-0.1,2.1-0.2c3.7-0.8,7.5-0.2,11.2-0.2
		C90.6,132.9,91.2,134.2,91.9,134.9z"/>
	<path class="st3" d="M90.7,23.1c0-1.7,0-3.2,0-4.7c0-5.6,0-11.2,0-16.8c0-1.1,0.3-1.3,1.3-1.3c2.6,0.1,5.1,0,7.8,0
		c0,16.3,0,32.4,0,48.7c-3,0-6,0-9.1,0c0-1.1,0-2.1,0-3.3c-0.4,0.2-0.6,0.3-0.7,0.4c-6.7,5.8-16.3,3.5-20.4-4.2
		c-3.7-6.9-1.8-16,4.5-20.3c4.5-3.1,10.1-3.1,14.6-0.1C89.3,22,89.8,22.5,90.7,23.1z M77.3,34.6c0,4.5,3.6,8,7.6,7.4
		c3.2-0.5,5.7-3.4,5.8-6.9c0.2-3.5-1.9-6.8-5-7.6C81.4,26.3,77.3,29.8,77.3,34.6z"/>
	<path class="st4" d="M317.7,24.9c0-6.9,0-13.8,0-20.8c0-2.4,1-3.4,3.4-3.4c7.8,0,15.5,0,23.3,0c8.6,0,16.2,6.3,17.8,14.8
		c1.3,6.8,1.3,13.6-0.8,20.3c-2.5,8.2-9.9,13.2-18.3,13.4c-7.4,0.2-14.8,0-22.3,0c-2.2,0-3.2-1.1-3.2-3.3
		C317.7,38.9,317.7,31.9,317.7,24.9z M323.4,6.3c0,12.5,0,24.8,0,37.2c0.2,0,0.3,0.1,0.5,0.1c6.5,0,13,0.1,19.5,0
		c6.6-0.2,11.6-4.5,13.1-10.8c1.1-4.7,1.2-9.5,0.5-14.3c-1.2-8-6.1-12.1-14.2-12.1c-6,0-12,0-18,0C324.4,6.3,323.9,6.3,323.4,6.3z"
		/>
	<path class="st1" d="M83,101c-1.4,0.4-2.8,0.7-4,1.3c-1.2,0.6-2.3,1.5-3.3,2.5c-1.7,1.7-3.6,2.8-6.1,2.9c-4.2,0.1-7.6,2.1-10.9,4.5
		c-1.8,1.3-3.6,2.5-5.6,3.5c-1.1,0.5-2.6,0.6-3.9,0.4c-1.8-0.3-3-2.2-2.4-4c0.4-1.2,1.2-2.3,2-3.2c1.4-1.4,3-2.7,4.6-4
		c0.4-0.3,1-0.5,1.5-0.5c4,0,8.1,0,12.1,0c0.4,0,0.9,0,1.5,0c0-0.7,0-1.2,0-1.7c0-11.8,0-23.6,0-35.4c0-4,2.5-7,6.3-7.6
		c3.9-0.6,8,2.7,8.1,6.6c0.1,11.5,0,23.1,0,34.6C83.1,100.9,83,101,83,101z"/>
	<path class="st4" d="M280.3,26.5c0,0.6,0,1.1,0,1.5c0,4.1,0,8.2,0,12.3c0,2.9,0.3,3.2,3.3,3.2c8.2,0,16.4,0,24.6,0
		c0.8,0,1.7,0.3,2.4,0.7c1,0.7,1.3,1.7,0.9,2.9c-0.4,1.2-1.3,1.8-2.5,1.9c-0.2,0-0.5,0-0.8,0c-8.5,0-16.9,0-25.4,0
		c-4.9,0-8.1-3.1-8.1-8c0-10.7,0-21.4,0-32.2c0-4.8,3.3-8.1,8.1-8.2c8.5,0,17,0,25.5,0c1.6,0,2.7,0.7,3.1,2c0.4,1.2,0,2.3-1.2,3
		c-0.6,0.3-1.3,0.5-2,0.5c-8,0-15.9,0-23.9,0c-0.3,0-0.6,0-0.9,0c-2.6,0.1-3.2,0.7-3.2,3.3c0,3.3,0,6.6,0,9.9c0,0.4,0,0.9,0,1.5
		c0.6,0,1.1,0,1.6,0c8.7,0,17.4,0,26.1,0c1.2,0,2.1,0.4,2.7,1.4c0.5,1,0.5,1.9-0.1,2.8c-0.6,0.9-1.5,1.3-2.7,1.3
		c-8.7,0-17.4,0-26.1,0C281.4,26.5,280.9,26.5,280.3,26.5z"/>
	<path class="st3" d="M43,36.7c0,2.8,1.4,4.8,4,5.6c3.1,1.1,5.6,0.1,8.1-3.1c2.4,1.1,4.8,2.2,7.6,3.5c-1.2,1.3-2.2,2.8-3.5,3.8
		c-4.9,3.8-10.5,4.7-16.2,2.5c-5.6-2.1-8.8-6.5-9.5-12.4c-1.2-10.3,7.3-18.3,16.8-17.1c7,0.8,11.4,4.7,12.7,11.2
		c0.3,1.6,0.2,3.2,0.4,4.8c0.1,1-0.4,1.2-1.2,1.2c-5.8,0-11.7,0-17.5,0C44.1,36.7,43.6,36.7,43,36.7z"/>
	<path class="st3" d="M169.6,21c3,0,5.9,0,9,0c0,0.5,0,0.9,0,1.4c0,5.3-0.1,10.7,0,16c0.1,4.3-1.8,7.3-5.2,9.6
		c-5.8,3.8-14.4,3.3-19.7-1.1c-2.3-1.9-3.7-4.4-3.7-7.5c-0.1-6,0-11.9,0-17.9c0-0.1,0-0.2,0.1-0.5c3,0,5.9,0,9.1,0
		c0,0.4,0,0.9,0,1.3c0,5,0,9.9,0,14.9c0,3,2.2,5.2,5.2,5.3c3,0,5.3-2.2,5.3-5.2C169.7,31.9,169.6,26.5,169.6,21z"/>
	<path class="st4" d="M405,9.3c-1,1.8-1.8,3.4-2.7,5c-4.5,8.6-9,17.3-13.5,25.9c-1.2,2.4-2.5,4.7-3.7,7.1c-0.8,1.6-2.4,2.2-3.9,1.4
		c-1.4-0.7-1.8-2.3-1-3.9c4.1-7.9,8.2-15.8,12.3-23.7c3.3-6.3,6.6-12.6,9.9-18.9c0.6-1.1,1.4-1.7,2.6-1.7c1.2,0,2,0.7,2.5,1.7
		c3.9,7.6,7.9,15.1,11.9,22.7c3.5,6.7,7,13.4,10.5,20.1c0.8,1.6,0.7,2.7-0.5,3.7c-1,0.9-2.5,1-3.5,0c-0.4-0.4-0.8-0.9-1.1-1.4
		c-4.4-8.4-8.8-16.9-13.2-25.3C409.6,17.9,407.4,13.7,405,9.3z"/>
	<path class="st3" d="M192.8,49.2c-2.8,0-5.6,0-8.4,0c-0.2,0-0.5-0.4-0.7-0.6c-0.1-0.1,0-0.4,0-0.6c0-15.3,0-30.6,0-45.9
		c0-0.4,0-0.7,0-1.2c3.1,0,6,0,9.1,0C192.8,16.9,192.8,32.9,192.8,49.2z"/>
	<path class="st3" d="M199.5,0.8c3,0,6,0,9,0c0,16.1,0,32.2,0,48.3c-3,0-5.9,0-9,0C199.5,33,199.5,17,199.5,0.8z"/>
	<path class="st4" d="M369.2,24.9c0-7,0-13.9,0-20.9c0-2,1.1-3.3,2.8-3.3c1.7,0,2.8,1.3,2.8,3.3c0,14,0,27.9,0,41.9
		c0,1.9-1.2,3.3-2.8,3.3c-1.6,0-2.8-1.4-2.8-3.3C369.2,38.9,369.2,31.9,369.2,24.9z"/>
	<path class="st1" d="M134.3,121.5c-0.5-2.3-0.9-1.9,1.2-2.9c3.5-1.7,7-3.4,10.5-5.1c0.5-0.3,1.1-0.4,1.8-0.5
		C143.3,115.8,138.9,118.6,134.3,121.5z"/>
	<path class="st1" d="M93.6,136.2c1.4-0.1,2.7-0.2,4-0.2c0.3,0,0.7,0.4,0.8,0.7c0.3,0.7,0.5,1.4,0.8,2.1c0.1,0.1,0.1,0.4,0.1,0.5
		c-0.6,0.4-1.2,0.9-1.9,1.1c-0.5,0.1-1.4,0-1.6-0.4C94.9,138.8,94.4,137.5,93.6,136.2z"/>
	<path class="st1" d="M35.3,147.2c0.3-1.4,0.4-2.7,0.8-3.9c0.2-0.6,1-1.4,1.7-1.5c0.9-0.1,1.4,1.3,1.1,2.3c-0.4,1.2-0.7,2.4-1.1,3.7
		C36.9,147.6,36,147.4,35.3,147.2z"/>
	<path class="st1" d="M40.6,141.8c-0.4-0.4-1-0.7-1.1-1.1c-0.1-0.5,0.2-1.2,0.6-1.6c0.6-0.6,1.3-1.1,2-1.4c0.4-0.2,1-0.1,1.4,0.1
		c0.6,0.3,0.5,0.9,0.1,1.3c-0.5,0.7-1,1.4-1.6,2C41.7,141.5,41.2,141.6,40.6,141.8z"/>
	<path class="st1" d="M114.2,129.9c-0.8,1-1.6,1.9-2.6,3.2c-0.5-1-0.9-1.8-1.4-2.8c1.5-0.3,2.7-0.5,3.9-0.7
		C114,129.7,114.1,129.8,114.2,129.9z"/>
</g>
</svg>
