<?xml version="1.0" encoding="UTF-8" standalone="no"?>
<!DOCTYPE svg PUBLIC "-//W3C//DTD SVG 1.1//EN" "http://www.w3.org/Graphics/SVG/1.1/DTD/svg11.dtd">
<svg width="100%" height="100%" viewBox="0 0 100 125" version="1.1" xmlns="http://www.w3.org/2000/svg" xmlns:xlink="http://www.w3.org/1999/xlink" xml:space="preserve" xmlns:serif="http://www.serif.com/" style="fill-rule:evenodd;clip-rule:evenodd;stroke-linejoin:round;stroke-miterlimit:2;">
    <g>
        <path d="M37.438,40.009L62.563,40.009C63.391,40.009 64.063,39.338 64.063,38.509C64.063,37.68 63.391,37.009 62.563,37.009L37.438,37.009C36.61,37.009 35.938,37.68 35.938,38.509C35.938,39.338 36.609,40.009 37.438,40.009Z" style="fill-rule:nonzero;"/>
        <path d="M37.438,30.009L62.563,30.009C63.391,30.009 64.063,29.338 64.063,28.509C64.063,27.68 63.391,27.009 62.563,27.009L37.438,27.009C36.61,27.009 35.938,27.68 35.938,28.509C35.938,29.338 36.609,30.009 37.438,30.009Z" style="fill-rule:nonzero;"/>
        <path d="M60.563,47.009L39.438,47.009C38.61,47.009 37.938,47.68 37.938,48.509C37.938,49.338 38.61,50.009 39.438,50.009L60.563,50.009C61.391,50.009 62.063,49.338 62.063,48.509C62.063,47.68 61.391,47.009 60.563,47.009Z" style="fill-rule:nonzero;"/>
        <path d="M82,37L76,37L76,17C76,14.8 74.201,13 72,13L28,13C25.801,13 24,14.8 24,17L24,37L18,37C15.801,37 14,38.8 14,41L14,82C14,84.2 15.801,86 18,86L82,86C84.201,86 86,84.2 86,82L86,41C86,38.8 84.201,37 82,37ZM67.166,61.057C66.645,60.412 65.701,60.313 65.057,60.834C64.413,61.355 64.313,62.3 64.834,62.943L81.07,83L18.93,83L35.166,62.943C35.687,62.299 35.588,61.355 34.943,60.834C34.3,60.313 33.355,60.412 32.834,61.057L17,80.616L17,41.938L45.955,65.628C47.123,66.578 48.572,67.009 50,67.012C51.428,67.01 52.879,66.578 54.045,65.628L83,41.938L83,80.615L67.166,61.057ZM80.631,40L76,43.789L76,40L80.631,40ZM28,16L72,16C72.543,16 73,16.458 73,17L73,46.243L52.146,63.307C51.611,63.749 50.816,64.014 50,64.012C49.184,64.014 48.391,63.749 47.854,63.307L27,46.244L27,17C27,16.458 27.459,16 28,16ZM24,43.789L19.369,40L24,40L24,43.789Z" style="fill-rule:nonzero;"/>
    </g>
</svg>
