<?xml version="1.0" encoding="UTF-8"?>
<svg width="197px" height="190px" viewBox="0 0 197 190" version="1.1" xmlns="http://www.w3.org/2000/svg" xmlns:xlink="http://www.w3.org/1999/xlink">
    <!-- Generator: Sketch 52.6 (67491) - http://www.bohemiancoding.com/sketch -->
    <title>Group</title>
    <desc>Created with Sketch.</desc>
    <g id="Page-1" stroke="none" stroke-width="1" fill="none" fill-rule="evenodd">
        <g id="SS_FACTORY" transform="translate(-99.000000, -212.000000)">
            <g id="Group" transform="translate(99.000000, 212.000000)">
                <polyline id="Fill-2" fill="#136EA2" points="65.647 76.235 32.917 57.338 0.401 76.235 33.131 95.131 65.647 76.235"></polyline>
                <polyline id="Fill-3" fill="#136EA2" points="196.002 76.211 163.273 57.315 130.756 76.211 163.486 95.108 196.002 76.211"></polyline>
                <polyline id="Fill-4" fill="#136EA2" points="65.759 113.989 98.489 132.885 131.005 113.989 98.276 95.092 65.759 113.989"></polyline>
                <polyline id="Fill-5" fill="#AABBCD" points="65.536 189.196 98.053 170.299 98.16 132.691 65.643 151.587 65.536 189.196"></polyline>
                <polyline id="Fill-6" fill="#AABBCD" points="130.785 76.192 163.302 57.295 163.409 19.687 130.892 38.583 130.785 76.192"></polyline>
                <polyline id="Fill-7" fill="#AABBCD" points="98.375 57.491 65.858 76.388 65.751 113.996 98.269 95.1 98.375 57.491"></polyline>
                <polyline id="Fill-8" fill="#01394E" points="98.053 170.304 130.783 189.201 130.89 151.592 98.16 132.696 98.053 170.304"></polyline>
                <polyline id="Fill-9" fill="#01394E" points="32.811 57.31 65.54 76.206 65.646 38.597 32.917 19.701 32.811 57.31"></polyline>
                <polyline id="Fill-10" fill="#01394E" points="131.105 76.386 98.375 57.49 98.268 95.098 130.999 113.995 131.105 76.386"></polyline>
                <polyline id="Fill-11" fill="#0E77B0" points="130.885 38.592 163.402 19.696 130.682 0.804 98.165 19.702 65.435 0.804 32.917 19.702 65.647 38.598 33.13 57.495 65.851 76.386 98.368 57.49 131.097 76.386 163.615 57.489 130.885 38.592"></polyline>
                <polyline id="Fill-12" fill="#01425A" points="65.751 113.989 65.858 76.379 33.138 57.489 33.031 95.097 0.302 76.201 0.195 113.81 32.924 132.706 32.818 170.315 65.538 189.206 65.645 151.598 98.375 170.495 98.481 132.885 65.751 113.989"></polyline>
                <polyline id="Fill-13" fill="#B8CDE0" points="163.506 95.095 163.613 57.487 131.105 76.378 130.999 113.987 98.481 132.883 98.375 170.493 130.892 151.596 130.785 189.204 163.293 170.313 163.399 132.704 195.917 113.808 196.023 76.199 163.506 95.095"></polyline>
            </g>
        </g>
    </g>
</svg>